<?xml version="1.0" encoding="utf-8" standalone="no"?>
<!DOCTYPE svg PUBLIC "-//W3C//DTD SVG 1.1//EN"
  "http://www.w3.org/Graphics/SVG/1.1/DTD/svg11.dtd">
<svg xmlns:xlink="http://www.w3.org/1999/xlink" width="460.8pt" height="345.6pt" viewBox="0 0 460.8 345.6" xmlns="http://www.w3.org/2000/svg" version="1.1">
 <metadata>
  <rdf:RDF xmlns:dc="http://purl.org/dc/elements/1.1/" xmlns:cc="http://creativecommons.org/ns#" xmlns:rdf="http://www.w3.org/1999/02/22-rdf-syntax-ns#">
   <cc:Work>
    <dc:type rdf:resource="http://purl.org/dc/dcmitype/StillImage"/>
    <dc:date>2022-12-20T12:31:04.587814</dc:date>
    <dc:format>image/svg+xml</dc:format>
    <dc:creator>
     <cc:Agent>
      <dc:title>Matplotlib v3.6.0, https://matplotlib.org/</dc:title>
     </cc:Agent>
    </dc:creator>
   </cc:Work>
  </rdf:RDF>
 </metadata>
 <defs>
  <style type="text/css">*{stroke-linejoin: round; stroke-linecap: butt}</style>
 </defs>
 <g id="figure_1">
  <g id="patch_1">
   <path d="M 0 345.6 
L 460.8 345.6 
L 460.8 0 
L 0 0 
z
" style="fill: #ffffff"/>
  </g>
  <g id="axes_1">
   <g id="patch_2">
    <path d="M 43.09 271.28 
L 450 271.28 
L 450 10.8 
L 43.09 10.8 
z
" style="fill: #ffffff"/>
   </g>
   <g id="patch_3">
    <path d="M 144.8175 271.28 
L 348.2725 271.28 
L 348.2725 23.20381 
L 144.8175 23.20381 
z
" clip-path="url(#p9f707f8596)" style="fill: #1f77b4"/>
   </g>
   <g id="patch_4">
    <path d="M 551.7275 271.28 
L 755.1825 271.28 
L 755.1825 81.551083 
L 551.7275 81.551083 
z
" clip-path="url(#p9f707f8596)" style="fill: #1f77b4"/>
   </g>
   <g id="patch_5">
    <path d="M 958.6375 271.28 
L 1162.0925 271.28 
L 1162.0925 64.193552 
L 958.6375 64.193552 
z
" clip-path="url(#p9f707f8596)" style="fill: #1f77b4"/>
   </g>
   <g id="patch_6">
    <path d="M 1365.5475 271.28 
L 1569.0025 271.28 
L 1569.0025 102.332161 
L 1365.5475 102.332161 
z
" clip-path="url(#p9f707f8596)" style="fill: #1f77b4"/>
   </g>
   <g id="patch_7">
    <path d="M 1772.4575 271.28 
L 1975.9125 271.28 
L 1975.9125 169.633891 
L 1772.4575 169.633891 
z
" clip-path="url(#p9f707f8596)" style="fill: #1f77b4"/>
   </g>
   <g id="patch_8">
    <path d="M 144.8175 271.28 
L 348.2725 271.28 
L 348.2725 270.618087 
L 144.8175 270.618087 
z
" clip-path="url(#p9f707f8596)" style="fill: #1f77b4"/>
   </g>
   <g id="patch_9">
    <path d="M 551.7275 271.28 
L 755.1825 271.28 
L 755.1825 271.059362 
L 551.7275 271.059362 
z
" clip-path="url(#p9f707f8596)" style="fill: #1f77b4"/>
   </g>
   <g id="patch_10">
    <path d="M 958.6375 271.28 
L 1162.0925 271.28 
L 1162.0925 271.28 
L 958.6375 271.28 
z
" clip-path="url(#p9f707f8596)" style="fill: #1f77b4"/>
   </g>
   <g id="patch_11">
    <path d="M 144.8175 271.28 
L 348.2725 271.28 
L 348.2725 271.206454 
L 144.8175 271.206454 
z
" clip-path="url(#p9f707f8596)" style="fill: #1f77b4"/>
   </g>
   <g id="patch_12">
    <path d="M 551.7275 271.28 
L 755.1825 271.28 
L 755.1825 271.206454 
L 551.7275 271.206454 
z
" clip-path="url(#p9f707f8596)" style="fill: #1f77b4"/>
   </g>
   <g id="patch_13">
    <path d="M 958.6375 271.28 
L 1162.0925 271.28 
L 1162.0925 271.206454 
L 958.6375 271.206454 
z
" clip-path="url(#p9f707f8596)" style="fill: #1f77b4"/>
   </g>
   <g id="patch_14">
    <path d="M 1365.5475 271.28 
L 1569.0025 271.28 
L 1569.0025 271.059362 
L 1365.5475 271.059362 
z
" clip-path="url(#p9f707f8596)" style="fill: #1f77b4"/>
   </g>
   <g id="patch_15">
    <path d="M 1772.4575 271.28 
L 1975.9125 271.28 
L 1975.9125 271.28 
L 1772.4575 271.28 
z
" clip-path="url(#p9f707f8596)" style="fill: #1f77b4"/>
   </g>
   <g id="patch_16">
    <path d="M 144.8175 271.28 
L 348.2725 271.28 
L 348.2725 229.800087 
L 144.8175 229.800087 
z
" clip-path="url(#p9f707f8596)" style="fill: #1f77b4"/>
   </g>
   <g id="patch_17">
    <path d="M 551.7275 271.28 
L 755.1825 271.28 
L 755.1825 259.586195 
L 551.7275 259.586195 
z
" clip-path="url(#p9f707f8596)" style="fill: #1f77b4"/>
   </g>
   <g id="patch_18">
    <path d="M 958.6375 271.28 
L 1162.0925 271.28 
L 1162.0925 261.682254 
L 958.6375 261.682254 
z
" clip-path="url(#p9f707f8596)" style="fill: #1f77b4"/>
   </g>
   <g id="patch_19">
    <path d="M 1365.5475 271.28 
L 1569.0025 271.28 
L 1569.0025 230.903277 
L 1365.5475 230.903277 
z
" clip-path="url(#p9f707f8596)" style="fill: #1f77b4"/>
   </g>
   <g id="patch_20">
    <path d="M 1772.4575 271.28 
L 1975.9125 271.28 
L 1975.9125 266.095011 
L 1772.4575 266.095011 
z
" clip-path="url(#p9f707f8596)" style="fill: #1f77b4"/>
   </g>
   <g id="patch_21">
    <path d="M 144.8175 271.28 
L 348.2725 271.28 
L 348.2725 271.059362 
L 144.8175 271.059362 
z
" clip-path="url(#p9f707f8596)" style="fill: #1f77b4"/>
   </g>
   <g id="patch_22">
    <path d="M 551.7275 271.28 
L 755.1825 271.28 
L 755.1825 271.28 
L 551.7275 271.28 
z
" clip-path="url(#p9f707f8596)" style="fill: #1f77b4"/>
   </g>
   <g id="patch_23">
    <path d="M 958.6375 271.28 
L 1162.0925 271.28 
L 1162.0925 271.28 
L 958.6375 271.28 
z
" clip-path="url(#p9f707f8596)" style="fill: #1f77b4"/>
   </g>
   <g id="patch_24">
    <path d="M 1365.5475 271.28 
L 1569.0025 271.28 
L 1569.0025 271.28 
L 1365.5475 271.28 
z
" clip-path="url(#p9f707f8596)" style="fill: #1f77b4"/>
   </g>
   <g id="patch_25">
    <path d="M 144.8175 271.28 
L 348.2725 271.28 
L 348.2725 265.322779 
L 144.8175 265.322779 
z
" clip-path="url(#p9f707f8596)" style="fill: #1f77b4"/>
   </g>
   <g id="patch_26">
    <path d="M 551.7275 271.28 
L 755.1825 271.28 
L 755.1825 270.618087 
L 551.7275 270.618087 
z
" clip-path="url(#p9f707f8596)" style="fill: #1f77b4"/>
   </g>
   <g id="patch_27">
    <path d="M 958.6375 271.28 
L 1162.0925 271.28 
L 1162.0925 271.059362 
L 958.6375 271.059362 
z
" clip-path="url(#p9f707f8596)" style="fill: #1f77b4"/>
   </g>
   <g id="patch_28">
    <path d="M 1365.5475 271.28 
L 1569.0025 271.28 
L 1569.0025 271.059362 
L 1365.5475 271.059362 
z
" clip-path="url(#p9f707f8596)" style="fill: #1f77b4"/>
   </g>
   <g id="patch_29">
    <path d="M 1772.4575 271.28 
L 1975.9125 271.28 
L 1975.9125 269.735535 
L 1772.4575 269.735535 
z
" clip-path="url(#p9f707f8596)" style="fill: #1f77b4"/>
   </g>
   <g id="patch_30">
    <path d="M 144.8175 271.28 
L 348.2725 271.28 
L 348.2725 270.838724 
L 144.8175 270.838724 
z
" clip-path="url(#p9f707f8596)" style="fill: #1f77b4"/>
   </g>
   <g id="patch_31">
    <path d="M 551.7275 271.28 
L 755.1825 271.28 
L 755.1825 270.838724 
L 551.7275 270.838724 
z
" clip-path="url(#p9f707f8596)" style="fill: #1f77b4"/>
   </g>
   <g id="patch_32">
    <path d="M 958.6375 271.28 
L 1162.0925 271.28 
L 1162.0925 270.838724 
L 958.6375 270.838724 
z
" clip-path="url(#p9f707f8596)" style="fill: #1f77b4"/>
   </g>
   <g id="patch_33">
    <path d="M 1365.5475 271.28 
L 1569.0025 271.28 
L 1569.0025 270.838724 
L 1365.5475 270.838724 
z
" clip-path="url(#p9f707f8596)" style="fill: #1f77b4"/>
   </g>
   <g id="patch_34">
    <path d="M 1772.4575 271.28 
L 1975.9125 271.28 
L 1975.9125 270.838724 
L 1772.4575 270.838724 
z
" clip-path="url(#p9f707f8596)" style="fill: #1f77b4"/>
   </g>
   <g id="patch_35">
    <path d="M 144.8175 271.28 
L 348.2725 271.28 
L 348.2725 270.618087 
L 144.8175 270.618087 
z
" clip-path="url(#p9f707f8596)" style="fill: #1f77b4"/>
   </g>
   <g id="patch_36">
    <path d="M 551.7275 271.28 
L 755.1825 271.28 
L 755.1825 270.728405 
L 551.7275 270.728405 
z
" clip-path="url(#p9f707f8596)" style="fill: #1f77b4"/>
   </g>
   <g id="patch_37">
    <path d="M 958.6375 271.28 
L 1162.0925 271.28 
L 1162.0925 271.059362 
L 958.6375 271.059362 
z
" clip-path="url(#p9f707f8596)" style="fill: #1f77b4"/>
   </g>
   <g id="patch_38">
    <path d="M 1365.5475 271.28 
L 1569.0025 271.28 
L 1569.0025 271.169681 
L 1365.5475 271.169681 
z
" clip-path="url(#p9f707f8596)" style="fill: #1f77b4"/>
   </g>
   <g id="patch_39">
    <path d="M 1772.4575 271.28 
L 1975.9125 271.28 
L 1975.9125 271.169681 
L 1772.4575 271.169681 
z
" clip-path="url(#p9f707f8596)" style="fill: #1f77b4"/>
   </g>
   <g id="patch_40">
    <path d="M 144.8175 271.28 
L 348.2725 271.28 
L 348.2725 270.618087 
L 144.8175 270.618087 
z
" clip-path="url(#p9f707f8596)" style="fill: #1f77b4"/>
   </g>
   <g id="patch_41">
    <path d="M 551.7275 271.28 
L 755.1825 271.28 
L 755.1825 271.28 
L 551.7275 271.28 
z
" clip-path="url(#p9f707f8596)" style="fill: #1f77b4"/>
   </g>
   <g id="patch_42">
    <path d="M 958.6375 271.28 
L 1162.0925 271.28 
L 1162.0925 271.28 
L 958.6375 271.28 
z
" clip-path="url(#p9f707f8596)" style="fill: #1f77b4"/>
   </g>
   <g id="patch_43">
    <path d="M 144.8175 271.28 
L 348.2725 271.28 
L 348.2725 270.618087 
L 144.8175 270.618087 
z
" clip-path="url(#p9f707f8596)" style="fill: #1f77b4"/>
   </g>
   <g id="patch_44">
    <path d="M 551.7275 271.28 
L 755.1825 271.28 
L 755.1825 271.059362 
L 551.7275 271.059362 
z
" clip-path="url(#p9f707f8596)" style="fill: #1f77b4"/>
   </g>
   <g id="patch_45">
    <path d="M 144.8175 271.28 
L 348.2725 271.28 
L 348.2725 28.000517 
L 144.8175 28.000517 
z
" clip-path="url(#p9f707f8596)" style="fill: #1f77b4"/>
   </g>
   <g id="patch_46">
    <path d="M 551.7275 271.28 
L 755.1825 271.28 
L 755.1825 96.474701 
L 551.7275 96.474701 
z
" clip-path="url(#p9f707f8596)" style="fill: #1f77b4"/>
   </g>
   <g id="patch_47">
    <path d="M 958.6375 271.28 
L 1162.0925 271.28 
L 1162.0925 119.345227 
L 958.6375 119.345227 
z
" clip-path="url(#p9f707f8596)" style="fill: #1f77b4"/>
   </g>
   <g id="patch_48">
    <path d="M 1365.5475 271.28 
L 1569.0025 271.28 
L 1569.0025 97.081866 
L 1365.5475 97.081866 
z
" clip-path="url(#p9f707f8596)" style="fill: #1f77b4"/>
   </g>
   <g id="patch_49">
    <path d="M 1772.4575 271.28 
L 1975.9125 271.28 
L 1975.9125 143.159 
L 1772.4575 143.159 
z
" clip-path="url(#p9f707f8596)" style="fill: #1f77b4"/>
   </g>
   <g id="patch_50">
    <path d="M 144.8175 271.28 
L 348.2725 271.28 
L 348.2725 271.28 
L 144.8175 271.28 
z
" clip-path="url(#p9f707f8596)" style="fill: #1f77b4"/>
   </g>
   <g id="patch_51">
    <path d="M 551.7275 271.28 
L 755.1825 271.28 
L 755.1825 271.28 
L 551.7275 271.28 
z
" clip-path="url(#p9f707f8596)" style="fill: #1f77b4"/>
   </g>
   <g id="patch_52">
    <path d="M 958.6375 271.28 
L 1162.0925 271.28 
L 1162.0925 271.28 
L 958.6375 271.28 
z
" clip-path="url(#p9f707f8596)" style="fill: #1f77b4"/>
   </g>
   <g id="patch_53">
    <path d="M 1365.5475 271.28 
L 1569.0025 271.28 
L 1569.0025 271.28 
L 1365.5475 271.28 
z
" clip-path="url(#p9f707f8596)" style="fill: #1f77b4"/>
   </g>
   <g id="patch_54">
    <path d="M 1772.4575 271.28 
L 1975.9125 271.28 
L 1975.9125 271.28 
L 1772.4575 271.28 
z
" clip-path="url(#p9f707f8596)" style="fill: #1f77b4"/>
   </g>
   <g id="patch_55">
    <path d="M 144.8175 271.28 
L 348.2725 271.28 
L 348.2725 271.059362 
L 144.8175 271.059362 
z
" clip-path="url(#p9f707f8596)" style="fill: #1f77b4"/>
   </g>
   <g id="patch_56">
    <path d="M 551.7275 271.28 
L 755.1825 271.28 
L 755.1825 271.28 
L 551.7275 271.28 
z
" clip-path="url(#p9f707f8596)" style="fill: #1f77b4"/>
   </g>
   <g id="patch_57">
    <path d="M 958.6375 271.28 
L 1162.0925 271.28 
L 1162.0925 271.28 
L 958.6375 271.28 
z
" clip-path="url(#p9f707f8596)" style="fill: #1f77b4"/>
   </g>
   <g id="patch_58">
    <path d="M 1365.5475 271.28 
L 1569.0025 271.28 
L 1569.0025 271.28 
L 1365.5475 271.28 
z
" clip-path="url(#p9f707f8596)" style="fill: #1f77b4"/>
   </g>
   <g id="patch_59">
    <path d="M 1772.4575 271.28 
L 1975.9125 271.28 
L 1975.9125 271.28 
L 1772.4575 271.28 
z
" clip-path="url(#p9f707f8596)" style="fill: #1f77b4"/>
   </g>
   <g id="patch_60">
    <path d="M 144.8175 271.28 
L 348.2725 271.28 
L 348.2725 270.066492 
L 144.8175 270.066492 
z
" clip-path="url(#p9f707f8596)" style="fill: #1f77b4"/>
   </g>
   <g id="patch_61">
    <path d="M 551.7275 271.28 
L 755.1825 271.28 
L 755.1825 270.618087 
L 551.7275 270.618087 
z
" clip-path="url(#p9f707f8596)" style="fill: #1f77b4"/>
   </g>
   <g id="patch_62">
    <path d="M 958.6375 271.28 
L 1162.0925 271.28 
L 1162.0925 271.169681 
L 958.6375 271.169681 
z
" clip-path="url(#p9f707f8596)" style="fill: #1f77b4"/>
   </g>
   <g id="patch_63">
    <path d="M 1365.5475 271.28 
L 1569.0025 271.28 
L 1569.0025 271.28 
L 1365.5475 271.28 
z
" clip-path="url(#p9f707f8596)" style="fill: #1f77b4"/>
   </g>
   <g id="patch_64">
    <path d="M 1772.4575 271.28 
L 1975.9125 271.28 
L 1975.9125 271.28 
L 1772.4575 271.28 
z
" clip-path="url(#p9f707f8596)" style="fill: #1f77b4"/>
   </g>
   <g id="patch_65">
    <path d="M 144.8175 271.28 
L 348.2725 271.28 
L 348.2725 246.899519 
L 144.8175 246.899519 
z
" clip-path="url(#p9f707f8596)" style="fill: #1f77b4"/>
   </g>
   <g id="patch_66">
    <path d="M 551.7275 271.28 
L 755.1825 271.28 
L 755.1825 269.073622 
L 551.7275 269.073622 
z
" clip-path="url(#p9f707f8596)" style="fill: #1f77b4"/>
   </g>
   <g id="patch_67">
    <path d="M 958.6375 271.28 
L 1162.0925 271.28 
L 1162.0925 257.968184 
L 958.6375 257.968184 
z
" clip-path="url(#p9f707f8596)" style="fill: #1f77b4"/>
   </g>
   <g id="patch_68">
    <path d="M 1365.5475 271.28 
L 1569.0025 271.28 
L 1569.0025 254.511525 
L 1365.5475 254.511525 
z
" clip-path="url(#p9f707f8596)" style="fill: #1f77b4"/>
   </g>
   <g id="patch_69">
    <path d="M 1772.4575 271.28 
L 1975.9125 271.28 
L 1975.9125 257.710773 
L 1772.4575 257.710773 
z
" clip-path="url(#p9f707f8596)" style="fill: #1f77b4"/>
   </g>
   <g id="patch_70">
    <path d="M 144.8175 271.28 
L 348.2725 271.28 
L 348.2725 197.854029 
L 144.8175 197.854029 
z
" clip-path="url(#p9f707f8596)" style="fill: #1f77b4"/>
   </g>
   <g id="patch_71">
    <path d="M 551.7275 271.28 
L 755.1825 271.28 
L 755.1825 208.390714 
L 551.7275 208.390714 
z
" clip-path="url(#p9f707f8596)" style="fill: #1f77b4"/>
   </g>
   <g id="patch_72">
    <path d="M 958.6375 271.28 
L 1162.0925 271.28 
L 1162.0925 118.55243 
L 958.6375 118.55243 
z
" clip-path="url(#p9f707f8596)" style="fill: #1f77b4"/>
   </g>
   <g id="patch_73">
    <path d="M 1365.5475 271.28 
L 1569.0025 271.28 
L 1569.0025 179.182098 
L 1365.5475 179.182098 
z
" clip-path="url(#p9f707f8596)" style="fill: #1f77b4"/>
   </g>
   <g id="patch_74">
    <path d="M 1772.4575 271.28 
L 1975.9125 271.28 
L 1975.9125 117.546871 
L 1772.4575 117.546871 
z
" clip-path="url(#p9f707f8596)" style="fill: #1f77b4"/>
   </g>
   <g id="patch_75">
    <path d="M 144.8175 271.28 
L 348.2725 271.28 
L 348.2725 271.28 
L 144.8175 271.28 
z
" clip-path="url(#p9f707f8596)" style="fill: #1f77b4"/>
   </g>
   <g id="patch_76">
    <path d="M 551.7275 271.28 
L 755.1825 271.28 
L 755.1825 271.28 
L 551.7275 271.28 
z
" clip-path="url(#p9f707f8596)" style="fill: #1f77b4"/>
   </g>
   <g id="patch_77">
    <path d="M 144.8175 271.28 
L 348.2725 271.28 
L 348.2725 268.522027 
L 144.8175 268.522027 
z
" clip-path="url(#p9f707f8596)" style="fill: #1f77b4"/>
   </g>
   <g id="patch_78">
    <path d="M 551.7275 271.28 
L 755.1825 271.28 
L 755.1825 269.073622 
L 551.7275 269.073622 
z
" clip-path="url(#p9f707f8596)" style="fill: #1f77b4"/>
   </g>
   <g id="patch_79">
    <path d="M 958.6375 271.28 
L 1162.0925 271.28 
L 1162.0925 269.956173 
L 958.6375 269.956173 
z
" clip-path="url(#p9f707f8596)" style="fill: #1f77b4"/>
   </g>
   <g id="patch_80">
    <path d="M 1365.5475 271.28 
L 1569.0025 271.28 
L 1569.0025 271.059362 
L 1365.5475 271.059362 
z
" clip-path="url(#p9f707f8596)" style="fill: #1f77b4"/>
   </g>
   <g id="patch_81">
    <path d="M 1772.4575 271.28 
L 1975.9125 271.28 
L 1975.9125 270.838724 
L 1772.4575 270.838724 
z
" clip-path="url(#p9f707f8596)" style="fill: #1f77b4"/>
   </g>
   <g id="patch_82">
    <path d="M 144.8175 271.28 
L 348.2725 271.28 
L 348.2725 270.618087 
L 144.8175 270.618087 
z
" clip-path="url(#p9f707f8596)" style="fill: #1f77b4"/>
   </g>
   <g id="patch_83">
    <path d="M 551.7275 271.28 
L 755.1825 271.28 
L 755.1825 270.618087 
L 551.7275 270.618087 
z
" clip-path="url(#p9f707f8596)" style="fill: #1f77b4"/>
   </g>
   <g id="patch_84">
    <path d="M 958.6375 271.28 
L 1162.0925 271.28 
L 1162.0925 271.059362 
L 958.6375 271.059362 
z
" clip-path="url(#p9f707f8596)" style="fill: #1f77b4"/>
   </g>
   <g id="patch_85">
    <path d="M 1365.5475 271.28 
L 1569.0025 271.28 
L 1569.0025 271.28 
L 1365.5475 271.28 
z
" clip-path="url(#p9f707f8596)" style="fill: #1f77b4"/>
   </g>
   <g id="patch_86">
    <path d="M 1772.4575 271.28 
L 1975.9125 271.28 
L 1975.9125 271.28 
L 1772.4575 271.28 
z
" clip-path="url(#p9f707f8596)" style="fill: #1f77b4"/>
   </g>
   <g id="patch_87">
    <path d="M 144.8175 271.28 
L 348.2725 271.28 
L 348.2725 266.646606 
L 144.8175 266.646606 
z
" clip-path="url(#p9f707f8596)" style="fill: #1f77b4"/>
   </g>
   <g id="patch_88">
    <path d="M 551.7275 271.28 
L 755.1825 271.28 
L 755.1825 271.169681 
L 551.7275 271.169681 
z
" clip-path="url(#p9f707f8596)" style="fill: #1f77b4"/>
   </g>
   <g id="patch_89">
    <path d="M 958.6375 271.28 
L 1162.0925 271.28 
L 1162.0925 271.169681 
L 958.6375 271.169681 
z
" clip-path="url(#p9f707f8596)" style="fill: #1f77b4"/>
   </g>
   <g id="patch_90">
    <path d="M 1365.5475 271.28 
L 1569.0025 271.28 
L 1569.0025 271.169681 
L 1365.5475 271.169681 
z
" clip-path="url(#p9f707f8596)" style="fill: #1f77b4"/>
   </g>
   <g id="patch_91">
    <path d="M 1772.4575 271.28 
L 1975.9125 271.28 
L 1975.9125 271.169681 
L 1772.4575 271.169681 
z
" clip-path="url(#p9f707f8596)" style="fill: #1f77b4"/>
   </g>
   <g id="patch_92">
    <path d="M 144.8175 271.28 
L 348.2725 271.28 
L 348.2725 271.28 
L 144.8175 271.28 
z
" clip-path="url(#p9f707f8596)" style="fill: #1f77b4"/>
   </g>
   <g id="matplotlib.axis_1">
    <g id="xtick_1">
     <g id="line2d_1">
      <defs>
       <path id="mfa31bc6fe2" d="M 0 0 
L 0 3.5 
" style="stroke: #000000; stroke-width: 0.8"/>
      </defs>
      <g>
       <use xlink:href="#mfa31bc6fe2" x="246.545" y="271.28" style="stroke: #000000; stroke-width: 0.8"/>
      </g>
     </g>
     <g id="text_1">
      <!-- Diane Lane -->
      <g transform="translate(249.304375 334.745625) rotate(-90) scale(0.1 -0.1)">
       <defs>
        <path id="DejaVuSans-44" d="M 1259 4147 
L 1259 519 
L 2022 519 
Q 2988 519 3436 956 
Q 3884 1394 3884 2338 
Q 3884 3275 3436 3711 
Q 2988 4147 2022 4147 
L 1259 4147 
z
M 628 4666 
L 1925 4666 
Q 3281 4666 3915 4102 
Q 4550 3538 4550 2338 
Q 4550 1131 3912 565 
Q 3275 0 1925 0 
L 628 0 
L 628 4666 
z
" transform="scale(0.015625)"/>
        <path id="DejaVuSans-69" d="M 603 3500 
L 1178 3500 
L 1178 0 
L 603 0 
L 603 3500 
z
M 603 4863 
L 1178 4863 
L 1178 4134 
L 603 4134 
L 603 4863 
z
" transform="scale(0.015625)"/>
        <path id="DejaVuSans-61" d="M 2194 1759 
Q 1497 1759 1228 1600 
Q 959 1441 959 1056 
Q 959 750 1161 570 
Q 1363 391 1709 391 
Q 2188 391 2477 730 
Q 2766 1069 2766 1631 
L 2766 1759 
L 2194 1759 
z
M 3341 1997 
L 3341 0 
L 2766 0 
L 2766 531 
Q 2569 213 2275 61 
Q 1981 -91 1556 -91 
Q 1019 -91 701 211 
Q 384 513 384 1019 
Q 384 1609 779 1909 
Q 1175 2209 1959 2209 
L 2766 2209 
L 2766 2266 
Q 2766 2663 2505 2880 
Q 2244 3097 1772 3097 
Q 1472 3097 1187 3025 
Q 903 2953 641 2809 
L 641 3341 
Q 956 3463 1253 3523 
Q 1550 3584 1831 3584 
Q 2591 3584 2966 3190 
Q 3341 2797 3341 1997 
z
" transform="scale(0.015625)"/>
        <path id="DejaVuSans-6e" d="M 3513 2113 
L 3513 0 
L 2938 0 
L 2938 2094 
Q 2938 2591 2744 2837 
Q 2550 3084 2163 3084 
Q 1697 3084 1428 2787 
Q 1159 2491 1159 1978 
L 1159 0 
L 581 0 
L 581 3500 
L 1159 3500 
L 1159 2956 
Q 1366 3272 1645 3428 
Q 1925 3584 2291 3584 
Q 2894 3584 3203 3211 
Q 3513 2838 3513 2113 
z
" transform="scale(0.015625)"/>
        <path id="DejaVuSans-65" d="M 3597 1894 
L 3597 1613 
L 953 1613 
Q 991 1019 1311 708 
Q 1631 397 2203 397 
Q 2534 397 2845 478 
Q 3156 559 3463 722 
L 3463 178 
Q 3153 47 2828 -22 
Q 2503 -91 2169 -91 
Q 1331 -91 842 396 
Q 353 884 353 1716 
Q 353 2575 817 3079 
Q 1281 3584 2069 3584 
Q 2775 3584 3186 3129 
Q 3597 2675 3597 1894 
z
M 3022 2063 
Q 3016 2534 2758 2815 
Q 2500 3097 2075 3097 
Q 1594 3097 1305 2825 
Q 1016 2553 972 2059 
L 3022 2063 
z
" transform="scale(0.015625)"/>
        <path id="DejaVuSans-20" transform="scale(0.015625)"/>
        <path id="DejaVuSans-4c" d="M 628 4666 
L 1259 4666 
L 1259 531 
L 3531 531 
L 3531 0 
L 628 0 
L 628 4666 
z
" transform="scale(0.015625)"/>
       </defs>
       <use xlink:href="#DejaVuSans-44"/>
       <use xlink:href="#DejaVuSans-69" x="77.001953"/>
       <use xlink:href="#DejaVuSans-61" x="104.785156"/>
       <use xlink:href="#DejaVuSans-6e" x="166.064453"/>
       <use xlink:href="#DejaVuSans-65" x="229.443359"/>
       <use xlink:href="#DejaVuSans-20" x="290.966797"/>
       <use xlink:href="#DejaVuSans-4c" x="322.753906"/>
       <use xlink:href="#DejaVuSans-61" x="378.466797"/>
       <use xlink:href="#DejaVuSans-6e" x="439.746094"/>
       <use xlink:href="#DejaVuSans-65" x="503.125"/>
      </g>
     </g>
    </g>
   </g>
   <g id="matplotlib.axis_2">
    <g id="ytick_1">
     <g id="line2d_2">
      <defs>
       <path id="m72b65b7d41" d="M 0 0 
L -3.5 0 
" style="stroke: #000000; stroke-width: 0.8"/>
      </defs>
      <g>
       <use xlink:href="#m72b65b7d41" x="43.09" y="271.28" style="stroke: #000000; stroke-width: 0.8"/>
      </g>
     </g>
     <g id="text_2">
      <!-- 0 -->
      <g transform="translate(29.7275 275.079219) scale(0.1 -0.1)">
       <defs>
        <path id="DejaVuSans-30" d="M 2034 4250 
Q 1547 4250 1301 3770 
Q 1056 3291 1056 2328 
Q 1056 1369 1301 889 
Q 1547 409 2034 409 
Q 2525 409 2770 889 
Q 3016 1369 3016 2328 
Q 3016 3291 2770 3770 
Q 2525 4250 2034 4250 
z
M 2034 4750 
Q 2819 4750 3233 4129 
Q 3647 3509 3647 2328 
Q 3647 1150 3233 529 
Q 2819 -91 2034 -91 
Q 1250 -91 836 529 
Q 422 1150 422 2328 
Q 422 3509 836 4129 
Q 1250 4750 2034 4750 
z
" transform="scale(0.015625)"/>
       </defs>
       <use xlink:href="#DejaVuSans-30"/>
      </g>
     </g>
    </g>
    <g id="ytick_2">
     <g id="line2d_3">
      <g>
       <use xlink:href="#m72b65b7d41" x="43.09" y="227.152433" style="stroke: #000000; stroke-width: 0.8"/>
      </g>
     </g>
     <g id="text_3">
      <!-- 200 -->
      <g transform="translate(17.0025 230.951652) scale(0.1 -0.1)">
       <defs>
        <path id="DejaVuSans-32" d="M 1228 531 
L 3431 531 
L 3431 0 
L 469 0 
L 469 531 
Q 828 903 1448 1529 
Q 2069 2156 2228 2338 
Q 2531 2678 2651 2914 
Q 2772 3150 2772 3378 
Q 2772 3750 2511 3984 
Q 2250 4219 1831 4219 
Q 1534 4219 1204 4116 
Q 875 4013 500 3803 
L 500 4441 
Q 881 4594 1212 4672 
Q 1544 4750 1819 4750 
Q 2544 4750 2975 4387 
Q 3406 4025 3406 3419 
Q 3406 3131 3298 2873 
Q 3191 2616 2906 2266 
Q 2828 2175 2409 1742 
Q 1991 1309 1228 531 
z
" transform="scale(0.015625)"/>
       </defs>
       <use xlink:href="#DejaVuSans-32"/>
       <use xlink:href="#DejaVuSans-30" x="63.623047"/>
       <use xlink:href="#DejaVuSans-30" x="127.246094"/>
      </g>
     </g>
    </g>
    <g id="ytick_3">
     <g id="line2d_4">
      <g>
       <use xlink:href="#m72b65b7d41" x="43.09" y="183.024867" style="stroke: #000000; stroke-width: 0.8"/>
      </g>
     </g>
     <g id="text_4">
      <!-- 400 -->
      <g transform="translate(17.0025 186.824085) scale(0.1 -0.1)">
       <defs>
        <path id="DejaVuSans-34" d="M 2419 4116 
L 825 1625 
L 2419 1625 
L 2419 4116 
z
M 2253 4666 
L 3047 4666 
L 3047 1625 
L 3713 1625 
L 3713 1100 
L 3047 1100 
L 3047 0 
L 2419 0 
L 2419 1100 
L 313 1100 
L 313 1709 
L 2253 4666 
z
" transform="scale(0.015625)"/>
       </defs>
       <use xlink:href="#DejaVuSans-34"/>
       <use xlink:href="#DejaVuSans-30" x="63.623047"/>
       <use xlink:href="#DejaVuSans-30" x="127.246094"/>
      </g>
     </g>
    </g>
    <g id="ytick_4">
     <g id="line2d_5">
      <g>
       <use xlink:href="#m72b65b7d41" x="43.09" y="138.8973" style="stroke: #000000; stroke-width: 0.8"/>
      </g>
     </g>
     <g id="text_5">
      <!-- 600 -->
      <g transform="translate(17.0025 142.696519) scale(0.1 -0.1)">
       <defs>
        <path id="DejaVuSans-36" d="M 2113 2584 
Q 1688 2584 1439 2293 
Q 1191 2003 1191 1497 
Q 1191 994 1439 701 
Q 1688 409 2113 409 
Q 2538 409 2786 701 
Q 3034 994 3034 1497 
Q 3034 2003 2786 2293 
Q 2538 2584 2113 2584 
z
M 3366 4563 
L 3366 3988 
Q 3128 4100 2886 4159 
Q 2644 4219 2406 4219 
Q 1781 4219 1451 3797 
Q 1122 3375 1075 2522 
Q 1259 2794 1537 2939 
Q 1816 3084 2150 3084 
Q 2853 3084 3261 2657 
Q 3669 2231 3669 1497 
Q 3669 778 3244 343 
Q 2819 -91 2113 -91 
Q 1303 -91 875 529 
Q 447 1150 447 2328 
Q 447 3434 972 4092 
Q 1497 4750 2381 4750 
Q 2619 4750 2861 4703 
Q 3103 4656 3366 4563 
z
" transform="scale(0.015625)"/>
       </defs>
       <use xlink:href="#DejaVuSans-36"/>
       <use xlink:href="#DejaVuSans-30" x="63.623047"/>
       <use xlink:href="#DejaVuSans-30" x="127.246094"/>
      </g>
     </g>
    </g>
    <g id="ytick_5">
     <g id="line2d_6">
      <g>
       <use xlink:href="#m72b65b7d41" x="43.09" y="94.769733" style="stroke: #000000; stroke-width: 0.8"/>
      </g>
     </g>
     <g id="text_6">
      <!-- 800 -->
      <g transform="translate(17.0025 98.568952) scale(0.1 -0.1)">
       <defs>
        <path id="DejaVuSans-38" d="M 2034 2216 
Q 1584 2216 1326 1975 
Q 1069 1734 1069 1313 
Q 1069 891 1326 650 
Q 1584 409 2034 409 
Q 2484 409 2743 651 
Q 3003 894 3003 1313 
Q 3003 1734 2745 1975 
Q 2488 2216 2034 2216 
z
M 1403 2484 
Q 997 2584 770 2862 
Q 544 3141 544 3541 
Q 544 4100 942 4425 
Q 1341 4750 2034 4750 
Q 2731 4750 3128 4425 
Q 3525 4100 3525 3541 
Q 3525 3141 3298 2862 
Q 3072 2584 2669 2484 
Q 3125 2378 3379 2068 
Q 3634 1759 3634 1313 
Q 3634 634 3220 271 
Q 2806 -91 2034 -91 
Q 1263 -91 848 271 
Q 434 634 434 1313 
Q 434 1759 690 2068 
Q 947 2378 1403 2484 
z
M 1172 3481 
Q 1172 3119 1398 2916 
Q 1625 2713 2034 2713 
Q 2441 2713 2670 2916 
Q 2900 3119 2900 3481 
Q 2900 3844 2670 4047 
Q 2441 4250 2034 4250 
Q 1625 4250 1398 4047 
Q 1172 3844 1172 3481 
z
" transform="scale(0.015625)"/>
       </defs>
       <use xlink:href="#DejaVuSans-38"/>
       <use xlink:href="#DejaVuSans-30" x="63.623047"/>
       <use xlink:href="#DejaVuSans-30" x="127.246094"/>
      </g>
     </g>
    </g>
    <g id="ytick_6">
     <g id="line2d_7">
      <g>
       <use xlink:href="#m72b65b7d41" x="43.09" y="50.642167" style="stroke: #000000; stroke-width: 0.8"/>
      </g>
     </g>
     <g id="text_7">
      <!-- 1000 -->
      <g transform="translate(10.64 54.441386) scale(0.1 -0.1)">
       <defs>
        <path id="DejaVuSans-31" d="M 794 531 
L 1825 531 
L 1825 4091 
L 703 3866 
L 703 4441 
L 1819 4666 
L 2450 4666 
L 2450 531 
L 3481 531 
L 3481 0 
L 794 0 
L 794 531 
z
" transform="scale(0.015625)"/>
       </defs>
       <use xlink:href="#DejaVuSans-31"/>
       <use xlink:href="#DejaVuSans-30" x="63.623047"/>
       <use xlink:href="#DejaVuSans-30" x="127.246094"/>
       <use xlink:href="#DejaVuSans-30" x="190.869141"/>
      </g>
     </g>
    </g>
   </g>
   <g id="patch_93">
    <path d="M 43.09 271.28 
L 43.09 10.8 
" style="fill: none; stroke: #000000; stroke-width: 0.8; stroke-linejoin: miter; stroke-linecap: square"/>
   </g>
   <g id="patch_94">
    <path d="M 450 271.28 
L 450 10.8 
" style="fill: none; stroke: #000000; stroke-width: 0.8; stroke-linejoin: miter; stroke-linecap: square"/>
   </g>
   <g id="patch_95">
    <path d="M 43.09 271.28 
L 450 271.28 
" style="fill: none; stroke: #000000; stroke-width: 0.8; stroke-linejoin: miter; stroke-linecap: square"/>
   </g>
   <g id="patch_96">
    <path d="M 43.09 10.8 
L 450 10.8 
" style="fill: none; stroke: #000000; stroke-width: 0.8; stroke-linejoin: miter; stroke-linecap: square"/>
   </g>
  </g>
 </g>
 <defs>
  <clipPath id="p9f707f8596">
   <rect x="43.09" y="10.8" width="406.91" height="260.48"/>
  </clipPath>
 </defs>
</svg>
