<?xml version="1.0" encoding="utf-8" standalone="no"?>
<!DOCTYPE svg PUBLIC "-//W3C//DTD SVG 1.1//EN"
  "http://www.w3.org/Graphics/SVG/1.1/DTD/svg11.dtd">
<svg xmlns:xlink="http://www.w3.org/1999/xlink" width="460.8pt" height="345.6pt" viewBox="0 0 460.8 345.6" xmlns="http://www.w3.org/2000/svg" version="1.1">
 <metadata>
  <rdf:RDF xmlns:dc="http://purl.org/dc/elements/1.1/" xmlns:cc="http://creativecommons.org/ns#" xmlns:rdf="http://www.w3.org/1999/02/22-rdf-syntax-ns#">
   <cc:Work>
    <dc:type rdf:resource="http://purl.org/dc/dcmitype/StillImage"/>
    <dc:date>2022-12-20T12:31:08.015119</dc:date>
    <dc:format>image/svg+xml</dc:format>
    <dc:creator>
     <cc:Agent>
      <dc:title>Matplotlib v3.6.0, https://matplotlib.org/</dc:title>
     </cc:Agent>
    </dc:creator>
   </cc:Work>
  </rdf:RDF>
 </metadata>
 <defs>
  <style type="text/css">*{stroke-linejoin: round; stroke-linecap: butt}</style>
 </defs>
 <g id="figure_1">
  <g id="patch_1">
   <path d="M 0 345.6 
L 460.8 345.6 
L 460.8 0 
L 0 0 
z
" style="fill: #ffffff"/>
  </g>
  <g id="axes_1">
   <g id="patch_2">
    <path d="M 43.09 253.28 
L 450 253.28 
L 450 10.8 
L 43.09 10.8 
z
" style="fill: #ffffff"/>
   </g>
   <g id="patch_3">
    <path d="M 63.4355 253.28 
L 104.1265 253.28 
L 104.1265 175.207197 
L 63.4355 175.207197 
z
" clip-path="url(#pd02c25c86e)" style="fill: #1f77b4"/>
   </g>
   <g id="patch_4">
    <path d="M 144.8175 253.28 
L 185.5085 253.28 
L 185.5085 193.569842 
L 144.8175 193.569842 
z
" clip-path="url(#pd02c25c86e)" style="fill: #1f77b4"/>
   </g>
   <g id="patch_5">
    <path d="M 226.1995 253.28 
L 266.8905 253.28 
L 266.8905 188.107202 
L 226.1995 188.107202 
z
" clip-path="url(#pd02c25c86e)" style="fill: #1f77b4"/>
   </g>
   <g id="patch_6">
    <path d="M 307.5815 253.28 
L 348.2725 253.28 
L 348.2725 200.109918 
L 307.5815 200.109918 
z
" clip-path="url(#pd02c25c86e)" style="fill: #1f77b4"/>
   </g>
   <g id="patch_7">
    <path d="M 388.9635 253.28 
L 429.6545 253.28 
L 429.6545 221.290648 
L 388.9635 221.290648 
z
" clip-path="url(#pd02c25c86e)" style="fill: #1f77b4"/>
   </g>
   <g id="patch_8">
    <path d="M 63.4355 253.28 
L 104.1265 253.28 
L 104.1265 253.071687 
L 63.4355 253.071687 
z
" clip-path="url(#pd02c25c86e)" style="fill: #1f77b4"/>
   </g>
   <g id="patch_9">
    <path d="M 144.8175 253.28 
L 185.5085 253.28 
L 185.5085 253.210562 
L 144.8175 253.210562 
z
" clip-path="url(#pd02c25c86e)" style="fill: #1f77b4"/>
   </g>
   <g id="patch_10">
    <path d="M 226.1995 253.28 
L 266.8905 253.28 
L 266.8905 253.28 
L 226.1995 253.28 
z
" clip-path="url(#pd02c25c86e)" style="fill: #1f77b4"/>
   </g>
   <g id="patch_11">
    <path d="M 63.4355 253.28 
L 104.1265 253.28 
L 104.1265 253.256854 
L 63.4355 253.256854 
z
" clip-path="url(#pd02c25c86e)" style="fill: #1f77b4"/>
   </g>
   <g id="patch_12">
    <path d="M 144.8175 253.28 
L 185.5085 253.28 
L 185.5085 253.256854 
L 144.8175 253.256854 
z
" clip-path="url(#pd02c25c86e)" style="fill: #1f77b4"/>
   </g>
   <g id="patch_13">
    <path d="M 226.1995 253.28 
L 266.8905 253.28 
L 266.8905 253.256854 
L 226.1995 253.256854 
z
" clip-path="url(#pd02c25c86e)" style="fill: #1f77b4"/>
   </g>
   <g id="patch_14">
    <path d="M 307.5815 253.28 
L 348.2725 253.28 
L 348.2725 253.210562 
L 307.5815 253.210562 
z
" clip-path="url(#pd02c25c86e)" style="fill: #1f77b4"/>
   </g>
   <g id="patch_15">
    <path d="M 388.9635 253.28 
L 429.6545 253.28 
L 429.6545 253.28 
L 388.9635 253.28 
z
" clip-path="url(#pd02c25c86e)" style="fill: #1f77b4"/>
   </g>
   <g id="patch_16">
    <path d="M 63.4355 253.28 
L 104.1265 253.28 
L 104.1265 240.225732 
L 63.4355 240.225732 
z
" clip-path="url(#pd02c25c86e)" style="fill: #1f77b4"/>
   </g>
   <g id="patch_17">
    <path d="M 144.8175 253.28 
L 185.5085 253.28 
L 185.5085 249.599807 
L 144.8175 249.599807 
z
" clip-path="url(#pd02c25c86e)" style="fill: #1f77b4"/>
   </g>
   <g id="patch_18">
    <path d="M 226.1995 253.28 
L 266.8905 253.28 
L 266.8905 250.259465 
L 226.1995 250.259465 
z
" clip-path="url(#pd02c25c86e)" style="fill: #1f77b4"/>
   </g>
   <g id="patch_19">
    <path d="M 307.5815 253.28 
L 348.2725 253.28 
L 348.2725 240.57292 
L 307.5815 240.57292 
z
" clip-path="url(#pd02c25c86e)" style="fill: #1f77b4"/>
   </g>
   <g id="patch_20">
    <path d="M 388.9635 253.28 
L 429.6545 253.28 
L 429.6545 251.648217 
L 388.9635 251.648217 
z
" clip-path="url(#pd02c25c86e)" style="fill: #1f77b4"/>
   </g>
   <g id="patch_21">
    <path d="M 63.4355 253.28 
L 104.1265 253.28 
L 104.1265 253.210562 
L 63.4355 253.210562 
z
" clip-path="url(#pd02c25c86e)" style="fill: #1f77b4"/>
   </g>
   <g id="patch_22">
    <path d="M 144.8175 253.28 
L 185.5085 253.28 
L 185.5085 253.28 
L 144.8175 253.28 
z
" clip-path="url(#pd02c25c86e)" style="fill: #1f77b4"/>
   </g>
   <g id="patch_23">
    <path d="M 226.1995 253.28 
L 266.8905 253.28 
L 266.8905 253.28 
L 226.1995 253.28 
z
" clip-path="url(#pd02c25c86e)" style="fill: #1f77b4"/>
   </g>
   <g id="patch_24">
    <path d="M 307.5815 253.28 
L 348.2725 253.28 
L 348.2725 253.28 
L 307.5815 253.28 
z
" clip-path="url(#pd02c25c86e)" style="fill: #1f77b4"/>
   </g>
   <g id="patch_25">
    <path d="M 63.4355 253.28 
L 104.1265 253.28 
L 104.1265 251.405185 
L 63.4355 251.405185 
z
" clip-path="url(#pd02c25c86e)" style="fill: #1f77b4"/>
   </g>
   <g id="patch_26">
    <path d="M 144.8175 253.28 
L 185.5085 253.28 
L 185.5085 253.071687 
L 144.8175 253.071687 
z
" clip-path="url(#pd02c25c86e)" style="fill: #1f77b4"/>
   </g>
   <g id="patch_27">
    <path d="M 226.1995 253.28 
L 266.8905 253.28 
L 266.8905 253.210562 
L 226.1995 253.210562 
z
" clip-path="url(#pd02c25c86e)" style="fill: #1f77b4"/>
   </g>
   <g id="patch_28">
    <path d="M 307.5815 253.28 
L 348.2725 253.28 
L 348.2725 253.210562 
L 307.5815 253.210562 
z
" clip-path="url(#pd02c25c86e)" style="fill: #1f77b4"/>
   </g>
   <g id="patch_29">
    <path d="M 388.9635 253.28 
L 429.6545 253.28 
L 429.6545 252.793937 
L 388.9635 252.793937 
z
" clip-path="url(#pd02c25c86e)" style="fill: #1f77b4"/>
   </g>
   <g id="patch_30">
    <path d="M 63.4355 253.28 
L 104.1265 253.28 
L 104.1265 253.141125 
L 63.4355 253.141125 
z
" clip-path="url(#pd02c25c86e)" style="fill: #1f77b4"/>
   </g>
   <g id="patch_31">
    <path d="M 144.8175 253.28 
L 185.5085 253.28 
L 185.5085 253.141125 
L 144.8175 253.141125 
z
" clip-path="url(#pd02c25c86e)" style="fill: #1f77b4"/>
   </g>
   <g id="patch_32">
    <path d="M 226.1995 253.28 
L 266.8905 253.28 
L 266.8905 253.141125 
L 226.1995 253.141125 
z
" clip-path="url(#pd02c25c86e)" style="fill: #1f77b4"/>
   </g>
   <g id="patch_33">
    <path d="M 307.5815 253.28 
L 348.2725 253.28 
L 348.2725 253.141125 
L 307.5815 253.141125 
z
" clip-path="url(#pd02c25c86e)" style="fill: #1f77b4"/>
   </g>
   <g id="patch_34">
    <path d="M 388.9635 253.28 
L 429.6545 253.28 
L 429.6545 253.141125 
L 388.9635 253.141125 
z
" clip-path="url(#pd02c25c86e)" style="fill: #1f77b4"/>
   </g>
   <g id="patch_35">
    <path d="M 63.4355 253.28 
L 104.1265 253.28 
L 104.1265 253.071687 
L 63.4355 253.071687 
z
" clip-path="url(#pd02c25c86e)" style="fill: #1f77b4"/>
   </g>
   <g id="patch_36">
    <path d="M 144.8175 253.28 
L 185.5085 253.28 
L 185.5085 253.106406 
L 144.8175 253.106406 
z
" clip-path="url(#pd02c25c86e)" style="fill: #1f77b4"/>
   </g>
   <g id="patch_37">
    <path d="M 226.1995 253.28 
L 266.8905 253.28 
L 266.8905 253.210562 
L 226.1995 253.210562 
z
" clip-path="url(#pd02c25c86e)" style="fill: #1f77b4"/>
   </g>
   <g id="patch_38">
    <path d="M 307.5815 253.28 
L 348.2725 253.28 
L 348.2725 253.245281 
L 307.5815 253.245281 
z
" clip-path="url(#pd02c25c86e)" style="fill: #1f77b4"/>
   </g>
   <g id="patch_39">
    <path d="M 388.9635 253.28 
L 429.6545 253.28 
L 429.6545 253.245281 
L 388.9635 253.245281 
z
" clip-path="url(#pd02c25c86e)" style="fill: #1f77b4"/>
   </g>
   <g id="patch_40">
    <path d="M 63.4355 253.28 
L 104.1265 253.28 
L 104.1265 253.071687 
L 63.4355 253.071687 
z
" clip-path="url(#pd02c25c86e)" style="fill: #1f77b4"/>
   </g>
   <g id="patch_41">
    <path d="M 144.8175 253.28 
L 185.5085 253.28 
L 185.5085 253.28 
L 144.8175 253.28 
z
" clip-path="url(#pd02c25c86e)" style="fill: #1f77b4"/>
   </g>
   <g id="patch_42">
    <path d="M 226.1995 253.28 
L 266.8905 253.28 
L 266.8905 253.28 
L 226.1995 253.28 
z
" clip-path="url(#pd02c25c86e)" style="fill: #1f77b4"/>
   </g>
   <g id="patch_43">
    <path d="M 63.4355 253.28 
L 104.1265 253.28 
L 104.1265 253.071687 
L 63.4355 253.071687 
z
" clip-path="url(#pd02c25c86e)" style="fill: #1f77b4"/>
   </g>
   <g id="patch_44">
    <path d="M 144.8175 253.28 
L 185.5085 253.28 
L 185.5085 253.210562 
L 144.8175 253.210562 
z
" clip-path="url(#pd02c25c86e)" style="fill: #1f77b4"/>
   </g>
   <g id="patch_45">
    <path d="M 63.4355 253.28 
L 104.1265 253.28 
L 104.1265 176.716783 
L 63.4355 176.716783 
z
" clip-path="url(#pd02c25c86e)" style="fill: #1f77b4"/>
   </g>
   <g id="patch_46">
    <path d="M 144.8175 253.28 
L 185.5085 253.28 
L 185.5085 198.266499 
L 144.8175 198.266499 
z
" clip-path="url(#pd02c25c86e)" style="fill: #1f77b4"/>
   </g>
   <g id="patch_47">
    <path d="M 226.1995 253.28 
L 266.8905 253.28 
L 266.8905 205.464151 
L 226.1995 205.464151 
z
" clip-path="url(#pd02c25c86e)" style="fill: #1f77b4"/>
   </g>
   <g id="patch_48">
    <path d="M 307.5815 253.28 
L 348.2725 253.28 
L 348.2725 198.457582 
L 307.5815 198.457582 
z
" clip-path="url(#pd02c25c86e)" style="fill: #1f77b4"/>
   </g>
   <g id="patch_49">
    <path d="M 388.9635 253.28 
L 429.6545 253.28 
L 429.6545 212.958655 
L 388.9635 212.958655 
z
" clip-path="url(#pd02c25c86e)" style="fill: #1f77b4"/>
   </g>
   <g id="patch_50">
    <path d="M 63.4355 253.28 
L 104.1265 253.28 
L 104.1265 253.28 
L 63.4355 253.28 
z
" clip-path="url(#pd02c25c86e)" style="fill: #1f77b4"/>
   </g>
   <g id="patch_51">
    <path d="M 144.8175 253.28 
L 185.5085 253.28 
L 185.5085 253.28 
L 144.8175 253.28 
z
" clip-path="url(#pd02c25c86e)" style="fill: #1f77b4"/>
   </g>
   <g id="patch_52">
    <path d="M 226.1995 253.28 
L 266.8905 253.28 
L 266.8905 253.28 
L 226.1995 253.28 
z
" clip-path="url(#pd02c25c86e)" style="fill: #1f77b4"/>
   </g>
   <g id="patch_53">
    <path d="M 307.5815 253.28 
L 348.2725 253.28 
L 348.2725 253.28 
L 307.5815 253.28 
z
" clip-path="url(#pd02c25c86e)" style="fill: #1f77b4"/>
   </g>
   <g id="patch_54">
    <path d="M 388.9635 253.28 
L 429.6545 253.28 
L 429.6545 253.28 
L 388.9635 253.28 
z
" clip-path="url(#pd02c25c86e)" style="fill: #1f77b4"/>
   </g>
   <g id="patch_55">
    <path d="M 63.4355 253.28 
L 104.1265 253.28 
L 104.1265 253.210562 
L 63.4355 253.210562 
z
" clip-path="url(#pd02c25c86e)" style="fill: #1f77b4"/>
   </g>
   <g id="patch_56">
    <path d="M 144.8175 253.28 
L 185.5085 253.28 
L 185.5085 253.28 
L 144.8175 253.28 
z
" clip-path="url(#pd02c25c86e)" style="fill: #1f77b4"/>
   </g>
   <g id="patch_57">
    <path d="M 226.1995 253.28 
L 266.8905 253.28 
L 266.8905 253.28 
L 226.1995 253.28 
z
" clip-path="url(#pd02c25c86e)" style="fill: #1f77b4"/>
   </g>
   <g id="patch_58">
    <path d="M 307.5815 253.28 
L 348.2725 253.28 
L 348.2725 253.28 
L 307.5815 253.28 
z
" clip-path="url(#pd02c25c86e)" style="fill: #1f77b4"/>
   </g>
   <g id="patch_59">
    <path d="M 388.9635 253.28 
L 429.6545 253.28 
L 429.6545 253.28 
L 388.9635 253.28 
z
" clip-path="url(#pd02c25c86e)" style="fill: #1f77b4"/>
   </g>
   <g id="patch_60">
    <path d="M 63.4355 253.28 
L 104.1265 253.28 
L 104.1265 252.898093 
L 63.4355 252.898093 
z
" clip-path="url(#pd02c25c86e)" style="fill: #1f77b4"/>
   </g>
   <g id="patch_61">
    <path d="M 144.8175 253.28 
L 185.5085 253.28 
L 185.5085 253.071687 
L 144.8175 253.071687 
z
" clip-path="url(#pd02c25c86e)" style="fill: #1f77b4"/>
   </g>
   <g id="patch_62">
    <path d="M 226.1995 253.28 
L 266.8905 253.28 
L 266.8905 253.245281 
L 226.1995 253.245281 
z
" clip-path="url(#pd02c25c86e)" style="fill: #1f77b4"/>
   </g>
   <g id="patch_63">
    <path d="M 307.5815 253.28 
L 348.2725 253.28 
L 348.2725 253.28 
L 307.5815 253.28 
z
" clip-path="url(#pd02c25c86e)" style="fill: #1f77b4"/>
   </g>
   <g id="patch_64">
    <path d="M 388.9635 253.28 
L 429.6545 253.28 
L 429.6545 253.28 
L 388.9635 253.28 
z
" clip-path="url(#pd02c25c86e)" style="fill: #1f77b4"/>
   </g>
   <g id="patch_65">
    <path d="M 63.4355 253.28 
L 104.1265 253.28 
L 104.1265 245.607146 
L 63.4355 245.607146 
z
" clip-path="url(#pd02c25c86e)" style="fill: #1f77b4"/>
   </g>
   <g id="patch_66">
    <path d="M 144.8175 253.28 
L 185.5085 253.28 
L 185.5085 252.585624 
L 144.8175 252.585624 
z
" clip-path="url(#pd02c25c86e)" style="fill: #1f77b4"/>
   </g>
   <g id="patch_67">
    <path d="M 226.1995 253.28 
L 266.8905 253.28 
L 266.8905 249.090598 
L 226.1995 249.090598 
z
" clip-path="url(#pd02c25c86e)" style="fill: #1f77b4"/>
   </g>
   <g id="patch_68">
    <path d="M 307.5815 253.28 
L 348.2725 253.28 
L 348.2725 248.002743 
L 307.5815 248.002743 
z
" clip-path="url(#pd02c25c86e)" style="fill: #1f77b4"/>
   </g>
   <g id="patch_69">
    <path d="M 388.9635 253.28 
L 429.6545 253.28 
L 429.6545 249.009588 
L 388.9635 249.009588 
z
" clip-path="url(#pd02c25c86e)" style="fill: #1f77b4"/>
   </g>
   <g id="patch_70">
    <path d="M 63.4355 253.28 
L 104.1265 253.28 
L 104.1265 230.171892 
L 63.4355 230.171892 
z
" clip-path="url(#pd02c25c86e)" style="fill: #1f77b4"/>
   </g>
   <g id="patch_71">
    <path d="M 144.8175 253.28 
L 185.5085 253.28 
L 185.5085 233.487924 
L 144.8175 233.487924 
z
" clip-path="url(#pd02c25c86e)" style="fill: #1f77b4"/>
   </g>
   <g id="patch_72">
    <path d="M 226.1995 253.28 
L 266.8905 253.28 
L 266.8905 205.214648 
L 226.1995 205.214648 
z
" clip-path="url(#pd02c25c86e)" style="fill: #1f77b4"/>
   </g>
   <g id="patch_73">
    <path d="M 307.5815 253.28 
L 348.2725 253.28 
L 348.2725 224.295592 
L 307.5815 224.295592 
z
" clip-path="url(#pd02c25c86e)" style="fill: #1f77b4"/>
   </g>
   <g id="patch_74">
    <path d="M 388.9635 253.28 
L 429.6545 253.28 
L 429.6545 204.898185 
L 388.9635 204.898185 
z
" clip-path="url(#pd02c25c86e)" style="fill: #1f77b4"/>
   </g>
   <g id="patch_75">
    <path d="M 63.4355 253.28 
L 104.1265 253.28 
L 104.1265 253.28 
L 63.4355 253.28 
z
" clip-path="url(#pd02c25c86e)" style="fill: #1f77b4"/>
   </g>
   <g id="patch_76">
    <path d="M 144.8175 253.28 
L 185.5085 253.28 
L 185.5085 253.28 
L 144.8175 253.28 
z
" clip-path="url(#pd02c25c86e)" style="fill: #1f77b4"/>
   </g>
   <g id="patch_77">
    <path d="M 63.4355 253.28 
L 104.1265 253.28 
L 104.1265 252.41203 
L 63.4355 252.41203 
z
" clip-path="url(#pd02c25c86e)" style="fill: #1f77b4"/>
   </g>
   <g id="patch_78">
    <path d="M 144.8175 253.28 
L 185.5085 253.28 
L 185.5085 252.585624 
L 144.8175 252.585624 
z
" clip-path="url(#pd02c25c86e)" style="fill: #1f77b4"/>
   </g>
   <g id="patch_79">
    <path d="M 226.1995 253.28 
L 266.8905 253.28 
L 266.8905 252.863374 
L 226.1995 252.863374 
z
" clip-path="url(#pd02c25c86e)" style="fill: #1f77b4"/>
   </g>
   <g id="patch_80">
    <path d="M 307.5815 253.28 
L 348.2725 253.28 
L 348.2725 253.210562 
L 307.5815 253.210562 
z
" clip-path="url(#pd02c25c86e)" style="fill: #1f77b4"/>
   </g>
   <g id="patch_81">
    <path d="M 388.9635 253.28 
L 429.6545 253.28 
L 429.6545 253.141125 
L 388.9635 253.141125 
z
" clip-path="url(#pd02c25c86e)" style="fill: #1f77b4"/>
   </g>
   <g id="patch_82">
    <path d="M 63.4355 253.28 
L 104.1265 253.28 
L 104.1265 253.071687 
L 63.4355 253.071687 
z
" clip-path="url(#pd02c25c86e)" style="fill: #1f77b4"/>
   </g>
   <g id="patch_83">
    <path d="M 144.8175 253.28 
L 185.5085 253.28 
L 185.5085 253.071687 
L 144.8175 253.071687 
z
" clip-path="url(#pd02c25c86e)" style="fill: #1f77b4"/>
   </g>
   <g id="patch_84">
    <path d="M 226.1995 253.28 
L 266.8905 253.28 
L 266.8905 253.210562 
L 226.1995 253.210562 
z
" clip-path="url(#pd02c25c86e)" style="fill: #1f77b4"/>
   </g>
   <g id="patch_85">
    <path d="M 307.5815 253.28 
L 348.2725 253.28 
L 348.2725 253.28 
L 307.5815 253.28 
z
" clip-path="url(#pd02c25c86e)" style="fill: #1f77b4"/>
   </g>
   <g id="patch_86">
    <path d="M 388.9635 253.28 
L 429.6545 253.28 
L 429.6545 253.28 
L 388.9635 253.28 
z
" clip-path="url(#pd02c25c86e)" style="fill: #1f77b4"/>
   </g>
   <g id="patch_87">
    <path d="M 63.4355 253.28 
L 104.1265 253.28 
L 104.1265 251.82181 
L 63.4355 251.82181 
z
" clip-path="url(#pd02c25c86e)" style="fill: #1f77b4"/>
   </g>
   <g id="patch_88">
    <path d="M 144.8175 253.28 
L 185.5085 253.28 
L 185.5085 253.245281 
L 144.8175 253.245281 
z
" clip-path="url(#pd02c25c86e)" style="fill: #1f77b4"/>
   </g>
   <g id="patch_89">
    <path d="M 226.1995 253.28 
L 266.8905 253.28 
L 266.8905 253.245281 
L 226.1995 253.245281 
z
" clip-path="url(#pd02c25c86e)" style="fill: #1f77b4"/>
   </g>
   <g id="patch_90">
    <path d="M 307.5815 253.28 
L 348.2725 253.28 
L 348.2725 253.245281 
L 307.5815 253.245281 
z
" clip-path="url(#pd02c25c86e)" style="fill: #1f77b4"/>
   </g>
   <g id="patch_91">
    <path d="M 388.9635 253.28 
L 429.6545 253.28 
L 429.6545 253.245281 
L 388.9635 253.245281 
z
" clip-path="url(#pd02c25c86e)" style="fill: #1f77b4"/>
   </g>
   <g id="patch_92">
    <path d="M 63.4355 253.28 
L 104.1265 253.28 
L 104.1265 253.28 
L 63.4355 253.28 
z
" clip-path="url(#pd02c25c86e)" style="fill: #1f77b4"/>
   </g>
   <g id="patch_93">
    <path d="M 63.4355 253.28 
L 104.1265 253.28 
L 104.1265 252.932812 
L 63.4355 252.932812 
z
" clip-path="url(#pd02c25c86e)" style="fill: #1f77b4"/>
   </g>
   <g id="patch_94">
    <path d="M 144.8175 253.28 
L 185.5085 253.28 
L 185.5085 252.932812 
L 144.8175 252.932812 
z
" clip-path="url(#pd02c25c86e)" style="fill: #1f77b4"/>
   </g>
   <g id="patch_95">
    <path d="M 226.1995 253.28 
L 266.8905 253.28 
L 266.8905 253.210562 
L 226.1995 253.210562 
z
" clip-path="url(#pd02c25c86e)" style="fill: #1f77b4"/>
   </g>
   <g id="patch_96">
    <path d="M 63.4355 253.28 
L 104.1265 253.28 
L 104.1265 251.82181 
L 63.4355 251.82181 
z
" clip-path="url(#pd02c25c86e)" style="fill: #1f77b4"/>
   </g>
   <g id="patch_97">
    <path d="M 144.8175 253.28 
L 185.5085 253.28 
L 185.5085 253.210562 
L 144.8175 253.210562 
z
" clip-path="url(#pd02c25c86e)" style="fill: #1f77b4"/>
   </g>
   <g id="patch_98">
    <path d="M 226.1995 253.28 
L 266.8905 253.28 
L 266.8905 253.210562 
L 226.1995 253.210562 
z
" clip-path="url(#pd02c25c86e)" style="fill: #1f77b4"/>
   </g>
   <g id="patch_99">
    <path d="M 307.5815 253.28 
L 348.2725 253.28 
L 348.2725 253.28 
L 307.5815 253.28 
z
" clip-path="url(#pd02c25c86e)" style="fill: #1f77b4"/>
   </g>
   <g id="patch_100">
    <path d="M 388.9635 253.28 
L 429.6545 253.28 
L 429.6545 253.28 
L 388.9635 253.28 
z
" clip-path="url(#pd02c25c86e)" style="fill: #1f77b4"/>
   </g>
   <g id="patch_101">
    <path d="M 63.4355 253.28 
L 104.1265 253.28 
L 104.1265 253.28 
L 63.4355 253.28 
z
" clip-path="url(#pd02c25c86e)" style="fill: #1f77b4"/>
   </g>
   <g id="patch_102">
    <path d="M 63.4355 253.28 
L 104.1265 253.28 
L 104.1265 174.784978 
L 63.4355 174.784978 
z
" clip-path="url(#pd02c25c86e)" style="fill: #1f77b4"/>
   </g>
   <g id="patch_103">
    <path d="M 144.8175 253.28 
L 185.5085 253.28 
L 185.5085 192.056566 
L 144.8175 192.056566 
z
" clip-path="url(#pd02c25c86e)" style="fill: #1f77b4"/>
   </g>
   <g id="patch_104">
    <path d="M 226.1995 253.28 
L 266.8905 253.28 
L 266.8905 203.737413 
L 226.1995 203.737413 
z
" clip-path="url(#pd02c25c86e)" style="fill: #1f77b4"/>
   </g>
   <g id="patch_105">
    <path d="M 307.5815 253.28 
L 348.2725 253.28 
L 348.2725 212.73951 
L 307.5815 212.73951 
z
" clip-path="url(#pd02c25c86e)" style="fill: #1f77b4"/>
   </g>
   <g id="patch_106">
    <path d="M 388.9635 253.28 
L 429.6545 253.28 
L 429.6545 219.160841 
L 388.9635 219.160841 
z
" clip-path="url(#pd02c25c86e)" style="fill: #1f77b4"/>
   </g>
   <g id="patch_107">
    <path d="M 63.4355 253.28 
L 104.1265 253.28 
L 104.1265 252.932812 
L 63.4355 252.932812 
z
" clip-path="url(#pd02c25c86e)" style="fill: #1f77b4"/>
   </g>
   <g id="patch_108">
    <path d="M 144.8175 253.28 
L 185.5085 253.28 
L 185.5085 252.932812 
L 144.8175 252.932812 
z
" clip-path="url(#pd02c25c86e)" style="fill: #1f77b4"/>
   </g>
   <g id="patch_109">
    <path d="M 226.1995 253.28 
L 266.8905 253.28 
L 266.8905 252.932812 
L 226.1995 252.932812 
z
" clip-path="url(#pd02c25c86e)" style="fill: #1f77b4"/>
   </g>
   <g id="patch_110">
    <path d="M 307.5815 253.28 
L 348.2725 253.28 
L 348.2725 253.245281 
L 307.5815 253.245281 
z
" clip-path="url(#pd02c25c86e)" style="fill: #1f77b4"/>
   </g>
   <g id="patch_111">
    <path d="M 388.9635 253.28 
L 429.6545 253.28 
L 429.6545 253.245281 
L 388.9635 253.245281 
z
" clip-path="url(#pd02c25c86e)" style="fill: #1f77b4"/>
   </g>
   <g id="patch_112">
    <path d="M 63.4355 253.28 
L 104.1265 253.28 
L 104.1265 212.280761 
L 63.4355 212.280761 
z
" clip-path="url(#pd02c25c86e)" style="fill: #1f77b4"/>
   </g>
   <g id="patch_113">
    <path d="M 144.8175 253.28 
L 185.5085 253.28 
L 185.5085 212.360686 
L 144.8175 212.360686 
z
" clip-path="url(#pd02c25c86e)" style="fill: #1f77b4"/>
   </g>
   <g id="patch_114">
    <path d="M 226.1995 253.28 
L 266.8905 253.28 
L 266.8905 226.341248 
L 226.1995 226.341248 
z
" clip-path="url(#pd02c25c86e)" style="fill: #1f77b4"/>
   </g>
   <g id="patch_115">
    <path d="M 307.5815 253.28 
L 348.2725 253.28 
L 348.2725 225.129951 
L 307.5815 225.129951 
z
" clip-path="url(#pd02c25c86e)" style="fill: #1f77b4"/>
   </g>
   <g id="patch_116">
    <path d="M 388.9635 253.28 
L 429.6545 253.28 
L 429.6545 211.986961 
L 388.9635 211.986961 
z
" clip-path="url(#pd02c25c86e)" style="fill: #1f77b4"/>
   </g>
   <g id="patch_117">
    <path d="M 63.4355 253.28 
L 104.1265 253.28 
L 104.1265 252.863374 
L 63.4355 252.863374 
z
" clip-path="url(#pd02c25c86e)" style="fill: #1f77b4"/>
   </g>
   <g id="patch_118">
    <path d="M 144.8175 253.28 
L 185.5085 253.28 
L 185.5085 252.932812 
L 144.8175 252.932812 
z
" clip-path="url(#pd02c25c86e)" style="fill: #1f77b4"/>
   </g>
   <g id="patch_119">
    <path d="M 226.1995 253.28 
L 266.8905 253.28 
L 266.8905 253.071687 
L 226.1995 253.071687 
z
" clip-path="url(#pd02c25c86e)" style="fill: #1f77b4"/>
   </g>
   <g id="patch_120">
    <path d="M 307.5815 253.28 
L 348.2725 253.28 
L 348.2725 253.141125 
L 307.5815 253.141125 
z
" clip-path="url(#pd02c25c86e)" style="fill: #1f77b4"/>
   </g>
   <g id="patch_121">
    <path d="M 388.9635 253.28 
L 429.6545 253.28 
L 429.6545 253.245281 
L 388.9635 253.245281 
z
" clip-path="url(#pd02c25c86e)" style="fill: #1f77b4"/>
   </g>
   <g id="patch_122">
    <path d="M 63.4355 253.28 
L 104.1265 253.28 
L 104.1265 253.071687 
L 63.4355 253.071687 
z
" clip-path="url(#pd02c25c86e)" style="fill: #1f77b4"/>
   </g>
   <g id="patch_123">
    <path d="M 144.8175 253.28 
L 185.5085 253.28 
L 185.5085 253.245281 
L 144.8175 253.245281 
z
" clip-path="url(#pd02c25c86e)" style="fill: #1f77b4"/>
   </g>
   <g id="patch_124">
    <path d="M 226.1995 253.28 
L 266.8905 253.28 
L 266.8905 253.245281 
L 226.1995 253.245281 
z
" clip-path="url(#pd02c25c86e)" style="fill: #1f77b4"/>
   </g>
   <g id="patch_125">
    <path d="M 307.5815 253.28 
L 348.2725 253.28 
L 348.2725 253.210562 
L 307.5815 253.210562 
z
" clip-path="url(#pd02c25c86e)" style="fill: #1f77b4"/>
   </g>
   <g id="patch_126">
    <path d="M 388.9635 253.28 
L 429.6545 253.28 
L 429.6545 253.28 
L 388.9635 253.28 
z
" clip-path="url(#pd02c25c86e)" style="fill: #1f77b4"/>
   </g>
   <g id="patch_127">
    <path d="M 63.4355 253.28 
L 104.1265 253.28 
L 104.1265 253.071687 
L 63.4355 253.071687 
z
" clip-path="url(#pd02c25c86e)" style="fill: #1f77b4"/>
   </g>
   <g id="patch_128">
    <path d="M 144.8175 253.28 
L 185.5085 253.28 
L 185.5085 253.210562 
L 144.8175 253.210562 
z
" clip-path="url(#pd02c25c86e)" style="fill: #1f77b4"/>
   </g>
   <g id="patch_129">
    <path d="M 226.1995 253.28 
L 266.8905 253.28 
L 266.8905 253.28 
L 226.1995 253.28 
z
" clip-path="url(#pd02c25c86e)" style="fill: #1f77b4"/>
   </g>
   <g id="patch_130">
    <path d="M 307.5815 253.28 
L 348.2725 253.28 
L 348.2725 253.28 
L 307.5815 253.28 
z
" clip-path="url(#pd02c25c86e)" style="fill: #1f77b4"/>
   </g>
   <g id="patch_131">
    <path d="M 388.9635 253.28 
L 429.6545 253.28 
L 429.6545 253.28 
L 388.9635 253.28 
z
" clip-path="url(#pd02c25c86e)" style="fill: #1f77b4"/>
   </g>
   <g id="patch_132">
    <path d="M 63.4355 253.28 
L 104.1265 253.28 
L 104.1265 251.448005 
L 63.4355 251.448005 
z
" clip-path="url(#pd02c25c86e)" style="fill: #1f77b4"/>
   </g>
   <g id="patch_133">
    <path d="M 144.8175 253.28 
L 185.5085 253.28 
L 185.5085 252.863374 
L 144.8175 252.863374 
z
" clip-path="url(#pd02c25c86e)" style="fill: #1f77b4"/>
   </g>
   <g id="patch_134">
    <path d="M 226.1995 253.28 
L 266.8905 253.28 
L 266.8905 252.291672 
L 226.1995 252.291672 
z
" clip-path="url(#pd02c25c86e)" style="fill: #1f77b4"/>
   </g>
   <g id="patch_135">
    <path d="M 307.5815 253.28 
L 348.2725 253.28 
L 348.2725 252.291672 
L 307.5815 252.291672 
z
" clip-path="url(#pd02c25c86e)" style="fill: #1f77b4"/>
   </g>
   <g id="patch_136">
    <path d="M 388.9635 253.28 
L 429.6545 253.28 
L 429.6545 252.291672 
L 388.9635 252.291672 
z
" clip-path="url(#pd02c25c86e)" style="fill: #1f77b4"/>
   </g>
   <g id="patch_137">
    <path d="M 63.4355 253.28 
L 104.1265 253.28 
L 104.1265 239.114345 
L 63.4355 239.114345 
z
" clip-path="url(#pd02c25c86e)" style="fill: #1f77b4"/>
   </g>
   <g id="patch_138">
    <path d="M 144.8175 253.28 
L 185.5085 253.28 
L 185.5085 241.775348 
L 144.8175 241.775348 
z
" clip-path="url(#pd02c25c86e)" style="fill: #1f77b4"/>
   </g>
   <g id="patch_139">
    <path d="M 226.1995 253.28 
L 266.8905 253.28 
L 266.8905 251.324174 
L 226.1995 251.324174 
z
" clip-path="url(#pd02c25c86e)" style="fill: #1f77b4"/>
   </g>
   <g id="patch_140">
    <path d="M 307.5815 253.28 
L 348.2725 253.28 
L 348.2725 253.019609 
L 307.5815 253.019609 
z
" clip-path="url(#pd02c25c86e)" style="fill: #1f77b4"/>
   </g>
   <g id="patch_141">
    <path d="M 388.9635 253.28 
L 429.6545 253.28 
L 429.6545 253.019609 
L 388.9635 253.019609 
z
" clip-path="url(#pd02c25c86e)" style="fill: #1f77b4"/>
   </g>
   <g id="patch_142">
    <path d="M 63.4355 253.28 
L 104.1265 253.28 
L 104.1265 251.735013 
L 63.4355 251.735013 
z
" clip-path="url(#pd02c25c86e)" style="fill: #1f77b4"/>
   </g>
   <g id="patch_143">
    <path d="M 144.8175 253.28 
L 185.5085 253.28 
L 185.5085 252.273155 
L 144.8175 252.273155 
z
" clip-path="url(#pd02c25c86e)" style="fill: #1f77b4"/>
   </g>
   <g id="patch_144">
    <path d="M 226.1995 253.28 
L 266.8905 253.28 
L 266.8905 253.071687 
L 226.1995 253.071687 
z
" clip-path="url(#pd02c25c86e)" style="fill: #1f77b4"/>
   </g>
   <g id="patch_145">
    <path d="M 307.5815 253.28 
L 348.2725 253.28 
L 348.2725 253.127237 
L 307.5815 253.127237 
z
" clip-path="url(#pd02c25c86e)" style="fill: #1f77b4"/>
   </g>
   <g id="patch_146">
    <path d="M 388.9635 253.28 
L 429.6545 253.28 
L 429.6545 252.932812 
L 388.9635 252.932812 
z
" clip-path="url(#pd02c25c86e)" style="fill: #1f77b4"/>
   </g>
   <g id="patch_147">
    <path d="M 63.4355 253.28 
L 104.1265 253.28 
L 104.1265 253.13341 
L 63.4355 253.13341 
z
" clip-path="url(#pd02c25c86e)" style="fill: #1f77b4"/>
   </g>
   <g id="patch_148">
    <path d="M 144.8175 253.28 
L 185.5085 253.28 
L 185.5085 253.245281 
L 144.8175 253.245281 
z
" clip-path="url(#pd02c25c86e)" style="fill: #1f77b4"/>
   </g>
   <g id="patch_149">
    <path d="M 226.1995 253.28 
L 266.8905 253.28 
L 266.8905 253.245281 
L 226.1995 253.245281 
z
" clip-path="url(#pd02c25c86e)" style="fill: #1f77b4"/>
   </g>
   <g id="patch_150">
    <path d="M 307.5815 253.28 
L 348.2725 253.28 
L 348.2725 253.272285 
L 307.5815 253.272285 
z
" clip-path="url(#pd02c25c86e)" style="fill: #1f77b4"/>
   </g>
   <g id="patch_151">
    <path d="M 388.9635 253.28 
L 429.6545 253.28 
L 429.6545 253.272285 
L 388.9635 253.272285 
z
" clip-path="url(#pd02c25c86e)" style="fill: #1f77b4"/>
   </g>
   <g id="patch_152">
    <path d="M 63.4355 253.28 
L 104.1265 253.28 
L 104.1265 252.979104 
L 63.4355 252.979104 
z
" clip-path="url(#pd02c25c86e)" style="fill: #1f77b4"/>
   </g>
   <g id="patch_153">
    <path d="M 144.8175 253.28 
L 185.5085 253.28 
L 185.5085 253.117979 
L 144.8175 253.117979 
z
" clip-path="url(#pd02c25c86e)" style="fill: #1f77b4"/>
   </g>
   <g id="patch_154">
    <path d="M 226.1995 253.28 
L 266.8905 253.28 
L 266.8905 253.071687 
L 226.1995 253.071687 
z
" clip-path="url(#pd02c25c86e)" style="fill: #1f77b4"/>
   </g>
   <g id="patch_155">
    <path d="M 307.5815 253.28 
L 348.2725 253.28 
L 348.2725 253.00225 
L 307.5815 253.00225 
z
" clip-path="url(#pd02c25c86e)" style="fill: #1f77b4"/>
   </g>
   <g id="patch_156">
    <path d="M 388.9635 253.28 
L 429.6545 253.28 
L 429.6545 253.210562 
L 388.9635 253.210562 
z
" clip-path="url(#pd02c25c86e)" style="fill: #1f77b4"/>
   </g>
   <g id="patch_157">
    <path d="M 63.4355 253.28 
L 104.1265 253.28 
L 104.1265 253.28 
L 63.4355 253.28 
z
" clip-path="url(#pd02c25c86e)" style="fill: #1f77b4"/>
   </g>
   <g id="patch_158">
    <path d="M 144.8175 253.28 
L 185.5085 253.28 
L 185.5085 253.28 
L 144.8175 253.28 
z
" clip-path="url(#pd02c25c86e)" style="fill: #1f77b4"/>
   </g>
   <g id="patch_159">
    <path d="M 226.1995 253.28 
L 266.8905 253.28 
L 266.8905 253.28 
L 226.1995 253.28 
z
" clip-path="url(#pd02c25c86e)" style="fill: #1f77b4"/>
   </g>
   <g id="patch_160">
    <path d="M 307.5815 253.28 
L 348.2725 253.28 
L 348.2725 253.28 
L 307.5815 253.28 
z
" clip-path="url(#pd02c25c86e)" style="fill: #1f77b4"/>
   </g>
   <g id="patch_161">
    <path d="M 63.4355 253.28 
L 104.1265 253.28 
L 104.1265 253.28 
L 63.4355 253.28 
z
" clip-path="url(#pd02c25c86e)" style="fill: #1f77b4"/>
   </g>
   <g id="patch_162">
    <path d="M 144.8175 253.28 
L 185.5085 253.28 
L 185.5085 253.28 
L 144.8175 253.28 
z
" clip-path="url(#pd02c25c86e)" style="fill: #1f77b4"/>
   </g>
   <g id="patch_163">
    <path d="M 226.1995 253.28 
L 266.8905 253.28 
L 266.8905 253.28 
L 226.1995 253.28 
z
" clip-path="url(#pd02c25c86e)" style="fill: #1f77b4"/>
   </g>
   <g id="patch_164">
    <path d="M 63.4355 253.28 
L 104.1265 253.28 
L 104.1265 253.28 
L 63.4355 253.28 
z
" clip-path="url(#pd02c25c86e)" style="fill: #1f77b4"/>
   </g>
   <g id="patch_165">
    <path d="M 144.8175 253.28 
L 185.5085 253.28 
L 185.5085 253.28 
L 144.8175 253.28 
z
" clip-path="url(#pd02c25c86e)" style="fill: #1f77b4"/>
   </g>
   <g id="patch_166">
    <path d="M 226.1995 253.28 
L 266.8905 253.28 
L 266.8905 253.28 
L 226.1995 253.28 
z
" clip-path="url(#pd02c25c86e)" style="fill: #1f77b4"/>
   </g>
   <g id="patch_167">
    <path d="M 307.5815 253.28 
L 348.2725 253.28 
L 348.2725 253.28 
L 307.5815 253.28 
z
" clip-path="url(#pd02c25c86e)" style="fill: #1f77b4"/>
   </g>
   <g id="patch_168">
    <path d="M 63.4355 253.28 
L 104.1265 253.28 
L 104.1265 253.28 
L 63.4355 253.28 
z
" clip-path="url(#pd02c25c86e)" style="fill: #1f77b4"/>
   </g>
   <g id="patch_169">
    <path d="M 144.8175 253.28 
L 185.5085 253.28 
L 185.5085 253.28 
L 144.8175 253.28 
z
" clip-path="url(#pd02c25c86e)" style="fill: #1f77b4"/>
   </g>
   <g id="patch_170">
    <path d="M 63.4355 253.28 
L 104.1265 253.28 
L 104.1265 22.346667 
L 63.4355 22.346667 
z
" clip-path="url(#pd02c25c86e)" style="fill: #1f77b4"/>
   </g>
   <g id="patch_171">
    <path d="M 144.8175 253.28 
L 185.5085 253.28 
L 185.5085 106.156724 
L 144.8175 106.156724 
z
" clip-path="url(#pd02c25c86e)" style="fill: #1f77b4"/>
   </g>
   <g id="patch_172">
    <path d="M 226.1995 253.28 
L 266.8905 253.28 
L 266.8905 143.859181 
L 226.1995 143.859181 
z
" clip-path="url(#pd02c25c86e)" style="fill: #1f77b4"/>
   </g>
   <g id="patch_173">
    <path d="M 307.5815 253.28 
L 348.2725 253.28 
L 348.2725 134.930292 
L 307.5815 134.930292 
z
" clip-path="url(#pd02c25c86e)" style="fill: #1f77b4"/>
   </g>
   <g id="patch_174">
    <path d="M 388.9635 253.28 
L 429.6545 253.28 
L 429.6545 158.406006 
L 388.9635 158.406006 
z
" clip-path="url(#pd02c25c86e)" style="fill: #1f77b4"/>
   </g>
   <g id="patch_175">
    <path d="M 63.4355 253.28 
L 104.1265 253.28 
L 104.1265 252.915453 
L 63.4355 252.915453 
z
" clip-path="url(#pd02c25c86e)" style="fill: #1f77b4"/>
   </g>
   <g id="patch_176">
    <path d="M 144.8175 253.28 
L 185.5085 253.28 
L 185.5085 253.210562 
L 144.8175 253.210562 
z
" clip-path="url(#pd02c25c86e)" style="fill: #1f77b4"/>
   </g>
   <g id="patch_177">
    <path d="M 226.1995 253.28 
L 266.8905 253.28 
L 266.8905 253.210562 
L 226.1995 253.210562 
z
" clip-path="url(#pd02c25c86e)" style="fill: #1f77b4"/>
   </g>
   <g id="patch_178">
    <path d="M 307.5815 253.28 
L 348.2725 253.28 
L 348.2725 253.210562 
L 307.5815 253.210562 
z
" clip-path="url(#pd02c25c86e)" style="fill: #1f77b4"/>
   </g>
   <g id="patch_179">
    <path d="M 388.9635 253.28 
L 429.6545 253.28 
L 429.6545 253.175844 
L 388.9635 253.175844 
z
" clip-path="url(#pd02c25c86e)" style="fill: #1f77b4"/>
   </g>
   <g id="patch_180">
    <path d="M 63.4355 253.28 
L 104.1265 253.28 
L 104.1265 44.645002 
L 63.4355 44.645002 
z
" clip-path="url(#pd02c25c86e)" style="fill: #1f77b4"/>
   </g>
   <g id="patch_181">
    <path d="M 144.8175 253.28 
L 185.5085 253.28 
L 185.5085 145.808855 
L 144.8175 145.808855 
z
" clip-path="url(#pd02c25c86e)" style="fill: #1f77b4"/>
   </g>
   <g id="patch_182">
    <path d="M 226.1995 253.28 
L 266.8905 253.28 
L 266.8905 176.95182 
L 226.1995 176.95182 
z
" clip-path="url(#pd02c25c86e)" style="fill: #1f77b4"/>
   </g>
   <g id="patch_183">
    <path d="M 307.5815 253.28 
L 348.2725 253.28 
L 348.2725 165.72595 
L 307.5815 165.72595 
z
" clip-path="url(#pd02c25c86e)" style="fill: #1f77b4"/>
   </g>
   <g id="patch_184">
    <path d="M 388.9635 253.28 
L 429.6545 253.28 
L 429.6545 193.807335 
L 388.9635 193.807335 
z
" clip-path="url(#pd02c25c86e)" style="fill: #1f77b4"/>
   </g>
   <g id="patch_185">
    <path d="M 63.4355 253.28 
L 104.1265 253.28 
L 104.1265 249.310484 
L 63.4355 249.310484 
z
" clip-path="url(#pd02c25c86e)" style="fill: #1f77b4"/>
   </g>
   <g id="patch_186">
    <path d="M 144.8175 253.28 
L 185.5085 253.28 
L 185.5085 249.981714 
L 144.8175 249.981714 
z
" clip-path="url(#pd02c25c86e)" style="fill: #1f77b4"/>
   </g>
   <g id="patch_187">
    <path d="M 226.1995 253.28 
L 266.8905 253.28 
L 266.8905 252.817083 
L 226.1995 252.817083 
z
" clip-path="url(#pd02c25c86e)" style="fill: #1f77b4"/>
   </g>
   <g id="patch_188">
    <path d="M 307.5815 253.28 
L 348.2725 253.28 
L 348.2725 252.817083 
L 307.5815 252.817083 
z
" clip-path="url(#pd02c25c86e)" style="fill: #1f77b4"/>
   </g>
   <g id="patch_189">
    <path d="M 388.9635 253.28 
L 429.6545 253.28 
L 429.6545 252.960587 
L 388.9635 252.960587 
z
" clip-path="url(#pd02c25c86e)" style="fill: #1f77b4"/>
   </g>
   <g id="patch_190">
    <path d="M 63.4355 253.28 
L 104.1265 253.28 
L 104.1265 220.534387 
L 63.4355 220.534387 
z
" clip-path="url(#pd02c25c86e)" style="fill: #1f77b4"/>
   </g>
   <g id="patch_191">
    <path d="M 144.8175 253.28 
L 185.5085 253.28 
L 185.5085 242.30886 
L 144.8175 242.30886 
z
" clip-path="url(#pd02c25c86e)" style="fill: #1f77b4"/>
   </g>
   <g id="patch_192">
    <path d="M 226.1995 253.28 
L 266.8905 253.28 
L 266.8905 247.79443 
L 226.1995 247.79443 
z
" clip-path="url(#pd02c25c86e)" style="fill: #1f77b4"/>
   </g>
   <g id="patch_193">
    <path d="M 307.5815 253.28 
L 348.2725 253.28 
L 348.2725 247.79443 
L 307.5815 247.79443 
z
" clip-path="url(#pd02c25c86e)" style="fill: #1f77b4"/>
   </g>
   <g id="patch_194">
    <path d="M 388.9635 253.28 
L 429.6545 253.28 
L 429.6545 246.065434 
L 388.9635 246.065434 
z
" clip-path="url(#pd02c25c86e)" style="fill: #1f77b4"/>
   </g>
   <g id="patch_195">
    <path d="M 63.4355 253.28 
L 104.1265 253.28 
L 104.1265 253.106406 
L 63.4355 253.106406 
z
" clip-path="url(#pd02c25c86e)" style="fill: #1f77b4"/>
   </g>
   <g id="patch_196">
    <path d="M 144.8175 253.28 
L 185.5085 253.28 
L 185.5085 253.106406 
L 144.8175 253.106406 
z
" clip-path="url(#pd02c25c86e)" style="fill: #1f77b4"/>
   </g>
   <g id="patch_197">
    <path d="M 226.1995 253.28 
L 266.8905 253.28 
L 266.8905 253.106406 
L 226.1995 253.106406 
z
" clip-path="url(#pd02c25c86e)" style="fill: #1f77b4"/>
   </g>
   <g id="patch_198">
    <path d="M 307.5815 253.28 
L 348.2725 253.28 
L 348.2725 253.106406 
L 307.5815 253.106406 
z
" clip-path="url(#pd02c25c86e)" style="fill: #1f77b4"/>
   </g>
   <g id="patch_199">
    <path d="M 388.9635 253.28 
L 429.6545 253.28 
L 429.6545 253.106406 
L 388.9635 253.106406 
z
" clip-path="url(#pd02c25c86e)" style="fill: #1f77b4"/>
   </g>
   <g id="patch_200">
    <path d="M 63.4355 253.28 
L 104.1265 253.28 
L 104.1265 253.141125 
L 63.4355 253.141125 
z
" clip-path="url(#pd02c25c86e)" style="fill: #1f77b4"/>
   </g>
   <g id="patch_201">
    <path d="M 144.8175 253.28 
L 185.5085 253.28 
L 185.5085 253.141125 
L 144.8175 253.141125 
z
" clip-path="url(#pd02c25c86e)" style="fill: #1f77b4"/>
   </g>
   <g id="patch_202">
    <path d="M 226.1995 253.28 
L 266.8905 253.28 
L 266.8905 253.141125 
L 226.1995 253.141125 
z
" clip-path="url(#pd02c25c86e)" style="fill: #1f77b4"/>
   </g>
   <g id="patch_203">
    <path d="M 307.5815 253.28 
L 348.2725 253.28 
L 348.2725 253.262641 
L 307.5815 253.262641 
z
" clip-path="url(#pd02c25c86e)" style="fill: #1f77b4"/>
   </g>
   <g id="patch_204">
    <path d="M 388.9635 253.28 
L 429.6545 253.28 
L 429.6545 253.262641 
L 388.9635 253.262641 
z
" clip-path="url(#pd02c25c86e)" style="fill: #1f77b4"/>
   </g>
   <g id="patch_205">
    <path d="M 63.4355 253.28 
L 104.1265 253.28 
L 104.1265 214.636395 
L 63.4355 214.636395 
z
" clip-path="url(#pd02c25c86e)" style="fill: #1f77b4"/>
   </g>
   <g id="patch_206">
    <path d="M 144.8175 253.28 
L 185.5085 253.28 
L 185.5085 213.22234 
L 144.8175 213.22234 
z
" clip-path="url(#pd02c25c86e)" style="fill: #1f77b4"/>
   </g>
   <g id="patch_207">
    <path d="M 226.1995 253.28 
L 266.8905 253.28 
L 266.8905 238.819621 
L 226.1995 238.819621 
z
" clip-path="url(#pd02c25c86e)" style="fill: #1f77b4"/>
   </g>
   <g id="patch_208">
    <path d="M 307.5815 253.28 
L 348.2725 253.28 
L 348.2725 238.819621 
L 307.5815 238.819621 
z
" clip-path="url(#pd02c25c86e)" style="fill: #1f77b4"/>
   </g>
   <g id="patch_209">
    <path d="M 388.9635 253.28 
L 429.6545 253.28 
L 429.6545 214.156126 
L 388.9635 214.156126 
z
" clip-path="url(#pd02c25c86e)" style="fill: #1f77b4"/>
   </g>
   <g id="patch_210">
    <path d="M 63.4355 253.28 
L 104.1265 253.28 
L 104.1265 253.175844 
L 63.4355 253.175844 
z
" clip-path="url(#pd02c25c86e)" style="fill: #1f77b4"/>
   </g>
   <g id="patch_211">
    <path d="M 144.8175 253.28 
L 185.5085 253.28 
L 185.5085 253.175844 
L 144.8175 253.175844 
z
" clip-path="url(#pd02c25c86e)" style="fill: #1f77b4"/>
   </g>
   <g id="patch_212">
    <path d="M 226.1995 253.28 
L 266.8905 253.28 
L 266.8905 253.28 
L 226.1995 253.28 
z
" clip-path="url(#pd02c25c86e)" style="fill: #1f77b4"/>
   </g>
   <g id="patch_213">
    <path d="M 307.5815 253.28 
L 348.2725 253.28 
L 348.2725 253.28 
L 307.5815 253.28 
z
" clip-path="url(#pd02c25c86e)" style="fill: #1f77b4"/>
   </g>
   <g id="patch_214">
    <path d="M 388.9635 253.28 
L 429.6545 253.28 
L 429.6545 253.28 
L 388.9635 253.28 
z
" clip-path="url(#pd02c25c86e)" style="fill: #1f77b4"/>
   </g>
   <g id="patch_215">
    <path d="M 63.4355 253.28 
L 104.1265 253.28 
L 104.1265 230.28811 
L 63.4355 230.28811 
z
" clip-path="url(#pd02c25c86e)" style="fill: #1f77b4"/>
   </g>
   <g id="patch_216">
    <path d="M 144.8175 253.28 
L 185.5085 253.28 
L 185.5085 236.151764 
L 144.8175 236.151764 
z
" clip-path="url(#pd02c25c86e)" style="fill: #1f77b4"/>
   </g>
   <g id="patch_217">
    <path d="M 226.1995 253.28 
L 266.8905 253.28 
L 266.8905 240.552756 
L 226.1995 240.552756 
z
" clip-path="url(#pd02c25c86e)" style="fill: #1f77b4"/>
   </g>
   <g id="patch_218">
    <path d="M 307.5815 253.28 
L 348.2725 253.28 
L 348.2725 233.992556 
L 307.5815 233.992556 
z
" clip-path="url(#pd02c25c86e)" style="fill: #1f77b4"/>
   </g>
   <g id="patch_219">
    <path d="M 388.9635 253.28 
L 429.6545 253.28 
L 429.6545 248.44577 
L 388.9635 248.44577 
z
" clip-path="url(#pd02c25c86e)" style="fill: #1f77b4"/>
   </g>
   <g id="patch_220">
    <path d="M 63.4355 253.28 
L 104.1265 253.28 
L 104.1265 252.759218 
L 63.4355 252.759218 
z
" clip-path="url(#pd02c25c86e)" style="fill: #1f77b4"/>
   </g>
   <g id="patch_221">
    <path d="M 144.8175 253.28 
L 185.5085 253.28 
L 185.5085 252.793937 
L 144.8175 252.793937 
z
" clip-path="url(#pd02c25c86e)" style="fill: #1f77b4"/>
   </g>
   <g id="patch_222">
    <path d="M 226.1995 253.28 
L 266.8905 253.28 
L 266.8905 252.585624 
L 226.1995 252.585624 
z
" clip-path="url(#pd02c25c86e)" style="fill: #1f77b4"/>
   </g>
   <g id="patch_223">
    <path d="M 307.5815 253.28 
L 348.2725 253.28 
L 348.2725 253.106406 
L 307.5815 253.106406 
z
" clip-path="url(#pd02c25c86e)" style="fill: #1f77b4"/>
   </g>
   <g id="patch_224">
    <path d="M 388.9635 253.28 
L 429.6545 253.28 
L 429.6545 253.106406 
L 388.9635 253.106406 
z
" clip-path="url(#pd02c25c86e)" style="fill: #1f77b4"/>
   </g>
   <g id="patch_225">
    <path d="M 63.4355 253.28 
L 104.1265 253.28 
L 104.1265 252.793937 
L 63.4355 252.793937 
z
" clip-path="url(#pd02c25c86e)" style="fill: #1f77b4"/>
   </g>
   <g id="patch_226">
    <path d="M 144.8175 253.28 
L 185.5085 253.28 
L 185.5085 252.793937 
L 144.8175 252.793937 
z
" clip-path="url(#pd02c25c86e)" style="fill: #1f77b4"/>
   </g>
   <g id="patch_227">
    <path d="M 226.1995 253.28 
L 266.8905 253.28 
L 266.8905 252.793937 
L 226.1995 252.793937 
z
" clip-path="url(#pd02c25c86e)" style="fill: #1f77b4"/>
   </g>
   <g id="patch_228">
    <path d="M 307.5815 253.28 
L 348.2725 253.28 
L 348.2725 253.256854 
L 307.5815 253.256854 
z
" clip-path="url(#pd02c25c86e)" style="fill: #1f77b4"/>
   </g>
   <g id="patch_229">
    <path d="M 388.9635 253.28 
L 429.6545 253.28 
L 429.6545 253.256854 
L 388.9635 253.256854 
z
" clip-path="url(#pd02c25c86e)" style="fill: #1f77b4"/>
   </g>
   <g id="patch_230">
    <path d="M 63.4355 253.28 
L 104.1265 253.28 
L 104.1265 252.863374 
L 63.4355 252.863374 
z
" clip-path="url(#pd02c25c86e)" style="fill: #1f77b4"/>
   </g>
   <g id="patch_231">
    <path d="M 144.8175 253.28 
L 185.5085 253.28 
L 185.5085 253.210562 
L 144.8175 253.210562 
z
" clip-path="url(#pd02c25c86e)" style="fill: #1f77b4"/>
   </g>
   <g id="patch_232">
    <path d="M 226.1995 253.28 
L 266.8905 253.28 
L 266.8905 253.210562 
L 226.1995 253.210562 
z
" clip-path="url(#pd02c25c86e)" style="fill: #1f77b4"/>
   </g>
   <g id="patch_233">
    <path d="M 307.5815 253.28 
L 348.2725 253.28 
L 348.2725 253.28 
L 307.5815 253.28 
z
" clip-path="url(#pd02c25c86e)" style="fill: #1f77b4"/>
   </g>
   <g id="patch_234">
    <path d="M 388.9635 253.28 
L 429.6545 253.28 
L 429.6545 253.28 
L 388.9635 253.28 
z
" clip-path="url(#pd02c25c86e)" style="fill: #1f77b4"/>
   </g>
   <g id="patch_235">
    <path d="M 63.4355 253.28 
L 104.1265 253.28 
L 104.1265 246.951259 
L 63.4355 246.951259 
z
" clip-path="url(#pd02c25c86e)" style="fill: #1f77b4"/>
   </g>
   <g id="patch_236">
    <path d="M 144.8175 253.28 
L 185.5085 253.28 
L 185.5085 250.770327 
L 144.8175 250.770327 
z
" clip-path="url(#pd02c25c86e)" style="fill: #1f77b4"/>
   </g>
   <g id="patch_237">
    <path d="M 226.1995 253.28 
L 266.8905 253.28 
L 266.8905 250.770327 
L 226.1995 250.770327 
z
" clip-path="url(#pd02c25c86e)" style="fill: #1f77b4"/>
   </g>
   <g id="patch_238">
    <path d="M 307.5815 253.28 
L 348.2725 253.28 
L 348.2725 249.555169 
L 307.5815 249.555169 
z
" clip-path="url(#pd02c25c86e)" style="fill: #1f77b4"/>
   </g>
   <g id="patch_239">
    <path d="M 388.9635 253.28 
L 429.6545 253.28 
L 429.6545 250.874483 
L 388.9635 250.874483 
z
" clip-path="url(#pd02c25c86e)" style="fill: #1f77b4"/>
   </g>
   <g id="patch_240">
    <path d="M 63.4355 253.28 
L 104.1265 253.28 
L 104.1265 253.28 
L 63.4355 253.28 
z
" clip-path="url(#pd02c25c86e)" style="fill: #1f77b4"/>
   </g>
   <g id="patch_241">
    <path d="M 63.4355 253.28 
L 104.1265 253.28 
L 104.1265 148.574005 
L 63.4355 148.574005 
z
" clip-path="url(#pd02c25c86e)" style="fill: #1f77b4"/>
   </g>
   <g id="patch_242">
    <path d="M 144.8175 253.28 
L 185.5085 253.28 
L 185.5085 167.665465 
L 144.8175 167.665465 
z
" clip-path="url(#pd02c25c86e)" style="fill: #1f77b4"/>
   </g>
   <g id="patch_243">
    <path d="M 226.1995 253.28 
L 266.8905 253.28 
L 266.8905 165.310036 
L 226.1995 165.310036 
z
" clip-path="url(#pd02c25c86e)" style="fill: #1f77b4"/>
   </g>
   <g id="patch_244">
    <path d="M 307.5815 253.28 
L 348.2725 253.28 
L 348.2725 177.862418 
L 307.5815 177.862418 
z
" clip-path="url(#pd02c25c86e)" style="fill: #1f77b4"/>
   </g>
   <g id="patch_245">
    <path d="M 388.9635 253.28 
L 429.6545 253.28 
L 429.6545 219.398787 
L 388.9635 219.398787 
z
" clip-path="url(#pd02c25c86e)" style="fill: #1f77b4"/>
   </g>
   <g id="patch_246">
    <path d="M 63.4355 253.28 
L 104.1265 253.28 
L 104.1265 193.173026 
L 63.4355 193.173026 
z
" clip-path="url(#pd02c25c86e)" style="fill: #1f77b4"/>
   </g>
   <g id="patch_247">
    <path d="M 144.8175 253.28 
L 185.5085 253.28 
L 185.5085 168.119765 
L 144.8175 168.119765 
z
" clip-path="url(#pd02c25c86e)" style="fill: #1f77b4"/>
   </g>
   <g id="patch_248">
    <path d="M 226.1995 253.28 
L 266.8905 253.28 
L 266.8905 209.046753 
L 226.1995 209.046753 
z
" clip-path="url(#pd02c25c86e)" style="fill: #1f77b4"/>
   </g>
   <g id="patch_249">
    <path d="M 307.5815 253.28 
L 348.2725 253.28 
L 348.2725 211.165474 
L 307.5815 211.165474 
z
" clip-path="url(#pd02c25c86e)" style="fill: #1f77b4"/>
   </g>
   <g id="patch_250">
    <path d="M 388.9635 253.28 
L 429.6545 253.28 
L 429.6545 224.837835 
L 388.9635 224.837835 
z
" clip-path="url(#pd02c25c86e)" style="fill: #1f77b4"/>
   </g>
   <g id="patch_251">
    <path d="M 63.4355 253.28 
L 104.1265 253.28 
L 104.1265 253.256854 
L 63.4355 253.256854 
z
" clip-path="url(#pd02c25c86e)" style="fill: #1f77b4"/>
   </g>
   <g id="patch_252">
    <path d="M 144.8175 253.28 
L 185.5085 253.28 
L 185.5085 253.256854 
L 144.8175 253.256854 
z
" clip-path="url(#pd02c25c86e)" style="fill: #1f77b4"/>
   </g>
   <g id="patch_253">
    <path d="M 226.1995 253.28 
L 266.8905 253.28 
L 266.8905 253.256854 
L 226.1995 253.256854 
z
" clip-path="url(#pd02c25c86e)" style="fill: #1f77b4"/>
   </g>
   <g id="patch_254">
    <path d="M 307.5815 253.28 
L 348.2725 253.28 
L 348.2725 253.28 
L 307.5815 253.28 
z
" clip-path="url(#pd02c25c86e)" style="fill: #1f77b4"/>
   </g>
   <g id="patch_255">
    <path d="M 388.9635 253.28 
L 429.6545 253.28 
L 429.6545 253.28 
L 388.9635 253.28 
z
" clip-path="url(#pd02c25c86e)" style="fill: #1f77b4"/>
   </g>
   <g id="patch_256">
    <path d="M 63.4355 253.28 
L 104.1265 253.28 
L 104.1265 251.335747 
L 63.4355 251.335747 
z
" clip-path="url(#pd02c25c86e)" style="fill: #1f77b4"/>
   </g>
   <g id="patch_257">
    <path d="M 144.8175 253.28 
L 185.5085 253.28 
L 185.5085 251.173726 
L 144.8175 251.173726 
z
" clip-path="url(#pd02c25c86e)" style="fill: #1f77b4"/>
   </g>
   <g id="patch_258">
    <path d="M 226.1995 253.28 
L 266.8905 253.28 
L 266.8905 253.106406 
L 226.1995 253.106406 
z
" clip-path="url(#pd02c25c86e)" style="fill: #1f77b4"/>
   </g>
   <g id="patch_259">
    <path d="M 307.5815 253.28 
L 348.2725 253.28 
L 348.2725 253.227922 
L 307.5815 253.227922 
z
" clip-path="url(#pd02c25c86e)" style="fill: #1f77b4"/>
   </g>
   <g id="patch_260">
    <path d="M 388.9635 253.28 
L 429.6545 253.28 
L 429.6545 253.227922 
L 388.9635 253.227922 
z
" clip-path="url(#pd02c25c86e)" style="fill: #1f77b4"/>
   </g>
   <g id="patch_261">
    <path d="M 63.4355 253.28 
L 104.1265 253.28 
L 104.1265 252.863374 
L 63.4355 252.863374 
z
" clip-path="url(#pd02c25c86e)" style="fill: #1f77b4"/>
   </g>
   <g id="patch_262">
    <path d="M 144.8175 253.28 
L 185.5085 253.28 
L 185.5085 253.00225 
L 144.8175 253.00225 
z
" clip-path="url(#pd02c25c86e)" style="fill: #1f77b4"/>
   </g>
   <g id="patch_263">
    <path d="M 226.1995 253.28 
L 266.8905 253.28 
L 266.8905 253.141125 
L 226.1995 253.141125 
z
" clip-path="url(#pd02c25c86e)" style="fill: #1f77b4"/>
   </g>
   <g id="patch_264">
    <path d="M 307.5815 253.28 
L 348.2725 253.28 
L 348.2725 253.141125 
L 307.5815 253.141125 
z
" clip-path="url(#pd02c25c86e)" style="fill: #1f77b4"/>
   </g>
   <g id="patch_265">
    <path d="M 388.9635 253.28 
L 429.6545 253.28 
L 429.6545 252.955958 
L 388.9635 252.955958 
z
" clip-path="url(#pd02c25c86e)" style="fill: #1f77b4"/>
   </g>
   <g id="patch_266">
    <path d="M 63.4355 253.28 
L 104.1265 253.28 
L 104.1265 253.036968 
L 63.4355 253.036968 
z
" clip-path="url(#pd02c25c86e)" style="fill: #1f77b4"/>
   </g>
   <g id="patch_267">
    <path d="M 144.8175 253.28 
L 185.5085 253.28 
L 185.5085 253.036968 
L 144.8175 253.036968 
z
" clip-path="url(#pd02c25c86e)" style="fill: #1f77b4"/>
   </g>
   <g id="patch_268">
    <path d="M 226.1995 253.28 
L 266.8905 253.28 
L 266.8905 253.262641 
L 226.1995 253.262641 
z
" clip-path="url(#pd02c25c86e)" style="fill: #1f77b4"/>
   </g>
   <g id="patch_269">
    <path d="M 307.5815 253.28 
L 348.2725 253.28 
L 348.2725 253.262641 
L 307.5815 253.262641 
z
" clip-path="url(#pd02c25c86e)" style="fill: #1f77b4"/>
   </g>
   <g id="patch_270">
    <path d="M 388.9635 253.28 
L 429.6545 253.28 
L 429.6545 253.262641 
L 388.9635 253.262641 
z
" clip-path="url(#pd02c25c86e)" style="fill: #1f77b4"/>
   </g>
   <g id="patch_271">
    <path d="M 63.4355 253.28 
L 104.1265 253.28 
L 104.1265 252.514258 
L 63.4355 252.514258 
z
" clip-path="url(#pd02c25c86e)" style="fill: #1f77b4"/>
   </g>
   <g id="patch_272">
    <path d="M 144.8175 253.28 
L 185.5085 253.28 
L 185.5085 253.225993 
L 144.8175 253.225993 
z
" clip-path="url(#pd02c25c86e)" style="fill: #1f77b4"/>
   </g>
   <g id="patch_273">
    <path d="M 226.1995 253.28 
L 266.8905 253.28 
L 266.8905 253.225993 
L 226.1995 253.225993 
z
" clip-path="url(#pd02c25c86e)" style="fill: #1f77b4"/>
   </g>
   <g id="patch_274">
    <path d="M 307.5815 253.28 
L 348.2725 253.28 
L 348.2725 253.225993 
L 307.5815 253.225993 
z
" clip-path="url(#pd02c25c86e)" style="fill: #1f77b4"/>
   </g>
   <g id="patch_275">
    <path d="M 388.9635 253.28 
L 429.6545 253.28 
L 429.6545 253.225993 
L 388.9635 253.225993 
z
" clip-path="url(#pd02c25c86e)" style="fill: #1f77b4"/>
   </g>
   <g id="matplotlib.axis_1">
    <g id="xtick_1">
     <g id="line2d_1">
      <defs>
       <path id="m5d528fcfb7" d="M 0 0 
L 0 3.5 
" style="stroke: #000000; stroke-width: 0.8"/>
      </defs>
      <g>
       <use xlink:href="#m5d528fcfb7" x="83.781" y="253.28" style="stroke: #000000; stroke-width: 0.8"/>
      </g>
     </g>
     <g id="text_1">
      <!-- Sean Bean -->
      <g transform="translate(86.540375 313.905) rotate(-90) scale(0.1 -0.1)">
       <defs>
        <path id="DejaVuSans-53" d="M 3425 4513 
L 3425 3897 
Q 3066 4069 2747 4153 
Q 2428 4238 2131 4238 
Q 1616 4238 1336 4038 
Q 1056 3838 1056 3469 
Q 1056 3159 1242 3001 
Q 1428 2844 1947 2747 
L 2328 2669 
Q 3034 2534 3370 2195 
Q 3706 1856 3706 1288 
Q 3706 609 3251 259 
Q 2797 -91 1919 -91 
Q 1588 -91 1214 -16 
Q 841 59 441 206 
L 441 856 
Q 825 641 1194 531 
Q 1563 422 1919 422 
Q 2459 422 2753 634 
Q 3047 847 3047 1241 
Q 3047 1584 2836 1778 
Q 2625 1972 2144 2069 
L 1759 2144 
Q 1053 2284 737 2584 
Q 422 2884 422 3419 
Q 422 4038 858 4394 
Q 1294 4750 2059 4750 
Q 2388 4750 2728 4690 
Q 3069 4631 3425 4513 
z
" transform="scale(0.015625)"/>
        <path id="DejaVuSans-65" d="M 3597 1894 
L 3597 1613 
L 953 1613 
Q 991 1019 1311 708 
Q 1631 397 2203 397 
Q 2534 397 2845 478 
Q 3156 559 3463 722 
L 3463 178 
Q 3153 47 2828 -22 
Q 2503 -91 2169 -91 
Q 1331 -91 842 396 
Q 353 884 353 1716 
Q 353 2575 817 3079 
Q 1281 3584 2069 3584 
Q 2775 3584 3186 3129 
Q 3597 2675 3597 1894 
z
M 3022 2063 
Q 3016 2534 2758 2815 
Q 2500 3097 2075 3097 
Q 1594 3097 1305 2825 
Q 1016 2553 972 2059 
L 3022 2063 
z
" transform="scale(0.015625)"/>
        <path id="DejaVuSans-61" d="M 2194 1759 
Q 1497 1759 1228 1600 
Q 959 1441 959 1056 
Q 959 750 1161 570 
Q 1363 391 1709 391 
Q 2188 391 2477 730 
Q 2766 1069 2766 1631 
L 2766 1759 
L 2194 1759 
z
M 3341 1997 
L 3341 0 
L 2766 0 
L 2766 531 
Q 2569 213 2275 61 
Q 1981 -91 1556 -91 
Q 1019 -91 701 211 
Q 384 513 384 1019 
Q 384 1609 779 1909 
Q 1175 2209 1959 2209 
L 2766 2209 
L 2766 2266 
Q 2766 2663 2505 2880 
Q 2244 3097 1772 3097 
Q 1472 3097 1187 3025 
Q 903 2953 641 2809 
L 641 3341 
Q 956 3463 1253 3523 
Q 1550 3584 1831 3584 
Q 2591 3584 2966 3190 
Q 3341 2797 3341 1997 
z
" transform="scale(0.015625)"/>
        <path id="DejaVuSans-6e" d="M 3513 2113 
L 3513 0 
L 2938 0 
L 2938 2094 
Q 2938 2591 2744 2837 
Q 2550 3084 2163 3084 
Q 1697 3084 1428 2787 
Q 1159 2491 1159 1978 
L 1159 0 
L 581 0 
L 581 3500 
L 1159 3500 
L 1159 2956 
Q 1366 3272 1645 3428 
Q 1925 3584 2291 3584 
Q 2894 3584 3203 3211 
Q 3513 2838 3513 2113 
z
" transform="scale(0.015625)"/>
        <path id="DejaVuSans-20" transform="scale(0.015625)"/>
        <path id="DejaVuSans-42" d="M 1259 2228 
L 1259 519 
L 2272 519 
Q 2781 519 3026 730 
Q 3272 941 3272 1375 
Q 3272 1813 3026 2020 
Q 2781 2228 2272 2228 
L 1259 2228 
z
M 1259 4147 
L 1259 2741 
L 2194 2741 
Q 2656 2741 2882 2914 
Q 3109 3088 3109 3444 
Q 3109 3797 2882 3972 
Q 2656 4147 2194 4147 
L 1259 4147 
z
M 628 4666 
L 2241 4666 
Q 2963 4666 3353 4366 
Q 3744 4066 3744 3513 
Q 3744 3084 3544 2831 
Q 3344 2578 2956 2516 
Q 3422 2416 3680 2098 
Q 3938 1781 3938 1306 
Q 3938 681 3513 340 
Q 3088 0 2303 0 
L 628 0 
L 628 4666 
z
" transform="scale(0.015625)"/>
       </defs>
       <use xlink:href="#DejaVuSans-53"/>
       <use xlink:href="#DejaVuSans-65" x="63.476562"/>
       <use xlink:href="#DejaVuSans-61" x="125"/>
       <use xlink:href="#DejaVuSans-6e" x="186.279297"/>
       <use xlink:href="#DejaVuSans-20" x="249.658203"/>
       <use xlink:href="#DejaVuSans-42" x="281.445312"/>
       <use xlink:href="#DejaVuSans-65" x="350.048828"/>
       <use xlink:href="#DejaVuSans-61" x="411.572266"/>
       <use xlink:href="#DejaVuSans-6e" x="472.851562"/>
      </g>
     </g>
    </g>
    <g id="xtick_2">
     <g id="line2d_2">
      <g>
       <use xlink:href="#m5d528fcfb7" x="165.163" y="253.28" style="stroke: #000000; stroke-width: 0.8"/>
      </g>
     </g>
     <g id="text_2">
      <!-- Sean Astin -->
      <g transform="translate(167.922375 313.51125) rotate(-90) scale(0.1 -0.1)">
       <defs>
        <path id="DejaVuSans-41" d="M 2188 4044 
L 1331 1722 
L 3047 1722 
L 2188 4044 
z
M 1831 4666 
L 2547 4666 
L 4325 0 
L 3669 0 
L 3244 1197 
L 1141 1197 
L 716 0 
L 50 0 
L 1831 4666 
z
" transform="scale(0.015625)"/>
        <path id="DejaVuSans-73" d="M 2834 3397 
L 2834 2853 
Q 2591 2978 2328 3040 
Q 2066 3103 1784 3103 
Q 1356 3103 1142 2972 
Q 928 2841 928 2578 
Q 928 2378 1081 2264 
Q 1234 2150 1697 2047 
L 1894 2003 
Q 2506 1872 2764 1633 
Q 3022 1394 3022 966 
Q 3022 478 2636 193 
Q 2250 -91 1575 -91 
Q 1294 -91 989 -36 
Q 684 19 347 128 
L 347 722 
Q 666 556 975 473 
Q 1284 391 1588 391 
Q 1994 391 2212 530 
Q 2431 669 2431 922 
Q 2431 1156 2273 1281 
Q 2116 1406 1581 1522 
L 1381 1569 
Q 847 1681 609 1914 
Q 372 2147 372 2553 
Q 372 3047 722 3315 
Q 1072 3584 1716 3584 
Q 2034 3584 2315 3537 
Q 2597 3491 2834 3397 
z
" transform="scale(0.015625)"/>
        <path id="DejaVuSans-74" d="M 1172 4494 
L 1172 3500 
L 2356 3500 
L 2356 3053 
L 1172 3053 
L 1172 1153 
Q 1172 725 1289 603 
Q 1406 481 1766 481 
L 2356 481 
L 2356 0 
L 1766 0 
Q 1100 0 847 248 
Q 594 497 594 1153 
L 594 3053 
L 172 3053 
L 172 3500 
L 594 3500 
L 594 4494 
L 1172 4494 
z
" transform="scale(0.015625)"/>
        <path id="DejaVuSans-69" d="M 603 3500 
L 1178 3500 
L 1178 0 
L 603 0 
L 603 3500 
z
M 603 4863 
L 1178 4863 
L 1178 4134 
L 603 4134 
L 603 4863 
z
" transform="scale(0.015625)"/>
       </defs>
       <use xlink:href="#DejaVuSans-53"/>
       <use xlink:href="#DejaVuSans-65" x="63.476562"/>
       <use xlink:href="#DejaVuSans-61" x="125"/>
       <use xlink:href="#DejaVuSans-6e" x="186.279297"/>
       <use xlink:href="#DejaVuSans-20" x="249.658203"/>
       <use xlink:href="#DejaVuSans-41" x="281.445312"/>
       <use xlink:href="#DejaVuSans-73" x="349.853516"/>
       <use xlink:href="#DejaVuSans-74" x="401.953125"/>
       <use xlink:href="#DejaVuSans-69" x="441.162109"/>
       <use xlink:href="#DejaVuSans-6e" x="468.945312"/>
      </g>
     </g>
    </g>
    <g id="xtick_3">
     <g id="line2d_3">
      <g>
       <use xlink:href="#m5d528fcfb7" x="246.545" y="253.28" style="stroke: #000000; stroke-width: 0.8"/>
      </g>
     </g>
     <g id="text_3">
      <!-- Cate Blanchett -->
      <g transform="translate(249.304375 334.576875) rotate(-90) scale(0.1 -0.1)">
       <defs>
        <path id="DejaVuSans-43" d="M 4122 4306 
L 4122 3641 
Q 3803 3938 3442 4084 
Q 3081 4231 2675 4231 
Q 1875 4231 1450 3742 
Q 1025 3253 1025 2328 
Q 1025 1406 1450 917 
Q 1875 428 2675 428 
Q 3081 428 3442 575 
Q 3803 722 4122 1019 
L 4122 359 
Q 3791 134 3420 21 
Q 3050 -91 2638 -91 
Q 1578 -91 968 557 
Q 359 1206 359 2328 
Q 359 3453 968 4101 
Q 1578 4750 2638 4750 
Q 3056 4750 3426 4639 
Q 3797 4528 4122 4306 
z
" transform="scale(0.015625)"/>
        <path id="DejaVuSans-6c" d="M 603 4863 
L 1178 4863 
L 1178 0 
L 603 0 
L 603 4863 
z
" transform="scale(0.015625)"/>
        <path id="DejaVuSans-63" d="M 3122 3366 
L 3122 2828 
Q 2878 2963 2633 3030 
Q 2388 3097 2138 3097 
Q 1578 3097 1268 2742 
Q 959 2388 959 1747 
Q 959 1106 1268 751 
Q 1578 397 2138 397 
Q 2388 397 2633 464 
Q 2878 531 3122 666 
L 3122 134 
Q 2881 22 2623 -34 
Q 2366 -91 2075 -91 
Q 1284 -91 818 406 
Q 353 903 353 1747 
Q 353 2603 823 3093 
Q 1294 3584 2113 3584 
Q 2378 3584 2631 3529 
Q 2884 3475 3122 3366 
z
" transform="scale(0.015625)"/>
        <path id="DejaVuSans-68" d="M 3513 2113 
L 3513 0 
L 2938 0 
L 2938 2094 
Q 2938 2591 2744 2837 
Q 2550 3084 2163 3084 
Q 1697 3084 1428 2787 
Q 1159 2491 1159 1978 
L 1159 0 
L 581 0 
L 581 4863 
L 1159 4863 
L 1159 2956 
Q 1366 3272 1645 3428 
Q 1925 3584 2291 3584 
Q 2894 3584 3203 3211 
Q 3513 2838 3513 2113 
z
" transform="scale(0.015625)"/>
       </defs>
       <use xlink:href="#DejaVuSans-43"/>
       <use xlink:href="#DejaVuSans-61" x="69.824219"/>
       <use xlink:href="#DejaVuSans-74" x="131.103516"/>
       <use xlink:href="#DejaVuSans-65" x="170.3125"/>
       <use xlink:href="#DejaVuSans-20" x="231.835938"/>
       <use xlink:href="#DejaVuSans-42" x="263.623047"/>
       <use xlink:href="#DejaVuSans-6c" x="332.226562"/>
       <use xlink:href="#DejaVuSans-61" x="360.009766"/>
       <use xlink:href="#DejaVuSans-6e" x="421.289062"/>
       <use xlink:href="#DejaVuSans-63" x="484.667969"/>
       <use xlink:href="#DejaVuSans-68" x="539.648438"/>
       <use xlink:href="#DejaVuSans-65" x="603.027344"/>
       <use xlink:href="#DejaVuSans-74" x="664.550781"/>
       <use xlink:href="#DejaVuSans-74" x="703.759766"/>
      </g>
     </g>
    </g>
    <g id="xtick_4">
     <g id="line2d_4">
      <g>
       <use xlink:href="#m5d528fcfb7" x="327.927" y="253.28" style="stroke: #000000; stroke-width: 0.8"/>
      </g>
     </g>
     <g id="text_4">
      <!-- Brad Dourif -->
      <g transform="translate(330.686375 317.472187) rotate(-90) scale(0.1 -0.1)">
       <defs>
        <path id="DejaVuSans-72" d="M 2631 2963 
Q 2534 3019 2420 3045 
Q 2306 3072 2169 3072 
Q 1681 3072 1420 2755 
Q 1159 2438 1159 1844 
L 1159 0 
L 581 0 
L 581 3500 
L 1159 3500 
L 1159 2956 
Q 1341 3275 1631 3429 
Q 1922 3584 2338 3584 
Q 2397 3584 2469 3576 
Q 2541 3569 2628 3553 
L 2631 2963 
z
" transform="scale(0.015625)"/>
        <path id="DejaVuSans-64" d="M 2906 2969 
L 2906 4863 
L 3481 4863 
L 3481 0 
L 2906 0 
L 2906 525 
Q 2725 213 2448 61 
Q 2172 -91 1784 -91 
Q 1150 -91 751 415 
Q 353 922 353 1747 
Q 353 2572 751 3078 
Q 1150 3584 1784 3584 
Q 2172 3584 2448 3432 
Q 2725 3281 2906 2969 
z
M 947 1747 
Q 947 1113 1208 752 
Q 1469 391 1925 391 
Q 2381 391 2643 752 
Q 2906 1113 2906 1747 
Q 2906 2381 2643 2742 
Q 2381 3103 1925 3103 
Q 1469 3103 1208 2742 
Q 947 2381 947 1747 
z
" transform="scale(0.015625)"/>
        <path id="DejaVuSans-44" d="M 1259 4147 
L 1259 519 
L 2022 519 
Q 2988 519 3436 956 
Q 3884 1394 3884 2338 
Q 3884 3275 3436 3711 
Q 2988 4147 2022 4147 
L 1259 4147 
z
M 628 4666 
L 1925 4666 
Q 3281 4666 3915 4102 
Q 4550 3538 4550 2338 
Q 4550 1131 3912 565 
Q 3275 0 1925 0 
L 628 0 
L 628 4666 
z
" transform="scale(0.015625)"/>
        <path id="DejaVuSans-6f" d="M 1959 3097 
Q 1497 3097 1228 2736 
Q 959 2375 959 1747 
Q 959 1119 1226 758 
Q 1494 397 1959 397 
Q 2419 397 2687 759 
Q 2956 1122 2956 1747 
Q 2956 2369 2687 2733 
Q 2419 3097 1959 3097 
z
M 1959 3584 
Q 2709 3584 3137 3096 
Q 3566 2609 3566 1747 
Q 3566 888 3137 398 
Q 2709 -91 1959 -91 
Q 1206 -91 779 398 
Q 353 888 353 1747 
Q 353 2609 779 3096 
Q 1206 3584 1959 3584 
z
" transform="scale(0.015625)"/>
        <path id="DejaVuSans-75" d="M 544 1381 
L 544 3500 
L 1119 3500 
L 1119 1403 
Q 1119 906 1312 657 
Q 1506 409 1894 409 
Q 2359 409 2629 706 
Q 2900 1003 2900 1516 
L 2900 3500 
L 3475 3500 
L 3475 0 
L 2900 0 
L 2900 538 
Q 2691 219 2414 64 
Q 2138 -91 1772 -91 
Q 1169 -91 856 284 
Q 544 659 544 1381 
z
M 1991 3584 
L 1991 3584 
z
" transform="scale(0.015625)"/>
        <path id="DejaVuSans-66" d="M 2375 4863 
L 2375 4384 
L 1825 4384 
Q 1516 4384 1395 4259 
Q 1275 4134 1275 3809 
L 1275 3500 
L 2222 3500 
L 2222 3053 
L 1275 3053 
L 1275 0 
L 697 0 
L 697 3053 
L 147 3053 
L 147 3500 
L 697 3500 
L 697 3744 
Q 697 4328 969 4595 
Q 1241 4863 1831 4863 
L 2375 4863 
z
" transform="scale(0.015625)"/>
       </defs>
       <use xlink:href="#DejaVuSans-42"/>
       <use xlink:href="#DejaVuSans-72" x="68.603516"/>
       <use xlink:href="#DejaVuSans-61" x="109.716797"/>
       <use xlink:href="#DejaVuSans-64" x="170.996094"/>
       <use xlink:href="#DejaVuSans-20" x="234.472656"/>
       <use xlink:href="#DejaVuSans-44" x="266.259766"/>
       <use xlink:href="#DejaVuSans-6f" x="343.261719"/>
       <use xlink:href="#DejaVuSans-75" x="404.443359"/>
       <use xlink:href="#DejaVuSans-72" x="467.822266"/>
       <use xlink:href="#DejaVuSans-69" x="508.935547"/>
       <use xlink:href="#DejaVuSans-66" x="536.71875"/>
      </g>
     </g>
    </g>
    <g id="xtick_5">
     <g id="line2d_5">
      <g>
       <use xlink:href="#m5d528fcfb7" x="409.309" y="253.28" style="stroke: #000000; stroke-width: 0.8"/>
      </g>
     </g>
     <g id="text_5">
      <!-- Ian McKellen -->
      <g transform="translate(412.068375 323.258125) rotate(-90) scale(0.1 -0.1)">
       <defs>
        <path id="DejaVuSans-49" d="M 628 4666 
L 1259 4666 
L 1259 0 
L 628 0 
L 628 4666 
z
" transform="scale(0.015625)"/>
        <path id="DejaVuSans-4d" d="M 628 4666 
L 1569 4666 
L 2759 1491 
L 3956 4666 
L 4897 4666 
L 4897 0 
L 4281 0 
L 4281 4097 
L 3078 897 
L 2444 897 
L 1241 4097 
L 1241 0 
L 628 0 
L 628 4666 
z
" transform="scale(0.015625)"/>
        <path id="DejaVuSans-4b" d="M 628 4666 
L 1259 4666 
L 1259 2694 
L 3353 4666 
L 4166 4666 
L 1850 2491 
L 4331 0 
L 3500 0 
L 1259 2247 
L 1259 0 
L 628 0 
L 628 4666 
z
" transform="scale(0.015625)"/>
       </defs>
       <use xlink:href="#DejaVuSans-49"/>
       <use xlink:href="#DejaVuSans-61" x="29.492188"/>
       <use xlink:href="#DejaVuSans-6e" x="90.771484"/>
       <use xlink:href="#DejaVuSans-20" x="154.150391"/>
       <use xlink:href="#DejaVuSans-4d" x="185.9375"/>
       <use xlink:href="#DejaVuSans-63" x="272.216797"/>
       <use xlink:href="#DejaVuSans-4b" x="327.197266"/>
       <use xlink:href="#DejaVuSans-65" x="387.773438"/>
       <use xlink:href="#DejaVuSans-6c" x="449.296875"/>
       <use xlink:href="#DejaVuSans-6c" x="477.080078"/>
       <use xlink:href="#DejaVuSans-65" x="504.863281"/>
       <use xlink:href="#DejaVuSans-6e" x="566.386719"/>
      </g>
     </g>
    </g>
   </g>
   <g id="matplotlib.axis_2">
    <g id="ytick_1">
     <g id="line2d_6">
      <defs>
       <path id="m4ae53ab8c9" d="M 0 0 
L -3.5 0 
" style="stroke: #000000; stroke-width: 0.8"/>
      </defs>
      <g>
       <use xlink:href="#m4ae53ab8c9" x="43.09" y="253.28" style="stroke: #000000; stroke-width: 0.8"/>
      </g>
     </g>
     <g id="text_6">
      <!-- 0 -->
      <g transform="translate(29.7275 257.079219) scale(0.1 -0.1)">
       <defs>
        <path id="DejaVuSans-30" d="M 2034 4250 
Q 1547 4250 1301 3770 
Q 1056 3291 1056 2328 
Q 1056 1369 1301 889 
Q 1547 409 2034 409 
Q 2525 409 2770 889 
Q 3016 1369 3016 2328 
Q 3016 3291 2770 3770 
Q 2525 4250 2034 4250 
z
M 2034 4750 
Q 2819 4750 3233 4129 
Q 3647 3509 3647 2328 
Q 3647 1150 3233 529 
Q 2819 -91 2034 -91 
Q 1250 -91 836 529 
Q 422 1150 422 2328 
Q 422 3509 836 4129 
Q 1250 4750 2034 4750 
z
" transform="scale(0.015625)"/>
       </defs>
       <use xlink:href="#DejaVuSans-30"/>
      </g>
     </g>
    </g>
    <g id="ytick_2">
     <g id="line2d_7">
      <g>
       <use xlink:href="#m4ae53ab8c9" x="43.09" y="218.561202" style="stroke: #000000; stroke-width: 0.8"/>
      </g>
     </g>
     <g id="text_7">
      <!-- 500 -->
      <g transform="translate(17.0025 222.360421) scale(0.1 -0.1)">
       <defs>
        <path id="DejaVuSans-35" d="M 691 4666 
L 3169 4666 
L 3169 4134 
L 1269 4134 
L 1269 2991 
Q 1406 3038 1543 3061 
Q 1681 3084 1819 3084 
Q 2600 3084 3056 2656 
Q 3513 2228 3513 1497 
Q 3513 744 3044 326 
Q 2575 -91 1722 -91 
Q 1428 -91 1123 -41 
Q 819 9 494 109 
L 494 744 
Q 775 591 1075 516 
Q 1375 441 1709 441 
Q 2250 441 2565 725 
Q 2881 1009 2881 1497 
Q 2881 1984 2565 2268 
Q 2250 2553 1709 2553 
Q 1456 2553 1204 2497 
Q 953 2441 691 2322 
L 691 4666 
z
" transform="scale(0.015625)"/>
       </defs>
       <use xlink:href="#DejaVuSans-35"/>
       <use xlink:href="#DejaVuSans-30" x="63.623047"/>
       <use xlink:href="#DejaVuSans-30" x="127.246094"/>
      </g>
     </g>
    </g>
    <g id="ytick_3">
     <g id="line2d_8">
      <g>
       <use xlink:href="#m4ae53ab8c9" x="43.09" y="183.842404" style="stroke: #000000; stroke-width: 0.8"/>
      </g>
     </g>
     <g id="text_8">
      <!-- 1000 -->
      <g transform="translate(10.64 187.641623) scale(0.1 -0.1)">
       <defs>
        <path id="DejaVuSans-31" d="M 794 531 
L 1825 531 
L 1825 4091 
L 703 3866 
L 703 4441 
L 1819 4666 
L 2450 4666 
L 2450 531 
L 3481 531 
L 3481 0 
L 794 0 
L 794 531 
z
" transform="scale(0.015625)"/>
       </defs>
       <use xlink:href="#DejaVuSans-31"/>
       <use xlink:href="#DejaVuSans-30" x="63.623047"/>
       <use xlink:href="#DejaVuSans-30" x="127.246094"/>
       <use xlink:href="#DejaVuSans-30" x="190.869141"/>
      </g>
     </g>
    </g>
    <g id="ytick_4">
     <g id="line2d_9">
      <g>
       <use xlink:href="#m4ae53ab8c9" x="43.09" y="149.123607" style="stroke: #000000; stroke-width: 0.8"/>
      </g>
     </g>
     <g id="text_9">
      <!-- 1500 -->
      <g transform="translate(10.64 152.922825) scale(0.1 -0.1)">
       <use xlink:href="#DejaVuSans-31"/>
       <use xlink:href="#DejaVuSans-35" x="63.623047"/>
       <use xlink:href="#DejaVuSans-30" x="127.246094"/>
       <use xlink:href="#DejaVuSans-30" x="190.869141"/>
      </g>
     </g>
    </g>
    <g id="ytick_5">
     <g id="line2d_10">
      <g>
       <use xlink:href="#m4ae53ab8c9" x="43.09" y="114.404809" style="stroke: #000000; stroke-width: 0.8"/>
      </g>
     </g>
     <g id="text_10">
      <!-- 2000 -->
      <g transform="translate(10.64 118.204028) scale(0.1 -0.1)">
       <defs>
        <path id="DejaVuSans-32" d="M 1228 531 
L 3431 531 
L 3431 0 
L 469 0 
L 469 531 
Q 828 903 1448 1529 
Q 2069 2156 2228 2338 
Q 2531 2678 2651 2914 
Q 2772 3150 2772 3378 
Q 2772 3750 2511 3984 
Q 2250 4219 1831 4219 
Q 1534 4219 1204 4116 
Q 875 4013 500 3803 
L 500 4441 
Q 881 4594 1212 4672 
Q 1544 4750 1819 4750 
Q 2544 4750 2975 4387 
Q 3406 4025 3406 3419 
Q 3406 3131 3298 2873 
Q 3191 2616 2906 2266 
Q 2828 2175 2409 1742 
Q 1991 1309 1228 531 
z
" transform="scale(0.015625)"/>
       </defs>
       <use xlink:href="#DejaVuSans-32"/>
       <use xlink:href="#DejaVuSans-30" x="63.623047"/>
       <use xlink:href="#DejaVuSans-30" x="127.246094"/>
       <use xlink:href="#DejaVuSans-30" x="190.869141"/>
      </g>
     </g>
    </g>
    <g id="ytick_6">
     <g id="line2d_11">
      <g>
       <use xlink:href="#m4ae53ab8c9" x="43.09" y="79.686011" style="stroke: #000000; stroke-width: 0.8"/>
      </g>
     </g>
     <g id="text_11">
      <!-- 2500 -->
      <g transform="translate(10.64 83.48523) scale(0.1 -0.1)">
       <use xlink:href="#DejaVuSans-32"/>
       <use xlink:href="#DejaVuSans-35" x="63.623047"/>
       <use xlink:href="#DejaVuSans-30" x="127.246094"/>
       <use xlink:href="#DejaVuSans-30" x="190.869141"/>
      </g>
     </g>
    </g>
    <g id="ytick_7">
     <g id="line2d_12">
      <g>
       <use xlink:href="#m4ae53ab8c9" x="43.09" y="44.967213" style="stroke: #000000; stroke-width: 0.8"/>
      </g>
     </g>
     <g id="text_12">
      <!-- 3000 -->
      <g transform="translate(10.64 48.766432) scale(0.1 -0.1)">
       <defs>
        <path id="DejaVuSans-33" d="M 2597 2516 
Q 3050 2419 3304 2112 
Q 3559 1806 3559 1356 
Q 3559 666 3084 287 
Q 2609 -91 1734 -91 
Q 1441 -91 1130 -33 
Q 819 25 488 141 
L 488 750 
Q 750 597 1062 519 
Q 1375 441 1716 441 
Q 2309 441 2620 675 
Q 2931 909 2931 1356 
Q 2931 1769 2642 2001 
Q 2353 2234 1838 2234 
L 1294 2234 
L 1294 2753 
L 1863 2753 
Q 2328 2753 2575 2939 
Q 2822 3125 2822 3475 
Q 2822 3834 2567 4026 
Q 2313 4219 1838 4219 
Q 1578 4219 1281 4162 
Q 984 4106 628 3988 
L 628 4550 
Q 988 4650 1302 4700 
Q 1616 4750 1894 4750 
Q 2613 4750 3031 4423 
Q 3450 4097 3450 3541 
Q 3450 3153 3228 2886 
Q 3006 2619 2597 2516 
z
" transform="scale(0.015625)"/>
       </defs>
       <use xlink:href="#DejaVuSans-33"/>
       <use xlink:href="#DejaVuSans-30" x="63.623047"/>
       <use xlink:href="#DejaVuSans-30" x="127.246094"/>
       <use xlink:href="#DejaVuSans-30" x="190.869141"/>
      </g>
     </g>
    </g>
   </g>
   <g id="patch_276">
    <path d="M 43.09 253.28 
L 43.09 10.8 
" style="fill: none; stroke: #000000; stroke-width: 0.8; stroke-linejoin: miter; stroke-linecap: square"/>
   </g>
   <g id="patch_277">
    <path d="M 450 253.28 
L 450 10.8 
" style="fill: none; stroke: #000000; stroke-width: 0.8; stroke-linejoin: miter; stroke-linecap: square"/>
   </g>
   <g id="patch_278">
    <path d="M 43.09 253.28 
L 450 253.28 
" style="fill: none; stroke: #000000; stroke-width: 0.8; stroke-linejoin: miter; stroke-linecap: square"/>
   </g>
   <g id="patch_279">
    <path d="M 43.09 10.8 
L 450 10.8 
" style="fill: none; stroke: #000000; stroke-width: 0.8; stroke-linejoin: miter; stroke-linecap: square"/>
   </g>
  </g>
 </g>
 <defs>
  <clipPath id="pd02c25c86e">
   <rect x="43.09" y="10.8" width="406.91" height="242.48"/>
  </clipPath>
 </defs>
</svg>
