<?xml version="1.0" encoding="utf-8" standalone="no"?>
<!DOCTYPE svg PUBLIC "-//W3C//DTD SVG 1.1//EN"
  "http://www.w3.org/Graphics/SVG/1.1/DTD/svg11.dtd">
<svg xmlns:xlink="http://www.w3.org/1999/xlink" width="460.8pt" height="345.6pt" viewBox="0 0 460.8 345.6" xmlns="http://www.w3.org/2000/svg" version="1.1">
 <metadata>
  <rdf:RDF xmlns:dc="http://purl.org/dc/elements/1.1/" xmlns:cc="http://creativecommons.org/ns#" xmlns:rdf="http://www.w3.org/1999/02/22-rdf-syntax-ns#">
   <cc:Work>
    <dc:type rdf:resource="http://purl.org/dc/dcmitype/StillImage"/>
    <dc:date>2022-12-20T12:31:07.022372</dc:date>
    <dc:format>image/svg+xml</dc:format>
    <dc:creator>
     <cc:Agent>
      <dc:title>Matplotlib v3.6.0, https://matplotlib.org/</dc:title>
     </cc:Agent>
    </dc:creator>
   </cc:Work>
  </rdf:RDF>
 </metadata>
 <defs>
  <style type="text/css">*{stroke-linejoin: round; stroke-linecap: butt}</style>
 </defs>
 <g id="figure_1">
  <g id="patch_1">
   <path d="M 0 345.6 
L 460.8 345.6 
L 460.8 0 
L 0 0 
z
" style="fill: #ffffff"/>
  </g>
  <g id="axes_1">
   <g id="patch_2">
    <path d="M 43.09 222.41 
L 450 222.41 
L 450 10.8 
L 43.09 10.8 
z
" style="fill: #ffffff"/>
   </g>
   <g id="patch_3">
    <path d="M 63.4355 222.41 
L 104.1265 222.41 
L 104.1265 154.276604 
L 63.4355 154.276604 
z
" clip-path="url(#p8258b41050)" style="fill: #1f77b4"/>
   </g>
   <g id="patch_4">
    <path d="M 144.8175 222.41 
L 185.5085 222.41 
L 185.5085 170.301511 
L 144.8175 170.301511 
z
" clip-path="url(#p8258b41050)" style="fill: #1f77b4"/>
   </g>
   <g id="patch_5">
    <path d="M 226.1995 222.41 
L 266.8905 222.41 
L 266.8905 165.534316 
L 226.1995 165.534316 
z
" clip-path="url(#p8258b41050)" style="fill: #1f77b4"/>
   </g>
   <g id="patch_6">
    <path d="M 307.5815 222.41 
L 348.2725 222.41 
L 348.2725 176.008973 
L 307.5815 176.008973 
z
" clip-path="url(#p8258b41050)" style="fill: #1f77b4"/>
   </g>
   <g id="patch_7">
    <path d="M 388.9635 222.41 
L 429.6545 222.41 
L 429.6545 194.493195 
L 388.9635 194.493195 
z
" clip-path="url(#p8258b41050)" style="fill: #1f77b4"/>
   </g>
   <g id="patch_8">
    <path d="M 63.4355 222.41 
L 104.1265 222.41 
L 104.1265 222.228207 
L 63.4355 222.228207 
z
" clip-path="url(#p8258b41050)" style="fill: #1f77b4"/>
   </g>
   <g id="patch_9">
    <path d="M 144.8175 222.41 
L 185.5085 222.41 
L 185.5085 222.349402 
L 144.8175 222.349402 
z
" clip-path="url(#p8258b41050)" style="fill: #1f77b4"/>
   </g>
   <g id="patch_10">
    <path d="M 226.1995 222.41 
L 266.8905 222.41 
L 266.8905 222.41 
L 226.1995 222.41 
z
" clip-path="url(#p8258b41050)" style="fill: #1f77b4"/>
   </g>
   <g id="patch_11">
    <path d="M 63.4355 222.41 
L 104.1265 222.41 
L 104.1265 222.389801 
L 63.4355 222.389801 
z
" clip-path="url(#p8258b41050)" style="fill: #1f77b4"/>
   </g>
   <g id="patch_12">
    <path d="M 144.8175 222.41 
L 185.5085 222.41 
L 185.5085 222.389801 
L 144.8175 222.389801 
z
" clip-path="url(#p8258b41050)" style="fill: #1f77b4"/>
   </g>
   <g id="patch_13">
    <path d="M 226.1995 222.41 
L 266.8905 222.41 
L 266.8905 222.389801 
L 226.1995 222.389801 
z
" clip-path="url(#p8258b41050)" style="fill: #1f77b4"/>
   </g>
   <g id="patch_14">
    <path d="M 307.5815 222.41 
L 348.2725 222.41 
L 348.2725 222.349402 
L 307.5815 222.349402 
z
" clip-path="url(#p8258b41050)" style="fill: #1f77b4"/>
   </g>
   <g id="patch_15">
    <path d="M 388.9635 222.41 
L 429.6545 222.41 
L 429.6545 222.41 
L 388.9635 222.41 
z
" clip-path="url(#p8258b41050)" style="fill: #1f77b4"/>
   </g>
   <g id="patch_16">
    <path d="M 63.4355 222.41 
L 104.1265 222.41 
L 104.1265 211.017664 
L 63.4355 211.017664 
z
" clip-path="url(#p8258b41050)" style="fill: #1f77b4"/>
   </g>
   <g id="patch_17">
    <path d="M 144.8175 222.41 
L 185.5085 222.41 
L 185.5085 219.198331 
L 144.8175 219.198331 
z
" clip-path="url(#p8258b41050)" style="fill: #1f77b4"/>
   </g>
   <g id="patch_18">
    <path d="M 226.1995 222.41 
L 266.8905 222.41 
L 266.8905 219.774007 
L 226.1995 219.774007 
z
" clip-path="url(#p8258b41050)" style="fill: #1f77b4"/>
   </g>
   <g id="patch_19">
    <path d="M 307.5815 222.41 
L 348.2725 222.41 
L 348.2725 211.320652 
L 307.5815 211.320652 
z
" clip-path="url(#p8258b41050)" style="fill: #1f77b4"/>
   </g>
   <g id="patch_20">
    <path d="M 388.9635 222.41 
L 429.6545 222.41 
L 429.6545 220.985958 
L 388.9635 220.985958 
z
" clip-path="url(#p8258b41050)" style="fill: #1f77b4"/>
   </g>
   <g id="patch_21">
    <path d="M 63.4355 222.41 
L 104.1265 222.41 
L 104.1265 222.349402 
L 63.4355 222.349402 
z
" clip-path="url(#p8258b41050)" style="fill: #1f77b4"/>
   </g>
   <g id="patch_22">
    <path d="M 144.8175 222.41 
L 185.5085 222.41 
L 185.5085 222.41 
L 144.8175 222.41 
z
" clip-path="url(#p8258b41050)" style="fill: #1f77b4"/>
   </g>
   <g id="patch_23">
    <path d="M 226.1995 222.41 
L 266.8905 222.41 
L 266.8905 222.41 
L 226.1995 222.41 
z
" clip-path="url(#p8258b41050)" style="fill: #1f77b4"/>
   </g>
   <g id="patch_24">
    <path d="M 307.5815 222.41 
L 348.2725 222.41 
L 348.2725 222.41 
L 307.5815 222.41 
z
" clip-path="url(#p8258b41050)" style="fill: #1f77b4"/>
   </g>
   <g id="patch_25">
    <path d="M 63.4355 222.41 
L 104.1265 222.41 
L 104.1265 220.773867 
L 63.4355 220.773867 
z
" clip-path="url(#p8258b41050)" style="fill: #1f77b4"/>
   </g>
   <g id="patch_26">
    <path d="M 144.8175 222.41 
L 185.5085 222.41 
L 185.5085 222.228207 
L 144.8175 222.228207 
z
" clip-path="url(#p8258b41050)" style="fill: #1f77b4"/>
   </g>
   <g id="patch_27">
    <path d="M 226.1995 222.41 
L 266.8905 222.41 
L 266.8905 222.349402 
L 226.1995 222.349402 
z
" clip-path="url(#p8258b41050)" style="fill: #1f77b4"/>
   </g>
   <g id="patch_28">
    <path d="M 307.5815 222.41 
L 348.2725 222.41 
L 348.2725 222.349402 
L 307.5815 222.349402 
z
" clip-path="url(#p8258b41050)" style="fill: #1f77b4"/>
   </g>
   <g id="patch_29">
    <path d="M 388.9635 222.41 
L 429.6545 222.41 
L 429.6545 221.985817 
L 388.9635 221.985817 
z
" clip-path="url(#p8258b41050)" style="fill: #1f77b4"/>
   </g>
   <g id="patch_30">
    <path d="M 63.4355 222.41 
L 104.1265 222.41 
L 104.1265 222.288805 
L 63.4355 222.288805 
z
" clip-path="url(#p8258b41050)" style="fill: #1f77b4"/>
   </g>
   <g id="patch_31">
    <path d="M 144.8175 222.41 
L 185.5085 222.41 
L 185.5085 222.288805 
L 144.8175 222.288805 
z
" clip-path="url(#p8258b41050)" style="fill: #1f77b4"/>
   </g>
   <g id="patch_32">
    <path d="M 226.1995 222.41 
L 266.8905 222.41 
L 266.8905 222.288805 
L 226.1995 222.288805 
z
" clip-path="url(#p8258b41050)" style="fill: #1f77b4"/>
   </g>
   <g id="patch_33">
    <path d="M 307.5815 222.41 
L 348.2725 222.41 
L 348.2725 222.288805 
L 307.5815 222.288805 
z
" clip-path="url(#p8258b41050)" style="fill: #1f77b4"/>
   </g>
   <g id="patch_34">
    <path d="M 388.9635 222.41 
L 429.6545 222.41 
L 429.6545 222.288805 
L 388.9635 222.288805 
z
" clip-path="url(#p8258b41050)" style="fill: #1f77b4"/>
   </g>
   <g id="patch_35">
    <path d="M 63.4355 222.41 
L 104.1265 222.41 
L 104.1265 222.228207 
L 63.4355 222.228207 
z
" clip-path="url(#p8258b41050)" style="fill: #1f77b4"/>
   </g>
   <g id="patch_36">
    <path d="M 144.8175 222.41 
L 185.5085 222.41 
L 185.5085 222.258506 
L 144.8175 222.258506 
z
" clip-path="url(#p8258b41050)" style="fill: #1f77b4"/>
   </g>
   <g id="patch_37">
    <path d="M 226.1995 222.41 
L 266.8905 222.41 
L 266.8905 222.349402 
L 226.1995 222.349402 
z
" clip-path="url(#p8258b41050)" style="fill: #1f77b4"/>
   </g>
   <g id="patch_38">
    <path d="M 307.5815 222.41 
L 348.2725 222.41 
L 348.2725 222.379701 
L 307.5815 222.379701 
z
" clip-path="url(#p8258b41050)" style="fill: #1f77b4"/>
   </g>
   <g id="patch_39">
    <path d="M 388.9635 222.41 
L 429.6545 222.41 
L 429.6545 222.379701 
L 388.9635 222.379701 
z
" clip-path="url(#p8258b41050)" style="fill: #1f77b4"/>
   </g>
   <g id="patch_40">
    <path d="M 63.4355 222.41 
L 104.1265 222.41 
L 104.1265 222.228207 
L 63.4355 222.228207 
z
" clip-path="url(#p8258b41050)" style="fill: #1f77b4"/>
   </g>
   <g id="patch_41">
    <path d="M 144.8175 222.41 
L 185.5085 222.41 
L 185.5085 222.41 
L 144.8175 222.41 
z
" clip-path="url(#p8258b41050)" style="fill: #1f77b4"/>
   </g>
   <g id="patch_42">
    <path d="M 226.1995 222.41 
L 266.8905 222.41 
L 266.8905 222.41 
L 226.1995 222.41 
z
" clip-path="url(#p8258b41050)" style="fill: #1f77b4"/>
   </g>
   <g id="patch_43">
    <path d="M 63.4355 222.41 
L 104.1265 222.41 
L 104.1265 222.228207 
L 63.4355 222.228207 
z
" clip-path="url(#p8258b41050)" style="fill: #1f77b4"/>
   </g>
   <g id="patch_44">
    <path d="M 144.8175 222.41 
L 185.5085 222.41 
L 185.5085 222.349402 
L 144.8175 222.349402 
z
" clip-path="url(#p8258b41050)" style="fill: #1f77b4"/>
   </g>
   <g id="patch_45">
    <path d="M 63.4355 222.41 
L 104.1265 222.41 
L 104.1265 155.594005 
L 63.4355 155.594005 
z
" clip-path="url(#p8258b41050)" style="fill: #1f77b4"/>
   </g>
   <g id="patch_46">
    <path d="M 144.8175 222.41 
L 185.5085 222.41 
L 185.5085 174.400239 
L 144.8175 174.400239 
z
" clip-path="url(#p8258b41050)" style="fill: #1f77b4"/>
   </g>
   <g id="patch_47">
    <path d="M 226.1995 222.41 
L 266.8905 222.41 
L 266.8905 180.681561 
L 226.1995 180.681561 
z
" clip-path="url(#p8258b41050)" style="fill: #1f77b4"/>
   </g>
   <g id="patch_48">
    <path d="M 307.5815 222.41 
L 348.2725 222.41 
L 348.2725 174.566995 
L 307.5815 174.566995 
z
" clip-path="url(#p8258b41050)" style="fill: #1f77b4"/>
   </g>
   <g id="patch_49">
    <path d="M 388.9635 222.41 
L 429.6545 222.41 
L 429.6545 187.221944 
L 388.9635 187.221944 
z
" clip-path="url(#p8258b41050)" style="fill: #1f77b4"/>
   </g>
   <g id="patch_50">
    <path d="M 63.4355 222.41 
L 104.1265 222.41 
L 104.1265 222.41 
L 63.4355 222.41 
z
" clip-path="url(#p8258b41050)" style="fill: #1f77b4"/>
   </g>
   <g id="patch_51">
    <path d="M 144.8175 222.41 
L 185.5085 222.41 
L 185.5085 222.41 
L 144.8175 222.41 
z
" clip-path="url(#p8258b41050)" style="fill: #1f77b4"/>
   </g>
   <g id="patch_52">
    <path d="M 226.1995 222.41 
L 266.8905 222.41 
L 266.8905 222.41 
L 226.1995 222.41 
z
" clip-path="url(#p8258b41050)" style="fill: #1f77b4"/>
   </g>
   <g id="patch_53">
    <path d="M 307.5815 222.41 
L 348.2725 222.41 
L 348.2725 222.41 
L 307.5815 222.41 
z
" clip-path="url(#p8258b41050)" style="fill: #1f77b4"/>
   </g>
   <g id="patch_54">
    <path d="M 388.9635 222.41 
L 429.6545 222.41 
L 429.6545 222.41 
L 388.9635 222.41 
z
" clip-path="url(#p8258b41050)" style="fill: #1f77b4"/>
   </g>
   <g id="patch_55">
    <path d="M 63.4355 222.41 
L 104.1265 222.41 
L 104.1265 222.349402 
L 63.4355 222.349402 
z
" clip-path="url(#p8258b41050)" style="fill: #1f77b4"/>
   </g>
   <g id="patch_56">
    <path d="M 144.8175 222.41 
L 185.5085 222.41 
L 185.5085 222.41 
L 144.8175 222.41 
z
" clip-path="url(#p8258b41050)" style="fill: #1f77b4"/>
   </g>
   <g id="patch_57">
    <path d="M 226.1995 222.41 
L 266.8905 222.41 
L 266.8905 222.41 
L 226.1995 222.41 
z
" clip-path="url(#p8258b41050)" style="fill: #1f77b4"/>
   </g>
   <g id="patch_58">
    <path d="M 307.5815 222.41 
L 348.2725 222.41 
L 348.2725 222.41 
L 307.5815 222.41 
z
" clip-path="url(#p8258b41050)" style="fill: #1f77b4"/>
   </g>
   <g id="patch_59">
    <path d="M 388.9635 222.41 
L 429.6545 222.41 
L 429.6545 222.41 
L 388.9635 222.41 
z
" clip-path="url(#p8258b41050)" style="fill: #1f77b4"/>
   </g>
   <g id="patch_60">
    <path d="M 63.4355 222.41 
L 104.1265 222.41 
L 104.1265 222.076714 
L 63.4355 222.076714 
z
" clip-path="url(#p8258b41050)" style="fill: #1f77b4"/>
   </g>
   <g id="patch_61">
    <path d="M 144.8175 222.41 
L 185.5085 222.41 
L 185.5085 222.228207 
L 144.8175 222.228207 
z
" clip-path="url(#p8258b41050)" style="fill: #1f77b4"/>
   </g>
   <g id="patch_62">
    <path d="M 226.1995 222.41 
L 266.8905 222.41 
L 266.8905 222.379701 
L 226.1995 222.379701 
z
" clip-path="url(#p8258b41050)" style="fill: #1f77b4"/>
   </g>
   <g id="patch_63">
    <path d="M 307.5815 222.41 
L 348.2725 222.41 
L 348.2725 222.41 
L 307.5815 222.41 
z
" clip-path="url(#p8258b41050)" style="fill: #1f77b4"/>
   </g>
   <g id="patch_64">
    <path d="M 388.9635 222.41 
L 429.6545 222.41 
L 429.6545 222.41 
L 388.9635 222.41 
z
" clip-path="url(#p8258b41050)" style="fill: #1f77b4"/>
   </g>
   <g id="patch_65">
    <path d="M 63.4355 222.41 
L 104.1265 222.41 
L 104.1265 215.713973 
L 63.4355 215.713973 
z
" clip-path="url(#p8258b41050)" style="fill: #1f77b4"/>
   </g>
   <g id="patch_66">
    <path d="M 144.8175 222.41 
L 185.5085 222.41 
L 185.5085 221.804025 
L 144.8175 221.804025 
z
" clip-path="url(#p8258b41050)" style="fill: #1f77b4"/>
   </g>
   <g id="patch_67">
    <path d="M 226.1995 222.41 
L 266.8905 222.41 
L 266.8905 218.753949 
L 226.1995 218.753949 
z
" clip-path="url(#p8258b41050)" style="fill: #1f77b4"/>
   </g>
   <g id="patch_68">
    <path d="M 307.5815 222.41 
L 348.2725 222.41 
L 348.2725 217.804588 
L 307.5815 217.804588 
z
" clip-path="url(#p8258b41050)" style="fill: #1f77b4"/>
   </g>
   <g id="patch_69">
    <path d="M 388.9635 222.41 
L 429.6545 222.41 
L 429.6545 218.683252 
L 388.9635 218.683252 
z
" clip-path="url(#p8258b41050)" style="fill: #1f77b4"/>
   </g>
   <g id="patch_70">
    <path d="M 63.4355 222.41 
L 104.1265 222.41 
L 104.1265 202.243773 
L 63.4355 202.243773 
z
" clip-path="url(#p8258b41050)" style="fill: #1f77b4"/>
   </g>
   <g id="patch_71">
    <path d="M 144.8175 222.41 
L 185.5085 222.41 
L 185.5085 205.137643 
L 144.8175 205.137643 
z
" clip-path="url(#p8258b41050)" style="fill: #1f77b4"/>
   </g>
   <g id="patch_72">
    <path d="M 226.1995 222.41 
L 266.8905 222.41 
L 266.8905 180.463822 
L 226.1995 180.463822 
z
" clip-path="url(#p8258b41050)" style="fill: #1f77b4"/>
   </g>
   <g id="patch_73">
    <path d="M 307.5815 222.41 
L 348.2725 222.41 
L 348.2725 197.115582 
L 307.5815 197.115582 
z
" clip-path="url(#p8258b41050)" style="fill: #1f77b4"/>
   </g>
   <g id="patch_74">
    <path d="M 388.9635 222.41 
L 429.6545 222.41 
L 429.6545 180.187648 
L 388.9635 180.187648 
z
" clip-path="url(#p8258b41050)" style="fill: #1f77b4"/>
   </g>
   <g id="patch_75">
    <path d="M 63.4355 222.41 
L 104.1265 222.41 
L 104.1265 222.41 
L 63.4355 222.41 
z
" clip-path="url(#p8258b41050)" style="fill: #1f77b4"/>
   </g>
   <g id="patch_76">
    <path d="M 144.8175 222.41 
L 185.5085 222.41 
L 185.5085 222.41 
L 144.8175 222.41 
z
" clip-path="url(#p8258b41050)" style="fill: #1f77b4"/>
   </g>
   <g id="patch_77">
    <path d="M 63.4355 222.41 
L 104.1265 222.41 
L 104.1265 221.652531 
L 63.4355 221.652531 
z
" clip-path="url(#p8258b41050)" style="fill: #1f77b4"/>
   </g>
   <g id="patch_78">
    <path d="M 144.8175 222.41 
L 185.5085 222.41 
L 185.5085 221.804025 
L 144.8175 221.804025 
z
" clip-path="url(#p8258b41050)" style="fill: #1f77b4"/>
   </g>
   <g id="patch_79">
    <path d="M 226.1995 222.41 
L 266.8905 222.41 
L 266.8905 222.046415 
L 226.1995 222.046415 
z
" clip-path="url(#p8258b41050)" style="fill: #1f77b4"/>
   </g>
   <g id="patch_80">
    <path d="M 307.5815 222.41 
L 348.2725 222.41 
L 348.2725 222.349402 
L 307.5815 222.349402 
z
" clip-path="url(#p8258b41050)" style="fill: #1f77b4"/>
   </g>
   <g id="patch_81">
    <path d="M 388.9635 222.41 
L 429.6545 222.41 
L 429.6545 222.288805 
L 388.9635 222.288805 
z
" clip-path="url(#p8258b41050)" style="fill: #1f77b4"/>
   </g>
   <g id="patch_82">
    <path d="M 63.4355 222.41 
L 104.1265 222.41 
L 104.1265 222.228207 
L 63.4355 222.228207 
z
" clip-path="url(#p8258b41050)" style="fill: #1f77b4"/>
   </g>
   <g id="patch_83">
    <path d="M 144.8175 222.41 
L 185.5085 222.41 
L 185.5085 222.228207 
L 144.8175 222.228207 
z
" clip-path="url(#p8258b41050)" style="fill: #1f77b4"/>
   </g>
   <g id="patch_84">
    <path d="M 226.1995 222.41 
L 266.8905 222.41 
L 266.8905 222.349402 
L 226.1995 222.349402 
z
" clip-path="url(#p8258b41050)" style="fill: #1f77b4"/>
   </g>
   <g id="patch_85">
    <path d="M 307.5815 222.41 
L 348.2725 222.41 
L 348.2725 222.41 
L 307.5815 222.41 
z
" clip-path="url(#p8258b41050)" style="fill: #1f77b4"/>
   </g>
   <g id="patch_86">
    <path d="M 388.9635 222.41 
L 429.6545 222.41 
L 429.6545 222.41 
L 388.9635 222.41 
z
" clip-path="url(#p8258b41050)" style="fill: #1f77b4"/>
   </g>
   <g id="patch_87">
    <path d="M 63.4355 222.41 
L 104.1265 222.41 
L 104.1265 221.137452 
L 63.4355 221.137452 
z
" clip-path="url(#p8258b41050)" style="fill: #1f77b4"/>
   </g>
   <g id="patch_88">
    <path d="M 144.8175 222.41 
L 185.5085 222.41 
L 185.5085 222.379701 
L 144.8175 222.379701 
z
" clip-path="url(#p8258b41050)" style="fill: #1f77b4"/>
   </g>
   <g id="patch_89">
    <path d="M 226.1995 222.41 
L 266.8905 222.41 
L 266.8905 222.379701 
L 226.1995 222.379701 
z
" clip-path="url(#p8258b41050)" style="fill: #1f77b4"/>
   </g>
   <g id="patch_90">
    <path d="M 307.5815 222.41 
L 348.2725 222.41 
L 348.2725 222.379701 
L 307.5815 222.379701 
z
" clip-path="url(#p8258b41050)" style="fill: #1f77b4"/>
   </g>
   <g id="patch_91">
    <path d="M 388.9635 222.41 
L 429.6545 222.41 
L 429.6545 222.379701 
L 388.9635 222.379701 
z
" clip-path="url(#p8258b41050)" style="fill: #1f77b4"/>
   </g>
   <g id="patch_92">
    <path d="M 63.4355 222.41 
L 104.1265 222.41 
L 104.1265 222.41 
L 63.4355 222.41 
z
" clip-path="url(#p8258b41050)" style="fill: #1f77b4"/>
   </g>
   <g id="patch_93">
    <path d="M 63.4355 222.41 
L 104.1265 222.41 
L 104.1265 222.107012 
L 63.4355 222.107012 
z
" clip-path="url(#p8258b41050)" style="fill: #1f77b4"/>
   </g>
   <g id="patch_94">
    <path d="M 144.8175 222.41 
L 185.5085 222.41 
L 185.5085 222.107012 
L 144.8175 222.107012 
z
" clip-path="url(#p8258b41050)" style="fill: #1f77b4"/>
   </g>
   <g id="patch_95">
    <path d="M 226.1995 222.41 
L 266.8905 222.41 
L 266.8905 222.349402 
L 226.1995 222.349402 
z
" clip-path="url(#p8258b41050)" style="fill: #1f77b4"/>
   </g>
   <g id="patch_96">
    <path d="M 63.4355 222.41 
L 104.1265 222.41 
L 104.1265 221.137452 
L 63.4355 221.137452 
z
" clip-path="url(#p8258b41050)" style="fill: #1f77b4"/>
   </g>
   <g id="patch_97">
    <path d="M 144.8175 222.41 
L 185.5085 222.41 
L 185.5085 222.349402 
L 144.8175 222.349402 
z
" clip-path="url(#p8258b41050)" style="fill: #1f77b4"/>
   </g>
   <g id="patch_98">
    <path d="M 226.1995 222.41 
L 266.8905 222.41 
L 266.8905 222.349402 
L 226.1995 222.349402 
z
" clip-path="url(#p8258b41050)" style="fill: #1f77b4"/>
   </g>
   <g id="patch_99">
    <path d="M 307.5815 222.41 
L 348.2725 222.41 
L 348.2725 222.41 
L 307.5815 222.41 
z
" clip-path="url(#p8258b41050)" style="fill: #1f77b4"/>
   </g>
   <g id="patch_100">
    <path d="M 388.9635 222.41 
L 429.6545 222.41 
L 429.6545 222.41 
L 388.9635 222.41 
z
" clip-path="url(#p8258b41050)" style="fill: #1f77b4"/>
   </g>
   <g id="patch_101">
    <path d="M 63.4355 222.41 
L 104.1265 222.41 
L 104.1265 222.41 
L 63.4355 222.41 
z
" clip-path="url(#p8258b41050)" style="fill: #1f77b4"/>
   </g>
   <g id="patch_102">
    <path d="M 63.4355 222.41 
L 104.1265 222.41 
L 104.1265 153.908138 
L 63.4355 153.908138 
z
" clip-path="url(#p8258b41050)" style="fill: #1f77b4"/>
   </g>
   <g id="patch_103">
    <path d="M 144.8175 222.41 
L 185.5085 222.41 
L 185.5085 168.980889 
L 144.8175 168.980889 
z
" clip-path="url(#p8258b41050)" style="fill: #1f77b4"/>
   </g>
   <g id="patch_104">
    <path d="M 226.1995 222.41 
L 266.8905 222.41 
L 266.8905 179.174654 
L 226.1995 179.174654 
z
" clip-path="url(#p8258b41050)" style="fill: #1f77b4"/>
   </g>
   <g id="patch_105">
    <path d="M 307.5815 222.41 
L 348.2725 222.41 
L 348.2725 187.030698 
L 307.5815 187.030698 
z
" clip-path="url(#p8258b41050)" style="fill: #1f77b4"/>
   </g>
   <g id="patch_106">
    <path d="M 388.9635 222.41 
L 429.6545 222.41 
L 429.6545 192.634533 
L 388.9635 192.634533 
z
" clip-path="url(#p8258b41050)" style="fill: #1f77b4"/>
   </g>
   <g id="patch_107">
    <path d="M 63.4355 222.41 
L 104.1265 222.41 
L 104.1265 222.107012 
L 63.4355 222.107012 
z
" clip-path="url(#p8258b41050)" style="fill: #1f77b4"/>
   </g>
   <g id="patch_108">
    <path d="M 144.8175 222.41 
L 185.5085 222.41 
L 185.5085 222.107012 
L 144.8175 222.107012 
z
" clip-path="url(#p8258b41050)" style="fill: #1f77b4"/>
   </g>
   <g id="patch_109">
    <path d="M 226.1995 222.41 
L 266.8905 222.41 
L 266.8905 222.107012 
L 226.1995 222.107012 
z
" clip-path="url(#p8258b41050)" style="fill: #1f77b4"/>
   </g>
   <g id="patch_110">
    <path d="M 307.5815 222.41 
L 348.2725 222.41 
L 348.2725 222.379701 
L 307.5815 222.379701 
z
" clip-path="url(#p8258b41050)" style="fill: #1f77b4"/>
   </g>
   <g id="patch_111">
    <path d="M 388.9635 222.41 
L 429.6545 222.41 
L 429.6545 222.379701 
L 388.9635 222.379701 
z
" clip-path="url(#p8258b41050)" style="fill: #1f77b4"/>
   </g>
   <g id="patch_112">
    <path d="M 63.4355 222.41 
L 104.1265 222.41 
L 104.1265 186.630352 
L 63.4355 186.630352 
z
" clip-path="url(#p8258b41050)" style="fill: #1f77b4"/>
   </g>
   <g id="patch_113">
    <path d="M 144.8175 222.41 
L 185.5085 222.41 
L 185.5085 186.700102 
L 144.8175 186.700102 
z
" clip-path="url(#p8258b41050)" style="fill: #1f77b4"/>
   </g>
   <g id="patch_114">
    <path d="M 226.1995 222.41 
L 266.8905 222.41 
L 266.8905 198.900806 
L 226.1995 198.900806 
z
" clip-path="url(#p8258b41050)" style="fill: #1f77b4"/>
   </g>
   <g id="patch_115">
    <path d="M 307.5815 222.41 
L 348.2725 222.41 
L 348.2725 197.843719 
L 307.5815 197.843719 
z
" clip-path="url(#p8258b41050)" style="fill: #1f77b4"/>
   </g>
   <g id="patch_116">
    <path d="M 388.9635 222.41 
L 429.6545 222.41 
L 429.6545 186.373956 
L 388.9635 186.373956 
z
" clip-path="url(#p8258b41050)" style="fill: #1f77b4"/>
   </g>
   <g id="patch_117">
    <path d="M 63.4355 222.41 
L 104.1265 222.41 
L 104.1265 222.046415 
L 63.4355 222.046415 
z
" clip-path="url(#p8258b41050)" style="fill: #1f77b4"/>
   </g>
   <g id="patch_118">
    <path d="M 144.8175 222.41 
L 185.5085 222.41 
L 185.5085 222.107012 
L 144.8175 222.107012 
z
" clip-path="url(#p8258b41050)" style="fill: #1f77b4"/>
   </g>
   <g id="patch_119">
    <path d="M 226.1995 222.41 
L 266.8905 222.41 
L 266.8905 222.228207 
L 226.1995 222.228207 
z
" clip-path="url(#p8258b41050)" style="fill: #1f77b4"/>
   </g>
   <g id="patch_120">
    <path d="M 307.5815 222.41 
L 348.2725 222.41 
L 348.2725 222.288805 
L 307.5815 222.288805 
z
" clip-path="url(#p8258b41050)" style="fill: #1f77b4"/>
   </g>
   <g id="patch_121">
    <path d="M 388.9635 222.41 
L 429.6545 222.41 
L 429.6545 222.379701 
L 388.9635 222.379701 
z
" clip-path="url(#p8258b41050)" style="fill: #1f77b4"/>
   </g>
   <g id="patch_122">
    <path d="M 63.4355 222.41 
L 104.1265 222.41 
L 104.1265 222.228207 
L 63.4355 222.228207 
z
" clip-path="url(#p8258b41050)" style="fill: #1f77b4"/>
   </g>
   <g id="patch_123">
    <path d="M 144.8175 222.41 
L 185.5085 222.41 
L 185.5085 222.379701 
L 144.8175 222.379701 
z
" clip-path="url(#p8258b41050)" style="fill: #1f77b4"/>
   </g>
   <g id="patch_124">
    <path d="M 226.1995 222.41 
L 266.8905 222.41 
L 266.8905 222.379701 
L 226.1995 222.379701 
z
" clip-path="url(#p8258b41050)" style="fill: #1f77b4"/>
   </g>
   <g id="patch_125">
    <path d="M 307.5815 222.41 
L 348.2725 222.41 
L 348.2725 222.349402 
L 307.5815 222.349402 
z
" clip-path="url(#p8258b41050)" style="fill: #1f77b4"/>
   </g>
   <g id="patch_126">
    <path d="M 388.9635 222.41 
L 429.6545 222.41 
L 429.6545 222.41 
L 388.9635 222.41 
z
" clip-path="url(#p8258b41050)" style="fill: #1f77b4"/>
   </g>
   <g id="patch_127">
    <path d="M 63.4355 222.41 
L 104.1265 222.41 
L 104.1265 222.228207 
L 63.4355 222.228207 
z
" clip-path="url(#p8258b41050)" style="fill: #1f77b4"/>
   </g>
   <g id="patch_128">
    <path d="M 144.8175 222.41 
L 185.5085 222.41 
L 185.5085 222.349402 
L 144.8175 222.349402 
z
" clip-path="url(#p8258b41050)" style="fill: #1f77b4"/>
   </g>
   <g id="patch_129">
    <path d="M 226.1995 222.41 
L 266.8905 222.41 
L 266.8905 222.41 
L 226.1995 222.41 
z
" clip-path="url(#p8258b41050)" style="fill: #1f77b4"/>
   </g>
   <g id="patch_130">
    <path d="M 307.5815 222.41 
L 348.2725 222.41 
L 348.2725 222.41 
L 307.5815 222.41 
z
" clip-path="url(#p8258b41050)" style="fill: #1f77b4"/>
   </g>
   <g id="patch_131">
    <path d="M 388.9635 222.41 
L 429.6545 222.41 
L 429.6545 222.41 
L 388.9635 222.41 
z
" clip-path="url(#p8258b41050)" style="fill: #1f77b4"/>
   </g>
   <g id="patch_132">
    <path d="M 63.4355 222.41 
L 104.1265 222.41 
L 104.1265 220.811235 
L 63.4355 220.811235 
z
" clip-path="url(#p8258b41050)" style="fill: #1f77b4"/>
   </g>
   <g id="patch_133">
    <path d="M 144.8175 222.41 
L 185.5085 222.41 
L 185.5085 222.046415 
L 144.8175 222.046415 
z
" clip-path="url(#p8258b41050)" style="fill: #1f77b4"/>
   </g>
   <g id="patch_134">
    <path d="M 226.1995 222.41 
L 266.8905 222.41 
L 266.8905 221.547495 
L 226.1995 221.547495 
z
" clip-path="url(#p8258b41050)" style="fill: #1f77b4"/>
   </g>
   <g id="patch_135">
    <path d="M 307.5815 222.41 
L 348.2725 222.41 
L 348.2725 221.547495 
L 307.5815 221.547495 
z
" clip-path="url(#p8258b41050)" style="fill: #1f77b4"/>
   </g>
   <g id="patch_136">
    <path d="M 388.9635 222.41 
L 429.6545 222.41 
L 429.6545 221.547495 
L 388.9635 221.547495 
z
" clip-path="url(#p8258b41050)" style="fill: #1f77b4"/>
   </g>
   <g id="patch_137">
    <path d="M 63.4355 222.41 
L 104.1265 222.41 
L 104.1265 210.047767 
L 63.4355 210.047767 
z
" clip-path="url(#p8258b41050)" style="fill: #1f77b4"/>
   </g>
   <g id="patch_138">
    <path d="M 144.8175 222.41 
L 185.5085 222.41 
L 185.5085 212.369999 
L 144.8175 212.369999 
z
" clip-path="url(#p8258b41050)" style="fill: #1f77b4"/>
   </g>
   <g id="patch_139">
    <path d="M 226.1995 222.41 
L 266.8905 222.41 
L 266.8905 220.70317 
L 226.1995 220.70317 
z
" clip-path="url(#p8258b41050)" style="fill: #1f77b4"/>
   </g>
   <g id="patch_140">
    <path d="M 307.5815 222.41 
L 348.2725 222.41 
L 348.2725 222.182759 
L 307.5815 222.182759 
z
" clip-path="url(#p8258b41050)" style="fill: #1f77b4"/>
   </g>
   <g id="patch_141">
    <path d="M 388.9635 222.41 
L 429.6545 222.41 
L 429.6545 222.182759 
L 388.9635 222.182759 
z
" clip-path="url(#p8258b41050)" style="fill: #1f77b4"/>
   </g>
   <g id="patch_142">
    <path d="M 63.4355 222.41 
L 104.1265 222.41 
L 104.1265 221.061705 
L 63.4355 221.061705 
z
" clip-path="url(#p8258b41050)" style="fill: #1f77b4"/>
   </g>
   <g id="patch_143">
    <path d="M 144.8175 222.41 
L 185.5085 222.41 
L 185.5085 221.531336 
L 144.8175 221.531336 
z
" clip-path="url(#p8258b41050)" style="fill: #1f77b4"/>
   </g>
   <g id="patch_144">
    <path d="M 226.1995 222.41 
L 266.8905 222.41 
L 266.8905 222.228207 
L 226.1995 222.228207 
z
" clip-path="url(#p8258b41050)" style="fill: #1f77b4"/>
   </g>
   <g id="patch_145">
    <path d="M 307.5815 222.41 
L 348.2725 222.41 
L 348.2725 222.276685 
L 307.5815 222.276685 
z
" clip-path="url(#p8258b41050)" style="fill: #1f77b4"/>
   </g>
   <g id="patch_146">
    <path d="M 388.9635 222.41 
L 429.6545 222.41 
L 429.6545 222.107012 
L 388.9635 222.107012 
z
" clip-path="url(#p8258b41050)" style="fill: #1f77b4"/>
   </g>
   <g id="patch_147">
    <path d="M 63.4355 222.41 
L 104.1265 222.41 
L 104.1265 222.282072 
L 63.4355 222.282072 
z
" clip-path="url(#p8258b41050)" style="fill: #1f77b4"/>
   </g>
   <g id="patch_148">
    <path d="M 144.8175 222.41 
L 185.5085 222.41 
L 185.5085 222.379701 
L 144.8175 222.379701 
z
" clip-path="url(#p8258b41050)" style="fill: #1f77b4"/>
   </g>
   <g id="patch_149">
    <path d="M 226.1995 222.41 
L 266.8905 222.41 
L 266.8905 222.379701 
L 226.1995 222.379701 
z
" clip-path="url(#p8258b41050)" style="fill: #1f77b4"/>
   </g>
   <g id="patch_150">
    <path d="M 307.5815 222.41 
L 348.2725 222.41 
L 348.2725 222.403267 
L 307.5815 222.403267 
z
" clip-path="url(#p8258b41050)" style="fill: #1f77b4"/>
   </g>
   <g id="patch_151">
    <path d="M 388.9635 222.41 
L 429.6545 222.41 
L 429.6545 222.403267 
L 388.9635 222.403267 
z
" clip-path="url(#p8258b41050)" style="fill: #1f77b4"/>
   </g>
   <g id="patch_152">
    <path d="M 63.4355 222.41 
L 104.1265 222.41 
L 104.1265 222.147411 
L 63.4355 222.147411 
z
" clip-path="url(#p8258b41050)" style="fill: #1f77b4"/>
   </g>
   <g id="patch_153">
    <path d="M 144.8175 222.41 
L 185.5085 222.41 
L 185.5085 222.268606 
L 144.8175 222.268606 
z
" clip-path="url(#p8258b41050)" style="fill: #1f77b4"/>
   </g>
   <g id="patch_154">
    <path d="M 226.1995 222.41 
L 266.8905 222.41 
L 266.8905 222.228207 
L 226.1995 222.228207 
z
" clip-path="url(#p8258b41050)" style="fill: #1f77b4"/>
   </g>
   <g id="patch_155">
    <path d="M 307.5815 222.41 
L 348.2725 222.41 
L 348.2725 222.16761 
L 307.5815 222.16761 
z
" clip-path="url(#p8258b41050)" style="fill: #1f77b4"/>
   </g>
   <g id="patch_156">
    <path d="M 388.9635 222.41 
L 429.6545 222.41 
L 429.6545 222.349402 
L 388.9635 222.349402 
z
" clip-path="url(#p8258b41050)" style="fill: #1f77b4"/>
   </g>
   <g id="patch_157">
    <path d="M 63.4355 222.41 
L 104.1265 222.41 
L 104.1265 222.41 
L 63.4355 222.41 
z
" clip-path="url(#p8258b41050)" style="fill: #1f77b4"/>
   </g>
   <g id="patch_158">
    <path d="M 144.8175 222.41 
L 185.5085 222.41 
L 185.5085 222.41 
L 144.8175 222.41 
z
" clip-path="url(#p8258b41050)" style="fill: #1f77b4"/>
   </g>
   <g id="patch_159">
    <path d="M 226.1995 222.41 
L 266.8905 222.41 
L 266.8905 222.41 
L 226.1995 222.41 
z
" clip-path="url(#p8258b41050)" style="fill: #1f77b4"/>
   </g>
   <g id="patch_160">
    <path d="M 307.5815 222.41 
L 348.2725 222.41 
L 348.2725 222.41 
L 307.5815 222.41 
z
" clip-path="url(#p8258b41050)" style="fill: #1f77b4"/>
   </g>
   <g id="patch_161">
    <path d="M 63.4355 222.41 
L 104.1265 222.41 
L 104.1265 222.41 
L 63.4355 222.41 
z
" clip-path="url(#p8258b41050)" style="fill: #1f77b4"/>
   </g>
   <g id="patch_162">
    <path d="M 144.8175 222.41 
L 185.5085 222.41 
L 185.5085 222.41 
L 144.8175 222.41 
z
" clip-path="url(#p8258b41050)" style="fill: #1f77b4"/>
   </g>
   <g id="patch_163">
    <path d="M 226.1995 222.41 
L 266.8905 222.41 
L 266.8905 222.41 
L 226.1995 222.41 
z
" clip-path="url(#p8258b41050)" style="fill: #1f77b4"/>
   </g>
   <g id="patch_164">
    <path d="M 63.4355 222.41 
L 104.1265 222.41 
L 104.1265 222.41 
L 63.4355 222.41 
z
" clip-path="url(#p8258b41050)" style="fill: #1f77b4"/>
   </g>
   <g id="patch_165">
    <path d="M 144.8175 222.41 
L 185.5085 222.41 
L 185.5085 222.41 
L 144.8175 222.41 
z
" clip-path="url(#p8258b41050)" style="fill: #1f77b4"/>
   </g>
   <g id="patch_166">
    <path d="M 226.1995 222.41 
L 266.8905 222.41 
L 266.8905 222.41 
L 226.1995 222.41 
z
" clip-path="url(#p8258b41050)" style="fill: #1f77b4"/>
   </g>
   <g id="patch_167">
    <path d="M 307.5815 222.41 
L 348.2725 222.41 
L 348.2725 222.41 
L 307.5815 222.41 
z
" clip-path="url(#p8258b41050)" style="fill: #1f77b4"/>
   </g>
   <g id="patch_168">
    <path d="M 63.4355 222.41 
L 104.1265 222.41 
L 104.1265 222.41 
L 63.4355 222.41 
z
" clip-path="url(#p8258b41050)" style="fill: #1f77b4"/>
   </g>
   <g id="patch_169">
    <path d="M 144.8175 222.41 
L 185.5085 222.41 
L 185.5085 222.41 
L 144.8175 222.41 
z
" clip-path="url(#p8258b41050)" style="fill: #1f77b4"/>
   </g>
   <g id="patch_170">
    <path d="M 63.4355 222.41 
L 104.1265 222.41 
L 104.1265 20.876667 
L 63.4355 20.876667 
z
" clip-path="url(#p8258b41050)" style="fill: #1f77b4"/>
   </g>
   <g id="patch_171">
    <path d="M 144.8175 222.41 
L 185.5085 222.41 
L 185.5085 94.01691 
L 144.8175 94.01691 
z
" clip-path="url(#p8258b41050)" style="fill: #1f77b4"/>
   </g>
   <g id="patch_172">
    <path d="M 226.1995 222.41 
L 266.8905 222.41 
L 266.8905 126.919488 
L 226.1995 126.919488 
z
" clip-path="url(#p8258b41050)" style="fill: #1f77b4"/>
   </g>
   <g id="patch_173">
    <path d="M 307.5815 222.41 
L 348.2725 222.41 
L 348.2725 119.12733 
L 307.5815 119.12733 
z
" clip-path="url(#p8258b41050)" style="fill: #1f77b4"/>
   </g>
   <g id="patch_174">
    <path d="M 388.9635 222.41 
L 429.6545 222.41 
L 429.6545 139.614364 
L 388.9635 139.614364 
z
" clip-path="url(#p8258b41050)" style="fill: #1f77b4"/>
   </g>
   <g id="patch_175">
    <path d="M 63.4355 222.41 
L 104.1265 222.41 
L 104.1265 222.091863 
L 63.4355 222.091863 
z
" clip-path="url(#p8258b41050)" style="fill: #1f77b4"/>
   </g>
   <g id="patch_176">
    <path d="M 144.8175 222.41 
L 185.5085 222.41 
L 185.5085 222.349402 
L 144.8175 222.349402 
z
" clip-path="url(#p8258b41050)" style="fill: #1f77b4"/>
   </g>
   <g id="patch_177">
    <path d="M 226.1995 222.41 
L 266.8905 222.41 
L 266.8905 222.349402 
L 226.1995 222.349402 
z
" clip-path="url(#p8258b41050)" style="fill: #1f77b4"/>
   </g>
   <g id="patch_178">
    <path d="M 307.5815 222.41 
L 348.2725 222.41 
L 348.2725 222.349402 
L 307.5815 222.349402 
z
" clip-path="url(#p8258b41050)" style="fill: #1f77b4"/>
   </g>
   <g id="patch_179">
    <path d="M 388.9635 222.41 
L 429.6545 222.41 
L 429.6545 222.319104 
L 388.9635 222.319104 
z
" clip-path="url(#p8258b41050)" style="fill: #1f77b4"/>
   </g>
   <g id="patch_180">
    <path d="M 63.4355 222.41 
L 104.1265 222.41 
L 104.1265 40.336212 
L 63.4355 40.336212 
z
" clip-path="url(#p8258b41050)" style="fill: #1f77b4"/>
   </g>
   <g id="patch_181">
    <path d="M 144.8175 222.41 
L 185.5085 222.41 
L 185.5085 128.620949 
L 144.8175 128.620949 
z
" clip-path="url(#p8258b41050)" style="fill: #1f77b4"/>
   </g>
   <g id="patch_182">
    <path d="M 226.1995 222.41 
L 266.8905 222.41 
L 266.8905 155.79912 
L 226.1995 155.79912 
z
" clip-path="url(#p8258b41050)" style="fill: #1f77b4"/>
   </g>
   <g id="patch_183">
    <path d="M 307.5815 222.41 
L 348.2725 222.41 
L 348.2725 146.002409 
L 307.5815 146.002409 
z
" clip-path="url(#p8258b41050)" style="fill: #1f77b4"/>
   </g>
   <g id="patch_184">
    <path d="M 388.9635 222.41 
L 429.6545 222.41 
L 429.6545 170.508768 
L 388.9635 170.508768 
z
" clip-path="url(#p8258b41050)" style="fill: #1f77b4"/>
   </g>
   <g id="patch_185">
    <path d="M 63.4355 222.41 
L 104.1265 222.41 
L 104.1265 218.945841 
L 63.4355 218.945841 
z
" clip-path="url(#p8258b41050)" style="fill: #1f77b4"/>
   </g>
   <g id="patch_186">
    <path d="M 144.8175 222.41 
L 185.5085 222.41 
L 185.5085 219.531617 
L 144.8175 219.531617 
z
" clip-path="url(#p8258b41050)" style="fill: #1f77b4"/>
   </g>
   <g id="patch_187">
    <path d="M 226.1995 222.41 
L 266.8905 222.41 
L 266.8905 222.006016 
L 226.1995 222.006016 
z
" clip-path="url(#p8258b41050)" style="fill: #1f77b4"/>
   </g>
   <g id="patch_188">
    <path d="M 307.5815 222.41 
L 348.2725 222.41 
L 348.2725 222.006016 
L 307.5815 222.006016 
z
" clip-path="url(#p8258b41050)" style="fill: #1f77b4"/>
   </g>
   <g id="patch_189">
    <path d="M 388.9635 222.41 
L 429.6545 222.41 
L 429.6545 222.131251 
L 388.9635 222.131251 
z
" clip-path="url(#p8258b41050)" style="fill: #1f77b4"/>
   </g>
   <g id="patch_190">
    <path d="M 63.4355 222.41 
L 104.1265 222.41 
L 104.1265 193.833214 
L 63.4355 193.833214 
z
" clip-path="url(#p8258b41050)" style="fill: #1f77b4"/>
   </g>
   <g id="patch_191">
    <path d="M 144.8175 222.41 
L 185.5085 222.41 
L 185.5085 212.83559 
L 144.8175 212.83559 
z
" clip-path="url(#p8258b41050)" style="fill: #1f77b4"/>
   </g>
   <g id="patch_192">
    <path d="M 226.1995 222.41 
L 266.8905 222.41 
L 266.8905 217.622795 
L 226.1995 217.622795 
z
" clip-path="url(#p8258b41050)" style="fill: #1f77b4"/>
   </g>
   <g id="patch_193">
    <path d="M 307.5815 222.41 
L 348.2725 222.41 
L 348.2725 217.622795 
L 307.5815 217.622795 
z
" clip-path="url(#p8258b41050)" style="fill: #1f77b4"/>
   </g>
   <g id="patch_194">
    <path d="M 388.9635 222.41 
L 429.6545 222.41 
L 429.6545 216.113916 
L 388.9635 216.113916 
z
" clip-path="url(#p8258b41050)" style="fill: #1f77b4"/>
   </g>
   <g id="patch_195">
    <path d="M 63.4355 222.41 
L 104.1265 222.41 
L 104.1265 222.258506 
L 63.4355 222.258506 
z
" clip-path="url(#p8258b41050)" style="fill: #1f77b4"/>
   </g>
   <g id="patch_196">
    <path d="M 144.8175 222.41 
L 185.5085 222.41 
L 185.5085 222.258506 
L 144.8175 222.258506 
z
" clip-path="url(#p8258b41050)" style="fill: #1f77b4"/>
   </g>
   <g id="patch_197">
    <path d="M 226.1995 222.41 
L 266.8905 222.41 
L 266.8905 222.258506 
L 226.1995 222.258506 
z
" clip-path="url(#p8258b41050)" style="fill: #1f77b4"/>
   </g>
   <g id="patch_198">
    <path d="M 307.5815 222.41 
L 348.2725 222.41 
L 348.2725 222.258506 
L 307.5815 222.258506 
z
" clip-path="url(#p8258b41050)" style="fill: #1f77b4"/>
   </g>
   <g id="patch_199">
    <path d="M 388.9635 222.41 
L 429.6545 222.41 
L 429.6545 222.258506 
L 388.9635 222.258506 
z
" clip-path="url(#p8258b41050)" style="fill: #1f77b4"/>
   </g>
   <g id="patch_200">
    <path d="M 63.4355 222.41 
L 104.1265 222.41 
L 104.1265 222.288805 
L 63.4355 222.288805 
z
" clip-path="url(#p8258b41050)" style="fill: #1f77b4"/>
   </g>
   <g id="patch_201">
    <path d="M 144.8175 222.41 
L 185.5085 222.41 
L 185.5085 222.288805 
L 144.8175 222.288805 
z
" clip-path="url(#p8258b41050)" style="fill: #1f77b4"/>
   </g>
   <g id="patch_202">
    <path d="M 226.1995 222.41 
L 266.8905 222.41 
L 266.8905 222.288805 
L 226.1995 222.288805 
z
" clip-path="url(#p8258b41050)" style="fill: #1f77b4"/>
   </g>
   <g id="patch_203">
    <path d="M 307.5815 222.41 
L 348.2725 222.41 
L 348.2725 222.394851 
L 307.5815 222.394851 
z
" clip-path="url(#p8258b41050)" style="fill: #1f77b4"/>
   </g>
   <g id="patch_204">
    <path d="M 388.9635 222.41 
L 429.6545 222.41 
L 429.6545 222.394851 
L 388.9635 222.394851 
z
" clip-path="url(#p8258b41050)" style="fill: #1f77b4"/>
   </g>
   <g id="patch_205">
    <path d="M 63.4355 222.41 
L 104.1265 222.41 
L 104.1265 188.686092 
L 63.4355 188.686092 
z
" clip-path="url(#p8258b41050)" style="fill: #1f77b4"/>
   </g>
   <g id="patch_206">
    <path d="M 144.8175 222.41 
L 185.5085 222.41 
L 185.5085 187.45206 
L 144.8175 187.45206 
z
" clip-path="url(#p8258b41050)" style="fill: #1f77b4"/>
   </g>
   <g id="patch_207">
    <path d="M 226.1995 222.41 
L 266.8905 222.41 
L 266.8905 209.790564 
L 226.1995 209.790564 
z
" clip-path="url(#p8258b41050)" style="fill: #1f77b4"/>
   </g>
   <g id="patch_208">
    <path d="M 307.5815 222.41 
L 348.2725 222.41 
L 348.2725 209.790564 
L 307.5815 209.790564 
z
" clip-path="url(#p8258b41050)" style="fill: #1f77b4"/>
   </g>
   <g id="patch_209">
    <path d="M 388.9635 222.41 
L 429.6545 222.41 
L 429.6545 188.266965 
L 388.9635 188.266965 
z
" clip-path="url(#p8258b41050)" style="fill: #1f77b4"/>
   </g>
   <g id="patch_210">
    <path d="M 63.4355 222.41 
L 104.1265 222.41 
L 104.1265 222.319104 
L 63.4355 222.319104 
z
" clip-path="url(#p8258b41050)" style="fill: #1f77b4"/>
   </g>
   <g id="patch_211">
    <path d="M 144.8175 222.41 
L 185.5085 222.41 
L 185.5085 222.319104 
L 144.8175 222.319104 
z
" clip-path="url(#p8258b41050)" style="fill: #1f77b4"/>
   </g>
   <g id="patch_212">
    <path d="M 226.1995 222.41 
L 266.8905 222.41 
L 266.8905 222.41 
L 226.1995 222.41 
z
" clip-path="url(#p8258b41050)" style="fill: #1f77b4"/>
   </g>
   <g id="patch_213">
    <path d="M 307.5815 222.41 
L 348.2725 222.41 
L 348.2725 222.41 
L 307.5815 222.41 
z
" clip-path="url(#p8258b41050)" style="fill: #1f77b4"/>
   </g>
   <g id="patch_214">
    <path d="M 388.9635 222.41 
L 429.6545 222.41 
L 429.6545 222.41 
L 388.9635 222.41 
z
" clip-path="url(#p8258b41050)" style="fill: #1f77b4"/>
   </g>
   <g id="patch_215">
    <path d="M 63.4355 222.41 
L 104.1265 222.41 
L 104.1265 202.345195 
L 63.4355 202.345195 
z
" clip-path="url(#p8258b41050)" style="fill: #1f77b4"/>
   </g>
   <g id="patch_216">
    <path d="M 144.8175 222.41 
L 185.5085 222.41 
L 185.5085 207.462351 
L 144.8175 207.462351 
z
" clip-path="url(#p8258b41050)" style="fill: #1f77b4"/>
   </g>
   <g id="patch_217">
    <path d="M 226.1995 222.41 
L 266.8905 222.41 
L 266.8905 211.303054 
L 226.1995 211.303054 
z
" clip-path="url(#p8258b41050)" style="fill: #1f77b4"/>
   </g>
   <g id="patch_218">
    <path d="M 307.5815 222.41 
L 348.2725 222.41 
L 348.2725 205.57803 
L 307.5815 205.57803 
z
" clip-path="url(#p8258b41050)" style="fill: #1f77b4"/>
   </g>
   <g id="patch_219">
    <path d="M 388.9635 222.41 
L 429.6545 222.41 
L 429.6545 218.191214 
L 388.9635 218.191214 
z
" clip-path="url(#p8258b41050)" style="fill: #1f77b4"/>
   </g>
   <g id="patch_220">
    <path d="M 63.4355 222.41 
L 104.1265 222.41 
L 104.1265 221.955519 
L 63.4355 221.955519 
z
" clip-path="url(#p8258b41050)" style="fill: #1f77b4"/>
   </g>
   <g id="patch_221">
    <path d="M 144.8175 222.41 
L 185.5085 222.41 
L 185.5085 221.985817 
L 144.8175 221.985817 
z
" clip-path="url(#p8258b41050)" style="fill: #1f77b4"/>
   </g>
   <g id="patch_222">
    <path d="M 226.1995 222.41 
L 266.8905 222.41 
L 266.8905 221.804025 
L 226.1995 221.804025 
z
" clip-path="url(#p8258b41050)" style="fill: #1f77b4"/>
   </g>
   <g id="patch_223">
    <path d="M 307.5815 222.41 
L 348.2725 222.41 
L 348.2725 222.258506 
L 307.5815 222.258506 
z
" clip-path="url(#p8258b41050)" style="fill: #1f77b4"/>
   </g>
   <g id="patch_224">
    <path d="M 388.9635 222.41 
L 429.6545 222.41 
L 429.6545 222.258506 
L 388.9635 222.258506 
z
" clip-path="url(#p8258b41050)" style="fill: #1f77b4"/>
   </g>
   <g id="patch_225">
    <path d="M 63.4355 222.41 
L 104.1265 222.41 
L 104.1265 221.985817 
L 63.4355 221.985817 
z
" clip-path="url(#p8258b41050)" style="fill: #1f77b4"/>
   </g>
   <g id="patch_226">
    <path d="M 144.8175 222.41 
L 185.5085 222.41 
L 185.5085 221.985817 
L 144.8175 221.985817 
z
" clip-path="url(#p8258b41050)" style="fill: #1f77b4"/>
   </g>
   <g id="patch_227">
    <path d="M 226.1995 222.41 
L 266.8905 222.41 
L 266.8905 221.985817 
L 226.1995 221.985817 
z
" clip-path="url(#p8258b41050)" style="fill: #1f77b4"/>
   </g>
   <g id="patch_228">
    <path d="M 307.5815 222.41 
L 348.2725 222.41 
L 348.2725 222.389801 
L 307.5815 222.389801 
z
" clip-path="url(#p8258b41050)" style="fill: #1f77b4"/>
   </g>
   <g id="patch_229">
    <path d="M 388.9635 222.41 
L 429.6545 222.41 
L 429.6545 222.389801 
L 388.9635 222.389801 
z
" clip-path="url(#p8258b41050)" style="fill: #1f77b4"/>
   </g>
   <g id="patch_230">
    <path d="M 63.4355 222.41 
L 104.1265 222.41 
L 104.1265 222.046415 
L 63.4355 222.046415 
z
" clip-path="url(#p8258b41050)" style="fill: #1f77b4"/>
   </g>
   <g id="patch_231">
    <path d="M 144.8175 222.41 
L 185.5085 222.41 
L 185.5085 222.349402 
L 144.8175 222.349402 
z
" clip-path="url(#p8258b41050)" style="fill: #1f77b4"/>
   </g>
   <g id="patch_232">
    <path d="M 226.1995 222.41 
L 266.8905 222.41 
L 266.8905 222.349402 
L 226.1995 222.349402 
z
" clip-path="url(#p8258b41050)" style="fill: #1f77b4"/>
   </g>
   <g id="patch_233">
    <path d="M 307.5815 222.41 
L 348.2725 222.41 
L 348.2725 222.41 
L 307.5815 222.41 
z
" clip-path="url(#p8258b41050)" style="fill: #1f77b4"/>
   </g>
   <g id="patch_234">
    <path d="M 388.9635 222.41 
L 429.6545 222.41 
L 429.6545 222.41 
L 388.9635 222.41 
z
" clip-path="url(#p8258b41050)" style="fill: #1f77b4"/>
   </g>
   <g id="matplotlib.axis_1">
    <g id="xtick_1">
     <g id="line2d_1">
      <defs>
       <path id="m2303fd674c" d="M 0 0 
L 0 3.5 
" style="stroke: #000000; stroke-width: 0.8"/>
      </defs>
      <g>
       <use xlink:href="#m2303fd674c" x="83.781" y="222.41" style="stroke: #000000; stroke-width: 0.8"/>
      </g>
     </g>
     <g id="text_1">
      <!-- Loretta Devine -->
      <g transform="translate(86.540375 303.152187) rotate(-90) scale(0.1 -0.1)">
       <defs>
        <path id="DejaVuSans-4c" d="M 628 4666 
L 1259 4666 
L 1259 531 
L 3531 531 
L 3531 0 
L 628 0 
L 628 4666 
z
" transform="scale(0.015625)"/>
        <path id="DejaVuSans-6f" d="M 1959 3097 
Q 1497 3097 1228 2736 
Q 959 2375 959 1747 
Q 959 1119 1226 758 
Q 1494 397 1959 397 
Q 2419 397 2687 759 
Q 2956 1122 2956 1747 
Q 2956 2369 2687 2733 
Q 2419 3097 1959 3097 
z
M 1959 3584 
Q 2709 3584 3137 3096 
Q 3566 2609 3566 1747 
Q 3566 888 3137 398 
Q 2709 -91 1959 -91 
Q 1206 -91 779 398 
Q 353 888 353 1747 
Q 353 2609 779 3096 
Q 1206 3584 1959 3584 
z
" transform="scale(0.015625)"/>
        <path id="DejaVuSans-72" d="M 2631 2963 
Q 2534 3019 2420 3045 
Q 2306 3072 2169 3072 
Q 1681 3072 1420 2755 
Q 1159 2438 1159 1844 
L 1159 0 
L 581 0 
L 581 3500 
L 1159 3500 
L 1159 2956 
Q 1341 3275 1631 3429 
Q 1922 3584 2338 3584 
Q 2397 3584 2469 3576 
Q 2541 3569 2628 3553 
L 2631 2963 
z
" transform="scale(0.015625)"/>
        <path id="DejaVuSans-65" d="M 3597 1894 
L 3597 1613 
L 953 1613 
Q 991 1019 1311 708 
Q 1631 397 2203 397 
Q 2534 397 2845 478 
Q 3156 559 3463 722 
L 3463 178 
Q 3153 47 2828 -22 
Q 2503 -91 2169 -91 
Q 1331 -91 842 396 
Q 353 884 353 1716 
Q 353 2575 817 3079 
Q 1281 3584 2069 3584 
Q 2775 3584 3186 3129 
Q 3597 2675 3597 1894 
z
M 3022 2063 
Q 3016 2534 2758 2815 
Q 2500 3097 2075 3097 
Q 1594 3097 1305 2825 
Q 1016 2553 972 2059 
L 3022 2063 
z
" transform="scale(0.015625)"/>
        <path id="DejaVuSans-74" d="M 1172 4494 
L 1172 3500 
L 2356 3500 
L 2356 3053 
L 1172 3053 
L 1172 1153 
Q 1172 725 1289 603 
Q 1406 481 1766 481 
L 2356 481 
L 2356 0 
L 1766 0 
Q 1100 0 847 248 
Q 594 497 594 1153 
L 594 3053 
L 172 3053 
L 172 3500 
L 594 3500 
L 594 4494 
L 1172 4494 
z
" transform="scale(0.015625)"/>
        <path id="DejaVuSans-61" d="M 2194 1759 
Q 1497 1759 1228 1600 
Q 959 1441 959 1056 
Q 959 750 1161 570 
Q 1363 391 1709 391 
Q 2188 391 2477 730 
Q 2766 1069 2766 1631 
L 2766 1759 
L 2194 1759 
z
M 3341 1997 
L 3341 0 
L 2766 0 
L 2766 531 
Q 2569 213 2275 61 
Q 1981 -91 1556 -91 
Q 1019 -91 701 211 
Q 384 513 384 1019 
Q 384 1609 779 1909 
Q 1175 2209 1959 2209 
L 2766 2209 
L 2766 2266 
Q 2766 2663 2505 2880 
Q 2244 3097 1772 3097 
Q 1472 3097 1187 3025 
Q 903 2953 641 2809 
L 641 3341 
Q 956 3463 1253 3523 
Q 1550 3584 1831 3584 
Q 2591 3584 2966 3190 
Q 3341 2797 3341 1997 
z
" transform="scale(0.015625)"/>
        <path id="DejaVuSans-20" transform="scale(0.015625)"/>
        <path id="DejaVuSans-44" d="M 1259 4147 
L 1259 519 
L 2022 519 
Q 2988 519 3436 956 
Q 3884 1394 3884 2338 
Q 3884 3275 3436 3711 
Q 2988 4147 2022 4147 
L 1259 4147 
z
M 628 4666 
L 1925 4666 
Q 3281 4666 3915 4102 
Q 4550 3538 4550 2338 
Q 4550 1131 3912 565 
Q 3275 0 1925 0 
L 628 0 
L 628 4666 
z
" transform="scale(0.015625)"/>
        <path id="DejaVuSans-76" d="M 191 3500 
L 800 3500 
L 1894 563 
L 2988 3500 
L 3597 3500 
L 2284 0 
L 1503 0 
L 191 3500 
z
" transform="scale(0.015625)"/>
        <path id="DejaVuSans-69" d="M 603 3500 
L 1178 3500 
L 1178 0 
L 603 0 
L 603 3500 
z
M 603 4863 
L 1178 4863 
L 1178 4134 
L 603 4134 
L 603 4863 
z
" transform="scale(0.015625)"/>
        <path id="DejaVuSans-6e" d="M 3513 2113 
L 3513 0 
L 2938 0 
L 2938 2094 
Q 2938 2591 2744 2837 
Q 2550 3084 2163 3084 
Q 1697 3084 1428 2787 
Q 1159 2491 1159 1978 
L 1159 0 
L 581 0 
L 581 3500 
L 1159 3500 
L 1159 2956 
Q 1366 3272 1645 3428 
Q 1925 3584 2291 3584 
Q 2894 3584 3203 3211 
Q 3513 2838 3513 2113 
z
" transform="scale(0.015625)"/>
       </defs>
       <use xlink:href="#DejaVuSans-4c"/>
       <use xlink:href="#DejaVuSans-6f" x="53.962891"/>
       <use xlink:href="#DejaVuSans-72" x="115.144531"/>
       <use xlink:href="#DejaVuSans-65" x="154.007812"/>
       <use xlink:href="#DejaVuSans-74" x="215.53125"/>
       <use xlink:href="#DejaVuSans-74" x="254.740234"/>
       <use xlink:href="#DejaVuSans-61" x="293.949219"/>
       <use xlink:href="#DejaVuSans-20" x="355.228516"/>
       <use xlink:href="#DejaVuSans-44" x="387.015625"/>
       <use xlink:href="#DejaVuSans-65" x="464.017578"/>
       <use xlink:href="#DejaVuSans-76" x="525.541016"/>
       <use xlink:href="#DejaVuSans-69" x="584.720703"/>
       <use xlink:href="#DejaVuSans-6e" x="612.503906"/>
       <use xlink:href="#DejaVuSans-65" x="675.882812"/>
      </g>
     </g>
    </g>
    <g id="xtick_2">
     <g id="line2d_2">
      <g>
       <use xlink:href="#m2303fd674c" x="165.163" y="222.41" style="stroke: #000000; stroke-width: 0.8"/>
      </g>
     </g>
     <g id="text_2">
      <!-- Ed O'Neill -->
      <g transform="translate(167.922375 277.844375) rotate(-90) scale(0.1 -0.1)">
       <defs>
        <path id="DejaVuSans-45" d="M 628 4666 
L 3578 4666 
L 3578 4134 
L 1259 4134 
L 1259 2753 
L 3481 2753 
L 3481 2222 
L 1259 2222 
L 1259 531 
L 3634 531 
L 3634 0 
L 628 0 
L 628 4666 
z
" transform="scale(0.015625)"/>
        <path id="DejaVuSans-64" d="M 2906 2969 
L 2906 4863 
L 3481 4863 
L 3481 0 
L 2906 0 
L 2906 525 
Q 2725 213 2448 61 
Q 2172 -91 1784 -91 
Q 1150 -91 751 415 
Q 353 922 353 1747 
Q 353 2572 751 3078 
Q 1150 3584 1784 3584 
Q 2172 3584 2448 3432 
Q 2725 3281 2906 2969 
z
M 947 1747 
Q 947 1113 1208 752 
Q 1469 391 1925 391 
Q 2381 391 2643 752 
Q 2906 1113 2906 1747 
Q 2906 2381 2643 2742 
Q 2381 3103 1925 3103 
Q 1469 3103 1208 2742 
Q 947 2381 947 1747 
z
" transform="scale(0.015625)"/>
        <path id="DejaVuSans-4f" d="M 2522 4238 
Q 1834 4238 1429 3725 
Q 1025 3213 1025 2328 
Q 1025 1447 1429 934 
Q 1834 422 2522 422 
Q 3209 422 3611 934 
Q 4013 1447 4013 2328 
Q 4013 3213 3611 3725 
Q 3209 4238 2522 4238 
z
M 2522 4750 
Q 3503 4750 4090 4092 
Q 4678 3434 4678 2328 
Q 4678 1225 4090 567 
Q 3503 -91 2522 -91 
Q 1538 -91 948 565 
Q 359 1222 359 2328 
Q 359 3434 948 4092 
Q 1538 4750 2522 4750 
z
" transform="scale(0.015625)"/>
        <path id="DejaVuSans-27" d="M 1147 4666 
L 1147 2931 
L 616 2931 
L 616 4666 
L 1147 4666 
z
" transform="scale(0.015625)"/>
        <path id="DejaVuSans-4e" d="M 628 4666 
L 1478 4666 
L 3547 763 
L 3547 4666 
L 4159 4666 
L 4159 0 
L 3309 0 
L 1241 3903 
L 1241 0 
L 628 0 
L 628 4666 
z
" transform="scale(0.015625)"/>
        <path id="DejaVuSans-6c" d="M 603 4863 
L 1178 4863 
L 1178 0 
L 603 0 
L 603 4863 
z
" transform="scale(0.015625)"/>
       </defs>
       <use xlink:href="#DejaVuSans-45"/>
       <use xlink:href="#DejaVuSans-64" x="63.183594"/>
       <use xlink:href="#DejaVuSans-20" x="126.660156"/>
       <use xlink:href="#DejaVuSans-4f" x="158.447266"/>
       <use xlink:href="#DejaVuSans-27" x="237.158203"/>
       <use xlink:href="#DejaVuSans-4e" x="264.648438"/>
       <use xlink:href="#DejaVuSans-65" x="339.453125"/>
       <use xlink:href="#DejaVuSans-69" x="400.976562"/>
       <use xlink:href="#DejaVuSans-6c" x="428.759766"/>
       <use xlink:href="#DejaVuSans-6c" x="456.542969"/>
      </g>
     </g>
    </g>
    <g id="xtick_3">
     <g id="line2d_3">
      <g>
       <use xlink:href="#m2303fd674c" x="246.545" y="222.41" style="stroke: #000000; stroke-width: 0.8"/>
      </g>
     </g>
     <g id="text_3">
      <!-- Mare Winningham -->
      <g transform="translate(249.304375 320.169375) rotate(-90) scale(0.1 -0.1)">
       <defs>
        <path id="DejaVuSans-4d" d="M 628 4666 
L 1569 4666 
L 2759 1491 
L 3956 4666 
L 4897 4666 
L 4897 0 
L 4281 0 
L 4281 4097 
L 3078 897 
L 2444 897 
L 1241 4097 
L 1241 0 
L 628 0 
L 628 4666 
z
" transform="scale(0.015625)"/>
        <path id="DejaVuSans-57" d="M 213 4666 
L 850 4666 
L 1831 722 
L 2809 4666 
L 3519 4666 
L 4500 722 
L 5478 4666 
L 6119 4666 
L 4947 0 
L 4153 0 
L 3169 4050 
L 2175 0 
L 1381 0 
L 213 4666 
z
" transform="scale(0.015625)"/>
        <path id="DejaVuSans-67" d="M 2906 1791 
Q 2906 2416 2648 2759 
Q 2391 3103 1925 3103 
Q 1463 3103 1205 2759 
Q 947 2416 947 1791 
Q 947 1169 1205 825 
Q 1463 481 1925 481 
Q 2391 481 2648 825 
Q 2906 1169 2906 1791 
z
M 3481 434 
Q 3481 -459 3084 -895 
Q 2688 -1331 1869 -1331 
Q 1566 -1331 1297 -1286 
Q 1028 -1241 775 -1147 
L 775 -588 
Q 1028 -725 1275 -790 
Q 1522 -856 1778 -856 
Q 2344 -856 2625 -561 
Q 2906 -266 2906 331 
L 2906 616 
Q 2728 306 2450 153 
Q 2172 0 1784 0 
Q 1141 0 747 490 
Q 353 981 353 1791 
Q 353 2603 747 3093 
Q 1141 3584 1784 3584 
Q 2172 3584 2450 3431 
Q 2728 3278 2906 2969 
L 2906 3500 
L 3481 3500 
L 3481 434 
z
" transform="scale(0.015625)"/>
        <path id="DejaVuSans-68" d="M 3513 2113 
L 3513 0 
L 2938 0 
L 2938 2094 
Q 2938 2591 2744 2837 
Q 2550 3084 2163 3084 
Q 1697 3084 1428 2787 
Q 1159 2491 1159 1978 
L 1159 0 
L 581 0 
L 581 4863 
L 1159 4863 
L 1159 2956 
Q 1366 3272 1645 3428 
Q 1925 3584 2291 3584 
Q 2894 3584 3203 3211 
Q 3513 2838 3513 2113 
z
" transform="scale(0.015625)"/>
        <path id="DejaVuSans-6d" d="M 3328 2828 
Q 3544 3216 3844 3400 
Q 4144 3584 4550 3584 
Q 5097 3584 5394 3201 
Q 5691 2819 5691 2113 
L 5691 0 
L 5113 0 
L 5113 2094 
Q 5113 2597 4934 2840 
Q 4756 3084 4391 3084 
Q 3944 3084 3684 2787 
Q 3425 2491 3425 1978 
L 3425 0 
L 2847 0 
L 2847 2094 
Q 2847 2600 2669 2842 
Q 2491 3084 2119 3084 
Q 1678 3084 1418 2786 
Q 1159 2488 1159 1978 
L 1159 0 
L 581 0 
L 581 3500 
L 1159 3500 
L 1159 2956 
Q 1356 3278 1631 3431 
Q 1906 3584 2284 3584 
Q 2666 3584 2933 3390 
Q 3200 3197 3328 2828 
z
" transform="scale(0.015625)"/>
       </defs>
       <use xlink:href="#DejaVuSans-4d"/>
       <use xlink:href="#DejaVuSans-61" x="86.279297"/>
       <use xlink:href="#DejaVuSans-72" x="147.558594"/>
       <use xlink:href="#DejaVuSans-65" x="186.421875"/>
       <use xlink:href="#DejaVuSans-20" x="247.945312"/>
       <use xlink:href="#DejaVuSans-57" x="279.732422"/>
       <use xlink:href="#DejaVuSans-69" x="376.359375"/>
       <use xlink:href="#DejaVuSans-6e" x="404.142578"/>
       <use xlink:href="#DejaVuSans-6e" x="467.521484"/>
       <use xlink:href="#DejaVuSans-69" x="530.900391"/>
       <use xlink:href="#DejaVuSans-6e" x="558.683594"/>
       <use xlink:href="#DejaVuSans-67" x="622.0625"/>
       <use xlink:href="#DejaVuSans-68" x="685.539062"/>
       <use xlink:href="#DejaVuSans-61" x="748.917969"/>
       <use xlink:href="#DejaVuSans-6d" x="810.197266"/>
      </g>
     </g>
    </g>
    <g id="xtick_4">
     <g id="line2d_4">
      <g>
       <use xlink:href="#m2303fd674c" x="327.927" y="222.41" style="stroke: #000000; stroke-width: 0.8"/>
      </g>
     </g>
     <g id="text_4">
      <!-- Edward James Olmos -->
      <g transform="translate(330.686375 334.924062) rotate(-90) scale(0.1 -0.1)">
       <defs>
        <path id="DejaVuSans-77" d="M 269 3500 
L 844 3500 
L 1563 769 
L 2278 3500 
L 2956 3500 
L 3675 769 
L 4391 3500 
L 4966 3500 
L 4050 0 
L 3372 0 
L 2619 2869 
L 1863 0 
L 1184 0 
L 269 3500 
z
" transform="scale(0.015625)"/>
        <path id="DejaVuSans-4a" d="M 628 4666 
L 1259 4666 
L 1259 325 
Q 1259 -519 939 -900 
Q 619 -1281 -91 -1281 
L -331 -1281 
L -331 -750 
L -134 -750 
Q 284 -750 456 -515 
Q 628 -281 628 325 
L 628 4666 
z
" transform="scale(0.015625)"/>
        <path id="DejaVuSans-73" d="M 2834 3397 
L 2834 2853 
Q 2591 2978 2328 3040 
Q 2066 3103 1784 3103 
Q 1356 3103 1142 2972 
Q 928 2841 928 2578 
Q 928 2378 1081 2264 
Q 1234 2150 1697 2047 
L 1894 2003 
Q 2506 1872 2764 1633 
Q 3022 1394 3022 966 
Q 3022 478 2636 193 
Q 2250 -91 1575 -91 
Q 1294 -91 989 -36 
Q 684 19 347 128 
L 347 722 
Q 666 556 975 473 
Q 1284 391 1588 391 
Q 1994 391 2212 530 
Q 2431 669 2431 922 
Q 2431 1156 2273 1281 
Q 2116 1406 1581 1522 
L 1381 1569 
Q 847 1681 609 1914 
Q 372 2147 372 2553 
Q 372 3047 722 3315 
Q 1072 3584 1716 3584 
Q 2034 3584 2315 3537 
Q 2597 3491 2834 3397 
z
" transform="scale(0.015625)"/>
       </defs>
       <use xlink:href="#DejaVuSans-45"/>
       <use xlink:href="#DejaVuSans-64" x="63.183594"/>
       <use xlink:href="#DejaVuSans-77" x="126.660156"/>
       <use xlink:href="#DejaVuSans-61" x="208.447266"/>
       <use xlink:href="#DejaVuSans-72" x="269.726562"/>
       <use xlink:href="#DejaVuSans-64" x="309.089844"/>
       <use xlink:href="#DejaVuSans-20" x="372.566406"/>
       <use xlink:href="#DejaVuSans-4a" x="404.353516"/>
       <use xlink:href="#DejaVuSans-61" x="433.845703"/>
       <use xlink:href="#DejaVuSans-6d" x="495.125"/>
       <use xlink:href="#DejaVuSans-65" x="592.537109"/>
       <use xlink:href="#DejaVuSans-73" x="654.060547"/>
       <use xlink:href="#DejaVuSans-20" x="706.160156"/>
       <use xlink:href="#DejaVuSans-4f" x="737.947266"/>
       <use xlink:href="#DejaVuSans-6c" x="816.658203"/>
       <use xlink:href="#DejaVuSans-6d" x="844.441406"/>
       <use xlink:href="#DejaVuSans-6f" x="941.853516"/>
       <use xlink:href="#DejaVuSans-73" x="1003.035156"/>
      </g>
     </g>
    </g>
    <g id="xtick_5">
     <g id="line2d_5">
      <g>
       <use xlink:href="#m2303fd674c" x="409.309" y="222.41" style="stroke: #000000; stroke-width: 0.8"/>
      </g>
     </g>
     <g id="text_5">
      <!-- Lance Henriksen -->
      <g transform="translate(412.068375 312.667812) rotate(-90) scale(0.1 -0.1)">
       <defs>
        <path id="DejaVuSans-63" d="M 3122 3366 
L 3122 2828 
Q 2878 2963 2633 3030 
Q 2388 3097 2138 3097 
Q 1578 3097 1268 2742 
Q 959 2388 959 1747 
Q 959 1106 1268 751 
Q 1578 397 2138 397 
Q 2388 397 2633 464 
Q 2878 531 3122 666 
L 3122 134 
Q 2881 22 2623 -34 
Q 2366 -91 2075 -91 
Q 1284 -91 818 406 
Q 353 903 353 1747 
Q 353 2603 823 3093 
Q 1294 3584 2113 3584 
Q 2378 3584 2631 3529 
Q 2884 3475 3122 3366 
z
" transform="scale(0.015625)"/>
        <path id="DejaVuSans-48" d="M 628 4666 
L 1259 4666 
L 1259 2753 
L 3553 2753 
L 3553 4666 
L 4184 4666 
L 4184 0 
L 3553 0 
L 3553 2222 
L 1259 2222 
L 1259 0 
L 628 0 
L 628 4666 
z
" transform="scale(0.015625)"/>
        <path id="DejaVuSans-6b" d="M 581 4863 
L 1159 4863 
L 1159 1991 
L 2875 3500 
L 3609 3500 
L 1753 1863 
L 3688 0 
L 2938 0 
L 1159 1709 
L 1159 0 
L 581 0 
L 581 4863 
z
" transform="scale(0.015625)"/>
       </defs>
       <use xlink:href="#DejaVuSans-4c"/>
       <use xlink:href="#DejaVuSans-61" x="55.712891"/>
       <use xlink:href="#DejaVuSans-6e" x="116.992188"/>
       <use xlink:href="#DejaVuSans-63" x="180.371094"/>
       <use xlink:href="#DejaVuSans-65" x="235.351562"/>
       <use xlink:href="#DejaVuSans-20" x="296.875"/>
       <use xlink:href="#DejaVuSans-48" x="328.662109"/>
       <use xlink:href="#DejaVuSans-65" x="403.857422"/>
       <use xlink:href="#DejaVuSans-6e" x="465.380859"/>
       <use xlink:href="#DejaVuSans-72" x="528.759766"/>
       <use xlink:href="#DejaVuSans-69" x="569.873047"/>
       <use xlink:href="#DejaVuSans-6b" x="597.65625"/>
       <use xlink:href="#DejaVuSans-73" x="655.566406"/>
       <use xlink:href="#DejaVuSans-65" x="707.666016"/>
       <use xlink:href="#DejaVuSans-6e" x="769.189453"/>
      </g>
     </g>
    </g>
   </g>
   <g id="matplotlib.axis_2">
    <g id="ytick_1">
     <g id="line2d_6">
      <defs>
       <path id="mcc6af8df7f" d="M 0 0 
L -3.5 0 
" style="stroke: #000000; stroke-width: 0.8"/>
      </defs>
      <g>
       <use xlink:href="#mcc6af8df7f" x="43.09" y="222.41" style="stroke: #000000; stroke-width: 0.8"/>
      </g>
     </g>
     <g id="text_6">
      <!-- 0 -->
      <g transform="translate(29.7275 226.209219) scale(0.1 -0.1)">
       <defs>
        <path id="DejaVuSans-30" d="M 2034 4250 
Q 1547 4250 1301 3770 
Q 1056 3291 1056 2328 
Q 1056 1369 1301 889 
Q 1547 409 2034 409 
Q 2525 409 2770 889 
Q 3016 1369 3016 2328 
Q 3016 3291 2770 3770 
Q 2525 4250 2034 4250 
z
M 2034 4750 
Q 2819 4750 3233 4129 
Q 3647 3509 3647 2328 
Q 3647 1150 3233 529 
Q 2819 -91 2034 -91 
Q 1250 -91 836 529 
Q 422 1150 422 2328 
Q 422 3509 836 4129 
Q 1250 4750 2034 4750 
z
" transform="scale(0.015625)"/>
       </defs>
       <use xlink:href="#DejaVuSans-30"/>
      </g>
     </g>
    </g>
    <g id="ytick_2">
     <g id="line2d_7">
      <g>
       <use xlink:href="#mcc6af8df7f" x="43.09" y="192.111234" style="stroke: #000000; stroke-width: 0.8"/>
      </g>
     </g>
     <g id="text_7">
      <!-- 500 -->
      <g transform="translate(17.0025 195.910453) scale(0.1 -0.1)">
       <defs>
        <path id="DejaVuSans-35" d="M 691 4666 
L 3169 4666 
L 3169 4134 
L 1269 4134 
L 1269 2991 
Q 1406 3038 1543 3061 
Q 1681 3084 1819 3084 
Q 2600 3084 3056 2656 
Q 3513 2228 3513 1497 
Q 3513 744 3044 326 
Q 2575 -91 1722 -91 
Q 1428 -91 1123 -41 
Q 819 9 494 109 
L 494 744 
Q 775 591 1075 516 
Q 1375 441 1709 441 
Q 2250 441 2565 725 
Q 2881 1009 2881 1497 
Q 2881 1984 2565 2268 
Q 2250 2553 1709 2553 
Q 1456 2553 1204 2497 
Q 953 2441 691 2322 
L 691 4666 
z
" transform="scale(0.015625)"/>
       </defs>
       <use xlink:href="#DejaVuSans-35"/>
       <use xlink:href="#DejaVuSans-30" x="63.623047"/>
       <use xlink:href="#DejaVuSans-30" x="127.246094"/>
      </g>
     </g>
    </g>
    <g id="ytick_3">
     <g id="line2d_8">
      <g>
       <use xlink:href="#mcc6af8df7f" x="43.09" y="161.812468" style="stroke: #000000; stroke-width: 0.8"/>
      </g>
     </g>
     <g id="text_8">
      <!-- 1000 -->
      <g transform="translate(10.64 165.611687) scale(0.1 -0.1)">
       <defs>
        <path id="DejaVuSans-31" d="M 794 531 
L 1825 531 
L 1825 4091 
L 703 3866 
L 703 4441 
L 1819 4666 
L 2450 4666 
L 2450 531 
L 3481 531 
L 3481 0 
L 794 0 
L 794 531 
z
" transform="scale(0.015625)"/>
       </defs>
       <use xlink:href="#DejaVuSans-31"/>
       <use xlink:href="#DejaVuSans-30" x="63.623047"/>
       <use xlink:href="#DejaVuSans-30" x="127.246094"/>
       <use xlink:href="#DejaVuSans-30" x="190.869141"/>
      </g>
     </g>
    </g>
    <g id="ytick_4">
     <g id="line2d_9">
      <g>
       <use xlink:href="#mcc6af8df7f" x="43.09" y="131.513702" style="stroke: #000000; stroke-width: 0.8"/>
      </g>
     </g>
     <g id="text_9">
      <!-- 1500 -->
      <g transform="translate(10.64 135.312921) scale(0.1 -0.1)">
       <use xlink:href="#DejaVuSans-31"/>
       <use xlink:href="#DejaVuSans-35" x="63.623047"/>
       <use xlink:href="#DejaVuSans-30" x="127.246094"/>
       <use xlink:href="#DejaVuSans-30" x="190.869141"/>
      </g>
     </g>
    </g>
    <g id="ytick_5">
     <g id="line2d_10">
      <g>
       <use xlink:href="#mcc6af8df7f" x="43.09" y="101.214936" style="stroke: #000000; stroke-width: 0.8"/>
      </g>
     </g>
     <g id="text_10">
      <!-- 2000 -->
      <g transform="translate(10.64 105.014155) scale(0.1 -0.1)">
       <defs>
        <path id="DejaVuSans-32" d="M 1228 531 
L 3431 531 
L 3431 0 
L 469 0 
L 469 531 
Q 828 903 1448 1529 
Q 2069 2156 2228 2338 
Q 2531 2678 2651 2914 
Q 2772 3150 2772 3378 
Q 2772 3750 2511 3984 
Q 2250 4219 1831 4219 
Q 1534 4219 1204 4116 
Q 875 4013 500 3803 
L 500 4441 
Q 881 4594 1212 4672 
Q 1544 4750 1819 4750 
Q 2544 4750 2975 4387 
Q 3406 4025 3406 3419 
Q 3406 3131 3298 2873 
Q 3191 2616 2906 2266 
Q 2828 2175 2409 1742 
Q 1991 1309 1228 531 
z
" transform="scale(0.015625)"/>
       </defs>
       <use xlink:href="#DejaVuSans-32"/>
       <use xlink:href="#DejaVuSans-30" x="63.623047"/>
       <use xlink:href="#DejaVuSans-30" x="127.246094"/>
       <use xlink:href="#DejaVuSans-30" x="190.869141"/>
      </g>
     </g>
    </g>
    <g id="ytick_6">
     <g id="line2d_11">
      <g>
       <use xlink:href="#mcc6af8df7f" x="43.09" y="70.91617" style="stroke: #000000; stroke-width: 0.8"/>
      </g>
     </g>
     <g id="text_11">
      <!-- 2500 -->
      <g transform="translate(10.64 74.715388) scale(0.1 -0.1)">
       <use xlink:href="#DejaVuSans-32"/>
       <use xlink:href="#DejaVuSans-35" x="63.623047"/>
       <use xlink:href="#DejaVuSans-30" x="127.246094"/>
       <use xlink:href="#DejaVuSans-30" x="190.869141"/>
      </g>
     </g>
    </g>
    <g id="ytick_7">
     <g id="line2d_12">
      <g>
       <use xlink:href="#mcc6af8df7f" x="43.09" y="40.617404" style="stroke: #000000; stroke-width: 0.8"/>
      </g>
     </g>
     <g id="text_12">
      <!-- 3000 -->
      <g transform="translate(10.64 44.416622) scale(0.1 -0.1)">
       <defs>
        <path id="DejaVuSans-33" d="M 2597 2516 
Q 3050 2419 3304 2112 
Q 3559 1806 3559 1356 
Q 3559 666 3084 287 
Q 2609 -91 1734 -91 
Q 1441 -91 1130 -33 
Q 819 25 488 141 
L 488 750 
Q 750 597 1062 519 
Q 1375 441 1716 441 
Q 2309 441 2620 675 
Q 2931 909 2931 1356 
Q 2931 1769 2642 2001 
Q 2353 2234 1838 2234 
L 1294 2234 
L 1294 2753 
L 1863 2753 
Q 2328 2753 2575 2939 
Q 2822 3125 2822 3475 
Q 2822 3834 2567 4026 
Q 2313 4219 1838 4219 
Q 1578 4219 1281 4162 
Q 984 4106 628 3988 
L 628 4550 
Q 988 4650 1302 4700 
Q 1616 4750 1894 4750 
Q 2613 4750 3031 4423 
Q 3450 4097 3450 3541 
Q 3450 3153 3228 2886 
Q 3006 2619 2597 2516 
z
" transform="scale(0.015625)"/>
       </defs>
       <use xlink:href="#DejaVuSans-33"/>
       <use xlink:href="#DejaVuSans-30" x="63.623047"/>
       <use xlink:href="#DejaVuSans-30" x="127.246094"/>
       <use xlink:href="#DejaVuSans-30" x="190.869141"/>
      </g>
     </g>
    </g>
   </g>
   <g id="patch_235">
    <path d="M 43.09 222.41 
L 43.09 10.8 
" style="fill: none; stroke: #000000; stroke-width: 0.8; stroke-linejoin: miter; stroke-linecap: square"/>
   </g>
   <g id="patch_236">
    <path d="M 450 222.41 
L 450 10.8 
" style="fill: none; stroke: #000000; stroke-width: 0.8; stroke-linejoin: miter; stroke-linecap: square"/>
   </g>
   <g id="patch_237">
    <path d="M 43.09 222.41 
L 450 222.41 
" style="fill: none; stroke: #000000; stroke-width: 0.8; stroke-linejoin: miter; stroke-linecap: square"/>
   </g>
   <g id="patch_238">
    <path d="M 43.09 10.8 
L 450 10.8 
" style="fill: none; stroke: #000000; stroke-width: 0.8; stroke-linejoin: miter; stroke-linecap: square"/>
   </g>
  </g>
 </g>
 <defs>
  <clipPath id="p8258b41050">
   <rect x="43.09" y="10.8" width="406.91" height="211.61"/>
  </clipPath>
 </defs>
</svg>
