<?xml version="1.0" encoding="utf-8" standalone="no"?>
<!DOCTYPE svg PUBLIC "-//W3C//DTD SVG 1.1//EN"
  "http://www.w3.org/Graphics/SVG/1.1/DTD/svg11.dtd">
<svg xmlns:xlink="http://www.w3.org/1999/xlink" width="460.8pt" height="345.6pt" viewBox="0 0 460.8 345.6" xmlns="http://www.w3.org/2000/svg" version="1.1">
 <metadata>
  <rdf:RDF xmlns:dc="http://purl.org/dc/elements/1.1/" xmlns:cc="http://creativecommons.org/ns#" xmlns:rdf="http://www.w3.org/1999/02/22-rdf-syntax-ns#">
   <cc:Work>
    <dc:type rdf:resource="http://purl.org/dc/dcmitype/StillImage"/>
    <dc:date>2022-12-20T12:31:09.080329</dc:date>
    <dc:format>image/svg+xml</dc:format>
    <dc:creator>
     <cc:Agent>
      <dc:title>Matplotlib v3.6.0, https://matplotlib.org/</dc:title>
     </cc:Agent>
    </dc:creator>
   </cc:Work>
  </rdf:RDF>
 </metadata>
 <defs>
  <style type="text/css">*{stroke-linejoin: round; stroke-linecap: butt}</style>
 </defs>
 <g id="figure_1">
  <g id="patch_1">
   <path d="M 0 345.6 
L 460.8 345.6 
L 460.8 0 
L 0 0 
z
" style="fill: #ffffff"/>
  </g>
  <g id="axes_1">
   <g id="patch_2">
    <path d="M 43.09 249.05 
L 450 249.05 
L 450 10.8 
L 43.09 10.8 
z
" style="fill: #ffffff"/>
   </g>
   <g id="patch_3">
    <path d="M 63.4355 249.05 
L 104.1265 249.05 
L 104.1265 172.339156 
L 63.4355 172.339156 
z
" clip-path="url(#p246d859f8e)" style="fill: #1f77b4"/>
   </g>
   <g id="patch_4">
    <path d="M 144.8175 249.05 
L 185.5085 249.05 
L 185.5085 190.38147 
L 144.8175 190.38147 
z
" clip-path="url(#p246d859f8e)" style="fill: #1f77b4"/>
   </g>
   <g id="patch_5">
    <path d="M 226.1995 249.05 
L 266.8905 249.05 
L 266.8905 185.014124 
L 226.1995 185.014124 
z
" clip-path="url(#p246d859f8e)" style="fill: #1f77b4"/>
   </g>
   <g id="patch_6">
    <path d="M 307.5815 249.05 
L 348.2725 249.05 
L 348.2725 196.807456 
L 307.5815 196.807456 
z
" clip-path="url(#p246d859f8e)" style="fill: #1f77b4"/>
   </g>
   <g id="patch_7">
    <path d="M 388.9635 249.05 
L 429.6545 249.05 
L 429.6545 217.618693 
L 388.9635 217.618693 
z
" clip-path="url(#p246d859f8e)" style="fill: #1f77b4"/>
   </g>
   <g id="patch_8">
    <path d="M 63.4355 249.05 
L 104.1265 249.05 
L 104.1265 248.845321 
L 63.4355 248.845321 
z
" clip-path="url(#p246d859f8e)" style="fill: #1f77b4"/>
   </g>
   <g id="patch_9">
    <path d="M 144.8175 249.05 
L 185.5085 249.05 
L 185.5085 248.981774 
L 144.8175 248.981774 
z
" clip-path="url(#p246d859f8e)" style="fill: #1f77b4"/>
   </g>
   <g id="patch_10">
    <path d="M 226.1995 249.05 
L 266.8905 249.05 
L 266.8905 249.05 
L 226.1995 249.05 
z
" clip-path="url(#p246d859f8e)" style="fill: #1f77b4"/>
   </g>
   <g id="patch_11">
    <path d="M 63.4355 249.05 
L 104.1265 249.05 
L 104.1265 249.027258 
L 63.4355 249.027258 
z
" clip-path="url(#p246d859f8e)" style="fill: #1f77b4"/>
   </g>
   <g id="patch_12">
    <path d="M 144.8175 249.05 
L 185.5085 249.05 
L 185.5085 249.027258 
L 144.8175 249.027258 
z
" clip-path="url(#p246d859f8e)" style="fill: #1f77b4"/>
   </g>
   <g id="patch_13">
    <path d="M 226.1995 249.05 
L 266.8905 249.05 
L 266.8905 249.027258 
L 226.1995 249.027258 
z
" clip-path="url(#p246d859f8e)" style="fill: #1f77b4"/>
   </g>
   <g id="patch_14">
    <path d="M 307.5815 249.05 
L 348.2725 249.05 
L 348.2725 248.981774 
L 307.5815 248.981774 
z
" clip-path="url(#p246d859f8e)" style="fill: #1f77b4"/>
   </g>
   <g id="patch_15">
    <path d="M 388.9635 249.05 
L 429.6545 249.05 
L 429.6545 249.05 
L 388.9635 249.05 
z
" clip-path="url(#p246d859f8e)" style="fill: #1f77b4"/>
   </g>
   <g id="patch_16">
    <path d="M 63.4355 249.05 
L 104.1265 249.05 
L 104.1265 236.22346 
L 63.4355 236.22346 
z
" clip-path="url(#p246d859f8e)" style="fill: #1f77b4"/>
   </g>
   <g id="patch_17">
    <path d="M 144.8175 249.05 
L 185.5085 249.05 
L 185.5085 245.434007 
L 144.8175 245.434007 
z
" clip-path="url(#p246d859f8e)" style="fill: #1f77b4"/>
   </g>
   <g id="patch_18">
    <path d="M 226.1995 249.05 
L 266.8905 249.05 
L 266.8905 246.082157 
L 226.1995 246.082157 
z
" clip-path="url(#p246d859f8e)" style="fill: #1f77b4"/>
   </g>
   <g id="patch_19">
    <path d="M 307.5815 249.05 
L 348.2725 249.05 
L 348.2725 236.564592 
L 307.5815 236.564592 
z
" clip-path="url(#p246d859f8e)" style="fill: #1f77b4"/>
   </g>
   <g id="patch_20">
    <path d="M 388.9635 249.05 
L 429.6545 249.05 
L 429.6545 247.446683 
L 388.9635 247.446683 
z
" clip-path="url(#p246d859f8e)" style="fill: #1f77b4"/>
   </g>
   <g id="patch_21">
    <path d="M 63.4355 249.05 
L 104.1265 249.05 
L 104.1265 248.981774 
L 63.4355 248.981774 
z
" clip-path="url(#p246d859f8e)" style="fill: #1f77b4"/>
   </g>
   <g id="patch_22">
    <path d="M 144.8175 249.05 
L 185.5085 249.05 
L 185.5085 249.05 
L 144.8175 249.05 
z
" clip-path="url(#p246d859f8e)" style="fill: #1f77b4"/>
   </g>
   <g id="patch_23">
    <path d="M 226.1995 249.05 
L 266.8905 249.05 
L 266.8905 249.05 
L 226.1995 249.05 
z
" clip-path="url(#p246d859f8e)" style="fill: #1f77b4"/>
   </g>
   <g id="patch_24">
    <path d="M 307.5815 249.05 
L 348.2725 249.05 
L 348.2725 249.05 
L 307.5815 249.05 
z
" clip-path="url(#p246d859f8e)" style="fill: #1f77b4"/>
   </g>
   <g id="patch_25">
    <path d="M 63.4355 249.05 
L 104.1265 249.05 
L 104.1265 247.207891 
L 63.4355 247.207891 
z
" clip-path="url(#p246d859f8e)" style="fill: #1f77b4"/>
   </g>
   <g id="patch_26">
    <path d="M 144.8175 249.05 
L 185.5085 249.05 
L 185.5085 248.845321 
L 144.8175 248.845321 
z
" clip-path="url(#p246d859f8e)" style="fill: #1f77b4"/>
   </g>
   <g id="patch_27">
    <path d="M 226.1995 249.05 
L 266.8905 249.05 
L 266.8905 248.981774 
L 226.1995 248.981774 
z
" clip-path="url(#p246d859f8e)" style="fill: #1f77b4"/>
   </g>
   <g id="patch_28">
    <path d="M 307.5815 249.05 
L 348.2725 249.05 
L 348.2725 248.981774 
L 307.5815 248.981774 
z
" clip-path="url(#p246d859f8e)" style="fill: #1f77b4"/>
   </g>
   <g id="patch_29">
    <path d="M 388.9635 249.05 
L 429.6545 249.05 
L 429.6545 248.572416 
L 388.9635 248.572416 
z
" clip-path="url(#p246d859f8e)" style="fill: #1f77b4"/>
   </g>
   <g id="patch_30">
    <path d="M 63.4355 249.05 
L 104.1265 249.05 
L 104.1265 248.913547 
L 63.4355 248.913547 
z
" clip-path="url(#p246d859f8e)" style="fill: #1f77b4"/>
   </g>
   <g id="patch_31">
    <path d="M 144.8175 249.05 
L 185.5085 249.05 
L 185.5085 248.913547 
L 144.8175 248.913547 
z
" clip-path="url(#p246d859f8e)" style="fill: #1f77b4"/>
   </g>
   <g id="patch_32">
    <path d="M 226.1995 249.05 
L 266.8905 249.05 
L 266.8905 248.913547 
L 226.1995 248.913547 
z
" clip-path="url(#p246d859f8e)" style="fill: #1f77b4"/>
   </g>
   <g id="patch_33">
    <path d="M 307.5815 249.05 
L 348.2725 249.05 
L 348.2725 248.913547 
L 307.5815 248.913547 
z
" clip-path="url(#p246d859f8e)" style="fill: #1f77b4"/>
   </g>
   <g id="patch_34">
    <path d="M 388.9635 249.05 
L 429.6545 249.05 
L 429.6545 248.913547 
L 388.9635 248.913547 
z
" clip-path="url(#p246d859f8e)" style="fill: #1f77b4"/>
   </g>
   <g id="patch_35">
    <path d="M 63.4355 249.05 
L 104.1265 249.05 
L 104.1265 248.845321 
L 63.4355 248.845321 
z
" clip-path="url(#p246d859f8e)" style="fill: #1f77b4"/>
   </g>
   <g id="patch_36">
    <path d="M 144.8175 249.05 
L 185.5085 249.05 
L 185.5085 248.879434 
L 144.8175 248.879434 
z
" clip-path="url(#p246d859f8e)" style="fill: #1f77b4"/>
   </g>
   <g id="patch_37">
    <path d="M 226.1995 249.05 
L 266.8905 249.05 
L 266.8905 248.981774 
L 226.1995 248.981774 
z
" clip-path="url(#p246d859f8e)" style="fill: #1f77b4"/>
   </g>
   <g id="patch_38">
    <path d="M 307.5815 249.05 
L 348.2725 249.05 
L 348.2725 249.015887 
L 307.5815 249.015887 
z
" clip-path="url(#p246d859f8e)" style="fill: #1f77b4"/>
   </g>
   <g id="patch_39">
    <path d="M 388.9635 249.05 
L 429.6545 249.05 
L 429.6545 249.015887 
L 388.9635 249.015887 
z
" clip-path="url(#p246d859f8e)" style="fill: #1f77b4"/>
   </g>
   <g id="patch_40">
    <path d="M 63.4355 249.05 
L 104.1265 249.05 
L 104.1265 248.845321 
L 63.4355 248.845321 
z
" clip-path="url(#p246d859f8e)" style="fill: #1f77b4"/>
   </g>
   <g id="patch_41">
    <path d="M 144.8175 249.05 
L 185.5085 249.05 
L 185.5085 249.05 
L 144.8175 249.05 
z
" clip-path="url(#p246d859f8e)" style="fill: #1f77b4"/>
   </g>
   <g id="patch_42">
    <path d="M 226.1995 249.05 
L 266.8905 249.05 
L 266.8905 249.05 
L 226.1995 249.05 
z
" clip-path="url(#p246d859f8e)" style="fill: #1f77b4"/>
   </g>
   <g id="patch_43">
    <path d="M 63.4355 249.05 
L 104.1265 249.05 
L 104.1265 248.845321 
L 63.4355 248.845321 
z
" clip-path="url(#p246d859f8e)" style="fill: #1f77b4"/>
   </g>
   <g id="patch_44">
    <path d="M 144.8175 249.05 
L 185.5085 249.05 
L 185.5085 248.981774 
L 144.8175 248.981774 
z
" clip-path="url(#p246d859f8e)" style="fill: #1f77b4"/>
   </g>
   <g id="patch_45">
    <path d="M 63.4355 249.05 
L 104.1265 249.05 
L 104.1265 173.822408 
L 63.4355 173.822408 
z
" clip-path="url(#p246d859f8e)" style="fill: #1f77b4"/>
   </g>
   <g id="patch_46">
    <path d="M 144.8175 249.05 
L 185.5085 249.05 
L 185.5085 194.996195 
L 144.8175 194.996195 
z
" clip-path="url(#p246d859f8e)" style="fill: #1f77b4"/>
   </g>
   <g id="patch_47">
    <path d="M 226.1995 249.05 
L 266.8905 249.05 
L 266.8905 202.068286 
L 226.1995 202.068286 
z
" clip-path="url(#p246d859f8e)" style="fill: #1f77b4"/>
   </g>
   <g id="patch_48">
    <path d="M 307.5815 249.05 
L 348.2725 249.05 
L 348.2725 195.183944 
L 307.5815 195.183944 
z
" clip-path="url(#p246d859f8e)" style="fill: #1f77b4"/>
   </g>
   <g id="patch_49">
    <path d="M 388.9635 249.05 
L 429.6545 249.05 
L 429.6545 209.43205 
L 388.9635 209.43205 
z
" clip-path="url(#p246d859f8e)" style="fill: #1f77b4"/>
   </g>
   <g id="patch_50">
    <path d="M 63.4355 249.05 
L 104.1265 249.05 
L 104.1265 249.05 
L 63.4355 249.05 
z
" clip-path="url(#p246d859f8e)" style="fill: #1f77b4"/>
   </g>
   <g id="patch_51">
    <path d="M 144.8175 249.05 
L 185.5085 249.05 
L 185.5085 249.05 
L 144.8175 249.05 
z
" clip-path="url(#p246d859f8e)" style="fill: #1f77b4"/>
   </g>
   <g id="patch_52">
    <path d="M 226.1995 249.05 
L 266.8905 249.05 
L 266.8905 249.05 
L 226.1995 249.05 
z
" clip-path="url(#p246d859f8e)" style="fill: #1f77b4"/>
   </g>
   <g id="patch_53">
    <path d="M 307.5815 249.05 
L 348.2725 249.05 
L 348.2725 249.05 
L 307.5815 249.05 
z
" clip-path="url(#p246d859f8e)" style="fill: #1f77b4"/>
   </g>
   <g id="patch_54">
    <path d="M 388.9635 249.05 
L 429.6545 249.05 
L 429.6545 249.05 
L 388.9635 249.05 
z
" clip-path="url(#p246d859f8e)" style="fill: #1f77b4"/>
   </g>
   <g id="patch_55">
    <path d="M 63.4355 249.05 
L 104.1265 249.05 
L 104.1265 248.981774 
L 63.4355 248.981774 
z
" clip-path="url(#p246d859f8e)" style="fill: #1f77b4"/>
   </g>
   <g id="patch_56">
    <path d="M 144.8175 249.05 
L 185.5085 249.05 
L 185.5085 249.05 
L 144.8175 249.05 
z
" clip-path="url(#p246d859f8e)" style="fill: #1f77b4"/>
   </g>
   <g id="patch_57">
    <path d="M 226.1995 249.05 
L 266.8905 249.05 
L 266.8905 249.05 
L 226.1995 249.05 
z
" clip-path="url(#p246d859f8e)" style="fill: #1f77b4"/>
   </g>
   <g id="patch_58">
    <path d="M 307.5815 249.05 
L 348.2725 249.05 
L 348.2725 249.05 
L 307.5815 249.05 
z
" clip-path="url(#p246d859f8e)" style="fill: #1f77b4"/>
   </g>
   <g id="patch_59">
    <path d="M 388.9635 249.05 
L 429.6545 249.05 
L 429.6545 249.05 
L 388.9635 249.05 
z
" clip-path="url(#p246d859f8e)" style="fill: #1f77b4"/>
   </g>
   <g id="patch_60">
    <path d="M 63.4355 249.05 
L 104.1265 249.05 
L 104.1265 248.674755 
L 63.4355 248.674755 
z
" clip-path="url(#p246d859f8e)" style="fill: #1f77b4"/>
   </g>
   <g id="patch_61">
    <path d="M 144.8175 249.05 
L 185.5085 249.05 
L 185.5085 248.845321 
L 144.8175 248.845321 
z
" clip-path="url(#p246d859f8e)" style="fill: #1f77b4"/>
   </g>
   <g id="patch_62">
    <path d="M 226.1995 249.05 
L 266.8905 249.05 
L 266.8905 249.015887 
L 226.1995 249.015887 
z
" clip-path="url(#p246d859f8e)" style="fill: #1f77b4"/>
   </g>
   <g id="patch_63">
    <path d="M 307.5815 249.05 
L 348.2725 249.05 
L 348.2725 249.05 
L 307.5815 249.05 
z
" clip-path="url(#p246d859f8e)" style="fill: #1f77b4"/>
   </g>
   <g id="patch_64">
    <path d="M 388.9635 249.05 
L 429.6545 249.05 
L 429.6545 249.05 
L 388.9635 249.05 
z
" clip-path="url(#p246d859f8e)" style="fill: #1f77b4"/>
   </g>
   <g id="patch_65">
    <path d="M 63.4355 249.05 
L 104.1265 249.05 
L 104.1265 241.510997 
L 63.4355 241.510997 
z
" clip-path="url(#p246d859f8e)" style="fill: #1f77b4"/>
   </g>
   <g id="patch_66">
    <path d="M 144.8175 249.05 
L 185.5085 249.05 
L 185.5085 248.367737 
L 144.8175 248.367737 
z
" clip-path="url(#p246d859f8e)" style="fill: #1f77b4"/>
   </g>
   <g id="patch_67">
    <path d="M 226.1995 249.05 
L 266.8905 249.05 
L 266.8905 244.933681 
L 226.1995 244.933681 
z
" clip-path="url(#p246d859f8e)" style="fill: #1f77b4"/>
   </g>
   <g id="patch_68">
    <path d="M 307.5815 249.05 
L 348.2725 249.05 
L 348.2725 243.864803 
L 307.5815 243.864803 
z
" clip-path="url(#p246d859f8e)" style="fill: #1f77b4"/>
   </g>
   <g id="patch_69">
    <path d="M 388.9635 249.05 
L 429.6545 249.05 
L 429.6545 244.854084 
L 388.9635 244.854084 
z
" clip-path="url(#p246d859f8e)" style="fill: #1f77b4"/>
   </g>
   <g id="patch_70">
    <path d="M 63.4355 249.05 
L 104.1265 249.05 
L 104.1265 226.345007 
L 63.4355 226.345007 
z
" clip-path="url(#p246d859f8e)" style="fill: #1f77b4"/>
   </g>
   <g id="patch_71">
    <path d="M 144.8175 249.05 
L 185.5085 249.05 
L 185.5085 229.603191 
L 144.8175 229.603191 
z
" clip-path="url(#p246d859f8e)" style="fill: #1f77b4"/>
   </g>
   <g id="patch_72">
    <path d="M 226.1995 249.05 
L 266.8905 249.05 
L 266.8905 201.823135 
L 226.1995 201.823135 
z
" clip-path="url(#p246d859f8e)" style="fill: #1f77b4"/>
   </g>
   <g id="patch_73">
    <path d="M 307.5815 249.05 
L 348.2725 249.05 
L 348.2725 220.571218 
L 307.5815 220.571218 
z
" clip-path="url(#p246d859f8e)" style="fill: #1f77b4"/>
   </g>
   <g id="patch_74">
    <path d="M 388.9635 249.05 
L 429.6545 249.05 
L 429.6545 201.512193 
L 388.9635 201.512193 
z
" clip-path="url(#p246d859f8e)" style="fill: #1f77b4"/>
   </g>
   <g id="patch_75">
    <path d="M 63.4355 249.05 
L 104.1265 249.05 
L 104.1265 249.05 
L 63.4355 249.05 
z
" clip-path="url(#p246d859f8e)" style="fill: #1f77b4"/>
   </g>
   <g id="patch_76">
    <path d="M 144.8175 249.05 
L 185.5085 249.05 
L 185.5085 249.05 
L 144.8175 249.05 
z
" clip-path="url(#p246d859f8e)" style="fill: #1f77b4"/>
   </g>
   <g id="patch_77">
    <path d="M 63.4355 249.05 
L 104.1265 249.05 
L 104.1265 248.197172 
L 63.4355 248.197172 
z
" clip-path="url(#p246d859f8e)" style="fill: #1f77b4"/>
   </g>
   <g id="patch_78">
    <path d="M 144.8175 249.05 
L 185.5085 249.05 
L 185.5085 248.367737 
L 144.8175 248.367737 
z
" clip-path="url(#p246d859f8e)" style="fill: #1f77b4"/>
   </g>
   <g id="patch_79">
    <path d="M 226.1995 249.05 
L 266.8905 249.05 
L 266.8905 248.640642 
L 226.1995 248.640642 
z
" clip-path="url(#p246d859f8e)" style="fill: #1f77b4"/>
   </g>
   <g id="patch_80">
    <path d="M 307.5815 249.05 
L 348.2725 249.05 
L 348.2725 248.981774 
L 307.5815 248.981774 
z
" clip-path="url(#p246d859f8e)" style="fill: #1f77b4"/>
   </g>
   <g id="patch_81">
    <path d="M 388.9635 249.05 
L 429.6545 249.05 
L 429.6545 248.913547 
L 388.9635 248.913547 
z
" clip-path="url(#p246d859f8e)" style="fill: #1f77b4"/>
   </g>
   <g id="patch_82">
    <path d="M 63.4355 249.05 
L 104.1265 249.05 
L 104.1265 248.845321 
L 63.4355 248.845321 
z
" clip-path="url(#p246d859f8e)" style="fill: #1f77b4"/>
   </g>
   <g id="patch_83">
    <path d="M 144.8175 249.05 
L 185.5085 249.05 
L 185.5085 248.845321 
L 144.8175 248.845321 
z
" clip-path="url(#p246d859f8e)" style="fill: #1f77b4"/>
   </g>
   <g id="patch_84">
    <path d="M 226.1995 249.05 
L 266.8905 249.05 
L 266.8905 248.981774 
L 226.1995 248.981774 
z
" clip-path="url(#p246d859f8e)" style="fill: #1f77b4"/>
   </g>
   <g id="patch_85">
    <path d="M 307.5815 249.05 
L 348.2725 249.05 
L 348.2725 249.05 
L 307.5815 249.05 
z
" clip-path="url(#p246d859f8e)" style="fill: #1f77b4"/>
   </g>
   <g id="patch_86">
    <path d="M 388.9635 249.05 
L 429.6545 249.05 
L 429.6545 249.05 
L 388.9635 249.05 
z
" clip-path="url(#p246d859f8e)" style="fill: #1f77b4"/>
   </g>
   <g id="patch_87">
    <path d="M 63.4355 249.05 
L 104.1265 249.05 
L 104.1265 247.617248 
L 63.4355 247.617248 
z
" clip-path="url(#p246d859f8e)" style="fill: #1f77b4"/>
   </g>
   <g id="patch_88">
    <path d="M 144.8175 249.05 
L 185.5085 249.05 
L 185.5085 249.015887 
L 144.8175 249.015887 
z
" clip-path="url(#p246d859f8e)" style="fill: #1f77b4"/>
   </g>
   <g id="patch_89">
    <path d="M 226.1995 249.05 
L 266.8905 249.05 
L 266.8905 249.015887 
L 226.1995 249.015887 
z
" clip-path="url(#p246d859f8e)" style="fill: #1f77b4"/>
   </g>
   <g id="patch_90">
    <path d="M 307.5815 249.05 
L 348.2725 249.05 
L 348.2725 249.015887 
L 307.5815 249.015887 
z
" clip-path="url(#p246d859f8e)" style="fill: #1f77b4"/>
   </g>
   <g id="patch_91">
    <path d="M 388.9635 249.05 
L 429.6545 249.05 
L 429.6545 249.015887 
L 388.9635 249.015887 
z
" clip-path="url(#p246d859f8e)" style="fill: #1f77b4"/>
   </g>
   <g id="patch_92">
    <path d="M 63.4355 249.05 
L 104.1265 249.05 
L 104.1265 249.05 
L 63.4355 249.05 
z
" clip-path="url(#p246d859f8e)" style="fill: #1f77b4"/>
   </g>
   <g id="patch_93">
    <path d="M 63.4355 249.05 
L 104.1265 249.05 
L 104.1265 248.708869 
L 63.4355 248.708869 
z
" clip-path="url(#p246d859f8e)" style="fill: #1f77b4"/>
   </g>
   <g id="patch_94">
    <path d="M 144.8175 249.05 
L 185.5085 249.05 
L 185.5085 248.708869 
L 144.8175 248.708869 
z
" clip-path="url(#p246d859f8e)" style="fill: #1f77b4"/>
   </g>
   <g id="patch_95">
    <path d="M 226.1995 249.05 
L 266.8905 249.05 
L 266.8905 248.981774 
L 226.1995 248.981774 
z
" clip-path="url(#p246d859f8e)" style="fill: #1f77b4"/>
   </g>
   <g id="patch_96">
    <path d="M 63.4355 249.05 
L 104.1265 249.05 
L 104.1265 247.617248 
L 63.4355 247.617248 
z
" clip-path="url(#p246d859f8e)" style="fill: #1f77b4"/>
   </g>
   <g id="patch_97">
    <path d="M 144.8175 249.05 
L 185.5085 249.05 
L 185.5085 248.981774 
L 144.8175 248.981774 
z
" clip-path="url(#p246d859f8e)" style="fill: #1f77b4"/>
   </g>
   <g id="patch_98">
    <path d="M 226.1995 249.05 
L 266.8905 249.05 
L 266.8905 248.981774 
L 226.1995 248.981774 
z
" clip-path="url(#p246d859f8e)" style="fill: #1f77b4"/>
   </g>
   <g id="patch_99">
    <path d="M 307.5815 249.05 
L 348.2725 249.05 
L 348.2725 249.05 
L 307.5815 249.05 
z
" clip-path="url(#p246d859f8e)" style="fill: #1f77b4"/>
   </g>
   <g id="patch_100">
    <path d="M 388.9635 249.05 
L 429.6545 249.05 
L 429.6545 249.05 
L 388.9635 249.05 
z
" clip-path="url(#p246d859f8e)" style="fill: #1f77b4"/>
   </g>
   <g id="patch_101">
    <path d="M 63.4355 249.05 
L 104.1265 249.05 
L 104.1265 249.05 
L 63.4355 249.05 
z
" clip-path="url(#p246d859f8e)" style="fill: #1f77b4"/>
   </g>
   <g id="patch_102">
    <path d="M 63.4355 249.05 
L 104.1265 249.05 
L 104.1265 171.924303 
L 63.4355 171.924303 
z
" clip-path="url(#p246d859f8e)" style="fill: #1f77b4"/>
   </g>
   <g id="patch_103">
    <path d="M 144.8175 249.05 
L 185.5085 249.05 
L 185.5085 188.894593 
L 144.8175 188.894593 
z
" clip-path="url(#p246d859f8e)" style="fill: #1f77b4"/>
   </g>
   <g id="patch_104">
    <path d="M 226.1995 249.05 
L 266.8905 249.05 
L 266.8905 200.371671 
L 226.1995 200.371671 
z
" clip-path="url(#p246d859f8e)" style="fill: #1f77b4"/>
   </g>
   <g id="patch_105">
    <path d="M 307.5815 249.05 
L 348.2725 249.05 
L 348.2725 209.216728 
L 307.5815 209.216728 
z
" clip-path="url(#p246d859f8e)" style="fill: #1f77b4"/>
   </g>
   <g id="patch_106">
    <path d="M 388.9635 249.05 
L 429.6545 249.05 
L 429.6545 215.52604 
L 388.9635 215.52604 
z
" clip-path="url(#p246d859f8e)" style="fill: #1f77b4"/>
   </g>
   <g id="patch_107">
    <path d="M 63.4355 249.05 
L 104.1265 249.05 
L 104.1265 248.708869 
L 63.4355 248.708869 
z
" clip-path="url(#p246d859f8e)" style="fill: #1f77b4"/>
   </g>
   <g id="patch_108">
    <path d="M 144.8175 249.05 
L 185.5085 249.05 
L 185.5085 248.708869 
L 144.8175 248.708869 
z
" clip-path="url(#p246d859f8e)" style="fill: #1f77b4"/>
   </g>
   <g id="patch_109">
    <path d="M 226.1995 249.05 
L 266.8905 249.05 
L 266.8905 248.708869 
L 226.1995 248.708869 
z
" clip-path="url(#p246d859f8e)" style="fill: #1f77b4"/>
   </g>
   <g id="patch_110">
    <path d="M 307.5815 249.05 
L 348.2725 249.05 
L 348.2725 249.015887 
L 307.5815 249.015887 
z
" clip-path="url(#p246d859f8e)" style="fill: #1f77b4"/>
   </g>
   <g id="patch_111">
    <path d="M 388.9635 249.05 
L 429.6545 249.05 
L 429.6545 249.015887 
L 388.9635 249.015887 
z
" clip-path="url(#p246d859f8e)" style="fill: #1f77b4"/>
   </g>
   <g id="patch_112">
    <path d="M 63.4355 249.05 
L 104.1265 249.05 
L 104.1265 208.765981 
L 63.4355 208.765981 
z
" clip-path="url(#p246d859f8e)" style="fill: #1f77b4"/>
   </g>
   <g id="patch_113">
    <path d="M 144.8175 249.05 
L 185.5085 249.05 
L 185.5085 208.844513 
L 144.8175 208.844513 
z
" clip-path="url(#p246d859f8e)" style="fill: #1f77b4"/>
   </g>
   <g id="patch_114">
    <path d="M 226.1995 249.05 
L 266.8905 249.05 
L 266.8905 222.581188 
L 226.1995 222.581188 
z
" clip-path="url(#p246d859f8e)" style="fill: #1f77b4"/>
   </g>
   <g id="patch_115">
    <path d="M 307.5815 249.05 
L 348.2725 249.05 
L 348.2725 221.391021 
L 307.5815 221.391021 
z
" clip-path="url(#p246d859f8e)" style="fill: #1f77b4"/>
   </g>
   <g id="patch_116">
    <path d="M 388.9635 249.05 
L 429.6545 249.05 
L 429.6545 208.477307 
L 388.9635 208.477307 
z
" clip-path="url(#p246d859f8e)" style="fill: #1f77b4"/>
   </g>
   <g id="patch_117">
    <path d="M 63.4355 249.05 
L 104.1265 249.05 
L 104.1265 248.640642 
L 63.4355 248.640642 
z
" clip-path="url(#p246d859f8e)" style="fill: #1f77b4"/>
   </g>
   <g id="patch_118">
    <path d="M 144.8175 249.05 
L 185.5085 249.05 
L 185.5085 248.708869 
L 144.8175 248.708869 
z
" clip-path="url(#p246d859f8e)" style="fill: #1f77b4"/>
   </g>
   <g id="patch_119">
    <path d="M 226.1995 249.05 
L 266.8905 249.05 
L 266.8905 248.845321 
L 226.1995 248.845321 
z
" clip-path="url(#p246d859f8e)" style="fill: #1f77b4"/>
   </g>
   <g id="patch_120">
    <path d="M 307.5815 249.05 
L 348.2725 249.05 
L 348.2725 248.913547 
L 307.5815 248.913547 
z
" clip-path="url(#p246d859f8e)" style="fill: #1f77b4"/>
   </g>
   <g id="patch_121">
    <path d="M 388.9635 249.05 
L 429.6545 249.05 
L 429.6545 249.015887 
L 388.9635 249.015887 
z
" clip-path="url(#p246d859f8e)" style="fill: #1f77b4"/>
   </g>
   <g id="patch_122">
    <path d="M 63.4355 249.05 
L 104.1265 249.05 
L 104.1265 248.845321 
L 63.4355 248.845321 
z
" clip-path="url(#p246d859f8e)" style="fill: #1f77b4"/>
   </g>
   <g id="patch_123">
    <path d="M 144.8175 249.05 
L 185.5085 249.05 
L 185.5085 249.015887 
L 144.8175 249.015887 
z
" clip-path="url(#p246d859f8e)" style="fill: #1f77b4"/>
   </g>
   <g id="patch_124">
    <path d="M 226.1995 249.05 
L 266.8905 249.05 
L 266.8905 249.015887 
L 226.1995 249.015887 
z
" clip-path="url(#p246d859f8e)" style="fill: #1f77b4"/>
   </g>
   <g id="patch_125">
    <path d="M 307.5815 249.05 
L 348.2725 249.05 
L 348.2725 248.981774 
L 307.5815 248.981774 
z
" clip-path="url(#p246d859f8e)" style="fill: #1f77b4"/>
   </g>
   <g id="patch_126">
    <path d="M 388.9635 249.05 
L 429.6545 249.05 
L 429.6545 249.05 
L 388.9635 249.05 
z
" clip-path="url(#p246d859f8e)" style="fill: #1f77b4"/>
   </g>
   <g id="patch_127">
    <path d="M 63.4355 249.05 
L 104.1265 249.05 
L 104.1265 248.845321 
L 63.4355 248.845321 
z
" clip-path="url(#p246d859f8e)" style="fill: #1f77b4"/>
   </g>
   <g id="patch_128">
    <path d="M 144.8175 249.05 
L 185.5085 249.05 
L 185.5085 248.981774 
L 144.8175 248.981774 
z
" clip-path="url(#p246d859f8e)" style="fill: #1f77b4"/>
   </g>
   <g id="patch_129">
    <path d="M 226.1995 249.05 
L 266.8905 249.05 
L 266.8905 249.05 
L 226.1995 249.05 
z
" clip-path="url(#p246d859f8e)" style="fill: #1f77b4"/>
   </g>
   <g id="patch_130">
    <path d="M 307.5815 249.05 
L 348.2725 249.05 
L 348.2725 249.05 
L 307.5815 249.05 
z
" clip-path="url(#p246d859f8e)" style="fill: #1f77b4"/>
   </g>
   <g id="patch_131">
    <path d="M 388.9635 249.05 
L 429.6545 249.05 
L 429.6545 249.05 
L 388.9635 249.05 
z
" clip-path="url(#p246d859f8e)" style="fill: #1f77b4"/>
   </g>
   <g id="patch_132">
    <path d="M 63.4355 249.05 
L 104.1265 249.05 
L 104.1265 247.249963 
L 63.4355 247.249963 
z
" clip-path="url(#p246d859f8e)" style="fill: #1f77b4"/>
   </g>
   <g id="patch_133">
    <path d="M 144.8175 249.05 
L 185.5085 249.05 
L 185.5085 248.640642 
L 144.8175 248.640642 
z
" clip-path="url(#p246d859f8e)" style="fill: #1f77b4"/>
   </g>
   <g id="patch_134">
    <path d="M 226.1995 249.05 
L 266.8905 249.05 
L 266.8905 248.078913 
L 226.1995 248.078913 
z
" clip-path="url(#p246d859f8e)" style="fill: #1f77b4"/>
   </g>
   <g id="patch_135">
    <path d="M 307.5815 249.05 
L 348.2725 249.05 
L 348.2725 248.078913 
L 307.5815 248.078913 
z
" clip-path="url(#p246d859f8e)" style="fill: #1f77b4"/>
   </g>
   <g id="patch_136">
    <path d="M 388.9635 249.05 
L 429.6545 249.05 
L 429.6545 248.078913 
L 388.9635 248.078913 
z
" clip-path="url(#p246d859f8e)" style="fill: #1f77b4"/>
   </g>
   <g id="patch_137">
    <path d="M 63.4355 249.05 
L 104.1265 249.05 
L 104.1265 235.131461 
L 63.4355 235.131461 
z
" clip-path="url(#p246d859f8e)" style="fill: #1f77b4"/>
   </g>
   <g id="patch_138">
    <path d="M 144.8175 249.05 
L 185.5085 249.05 
L 185.5085 237.746043 
L 144.8175 237.746043 
z
" clip-path="url(#p246d859f8e)" style="fill: #1f77b4"/>
   </g>
   <g id="patch_139">
    <path d="M 226.1995 249.05 
L 266.8905 249.05 
L 266.8905 247.128293 
L 226.1995 247.128293 
z
" clip-path="url(#p246d859f8e)" style="fill: #1f77b4"/>
   </g>
   <g id="patch_140">
    <path d="M 307.5815 249.05 
L 348.2725 249.05 
L 348.2725 248.794151 
L 307.5815 248.794151 
z
" clip-path="url(#p246d859f8e)" style="fill: #1f77b4"/>
   </g>
   <g id="patch_141">
    <path d="M 388.9635 249.05 
L 429.6545 249.05 
L 429.6545 248.794151 
L 388.9635 248.794151 
z
" clip-path="url(#p246d859f8e)" style="fill: #1f77b4"/>
   </g>
   <g id="patch_142">
    <path d="M 63.4355 249.05 
L 104.1265 249.05 
L 104.1265 247.531965 
L 63.4355 247.531965 
z
" clip-path="url(#p246d859f8e)" style="fill: #1f77b4"/>
   </g>
   <g id="patch_143">
    <path d="M 144.8175 249.05 
L 185.5085 249.05 
L 185.5085 248.060719 
L 144.8175 248.060719 
z
" clip-path="url(#p246d859f8e)" style="fill: #1f77b4"/>
   </g>
   <g id="patch_144">
    <path d="M 226.1995 249.05 
L 266.8905 249.05 
L 266.8905 248.845321 
L 226.1995 248.845321 
z
" clip-path="url(#p246d859f8e)" style="fill: #1f77b4"/>
   </g>
   <g id="patch_145">
    <path d="M 307.5815 249.05 
L 348.2725 249.05 
L 348.2725 248.899902 
L 307.5815 248.899902 
z
" clip-path="url(#p246d859f8e)" style="fill: #1f77b4"/>
   </g>
   <g id="patch_146">
    <path d="M 388.9635 249.05 
L 429.6545 249.05 
L 429.6545 248.708869 
L 388.9635 248.708869 
z
" clip-path="url(#p246d859f8e)" style="fill: #1f77b4"/>
   </g>
   <g id="patch_147">
    <path d="M 63.4355 249.05 
L 104.1265 249.05 
L 104.1265 248.905967 
L 63.4355 248.905967 
z
" clip-path="url(#p246d859f8e)" style="fill: #1f77b4"/>
   </g>
   <g id="patch_148">
    <path d="M 144.8175 249.05 
L 185.5085 249.05 
L 185.5085 249.015887 
L 144.8175 249.015887 
z
" clip-path="url(#p246d859f8e)" style="fill: #1f77b4"/>
   </g>
   <g id="patch_149">
    <path d="M 226.1995 249.05 
L 266.8905 249.05 
L 266.8905 249.015887 
L 226.1995 249.015887 
z
" clip-path="url(#p246d859f8e)" style="fill: #1f77b4"/>
   </g>
   <g id="patch_150">
    <path d="M 307.5815 249.05 
L 348.2725 249.05 
L 348.2725 249.042419 
L 307.5815 249.042419 
z
" clip-path="url(#p246d859f8e)" style="fill: #1f77b4"/>
   </g>
   <g id="patch_151">
    <path d="M 388.9635 249.05 
L 429.6545 249.05 
L 429.6545 249.042419 
L 388.9635 249.042419 
z
" clip-path="url(#p246d859f8e)" style="fill: #1f77b4"/>
   </g>
   <g id="patch_152">
    <path d="M 63.4355 249.05 
L 104.1265 249.05 
L 104.1265 248.754353 
L 63.4355 248.754353 
z
" clip-path="url(#p246d859f8e)" style="fill: #1f77b4"/>
   </g>
   <g id="patch_153">
    <path d="M 144.8175 249.05 
L 185.5085 249.05 
L 185.5085 248.890805 
L 144.8175 248.890805 
z
" clip-path="url(#p246d859f8e)" style="fill: #1f77b4"/>
   </g>
   <g id="patch_154">
    <path d="M 226.1995 249.05 
L 266.8905 249.05 
L 266.8905 248.845321 
L 226.1995 248.845321 
z
" clip-path="url(#p246d859f8e)" style="fill: #1f77b4"/>
   </g>
   <g id="patch_155">
    <path d="M 307.5815 249.05 
L 348.2725 249.05 
L 348.2725 248.777095 
L 307.5815 248.777095 
z
" clip-path="url(#p246d859f8e)" style="fill: #1f77b4"/>
   </g>
   <g id="patch_156">
    <path d="M 388.9635 249.05 
L 429.6545 249.05 
L 429.6545 248.981774 
L 388.9635 248.981774 
z
" clip-path="url(#p246d859f8e)" style="fill: #1f77b4"/>
   </g>
   <g id="patch_157">
    <path d="M 63.4355 249.05 
L 104.1265 249.05 
L 104.1265 249.05 
L 63.4355 249.05 
z
" clip-path="url(#p246d859f8e)" style="fill: #1f77b4"/>
   </g>
   <g id="patch_158">
    <path d="M 144.8175 249.05 
L 185.5085 249.05 
L 185.5085 249.05 
L 144.8175 249.05 
z
" clip-path="url(#p246d859f8e)" style="fill: #1f77b4"/>
   </g>
   <g id="patch_159">
    <path d="M 226.1995 249.05 
L 266.8905 249.05 
L 266.8905 249.05 
L 226.1995 249.05 
z
" clip-path="url(#p246d859f8e)" style="fill: #1f77b4"/>
   </g>
   <g id="patch_160">
    <path d="M 307.5815 249.05 
L 348.2725 249.05 
L 348.2725 249.05 
L 307.5815 249.05 
z
" clip-path="url(#p246d859f8e)" style="fill: #1f77b4"/>
   </g>
   <g id="patch_161">
    <path d="M 63.4355 249.05 
L 104.1265 249.05 
L 104.1265 249.05 
L 63.4355 249.05 
z
" clip-path="url(#p246d859f8e)" style="fill: #1f77b4"/>
   </g>
   <g id="patch_162">
    <path d="M 144.8175 249.05 
L 185.5085 249.05 
L 185.5085 249.05 
L 144.8175 249.05 
z
" clip-path="url(#p246d859f8e)" style="fill: #1f77b4"/>
   </g>
   <g id="patch_163">
    <path d="M 226.1995 249.05 
L 266.8905 249.05 
L 266.8905 249.05 
L 226.1995 249.05 
z
" clip-path="url(#p246d859f8e)" style="fill: #1f77b4"/>
   </g>
   <g id="patch_164">
    <path d="M 63.4355 249.05 
L 104.1265 249.05 
L 104.1265 249.05 
L 63.4355 249.05 
z
" clip-path="url(#p246d859f8e)" style="fill: #1f77b4"/>
   </g>
   <g id="patch_165">
    <path d="M 144.8175 249.05 
L 185.5085 249.05 
L 185.5085 249.05 
L 144.8175 249.05 
z
" clip-path="url(#p246d859f8e)" style="fill: #1f77b4"/>
   </g>
   <g id="patch_166">
    <path d="M 226.1995 249.05 
L 266.8905 249.05 
L 266.8905 249.05 
L 226.1995 249.05 
z
" clip-path="url(#p246d859f8e)" style="fill: #1f77b4"/>
   </g>
   <g id="patch_167">
    <path d="M 307.5815 249.05 
L 348.2725 249.05 
L 348.2725 249.05 
L 307.5815 249.05 
z
" clip-path="url(#p246d859f8e)" style="fill: #1f77b4"/>
   </g>
   <g id="patch_168">
    <path d="M 63.4355 249.05 
L 104.1265 249.05 
L 104.1265 249.05 
L 63.4355 249.05 
z
" clip-path="url(#p246d859f8e)" style="fill: #1f77b4"/>
   </g>
   <g id="patch_169">
    <path d="M 144.8175 249.05 
L 185.5085 249.05 
L 185.5085 249.05 
L 144.8175 249.05 
z
" clip-path="url(#p246d859f8e)" style="fill: #1f77b4"/>
   </g>
   <g id="patch_170">
    <path d="M 63.4355 249.05 
L 104.1265 249.05 
L 104.1265 22.145238 
L 63.4355 22.145238 
z
" clip-path="url(#p246d859f8e)" style="fill: #1f77b4"/>
   </g>
   <g id="patch_171">
    <path d="M 144.8175 249.05 
L 185.5085 249.05 
L 185.5085 104.493251 
L 144.8175 104.493251 
z
" clip-path="url(#p246d859f8e)" style="fill: #1f77b4"/>
   </g>
   <g id="patch_172">
    <path d="M 226.1995 249.05 
L 266.8905 249.05 
L 266.8905 141.537999 
L 226.1995 141.537999 
z
" clip-path="url(#p246d859f8e)" style="fill: #1f77b4"/>
   </g>
   <g id="patch_173">
    <path d="M 307.5815 249.05 
L 348.2725 249.05 
L 348.2725 132.764871 
L 307.5815 132.764871 
z
" clip-path="url(#p246d859f8e)" style="fill: #1f77b4"/>
   </g>
   <g id="patch_174">
    <path d="M 388.9635 249.05 
L 429.6545 249.05 
L 429.6545 155.831058 
L 388.9635 155.831058 
z
" clip-path="url(#p246d859f8e)" style="fill: #1f77b4"/>
   </g>
   <g id="patch_175">
    <path d="M 63.4355 249.05 
L 104.1265 249.05 
L 104.1265 248.691812 
L 63.4355 248.691812 
z
" clip-path="url(#p246d859f8e)" style="fill: #1f77b4"/>
   </g>
   <g id="patch_176">
    <path d="M 144.8175 249.05 
L 185.5085 249.05 
L 185.5085 248.981774 
L 144.8175 248.981774 
z
" clip-path="url(#p246d859f8e)" style="fill: #1f77b4"/>
   </g>
   <g id="patch_177">
    <path d="M 226.1995 249.05 
L 266.8905 249.05 
L 266.8905 248.981774 
L 226.1995 248.981774 
z
" clip-path="url(#p246d859f8e)" style="fill: #1f77b4"/>
   </g>
   <g id="patch_178">
    <path d="M 307.5815 249.05 
L 348.2725 249.05 
L 348.2725 248.981774 
L 307.5815 248.981774 
z
" clip-path="url(#p246d859f8e)" style="fill: #1f77b4"/>
   </g>
   <g id="patch_179">
    <path d="M 388.9635 249.05 
L 429.6545 249.05 
L 429.6545 248.947661 
L 388.9635 248.947661 
z
" clip-path="url(#p246d859f8e)" style="fill: #1f77b4"/>
   </g>
   <g id="patch_180">
    <path d="M 63.4355 249.05 
L 104.1265 249.05 
L 104.1265 44.054584 
L 63.4355 44.054584 
z
" clip-path="url(#p246d859f8e)" style="fill: #1f77b4"/>
   </g>
   <g id="patch_181">
    <path d="M 144.8175 249.05 
L 185.5085 249.05 
L 185.5085 143.453661 
L 144.8175 143.453661 
z
" clip-path="url(#p246d859f8e)" style="fill: #1f77b4"/>
   </g>
   <g id="patch_182">
    <path d="M 226.1995 249.05 
L 266.8905 249.05 
L 266.8905 174.053345 
L 226.1995 174.053345 
z
" clip-path="url(#p246d859f8e)" style="fill: #1f77b4"/>
   </g>
   <g id="patch_183">
    <path d="M 307.5815 249.05 
L 348.2725 249.05 
L 348.2725 163.023307 
L 307.5815 163.023307 
z
" clip-path="url(#p246d859f8e)" style="fill: #1f77b4"/>
   </g>
   <g id="patch_184">
    <path d="M 388.9635 249.05 
L 429.6545 249.05 
L 429.6545 190.61482 
L 388.9635 190.61482 
z
" clip-path="url(#p246d859f8e)" style="fill: #1f77b4"/>
   </g>
   <g id="patch_185">
    <path d="M 63.4355 249.05 
L 104.1265 249.05 
L 104.1265 245.149731 
L 63.4355 245.149731 
z
" clip-path="url(#p246d859f8e)" style="fill: #1f77b4"/>
   </g>
   <g id="patch_186">
    <path d="M 144.8175 249.05 
L 185.5085 249.05 
L 185.5085 245.809252 
L 144.8175 245.809252 
z
" clip-path="url(#p246d859f8e)" style="fill: #1f77b4"/>
   </g>
   <g id="patch_187">
    <path d="M 226.1995 249.05 
L 266.8905 249.05 
L 266.8905 248.595158 
L 226.1995 248.595158 
z
" clip-path="url(#p246d859f8e)" style="fill: #1f77b4"/>
   </g>
   <g id="patch_188">
    <path d="M 307.5815 249.05 
L 348.2725 249.05 
L 348.2725 248.595158 
L 307.5815 248.595158 
z
" clip-path="url(#p246d859f8e)" style="fill: #1f77b4"/>
   </g>
   <g id="patch_189">
    <path d="M 388.9635 249.05 
L 429.6545 249.05 
L 429.6545 248.736159 
L 388.9635 248.736159 
z
" clip-path="url(#p246d859f8e)" style="fill: #1f77b4"/>
   </g>
   <g id="patch_190">
    <path d="M 63.4355 249.05 
L 104.1265 249.05 
L 104.1265 216.875626 
L 63.4355 216.875626 
z
" clip-path="url(#p246d859f8e)" style="fill: #1f77b4"/>
   </g>
   <g id="patch_191">
    <path d="M 144.8175 249.05 
L 185.5085 249.05 
L 185.5085 238.270249 
L 144.8175 238.270249 
z
" clip-path="url(#p246d859f8e)" style="fill: #1f77b4"/>
   </g>
   <g id="patch_192">
    <path d="M 226.1995 249.05 
L 266.8905 249.05 
L 266.8905 243.660124 
L 226.1995 243.660124 
z
" clip-path="url(#p246d859f8e)" style="fill: #1f77b4"/>
   </g>
   <g id="patch_193">
    <path d="M 307.5815 249.05 
L 348.2725 249.05 
L 348.2725 243.660124 
L 307.5815 243.660124 
z
" clip-path="url(#p246d859f8e)" style="fill: #1f77b4"/>
   </g>
   <g id="patch_194">
    <path d="M 388.9635 249.05 
L 429.6545 249.05 
L 429.6545 241.96129 
L 388.9635 241.96129 
z
" clip-path="url(#p246d859f8e)" style="fill: #1f77b4"/>
   </g>
   <g id="patch_195">
    <path d="M 63.4355 249.05 
L 104.1265 249.05 
L 104.1265 248.879434 
L 63.4355 248.879434 
z
" clip-path="url(#p246d859f8e)" style="fill: #1f77b4"/>
   </g>
   <g id="patch_196">
    <path d="M 144.8175 249.05 
L 185.5085 249.05 
L 185.5085 248.879434 
L 144.8175 248.879434 
z
" clip-path="url(#p246d859f8e)" style="fill: #1f77b4"/>
   </g>
   <g id="patch_197">
    <path d="M 226.1995 249.05 
L 266.8905 249.05 
L 266.8905 248.879434 
L 226.1995 248.879434 
z
" clip-path="url(#p246d859f8e)" style="fill: #1f77b4"/>
   </g>
   <g id="patch_198">
    <path d="M 307.5815 249.05 
L 348.2725 249.05 
L 348.2725 248.879434 
L 307.5815 248.879434 
z
" clip-path="url(#p246d859f8e)" style="fill: #1f77b4"/>
   </g>
   <g id="patch_199">
    <path d="M 388.9635 249.05 
L 429.6545 249.05 
L 429.6545 248.879434 
L 388.9635 248.879434 
z
" clip-path="url(#p246d859f8e)" style="fill: #1f77b4"/>
   </g>
   <g id="patch_200">
    <path d="M 63.4355 249.05 
L 104.1265 249.05 
L 104.1265 248.913547 
L 63.4355 248.913547 
z
" clip-path="url(#p246d859f8e)" style="fill: #1f77b4"/>
   </g>
   <g id="patch_201">
    <path d="M 144.8175 249.05 
L 185.5085 249.05 
L 185.5085 248.913547 
L 144.8175 248.913547 
z
" clip-path="url(#p246d859f8e)" style="fill: #1f77b4"/>
   </g>
   <g id="patch_202">
    <path d="M 226.1995 249.05 
L 266.8905 249.05 
L 266.8905 248.913547 
L 226.1995 248.913547 
z
" clip-path="url(#p246d859f8e)" style="fill: #1f77b4"/>
   </g>
   <g id="patch_203">
    <path d="M 307.5815 249.05 
L 348.2725 249.05 
L 348.2725 249.032943 
L 307.5815 249.032943 
z
" clip-path="url(#p246d859f8e)" style="fill: #1f77b4"/>
   </g>
   <g id="patch_204">
    <path d="M 388.9635 249.05 
L 429.6545 249.05 
L 429.6545 249.032943 
L 388.9635 249.032943 
z
" clip-path="url(#p246d859f8e)" style="fill: #1f77b4"/>
   </g>
   <g id="patch_205">
    <path d="M 63.4355 249.05 
L 104.1265 249.05 
L 104.1265 211.080522 
L 63.4355 211.080522 
z
" clip-path="url(#p246d859f8e)" style="fill: #1f77b4"/>
   </g>
   <g id="patch_206">
    <path d="M 144.8175 249.05 
L 185.5085 249.05 
L 185.5085 209.691136 
L 144.8175 209.691136 
z
" clip-path="url(#p246d859f8e)" style="fill: #1f77b4"/>
   </g>
   <g id="patch_207">
    <path d="M 226.1995 249.05 
L 266.8905 249.05 
L 266.8905 234.841878 
L 226.1995 234.841878 
z
" clip-path="url(#p246d859f8e)" style="fill: #1f77b4"/>
   </g>
   <g id="patch_208">
    <path d="M 307.5815 249.05 
L 348.2725 249.05 
L 348.2725 234.841878 
L 307.5815 234.841878 
z
" clip-path="url(#p246d859f8e)" style="fill: #1f77b4"/>
   </g>
   <g id="patch_209">
    <path d="M 388.9635 249.05 
L 429.6545 249.05 
L 429.6545 210.608631 
L 388.9635 210.608631 
z
" clip-path="url(#p246d859f8e)" style="fill: #1f77b4"/>
   </g>
   <g id="patch_210">
    <path d="M 63.4355 249.05 
L 104.1265 249.05 
L 104.1265 248.947661 
L 63.4355 248.947661 
z
" clip-path="url(#p246d859f8e)" style="fill: #1f77b4"/>
   </g>
   <g id="patch_211">
    <path d="M 144.8175 249.05 
L 185.5085 249.05 
L 185.5085 248.947661 
L 144.8175 248.947661 
z
" clip-path="url(#p246d859f8e)" style="fill: #1f77b4"/>
   </g>
   <g id="patch_212">
    <path d="M 226.1995 249.05 
L 266.8905 249.05 
L 266.8905 249.05 
L 226.1995 249.05 
z
" clip-path="url(#p246d859f8e)" style="fill: #1f77b4"/>
   </g>
   <g id="patch_213">
    <path d="M 307.5815 249.05 
L 348.2725 249.05 
L 348.2725 249.05 
L 307.5815 249.05 
z
" clip-path="url(#p246d859f8e)" style="fill: #1f77b4"/>
   </g>
   <g id="patch_214">
    <path d="M 388.9635 249.05 
L 429.6545 249.05 
L 429.6545 249.05 
L 388.9635 249.05 
z
" clip-path="url(#p246d859f8e)" style="fill: #1f77b4"/>
   </g>
   <g id="patch_215">
    <path d="M 63.4355 249.05 
L 104.1265 249.05 
L 104.1265 226.459197 
L 63.4355 226.459197 
z
" clip-path="url(#p246d859f8e)" style="fill: #1f77b4"/>
   </g>
   <g id="patch_216">
    <path d="M 144.8175 249.05 
L 185.5085 249.05 
L 185.5085 232.220562 
L 144.8175 232.220562 
z
" clip-path="url(#p246d859f8e)" style="fill: #1f77b4"/>
   </g>
   <g id="patch_217">
    <path d="M 226.1995 249.05 
L 266.8905 249.05 
L 266.8905 236.544779 
L 226.1995 236.544779 
z
" clip-path="url(#p246d859f8e)" style="fill: #1f77b4"/>
   </g>
   <g id="patch_218">
    <path d="M 307.5815 249.05 
L 348.2725 249.05 
L 348.2725 230.09902 
L 307.5815 230.09902 
z
" clip-path="url(#p246d859f8e)" style="fill: #1f77b4"/>
   </g>
   <g id="patch_219">
    <path d="M 388.9635 249.05 
L 429.6545 249.05 
L 429.6545 244.300102 
L 388.9635 244.300102 
z
" clip-path="url(#p246d859f8e)" style="fill: #1f77b4"/>
   </g>
   <g id="patch_220">
    <path d="M 63.4355 249.05 
L 104.1265 249.05 
L 104.1265 248.538303 
L 63.4355 248.538303 
z
" clip-path="url(#p246d859f8e)" style="fill: #1f77b4"/>
   </g>
   <g id="patch_221">
    <path d="M 144.8175 249.05 
L 185.5085 249.05 
L 185.5085 248.572416 
L 144.8175 248.572416 
z
" clip-path="url(#p246d859f8e)" style="fill: #1f77b4"/>
   </g>
   <g id="patch_222">
    <path d="M 226.1995 249.05 
L 266.8905 249.05 
L 266.8905 248.367737 
L 226.1995 248.367737 
z
" clip-path="url(#p246d859f8e)" style="fill: #1f77b4"/>
   </g>
   <g id="patch_223">
    <path d="M 307.5815 249.05 
L 348.2725 249.05 
L 348.2725 248.879434 
L 307.5815 248.879434 
z
" clip-path="url(#p246d859f8e)" style="fill: #1f77b4"/>
   </g>
   <g id="patch_224">
    <path d="M 388.9635 249.05 
L 429.6545 249.05 
L 429.6545 248.879434 
L 388.9635 248.879434 
z
" clip-path="url(#p246d859f8e)" style="fill: #1f77b4"/>
   </g>
   <g id="patch_225">
    <path d="M 63.4355 249.05 
L 104.1265 249.05 
L 104.1265 248.572416 
L 63.4355 248.572416 
z
" clip-path="url(#p246d859f8e)" style="fill: #1f77b4"/>
   </g>
   <g id="patch_226">
    <path d="M 144.8175 249.05 
L 185.5085 249.05 
L 185.5085 248.572416 
L 144.8175 248.572416 
z
" clip-path="url(#p246d859f8e)" style="fill: #1f77b4"/>
   </g>
   <g id="patch_227">
    <path d="M 226.1995 249.05 
L 266.8905 249.05 
L 266.8905 248.572416 
L 226.1995 248.572416 
z
" clip-path="url(#p246d859f8e)" style="fill: #1f77b4"/>
   </g>
   <g id="patch_228">
    <path d="M 307.5815 249.05 
L 348.2725 249.05 
L 348.2725 249.027258 
L 307.5815 249.027258 
z
" clip-path="url(#p246d859f8e)" style="fill: #1f77b4"/>
   </g>
   <g id="patch_229">
    <path d="M 388.9635 249.05 
L 429.6545 249.05 
L 429.6545 249.027258 
L 388.9635 249.027258 
z
" clip-path="url(#p246d859f8e)" style="fill: #1f77b4"/>
   </g>
   <g id="patch_230">
    <path d="M 63.4355 249.05 
L 104.1265 249.05 
L 104.1265 248.640642 
L 63.4355 248.640642 
z
" clip-path="url(#p246d859f8e)" style="fill: #1f77b4"/>
   </g>
   <g id="patch_231">
    <path d="M 144.8175 249.05 
L 185.5085 249.05 
L 185.5085 248.981774 
L 144.8175 248.981774 
z
" clip-path="url(#p246d859f8e)" style="fill: #1f77b4"/>
   </g>
   <g id="patch_232">
    <path d="M 226.1995 249.05 
L 266.8905 249.05 
L 266.8905 248.981774 
L 226.1995 248.981774 
z
" clip-path="url(#p246d859f8e)" style="fill: #1f77b4"/>
   </g>
   <g id="patch_233">
    <path d="M 307.5815 249.05 
L 348.2725 249.05 
L 348.2725 249.05 
L 307.5815 249.05 
z
" clip-path="url(#p246d859f8e)" style="fill: #1f77b4"/>
   </g>
   <g id="patch_234">
    <path d="M 388.9635 249.05 
L 429.6545 249.05 
L 429.6545 249.05 
L 388.9635 249.05 
z
" clip-path="url(#p246d859f8e)" style="fill: #1f77b4"/>
   </g>
   <g id="patch_235">
    <path d="M 63.4355 249.05 
L 104.1265 249.05 
L 104.1265 242.831662 
L 63.4355 242.831662 
z
" clip-path="url(#p246d859f8e)" style="fill: #1f77b4"/>
   </g>
   <g id="patch_236">
    <path d="M 144.8175 249.05 
L 185.5085 249.05 
L 185.5085 246.584107 
L 144.8175 246.584107 
z
" clip-path="url(#p246d859f8e)" style="fill: #1f77b4"/>
   </g>
   <g id="patch_237">
    <path d="M 226.1995 249.05 
L 266.8905 249.05 
L 266.8905 246.584107 
L 226.1995 246.584107 
z
" clip-path="url(#p246d859f8e)" style="fill: #1f77b4"/>
   </g>
   <g id="patch_238">
    <path d="M 307.5815 249.05 
L 348.2725 249.05 
L 348.2725 245.390148 
L 307.5815 245.390148 
z
" clip-path="url(#p246d859f8e)" style="fill: #1f77b4"/>
   </g>
   <g id="patch_239">
    <path d="M 388.9635 249.05 
L 429.6545 249.05 
L 429.6545 246.686447 
L 388.9635 246.686447 
z
" clip-path="url(#p246d859f8e)" style="fill: #1f77b4"/>
   </g>
   <g id="patch_240">
    <path d="M 63.4355 249.05 
L 104.1265 249.05 
L 104.1265 249.05 
L 63.4355 249.05 
z
" clip-path="url(#p246d859f8e)" style="fill: #1f77b4"/>
   </g>
   <g id="patch_241">
    <path d="M 63.4355 249.05 
L 104.1265 249.05 
L 104.1265 146.170573 
L 63.4355 146.170573 
z
" clip-path="url(#p246d859f8e)" style="fill: #1f77b4"/>
   </g>
   <g id="patch_242">
    <path d="M 144.8175 249.05 
L 185.5085 249.05 
L 185.5085 164.928989 
L 144.8175 164.928989 
z
" clip-path="url(#p246d859f8e)" style="fill: #1f77b4"/>
   </g>
   <g id="patch_243">
    <path d="M 226.1995 249.05 
L 266.8905 249.05 
L 266.8905 162.614649 
L 226.1995 162.614649 
z
" clip-path="url(#p246d859f8e)" style="fill: #1f77b4"/>
   </g>
   <g id="patch_244">
    <path d="M 307.5815 249.05 
L 348.2725 249.05 
L 348.2725 174.948058 
L 307.5815 174.948058 
z
" clip-path="url(#p246d859f8e)" style="fill: #1f77b4"/>
   </g>
   <g id="patch_245">
    <path d="M 388.9635 249.05 
L 429.6545 249.05 
L 429.6545 215.759836 
L 388.9635 215.759836 
z
" clip-path="url(#p246d859f8e)" style="fill: #1f77b4"/>
   </g>
   <g id="patch_246">
    <path d="M 63.4355 249.05 
L 104.1265 249.05 
L 104.1265 189.991576 
L 63.4355 189.991576 
z
" clip-path="url(#p246d859f8e)" style="fill: #1f77b4"/>
   </g>
   <g id="patch_247">
    <path d="M 144.8175 249.05 
L 185.5085 249.05 
L 185.5085 165.375363 
L 144.8175 165.375363 
z
" clip-path="url(#p246d859f8e)" style="fill: #1f77b4"/>
   </g>
   <g id="patch_248">
    <path d="M 226.1995 249.05 
L 266.8905 249.05 
L 266.8905 205.588391 
L 226.1995 205.588391 
z
" clip-path="url(#p246d859f8e)" style="fill: #1f77b4"/>
   </g>
   <g id="patch_249">
    <path d="M 307.5815 249.05 
L 348.2725 249.05 
L 348.2725 207.670151 
L 307.5815 207.670151 
z
" clip-path="url(#p246d859f8e)" style="fill: #1f77b4"/>
   </g>
   <g id="patch_250">
    <path d="M 388.9635 249.05 
L 429.6545 249.05 
L 429.6545 221.104001 
L 388.9635 221.104001 
z
" clip-path="url(#p246d859f8e)" style="fill: #1f77b4"/>
   </g>
   <g id="patch_251">
    <path d="M 63.4355 249.05 
L 104.1265 249.05 
L 104.1265 249.027258 
L 63.4355 249.027258 
z
" clip-path="url(#p246d859f8e)" style="fill: #1f77b4"/>
   </g>
   <g id="patch_252">
    <path d="M 144.8175 249.05 
L 185.5085 249.05 
L 185.5085 249.027258 
L 144.8175 249.027258 
z
" clip-path="url(#p246d859f8e)" style="fill: #1f77b4"/>
   </g>
   <g id="patch_253">
    <path d="M 226.1995 249.05 
L 266.8905 249.05 
L 266.8905 249.027258 
L 226.1995 249.027258 
z
" clip-path="url(#p246d859f8e)" style="fill: #1f77b4"/>
   </g>
   <g id="patch_254">
    <path d="M 307.5815 249.05 
L 348.2725 249.05 
L 348.2725 249.05 
L 307.5815 249.05 
z
" clip-path="url(#p246d859f8e)" style="fill: #1f77b4"/>
   </g>
   <g id="patch_255">
    <path d="M 388.9635 249.05 
L 429.6545 249.05 
L 429.6545 249.05 
L 388.9635 249.05 
z
" clip-path="url(#p246d859f8e)" style="fill: #1f77b4"/>
   </g>
   <g id="patch_256">
    <path d="M 63.4355 249.05 
L 104.1265 249.05 
L 104.1265 247.139664 
L 63.4355 247.139664 
z
" clip-path="url(#p246d859f8e)" style="fill: #1f77b4"/>
   </g>
   <g id="patch_257">
    <path d="M 144.8175 249.05 
L 185.5085 249.05 
L 185.5085 246.98047 
L 144.8175 246.98047 
z
" clip-path="url(#p246d859f8e)" style="fill: #1f77b4"/>
   </g>
   <g id="patch_258">
    <path d="M 226.1995 249.05 
L 266.8905 249.05 
L 266.8905 248.879434 
L 226.1995 248.879434 
z
" clip-path="url(#p246d859f8e)" style="fill: #1f77b4"/>
   </g>
   <g id="patch_259">
    <path d="M 307.5815 249.05 
L 348.2725 249.05 
L 348.2725 248.99883 
L 307.5815 248.99883 
z
" clip-path="url(#p246d859f8e)" style="fill: #1f77b4"/>
   </g>
   <g id="patch_260">
    <path d="M 388.9635 249.05 
L 429.6545 249.05 
L 429.6545 248.99883 
L 388.9635 248.99883 
z
" clip-path="url(#p246d859f8e)" style="fill: #1f77b4"/>
   </g>
   <g id="patch_261">
    <path d="M 63.4355 249.05 
L 104.1265 249.05 
L 104.1265 248.640642 
L 63.4355 248.640642 
z
" clip-path="url(#p246d859f8e)" style="fill: #1f77b4"/>
   </g>
   <g id="patch_262">
    <path d="M 144.8175 249.05 
L 185.5085 249.05 
L 185.5085 248.777095 
L 144.8175 248.777095 
z
" clip-path="url(#p246d859f8e)" style="fill: #1f77b4"/>
   </g>
   <g id="patch_263">
    <path d="M 226.1995 249.05 
L 266.8905 249.05 
L 266.8905 248.913547 
L 226.1995 248.913547 
z
" clip-path="url(#p246d859f8e)" style="fill: #1f77b4"/>
   </g>
   <g id="patch_264">
    <path d="M 307.5815 249.05 
L 348.2725 249.05 
L 348.2725 248.913547 
L 307.5815 248.913547 
z
" clip-path="url(#p246d859f8e)" style="fill: #1f77b4"/>
   </g>
   <g id="patch_265">
    <path d="M 388.9635 249.05 
L 429.6545 249.05 
L 429.6545 248.731611 
L 388.9635 248.731611 
z
" clip-path="url(#p246d859f8e)" style="fill: #1f77b4"/>
   </g>
   <g id="patch_266">
    <path d="M 63.4355 249.05 
L 104.1265 249.05 
L 104.1265 248.811208 
L 63.4355 248.811208 
z
" clip-path="url(#p246d859f8e)" style="fill: #1f77b4"/>
   </g>
   <g id="patch_267">
    <path d="M 144.8175 249.05 
L 185.5085 249.05 
L 185.5085 248.811208 
L 144.8175 248.811208 
z
" clip-path="url(#p246d859f8e)" style="fill: #1f77b4"/>
   </g>
   <g id="patch_268">
    <path d="M 226.1995 249.05 
L 266.8905 249.05 
L 266.8905 249.032943 
L 226.1995 249.032943 
z
" clip-path="url(#p246d859f8e)" style="fill: #1f77b4"/>
   </g>
   <g id="patch_269">
    <path d="M 307.5815 249.05 
L 348.2725 249.05 
L 348.2725 249.032943 
L 307.5815 249.032943 
z
" clip-path="url(#p246d859f8e)" style="fill: #1f77b4"/>
   </g>
   <g id="patch_270">
    <path d="M 388.9635 249.05 
L 429.6545 249.05 
L 429.6545 249.032943 
L 388.9635 249.032943 
z
" clip-path="url(#p246d859f8e)" style="fill: #1f77b4"/>
   </g>
   <g id="patch_271">
    <path d="M 63.4355 249.05 
L 104.1265 249.05 
L 104.1265 248.297616 
L 63.4355 248.297616 
z
" clip-path="url(#p246d859f8e)" style="fill: #1f77b4"/>
   </g>
   <g id="patch_272">
    <path d="M 144.8175 249.05 
L 185.5085 249.05 
L 185.5085 248.996935 
L 144.8175 248.996935 
z
" clip-path="url(#p246d859f8e)" style="fill: #1f77b4"/>
   </g>
   <g id="patch_273">
    <path d="M 226.1995 249.05 
L 266.8905 249.05 
L 266.8905 248.996935 
L 226.1995 248.996935 
z
" clip-path="url(#p246d859f8e)" style="fill: #1f77b4"/>
   </g>
   <g id="patch_274">
    <path d="M 307.5815 249.05 
L 348.2725 249.05 
L 348.2725 248.996935 
L 307.5815 248.996935 
z
" clip-path="url(#p246d859f8e)" style="fill: #1f77b4"/>
   </g>
   <g id="patch_275">
    <path d="M 388.9635 249.05 
L 429.6545 249.05 
L 429.6545 248.996935 
L 388.9635 248.996935 
z
" clip-path="url(#p246d859f8e)" style="fill: #1f77b4"/>
   </g>
   <g id="patch_276">
    <path d="M 63.4355 249.05 
L 104.1265 249.05 
L 104.1265 211.741166 
L 63.4355 211.741166 
z
" clip-path="url(#p246d859f8e)" style="fill: #1f77b4"/>
   </g>
   <g id="patch_277">
    <path d="M 144.8175 249.05 
L 185.5085 249.05 
L 185.5085 237.720761 
L 144.8175 237.720761 
z
" clip-path="url(#p246d859f8e)" style="fill: #1f77b4"/>
   </g>
   <g id="patch_278">
    <path d="M 226.1995 249.05 
L 266.8905 249.05 
L 266.8905 236.592667 
L 226.1995 236.592667 
z
" clip-path="url(#p246d859f8e)" style="fill: #1f77b4"/>
   </g>
   <g id="patch_279">
    <path d="M 307.5815 249.05 
L 348.2725 249.05 
L 348.2725 236.803384 
L 307.5815 236.803384 
z
" clip-path="url(#p246d859f8e)" style="fill: #1f77b4"/>
   </g>
   <g id="patch_280">
    <path d="M 388.9635 249.05 
L 429.6545 249.05 
L 429.6545 211.211065 
L 388.9635 211.211065 
z
" clip-path="url(#p246d859f8e)" style="fill: #1f77b4"/>
   </g>
   <g id="patch_281">
    <path d="M 63.4355 249.05 
L 104.1265 249.05 
L 104.1265 241.58832 
L 63.4355 241.58832 
z
" clip-path="url(#p246d859f8e)" style="fill: #1f77b4"/>
   </g>
   <g id="patch_282">
    <path d="M 144.8175 249.05 
L 185.5085 249.05 
L 185.5085 248.009549 
L 144.8175 248.009549 
z
" clip-path="url(#p246d859f8e)" style="fill: #1f77b4"/>
   </g>
   <g id="patch_283">
    <path d="M 226.1995 249.05 
L 266.8905 249.05 
L 266.8905 248.009549 
L 226.1995 248.009549 
z
" clip-path="url(#p246d859f8e)" style="fill: #1f77b4"/>
   </g>
   <g id="patch_284">
    <path d="M 307.5815 249.05 
L 348.2725 249.05 
L 348.2725 248.009549 
L 307.5815 248.009549 
z
" clip-path="url(#p246d859f8e)" style="fill: #1f77b4"/>
   </g>
   <g id="patch_285">
    <path d="M 388.9635 249.05 
L 429.6545 249.05 
L 429.6545 248.009549 
L 388.9635 248.009549 
z
" clip-path="url(#p246d859f8e)" style="fill: #1f77b4"/>
   </g>
   <g id="patch_286">
    <path d="M 63.4355 249.05 
L 104.1265 249.05 
L 104.1265 248.981774 
L 63.4355 248.981774 
z
" clip-path="url(#p246d859f8e)" style="fill: #1f77b4"/>
   </g>
   <g id="patch_287">
    <path d="M 144.8175 249.05 
L 185.5085 249.05 
L 185.5085 249.027258 
L 144.8175 249.027258 
z
" clip-path="url(#p246d859f8e)" style="fill: #1f77b4"/>
   </g>
   <g id="patch_288">
    <path d="M 226.1995 249.05 
L 266.8905 249.05 
L 266.8905 249.027258 
L 226.1995 249.027258 
z
" clip-path="url(#p246d859f8e)" style="fill: #1f77b4"/>
   </g>
   <g id="patch_289">
    <path d="M 307.5815 249.05 
L 348.2725 249.05 
L 348.2725 249.027258 
L 307.5815 249.027258 
z
" clip-path="url(#p246d859f8e)" style="fill: #1f77b4"/>
   </g>
   <g id="patch_290">
    <path d="M 388.9635 249.05 
L 429.6545 249.05 
L 429.6545 249.015887 
L 388.9635 249.015887 
z
" clip-path="url(#p246d859f8e)" style="fill: #1f77b4"/>
   </g>
   <g id="patch_291">
    <path d="M 63.4355 249.05 
L 104.1265 249.05 
L 104.1265 247.780991 
L 63.4355 247.780991 
z
" clip-path="url(#p246d859f8e)" style="fill: #1f77b4"/>
   </g>
   <g id="patch_292">
    <path d="M 144.8175 249.05 
L 185.5085 249.05 
L 185.5085 247.617248 
L 144.8175 247.617248 
z
" clip-path="url(#p246d859f8e)" style="fill: #1f77b4"/>
   </g>
   <g id="patch_293">
    <path d="M 226.1995 249.05 
L 266.8905 249.05 
L 266.8905 248.435964 
L 226.1995 248.435964 
z
" clip-path="url(#p246d859f8e)" style="fill: #1f77b4"/>
   </g>
   <g id="patch_294">
    <path d="M 307.5815 249.05 
L 348.2725 249.05 
L 348.2725 249.009064 
L 307.5815 249.009064 
z
" clip-path="url(#p246d859f8e)" style="fill: #1f77b4"/>
   </g>
   <g id="patch_295">
    <path d="M 388.9635 249.05 
L 429.6545 249.05 
L 429.6545 249.009064 
L 388.9635 249.009064 
z
" clip-path="url(#p246d859f8e)" style="fill: #1f77b4"/>
   </g>
   <g id="patch_296">
    <path d="M 63.4355 249.05 
L 104.1265 249.05 
L 104.1265 248.285866 
L 63.4355 248.285866 
z
" clip-path="url(#p246d859f8e)" style="fill: #1f77b4"/>
   </g>
   <g id="patch_297">
    <path d="M 144.8175 249.05 
L 185.5085 249.05 
L 185.5085 248.981774 
L 144.8175 248.981774 
z
" clip-path="url(#p246d859f8e)" style="fill: #1f77b4"/>
   </g>
   <g id="patch_298">
    <path d="M 226.1995 249.05 
L 266.8905 249.05 
L 266.8905 248.981774 
L 226.1995 248.981774 
z
" clip-path="url(#p246d859f8e)" style="fill: #1f77b4"/>
   </g>
   <g id="patch_299">
    <path d="M 307.5815 249.05 
L 348.2725 249.05 
L 348.2725 248.981774 
L 307.5815 248.981774 
z
" clip-path="url(#p246d859f8e)" style="fill: #1f77b4"/>
   </g>
   <g id="patch_300">
    <path d="M 388.9635 249.05 
L 429.6545 249.05 
L 429.6545 248.981774 
L 388.9635 248.981774 
z
" clip-path="url(#p246d859f8e)" style="fill: #1f77b4"/>
   </g>
   <g id="patch_301">
    <path d="M 63.4355 249.05 
L 104.1265 249.05 
L 104.1265 248.640642 
L 63.4355 248.640642 
z
" clip-path="url(#p246d859f8e)" style="fill: #1f77b4"/>
   </g>
   <g id="patch_302">
    <path d="M 144.8175 249.05 
L 185.5085 249.05 
L 185.5085 248.981774 
L 144.8175 248.981774 
z
" clip-path="url(#p246d859f8e)" style="fill: #1f77b4"/>
   </g>
   <g id="patch_303">
    <path d="M 226.1995 249.05 
L 266.8905 249.05 
L 266.8905 248.981774 
L 226.1995 248.981774 
z
" clip-path="url(#p246d859f8e)" style="fill: #1f77b4"/>
   </g>
   <g id="patch_304">
    <path d="M 307.5815 249.05 
L 348.2725 249.05 
L 348.2725 248.981774 
L 307.5815 248.981774 
z
" clip-path="url(#p246d859f8e)" style="fill: #1f77b4"/>
   </g>
   <g id="patch_305">
    <path d="M 388.9635 249.05 
L 429.6545 249.05 
L 429.6545 249.036355 
L 388.9635 249.036355 
z
" clip-path="url(#p246d859f8e)" style="fill: #1f77b4"/>
   </g>
   <g id="patch_306">
    <path d="M 63.4355 249.05 
L 104.1265 249.05 
L 104.1265 248.981774 
L 63.4355 248.981774 
z
" clip-path="url(#p246d859f8e)" style="fill: #1f77b4"/>
   </g>
   <g id="patch_307">
    <path d="M 144.8175 249.05 
L 185.5085 249.05 
L 185.5085 249.05 
L 144.8175 249.05 
z
" clip-path="url(#p246d859f8e)" style="fill: #1f77b4"/>
   </g>
   <g id="patch_308">
    <path d="M 226.1995 249.05 
L 266.8905 249.05 
L 266.8905 249.05 
L 226.1995 249.05 
z
" clip-path="url(#p246d859f8e)" style="fill: #1f77b4"/>
   </g>
   <g id="patch_309">
    <path d="M 307.5815 249.05 
L 348.2725 249.05 
L 348.2725 249.05 
L 307.5815 249.05 
z
" clip-path="url(#p246d859f8e)" style="fill: #1f77b4"/>
   </g>
   <g id="patch_310">
    <path d="M 388.9635 249.05 
L 429.6545 249.05 
L 429.6545 249.05 
L 388.9635 249.05 
z
" clip-path="url(#p246d859f8e)" style="fill: #1f77b4"/>
   </g>
   <g id="patch_311">
    <path d="M 63.4355 249.05 
L 104.1265 249.05 
L 104.1265 249.05 
L 63.4355 249.05 
z
" clip-path="url(#p246d859f8e)" style="fill: #1f77b4"/>
   </g>
   <g id="patch_312">
    <path d="M 144.8175 249.05 
L 185.5085 249.05 
L 185.5085 249.05 
L 144.8175 249.05 
z
" clip-path="url(#p246d859f8e)" style="fill: #1f77b4"/>
   </g>
   <g id="patch_313">
    <path d="M 63.4355 249.05 
L 104.1265 249.05 
L 104.1265 144.896614 
L 63.4355 144.896614 
z
" clip-path="url(#p246d859f8e)" style="fill: #1f77b4"/>
   </g>
   <g id="patch_314">
    <path d="M 144.8175 249.05 
L 185.5085 249.05 
L 185.5085 145.663333 
L 144.8175 145.663333 
z
" clip-path="url(#p246d859f8e)" style="fill: #1f77b4"/>
   </g>
   <g id="patch_315">
    <path d="M 226.1995 249.05 
L 266.8905 249.05 
L 266.8905 127.46417 
L 226.1995 127.46417 
z
" clip-path="url(#p246d859f8e)" style="fill: #1f77b4"/>
   </g>
   <g id="patch_316">
    <path d="M 307.5815 249.05 
L 348.2725 249.05 
L 348.2725 194.688127 
L 307.5815 194.688127 
z
" clip-path="url(#p246d859f8e)" style="fill: #1f77b4"/>
   </g>
   <g id="patch_317">
    <path d="M 388.9635 249.05 
L 429.6545 249.05 
L 429.6545 137.12371 
L 388.9635 137.12371 
z
" clip-path="url(#p246d859f8e)" style="fill: #1f77b4"/>
   </g>
   <g id="matplotlib.axis_1">
    <g id="xtick_1">
     <g id="line2d_1">
      <defs>
       <path id="m5c97063455" d="M 0 0 
L 0 3.5 
" style="stroke: #000000; stroke-width: 0.8"/>
      </defs>
      <g>
       <use xlink:href="#m5c97063455" x="83.781" y="249.05" style="stroke: #000000; stroke-width: 0.8"/>
      </g>
     </g>
     <g id="text_1">
      <!-- Jessica Alba -->
      <g transform="translate(86.540375 315.25) rotate(-90) scale(0.1 -0.1)">
       <defs>
        <path id="DejaVuSans-4a" d="M 628 4666 
L 1259 4666 
L 1259 325 
Q 1259 -519 939 -900 
Q 619 -1281 -91 -1281 
L -331 -1281 
L -331 -750 
L -134 -750 
Q 284 -750 456 -515 
Q 628 -281 628 325 
L 628 4666 
z
" transform="scale(0.015625)"/>
        <path id="DejaVuSans-65" d="M 3597 1894 
L 3597 1613 
L 953 1613 
Q 991 1019 1311 708 
Q 1631 397 2203 397 
Q 2534 397 2845 478 
Q 3156 559 3463 722 
L 3463 178 
Q 3153 47 2828 -22 
Q 2503 -91 2169 -91 
Q 1331 -91 842 396 
Q 353 884 353 1716 
Q 353 2575 817 3079 
Q 1281 3584 2069 3584 
Q 2775 3584 3186 3129 
Q 3597 2675 3597 1894 
z
M 3022 2063 
Q 3016 2534 2758 2815 
Q 2500 3097 2075 3097 
Q 1594 3097 1305 2825 
Q 1016 2553 972 2059 
L 3022 2063 
z
" transform="scale(0.015625)"/>
        <path id="DejaVuSans-73" d="M 2834 3397 
L 2834 2853 
Q 2591 2978 2328 3040 
Q 2066 3103 1784 3103 
Q 1356 3103 1142 2972 
Q 928 2841 928 2578 
Q 928 2378 1081 2264 
Q 1234 2150 1697 2047 
L 1894 2003 
Q 2506 1872 2764 1633 
Q 3022 1394 3022 966 
Q 3022 478 2636 193 
Q 2250 -91 1575 -91 
Q 1294 -91 989 -36 
Q 684 19 347 128 
L 347 722 
Q 666 556 975 473 
Q 1284 391 1588 391 
Q 1994 391 2212 530 
Q 2431 669 2431 922 
Q 2431 1156 2273 1281 
Q 2116 1406 1581 1522 
L 1381 1569 
Q 847 1681 609 1914 
Q 372 2147 372 2553 
Q 372 3047 722 3315 
Q 1072 3584 1716 3584 
Q 2034 3584 2315 3537 
Q 2597 3491 2834 3397 
z
" transform="scale(0.015625)"/>
        <path id="DejaVuSans-69" d="M 603 3500 
L 1178 3500 
L 1178 0 
L 603 0 
L 603 3500 
z
M 603 4863 
L 1178 4863 
L 1178 4134 
L 603 4134 
L 603 4863 
z
" transform="scale(0.015625)"/>
        <path id="DejaVuSans-63" d="M 3122 3366 
L 3122 2828 
Q 2878 2963 2633 3030 
Q 2388 3097 2138 3097 
Q 1578 3097 1268 2742 
Q 959 2388 959 1747 
Q 959 1106 1268 751 
Q 1578 397 2138 397 
Q 2388 397 2633 464 
Q 2878 531 3122 666 
L 3122 134 
Q 2881 22 2623 -34 
Q 2366 -91 2075 -91 
Q 1284 -91 818 406 
Q 353 903 353 1747 
Q 353 2603 823 3093 
Q 1294 3584 2113 3584 
Q 2378 3584 2631 3529 
Q 2884 3475 3122 3366 
z
" transform="scale(0.015625)"/>
        <path id="DejaVuSans-61" d="M 2194 1759 
Q 1497 1759 1228 1600 
Q 959 1441 959 1056 
Q 959 750 1161 570 
Q 1363 391 1709 391 
Q 2188 391 2477 730 
Q 2766 1069 2766 1631 
L 2766 1759 
L 2194 1759 
z
M 3341 1997 
L 3341 0 
L 2766 0 
L 2766 531 
Q 2569 213 2275 61 
Q 1981 -91 1556 -91 
Q 1019 -91 701 211 
Q 384 513 384 1019 
Q 384 1609 779 1909 
Q 1175 2209 1959 2209 
L 2766 2209 
L 2766 2266 
Q 2766 2663 2505 2880 
Q 2244 3097 1772 3097 
Q 1472 3097 1187 3025 
Q 903 2953 641 2809 
L 641 3341 
Q 956 3463 1253 3523 
Q 1550 3584 1831 3584 
Q 2591 3584 2966 3190 
Q 3341 2797 3341 1997 
z
" transform="scale(0.015625)"/>
        <path id="DejaVuSans-20" transform="scale(0.015625)"/>
        <path id="DejaVuSans-41" d="M 2188 4044 
L 1331 1722 
L 3047 1722 
L 2188 4044 
z
M 1831 4666 
L 2547 4666 
L 4325 0 
L 3669 0 
L 3244 1197 
L 1141 1197 
L 716 0 
L 50 0 
L 1831 4666 
z
" transform="scale(0.015625)"/>
        <path id="DejaVuSans-6c" d="M 603 4863 
L 1178 4863 
L 1178 0 
L 603 0 
L 603 4863 
z
" transform="scale(0.015625)"/>
        <path id="DejaVuSans-62" d="M 3116 1747 
Q 3116 2381 2855 2742 
Q 2594 3103 2138 3103 
Q 1681 3103 1420 2742 
Q 1159 2381 1159 1747 
Q 1159 1113 1420 752 
Q 1681 391 2138 391 
Q 2594 391 2855 752 
Q 3116 1113 3116 1747 
z
M 1159 2969 
Q 1341 3281 1617 3432 
Q 1894 3584 2278 3584 
Q 2916 3584 3314 3078 
Q 3713 2572 3713 1747 
Q 3713 922 3314 415 
Q 2916 -91 2278 -91 
Q 1894 -91 1617 61 
Q 1341 213 1159 525 
L 1159 0 
L 581 0 
L 581 4863 
L 1159 4863 
L 1159 2969 
z
" transform="scale(0.015625)"/>
       </defs>
       <use xlink:href="#DejaVuSans-4a"/>
       <use xlink:href="#DejaVuSans-65" x="29.492188"/>
       <use xlink:href="#DejaVuSans-73" x="91.015625"/>
       <use xlink:href="#DejaVuSans-73" x="143.115234"/>
       <use xlink:href="#DejaVuSans-69" x="195.214844"/>
       <use xlink:href="#DejaVuSans-63" x="222.998047"/>
       <use xlink:href="#DejaVuSans-61" x="277.978516"/>
       <use xlink:href="#DejaVuSans-20" x="339.257812"/>
       <use xlink:href="#DejaVuSans-41" x="371.044922"/>
       <use xlink:href="#DejaVuSans-6c" x="439.453125"/>
       <use xlink:href="#DejaVuSans-62" x="467.236328"/>
       <use xlink:href="#DejaVuSans-61" x="530.712891"/>
      </g>
     </g>
    </g>
    <g id="xtick_2">
     <g id="line2d_2">
      <g>
       <use xlink:href="#m5c97063455" x="165.163" y="249.05" style="stroke: #000000; stroke-width: 0.8"/>
      </g>
     </g>
     <g id="text_2">
      <!-- Jonah Hill -->
      <g transform="translate(167.922375 302.954687) rotate(-90) scale(0.1 -0.1)">
       <defs>
        <path id="DejaVuSans-6f" d="M 1959 3097 
Q 1497 3097 1228 2736 
Q 959 2375 959 1747 
Q 959 1119 1226 758 
Q 1494 397 1959 397 
Q 2419 397 2687 759 
Q 2956 1122 2956 1747 
Q 2956 2369 2687 2733 
Q 2419 3097 1959 3097 
z
M 1959 3584 
Q 2709 3584 3137 3096 
Q 3566 2609 3566 1747 
Q 3566 888 3137 398 
Q 2709 -91 1959 -91 
Q 1206 -91 779 398 
Q 353 888 353 1747 
Q 353 2609 779 3096 
Q 1206 3584 1959 3584 
z
" transform="scale(0.015625)"/>
        <path id="DejaVuSans-6e" d="M 3513 2113 
L 3513 0 
L 2938 0 
L 2938 2094 
Q 2938 2591 2744 2837 
Q 2550 3084 2163 3084 
Q 1697 3084 1428 2787 
Q 1159 2491 1159 1978 
L 1159 0 
L 581 0 
L 581 3500 
L 1159 3500 
L 1159 2956 
Q 1366 3272 1645 3428 
Q 1925 3584 2291 3584 
Q 2894 3584 3203 3211 
Q 3513 2838 3513 2113 
z
" transform="scale(0.015625)"/>
        <path id="DejaVuSans-68" d="M 3513 2113 
L 3513 0 
L 2938 0 
L 2938 2094 
Q 2938 2591 2744 2837 
Q 2550 3084 2163 3084 
Q 1697 3084 1428 2787 
Q 1159 2491 1159 1978 
L 1159 0 
L 581 0 
L 581 4863 
L 1159 4863 
L 1159 2956 
Q 1366 3272 1645 3428 
Q 1925 3584 2291 3584 
Q 2894 3584 3203 3211 
Q 3513 2838 3513 2113 
z
" transform="scale(0.015625)"/>
        <path id="DejaVuSans-48" d="M 628 4666 
L 1259 4666 
L 1259 2753 
L 3553 2753 
L 3553 4666 
L 4184 4666 
L 4184 0 
L 3553 0 
L 3553 2222 
L 1259 2222 
L 1259 0 
L 628 0 
L 628 4666 
z
" transform="scale(0.015625)"/>
       </defs>
       <use xlink:href="#DejaVuSans-4a"/>
       <use xlink:href="#DejaVuSans-6f" x="29.492188"/>
       <use xlink:href="#DejaVuSans-6e" x="90.673828"/>
       <use xlink:href="#DejaVuSans-61" x="154.052734"/>
       <use xlink:href="#DejaVuSans-68" x="215.332031"/>
       <use xlink:href="#DejaVuSans-20" x="278.710938"/>
       <use xlink:href="#DejaVuSans-48" x="310.498047"/>
       <use xlink:href="#DejaVuSans-69" x="385.693359"/>
       <use xlink:href="#DejaVuSans-6c" x="413.476562"/>
       <use xlink:href="#DejaVuSans-6c" x="441.259766"/>
      </g>
     </g>
    </g>
    <g id="xtick_3">
     <g id="line2d_3">
      <g>
       <use xlink:href="#m5c97063455" x="246.545" y="249.05" style="stroke: #000000; stroke-width: 0.8"/>
      </g>
     </g>
     <g id="text_3">
      <!-- Loretta Devine -->
      <g transform="translate(249.304375 329.792187) rotate(-90) scale(0.1 -0.1)">
       <defs>
        <path id="DejaVuSans-4c" d="M 628 4666 
L 1259 4666 
L 1259 531 
L 3531 531 
L 3531 0 
L 628 0 
L 628 4666 
z
" transform="scale(0.015625)"/>
        <path id="DejaVuSans-72" d="M 2631 2963 
Q 2534 3019 2420 3045 
Q 2306 3072 2169 3072 
Q 1681 3072 1420 2755 
Q 1159 2438 1159 1844 
L 1159 0 
L 581 0 
L 581 3500 
L 1159 3500 
L 1159 2956 
Q 1341 3275 1631 3429 
Q 1922 3584 2338 3584 
Q 2397 3584 2469 3576 
Q 2541 3569 2628 3553 
L 2631 2963 
z
" transform="scale(0.015625)"/>
        <path id="DejaVuSans-74" d="M 1172 4494 
L 1172 3500 
L 2356 3500 
L 2356 3053 
L 1172 3053 
L 1172 1153 
Q 1172 725 1289 603 
Q 1406 481 1766 481 
L 2356 481 
L 2356 0 
L 1766 0 
Q 1100 0 847 248 
Q 594 497 594 1153 
L 594 3053 
L 172 3053 
L 172 3500 
L 594 3500 
L 594 4494 
L 1172 4494 
z
" transform="scale(0.015625)"/>
        <path id="DejaVuSans-44" d="M 1259 4147 
L 1259 519 
L 2022 519 
Q 2988 519 3436 956 
Q 3884 1394 3884 2338 
Q 3884 3275 3436 3711 
Q 2988 4147 2022 4147 
L 1259 4147 
z
M 628 4666 
L 1925 4666 
Q 3281 4666 3915 4102 
Q 4550 3538 4550 2338 
Q 4550 1131 3912 565 
Q 3275 0 1925 0 
L 628 0 
L 628 4666 
z
" transform="scale(0.015625)"/>
        <path id="DejaVuSans-76" d="M 191 3500 
L 800 3500 
L 1894 563 
L 2988 3500 
L 3597 3500 
L 2284 0 
L 1503 0 
L 191 3500 
z
" transform="scale(0.015625)"/>
       </defs>
       <use xlink:href="#DejaVuSans-4c"/>
       <use xlink:href="#DejaVuSans-6f" x="53.962891"/>
       <use xlink:href="#DejaVuSans-72" x="115.144531"/>
       <use xlink:href="#DejaVuSans-65" x="154.007812"/>
       <use xlink:href="#DejaVuSans-74" x="215.53125"/>
       <use xlink:href="#DejaVuSans-74" x="254.740234"/>
       <use xlink:href="#DejaVuSans-61" x="293.949219"/>
       <use xlink:href="#DejaVuSans-20" x="355.228516"/>
       <use xlink:href="#DejaVuSans-44" x="387.015625"/>
       <use xlink:href="#DejaVuSans-65" x="464.017578"/>
       <use xlink:href="#DejaVuSans-76" x="525.541016"/>
       <use xlink:href="#DejaVuSans-69" x="584.720703"/>
       <use xlink:href="#DejaVuSans-6e" x="612.503906"/>
       <use xlink:href="#DejaVuSans-65" x="675.882812"/>
      </g>
     </g>
    </g>
    <g id="xtick_4">
     <g id="line2d_4">
      <g>
       <use xlink:href="#m5c97063455" x="327.927" y="249.05" style="stroke: #000000; stroke-width: 0.8"/>
      </g>
     </g>
     <g id="text_4">
      <!-- Paul Rudd -->
      <g transform="translate(330.686375 305.584375) rotate(-90) scale(0.1 -0.1)">
       <defs>
        <path id="DejaVuSans-50" d="M 1259 4147 
L 1259 2394 
L 2053 2394 
Q 2494 2394 2734 2622 
Q 2975 2850 2975 3272 
Q 2975 3691 2734 3919 
Q 2494 4147 2053 4147 
L 1259 4147 
z
M 628 4666 
L 2053 4666 
Q 2838 4666 3239 4311 
Q 3641 3956 3641 3272 
Q 3641 2581 3239 2228 
Q 2838 1875 2053 1875 
L 1259 1875 
L 1259 0 
L 628 0 
L 628 4666 
z
" transform="scale(0.015625)"/>
        <path id="DejaVuSans-75" d="M 544 1381 
L 544 3500 
L 1119 3500 
L 1119 1403 
Q 1119 906 1312 657 
Q 1506 409 1894 409 
Q 2359 409 2629 706 
Q 2900 1003 2900 1516 
L 2900 3500 
L 3475 3500 
L 3475 0 
L 2900 0 
L 2900 538 
Q 2691 219 2414 64 
Q 2138 -91 1772 -91 
Q 1169 -91 856 284 
Q 544 659 544 1381 
z
M 1991 3584 
L 1991 3584 
z
" transform="scale(0.015625)"/>
        <path id="DejaVuSans-52" d="M 2841 2188 
Q 3044 2119 3236 1894 
Q 3428 1669 3622 1275 
L 4263 0 
L 3584 0 
L 2988 1197 
Q 2756 1666 2539 1819 
Q 2322 1972 1947 1972 
L 1259 1972 
L 1259 0 
L 628 0 
L 628 4666 
L 2053 4666 
Q 2853 4666 3247 4331 
Q 3641 3997 3641 3322 
Q 3641 2881 3436 2590 
Q 3231 2300 2841 2188 
z
M 1259 4147 
L 1259 2491 
L 2053 2491 
Q 2509 2491 2742 2702 
Q 2975 2913 2975 3322 
Q 2975 3731 2742 3939 
Q 2509 4147 2053 4147 
L 1259 4147 
z
" transform="scale(0.015625)"/>
        <path id="DejaVuSans-64" d="M 2906 2969 
L 2906 4863 
L 3481 4863 
L 3481 0 
L 2906 0 
L 2906 525 
Q 2725 213 2448 61 
Q 2172 -91 1784 -91 
Q 1150 -91 751 415 
Q 353 922 353 1747 
Q 353 2572 751 3078 
Q 1150 3584 1784 3584 
Q 2172 3584 2448 3432 
Q 2725 3281 2906 2969 
z
M 947 1747 
Q 947 1113 1208 752 
Q 1469 391 1925 391 
Q 2381 391 2643 752 
Q 2906 1113 2906 1747 
Q 2906 2381 2643 2742 
Q 2381 3103 1925 3103 
Q 1469 3103 1208 2742 
Q 947 2381 947 1747 
z
" transform="scale(0.015625)"/>
       </defs>
       <use xlink:href="#DejaVuSans-50"/>
       <use xlink:href="#DejaVuSans-61" x="55.802734"/>
       <use xlink:href="#DejaVuSans-75" x="117.082031"/>
       <use xlink:href="#DejaVuSans-6c" x="180.460938"/>
       <use xlink:href="#DejaVuSans-20" x="208.244141"/>
       <use xlink:href="#DejaVuSans-52" x="240.03125"/>
       <use xlink:href="#DejaVuSans-75" x="305.013672"/>
       <use xlink:href="#DejaVuSans-64" x="368.392578"/>
       <use xlink:href="#DejaVuSans-64" x="431.869141"/>
      </g>
     </g>
    </g>
    <g id="xtick_5">
     <g id="line2d_5">
      <g>
       <use xlink:href="#m5c97063455" x="409.309" y="249.05" style="stroke: #000000; stroke-width: 0.8"/>
      </g>
     </g>
     <g id="text_5">
      <!-- David Koechner -->
      <g transform="translate(412.068375 334.86875) rotate(-90) scale(0.1 -0.1)">
       <defs>
        <path id="DejaVuSans-4b" d="M 628 4666 
L 1259 4666 
L 1259 2694 
L 3353 4666 
L 4166 4666 
L 1850 2491 
L 4331 0 
L 3500 0 
L 1259 2247 
L 1259 0 
L 628 0 
L 628 4666 
z
" transform="scale(0.015625)"/>
       </defs>
       <use xlink:href="#DejaVuSans-44"/>
       <use xlink:href="#DejaVuSans-61" x="77.001953"/>
       <use xlink:href="#DejaVuSans-76" x="138.28125"/>
       <use xlink:href="#DejaVuSans-69" x="197.460938"/>
       <use xlink:href="#DejaVuSans-64" x="225.244141"/>
       <use xlink:href="#DejaVuSans-20" x="288.720703"/>
       <use xlink:href="#DejaVuSans-4b" x="320.507812"/>
       <use xlink:href="#DejaVuSans-6f" x="381.083984"/>
       <use xlink:href="#DejaVuSans-65" x="442.265625"/>
       <use xlink:href="#DejaVuSans-63" x="503.789062"/>
       <use xlink:href="#DejaVuSans-68" x="558.769531"/>
       <use xlink:href="#DejaVuSans-6e" x="622.148438"/>
       <use xlink:href="#DejaVuSans-65" x="685.527344"/>
       <use xlink:href="#DejaVuSans-72" x="747.050781"/>
      </g>
     </g>
    </g>
   </g>
   <g id="matplotlib.axis_2">
    <g id="ytick_1">
     <g id="line2d_6">
      <defs>
       <path id="mc3f89324e2" d="M 0 0 
L -3.5 0 
" style="stroke: #000000; stroke-width: 0.8"/>
      </defs>
      <g>
       <use xlink:href="#mc3f89324e2" x="43.09" y="249.05" style="stroke: #000000; stroke-width: 0.8"/>
      </g>
     </g>
     <g id="text_6">
      <!-- 0 -->
      <g transform="translate(29.7275 252.849219) scale(0.1 -0.1)">
       <defs>
        <path id="DejaVuSans-30" d="M 2034 4250 
Q 1547 4250 1301 3770 
Q 1056 3291 1056 2328 
Q 1056 1369 1301 889 
Q 1547 409 2034 409 
Q 2525 409 2770 889 
Q 3016 1369 3016 2328 
Q 3016 3291 2770 3770 
Q 2525 4250 2034 4250 
z
M 2034 4750 
Q 2819 4750 3233 4129 
Q 3647 3509 3647 2328 
Q 3647 1150 3233 529 
Q 2819 -91 2034 -91 
Q 1250 -91 836 529 
Q 422 1150 422 2328 
Q 422 3509 836 4129 
Q 1250 4750 2034 4750 
z
" transform="scale(0.015625)"/>
       </defs>
       <use xlink:href="#DejaVuSans-30"/>
      </g>
     </g>
    </g>
    <g id="ytick_2">
     <g id="line2d_7">
      <g>
       <use xlink:href="#mc3f89324e2" x="43.09" y="214.936863" style="stroke: #000000; stroke-width: 0.8"/>
      </g>
     </g>
     <g id="text_7">
      <!-- 500 -->
      <g transform="translate(17.0025 218.736081) scale(0.1 -0.1)">
       <defs>
        <path id="DejaVuSans-35" d="M 691 4666 
L 3169 4666 
L 3169 4134 
L 1269 4134 
L 1269 2991 
Q 1406 3038 1543 3061 
Q 1681 3084 1819 3084 
Q 2600 3084 3056 2656 
Q 3513 2228 3513 1497 
Q 3513 744 3044 326 
Q 2575 -91 1722 -91 
Q 1428 -91 1123 -41 
Q 819 9 494 109 
L 494 744 
Q 775 591 1075 516 
Q 1375 441 1709 441 
Q 2250 441 2565 725 
Q 2881 1009 2881 1497 
Q 2881 1984 2565 2268 
Q 2250 2553 1709 2553 
Q 1456 2553 1204 2497 
Q 953 2441 691 2322 
L 691 4666 
z
" transform="scale(0.015625)"/>
       </defs>
       <use xlink:href="#DejaVuSans-35"/>
       <use xlink:href="#DejaVuSans-30" x="63.623047"/>
       <use xlink:href="#DejaVuSans-30" x="127.246094"/>
      </g>
     </g>
    </g>
    <g id="ytick_3">
     <g id="line2d_8">
      <g>
       <use xlink:href="#mc3f89324e2" x="43.09" y="180.823725" style="stroke: #000000; stroke-width: 0.8"/>
      </g>
     </g>
     <g id="text_8">
      <!-- 1000 -->
      <g transform="translate(10.64 184.622944) scale(0.1 -0.1)">
       <defs>
        <path id="DejaVuSans-31" d="M 794 531 
L 1825 531 
L 1825 4091 
L 703 3866 
L 703 4441 
L 1819 4666 
L 2450 4666 
L 2450 531 
L 3481 531 
L 3481 0 
L 794 0 
L 794 531 
z
" transform="scale(0.015625)"/>
       </defs>
       <use xlink:href="#DejaVuSans-31"/>
       <use xlink:href="#DejaVuSans-30" x="63.623047"/>
       <use xlink:href="#DejaVuSans-30" x="127.246094"/>
       <use xlink:href="#DejaVuSans-30" x="190.869141"/>
      </g>
     </g>
    </g>
    <g id="ytick_4">
     <g id="line2d_9">
      <g>
       <use xlink:href="#mc3f89324e2" x="43.09" y="146.710588" style="stroke: #000000; stroke-width: 0.8"/>
      </g>
     </g>
     <g id="text_9">
      <!-- 1500 -->
      <g transform="translate(10.64 150.509806) scale(0.1 -0.1)">
       <use xlink:href="#DejaVuSans-31"/>
       <use xlink:href="#DejaVuSans-35" x="63.623047"/>
       <use xlink:href="#DejaVuSans-30" x="127.246094"/>
       <use xlink:href="#DejaVuSans-30" x="190.869141"/>
      </g>
     </g>
    </g>
    <g id="ytick_5">
     <g id="line2d_10">
      <g>
       <use xlink:href="#mc3f89324e2" x="43.09" y="112.59745" style="stroke: #000000; stroke-width: 0.8"/>
      </g>
     </g>
     <g id="text_10">
      <!-- 2000 -->
      <g transform="translate(10.64 116.396669) scale(0.1 -0.1)">
       <defs>
        <path id="DejaVuSans-32" d="M 1228 531 
L 3431 531 
L 3431 0 
L 469 0 
L 469 531 
Q 828 903 1448 1529 
Q 2069 2156 2228 2338 
Q 2531 2678 2651 2914 
Q 2772 3150 2772 3378 
Q 2772 3750 2511 3984 
Q 2250 4219 1831 4219 
Q 1534 4219 1204 4116 
Q 875 4013 500 3803 
L 500 4441 
Q 881 4594 1212 4672 
Q 1544 4750 1819 4750 
Q 2544 4750 2975 4387 
Q 3406 4025 3406 3419 
Q 3406 3131 3298 2873 
Q 3191 2616 2906 2266 
Q 2828 2175 2409 1742 
Q 1991 1309 1228 531 
z
" transform="scale(0.015625)"/>
       </defs>
       <use xlink:href="#DejaVuSans-32"/>
       <use xlink:href="#DejaVuSans-30" x="63.623047"/>
       <use xlink:href="#DejaVuSans-30" x="127.246094"/>
       <use xlink:href="#DejaVuSans-30" x="190.869141"/>
      </g>
     </g>
    </g>
    <g id="ytick_6">
     <g id="line2d_11">
      <g>
       <use xlink:href="#mc3f89324e2" x="43.09" y="78.484313" style="stroke: #000000; stroke-width: 0.8"/>
      </g>
     </g>
     <g id="text_11">
      <!-- 2500 -->
      <g transform="translate(10.64 82.283532) scale(0.1 -0.1)">
       <use xlink:href="#DejaVuSans-32"/>
       <use xlink:href="#DejaVuSans-35" x="63.623047"/>
       <use xlink:href="#DejaVuSans-30" x="127.246094"/>
       <use xlink:href="#DejaVuSans-30" x="190.869141"/>
      </g>
     </g>
    </g>
    <g id="ytick_7">
     <g id="line2d_12">
      <g>
       <use xlink:href="#mc3f89324e2" x="43.09" y="44.371175" style="stroke: #000000; stroke-width: 0.8"/>
      </g>
     </g>
     <g id="text_12">
      <!-- 3000 -->
      <g transform="translate(10.64 48.170394) scale(0.1 -0.1)">
       <defs>
        <path id="DejaVuSans-33" d="M 2597 2516 
Q 3050 2419 3304 2112 
Q 3559 1806 3559 1356 
Q 3559 666 3084 287 
Q 2609 -91 1734 -91 
Q 1441 -91 1130 -33 
Q 819 25 488 141 
L 488 750 
Q 750 597 1062 519 
Q 1375 441 1716 441 
Q 2309 441 2620 675 
Q 2931 909 2931 1356 
Q 2931 1769 2642 2001 
Q 2353 2234 1838 2234 
L 1294 2234 
L 1294 2753 
L 1863 2753 
Q 2328 2753 2575 2939 
Q 2822 3125 2822 3475 
Q 2822 3834 2567 4026 
Q 2313 4219 1838 4219 
Q 1578 4219 1281 4162 
Q 984 4106 628 3988 
L 628 4550 
Q 988 4650 1302 4700 
Q 1616 4750 1894 4750 
Q 2613 4750 3031 4423 
Q 3450 4097 3450 3541 
Q 3450 3153 3228 2886 
Q 3006 2619 2597 2516 
z
" transform="scale(0.015625)"/>
       </defs>
       <use xlink:href="#DejaVuSans-33"/>
       <use xlink:href="#DejaVuSans-30" x="63.623047"/>
       <use xlink:href="#DejaVuSans-30" x="127.246094"/>
       <use xlink:href="#DejaVuSans-30" x="190.869141"/>
      </g>
     </g>
    </g>
   </g>
   <g id="patch_318">
    <path d="M 43.09 249.05 
L 43.09 10.8 
" style="fill: none; stroke: #000000; stroke-width: 0.8; stroke-linejoin: miter; stroke-linecap: square"/>
   </g>
   <g id="patch_319">
    <path d="M 450 249.05 
L 450 10.8 
" style="fill: none; stroke: #000000; stroke-width: 0.8; stroke-linejoin: miter; stroke-linecap: square"/>
   </g>
   <g id="patch_320">
    <path d="M 43.09 249.05 
L 450 249.05 
" style="fill: none; stroke: #000000; stroke-width: 0.8; stroke-linejoin: miter; stroke-linecap: square"/>
   </g>
   <g id="patch_321">
    <path d="M 43.09 10.8 
L 450 10.8 
" style="fill: none; stroke: #000000; stroke-width: 0.8; stroke-linejoin: miter; stroke-linecap: square"/>
   </g>
  </g>
 </g>
 <defs>
  <clipPath id="p246d859f8e">
   <rect x="43.09" y="10.8" width="406.91" height="238.25"/>
  </clipPath>
 </defs>
</svg>
