<?xml version="1.0" encoding="utf-8" standalone="no"?>
<!DOCTYPE svg PUBLIC "-//W3C//DTD SVG 1.1//EN"
  "http://www.w3.org/Graphics/SVG/1.1/DTD/svg11.dtd">
<svg xmlns:xlink="http://www.w3.org/1999/xlink" width="460.8pt" height="345.6pt" viewBox="0 0 460.8 345.6" xmlns="http://www.w3.org/2000/svg" version="1.1">
 <metadata>
  <rdf:RDF xmlns:dc="http://purl.org/dc/elements/1.1/" xmlns:cc="http://creativecommons.org/ns#" xmlns:rdf="http://www.w3.org/1999/02/22-rdf-syntax-ns#">
   <cc:Work>
    <dc:type rdf:resource="http://purl.org/dc/dcmitype/StillImage"/>
    <dc:date>2022-12-20T12:31:08.719425</dc:date>
    <dc:format>image/svg+xml</dc:format>
    <dc:creator>
     <cc:Agent>
      <dc:title>Matplotlib v3.6.0, https://matplotlib.org/</dc:title>
     </cc:Agent>
    </dc:creator>
   </cc:Work>
  </rdf:RDF>
 </metadata>
 <defs>
  <style type="text/css">*{stroke-linejoin: round; stroke-linecap: butt}</style>
 </defs>
 <g id="figure_1">
  <g id="patch_1">
   <path d="M 0 345.6 
L 460.8 345.6 
L 460.8 0 
L 0 0 
z
" style="fill: #ffffff"/>
  </g>
  <g id="axes_1">
   <g id="patch_2">
    <path d="M 43.09 224.21 
L 450 224.21 
L 450 10.8 
L 43.09 10.8 
z
" style="fill: #ffffff"/>
   </g>
   <g id="patch_3">
    <path d="M 63.4355 224.21 
L 104.1265 224.21 
L 104.1265 155.497046 
L 63.4355 155.497046 
z
" clip-path="url(#pf55f1af5b8)" style="fill: #1f77b4"/>
   </g>
   <g id="patch_4">
    <path d="M 144.8175 224.21 
L 185.5085 224.21 
L 185.5085 171.658265 
L 144.8175 171.658265 
z
" clip-path="url(#pf55f1af5b8)" style="fill: #1f77b4"/>
   </g>
   <g id="patch_5">
    <path d="M 226.1995 224.21 
L 266.8905 224.21 
L 266.8905 166.850519 
L 226.1995 166.850519 
z
" clip-path="url(#pf55f1af5b8)" style="fill: #1f77b4"/>
   </g>
   <g id="patch_6">
    <path d="M 307.5815 224.21 
L 348.2725 224.21 
L 348.2725 177.414276 
L 307.5815 177.414276 
z
" clip-path="url(#pf55f1af5b8)" style="fill: #1f77b4"/>
   </g>
   <g id="patch_7">
    <path d="M 388.9635 224.21 
L 429.6545 224.21 
L 429.6545 196.055729 
L 388.9635 196.055729 
z
" clip-path="url(#pf55f1af5b8)" style="fill: #1f77b4"/>
   </g>
   <g id="patch_8">
    <path d="M 63.4355 224.21 
L 104.1265 224.21 
L 104.1265 224.026661 
L 63.4355 224.026661 
z
" clip-path="url(#pf55f1af5b8)" style="fill: #1f77b4"/>
   </g>
   <g id="patch_9">
    <path d="M 144.8175 224.21 
L 185.5085 224.21 
L 185.5085 224.148887 
L 144.8175 224.148887 
z
" clip-path="url(#pf55f1af5b8)" style="fill: #1f77b4"/>
   </g>
   <g id="patch_10">
    <path d="M 226.1995 224.21 
L 266.8905 224.21 
L 266.8905 224.21 
L 226.1995 224.21 
z
" clip-path="url(#pf55f1af5b8)" style="fill: #1f77b4"/>
   </g>
   <g id="patch_11">
    <path d="M 63.4355 224.21 
L 104.1265 224.21 
L 104.1265 224.189629 
L 63.4355 224.189629 
z
" clip-path="url(#pf55f1af5b8)" style="fill: #1f77b4"/>
   </g>
   <g id="patch_12">
    <path d="M 144.8175 224.21 
L 185.5085 224.21 
L 185.5085 224.189629 
L 144.8175 224.189629 
z
" clip-path="url(#pf55f1af5b8)" style="fill: #1f77b4"/>
   </g>
   <g id="patch_13">
    <path d="M 226.1995 224.21 
L 266.8905 224.21 
L 266.8905 224.189629 
L 226.1995 224.189629 
z
" clip-path="url(#pf55f1af5b8)" style="fill: #1f77b4"/>
   </g>
   <g id="patch_14">
    <path d="M 307.5815 224.21 
L 348.2725 224.21 
L 348.2725 224.148887 
L 307.5815 224.148887 
z
" clip-path="url(#pf55f1af5b8)" style="fill: #1f77b4"/>
   </g>
   <g id="patch_15">
    <path d="M 388.9635 224.21 
L 429.6545 224.21 
L 429.6545 224.21 
L 388.9635 224.21 
z
" clip-path="url(#pf55f1af5b8)" style="fill: #1f77b4"/>
   </g>
   <g id="patch_16">
    <path d="M 63.4355 224.21 
L 104.1265 224.21 
L 104.1265 212.720758 
L 63.4355 212.720758 
z
" clip-path="url(#pf55f1af5b8)" style="fill: #1f77b4"/>
   </g>
   <g id="patch_17">
    <path d="M 144.8175 224.21 
L 185.5085 224.21 
L 185.5085 220.971012 
L 144.8175 220.971012 
z
" clip-path="url(#pf55f1af5b8)" style="fill: #1f77b4"/>
   </g>
   <g id="patch_18">
    <path d="M 226.1995 224.21 
L 266.8905 224.21 
L 266.8905 221.551585 
L 226.1995 221.551585 
z
" clip-path="url(#pf55f1af5b8)" style="fill: #1f77b4"/>
   </g>
   <g id="patch_19">
    <path d="M 307.5815 224.21 
L 348.2725 224.21 
L 348.2725 213.026323 
L 307.5815 213.026323 
z
" clip-path="url(#pf55f1af5b8)" style="fill: #1f77b4"/>
   </g>
   <g id="patch_20">
    <path d="M 388.9635 224.21 
L 429.6545 224.21 
L 429.6545 222.773845 
L 388.9635 222.773845 
z
" clip-path="url(#pf55f1af5b8)" style="fill: #1f77b4"/>
   </g>
   <g id="patch_21">
    <path d="M 63.4355 224.21 
L 104.1265 224.21 
L 104.1265 224.148887 
L 63.4355 224.148887 
z
" clip-path="url(#pf55f1af5b8)" style="fill: #1f77b4"/>
   </g>
   <g id="patch_22">
    <path d="M 144.8175 224.21 
L 185.5085 224.21 
L 185.5085 224.21 
L 144.8175 224.21 
z
" clip-path="url(#pf55f1af5b8)" style="fill: #1f77b4"/>
   </g>
   <g id="patch_23">
    <path d="M 226.1995 224.21 
L 266.8905 224.21 
L 266.8905 224.21 
L 226.1995 224.21 
z
" clip-path="url(#pf55f1af5b8)" style="fill: #1f77b4"/>
   </g>
   <g id="patch_24">
    <path d="M 307.5815 224.21 
L 348.2725 224.21 
L 348.2725 224.21 
L 307.5815 224.21 
z
" clip-path="url(#pf55f1af5b8)" style="fill: #1f77b4"/>
   </g>
   <g id="patch_25">
    <path d="M 63.4355 224.21 
L 104.1265 224.21 
L 104.1265 222.559949 
L 63.4355 222.559949 
z
" clip-path="url(#pf55f1af5b8)" style="fill: #1f77b4"/>
   </g>
   <g id="patch_26">
    <path d="M 144.8175 224.21 
L 185.5085 224.21 
L 185.5085 224.026661 
L 144.8175 224.026661 
z
" clip-path="url(#pf55f1af5b8)" style="fill: #1f77b4"/>
   </g>
   <g id="patch_27">
    <path d="M 226.1995 224.21 
L 266.8905 224.21 
L 266.8905 224.148887 
L 226.1995 224.148887 
z
" clip-path="url(#pf55f1af5b8)" style="fill: #1f77b4"/>
   </g>
   <g id="patch_28">
    <path d="M 307.5815 224.21 
L 348.2725 224.21 
L 348.2725 224.148887 
L 307.5815 224.148887 
z
" clip-path="url(#pf55f1af5b8)" style="fill: #1f77b4"/>
   </g>
   <g id="patch_29">
    <path d="M 388.9635 224.21 
L 429.6545 224.21 
L 429.6545 223.782209 
L 388.9635 223.782209 
z
" clip-path="url(#pf55f1af5b8)" style="fill: #1f77b4"/>
   </g>
   <g id="patch_30">
    <path d="M 63.4355 224.21 
L 104.1265 224.21 
L 104.1265 224.087774 
L 63.4355 224.087774 
z
" clip-path="url(#pf55f1af5b8)" style="fill: #1f77b4"/>
   </g>
   <g id="patch_31">
    <path d="M 144.8175 224.21 
L 185.5085 224.21 
L 185.5085 224.087774 
L 144.8175 224.087774 
z
" clip-path="url(#pf55f1af5b8)" style="fill: #1f77b4"/>
   </g>
   <g id="patch_32">
    <path d="M 226.1995 224.21 
L 266.8905 224.21 
L 266.8905 224.087774 
L 226.1995 224.087774 
z
" clip-path="url(#pf55f1af5b8)" style="fill: #1f77b4"/>
   </g>
   <g id="patch_33">
    <path d="M 307.5815 224.21 
L 348.2725 224.21 
L 348.2725 224.087774 
L 307.5815 224.087774 
z
" clip-path="url(#pf55f1af5b8)" style="fill: #1f77b4"/>
   </g>
   <g id="patch_34">
    <path d="M 388.9635 224.21 
L 429.6545 224.21 
L 429.6545 224.087774 
L 388.9635 224.087774 
z
" clip-path="url(#pf55f1af5b8)" style="fill: #1f77b4"/>
   </g>
   <g id="patch_35">
    <path d="M 63.4355 224.21 
L 104.1265 224.21 
L 104.1265 224.026661 
L 63.4355 224.026661 
z
" clip-path="url(#pf55f1af5b8)" style="fill: #1f77b4"/>
   </g>
   <g id="patch_36">
    <path d="M 144.8175 224.21 
L 185.5085 224.21 
L 185.5085 224.057218 
L 144.8175 224.057218 
z
" clip-path="url(#pf55f1af5b8)" style="fill: #1f77b4"/>
   </g>
   <g id="patch_37">
    <path d="M 226.1995 224.21 
L 266.8905 224.21 
L 266.8905 224.148887 
L 226.1995 224.148887 
z
" clip-path="url(#pf55f1af5b8)" style="fill: #1f77b4"/>
   </g>
   <g id="patch_38">
    <path d="M 307.5815 224.21 
L 348.2725 224.21 
L 348.2725 224.179444 
L 307.5815 224.179444 
z
" clip-path="url(#pf55f1af5b8)" style="fill: #1f77b4"/>
   </g>
   <g id="patch_39">
    <path d="M 388.9635 224.21 
L 429.6545 224.21 
L 429.6545 224.179444 
L 388.9635 224.179444 
z
" clip-path="url(#pf55f1af5b8)" style="fill: #1f77b4"/>
   </g>
   <g id="patch_40">
    <path d="M 63.4355 224.21 
L 104.1265 224.21 
L 104.1265 224.026661 
L 63.4355 224.026661 
z
" clip-path="url(#pf55f1af5b8)" style="fill: #1f77b4"/>
   </g>
   <g id="patch_41">
    <path d="M 144.8175 224.21 
L 185.5085 224.21 
L 185.5085 224.21 
L 144.8175 224.21 
z
" clip-path="url(#pf55f1af5b8)" style="fill: #1f77b4"/>
   </g>
   <g id="patch_42">
    <path d="M 226.1995 224.21 
L 266.8905 224.21 
L 266.8905 224.21 
L 226.1995 224.21 
z
" clip-path="url(#pf55f1af5b8)" style="fill: #1f77b4"/>
   </g>
   <g id="patch_43">
    <path d="M 63.4355 224.21 
L 104.1265 224.21 
L 104.1265 224.026661 
L 63.4355 224.026661 
z
" clip-path="url(#pf55f1af5b8)" style="fill: #1f77b4"/>
   </g>
   <g id="patch_44">
    <path d="M 144.8175 224.21 
L 185.5085 224.21 
L 185.5085 224.148887 
L 144.8175 224.148887 
z
" clip-path="url(#pf55f1af5b8)" style="fill: #1f77b4"/>
   </g>
   <g id="patch_45">
    <path d="M 63.4355 224.21 
L 104.1265 224.21 
L 104.1265 156.825654 
L 63.4355 156.825654 
z
" clip-path="url(#pf55f1af5b8)" style="fill: #1f77b4"/>
   </g>
   <g id="patch_46">
    <path d="M 144.8175 224.21 
L 185.5085 224.21 
L 185.5085 175.791857 
L 144.8175 175.791857 
z
" clip-path="url(#pf55f1af5b8)" style="fill: #1f77b4"/>
   </g>
   <g id="patch_47">
    <path d="M 226.1995 224.21 
L 266.8905 224.21 
L 266.8905 182.12661 
L 226.1995 182.12661 
z
" clip-path="url(#pf55f1af5b8)" style="fill: #1f77b4"/>
   </g>
   <g id="patch_48">
    <path d="M 307.5815 224.21 
L 348.2725 224.21 
L 348.2725 175.960032 
L 307.5815 175.960032 
z
" clip-path="url(#pf55f1af5b8)" style="fill: #1f77b4"/>
   </g>
   <g id="patch_49">
    <path d="M 388.9635 224.21 
L 429.6545 224.21 
L 429.6545 188.722627 
L 388.9635 188.722627 
z
" clip-path="url(#pf55f1af5b8)" style="fill: #1f77b4"/>
   </g>
   <g id="patch_50">
    <path d="M 63.4355 224.21 
L 104.1265 224.21 
L 104.1265 224.21 
L 63.4355 224.21 
z
" clip-path="url(#pf55f1af5b8)" style="fill: #1f77b4"/>
   </g>
   <g id="patch_51">
    <path d="M 144.8175 224.21 
L 185.5085 224.21 
L 185.5085 224.21 
L 144.8175 224.21 
z
" clip-path="url(#pf55f1af5b8)" style="fill: #1f77b4"/>
   </g>
   <g id="patch_52">
    <path d="M 226.1995 224.21 
L 266.8905 224.21 
L 266.8905 224.21 
L 226.1995 224.21 
z
" clip-path="url(#pf55f1af5b8)" style="fill: #1f77b4"/>
   </g>
   <g id="patch_53">
    <path d="M 307.5815 224.21 
L 348.2725 224.21 
L 348.2725 224.21 
L 307.5815 224.21 
z
" clip-path="url(#pf55f1af5b8)" style="fill: #1f77b4"/>
   </g>
   <g id="patch_54">
    <path d="M 388.9635 224.21 
L 429.6545 224.21 
L 429.6545 224.21 
L 388.9635 224.21 
z
" clip-path="url(#pf55f1af5b8)" style="fill: #1f77b4"/>
   </g>
   <g id="patch_55">
    <path d="M 63.4355 224.21 
L 104.1265 224.21 
L 104.1265 224.148887 
L 63.4355 224.148887 
z
" clip-path="url(#pf55f1af5b8)" style="fill: #1f77b4"/>
   </g>
   <g id="patch_56">
    <path d="M 144.8175 224.21 
L 185.5085 224.21 
L 185.5085 224.21 
L 144.8175 224.21 
z
" clip-path="url(#pf55f1af5b8)" style="fill: #1f77b4"/>
   </g>
   <g id="patch_57">
    <path d="M 226.1995 224.21 
L 266.8905 224.21 
L 266.8905 224.21 
L 226.1995 224.21 
z
" clip-path="url(#pf55f1af5b8)" style="fill: #1f77b4"/>
   </g>
   <g id="patch_58">
    <path d="M 307.5815 224.21 
L 348.2725 224.21 
L 348.2725 224.21 
L 307.5815 224.21 
z
" clip-path="url(#pf55f1af5b8)" style="fill: #1f77b4"/>
   </g>
   <g id="patch_59">
    <path d="M 388.9635 224.21 
L 429.6545 224.21 
L 429.6545 224.21 
L 388.9635 224.21 
z
" clip-path="url(#pf55f1af5b8)" style="fill: #1f77b4"/>
   </g>
   <g id="patch_60">
    <path d="M 63.4355 224.21 
L 104.1265 224.21 
L 104.1265 223.873879 
L 63.4355 223.873879 
z
" clip-path="url(#pf55f1af5b8)" style="fill: #1f77b4"/>
   </g>
   <g id="patch_61">
    <path d="M 144.8175 224.21 
L 185.5085 224.21 
L 185.5085 224.026661 
L 144.8175 224.026661 
z
" clip-path="url(#pf55f1af5b8)" style="fill: #1f77b4"/>
   </g>
   <g id="patch_62">
    <path d="M 226.1995 224.21 
L 266.8905 224.21 
L 266.8905 224.179444 
L 226.1995 224.179444 
z
" clip-path="url(#pf55f1af5b8)" style="fill: #1f77b4"/>
   </g>
   <g id="patch_63">
    <path d="M 307.5815 224.21 
L 348.2725 224.21 
L 348.2725 224.21 
L 307.5815 224.21 
z
" clip-path="url(#pf55f1af5b8)" style="fill: #1f77b4"/>
   </g>
   <g id="patch_64">
    <path d="M 388.9635 224.21 
L 429.6545 224.21 
L 429.6545 224.21 
L 388.9635 224.21 
z
" clip-path="url(#pf55f1af5b8)" style="fill: #1f77b4"/>
   </g>
   <g id="patch_65">
    <path d="M 63.4355 224.21 
L 104.1265 224.21 
L 104.1265 217.457015 
L 63.4355 217.457015 
z
" clip-path="url(#pf55f1af5b8)" style="fill: #1f77b4"/>
   </g>
   <g id="patch_66">
    <path d="M 144.8175 224.21 
L 185.5085 224.21 
L 185.5085 223.59887 
L 144.8175 223.59887 
z
" clip-path="url(#pf55f1af5b8)" style="fill: #1f77b4"/>
   </g>
   <g id="patch_67">
    <path d="M 226.1995 224.21 
L 266.8905 224.21 
L 266.8905 220.52285 
L 226.1995 220.52285 
z
" clip-path="url(#pf55f1af5b8)" style="fill: #1f77b4"/>
   </g>
   <g id="patch_68">
    <path d="M 307.5815 224.21 
L 348.2725 224.21 
L 348.2725 219.565413 
L 307.5815 219.565413 
z
" clip-path="url(#pf55f1af5b8)" style="fill: #1f77b4"/>
   </g>
   <g id="patch_69">
    <path d="M 388.9635 224.21 
L 429.6545 224.21 
L 429.6545 220.451551 
L 388.9635 220.451551 
z
" clip-path="url(#pf55f1af5b8)" style="fill: #1f77b4"/>
   </g>
   <g id="patch_70">
    <path d="M 63.4355 224.21 
L 104.1265 224.21 
L 104.1265 203.872235 
L 63.4355 203.872235 
z
" clip-path="url(#pf55f1af5b8)" style="fill: #1f77b4"/>
   </g>
   <g id="patch_71">
    <path d="M 144.8175 224.21 
L 185.5085 224.21 
L 185.5085 206.79072 
L 144.8175 206.79072 
z
" clip-path="url(#pf55f1af5b8)" style="fill: #1f77b4"/>
   </g>
   <g id="patch_72">
    <path d="M 226.1995 224.21 
L 266.8905 224.21 
L 266.8905 181.907019 
L 226.1995 181.907019 
z
" clip-path="url(#pf55f1af5b8)" style="fill: #1f77b4"/>
   </g>
   <g id="patch_73">
    <path d="M 307.5815 224.21 
L 348.2725 224.21 
L 348.2725 198.700422 
L 307.5815 198.700422 
z
" clip-path="url(#pf55f1af5b8)" style="fill: #1f77b4"/>
   </g>
   <g id="patch_74">
    <path d="M 388.9635 224.21 
L 429.6545 224.21 
L 429.6545 181.628496 
L 388.9635 181.628496 
z
" clip-path="url(#pf55f1af5b8)" style="fill: #1f77b4"/>
   </g>
   <g id="patch_75">
    <path d="M 63.4355 224.21 
L 104.1265 224.21 
L 104.1265 224.21 
L 63.4355 224.21 
z
" clip-path="url(#pf55f1af5b8)" style="fill: #1f77b4"/>
   </g>
   <g id="patch_76">
    <path d="M 144.8175 224.21 
L 185.5085 224.21 
L 185.5085 224.21 
L 144.8175 224.21 
z
" clip-path="url(#pf55f1af5b8)" style="fill: #1f77b4"/>
   </g>
   <g id="patch_77">
    <path d="M 63.4355 224.21 
L 104.1265 224.21 
L 104.1265 223.446088 
L 63.4355 223.446088 
z
" clip-path="url(#pf55f1af5b8)" style="fill: #1f77b4"/>
   </g>
   <g id="patch_78">
    <path d="M 144.8175 224.21 
L 185.5085 224.21 
L 185.5085 223.59887 
L 144.8175 223.59887 
z
" clip-path="url(#pf55f1af5b8)" style="fill: #1f77b4"/>
   </g>
   <g id="patch_79">
    <path d="M 226.1995 224.21 
L 266.8905 224.21 
L 266.8905 223.843322 
L 226.1995 223.843322 
z
" clip-path="url(#pf55f1af5b8)" style="fill: #1f77b4"/>
   </g>
   <g id="patch_80">
    <path d="M 307.5815 224.21 
L 348.2725 224.21 
L 348.2725 224.148887 
L 307.5815 224.148887 
z
" clip-path="url(#pf55f1af5b8)" style="fill: #1f77b4"/>
   </g>
   <g id="patch_81">
    <path d="M 388.9635 224.21 
L 429.6545 224.21 
L 429.6545 224.087774 
L 388.9635 224.087774 
z
" clip-path="url(#pf55f1af5b8)" style="fill: #1f77b4"/>
   </g>
   <g id="patch_82">
    <path d="M 63.4355 224.21 
L 104.1265 224.21 
L 104.1265 224.026661 
L 63.4355 224.026661 
z
" clip-path="url(#pf55f1af5b8)" style="fill: #1f77b4"/>
   </g>
   <g id="patch_83">
    <path d="M 144.8175 224.21 
L 185.5085 224.21 
L 185.5085 224.026661 
L 144.8175 224.026661 
z
" clip-path="url(#pf55f1af5b8)" style="fill: #1f77b4"/>
   </g>
   <g id="patch_84">
    <path d="M 226.1995 224.21 
L 266.8905 224.21 
L 266.8905 224.148887 
L 226.1995 224.148887 
z
" clip-path="url(#pf55f1af5b8)" style="fill: #1f77b4"/>
   </g>
   <g id="patch_85">
    <path d="M 307.5815 224.21 
L 348.2725 224.21 
L 348.2725 224.21 
L 307.5815 224.21 
z
" clip-path="url(#pf55f1af5b8)" style="fill: #1f77b4"/>
   </g>
   <g id="patch_86">
    <path d="M 388.9635 224.21 
L 429.6545 224.21 
L 429.6545 224.21 
L 388.9635 224.21 
z
" clip-path="url(#pf55f1af5b8)" style="fill: #1f77b4"/>
   </g>
   <g id="patch_87">
    <path d="M 63.4355 224.21 
L 104.1265 224.21 
L 104.1265 222.926627 
L 63.4355 222.926627 
z
" clip-path="url(#pf55f1af5b8)" style="fill: #1f77b4"/>
   </g>
   <g id="patch_88">
    <path d="M 144.8175 224.21 
L 185.5085 224.21 
L 185.5085 224.179444 
L 144.8175 224.179444 
z
" clip-path="url(#pf55f1af5b8)" style="fill: #1f77b4"/>
   </g>
   <g id="patch_89">
    <path d="M 226.1995 224.21 
L 266.8905 224.21 
L 266.8905 224.179444 
L 226.1995 224.179444 
z
" clip-path="url(#pf55f1af5b8)" style="fill: #1f77b4"/>
   </g>
   <g id="patch_90">
    <path d="M 307.5815 224.21 
L 348.2725 224.21 
L 348.2725 224.179444 
L 307.5815 224.179444 
z
" clip-path="url(#pf55f1af5b8)" style="fill: #1f77b4"/>
   </g>
   <g id="patch_91">
    <path d="M 388.9635 224.21 
L 429.6545 224.21 
L 429.6545 224.179444 
L 388.9635 224.179444 
z
" clip-path="url(#pf55f1af5b8)" style="fill: #1f77b4"/>
   </g>
   <g id="patch_92">
    <path d="M 63.4355 224.21 
L 104.1265 224.21 
L 104.1265 224.21 
L 63.4355 224.21 
z
" clip-path="url(#pf55f1af5b8)" style="fill: #1f77b4"/>
   </g>
   <g id="patch_93">
    <path d="M 63.4355 224.21 
L 104.1265 224.21 
L 104.1265 223.904435 
L 63.4355 223.904435 
z
" clip-path="url(#pf55f1af5b8)" style="fill: #1f77b4"/>
   </g>
   <g id="patch_94">
    <path d="M 144.8175 224.21 
L 185.5085 224.21 
L 185.5085 223.904435 
L 144.8175 223.904435 
z
" clip-path="url(#pf55f1af5b8)" style="fill: #1f77b4"/>
   </g>
   <g id="patch_95">
    <path d="M 226.1995 224.21 
L 266.8905 224.21 
L 266.8905 224.148887 
L 226.1995 224.148887 
z
" clip-path="url(#pf55f1af5b8)" style="fill: #1f77b4"/>
   </g>
   <g id="patch_96">
    <path d="M 63.4355 224.21 
L 104.1265 224.21 
L 104.1265 222.926627 
L 63.4355 222.926627 
z
" clip-path="url(#pf55f1af5b8)" style="fill: #1f77b4"/>
   </g>
   <g id="patch_97">
    <path d="M 144.8175 224.21 
L 185.5085 224.21 
L 185.5085 224.148887 
L 144.8175 224.148887 
z
" clip-path="url(#pf55f1af5b8)" style="fill: #1f77b4"/>
   </g>
   <g id="patch_98">
    <path d="M 226.1995 224.21 
L 266.8905 224.21 
L 266.8905 224.148887 
L 226.1995 224.148887 
z
" clip-path="url(#pf55f1af5b8)" style="fill: #1f77b4"/>
   </g>
   <g id="patch_99">
    <path d="M 307.5815 224.21 
L 348.2725 224.21 
L 348.2725 224.21 
L 307.5815 224.21 
z
" clip-path="url(#pf55f1af5b8)" style="fill: #1f77b4"/>
   </g>
   <g id="patch_100">
    <path d="M 388.9635 224.21 
L 429.6545 224.21 
L 429.6545 224.21 
L 388.9635 224.21 
z
" clip-path="url(#pf55f1af5b8)" style="fill: #1f77b4"/>
   </g>
   <g id="patch_101">
    <path d="M 63.4355 224.21 
L 104.1265 224.21 
L 104.1265 224.21 
L 63.4355 224.21 
z
" clip-path="url(#pf55f1af5b8)" style="fill: #1f77b4"/>
   </g>
   <g id="patch_102">
    <path d="M 63.4355 224.21 
L 104.1265 224.21 
L 104.1265 155.125446 
L 63.4355 155.125446 
z
" clip-path="url(#pf55f1af5b8)" style="fill: #1f77b4"/>
   </g>
   <g id="patch_103">
    <path d="M 144.8175 224.21 
L 185.5085 224.21 
L 185.5085 170.32641 
L 144.8175 170.32641 
z
" clip-path="url(#pf55f1af5b8)" style="fill: #1f77b4"/>
   </g>
   <g id="patch_104">
    <path d="M 226.1995 224.21 
L 266.8905 224.21 
L 266.8905 180.606885 
L 226.1995 180.606885 
z
" clip-path="url(#pf55f1af5b8)" style="fill: #1f77b4"/>
   </g>
   <g id="patch_105">
    <path d="M 307.5815 224.21 
L 348.2725 224.21 
L 348.2725 188.529754 
L 307.5815 188.529754 
z
" clip-path="url(#pf55f1af5b8)" style="fill: #1f77b4"/>
   </g>
   <g id="patch_106">
    <path d="M 388.9635 224.21 
L 429.6545 224.21 
L 429.6545 194.181256 
L 388.9635 194.181256 
z
" clip-path="url(#pf55f1af5b8)" style="fill: #1f77b4"/>
   </g>
   <g id="patch_107">
    <path d="M 63.4355 224.21 
L 104.1265 224.21 
L 104.1265 223.904435 
L 63.4355 223.904435 
z
" clip-path="url(#pf55f1af5b8)" style="fill: #1f77b4"/>
   </g>
   <g id="patch_108">
    <path d="M 144.8175 224.21 
L 185.5085 224.21 
L 185.5085 223.904435 
L 144.8175 223.904435 
z
" clip-path="url(#pf55f1af5b8)" style="fill: #1f77b4"/>
   </g>
   <g id="patch_109">
    <path d="M 226.1995 224.21 
L 266.8905 224.21 
L 266.8905 223.904435 
L 226.1995 223.904435 
z
" clip-path="url(#pf55f1af5b8)" style="fill: #1f77b4"/>
   </g>
   <g id="patch_110">
    <path d="M 307.5815 224.21 
L 348.2725 224.21 
L 348.2725 224.179444 
L 307.5815 224.179444 
z
" clip-path="url(#pf55f1af5b8)" style="fill: #1f77b4"/>
   </g>
   <g id="patch_111">
    <path d="M 388.9635 224.21 
L 429.6545 224.21 
L 429.6545 224.179444 
L 388.9635 224.179444 
z
" clip-path="url(#pf55f1af5b8)" style="fill: #1f77b4"/>
   </g>
   <g id="patch_112">
    <path d="M 63.4355 224.21 
L 104.1265 224.21 
L 104.1265 188.126003 
L 63.4355 188.126003 
z
" clip-path="url(#pf55f1af5b8)" style="fill: #1f77b4"/>
   </g>
   <g id="patch_113">
    <path d="M 144.8175 224.21 
L 185.5085 224.21 
L 185.5085 188.196346 
L 144.8175 188.196346 
z
" clip-path="url(#pf55f1af5b8)" style="fill: #1f77b4"/>
   </g>
   <g id="patch_114">
    <path d="M 226.1995 224.21 
L 266.8905 224.21 
L 266.8905 200.500832 
L 226.1995 200.500832 
z
" clip-path="url(#pf55f1af5b8)" style="fill: #1f77b4"/>
   </g>
   <g id="patch_115">
    <path d="M 307.5815 224.21 
L 348.2725 224.21 
L 348.2725 199.434753 
L 307.5815 199.434753 
z
" clip-path="url(#pf55f1af5b8)" style="fill: #1f77b4"/>
   </g>
   <g id="patch_116">
    <path d="M 388.9635 224.21 
L 429.6545 224.21 
L 429.6545 187.867426 
L 388.9635 187.867426 
z
" clip-path="url(#pf55f1af5b8)" style="fill: #1f77b4"/>
   </g>
   <g id="patch_117">
    <path d="M 63.4355 224.21 
L 104.1265 224.21 
L 104.1265 223.843322 
L 63.4355 223.843322 
z
" clip-path="url(#pf55f1af5b8)" style="fill: #1f77b4"/>
   </g>
   <g id="patch_118">
    <path d="M 144.8175 224.21 
L 185.5085 224.21 
L 185.5085 223.904435 
L 144.8175 223.904435 
z
" clip-path="url(#pf55f1af5b8)" style="fill: #1f77b4"/>
   </g>
   <g id="patch_119">
    <path d="M 226.1995 224.21 
L 266.8905 224.21 
L 266.8905 224.026661 
L 226.1995 224.026661 
z
" clip-path="url(#pf55f1af5b8)" style="fill: #1f77b4"/>
   </g>
   <g id="patch_120">
    <path d="M 307.5815 224.21 
L 348.2725 224.21 
L 348.2725 224.087774 
L 307.5815 224.087774 
z
" clip-path="url(#pf55f1af5b8)" style="fill: #1f77b4"/>
   </g>
   <g id="patch_121">
    <path d="M 388.9635 224.21 
L 429.6545 224.21 
L 429.6545 224.179444 
L 388.9635 224.179444 
z
" clip-path="url(#pf55f1af5b8)" style="fill: #1f77b4"/>
   </g>
   <g id="patch_122">
    <path d="M 63.4355 224.21 
L 104.1265 224.21 
L 104.1265 224.026661 
L 63.4355 224.026661 
z
" clip-path="url(#pf55f1af5b8)" style="fill: #1f77b4"/>
   </g>
   <g id="patch_123">
    <path d="M 144.8175 224.21 
L 185.5085 224.21 
L 185.5085 224.179444 
L 144.8175 224.179444 
z
" clip-path="url(#pf55f1af5b8)" style="fill: #1f77b4"/>
   </g>
   <g id="patch_124">
    <path d="M 226.1995 224.21 
L 266.8905 224.21 
L 266.8905 224.179444 
L 226.1995 224.179444 
z
" clip-path="url(#pf55f1af5b8)" style="fill: #1f77b4"/>
   </g>
   <g id="patch_125">
    <path d="M 307.5815 224.21 
L 348.2725 224.21 
L 348.2725 224.148887 
L 307.5815 224.148887 
z
" clip-path="url(#pf55f1af5b8)" style="fill: #1f77b4"/>
   </g>
   <g id="patch_126">
    <path d="M 388.9635 224.21 
L 429.6545 224.21 
L 429.6545 224.21 
L 388.9635 224.21 
z
" clip-path="url(#pf55f1af5b8)" style="fill: #1f77b4"/>
   </g>
   <g id="patch_127">
    <path d="M 63.4355 224.21 
L 104.1265 224.21 
L 104.1265 224.026661 
L 63.4355 224.026661 
z
" clip-path="url(#pf55f1af5b8)" style="fill: #1f77b4"/>
   </g>
   <g id="patch_128">
    <path d="M 144.8175 224.21 
L 185.5085 224.21 
L 185.5085 224.148887 
L 144.8175 224.148887 
z
" clip-path="url(#pf55f1af5b8)" style="fill: #1f77b4"/>
   </g>
   <g id="patch_129">
    <path d="M 226.1995 224.21 
L 266.8905 224.21 
L 266.8905 224.21 
L 226.1995 224.21 
z
" clip-path="url(#pf55f1af5b8)" style="fill: #1f77b4"/>
   </g>
   <g id="patch_130">
    <path d="M 307.5815 224.21 
L 348.2725 224.21 
L 348.2725 224.21 
L 307.5815 224.21 
z
" clip-path="url(#pf55f1af5b8)" style="fill: #1f77b4"/>
   </g>
   <g id="patch_131">
    <path d="M 388.9635 224.21 
L 429.6545 224.21 
L 429.6545 224.21 
L 388.9635 224.21 
z
" clip-path="url(#pf55f1af5b8)" style="fill: #1f77b4"/>
   </g>
   <g id="patch_132">
    <path d="M 63.4355 224.21 
L 104.1265 224.21 
L 104.1265 222.597636 
L 63.4355 222.597636 
z
" clip-path="url(#pf55f1af5b8)" style="fill: #1f77b4"/>
   </g>
   <g id="patch_133">
    <path d="M 144.8175 224.21 
L 185.5085 224.21 
L 185.5085 223.843322 
L 144.8175 223.843322 
z
" clip-path="url(#pf55f1af5b8)" style="fill: #1f77b4"/>
   </g>
   <g id="patch_134">
    <path d="M 226.1995 224.21 
L 266.8905 224.21 
L 266.8905 223.340158 
L 226.1995 223.340158 
z
" clip-path="url(#pf55f1af5b8)" style="fill: #1f77b4"/>
   </g>
   <g id="patch_135">
    <path d="M 307.5815 224.21 
L 348.2725 224.21 
L 348.2725 223.340158 
L 307.5815 223.340158 
z
" clip-path="url(#pf55f1af5b8)" style="fill: #1f77b4"/>
   </g>
   <g id="patch_136">
    <path d="M 388.9635 224.21 
L 429.6545 224.21 
L 429.6545 223.340158 
L 388.9635 223.340158 
z
" clip-path="url(#pf55f1af5b8)" style="fill: #1f77b4"/>
   </g>
   <g id="patch_137">
    <path d="M 63.4355 224.21 
L 104.1265 224.21 
L 104.1265 211.742611 
L 63.4355 211.742611 
z
" clip-path="url(#pf55f1af5b8)" style="fill: #1f77b4"/>
   </g>
   <g id="patch_138">
    <path d="M 144.8175 224.21 
L 185.5085 224.21 
L 185.5085 214.084596 
L 144.8175 214.084596 
z
" clip-path="url(#pf55f1af5b8)" style="fill: #1f77b4"/>
   </g>
   <g id="patch_139">
    <path d="M 226.1995 224.21 
L 266.8905 224.21 
L 266.8905 222.488651 
L 226.1995 222.488651 
z
" clip-path="url(#pf55f1af5b8)" style="fill: #1f77b4"/>
   </g>
   <g id="patch_140">
    <path d="M 307.5815 224.21 
L 348.2725 224.21 
L 348.2725 223.980826 
L 307.5815 223.980826 
z
" clip-path="url(#pf55f1af5b8)" style="fill: #1f77b4"/>
   </g>
   <g id="patch_141">
    <path d="M 388.9635 224.21 
L 429.6545 224.21 
L 429.6545 223.980826 
L 388.9635 223.980826 
z
" clip-path="url(#pf55f1af5b8)" style="fill: #1f77b4"/>
   </g>
   <g id="patch_142">
    <path d="M 63.4355 224.21 
L 104.1265 224.21 
L 104.1265 222.850236 
L 63.4355 222.850236 
z
" clip-path="url(#pf55f1af5b8)" style="fill: #1f77b4"/>
   </g>
   <g id="patch_143">
    <path d="M 144.8175 224.21 
L 185.5085 224.21 
L 185.5085 223.323862 
L 144.8175 223.323862 
z
" clip-path="url(#pf55f1af5b8)" style="fill: #1f77b4"/>
   </g>
   <g id="patch_144">
    <path d="M 226.1995 224.21 
L 266.8905 224.21 
L 266.8905 224.026661 
L 226.1995 224.026661 
z
" clip-path="url(#pf55f1af5b8)" style="fill: #1f77b4"/>
   </g>
   <g id="patch_145">
    <path d="M 307.5815 224.21 
L 348.2725 224.21 
L 348.2725 224.075551 
L 307.5815 224.075551 
z
" clip-path="url(#pf55f1af5b8)" style="fill: #1f77b4"/>
   </g>
   <g id="patch_146">
    <path d="M 388.9635 224.21 
L 429.6545 224.21 
L 429.6545 223.904435 
L 388.9635 223.904435 
z
" clip-path="url(#pf55f1af5b8)" style="fill: #1f77b4"/>
   </g>
   <g id="patch_147">
    <path d="M 63.4355 224.21 
L 104.1265 224.21 
L 104.1265 224.080984 
L 63.4355 224.080984 
z
" clip-path="url(#pf55f1af5b8)" style="fill: #1f77b4"/>
   </g>
   <g id="patch_148">
    <path d="M 144.8175 224.21 
L 185.5085 224.21 
L 185.5085 224.179444 
L 144.8175 224.179444 
z
" clip-path="url(#pf55f1af5b8)" style="fill: #1f77b4"/>
   </g>
   <g id="patch_149">
    <path d="M 226.1995 224.21 
L 266.8905 224.21 
L 266.8905 224.179444 
L 226.1995 224.179444 
z
" clip-path="url(#pf55f1af5b8)" style="fill: #1f77b4"/>
   </g>
   <g id="patch_150">
    <path d="M 307.5815 224.21 
L 348.2725 224.21 
L 348.2725 224.20321 
L 307.5815 224.20321 
z
" clip-path="url(#pf55f1af5b8)" style="fill: #1f77b4"/>
   </g>
   <g id="patch_151">
    <path d="M 388.9635 224.21 
L 429.6545 224.21 
L 429.6545 224.20321 
L 388.9635 224.20321 
z
" clip-path="url(#pf55f1af5b8)" style="fill: #1f77b4"/>
   </g>
   <g id="patch_152">
    <path d="M 63.4355 224.21 
L 104.1265 224.21 
L 104.1265 223.945177 
L 63.4355 223.945177 
z
" clip-path="url(#pf55f1af5b8)" style="fill: #1f77b4"/>
   </g>
   <g id="patch_153">
    <path d="M 144.8175 224.21 
L 185.5085 224.21 
L 185.5085 224.067403 
L 144.8175 224.067403 
z
" clip-path="url(#pf55f1af5b8)" style="fill: #1f77b4"/>
   </g>
   <g id="patch_154">
    <path d="M 226.1995 224.21 
L 266.8905 224.21 
L 266.8905 224.026661 
L 226.1995 224.026661 
z
" clip-path="url(#pf55f1af5b8)" style="fill: #1f77b4"/>
   </g>
   <g id="patch_155">
    <path d="M 307.5815 224.21 
L 348.2725 224.21 
L 348.2725 223.965548 
L 307.5815 223.965548 
z
" clip-path="url(#pf55f1af5b8)" style="fill: #1f77b4"/>
   </g>
   <g id="patch_156">
    <path d="M 388.9635 224.21 
L 429.6545 224.21 
L 429.6545 224.148887 
L 388.9635 224.148887 
z
" clip-path="url(#pf55f1af5b8)" style="fill: #1f77b4"/>
   </g>
   <g id="patch_157">
    <path d="M 63.4355 224.21 
L 104.1265 224.21 
L 104.1265 224.21 
L 63.4355 224.21 
z
" clip-path="url(#pf55f1af5b8)" style="fill: #1f77b4"/>
   </g>
   <g id="patch_158">
    <path d="M 144.8175 224.21 
L 185.5085 224.21 
L 185.5085 224.21 
L 144.8175 224.21 
z
" clip-path="url(#pf55f1af5b8)" style="fill: #1f77b4"/>
   </g>
   <g id="patch_159">
    <path d="M 226.1995 224.21 
L 266.8905 224.21 
L 266.8905 224.21 
L 226.1995 224.21 
z
" clip-path="url(#pf55f1af5b8)" style="fill: #1f77b4"/>
   </g>
   <g id="patch_160">
    <path d="M 307.5815 224.21 
L 348.2725 224.21 
L 348.2725 224.21 
L 307.5815 224.21 
z
" clip-path="url(#pf55f1af5b8)" style="fill: #1f77b4"/>
   </g>
   <g id="patch_161">
    <path d="M 63.4355 224.21 
L 104.1265 224.21 
L 104.1265 224.21 
L 63.4355 224.21 
z
" clip-path="url(#pf55f1af5b8)" style="fill: #1f77b4"/>
   </g>
   <g id="patch_162">
    <path d="M 144.8175 224.21 
L 185.5085 224.21 
L 185.5085 224.21 
L 144.8175 224.21 
z
" clip-path="url(#pf55f1af5b8)" style="fill: #1f77b4"/>
   </g>
   <g id="patch_163">
    <path d="M 226.1995 224.21 
L 266.8905 224.21 
L 266.8905 224.21 
L 226.1995 224.21 
z
" clip-path="url(#pf55f1af5b8)" style="fill: #1f77b4"/>
   </g>
   <g id="patch_164">
    <path d="M 63.4355 224.21 
L 104.1265 224.21 
L 104.1265 224.21 
L 63.4355 224.21 
z
" clip-path="url(#pf55f1af5b8)" style="fill: #1f77b4"/>
   </g>
   <g id="patch_165">
    <path d="M 144.8175 224.21 
L 185.5085 224.21 
L 185.5085 224.21 
L 144.8175 224.21 
z
" clip-path="url(#pf55f1af5b8)" style="fill: #1f77b4"/>
   </g>
   <g id="patch_166">
    <path d="M 226.1995 224.21 
L 266.8905 224.21 
L 266.8905 224.21 
L 226.1995 224.21 
z
" clip-path="url(#pf55f1af5b8)" style="fill: #1f77b4"/>
   </g>
   <g id="patch_167">
    <path d="M 307.5815 224.21 
L 348.2725 224.21 
L 348.2725 224.21 
L 307.5815 224.21 
z
" clip-path="url(#pf55f1af5b8)" style="fill: #1f77b4"/>
   </g>
   <g id="patch_168">
    <path d="M 63.4355 224.21 
L 104.1265 224.21 
L 104.1265 224.21 
L 63.4355 224.21 
z
" clip-path="url(#pf55f1af5b8)" style="fill: #1f77b4"/>
   </g>
   <g id="patch_169">
    <path d="M 144.8175 224.21 
L 185.5085 224.21 
L 185.5085 224.21 
L 144.8175 224.21 
z
" clip-path="url(#pf55f1af5b8)" style="fill: #1f77b4"/>
   </g>
   <g id="patch_170">
    <path d="M 63.4355 224.21 
L 104.1265 224.21 
L 104.1265 20.962381 
L 63.4355 20.962381 
z
" clip-path="url(#pf55f1af5b8)" style="fill: #1f77b4"/>
   </g>
   <g id="patch_171">
    <path d="M 144.8175 224.21 
L 185.5085 224.21 
L 185.5085 94.724771 
L 144.8175 94.724771 
z
" clip-path="url(#pf55f1af5b8)" style="fill: #1f77b4"/>
   </g>
   <g id="patch_172">
    <path d="M 226.1995 224.21 
L 266.8905 224.21 
L 266.8905 127.907225 
L 226.1995 127.907225 
z
" clip-path="url(#pf55f1af5b8)" style="fill: #1f77b4"/>
   </g>
   <g id="patch_173">
    <path d="M 307.5815 224.21 
L 348.2725 224.21 
L 348.2725 120.048786 
L 307.5815 120.048786 
z
" clip-path="url(#pf55f1af5b8)" style="fill: #1f77b4"/>
   </g>
   <g id="patch_174">
    <path d="M 388.9635 224.21 
L 429.6545 224.21 
L 429.6545 140.710086 
L 388.9635 140.710086 
z
" clip-path="url(#pf55f1af5b8)" style="fill: #1f77b4"/>
   </g>
   <g id="patch_175">
    <path d="M 63.4355 224.21 
L 104.1265 224.21 
L 104.1265 223.889157 
L 63.4355 223.889157 
z
" clip-path="url(#pf55f1af5b8)" style="fill: #1f77b4"/>
   </g>
   <g id="patch_176">
    <path d="M 144.8175 224.21 
L 185.5085 224.21 
L 185.5085 224.148887 
L 144.8175 224.148887 
z
" clip-path="url(#pf55f1af5b8)" style="fill: #1f77b4"/>
   </g>
   <g id="patch_177">
    <path d="M 226.1995 224.21 
L 266.8905 224.21 
L 266.8905 224.148887 
L 226.1995 224.148887 
z
" clip-path="url(#pf55f1af5b8)" style="fill: #1f77b4"/>
   </g>
   <g id="patch_178">
    <path d="M 307.5815 224.21 
L 348.2725 224.21 
L 348.2725 224.148887 
L 307.5815 224.148887 
z
" clip-path="url(#pf55f1af5b8)" style="fill: #1f77b4"/>
   </g>
   <g id="patch_179">
    <path d="M 388.9635 224.21 
L 429.6545 224.21 
L 429.6545 224.118331 
L 388.9635 224.118331 
z
" clip-path="url(#pf55f1af5b8)" style="fill: #1f77b4"/>
   </g>
   <g id="patch_180">
    <path d="M 63.4355 224.21 
L 104.1265 224.21 
L 104.1265 40.587454 
L 63.4355 40.587454 
z
" clip-path="url(#pf55f1af5b8)" style="fill: #1f77b4"/>
   </g>
   <g id="patch_181">
    <path d="M 144.8175 224.21 
L 185.5085 224.21 
L 185.5085 129.623159 
L 144.8175 129.623159 
z
" clip-path="url(#pf55f1af5b8)" style="fill: #1f77b4"/>
   </g>
   <g id="patch_182">
    <path d="M 226.1995 224.21 
L 266.8905 224.21 
L 266.8905 157.032514 
L 226.1995 157.032514 
z
" clip-path="url(#pf55f1af5b8)" style="fill: #1f77b4"/>
   </g>
   <g id="patch_183">
    <path d="M 307.5815 224.21 
L 348.2725 224.21 
L 348.2725 147.15247 
L 307.5815 147.15247 
z
" clip-path="url(#pf55f1af5b8)" style="fill: #1f77b4"/>
   </g>
   <g id="patch_184">
    <path d="M 388.9635 224.21 
L 429.6545 224.21 
L 429.6545 171.867285 
L 388.9635 171.867285 
z
" clip-path="url(#pf55f1af5b8)" style="fill: #1f77b4"/>
   </g>
   <g id="patch_185">
    <path d="M 63.4355 224.21 
L 104.1265 224.21 
L 104.1265 220.716374 
L 63.4355 220.716374 
z
" clip-path="url(#pf55f1af5b8)" style="fill: #1f77b4"/>
   </g>
   <g id="patch_186">
    <path d="M 144.8175 224.21 
L 185.5085 224.21 
L 185.5085 221.307133 
L 144.8175 221.307133 
z
" clip-path="url(#pf55f1af5b8)" style="fill: #1f77b4"/>
   </g>
   <g id="patch_187">
    <path d="M 226.1995 224.21 
L 266.8905 224.21 
L 266.8905 223.80258 
L 226.1995 223.80258 
z
" clip-path="url(#pf55f1af5b8)" style="fill: #1f77b4"/>
   </g>
   <g id="patch_188">
    <path d="M 307.5815 224.21 
L 348.2725 224.21 
L 348.2725 223.80258 
L 307.5815 223.80258 
z
" clip-path="url(#pf55f1af5b8)" style="fill: #1f77b4"/>
   </g>
   <g id="patch_189">
    <path d="M 388.9635 224.21 
L 429.6545 224.21 
L 429.6545 223.92888 
L 388.9635 223.92888 
z
" clip-path="url(#pf55f1af5b8)" style="fill: #1f77b4"/>
   </g>
   <g id="patch_190">
    <path d="M 63.4355 224.21 
L 104.1265 224.21 
L 104.1265 195.390134 
L 63.4355 195.390134 
z
" clip-path="url(#pf55f1af5b8)" style="fill: #1f77b4"/>
   </g>
   <g id="patch_191">
    <path d="M 144.8175 224.21 
L 185.5085 224.21 
L 185.5085 214.554148 
L 144.8175 214.554148 
z
" clip-path="url(#pf55f1af5b8)" style="fill: #1f77b4"/>
   </g>
   <g id="patch_192">
    <path d="M 226.1995 224.21 
L 266.8905 224.21 
L 266.8905 219.382074 
L 226.1995 219.382074 
z
" clip-path="url(#pf55f1af5b8)" style="fill: #1f77b4"/>
   </g>
   <g id="patch_193">
    <path d="M 307.5815 224.21 
L 348.2725 224.21 
L 348.2725 219.382074 
L 307.5815 219.382074 
z
" clip-path="url(#pf55f1af5b8)" style="fill: #1f77b4"/>
   </g>
   <g id="patch_194">
    <path d="M 388.9635 224.21 
L 429.6545 224.21 
L 429.6545 217.860361 
L 388.9635 217.860361 
z
" clip-path="url(#pf55f1af5b8)" style="fill: #1f77b4"/>
   </g>
   <g id="patch_195">
    <path d="M 63.4355 224.21 
L 104.1265 224.21 
L 104.1265 224.057218 
L 63.4355 224.057218 
z
" clip-path="url(#pf55f1af5b8)" style="fill: #1f77b4"/>
   </g>
   <g id="patch_196">
    <path d="M 144.8175 224.21 
L 185.5085 224.21 
L 185.5085 224.057218 
L 144.8175 224.057218 
z
" clip-path="url(#pf55f1af5b8)" style="fill: #1f77b4"/>
   </g>
   <g id="patch_197">
    <path d="M 226.1995 224.21 
L 266.8905 224.21 
L 266.8905 224.057218 
L 226.1995 224.057218 
z
" clip-path="url(#pf55f1af5b8)" style="fill: #1f77b4"/>
   </g>
   <g id="patch_198">
    <path d="M 307.5815 224.21 
L 348.2725 224.21 
L 348.2725 224.057218 
L 307.5815 224.057218 
z
" clip-path="url(#pf55f1af5b8)" style="fill: #1f77b4"/>
   </g>
   <g id="patch_199">
    <path d="M 388.9635 224.21 
L 429.6545 224.21 
L 429.6545 224.057218 
L 388.9635 224.057218 
z
" clip-path="url(#pf55f1af5b8)" style="fill: #1f77b4"/>
   </g>
   <g id="patch_200">
    <path d="M 63.4355 224.21 
L 104.1265 224.21 
L 104.1265 224.087774 
L 63.4355 224.087774 
z
" clip-path="url(#pf55f1af5b8)" style="fill: #1f77b4"/>
   </g>
   <g id="patch_201">
    <path d="M 144.8175 224.21 
L 185.5085 224.21 
L 185.5085 224.087774 
L 144.8175 224.087774 
z
" clip-path="url(#pf55f1af5b8)" style="fill: #1f77b4"/>
   </g>
   <g id="patch_202">
    <path d="M 226.1995 224.21 
L 266.8905 224.21 
L 266.8905 224.087774 
L 226.1995 224.087774 
z
" clip-path="url(#pf55f1af5b8)" style="fill: #1f77b4"/>
   </g>
   <g id="patch_203">
    <path d="M 307.5815 224.21 
L 348.2725 224.21 
L 348.2725 224.194722 
L 307.5815 224.194722 
z
" clip-path="url(#pf55f1af5b8)" style="fill: #1f77b4"/>
   </g>
   <g id="patch_204">
    <path d="M 388.9635 224.21 
L 429.6545 224.21 
L 429.6545 224.194722 
L 388.9635 224.194722 
z
" clip-path="url(#pf55f1af5b8)" style="fill: #1f77b4"/>
   </g>
   <g id="patch_205">
    <path d="M 63.4355 224.21 
L 104.1265 224.21 
L 104.1265 190.199229 
L 63.4355 190.199229 
z
" clip-path="url(#pf55f1af5b8)" style="fill: #1f77b4"/>
   </g>
   <g id="patch_206">
    <path d="M 144.8175 224.21 
L 185.5085 224.21 
L 185.5085 188.9547 
L 144.8175 188.9547 
z
" clip-path="url(#pf55f1af5b8)" style="fill: #1f77b4"/>
   </g>
   <g id="patch_207">
    <path d="M 226.1995 224.21 
L 266.8905 224.21 
L 266.8905 211.48322 
L 226.1995 211.48322 
z
" clip-path="url(#pf55f1af5b8)" style="fill: #1f77b4"/>
   </g>
   <g id="patch_208">
    <path d="M 307.5815 224.21 
L 348.2725 224.21 
L 348.2725 211.48322 
L 307.5815 211.48322 
z
" clip-path="url(#pf55f1af5b8)" style="fill: #1f77b4"/>
   </g>
   <g id="patch_209">
    <path d="M 388.9635 224.21 
L 429.6545 224.21 
L 429.6545 189.776537 
L 388.9635 189.776537 
z
" clip-path="url(#pf55f1af5b8)" style="fill: #1f77b4"/>
   </g>
   <g id="patch_210">
    <path d="M 63.4355 224.21 
L 104.1265 224.21 
L 104.1265 224.118331 
L 63.4355 224.118331 
z
" clip-path="url(#pf55f1af5b8)" style="fill: #1f77b4"/>
   </g>
   <g id="patch_211">
    <path d="M 144.8175 224.21 
L 185.5085 224.21 
L 185.5085 224.118331 
L 144.8175 224.118331 
z
" clip-path="url(#pf55f1af5b8)" style="fill: #1f77b4"/>
   </g>
   <g id="patch_212">
    <path d="M 226.1995 224.21 
L 266.8905 224.21 
L 266.8905 224.21 
L 226.1995 224.21 
z
" clip-path="url(#pf55f1af5b8)" style="fill: #1f77b4"/>
   </g>
   <g id="patch_213">
    <path d="M 307.5815 224.21 
L 348.2725 224.21 
L 348.2725 224.21 
L 307.5815 224.21 
z
" clip-path="url(#pf55f1af5b8)" style="fill: #1f77b4"/>
   </g>
   <g id="patch_214">
    <path d="M 388.9635 224.21 
L 429.6545 224.21 
L 429.6545 224.21 
L 388.9635 224.21 
z
" clip-path="url(#pf55f1af5b8)" style="fill: #1f77b4"/>
   </g>
   <g id="patch_215">
    <path d="M 63.4355 224.21 
L 104.1265 224.21 
L 104.1265 203.974519 
L 63.4355 203.974519 
z
" clip-path="url(#pf55f1af5b8)" style="fill: #1f77b4"/>
   </g>
   <g id="patch_216">
    <path d="M 144.8175 224.21 
L 185.5085 224.21 
L 185.5085 209.135203 
L 144.8175 209.135203 
z
" clip-path="url(#pf55f1af5b8)" style="fill: #1f77b4"/>
   </g>
   <g id="patch_217">
    <path d="M 226.1995 224.21 
L 266.8905 224.21 
L 266.8905 213.008576 
L 226.1995 213.008576 
z
" clip-path="url(#pf55f1af5b8)" style="fill: #1f77b4"/>
   </g>
   <g id="patch_218">
    <path d="M 307.5815 224.21 
L 348.2725 224.21 
L 348.2725 207.234854 
L 307.5815 207.234854 
z
" clip-path="url(#pf55f1af5b8)" style="fill: #1f77b4"/>
   </g>
   <g id="patch_219">
    <path d="M 388.9635 224.21 
L 429.6545 224.21 
L 429.6545 219.955328 
L 388.9635 219.955328 
z
" clip-path="url(#pf55f1af5b8)" style="fill: #1f77b4"/>
   </g>
   <g id="patch_220">
    <path d="M 63.4355 224.21 
L 104.1265 224.21 
L 104.1265 223.751653 
L 63.4355 223.751653 
z
" clip-path="url(#pf55f1af5b8)" style="fill: #1f77b4"/>
   </g>
   <g id="patch_221">
    <path d="M 144.8175 224.21 
L 185.5085 224.21 
L 185.5085 223.782209 
L 144.8175 223.782209 
z
" clip-path="url(#pf55f1af5b8)" style="fill: #1f77b4"/>
   </g>
   <g id="patch_222">
    <path d="M 226.1995 224.21 
L 266.8905 224.21 
L 266.8905 223.59887 
L 226.1995 223.59887 
z
" clip-path="url(#pf55f1af5b8)" style="fill: #1f77b4"/>
   </g>
   <g id="patch_223">
    <path d="M 307.5815 224.21 
L 348.2725 224.21 
L 348.2725 224.057218 
L 307.5815 224.057218 
z
" clip-path="url(#pf55f1af5b8)" style="fill: #1f77b4"/>
   </g>
   <g id="patch_224">
    <path d="M 388.9635 224.21 
L 429.6545 224.21 
L 429.6545 224.057218 
L 388.9635 224.057218 
z
" clip-path="url(#pf55f1af5b8)" style="fill: #1f77b4"/>
   </g>
   <g id="patch_225">
    <path d="M 63.4355 224.21 
L 104.1265 224.21 
L 104.1265 223.782209 
L 63.4355 223.782209 
z
" clip-path="url(#pf55f1af5b8)" style="fill: #1f77b4"/>
   </g>
   <g id="patch_226">
    <path d="M 144.8175 224.21 
L 185.5085 224.21 
L 185.5085 223.782209 
L 144.8175 223.782209 
z
" clip-path="url(#pf55f1af5b8)" style="fill: #1f77b4"/>
   </g>
   <g id="patch_227">
    <path d="M 226.1995 224.21 
L 266.8905 224.21 
L 266.8905 223.782209 
L 226.1995 223.782209 
z
" clip-path="url(#pf55f1af5b8)" style="fill: #1f77b4"/>
   </g>
   <g id="patch_228">
    <path d="M 307.5815 224.21 
L 348.2725 224.21 
L 348.2725 224.189629 
L 307.5815 224.189629 
z
" clip-path="url(#pf55f1af5b8)" style="fill: #1f77b4"/>
   </g>
   <g id="patch_229">
    <path d="M 388.9635 224.21 
L 429.6545 224.21 
L 429.6545 224.189629 
L 388.9635 224.189629 
z
" clip-path="url(#pf55f1af5b8)" style="fill: #1f77b4"/>
   </g>
   <g id="patch_230">
    <path d="M 63.4355 224.21 
L 104.1265 224.21 
L 104.1265 223.843322 
L 63.4355 223.843322 
z
" clip-path="url(#pf55f1af5b8)" style="fill: #1f77b4"/>
   </g>
   <g id="patch_231">
    <path d="M 144.8175 224.21 
L 185.5085 224.21 
L 185.5085 224.148887 
L 144.8175 224.148887 
z
" clip-path="url(#pf55f1af5b8)" style="fill: #1f77b4"/>
   </g>
   <g id="patch_232">
    <path d="M 226.1995 224.21 
L 266.8905 224.21 
L 266.8905 224.148887 
L 226.1995 224.148887 
z
" clip-path="url(#pf55f1af5b8)" style="fill: #1f77b4"/>
   </g>
   <g id="patch_233">
    <path d="M 307.5815 224.21 
L 348.2725 224.21 
L 348.2725 224.21 
L 307.5815 224.21 
z
" clip-path="url(#pf55f1af5b8)" style="fill: #1f77b4"/>
   </g>
   <g id="patch_234">
    <path d="M 388.9635 224.21 
L 429.6545 224.21 
L 429.6545 224.21 
L 388.9635 224.21 
z
" clip-path="url(#pf55f1af5b8)" style="fill: #1f77b4"/>
   </g>
   <g id="patch_235">
    <path d="M 63.4355 224.21 
L 104.1265 224.21 
L 104.1265 218.639988 
L 63.4355 218.639988 
z
" clip-path="url(#pf55f1af5b8)" style="fill: #1f77b4"/>
   </g>
   <g id="patch_236">
    <path d="M 144.8175 224.21 
L 185.5085 224.21 
L 185.5085 222.001202 
L 144.8175 222.001202 
z
" clip-path="url(#pf55f1af5b8)" style="fill: #1f77b4"/>
   </g>
   <g id="patch_237">
    <path d="M 226.1995 224.21 
L 266.8905 224.21 
L 266.8905 222.001202 
L 226.1995 222.001202 
z
" clip-path="url(#pf55f1af5b8)" style="fill: #1f77b4"/>
   </g>
   <g id="patch_238">
    <path d="M 307.5815 224.21 
L 348.2725 224.21 
L 348.2725 220.931725 
L 307.5815 220.931725 
z
" clip-path="url(#pf55f1af5b8)" style="fill: #1f77b4"/>
   </g>
   <g id="patch_239">
    <path d="M 388.9635 224.21 
L 429.6545 224.21 
L 429.6545 222.092871 
L 388.9635 222.092871 
z
" clip-path="url(#pf55f1af5b8)" style="fill: #1f77b4"/>
   </g>
   <g id="patch_240">
    <path d="M 63.4355 224.21 
L 104.1265 224.21 
L 104.1265 224.21 
L 63.4355 224.21 
z
" clip-path="url(#pf55f1af5b8)" style="fill: #1f77b4"/>
   </g>
   <g id="patch_241">
    <path d="M 63.4355 224.21 
L 104.1265 224.21 
L 104.1265 132.056806 
L 63.4355 132.056806 
z
" clip-path="url(#pf55f1af5b8)" style="fill: #1f77b4"/>
   </g>
   <g id="patch_242">
    <path d="M 144.8175 224.21 
L 185.5085 224.21 
L 185.5085 148.859465 
L 144.8175 148.859465 
z
" clip-path="url(#pf55f1af5b8)" style="fill: #1f77b4"/>
   </g>
   <g id="patch_243">
    <path d="M 226.1995 224.21 
L 266.8905 224.21 
L 266.8905 146.786418 
L 226.1995 146.786418 
z
" clip-path="url(#pf55f1af5b8)" style="fill: #1f77b4"/>
   </g>
   <g id="patch_244">
    <path d="M 307.5815 224.21 
L 348.2725 224.21 
L 348.2725 157.833944 
L 307.5815 157.833944 
z
" clip-path="url(#pf55f1af5b8)" style="fill: #1f77b4"/>
   </g>
   <g id="patch_245">
    <path d="M 388.9635 224.21 
L 429.6545 224.21 
L 429.6545 194.390676 
L 388.9635 194.390676 
z
" clip-path="url(#pf55f1af5b8)" style="fill: #1f77b4"/>
   </g>
   <g id="patch_246">
    <path d="M 63.4355 224.21 
L 104.1265 224.21 
L 104.1265 171.309021 
L 63.4355 171.309021 
z
" clip-path="url(#pf55f1af5b8)" style="fill: #1f77b4"/>
   </g>
   <g id="patch_247">
    <path d="M 144.8175 224.21 
L 185.5085 224.21 
L 185.5085 149.2593 
L 144.8175 149.2593 
z
" clip-path="url(#pf55f1af5b8)" style="fill: #1f77b4"/>
   </g>
   <g id="patch_248">
    <path d="M 226.1995 224.21 
L 266.8905 224.21 
L 266.8905 185.279708 
L 226.1995 185.279708 
z
" clip-path="url(#pf55f1af5b8)" style="fill: #1f77b4"/>
   </g>
   <g id="patch_249">
    <path d="M 307.5815 224.21 
L 348.2725 224.21 
L 348.2725 187.144423 
L 307.5815 187.144423 
z
" clip-path="url(#pf55f1af5b8)" style="fill: #1f77b4"/>
   </g>
   <g id="patch_250">
    <path d="M 388.9635 224.21 
L 429.6545 224.21 
L 429.6545 199.177657 
L 388.9635 199.177657 
z
" clip-path="url(#pf55f1af5b8)" style="fill: #1f77b4"/>
   </g>
   <g id="patch_251">
    <path d="M 63.4355 224.21 
L 104.1265 224.21 
L 104.1265 224.189629 
L 63.4355 224.189629 
z
" clip-path="url(#pf55f1af5b8)" style="fill: #1f77b4"/>
   </g>
   <g id="patch_252">
    <path d="M 144.8175 224.21 
L 185.5085 224.21 
L 185.5085 224.189629 
L 144.8175 224.189629 
z
" clip-path="url(#pf55f1af5b8)" style="fill: #1f77b4"/>
   </g>
   <g id="patch_253">
    <path d="M 226.1995 224.21 
L 266.8905 224.21 
L 266.8905 224.189629 
L 226.1995 224.189629 
z
" clip-path="url(#pf55f1af5b8)" style="fill: #1f77b4"/>
   </g>
   <g id="patch_254">
    <path d="M 307.5815 224.21 
L 348.2725 224.21 
L 348.2725 224.21 
L 307.5815 224.21 
z
" clip-path="url(#pf55f1af5b8)" style="fill: #1f77b4"/>
   </g>
   <g id="patch_255">
    <path d="M 388.9635 224.21 
L 429.6545 224.21 
L 429.6545 224.21 
L 388.9635 224.21 
z
" clip-path="url(#pf55f1af5b8)" style="fill: #1f77b4"/>
   </g>
   <g id="patch_256">
    <path d="M 63.4355 224.21 
L 104.1265 224.21 
L 104.1265 222.498836 
L 63.4355 222.498836 
z
" clip-path="url(#pf55f1af5b8)" style="fill: #1f77b4"/>
   </g>
   <g id="patch_257">
    <path d="M 144.8175 224.21 
L 185.5085 224.21 
L 185.5085 222.356239 
L 144.8175 222.356239 
z
" clip-path="url(#pf55f1af5b8)" style="fill: #1f77b4"/>
   </g>
   <g id="patch_258">
    <path d="M 226.1995 224.21 
L 266.8905 224.21 
L 266.8905 224.057218 
L 226.1995 224.057218 
z
" clip-path="url(#pf55f1af5b8)" style="fill: #1f77b4"/>
   </g>
   <g id="patch_259">
    <path d="M 307.5815 224.21 
L 348.2725 224.21 
L 348.2725 224.164165 
L 307.5815 224.164165 
z
" clip-path="url(#pf55f1af5b8)" style="fill: #1f77b4"/>
   </g>
   <g id="patch_260">
    <path d="M 388.9635 224.21 
L 429.6545 224.21 
L 429.6545 224.164165 
L 388.9635 224.164165 
z
" clip-path="url(#pf55f1af5b8)" style="fill: #1f77b4"/>
   </g>
   <g id="patch_261">
    <path d="M 63.4355 224.21 
L 104.1265 224.21 
L 104.1265 223.843322 
L 63.4355 223.843322 
z
" clip-path="url(#pf55f1af5b8)" style="fill: #1f77b4"/>
   </g>
   <g id="patch_262">
    <path d="M 144.8175 224.21 
L 185.5085 224.21 
L 185.5085 223.965548 
L 144.8175 223.965548 
z
" clip-path="url(#pf55f1af5b8)" style="fill: #1f77b4"/>
   </g>
   <g id="patch_263">
    <path d="M 226.1995 224.21 
L 266.8905 224.21 
L 266.8905 224.087774 
L 226.1995 224.087774 
z
" clip-path="url(#pf55f1af5b8)" style="fill: #1f77b4"/>
   </g>
   <g id="patch_264">
    <path d="M 307.5815 224.21 
L 348.2725 224.21 
L 348.2725 224.087774 
L 307.5815 224.087774 
z
" clip-path="url(#pf55f1af5b8)" style="fill: #1f77b4"/>
   </g>
   <g id="patch_265">
    <path d="M 388.9635 224.21 
L 429.6545 224.21 
L 429.6545 223.924806 
L 388.9635 223.924806 
z
" clip-path="url(#pf55f1af5b8)" style="fill: #1f77b4"/>
   </g>
   <g id="patch_266">
    <path d="M 63.4355 224.21 
L 104.1265 224.21 
L 104.1265 223.996105 
L 63.4355 223.996105 
z
" clip-path="url(#pf55f1af5b8)" style="fill: #1f77b4"/>
   </g>
   <g id="patch_267">
    <path d="M 144.8175 224.21 
L 185.5085 224.21 
L 185.5085 223.996105 
L 144.8175 223.996105 
z
" clip-path="url(#pf55f1af5b8)" style="fill: #1f77b4"/>
   </g>
   <g id="patch_268">
    <path d="M 226.1995 224.21 
L 266.8905 224.21 
L 266.8905 224.194722 
L 226.1995 224.194722 
z
" clip-path="url(#pf55f1af5b8)" style="fill: #1f77b4"/>
   </g>
   <g id="patch_269">
    <path d="M 307.5815 224.21 
L 348.2725 224.21 
L 348.2725 224.194722 
L 307.5815 224.194722 
z
" clip-path="url(#pf55f1af5b8)" style="fill: #1f77b4"/>
   </g>
   <g id="patch_270">
    <path d="M 388.9635 224.21 
L 429.6545 224.21 
L 429.6545 224.194722 
L 388.9635 224.194722 
z
" clip-path="url(#pf55f1af5b8)" style="fill: #1f77b4"/>
   </g>
   <g id="patch_271">
    <path d="M 63.4355 224.21 
L 104.1265 224.21 
L 104.1265 223.53606 
L 63.4355 223.53606 
z
" clip-path="url(#pf55f1af5b8)" style="fill: #1f77b4"/>
   </g>
   <g id="patch_272">
    <path d="M 144.8175 224.21 
L 185.5085 224.21 
L 185.5085 224.162468 
L 144.8175 224.162468 
z
" clip-path="url(#pf55f1af5b8)" style="fill: #1f77b4"/>
   </g>
   <g id="patch_273">
    <path d="M 226.1995 224.21 
L 266.8905 224.21 
L 266.8905 224.162468 
L 226.1995 224.162468 
z
" clip-path="url(#pf55f1af5b8)" style="fill: #1f77b4"/>
   </g>
   <g id="patch_274">
    <path d="M 307.5815 224.21 
L 348.2725 224.21 
L 348.2725 224.162468 
L 307.5815 224.162468 
z
" clip-path="url(#pf55f1af5b8)" style="fill: #1f77b4"/>
   </g>
   <g id="patch_275">
    <path d="M 388.9635 224.21 
L 429.6545 224.21 
L 429.6545 224.162468 
L 388.9635 224.162468 
z
" clip-path="url(#pf55f1af5b8)" style="fill: #1f77b4"/>
   </g>
   <g id="patch_276">
    <path d="M 63.4355 224.21 
L 104.1265 224.21 
L 104.1265 190.790993 
L 63.4355 190.790993 
z
" clip-path="url(#pf55f1af5b8)" style="fill: #1f77b4"/>
   </g>
   <g id="patch_277">
    <path d="M 144.8175 224.21 
L 185.5085 224.21 
L 185.5085 214.06195 
L 144.8175 214.06195 
z
" clip-path="url(#pf55f1af5b8)" style="fill: #1f77b4"/>
   </g>
   <g id="patch_278">
    <path d="M 226.1995 224.21 
L 266.8905 224.21 
L 266.8905 213.051472 
L 226.1995 213.051472 
z
" clip-path="url(#pf55f1af5b8)" style="fill: #1f77b4"/>
   </g>
   <g id="patch_279">
    <path d="M 307.5815 224.21 
L 348.2725 224.21 
L 348.2725 213.240219 
L 307.5815 213.240219 
z
" clip-path="url(#pf55f1af5b8)" style="fill: #1f77b4"/>
   </g>
   <g id="patch_280">
    <path d="M 388.9635 224.21 
L 429.6545 224.21 
L 429.6545 190.316161 
L 388.9635 190.316161 
z
" clip-path="url(#pf55f1af5b8)" style="fill: #1f77b4"/>
   </g>
   <g id="patch_281">
    <path d="M 63.4355 224.21 
L 104.1265 224.21 
L 104.1265 217.526276 
L 63.4355 217.526276 
z
" clip-path="url(#pf55f1af5b8)" style="fill: #1f77b4"/>
   </g>
   <g id="patch_282">
    <path d="M 144.8175 224.21 
L 185.5085 224.21 
L 185.5085 223.278027 
L 144.8175 223.278027 
z
" clip-path="url(#pf55f1af5b8)" style="fill: #1f77b4"/>
   </g>
   <g id="patch_283">
    <path d="M 226.1995 224.21 
L 266.8905 224.21 
L 266.8905 223.278027 
L 226.1995 223.278027 
z
" clip-path="url(#pf55f1af5b8)" style="fill: #1f77b4"/>
   </g>
   <g id="patch_284">
    <path d="M 307.5815 224.21 
L 348.2725 224.21 
L 348.2725 223.278027 
L 307.5815 223.278027 
z
" clip-path="url(#pf55f1af5b8)" style="fill: #1f77b4"/>
   </g>
   <g id="patch_285">
    <path d="M 388.9635 224.21 
L 429.6545 224.21 
L 429.6545 223.278027 
L 388.9635 223.278027 
z
" clip-path="url(#pf55f1af5b8)" style="fill: #1f77b4"/>
   </g>
   <g id="patch_286">
    <path d="M 63.4355 224.21 
L 104.1265 224.21 
L 104.1265 224.148887 
L 63.4355 224.148887 
z
" clip-path="url(#pf55f1af5b8)" style="fill: #1f77b4"/>
   </g>
   <g id="patch_287">
    <path d="M 144.8175 224.21 
L 185.5085 224.21 
L 185.5085 224.189629 
L 144.8175 224.189629 
z
" clip-path="url(#pf55f1af5b8)" style="fill: #1f77b4"/>
   </g>
   <g id="patch_288">
    <path d="M 226.1995 224.21 
L 266.8905 224.21 
L 266.8905 224.189629 
L 226.1995 224.189629 
z
" clip-path="url(#pf55f1af5b8)" style="fill: #1f77b4"/>
   </g>
   <g id="patch_289">
    <path d="M 307.5815 224.21 
L 348.2725 224.21 
L 348.2725 224.189629 
L 307.5815 224.189629 
z
" clip-path="url(#pf55f1af5b8)" style="fill: #1f77b4"/>
   </g>
   <g id="patch_290">
    <path d="M 388.9635 224.21 
L 429.6545 224.21 
L 429.6545 224.179444 
L 388.9635 224.179444 
z
" clip-path="url(#pf55f1af5b8)" style="fill: #1f77b4"/>
   </g>
   <g id="patch_291">
    <path d="M 63.4355 224.21 
L 104.1265 224.21 
L 104.1265 223.073298 
L 63.4355 223.073298 
z
" clip-path="url(#pf55f1af5b8)" style="fill: #1f77b4"/>
   </g>
   <g id="patch_292">
    <path d="M 144.8175 224.21 
L 185.5085 224.21 
L 185.5085 222.926627 
L 144.8175 222.926627 
z
" clip-path="url(#pf55f1af5b8)" style="fill: #1f77b4"/>
   </g>
   <g id="patch_293">
    <path d="M 226.1995 224.21 
L 266.8905 224.21 
L 266.8905 223.659983 
L 226.1995 223.659983 
z
" clip-path="url(#pf55f1af5b8)" style="fill: #1f77b4"/>
   </g>
   <g id="patch_294">
    <path d="M 307.5815 224.21 
L 348.2725 224.21 
L 348.2725 224.173332 
L 307.5815 224.173332 
z
" clip-path="url(#pf55f1af5b8)" style="fill: #1f77b4"/>
   </g>
   <g id="patch_295">
    <path d="M 388.9635 224.21 
L 429.6545 224.21 
L 429.6545 224.173332 
L 388.9635 224.173332 
z
" clip-path="url(#pf55f1af5b8)" style="fill: #1f77b4"/>
   </g>
   <g id="patch_296">
    <path d="M 63.4355 224.21 
L 104.1265 224.21 
L 104.1265 223.525535 
L 63.4355 223.525535 
z
" clip-path="url(#pf55f1af5b8)" style="fill: #1f77b4"/>
   </g>
   <g id="patch_297">
    <path d="M 144.8175 224.21 
L 185.5085 224.21 
L 185.5085 224.148887 
L 144.8175 224.148887 
z
" clip-path="url(#pf55f1af5b8)" style="fill: #1f77b4"/>
   </g>
   <g id="patch_298">
    <path d="M 226.1995 224.21 
L 266.8905 224.21 
L 266.8905 224.148887 
L 226.1995 224.148887 
z
" clip-path="url(#pf55f1af5b8)" style="fill: #1f77b4"/>
   </g>
   <g id="patch_299">
    <path d="M 307.5815 224.21 
L 348.2725 224.21 
L 348.2725 224.148887 
L 307.5815 224.148887 
z
" clip-path="url(#pf55f1af5b8)" style="fill: #1f77b4"/>
   </g>
   <g id="patch_300">
    <path d="M 388.9635 224.21 
L 429.6545 224.21 
L 429.6545 224.148887 
L 388.9635 224.148887 
z
" clip-path="url(#pf55f1af5b8)" style="fill: #1f77b4"/>
   </g>
   <g id="patch_301">
    <path d="M 63.4355 224.21 
L 104.1265 224.21 
L 104.1265 223.843322 
L 63.4355 223.843322 
z
" clip-path="url(#pf55f1af5b8)" style="fill: #1f77b4"/>
   </g>
   <g id="patch_302">
    <path d="M 144.8175 224.21 
L 185.5085 224.21 
L 185.5085 224.148887 
L 144.8175 224.148887 
z
" clip-path="url(#pf55f1af5b8)" style="fill: #1f77b4"/>
   </g>
   <g id="patch_303">
    <path d="M 226.1995 224.21 
L 266.8905 224.21 
L 266.8905 224.148887 
L 226.1995 224.148887 
z
" clip-path="url(#pf55f1af5b8)" style="fill: #1f77b4"/>
   </g>
   <g id="patch_304">
    <path d="M 307.5815 224.21 
L 348.2725 224.21 
L 348.2725 224.148887 
L 307.5815 224.148887 
z
" clip-path="url(#pf55f1af5b8)" style="fill: #1f77b4"/>
   </g>
   <g id="patch_305">
    <path d="M 388.9635 224.21 
L 429.6545 224.21 
L 429.6545 224.197777 
L 388.9635 224.197777 
z
" clip-path="url(#pf55f1af5b8)" style="fill: #1f77b4"/>
   </g>
   <g id="matplotlib.axis_1">
    <g id="xtick_1">
     <g id="line2d_1">
      <defs>
       <path id="mdec0545758" d="M 0 0 
L 0 3.5 
" style="stroke: #000000; stroke-width: 0.8"/>
      </defs>
      <g>
       <use xlink:href="#mdec0545758" x="83.781" y="224.21" style="stroke: #000000; stroke-width: 0.8"/>
      </g>
     </g>
     <g id="text_1">
      <!-- Gabriel Byrne -->
      <g transform="translate(86.540375 299.639687) rotate(-90) scale(0.1 -0.1)">
       <defs>
        <path id="DejaVuSans-47" d="M 3809 666 
L 3809 1919 
L 2778 1919 
L 2778 2438 
L 4434 2438 
L 4434 434 
Q 4069 175 3628 42 
Q 3188 -91 2688 -91 
Q 1594 -91 976 548 
Q 359 1188 359 2328 
Q 359 3472 976 4111 
Q 1594 4750 2688 4750 
Q 3144 4750 3555 4637 
Q 3966 4525 4313 4306 
L 4313 3634 
Q 3963 3931 3569 4081 
Q 3175 4231 2741 4231 
Q 1884 4231 1454 3753 
Q 1025 3275 1025 2328 
Q 1025 1384 1454 906 
Q 1884 428 2741 428 
Q 3075 428 3337 486 
Q 3600 544 3809 666 
z
" transform="scale(0.015625)"/>
        <path id="DejaVuSans-61" d="M 2194 1759 
Q 1497 1759 1228 1600 
Q 959 1441 959 1056 
Q 959 750 1161 570 
Q 1363 391 1709 391 
Q 2188 391 2477 730 
Q 2766 1069 2766 1631 
L 2766 1759 
L 2194 1759 
z
M 3341 1997 
L 3341 0 
L 2766 0 
L 2766 531 
Q 2569 213 2275 61 
Q 1981 -91 1556 -91 
Q 1019 -91 701 211 
Q 384 513 384 1019 
Q 384 1609 779 1909 
Q 1175 2209 1959 2209 
L 2766 2209 
L 2766 2266 
Q 2766 2663 2505 2880 
Q 2244 3097 1772 3097 
Q 1472 3097 1187 3025 
Q 903 2953 641 2809 
L 641 3341 
Q 956 3463 1253 3523 
Q 1550 3584 1831 3584 
Q 2591 3584 2966 3190 
Q 3341 2797 3341 1997 
z
" transform="scale(0.015625)"/>
        <path id="DejaVuSans-62" d="M 3116 1747 
Q 3116 2381 2855 2742 
Q 2594 3103 2138 3103 
Q 1681 3103 1420 2742 
Q 1159 2381 1159 1747 
Q 1159 1113 1420 752 
Q 1681 391 2138 391 
Q 2594 391 2855 752 
Q 3116 1113 3116 1747 
z
M 1159 2969 
Q 1341 3281 1617 3432 
Q 1894 3584 2278 3584 
Q 2916 3584 3314 3078 
Q 3713 2572 3713 1747 
Q 3713 922 3314 415 
Q 2916 -91 2278 -91 
Q 1894 -91 1617 61 
Q 1341 213 1159 525 
L 1159 0 
L 581 0 
L 581 4863 
L 1159 4863 
L 1159 2969 
z
" transform="scale(0.015625)"/>
        <path id="DejaVuSans-72" d="M 2631 2963 
Q 2534 3019 2420 3045 
Q 2306 3072 2169 3072 
Q 1681 3072 1420 2755 
Q 1159 2438 1159 1844 
L 1159 0 
L 581 0 
L 581 3500 
L 1159 3500 
L 1159 2956 
Q 1341 3275 1631 3429 
Q 1922 3584 2338 3584 
Q 2397 3584 2469 3576 
Q 2541 3569 2628 3553 
L 2631 2963 
z
" transform="scale(0.015625)"/>
        <path id="DejaVuSans-69" d="M 603 3500 
L 1178 3500 
L 1178 0 
L 603 0 
L 603 3500 
z
M 603 4863 
L 1178 4863 
L 1178 4134 
L 603 4134 
L 603 4863 
z
" transform="scale(0.015625)"/>
        <path id="DejaVuSans-65" d="M 3597 1894 
L 3597 1613 
L 953 1613 
Q 991 1019 1311 708 
Q 1631 397 2203 397 
Q 2534 397 2845 478 
Q 3156 559 3463 722 
L 3463 178 
Q 3153 47 2828 -22 
Q 2503 -91 2169 -91 
Q 1331 -91 842 396 
Q 353 884 353 1716 
Q 353 2575 817 3079 
Q 1281 3584 2069 3584 
Q 2775 3584 3186 3129 
Q 3597 2675 3597 1894 
z
M 3022 2063 
Q 3016 2534 2758 2815 
Q 2500 3097 2075 3097 
Q 1594 3097 1305 2825 
Q 1016 2553 972 2059 
L 3022 2063 
z
" transform="scale(0.015625)"/>
        <path id="DejaVuSans-6c" d="M 603 4863 
L 1178 4863 
L 1178 0 
L 603 0 
L 603 4863 
z
" transform="scale(0.015625)"/>
        <path id="DejaVuSans-20" transform="scale(0.015625)"/>
        <path id="DejaVuSans-42" d="M 1259 2228 
L 1259 519 
L 2272 519 
Q 2781 519 3026 730 
Q 3272 941 3272 1375 
Q 3272 1813 3026 2020 
Q 2781 2228 2272 2228 
L 1259 2228 
z
M 1259 4147 
L 1259 2741 
L 2194 2741 
Q 2656 2741 2882 2914 
Q 3109 3088 3109 3444 
Q 3109 3797 2882 3972 
Q 2656 4147 2194 4147 
L 1259 4147 
z
M 628 4666 
L 2241 4666 
Q 2963 4666 3353 4366 
Q 3744 4066 3744 3513 
Q 3744 3084 3544 2831 
Q 3344 2578 2956 2516 
Q 3422 2416 3680 2098 
Q 3938 1781 3938 1306 
Q 3938 681 3513 340 
Q 3088 0 2303 0 
L 628 0 
L 628 4666 
z
" transform="scale(0.015625)"/>
        <path id="DejaVuSans-79" d="M 2059 -325 
Q 1816 -950 1584 -1140 
Q 1353 -1331 966 -1331 
L 506 -1331 
L 506 -850 
L 844 -850 
Q 1081 -850 1212 -737 
Q 1344 -625 1503 -206 
L 1606 56 
L 191 3500 
L 800 3500 
L 1894 763 
L 2988 3500 
L 3597 3500 
L 2059 -325 
z
" transform="scale(0.015625)"/>
        <path id="DejaVuSans-6e" d="M 3513 2113 
L 3513 0 
L 2938 0 
L 2938 2094 
Q 2938 2591 2744 2837 
Q 2550 3084 2163 3084 
Q 1697 3084 1428 2787 
Q 1159 2491 1159 1978 
L 1159 0 
L 581 0 
L 581 3500 
L 1159 3500 
L 1159 2956 
Q 1366 3272 1645 3428 
Q 1925 3584 2291 3584 
Q 2894 3584 3203 3211 
Q 3513 2838 3513 2113 
z
" transform="scale(0.015625)"/>
       </defs>
       <use xlink:href="#DejaVuSans-47"/>
       <use xlink:href="#DejaVuSans-61" x="77.490234"/>
       <use xlink:href="#DejaVuSans-62" x="138.769531"/>
       <use xlink:href="#DejaVuSans-72" x="202.246094"/>
       <use xlink:href="#DejaVuSans-69" x="243.359375"/>
       <use xlink:href="#DejaVuSans-65" x="271.142578"/>
       <use xlink:href="#DejaVuSans-6c" x="332.666016"/>
       <use xlink:href="#DejaVuSans-20" x="360.449219"/>
       <use xlink:href="#DejaVuSans-42" x="392.236328"/>
       <use xlink:href="#DejaVuSans-79" x="460.839844"/>
       <use xlink:href="#DejaVuSans-72" x="520.019531"/>
       <use xlink:href="#DejaVuSans-6e" x="559.382812"/>
       <use xlink:href="#DejaVuSans-65" x="622.761719"/>
      </g>
     </g>
    </g>
    <g id="xtick_2">
     <g id="line2d_2">
      <g>
       <use xlink:href="#mdec0545758" x="165.163" y="224.21" style="stroke: #000000; stroke-width: 0.8"/>
      </g>
     </g>
     <g id="text_2">
      <!-- Jamie Lee Curtis -->
      <g transform="translate(167.922375 312.358437) rotate(-90) scale(0.1 -0.1)">
       <defs>
        <path id="DejaVuSans-4a" d="M 628 4666 
L 1259 4666 
L 1259 325 
Q 1259 -519 939 -900 
Q 619 -1281 -91 -1281 
L -331 -1281 
L -331 -750 
L -134 -750 
Q 284 -750 456 -515 
Q 628 -281 628 325 
L 628 4666 
z
" transform="scale(0.015625)"/>
        <path id="DejaVuSans-6d" d="M 3328 2828 
Q 3544 3216 3844 3400 
Q 4144 3584 4550 3584 
Q 5097 3584 5394 3201 
Q 5691 2819 5691 2113 
L 5691 0 
L 5113 0 
L 5113 2094 
Q 5113 2597 4934 2840 
Q 4756 3084 4391 3084 
Q 3944 3084 3684 2787 
Q 3425 2491 3425 1978 
L 3425 0 
L 2847 0 
L 2847 2094 
Q 2847 2600 2669 2842 
Q 2491 3084 2119 3084 
Q 1678 3084 1418 2786 
Q 1159 2488 1159 1978 
L 1159 0 
L 581 0 
L 581 3500 
L 1159 3500 
L 1159 2956 
Q 1356 3278 1631 3431 
Q 1906 3584 2284 3584 
Q 2666 3584 2933 3390 
Q 3200 3197 3328 2828 
z
" transform="scale(0.015625)"/>
        <path id="DejaVuSans-4c" d="M 628 4666 
L 1259 4666 
L 1259 531 
L 3531 531 
L 3531 0 
L 628 0 
L 628 4666 
z
" transform="scale(0.015625)"/>
        <path id="DejaVuSans-43" d="M 4122 4306 
L 4122 3641 
Q 3803 3938 3442 4084 
Q 3081 4231 2675 4231 
Q 1875 4231 1450 3742 
Q 1025 3253 1025 2328 
Q 1025 1406 1450 917 
Q 1875 428 2675 428 
Q 3081 428 3442 575 
Q 3803 722 4122 1019 
L 4122 359 
Q 3791 134 3420 21 
Q 3050 -91 2638 -91 
Q 1578 -91 968 557 
Q 359 1206 359 2328 
Q 359 3453 968 4101 
Q 1578 4750 2638 4750 
Q 3056 4750 3426 4639 
Q 3797 4528 4122 4306 
z
" transform="scale(0.015625)"/>
        <path id="DejaVuSans-75" d="M 544 1381 
L 544 3500 
L 1119 3500 
L 1119 1403 
Q 1119 906 1312 657 
Q 1506 409 1894 409 
Q 2359 409 2629 706 
Q 2900 1003 2900 1516 
L 2900 3500 
L 3475 3500 
L 3475 0 
L 2900 0 
L 2900 538 
Q 2691 219 2414 64 
Q 2138 -91 1772 -91 
Q 1169 -91 856 284 
Q 544 659 544 1381 
z
M 1991 3584 
L 1991 3584 
z
" transform="scale(0.015625)"/>
        <path id="DejaVuSans-74" d="M 1172 4494 
L 1172 3500 
L 2356 3500 
L 2356 3053 
L 1172 3053 
L 1172 1153 
Q 1172 725 1289 603 
Q 1406 481 1766 481 
L 2356 481 
L 2356 0 
L 1766 0 
Q 1100 0 847 248 
Q 594 497 594 1153 
L 594 3053 
L 172 3053 
L 172 3500 
L 594 3500 
L 594 4494 
L 1172 4494 
z
" transform="scale(0.015625)"/>
        <path id="DejaVuSans-73" d="M 2834 3397 
L 2834 2853 
Q 2591 2978 2328 3040 
Q 2066 3103 1784 3103 
Q 1356 3103 1142 2972 
Q 928 2841 928 2578 
Q 928 2378 1081 2264 
Q 1234 2150 1697 2047 
L 1894 2003 
Q 2506 1872 2764 1633 
Q 3022 1394 3022 966 
Q 3022 478 2636 193 
Q 2250 -91 1575 -91 
Q 1294 -91 989 -36 
Q 684 19 347 128 
L 347 722 
Q 666 556 975 473 
Q 1284 391 1588 391 
Q 1994 391 2212 530 
Q 2431 669 2431 922 
Q 2431 1156 2273 1281 
Q 2116 1406 1581 1522 
L 1381 1569 
Q 847 1681 609 1914 
Q 372 2147 372 2553 
Q 372 3047 722 3315 
Q 1072 3584 1716 3584 
Q 2034 3584 2315 3537 
Q 2597 3491 2834 3397 
z
" transform="scale(0.015625)"/>
       </defs>
       <use xlink:href="#DejaVuSans-4a"/>
       <use xlink:href="#DejaVuSans-61" x="29.492188"/>
       <use xlink:href="#DejaVuSans-6d" x="90.771484"/>
       <use xlink:href="#DejaVuSans-69" x="188.183594"/>
       <use xlink:href="#DejaVuSans-65" x="215.966797"/>
       <use xlink:href="#DejaVuSans-20" x="277.490234"/>
       <use xlink:href="#DejaVuSans-4c" x="309.277344"/>
       <use xlink:href="#DejaVuSans-65" x="363.240234"/>
       <use xlink:href="#DejaVuSans-65" x="424.763672"/>
       <use xlink:href="#DejaVuSans-20" x="486.287109"/>
       <use xlink:href="#DejaVuSans-43" x="518.074219"/>
       <use xlink:href="#DejaVuSans-75" x="587.898438"/>
       <use xlink:href="#DejaVuSans-72" x="651.277344"/>
       <use xlink:href="#DejaVuSans-74" x="692.390625"/>
       <use xlink:href="#DejaVuSans-69" x="731.599609"/>
       <use xlink:href="#DejaVuSans-73" x="759.382812"/>
      </g>
     </g>
    </g>
    <g id="xtick_3">
     <g id="line2d_3">
      <g>
       <use xlink:href="#mdec0545758" x="246.545" y="224.21" style="stroke: #000000; stroke-width: 0.8"/>
      </g>
     </g>
     <g id="text_3">
      <!-- Thomas Ian Nicholas -->
      <g transform="translate(249.304375 334.95375) rotate(-90) scale(0.1 -0.1)">
       <defs>
        <path id="DejaVuSans-54" d="M -19 4666 
L 3928 4666 
L 3928 4134 
L 2272 4134 
L 2272 0 
L 1638 0 
L 1638 4134 
L -19 4134 
L -19 4666 
z
" transform="scale(0.015625)"/>
        <path id="DejaVuSans-68" d="M 3513 2113 
L 3513 0 
L 2938 0 
L 2938 2094 
Q 2938 2591 2744 2837 
Q 2550 3084 2163 3084 
Q 1697 3084 1428 2787 
Q 1159 2491 1159 1978 
L 1159 0 
L 581 0 
L 581 4863 
L 1159 4863 
L 1159 2956 
Q 1366 3272 1645 3428 
Q 1925 3584 2291 3584 
Q 2894 3584 3203 3211 
Q 3513 2838 3513 2113 
z
" transform="scale(0.015625)"/>
        <path id="DejaVuSans-6f" d="M 1959 3097 
Q 1497 3097 1228 2736 
Q 959 2375 959 1747 
Q 959 1119 1226 758 
Q 1494 397 1959 397 
Q 2419 397 2687 759 
Q 2956 1122 2956 1747 
Q 2956 2369 2687 2733 
Q 2419 3097 1959 3097 
z
M 1959 3584 
Q 2709 3584 3137 3096 
Q 3566 2609 3566 1747 
Q 3566 888 3137 398 
Q 2709 -91 1959 -91 
Q 1206 -91 779 398 
Q 353 888 353 1747 
Q 353 2609 779 3096 
Q 1206 3584 1959 3584 
z
" transform="scale(0.015625)"/>
        <path id="DejaVuSans-49" d="M 628 4666 
L 1259 4666 
L 1259 0 
L 628 0 
L 628 4666 
z
" transform="scale(0.015625)"/>
        <path id="DejaVuSans-4e" d="M 628 4666 
L 1478 4666 
L 3547 763 
L 3547 4666 
L 4159 4666 
L 4159 0 
L 3309 0 
L 1241 3903 
L 1241 0 
L 628 0 
L 628 4666 
z
" transform="scale(0.015625)"/>
        <path id="DejaVuSans-63" d="M 3122 3366 
L 3122 2828 
Q 2878 2963 2633 3030 
Q 2388 3097 2138 3097 
Q 1578 3097 1268 2742 
Q 959 2388 959 1747 
Q 959 1106 1268 751 
Q 1578 397 2138 397 
Q 2388 397 2633 464 
Q 2878 531 3122 666 
L 3122 134 
Q 2881 22 2623 -34 
Q 2366 -91 2075 -91 
Q 1284 -91 818 406 
Q 353 903 353 1747 
Q 353 2603 823 3093 
Q 1294 3584 2113 3584 
Q 2378 3584 2631 3529 
Q 2884 3475 3122 3366 
z
" transform="scale(0.015625)"/>
       </defs>
       <use xlink:href="#DejaVuSans-54"/>
       <use xlink:href="#DejaVuSans-68" x="61.083984"/>
       <use xlink:href="#DejaVuSans-6f" x="124.462891"/>
       <use xlink:href="#DejaVuSans-6d" x="185.644531"/>
       <use xlink:href="#DejaVuSans-61" x="283.056641"/>
       <use xlink:href="#DejaVuSans-73" x="344.335938"/>
       <use xlink:href="#DejaVuSans-20" x="396.435547"/>
       <use xlink:href="#DejaVuSans-49" x="428.222656"/>
       <use xlink:href="#DejaVuSans-61" x="457.714844"/>
       <use xlink:href="#DejaVuSans-6e" x="518.994141"/>
       <use xlink:href="#DejaVuSans-20" x="582.373047"/>
       <use xlink:href="#DejaVuSans-4e" x="614.160156"/>
       <use xlink:href="#DejaVuSans-69" x="688.964844"/>
       <use xlink:href="#DejaVuSans-63" x="716.748047"/>
       <use xlink:href="#DejaVuSans-68" x="771.728516"/>
       <use xlink:href="#DejaVuSans-6f" x="835.107422"/>
       <use xlink:href="#DejaVuSans-6c" x="896.289062"/>
       <use xlink:href="#DejaVuSans-61" x="924.072266"/>
       <use xlink:href="#DejaVuSans-73" x="985.351562"/>
      </g>
     </g>
    </g>
    <g id="xtick_4">
     <g id="line2d_4">
      <g>
       <use xlink:href="#mdec0545758" x="327.927" y="224.21" style="stroke: #000000; stroke-width: 0.8"/>
      </g>
     </g>
     <g id="text_4">
      <!-- Tyra Banks -->
      <g transform="translate(330.686375 285.417812) rotate(-90) scale(0.1 -0.1)">
       <defs>
        <path id="DejaVuSans-6b" d="M 581 4863 
L 1159 4863 
L 1159 1991 
L 2875 3500 
L 3609 3500 
L 1753 1863 
L 3688 0 
L 2938 0 
L 1159 1709 
L 1159 0 
L 581 0 
L 581 4863 
z
" transform="scale(0.015625)"/>
       </defs>
       <use xlink:href="#DejaVuSans-54"/>
       <use xlink:href="#DejaVuSans-79" x="45.458984"/>
       <use xlink:href="#DejaVuSans-72" x="104.638672"/>
       <use xlink:href="#DejaVuSans-61" x="145.751953"/>
       <use xlink:href="#DejaVuSans-20" x="207.03125"/>
       <use xlink:href="#DejaVuSans-42" x="238.818359"/>
       <use xlink:href="#DejaVuSans-61" x="307.421875"/>
       <use xlink:href="#DejaVuSans-6e" x="368.701172"/>
       <use xlink:href="#DejaVuSans-6b" x="432.080078"/>
       <use xlink:href="#DejaVuSans-73" x="489.990234"/>
      </g>
     </g>
    </g>
    <g id="xtick_5">
     <g id="line2d_5">
      <g>
       <use xlink:href="#mdec0545758" x="409.309" y="224.21" style="stroke: #000000; stroke-width: 0.8"/>
      </g>
     </g>
     <g id="text_5">
      <!-- Luke Wilson -->
      <g transform="translate(412.068375 290.588125) rotate(-90) scale(0.1 -0.1)">
       <defs>
        <path id="DejaVuSans-57" d="M 213 4666 
L 850 4666 
L 1831 722 
L 2809 4666 
L 3519 4666 
L 4500 722 
L 5478 4666 
L 6119 4666 
L 4947 0 
L 4153 0 
L 3169 4050 
L 2175 0 
L 1381 0 
L 213 4666 
z
" transform="scale(0.015625)"/>
       </defs>
       <use xlink:href="#DejaVuSans-4c"/>
       <use xlink:href="#DejaVuSans-75" x="53.962891"/>
       <use xlink:href="#DejaVuSans-6b" x="117.341797"/>
       <use xlink:href="#DejaVuSans-65" x="171.626953"/>
       <use xlink:href="#DejaVuSans-20" x="233.150391"/>
       <use xlink:href="#DejaVuSans-57" x="264.9375"/>
       <use xlink:href="#DejaVuSans-69" x="361.564453"/>
       <use xlink:href="#DejaVuSans-6c" x="389.347656"/>
       <use xlink:href="#DejaVuSans-73" x="417.130859"/>
       <use xlink:href="#DejaVuSans-6f" x="469.230469"/>
       <use xlink:href="#DejaVuSans-6e" x="530.412109"/>
      </g>
     </g>
    </g>
   </g>
   <g id="matplotlib.axis_2">
    <g id="ytick_1">
     <g id="line2d_6">
      <defs>
       <path id="m0395aadc9e" d="M 0 0 
L -3.5 0 
" style="stroke: #000000; stroke-width: 0.8"/>
      </defs>
      <g>
       <use xlink:href="#m0395aadc9e" x="43.09" y="224.21" style="stroke: #000000; stroke-width: 0.8"/>
      </g>
     </g>
     <g id="text_6">
      <!-- 0 -->
      <g transform="translate(29.7275 228.009219) scale(0.1 -0.1)">
       <defs>
        <path id="DejaVuSans-30" d="M 2034 4250 
Q 1547 4250 1301 3770 
Q 1056 3291 1056 2328 
Q 1056 1369 1301 889 
Q 1547 409 2034 409 
Q 2525 409 2770 889 
Q 3016 1369 3016 2328 
Q 3016 3291 2770 3770 
Q 2525 4250 2034 4250 
z
M 2034 4750 
Q 2819 4750 3233 4129 
Q 3647 3509 3647 2328 
Q 3647 1150 3233 529 
Q 2819 -91 2034 -91 
Q 1250 -91 836 529 
Q 422 1150 422 2328 
Q 422 3509 836 4129 
Q 1250 4750 2034 4750 
z
" transform="scale(0.015625)"/>
       </defs>
       <use xlink:href="#DejaVuSans-30"/>
      </g>
     </g>
    </g>
    <g id="ytick_2">
     <g id="line2d_7">
      <g>
       <use xlink:href="#m0395aadc9e" x="43.09" y="193.653506" style="stroke: #000000; stroke-width: 0.8"/>
      </g>
     </g>
     <g id="text_7">
      <!-- 500 -->
      <g transform="translate(17.0025 197.452725) scale(0.1 -0.1)">
       <defs>
        <path id="DejaVuSans-35" d="M 691 4666 
L 3169 4666 
L 3169 4134 
L 1269 4134 
L 1269 2991 
Q 1406 3038 1543 3061 
Q 1681 3084 1819 3084 
Q 2600 3084 3056 2656 
Q 3513 2228 3513 1497 
Q 3513 744 3044 326 
Q 2575 -91 1722 -91 
Q 1428 -91 1123 -41 
Q 819 9 494 109 
L 494 744 
Q 775 591 1075 516 
Q 1375 441 1709 441 
Q 2250 441 2565 725 
Q 2881 1009 2881 1497 
Q 2881 1984 2565 2268 
Q 2250 2553 1709 2553 
Q 1456 2553 1204 2497 
Q 953 2441 691 2322 
L 691 4666 
z
" transform="scale(0.015625)"/>
       </defs>
       <use xlink:href="#DejaVuSans-35"/>
       <use xlink:href="#DejaVuSans-30" x="63.623047"/>
       <use xlink:href="#DejaVuSans-30" x="127.246094"/>
      </g>
     </g>
    </g>
    <g id="ytick_3">
     <g id="line2d_8">
      <g>
       <use xlink:href="#m0395aadc9e" x="43.09" y="163.097012" style="stroke: #000000; stroke-width: 0.8"/>
      </g>
     </g>
     <g id="text_8">
      <!-- 1000 -->
      <g transform="translate(10.64 166.896231) scale(0.1 -0.1)">
       <defs>
        <path id="DejaVuSans-31" d="M 794 531 
L 1825 531 
L 1825 4091 
L 703 3866 
L 703 4441 
L 1819 4666 
L 2450 4666 
L 2450 531 
L 3481 531 
L 3481 0 
L 794 0 
L 794 531 
z
" transform="scale(0.015625)"/>
       </defs>
       <use xlink:href="#DejaVuSans-31"/>
       <use xlink:href="#DejaVuSans-30" x="63.623047"/>
       <use xlink:href="#DejaVuSans-30" x="127.246094"/>
       <use xlink:href="#DejaVuSans-30" x="190.869141"/>
      </g>
     </g>
    </g>
    <g id="ytick_4">
     <g id="line2d_9">
      <g>
       <use xlink:href="#m0395aadc9e" x="43.09" y="132.540518" style="stroke: #000000; stroke-width: 0.8"/>
      </g>
     </g>
     <g id="text_9">
      <!-- 1500 -->
      <g transform="translate(10.64 136.339737) scale(0.1 -0.1)">
       <use xlink:href="#DejaVuSans-31"/>
       <use xlink:href="#DejaVuSans-35" x="63.623047"/>
       <use xlink:href="#DejaVuSans-30" x="127.246094"/>
       <use xlink:href="#DejaVuSans-30" x="190.869141"/>
      </g>
     </g>
    </g>
    <g id="ytick_5">
     <g id="line2d_10">
      <g>
       <use xlink:href="#m0395aadc9e" x="43.09" y="101.984025" style="stroke: #000000; stroke-width: 0.8"/>
      </g>
     </g>
     <g id="text_10">
      <!-- 2000 -->
      <g transform="translate(10.64 105.783243) scale(0.1 -0.1)">
       <defs>
        <path id="DejaVuSans-32" d="M 1228 531 
L 3431 531 
L 3431 0 
L 469 0 
L 469 531 
Q 828 903 1448 1529 
Q 2069 2156 2228 2338 
Q 2531 2678 2651 2914 
Q 2772 3150 2772 3378 
Q 2772 3750 2511 3984 
Q 2250 4219 1831 4219 
Q 1534 4219 1204 4116 
Q 875 4013 500 3803 
L 500 4441 
Q 881 4594 1212 4672 
Q 1544 4750 1819 4750 
Q 2544 4750 2975 4387 
Q 3406 4025 3406 3419 
Q 3406 3131 3298 2873 
Q 3191 2616 2906 2266 
Q 2828 2175 2409 1742 
Q 1991 1309 1228 531 
z
" transform="scale(0.015625)"/>
       </defs>
       <use xlink:href="#DejaVuSans-32"/>
       <use xlink:href="#DejaVuSans-30" x="63.623047"/>
       <use xlink:href="#DejaVuSans-30" x="127.246094"/>
       <use xlink:href="#DejaVuSans-30" x="190.869141"/>
      </g>
     </g>
    </g>
    <g id="ytick_6">
     <g id="line2d_11">
      <g>
       <use xlink:href="#m0395aadc9e" x="43.09" y="71.427531" style="stroke: #000000; stroke-width: 0.8"/>
      </g>
     </g>
     <g id="text_11">
      <!-- 2500 -->
      <g transform="translate(10.64 75.226749) scale(0.1 -0.1)">
       <use xlink:href="#DejaVuSans-32"/>
       <use xlink:href="#DejaVuSans-35" x="63.623047"/>
       <use xlink:href="#DejaVuSans-30" x="127.246094"/>
       <use xlink:href="#DejaVuSans-30" x="190.869141"/>
      </g>
     </g>
    </g>
    <g id="ytick_7">
     <g id="line2d_12">
      <g>
       <use xlink:href="#m0395aadc9e" x="43.09" y="40.871037" style="stroke: #000000; stroke-width: 0.8"/>
      </g>
     </g>
     <g id="text_12">
      <!-- 3000 -->
      <g transform="translate(10.64 44.670256) scale(0.1 -0.1)">
       <defs>
        <path id="DejaVuSans-33" d="M 2597 2516 
Q 3050 2419 3304 2112 
Q 3559 1806 3559 1356 
Q 3559 666 3084 287 
Q 2609 -91 1734 -91 
Q 1441 -91 1130 -33 
Q 819 25 488 141 
L 488 750 
Q 750 597 1062 519 
Q 1375 441 1716 441 
Q 2309 441 2620 675 
Q 2931 909 2931 1356 
Q 2931 1769 2642 2001 
Q 2353 2234 1838 2234 
L 1294 2234 
L 1294 2753 
L 1863 2753 
Q 2328 2753 2575 2939 
Q 2822 3125 2822 3475 
Q 2822 3834 2567 4026 
Q 2313 4219 1838 4219 
Q 1578 4219 1281 4162 
Q 984 4106 628 3988 
L 628 4550 
Q 988 4650 1302 4700 
Q 1616 4750 1894 4750 
Q 2613 4750 3031 4423 
Q 3450 4097 3450 3541 
Q 3450 3153 3228 2886 
Q 3006 2619 2597 2516 
z
" transform="scale(0.015625)"/>
       </defs>
       <use xlink:href="#DejaVuSans-33"/>
       <use xlink:href="#DejaVuSans-30" x="63.623047"/>
       <use xlink:href="#DejaVuSans-30" x="127.246094"/>
       <use xlink:href="#DejaVuSans-30" x="190.869141"/>
      </g>
     </g>
    </g>
   </g>
   <g id="patch_306">
    <path d="M 43.09 224.21 
L 43.09 10.8 
" style="fill: none; stroke: #000000; stroke-width: 0.8; stroke-linejoin: miter; stroke-linecap: square"/>
   </g>
   <g id="patch_307">
    <path d="M 450 224.21 
L 450 10.8 
" style="fill: none; stroke: #000000; stroke-width: 0.8; stroke-linejoin: miter; stroke-linecap: square"/>
   </g>
   <g id="patch_308">
    <path d="M 43.09 224.21 
L 450 224.21 
" style="fill: none; stroke: #000000; stroke-width: 0.8; stroke-linejoin: miter; stroke-linecap: square"/>
   </g>
   <g id="patch_309">
    <path d="M 43.09 10.8 
L 450 10.8 
" style="fill: none; stroke: #000000; stroke-width: 0.8; stroke-linejoin: miter; stroke-linecap: square"/>
   </g>
  </g>
 </g>
 <defs>
  <clipPath id="pf55f1af5b8">
   <rect x="43.09" y="10.8" width="406.91" height="213.41"/>
  </clipPath>
 </defs>
</svg>
