<?xml version="1.0" encoding="utf-8" standalone="no"?>
<!DOCTYPE svg PUBLIC "-//W3C//DTD SVG 1.1//EN"
  "http://www.w3.org/Graphics/SVG/1.1/DTD/svg11.dtd">
<svg xmlns:xlink="http://www.w3.org/1999/xlink" width="460.8pt" height="345.6pt" viewBox="0 0 460.8 345.6" xmlns="http://www.w3.org/2000/svg" version="1.1">
 <metadata>
  <rdf:RDF xmlns:dc="http://purl.org/dc/elements/1.1/" xmlns:cc="http://creativecommons.org/ns#" xmlns:rdf="http://www.w3.org/1999/02/22-rdf-syntax-ns#">
   <cc:Work>
    <dc:type rdf:resource="http://purl.org/dc/dcmitype/StillImage"/>
    <dc:date>2022-12-20T12:31:09.466305</dc:date>
    <dc:format>image/svg+xml</dc:format>
    <dc:creator>
     <cc:Agent>
      <dc:title>Matplotlib v3.6.0, https://matplotlib.org/</dc:title>
     </cc:Agent>
    </dc:creator>
   </cc:Work>
  </rdf:RDF>
 </metadata>
 <defs>
  <style type="text/css">*{stroke-linejoin: round; stroke-linecap: butt}</style>
 </defs>
 <g id="figure_1">
  <g id="patch_1">
   <path d="M 0 345.6 
L 460.8 345.6 
L 460.8 0 
L 0 0 
z
" style="fill: #ffffff"/>
  </g>
  <g id="axes_1">
   <g id="patch_2">
    <path d="M 43.09 258.05 
L 450 258.05 
L 450 10.8 
L 43.09 10.8 
z
" style="fill: #ffffff"/>
   </g>
   <g id="patch_3">
    <path d="M 63.4355 258.05 
L 104.1265 258.05 
L 104.1265 178.44137 
L 63.4355 178.44137 
z
" clip-path="url(#pe5ea37a7b9)" style="fill: #1f77b4"/>
   </g>
   <g id="patch_4">
    <path d="M 144.8175 258.05 
L 185.5085 258.05 
L 185.5085 197.165241 
L 144.8175 197.165241 
z
" clip-path="url(#pe5ea37a7b9)" style="fill: #1f77b4"/>
   </g>
   <g id="patch_5">
    <path d="M 226.1995 258.05 
L 266.8905 258.05 
L 266.8905 191.59514 
L 226.1995 191.59514 
z
" clip-path="url(#pe5ea37a7b9)" style="fill: #1f77b4"/>
   </g>
   <g id="patch_6">
    <path d="M 307.5815 258.05 
L 348.2725 258.05 
L 348.2725 203.833971 
L 307.5815 203.833971 
z
" clip-path="url(#pe5ea37a7b9)" style="fill: #1f77b4"/>
   </g>
   <g id="patch_7">
    <path d="M 388.9635 258.05 
L 429.6545 258.05 
L 429.6545 225.431362 
L 388.9635 225.431362 
z
" clip-path="url(#pe5ea37a7b9)" style="fill: #1f77b4"/>
   </g>
   <g id="patch_8">
    <path d="M 63.4355 258.05 
L 104.1265 258.05 
L 104.1265 257.837589 
L 63.4355 257.837589 
z
" clip-path="url(#pe5ea37a7b9)" style="fill: #1f77b4"/>
   </g>
   <g id="patch_9">
    <path d="M 144.8175 258.05 
L 185.5085 258.05 
L 185.5085 257.979196 
L 144.8175 257.979196 
z
" clip-path="url(#pe5ea37a7b9)" style="fill: #1f77b4"/>
   </g>
   <g id="patch_10">
    <path d="M 226.1995 258.05 
L 266.8905 258.05 
L 266.8905 258.05 
L 226.1995 258.05 
z
" clip-path="url(#pe5ea37a7b9)" style="fill: #1f77b4"/>
   </g>
   <g id="patch_11">
    <path d="M 63.4355 258.05 
L 104.1265 258.05 
L 104.1265 258.026399 
L 63.4355 258.026399 
z
" clip-path="url(#pe5ea37a7b9)" style="fill: #1f77b4"/>
   </g>
   <g id="patch_12">
    <path d="M 144.8175 258.05 
L 185.5085 258.05 
L 185.5085 258.026399 
L 144.8175 258.026399 
z
" clip-path="url(#pe5ea37a7b9)" style="fill: #1f77b4"/>
   </g>
   <g id="patch_13">
    <path d="M 226.1995 258.05 
L 266.8905 258.05 
L 266.8905 258.026399 
L 226.1995 258.026399 
z
" clip-path="url(#pe5ea37a7b9)" style="fill: #1f77b4"/>
   </g>
   <g id="patch_14">
    <path d="M 307.5815 258.05 
L 348.2725 258.05 
L 348.2725 257.979196 
L 307.5815 257.979196 
z
" clip-path="url(#pe5ea37a7b9)" style="fill: #1f77b4"/>
   </g>
   <g id="patch_15">
    <path d="M 388.9635 258.05 
L 429.6545 258.05 
L 429.6545 258.05 
L 388.9635 258.05 
z
" clip-path="url(#pe5ea37a7b9)" style="fill: #1f77b4"/>
   </g>
   <g id="patch_16">
    <path d="M 63.4355 258.05 
L 104.1265 258.05 
L 104.1265 244.738932 
L 63.4355 244.738932 
z
" clip-path="url(#pe5ea37a7b9)" style="fill: #1f77b4"/>
   </g>
   <g id="patch_17">
    <path d="M 144.8175 258.05 
L 185.5085 258.05 
L 185.5085 254.297412 
L 144.8175 254.297412 
z
" clip-path="url(#pe5ea37a7b9)" style="fill: #1f77b4"/>
   </g>
   <g id="patch_18">
    <path d="M 226.1995 258.05 
L 266.8905 258.05 
L 266.8905 254.970045 
L 226.1995 254.970045 
z
" clip-path="url(#pe5ea37a7b9)" style="fill: #1f77b4"/>
   </g>
   <g id="patch_19">
    <path d="M 307.5815 258.05 
L 348.2725 258.05 
L 348.2725 245.09295 
L 307.5815 245.09295 
z
" clip-path="url(#pe5ea37a7b9)" style="fill: #1f77b4"/>
   </g>
   <g id="patch_20">
    <path d="M 388.9635 258.05 
L 429.6545 258.05 
L 429.6545 256.386117 
L 388.9635 256.386117 
z
" clip-path="url(#pe5ea37a7b9)" style="fill: #1f77b4"/>
   </g>
   <g id="patch_21">
    <path d="M 63.4355 258.05 
L 104.1265 258.05 
L 104.1265 257.979196 
L 63.4355 257.979196 
z
" clip-path="url(#pe5ea37a7b9)" style="fill: #1f77b4"/>
   </g>
   <g id="patch_22">
    <path d="M 144.8175 258.05 
L 185.5085 258.05 
L 185.5085 258.05 
L 144.8175 258.05 
z
" clip-path="url(#pe5ea37a7b9)" style="fill: #1f77b4"/>
   </g>
   <g id="patch_23">
    <path d="M 226.1995 258.05 
L 266.8905 258.05 
L 266.8905 258.05 
L 226.1995 258.05 
z
" clip-path="url(#pe5ea37a7b9)" style="fill: #1f77b4"/>
   </g>
   <g id="patch_24">
    <path d="M 307.5815 258.05 
L 348.2725 258.05 
L 348.2725 258.05 
L 307.5815 258.05 
z
" clip-path="url(#pe5ea37a7b9)" style="fill: #1f77b4"/>
   </g>
   <g id="patch_25">
    <path d="M 63.4355 258.05 
L 104.1265 258.05 
L 104.1265 256.138304 
L 63.4355 256.138304 
z
" clip-path="url(#pe5ea37a7b9)" style="fill: #1f77b4"/>
   </g>
   <g id="patch_26">
    <path d="M 144.8175 258.05 
L 185.5085 258.05 
L 185.5085 257.837589 
L 144.8175 257.837589 
z
" clip-path="url(#pe5ea37a7b9)" style="fill: #1f77b4"/>
   </g>
   <g id="patch_27">
    <path d="M 226.1995 258.05 
L 266.8905 258.05 
L 266.8905 257.979196 
L 226.1995 257.979196 
z
" clip-path="url(#pe5ea37a7b9)" style="fill: #1f77b4"/>
   </g>
   <g id="patch_28">
    <path d="M 307.5815 258.05 
L 348.2725 258.05 
L 348.2725 257.979196 
L 307.5815 257.979196 
z
" clip-path="url(#pe5ea37a7b9)" style="fill: #1f77b4"/>
   </g>
   <g id="patch_29">
    <path d="M 388.9635 258.05 
L 429.6545 258.05 
L 429.6545 257.554375 
L 388.9635 257.554375 
z
" clip-path="url(#pe5ea37a7b9)" style="fill: #1f77b4"/>
   </g>
   <g id="patch_30">
    <path d="M 63.4355 258.05 
L 104.1265 258.05 
L 104.1265 257.908393 
L 63.4355 257.908393 
z
" clip-path="url(#pe5ea37a7b9)" style="fill: #1f77b4"/>
   </g>
   <g id="patch_31">
    <path d="M 144.8175 258.05 
L 185.5085 258.05 
L 185.5085 257.908393 
L 144.8175 257.908393 
z
" clip-path="url(#pe5ea37a7b9)" style="fill: #1f77b4"/>
   </g>
   <g id="patch_32">
    <path d="M 226.1995 258.05 
L 266.8905 258.05 
L 266.8905 257.908393 
L 226.1995 257.908393 
z
" clip-path="url(#pe5ea37a7b9)" style="fill: #1f77b4"/>
   </g>
   <g id="patch_33">
    <path d="M 307.5815 258.05 
L 348.2725 258.05 
L 348.2725 257.908393 
L 307.5815 257.908393 
z
" clip-path="url(#pe5ea37a7b9)" style="fill: #1f77b4"/>
   </g>
   <g id="patch_34">
    <path d="M 388.9635 258.05 
L 429.6545 258.05 
L 429.6545 257.908393 
L 388.9635 257.908393 
z
" clip-path="url(#pe5ea37a7b9)" style="fill: #1f77b4"/>
   </g>
   <g id="patch_35">
    <path d="M 63.4355 258.05 
L 104.1265 258.05 
L 104.1265 257.837589 
L 63.4355 257.837589 
z
" clip-path="url(#pe5ea37a7b9)" style="fill: #1f77b4"/>
   </g>
   <g id="patch_36">
    <path d="M 144.8175 258.05 
L 185.5085 258.05 
L 185.5085 257.872991 
L 144.8175 257.872991 
z
" clip-path="url(#pe5ea37a7b9)" style="fill: #1f77b4"/>
   </g>
   <g id="patch_37">
    <path d="M 226.1995 258.05 
L 266.8905 258.05 
L 266.8905 257.979196 
L 226.1995 257.979196 
z
" clip-path="url(#pe5ea37a7b9)" style="fill: #1f77b4"/>
   </g>
   <g id="patch_38">
    <path d="M 307.5815 258.05 
L 348.2725 258.05 
L 348.2725 258.014598 
L 307.5815 258.014598 
z
" clip-path="url(#pe5ea37a7b9)" style="fill: #1f77b4"/>
   </g>
   <g id="patch_39">
    <path d="M 388.9635 258.05 
L 429.6545 258.05 
L 429.6545 258.014598 
L 388.9635 258.014598 
z
" clip-path="url(#pe5ea37a7b9)" style="fill: #1f77b4"/>
   </g>
   <g id="patch_40">
    <path d="M 63.4355 258.05 
L 104.1265 258.05 
L 104.1265 257.837589 
L 63.4355 257.837589 
z
" clip-path="url(#pe5ea37a7b9)" style="fill: #1f77b4"/>
   </g>
   <g id="patch_41">
    <path d="M 144.8175 258.05 
L 185.5085 258.05 
L 185.5085 258.05 
L 144.8175 258.05 
z
" clip-path="url(#pe5ea37a7b9)" style="fill: #1f77b4"/>
   </g>
   <g id="patch_42">
    <path d="M 226.1995 258.05 
L 266.8905 258.05 
L 266.8905 258.05 
L 226.1995 258.05 
z
" clip-path="url(#pe5ea37a7b9)" style="fill: #1f77b4"/>
   </g>
   <g id="patch_43">
    <path d="M 63.4355 258.05 
L 104.1265 258.05 
L 104.1265 257.837589 
L 63.4355 257.837589 
z
" clip-path="url(#pe5ea37a7b9)" style="fill: #1f77b4"/>
   </g>
   <g id="patch_44">
    <path d="M 144.8175 258.05 
L 185.5085 258.05 
L 185.5085 257.979196 
L 144.8175 257.979196 
z
" clip-path="url(#pe5ea37a7b9)" style="fill: #1f77b4"/>
   </g>
   <g id="patch_45">
    <path d="M 63.4355 258.05 
L 104.1265 258.05 
L 104.1265 179.980652 
L 63.4355 179.980652 
z
" clip-path="url(#pe5ea37a7b9)" style="fill: #1f77b4"/>
   </g>
   <g id="patch_46">
    <path d="M 144.8175 258.05 
L 185.5085 258.05 
L 185.5085 201.954289 
L 144.8175 201.954289 
z
" clip-path="url(#pe5ea37a7b9)" style="fill: #1f77b4"/>
   </g>
   <g id="patch_47">
    <path d="M 226.1995 258.05 
L 266.8905 258.05 
L 266.8905 209.293531 
L 226.1995 209.293531 
z
" clip-path="url(#pe5ea37a7b9)" style="fill: #1f77b4"/>
   </g>
   <g id="patch_48">
    <path d="M 307.5815 258.05 
L 348.2725 258.05 
L 348.2725 202.14913 
L 307.5815 202.14913 
z
" clip-path="url(#pe5ea37a7b9)" style="fill: #1f77b4"/>
   </g>
   <g id="patch_49">
    <path d="M 388.9635 258.05 
L 429.6545 258.05 
L 429.6545 216.935465 
L 388.9635 216.935465 
z
" clip-path="url(#pe5ea37a7b9)" style="fill: #1f77b4"/>
   </g>
   <g id="patch_50">
    <path d="M 63.4355 258.05 
L 104.1265 258.05 
L 104.1265 258.05 
L 63.4355 258.05 
z
" clip-path="url(#pe5ea37a7b9)" style="fill: #1f77b4"/>
   </g>
   <g id="patch_51">
    <path d="M 144.8175 258.05 
L 185.5085 258.05 
L 185.5085 258.05 
L 144.8175 258.05 
z
" clip-path="url(#pe5ea37a7b9)" style="fill: #1f77b4"/>
   </g>
   <g id="patch_52">
    <path d="M 226.1995 258.05 
L 266.8905 258.05 
L 266.8905 258.05 
L 226.1995 258.05 
z
" clip-path="url(#pe5ea37a7b9)" style="fill: #1f77b4"/>
   </g>
   <g id="patch_53">
    <path d="M 307.5815 258.05 
L 348.2725 258.05 
L 348.2725 258.05 
L 307.5815 258.05 
z
" clip-path="url(#pe5ea37a7b9)" style="fill: #1f77b4"/>
   </g>
   <g id="patch_54">
    <path d="M 388.9635 258.05 
L 429.6545 258.05 
L 429.6545 258.05 
L 388.9635 258.05 
z
" clip-path="url(#pe5ea37a7b9)" style="fill: #1f77b4"/>
   </g>
   <g id="patch_55">
    <path d="M 63.4355 258.05 
L 104.1265 258.05 
L 104.1265 257.979196 
L 63.4355 257.979196 
z
" clip-path="url(#pe5ea37a7b9)" style="fill: #1f77b4"/>
   </g>
   <g id="patch_56">
    <path d="M 144.8175 258.05 
L 185.5085 258.05 
L 185.5085 258.05 
L 144.8175 258.05 
z
" clip-path="url(#pe5ea37a7b9)" style="fill: #1f77b4"/>
   </g>
   <g id="patch_57">
    <path d="M 226.1995 258.05 
L 266.8905 258.05 
L 266.8905 258.05 
L 226.1995 258.05 
z
" clip-path="url(#pe5ea37a7b9)" style="fill: #1f77b4"/>
   </g>
   <g id="patch_58">
    <path d="M 307.5815 258.05 
L 348.2725 258.05 
L 348.2725 258.05 
L 307.5815 258.05 
z
" clip-path="url(#pe5ea37a7b9)" style="fill: #1f77b4"/>
   </g>
   <g id="patch_59">
    <path d="M 388.9635 258.05 
L 429.6545 258.05 
L 429.6545 258.05 
L 388.9635 258.05 
z
" clip-path="url(#pe5ea37a7b9)" style="fill: #1f77b4"/>
   </g>
   <g id="patch_60">
    <path d="M 63.4355 258.05 
L 104.1265 258.05 
L 104.1265 257.66058 
L 63.4355 257.66058 
z
" clip-path="url(#pe5ea37a7b9)" style="fill: #1f77b4"/>
   </g>
   <g id="patch_61">
    <path d="M 144.8175 258.05 
L 185.5085 258.05 
L 185.5085 257.837589 
L 144.8175 257.837589 
z
" clip-path="url(#pe5ea37a7b9)" style="fill: #1f77b4"/>
   </g>
   <g id="patch_62">
    <path d="M 226.1995 258.05 
L 266.8905 258.05 
L 266.8905 258.014598 
L 226.1995 258.014598 
z
" clip-path="url(#pe5ea37a7b9)" style="fill: #1f77b4"/>
   </g>
   <g id="patch_63">
    <path d="M 307.5815 258.05 
L 348.2725 258.05 
L 348.2725 258.05 
L 307.5815 258.05 
z
" clip-path="url(#pe5ea37a7b9)" style="fill: #1f77b4"/>
   </g>
   <g id="patch_64">
    <path d="M 388.9635 258.05 
L 429.6545 258.05 
L 429.6545 258.05 
L 388.9635 258.05 
z
" clip-path="url(#pe5ea37a7b9)" style="fill: #1f77b4"/>
   </g>
   <g id="patch_65">
    <path d="M 63.4355 258.05 
L 104.1265 258.05 
L 104.1265 250.226207 
L 63.4355 250.226207 
z
" clip-path="url(#pe5ea37a7b9)" style="fill: #1f77b4"/>
   </g>
   <g id="patch_66">
    <path d="M 144.8175 258.05 
L 185.5085 258.05 
L 185.5085 257.341964 
L 144.8175 257.341964 
z
" clip-path="url(#pe5ea37a7b9)" style="fill: #1f77b4"/>
   </g>
   <g id="patch_67">
    <path d="M 226.1995 258.05 
L 266.8905 258.05 
L 266.8905 253.778186 
L 226.1995 253.778186 
z
" clip-path="url(#pe5ea37a7b9)" style="fill: #1f77b4"/>
   </g>
   <g id="patch_68">
    <path d="M 307.5815 258.05 
L 348.2725 258.05 
L 348.2725 252.66893 
L 307.5815 252.66893 
z
" clip-path="url(#pe5ea37a7b9)" style="fill: #1f77b4"/>
   </g>
   <g id="patch_69">
    <path d="M 388.9635 258.05 
L 429.6545 258.05 
L 429.6545 253.695582 
L 388.9635 253.695582 
z
" clip-path="url(#pe5ea37a7b9)" style="fill: #1f77b4"/>
   </g>
   <g id="patch_70">
    <path d="M 63.4355 258.05 
L 104.1265 258.05 
L 104.1265 234.487316 
L 63.4355 234.487316 
z
" clip-path="url(#pe5ea37a7b9)" style="fill: #1f77b4"/>
   </g>
   <g id="patch_71">
    <path d="M 144.8175 258.05 
L 185.5085 258.05 
L 185.5085 237.86858 
L 144.8175 237.86858 
z
" clip-path="url(#pe5ea37a7b9)" style="fill: #1f77b4"/>
   </g>
   <g id="patch_72">
    <path d="M 226.1995 258.05 
L 266.8905 258.05 
L 266.8905 209.039119 
L 226.1995 209.039119 
z
" clip-path="url(#pe5ea37a7b9)" style="fill: #1f77b4"/>
   </g>
   <g id="patch_73">
    <path d="M 307.5815 258.05 
L 348.2725 258.05 
L 348.2725 228.495419 
L 307.5815 228.495419 
z
" clip-path="url(#pe5ea37a7b9)" style="fill: #1f77b4"/>
   </g>
   <g id="patch_74">
    <path d="M 388.9635 258.05 
L 429.6545 258.05 
L 429.6545 208.716431 
L 388.9635 208.716431 
z
" clip-path="url(#pe5ea37a7b9)" style="fill: #1f77b4"/>
   </g>
   <g id="patch_75">
    <path d="M 63.4355 258.05 
L 104.1265 258.05 
L 104.1265 258.05 
L 63.4355 258.05 
z
" clip-path="url(#pe5ea37a7b9)" style="fill: #1f77b4"/>
   </g>
   <g id="patch_76">
    <path d="M 144.8175 258.05 
L 185.5085 258.05 
L 185.5085 258.05 
L 144.8175 258.05 
z
" clip-path="url(#pe5ea37a7b9)" style="fill: #1f77b4"/>
   </g>
   <g id="patch_77">
    <path d="M 63.4355 258.05 
L 104.1265 258.05 
L 104.1265 257.164956 
L 63.4355 257.164956 
z
" clip-path="url(#pe5ea37a7b9)" style="fill: #1f77b4"/>
   </g>
   <g id="patch_78">
    <path d="M 144.8175 258.05 
L 185.5085 258.05 
L 185.5085 257.341964 
L 144.8175 257.341964 
z
" clip-path="url(#pe5ea37a7b9)" style="fill: #1f77b4"/>
   </g>
   <g id="patch_79">
    <path d="M 226.1995 258.05 
L 266.8905 258.05 
L 266.8905 257.625179 
L 226.1995 257.625179 
z
" clip-path="url(#pe5ea37a7b9)" style="fill: #1f77b4"/>
   </g>
   <g id="patch_80">
    <path d="M 307.5815 258.05 
L 348.2725 258.05 
L 348.2725 257.979196 
L 307.5815 257.979196 
z
" clip-path="url(#pe5ea37a7b9)" style="fill: #1f77b4"/>
   </g>
   <g id="patch_81">
    <path d="M 388.9635 258.05 
L 429.6545 258.05 
L 429.6545 257.908393 
L 388.9635 257.908393 
z
" clip-path="url(#pe5ea37a7b9)" style="fill: #1f77b4"/>
   </g>
   <g id="patch_82">
    <path d="M 63.4355 258.05 
L 104.1265 258.05 
L 104.1265 257.837589 
L 63.4355 257.837589 
z
" clip-path="url(#pe5ea37a7b9)" style="fill: #1f77b4"/>
   </g>
   <g id="patch_83">
    <path d="M 144.8175 258.05 
L 185.5085 258.05 
L 185.5085 257.837589 
L 144.8175 257.837589 
z
" clip-path="url(#pe5ea37a7b9)" style="fill: #1f77b4"/>
   </g>
   <g id="patch_84">
    <path d="M 226.1995 258.05 
L 266.8905 258.05 
L 266.8905 257.979196 
L 226.1995 257.979196 
z
" clip-path="url(#pe5ea37a7b9)" style="fill: #1f77b4"/>
   </g>
   <g id="patch_85">
    <path d="M 307.5815 258.05 
L 348.2725 258.05 
L 348.2725 258.05 
L 307.5815 258.05 
z
" clip-path="url(#pe5ea37a7b9)" style="fill: #1f77b4"/>
   </g>
   <g id="patch_86">
    <path d="M 388.9635 258.05 
L 429.6545 258.05 
L 429.6545 258.05 
L 388.9635 258.05 
z
" clip-path="url(#pe5ea37a7b9)" style="fill: #1f77b4"/>
   </g>
   <g id="patch_87">
    <path d="M 63.4355 258.05 
L 104.1265 258.05 
L 104.1265 256.563125 
L 63.4355 256.563125 
z
" clip-path="url(#pe5ea37a7b9)" style="fill: #1f77b4"/>
   </g>
   <g id="patch_88">
    <path d="M 144.8175 258.05 
L 185.5085 258.05 
L 185.5085 258.014598 
L 144.8175 258.014598 
z
" clip-path="url(#pe5ea37a7b9)" style="fill: #1f77b4"/>
   </g>
   <g id="patch_89">
    <path d="M 226.1995 258.05 
L 266.8905 258.05 
L 266.8905 258.014598 
L 226.1995 258.014598 
z
" clip-path="url(#pe5ea37a7b9)" style="fill: #1f77b4"/>
   </g>
   <g id="patch_90">
    <path d="M 307.5815 258.05 
L 348.2725 258.05 
L 348.2725 258.014598 
L 307.5815 258.014598 
z
" clip-path="url(#pe5ea37a7b9)" style="fill: #1f77b4"/>
   </g>
   <g id="patch_91">
    <path d="M 388.9635 258.05 
L 429.6545 258.05 
L 429.6545 258.014598 
L 388.9635 258.014598 
z
" clip-path="url(#pe5ea37a7b9)" style="fill: #1f77b4"/>
   </g>
   <g id="patch_92">
    <path d="M 63.4355 258.05 
L 104.1265 258.05 
L 104.1265 258.05 
L 63.4355 258.05 
z
" clip-path="url(#pe5ea37a7b9)" style="fill: #1f77b4"/>
   </g>
   <g id="patch_93">
    <path d="M 63.4355 258.05 
L 104.1265 258.05 
L 104.1265 257.695982 
L 63.4355 257.695982 
z
" clip-path="url(#pe5ea37a7b9)" style="fill: #1f77b4"/>
   </g>
   <g id="patch_94">
    <path d="M 144.8175 258.05 
L 185.5085 258.05 
L 185.5085 257.695982 
L 144.8175 257.695982 
z
" clip-path="url(#pe5ea37a7b9)" style="fill: #1f77b4"/>
   </g>
   <g id="patch_95">
    <path d="M 226.1995 258.05 
L 266.8905 258.05 
L 266.8905 257.979196 
L 226.1995 257.979196 
z
" clip-path="url(#pe5ea37a7b9)" style="fill: #1f77b4"/>
   </g>
   <g id="patch_96">
    <path d="M 63.4355 258.05 
L 104.1265 258.05 
L 104.1265 256.563125 
L 63.4355 256.563125 
z
" clip-path="url(#pe5ea37a7b9)" style="fill: #1f77b4"/>
   </g>
   <g id="patch_97">
    <path d="M 144.8175 258.05 
L 185.5085 258.05 
L 185.5085 257.979196 
L 144.8175 257.979196 
z
" clip-path="url(#pe5ea37a7b9)" style="fill: #1f77b4"/>
   </g>
   <g id="patch_98">
    <path d="M 226.1995 258.05 
L 266.8905 258.05 
L 266.8905 257.979196 
L 226.1995 257.979196 
z
" clip-path="url(#pe5ea37a7b9)" style="fill: #1f77b4"/>
   </g>
   <g id="patch_99">
    <path d="M 307.5815 258.05 
L 348.2725 258.05 
L 348.2725 258.05 
L 307.5815 258.05 
z
" clip-path="url(#pe5ea37a7b9)" style="fill: #1f77b4"/>
   </g>
   <g id="patch_100">
    <path d="M 388.9635 258.05 
L 429.6545 258.05 
L 429.6545 258.05 
L 388.9635 258.05 
z
" clip-path="url(#pe5ea37a7b9)" style="fill: #1f77b4"/>
   </g>
   <g id="patch_101">
    <path d="M 63.4355 258.05 
L 104.1265 258.05 
L 104.1265 258.05 
L 63.4355 258.05 
z
" clip-path="url(#pe5ea37a7b9)" style="fill: #1f77b4"/>
   </g>
   <g id="patch_102">
    <path d="M 63.4355 258.05 
L 104.1265 258.05 
L 104.1265 178.010846 
L 63.4355 178.010846 
z
" clip-path="url(#pe5ea37a7b9)" style="fill: #1f77b4"/>
   </g>
   <g id="patch_103">
    <path d="M 144.8175 258.05 
L 185.5085 258.05 
L 185.5085 195.622196 
L 144.8175 195.622196 
z
" clip-path="url(#pe5ea37a7b9)" style="fill: #1f77b4"/>
   </g>
   <g id="patch_104">
    <path d="M 226.1995 258.05 
L 266.8905 258.05 
L 266.8905 207.532825 
L 226.1995 207.532825 
z
" clip-path="url(#pe5ea37a7b9)" style="fill: #1f77b4"/>
   </g>
   <g id="patch_105">
    <path d="M 307.5815 258.05 
L 348.2725 258.05 
L 348.2725 216.712008 
L 307.5815 216.712008 
z
" clip-path="url(#pe5ea37a7b9)" style="fill: #1f77b4"/>
   </g>
   <g id="patch_106">
    <path d="M 388.9635 258.05 
L 429.6545 258.05 
L 429.6545 223.259658 
L 388.9635 223.259658 
z
" clip-path="url(#pe5ea37a7b9)" style="fill: #1f77b4"/>
   </g>
   <g id="patch_107">
    <path d="M 63.4355 258.05 
L 104.1265 258.05 
L 104.1265 257.695982 
L 63.4355 257.695982 
z
" clip-path="url(#pe5ea37a7b9)" style="fill: #1f77b4"/>
   </g>
   <g id="patch_108">
    <path d="M 144.8175 258.05 
L 185.5085 258.05 
L 185.5085 257.695982 
L 144.8175 257.695982 
z
" clip-path="url(#pe5ea37a7b9)" style="fill: #1f77b4"/>
   </g>
   <g id="patch_109">
    <path d="M 226.1995 258.05 
L 266.8905 258.05 
L 266.8905 257.695982 
L 226.1995 257.695982 
z
" clip-path="url(#pe5ea37a7b9)" style="fill: #1f77b4"/>
   </g>
   <g id="patch_110">
    <path d="M 307.5815 258.05 
L 348.2725 258.05 
L 348.2725 258.014598 
L 307.5815 258.014598 
z
" clip-path="url(#pe5ea37a7b9)" style="fill: #1f77b4"/>
   </g>
   <g id="patch_111">
    <path d="M 388.9635 258.05 
L 429.6545 258.05 
L 429.6545 258.014598 
L 388.9635 258.014598 
z
" clip-path="url(#pe5ea37a7b9)" style="fill: #1f77b4"/>
   </g>
   <g id="patch_112">
    <path d="M 63.4355 258.05 
L 104.1265 258.05 
L 104.1265 216.244235 
L 63.4355 216.244235 
z
" clip-path="url(#pe5ea37a7b9)" style="fill: #1f77b4"/>
   </g>
   <g id="patch_113">
    <path d="M 144.8175 258.05 
L 185.5085 258.05 
L 185.5085 216.325733 
L 144.8175 216.325733 
z
" clip-path="url(#pe5ea37a7b9)" style="fill: #1f77b4"/>
   </g>
   <g id="patch_114">
    <path d="M 226.1995 258.05 
L 266.8905 258.05 
L 266.8905 230.581316 
L 226.1995 230.581316 
z
" clip-path="url(#pe5ea37a7b9)" style="fill: #1f77b4"/>
   </g>
   <g id="patch_115">
    <path d="M 307.5815 258.05 
L 348.2725 258.05 
L 348.2725 229.346191 
L 307.5815 229.346191 
z
" clip-path="url(#pe5ea37a7b9)" style="fill: #1f77b4"/>
   </g>
   <g id="patch_116">
    <path d="M 388.9635 258.05 
L 429.6545 258.05 
L 429.6545 215.944656 
L 388.9635 215.944656 
z
" clip-path="url(#pe5ea37a7b9)" style="fill: #1f77b4"/>
   </g>
   <g id="patch_117">
    <path d="M 63.4355 258.05 
L 104.1265 258.05 
L 104.1265 257.625179 
L 63.4355 257.625179 
z
" clip-path="url(#pe5ea37a7b9)" style="fill: #1f77b4"/>
   </g>
   <g id="patch_118">
    <path d="M 144.8175 258.05 
L 185.5085 258.05 
L 185.5085 257.695982 
L 144.8175 257.695982 
z
" clip-path="url(#pe5ea37a7b9)" style="fill: #1f77b4"/>
   </g>
   <g id="patch_119">
    <path d="M 226.1995 258.05 
L 266.8905 258.05 
L 266.8905 257.837589 
L 226.1995 257.837589 
z
" clip-path="url(#pe5ea37a7b9)" style="fill: #1f77b4"/>
   </g>
   <g id="patch_120">
    <path d="M 307.5815 258.05 
L 348.2725 258.05 
L 348.2725 257.908393 
L 307.5815 257.908393 
z
" clip-path="url(#pe5ea37a7b9)" style="fill: #1f77b4"/>
   </g>
   <g id="patch_121">
    <path d="M 388.9635 258.05 
L 429.6545 258.05 
L 429.6545 258.014598 
L 388.9635 258.014598 
z
" clip-path="url(#pe5ea37a7b9)" style="fill: #1f77b4"/>
   </g>
   <g id="patch_122">
    <path d="M 63.4355 258.05 
L 104.1265 258.05 
L 104.1265 257.837589 
L 63.4355 257.837589 
z
" clip-path="url(#pe5ea37a7b9)" style="fill: #1f77b4"/>
   </g>
   <g id="patch_123">
    <path d="M 144.8175 258.05 
L 185.5085 258.05 
L 185.5085 258.014598 
L 144.8175 258.014598 
z
" clip-path="url(#pe5ea37a7b9)" style="fill: #1f77b4"/>
   </g>
   <g id="patch_124">
    <path d="M 226.1995 258.05 
L 266.8905 258.05 
L 266.8905 258.014598 
L 226.1995 258.014598 
z
" clip-path="url(#pe5ea37a7b9)" style="fill: #1f77b4"/>
   </g>
   <g id="patch_125">
    <path d="M 307.5815 258.05 
L 348.2725 258.05 
L 348.2725 257.979196 
L 307.5815 257.979196 
z
" clip-path="url(#pe5ea37a7b9)" style="fill: #1f77b4"/>
   </g>
   <g id="patch_126">
    <path d="M 388.9635 258.05 
L 429.6545 258.05 
L 429.6545 258.05 
L 388.9635 258.05 
z
" clip-path="url(#pe5ea37a7b9)" style="fill: #1f77b4"/>
   </g>
   <g id="patch_127">
    <path d="M 63.4355 258.05 
L 104.1265 258.05 
L 104.1265 257.837589 
L 63.4355 257.837589 
z
" clip-path="url(#pe5ea37a7b9)" style="fill: #1f77b4"/>
   </g>
   <g id="patch_128">
    <path d="M 144.8175 258.05 
L 185.5085 258.05 
L 185.5085 257.979196 
L 144.8175 257.979196 
z
" clip-path="url(#pe5ea37a7b9)" style="fill: #1f77b4"/>
   </g>
   <g id="patch_129">
    <path d="M 226.1995 258.05 
L 266.8905 258.05 
L 266.8905 258.05 
L 226.1995 258.05 
z
" clip-path="url(#pe5ea37a7b9)" style="fill: #1f77b4"/>
   </g>
   <g id="patch_130">
    <path d="M 307.5815 258.05 
L 348.2725 258.05 
L 348.2725 258.05 
L 307.5815 258.05 
z
" clip-path="url(#pe5ea37a7b9)" style="fill: #1f77b4"/>
   </g>
   <g id="patch_131">
    <path d="M 388.9635 258.05 
L 429.6545 258.05 
L 429.6545 258.05 
L 388.9635 258.05 
z
" clip-path="url(#pe5ea37a7b9)" style="fill: #1f77b4"/>
   </g>
   <g id="patch_132">
    <path d="M 63.4355 258.05 
L 104.1265 258.05 
L 104.1265 256.181966 
L 63.4355 256.181966 
z
" clip-path="url(#pe5ea37a7b9)" style="fill: #1f77b4"/>
   </g>
   <g id="patch_133">
    <path d="M 144.8175 258.05 
L 185.5085 258.05 
L 185.5085 257.625179 
L 144.8175 257.625179 
z
" clip-path="url(#pe5ea37a7b9)" style="fill: #1f77b4"/>
   </g>
   <g id="patch_134">
    <path d="M 226.1995 258.05 
L 266.8905 258.05 
L 266.8905 257.042229 
L 226.1995 257.042229 
z
" clip-path="url(#pe5ea37a7b9)" style="fill: #1f77b4"/>
   </g>
   <g id="patch_135">
    <path d="M 307.5815 258.05 
L 348.2725 258.05 
L 348.2725 257.042229 
L 307.5815 257.042229 
z
" clip-path="url(#pe5ea37a7b9)" style="fill: #1f77b4"/>
   </g>
   <g id="patch_136">
    <path d="M 388.9635 258.05 
L 429.6545 258.05 
L 429.6545 257.042229 
L 388.9635 257.042229 
z
" clip-path="url(#pe5ea37a7b9)" style="fill: #1f77b4"/>
   </g>
   <g id="patch_137">
    <path d="M 63.4355 258.05 
L 104.1265 258.05 
L 104.1265 243.605682 
L 63.4355 243.605682 
z
" clip-path="url(#pe5ea37a7b9)" style="fill: #1f77b4"/>
   </g>
   <g id="patch_138">
    <path d="M 144.8175 258.05 
L 185.5085 258.05 
L 185.5085 246.319031 
L 144.8175 246.319031 
z
" clip-path="url(#pe5ea37a7b9)" style="fill: #1f77b4"/>
   </g>
   <g id="patch_139">
    <path d="M 226.1995 258.05 
L 266.8905 258.05 
L 266.8905 256.0557 
L 226.1995 256.0557 
z
" clip-path="url(#pe5ea37a7b9)" style="fill: #1f77b4"/>
   </g>
   <g id="patch_140">
    <path d="M 307.5815 258.05 
L 348.2725 258.05 
L 348.2725 257.784487 
L 307.5815 257.784487 
z
" clip-path="url(#pe5ea37a7b9)" style="fill: #1f77b4"/>
   </g>
   <g id="patch_141">
    <path d="M 388.9635 258.05 
L 429.6545 258.05 
L 429.6545 257.784487 
L 388.9635 257.784487 
z
" clip-path="url(#pe5ea37a7b9)" style="fill: #1f77b4"/>
   </g>
   <g id="patch_142">
    <path d="M 63.4355 258.05 
L 104.1265 258.05 
L 104.1265 256.474621 
L 63.4355 256.474621 
z
" clip-path="url(#pe5ea37a7b9)" style="fill: #1f77b4"/>
   </g>
   <g id="patch_143">
    <path d="M 144.8175 258.05 
L 185.5085 258.05 
L 185.5085 257.023348 
L 144.8175 257.023348 
z
" clip-path="url(#pe5ea37a7b9)" style="fill: #1f77b4"/>
   </g>
   <g id="patch_144">
    <path d="M 226.1995 258.05 
L 266.8905 258.05 
L 266.8905 257.837589 
L 226.1995 257.837589 
z
" clip-path="url(#pe5ea37a7b9)" style="fill: #1f77b4"/>
   </g>
   <g id="patch_145">
    <path d="M 307.5815 258.05 
L 348.2725 258.05 
L 348.2725 257.894232 
L 307.5815 257.894232 
z
" clip-path="url(#pe5ea37a7b9)" style="fill: #1f77b4"/>
   </g>
   <g id="patch_146">
    <path d="M 388.9635 258.05 
L 429.6545 258.05 
L 429.6545 257.695982 
L 388.9635 257.695982 
z
" clip-path="url(#pe5ea37a7b9)" style="fill: #1f77b4"/>
   </g>
   <g id="patch_147">
    <path d="M 63.4355 258.05 
L 104.1265 258.05 
L 104.1265 257.900526 
L 63.4355 257.900526 
z
" clip-path="url(#pe5ea37a7b9)" style="fill: #1f77b4"/>
   </g>
   <g id="patch_148">
    <path d="M 144.8175 258.05 
L 185.5085 258.05 
L 185.5085 258.014598 
L 144.8175 258.014598 
z
" clip-path="url(#pe5ea37a7b9)" style="fill: #1f77b4"/>
   </g>
   <g id="patch_149">
    <path d="M 226.1995 258.05 
L 266.8905 258.05 
L 266.8905 258.014598 
L 226.1995 258.014598 
z
" clip-path="url(#pe5ea37a7b9)" style="fill: #1f77b4"/>
   </g>
   <g id="patch_150">
    <path d="M 307.5815 258.05 
L 348.2725 258.05 
L 348.2725 258.042133 
L 307.5815 258.042133 
z
" clip-path="url(#pe5ea37a7b9)" style="fill: #1f77b4"/>
   </g>
   <g id="patch_151">
    <path d="M 388.9635 258.05 
L 429.6545 258.05 
L 429.6545 258.042133 
L 388.9635 258.042133 
z
" clip-path="url(#pe5ea37a7b9)" style="fill: #1f77b4"/>
   </g>
   <g id="patch_152">
    <path d="M 63.4355 258.05 
L 104.1265 258.05 
L 104.1265 257.743185 
L 63.4355 257.743185 
z
" clip-path="url(#pe5ea37a7b9)" style="fill: #1f77b4"/>
   </g>
   <g id="patch_153">
    <path d="M 144.8175 258.05 
L 185.5085 258.05 
L 185.5085 257.884792 
L 144.8175 257.884792 
z
" clip-path="url(#pe5ea37a7b9)" style="fill: #1f77b4"/>
   </g>
   <g id="patch_154">
    <path d="M 226.1995 258.05 
L 266.8905 258.05 
L 266.8905 257.837589 
L 226.1995 257.837589 
z
" clip-path="url(#pe5ea37a7b9)" style="fill: #1f77b4"/>
   </g>
   <g id="patch_155">
    <path d="M 307.5815 258.05 
L 348.2725 258.05 
L 348.2725 257.766786 
L 307.5815 257.766786 
z
" clip-path="url(#pe5ea37a7b9)" style="fill: #1f77b4"/>
   </g>
   <g id="patch_156">
    <path d="M 388.9635 258.05 
L 429.6545 258.05 
L 429.6545 257.979196 
L 388.9635 257.979196 
z
" clip-path="url(#pe5ea37a7b9)" style="fill: #1f77b4"/>
   </g>
   <g id="patch_157">
    <path d="M 63.4355 258.05 
L 104.1265 258.05 
L 104.1265 258.05 
L 63.4355 258.05 
z
" clip-path="url(#pe5ea37a7b9)" style="fill: #1f77b4"/>
   </g>
   <g id="patch_158">
    <path d="M 144.8175 258.05 
L 185.5085 258.05 
L 185.5085 258.05 
L 144.8175 258.05 
z
" clip-path="url(#pe5ea37a7b9)" style="fill: #1f77b4"/>
   </g>
   <g id="patch_159">
    <path d="M 226.1995 258.05 
L 266.8905 258.05 
L 266.8905 258.05 
L 226.1995 258.05 
z
" clip-path="url(#pe5ea37a7b9)" style="fill: #1f77b4"/>
   </g>
   <g id="patch_160">
    <path d="M 307.5815 258.05 
L 348.2725 258.05 
L 348.2725 258.05 
L 307.5815 258.05 
z
" clip-path="url(#pe5ea37a7b9)" style="fill: #1f77b4"/>
   </g>
   <g id="patch_161">
    <path d="M 63.4355 258.05 
L 104.1265 258.05 
L 104.1265 258.05 
L 63.4355 258.05 
z
" clip-path="url(#pe5ea37a7b9)" style="fill: #1f77b4"/>
   </g>
   <g id="patch_162">
    <path d="M 144.8175 258.05 
L 185.5085 258.05 
L 185.5085 258.05 
L 144.8175 258.05 
z
" clip-path="url(#pe5ea37a7b9)" style="fill: #1f77b4"/>
   </g>
   <g id="patch_163">
    <path d="M 226.1995 258.05 
L 266.8905 258.05 
L 266.8905 258.05 
L 226.1995 258.05 
z
" clip-path="url(#pe5ea37a7b9)" style="fill: #1f77b4"/>
   </g>
   <g id="patch_164">
    <path d="M 63.4355 258.05 
L 104.1265 258.05 
L 104.1265 258.05 
L 63.4355 258.05 
z
" clip-path="url(#pe5ea37a7b9)" style="fill: #1f77b4"/>
   </g>
   <g id="patch_165">
    <path d="M 144.8175 258.05 
L 185.5085 258.05 
L 185.5085 258.05 
L 144.8175 258.05 
z
" clip-path="url(#pe5ea37a7b9)" style="fill: #1f77b4"/>
   </g>
   <g id="patch_166">
    <path d="M 226.1995 258.05 
L 266.8905 258.05 
L 266.8905 258.05 
L 226.1995 258.05 
z
" clip-path="url(#pe5ea37a7b9)" style="fill: #1f77b4"/>
   </g>
   <g id="patch_167">
    <path d="M 307.5815 258.05 
L 348.2725 258.05 
L 348.2725 258.05 
L 307.5815 258.05 
z
" clip-path="url(#pe5ea37a7b9)" style="fill: #1f77b4"/>
   </g>
   <g id="patch_168">
    <path d="M 63.4355 258.05 
L 104.1265 258.05 
L 104.1265 258.05 
L 63.4355 258.05 
z
" clip-path="url(#pe5ea37a7b9)" style="fill: #1f77b4"/>
   </g>
   <g id="patch_169">
    <path d="M 144.8175 258.05 
L 185.5085 258.05 
L 185.5085 258.05 
L 144.8175 258.05 
z
" clip-path="url(#pe5ea37a7b9)" style="fill: #1f77b4"/>
   </g>
   <g id="patch_170">
    <path d="M 63.4355 258.05 
L 104.1265 258.05 
L 104.1265 22.57381 
L 63.4355 22.57381 
z
" clip-path="url(#pe5ea37a7b9)" style="fill: #1f77b4"/>
   </g>
   <g id="patch_171">
    <path d="M 144.8175 258.05 
L 185.5085 258.05 
L 185.5085 108.032556 
L 144.8175 108.032556 
z
" clip-path="url(#pe5ea37a7b9)" style="fill: #1f77b4"/>
   </g>
   <g id="patch_172">
    <path d="M 226.1995 258.05 
L 266.8905 258.05 
L 266.8905 146.476685 
L 226.1995 146.476685 
z
" clip-path="url(#pe5ea37a7b9)" style="fill: #1f77b4"/>
   </g>
   <g id="patch_173">
    <path d="M 307.5815 258.05 
L 348.2725 258.05 
L 348.2725 137.372149 
L 307.5815 137.372149 
z
" clip-path="url(#pe5ea37a7b9)" style="fill: #1f77b4"/>
   </g>
   <g id="patch_174">
    <path d="M 388.9635 258.05 
L 429.6545 258.05 
L 429.6545 161.309671 
L 388.9635 161.309671 
z
" clip-path="url(#pe5ea37a7b9)" style="fill: #1f77b4"/>
   </g>
   <g id="patch_175">
    <path d="M 63.4355 258.05 
L 104.1265 258.05 
L 104.1265 257.678281 
L 63.4355 257.678281 
z
" clip-path="url(#pe5ea37a7b9)" style="fill: #1f77b4"/>
   </g>
   <g id="patch_176">
    <path d="M 144.8175 258.05 
L 185.5085 258.05 
L 185.5085 257.979196 
L 144.8175 257.979196 
z
" clip-path="url(#pe5ea37a7b9)" style="fill: #1f77b4"/>
   </g>
   <g id="patch_177">
    <path d="M 226.1995 258.05 
L 266.8905 258.05 
L 266.8905 257.979196 
L 226.1995 257.979196 
z
" clip-path="url(#pe5ea37a7b9)" style="fill: #1f77b4"/>
   </g>
   <g id="patch_178">
    <path d="M 307.5815 258.05 
L 348.2725 258.05 
L 348.2725 257.979196 
L 307.5815 257.979196 
z
" clip-path="url(#pe5ea37a7b9)" style="fill: #1f77b4"/>
   </g>
   <g id="patch_179">
    <path d="M 388.9635 258.05 
L 429.6545 258.05 
L 429.6545 257.943795 
L 388.9635 257.943795 
z
" clip-path="url(#pe5ea37a7b9)" style="fill: #1f77b4"/>
   </g>
   <g id="patch_180">
    <path d="M 63.4355 258.05 
L 104.1265 258.05 
L 104.1265 45.310791 
L 63.4355 45.310791 
z
" clip-path="url(#pe5ea37a7b9)" style="fill: #1f77b4"/>
   </g>
   <g id="patch_181">
    <path d="M 144.8175 258.05 
L 185.5085 258.05 
L 185.5085 148.464712 
L 144.8175 148.464712 
z
" clip-path="url(#pe5ea37a7b9)" style="fill: #1f77b4"/>
   </g>
   <g id="patch_182">
    <path d="M 226.1995 258.05 
L 266.8905 258.05 
L 266.8905 180.220313 
L 226.1995 180.220313 
z
" clip-path="url(#pe5ea37a7b9)" style="fill: #1f77b4"/>
   </g>
   <g id="patch_183">
    <path d="M 307.5815 258.05 
L 348.2725 258.05 
L 348.2725 168.77361 
L 307.5815 168.77361 
z
" clip-path="url(#pe5ea37a7b9)" style="fill: #1f77b4"/>
   </g>
   <g id="patch_184">
    <path d="M 388.9635 258.05 
L 429.6545 258.05 
L 429.6545 197.407405 
L 388.9635 197.407405 
z
" clip-path="url(#pe5ea37a7b9)" style="fill: #1f77b4"/>
   </g>
   <g id="patch_185">
    <path d="M 63.4355 258.05 
L 104.1265 258.05 
L 104.1265 254.002397 
L 63.4355 254.002397 
z
" clip-path="url(#pe5ea37a7b9)" style="fill: #1f77b4"/>
   </g>
   <g id="patch_186">
    <path d="M 144.8175 258.05 
L 185.5085 258.05 
L 185.5085 254.686831 
L 144.8175 254.686831 
z
" clip-path="url(#pe5ea37a7b9)" style="fill: #1f77b4"/>
   </g>
   <g id="patch_187">
    <path d="M 226.1995 258.05 
L 266.8905 258.05 
L 266.8905 257.577976 
L 226.1995 257.577976 
z
" clip-path="url(#pe5ea37a7b9)" style="fill: #1f77b4"/>
   </g>
   <g id="patch_188">
    <path d="M 307.5815 258.05 
L 348.2725 258.05 
L 348.2725 257.577976 
L 307.5815 257.577976 
z
" clip-path="url(#pe5ea37a7b9)" style="fill: #1f77b4"/>
   </g>
   <g id="patch_189">
    <path d="M 388.9635 258.05 
L 429.6545 258.05 
L 429.6545 257.724304 
L 388.9635 257.724304 
z
" clip-path="url(#pe5ea37a7b9)" style="fill: #1f77b4"/>
   </g>
   <g id="patch_190">
    <path d="M 63.4355 258.05 
L 104.1265 258.05 
L 104.1265 224.660225 
L 63.4355 224.660225 
z
" clip-path="url(#pe5ea37a7b9)" style="fill: #1f77b4"/>
   </g>
   <g id="patch_191">
    <path d="M 144.8175 258.05 
L 185.5085 258.05 
L 185.5085 246.863039 
L 144.8175 246.863039 
z
" clip-path="url(#pe5ea37a7b9)" style="fill: #1f77b4"/>
   </g>
   <g id="patch_192">
    <path d="M 226.1995 258.05 
L 266.8905 258.05 
L 266.8905 252.456519 
L 226.1995 252.456519 
z
" clip-path="url(#pe5ea37a7b9)" style="fill: #1f77b4"/>
   </g>
   <g id="patch_193">
    <path d="M 307.5815 258.05 
L 348.2725 258.05 
L 348.2725 252.456519 
L 307.5815 252.456519 
z
" clip-path="url(#pe5ea37a7b9)" style="fill: #1f77b4"/>
   </g>
   <g id="patch_194">
    <path d="M 388.9635 258.05 
L 429.6545 258.05 
L 429.6545 250.693511 
L 388.9635 250.693511 
z
" clip-path="url(#pe5ea37a7b9)" style="fill: #1f77b4"/>
   </g>
   <g id="patch_195">
    <path d="M 63.4355 258.05 
L 104.1265 258.05 
L 104.1265 257.872991 
L 63.4355 257.872991 
z
" clip-path="url(#pe5ea37a7b9)" style="fill: #1f77b4"/>
   </g>
   <g id="patch_196">
    <path d="M 144.8175 258.05 
L 185.5085 258.05 
L 185.5085 257.872991 
L 144.8175 257.872991 
z
" clip-path="url(#pe5ea37a7b9)" style="fill: #1f77b4"/>
   </g>
   <g id="patch_197">
    <path d="M 226.1995 258.05 
L 266.8905 258.05 
L 266.8905 257.872991 
L 226.1995 257.872991 
z
" clip-path="url(#pe5ea37a7b9)" style="fill: #1f77b4"/>
   </g>
   <g id="patch_198">
    <path d="M 307.5815 258.05 
L 348.2725 258.05 
L 348.2725 257.872991 
L 307.5815 257.872991 
z
" clip-path="url(#pe5ea37a7b9)" style="fill: #1f77b4"/>
   </g>
   <g id="patch_199">
    <path d="M 388.9635 258.05 
L 429.6545 258.05 
L 429.6545 257.872991 
L 388.9635 257.872991 
z
" clip-path="url(#pe5ea37a7b9)" style="fill: #1f77b4"/>
   </g>
   <g id="patch_200">
    <path d="M 63.4355 258.05 
L 104.1265 258.05 
L 104.1265 257.908393 
L 63.4355 257.908393 
z
" clip-path="url(#pe5ea37a7b9)" style="fill: #1f77b4"/>
   </g>
   <g id="patch_201">
    <path d="M 144.8175 258.05 
L 185.5085 258.05 
L 185.5085 257.908393 
L 144.8175 257.908393 
z
" clip-path="url(#pe5ea37a7b9)" style="fill: #1f77b4"/>
   </g>
   <g id="patch_202">
    <path d="M 226.1995 258.05 
L 266.8905 258.05 
L 266.8905 257.908393 
L 226.1995 257.908393 
z
" clip-path="url(#pe5ea37a7b9)" style="fill: #1f77b4"/>
   </g>
   <g id="patch_203">
    <path d="M 307.5815 258.05 
L 348.2725 258.05 
L 348.2725 258.032299 
L 307.5815 258.032299 
z
" clip-path="url(#pe5ea37a7b9)" style="fill: #1f77b4"/>
   </g>
   <g id="patch_204">
    <path d="M 388.9635 258.05 
L 429.6545 258.05 
L 429.6545 258.032299 
L 388.9635 258.032299 
z
" clip-path="url(#pe5ea37a7b9)" style="fill: #1f77b4"/>
   </g>
   <g id="patch_205">
    <path d="M 63.4355 258.05 
L 104.1265 258.05 
L 104.1265 218.646208 
L 63.4355 218.646208 
z
" clip-path="url(#pe5ea37a7b9)" style="fill: #1f77b4"/>
   </g>
   <g id="patch_206">
    <path d="M 144.8175 258.05 
L 185.5085 258.05 
L 185.5085 217.204337 
L 144.8175 217.204337 
z
" clip-path="url(#pe5ea37a7b9)" style="fill: #1f77b4"/>
   </g>
   <g id="patch_207">
    <path d="M 226.1995 258.05 
L 266.8905 258.05 
L 266.8905 243.30516 
L 226.1995 243.30516 
z
" clip-path="url(#pe5ea37a7b9)" style="fill: #1f77b4"/>
   </g>
   <g id="patch_208">
    <path d="M 307.5815 258.05 
L 348.2725 258.05 
L 348.2725 243.30516 
L 307.5815 243.30516 
z
" clip-path="url(#pe5ea37a7b9)" style="fill: #1f77b4"/>
   </g>
   <g id="patch_209">
    <path d="M 388.9635 258.05 
L 429.6545 258.05 
L 429.6545 218.156491 
L 388.9635 218.156491 
z
" clip-path="url(#pe5ea37a7b9)" style="fill: #1f77b4"/>
   </g>
   <g id="patch_210">
    <path d="M 63.4355 258.05 
L 104.1265 258.05 
L 104.1265 257.943795 
L 63.4355 257.943795 
z
" clip-path="url(#pe5ea37a7b9)" style="fill: #1f77b4"/>
   </g>
   <g id="patch_211">
    <path d="M 144.8175 258.05 
L 185.5085 258.05 
L 185.5085 257.943795 
L 144.8175 257.943795 
z
" clip-path="url(#pe5ea37a7b9)" style="fill: #1f77b4"/>
   </g>
   <g id="patch_212">
    <path d="M 226.1995 258.05 
L 266.8905 258.05 
L 266.8905 258.05 
L 226.1995 258.05 
z
" clip-path="url(#pe5ea37a7b9)" style="fill: #1f77b4"/>
   </g>
   <g id="patch_213">
    <path d="M 307.5815 258.05 
L 348.2725 258.05 
L 348.2725 258.05 
L 307.5815 258.05 
z
" clip-path="url(#pe5ea37a7b9)" style="fill: #1f77b4"/>
   </g>
   <g id="patch_214">
    <path d="M 388.9635 258.05 
L 429.6545 258.05 
L 429.6545 258.05 
L 388.9635 258.05 
z
" clip-path="url(#pe5ea37a7b9)" style="fill: #1f77b4"/>
   </g>
   <g id="patch_215">
    <path d="M 63.4355 258.05 
L 104.1265 258.05 
L 104.1265 234.605819 
L 63.4355 234.605819 
z
" clip-path="url(#pe5ea37a7b9)" style="fill: #1f77b4"/>
   </g>
   <g id="patch_216">
    <path d="M 144.8175 258.05 
L 185.5085 258.05 
L 185.5085 240.584822 
L 144.8175 240.584822 
z
" clip-path="url(#pe5ea37a7b9)" style="fill: #1f77b4"/>
   </g>
   <g id="patch_217">
    <path d="M 226.1995 258.05 
L 266.8905 258.05 
L 266.8905 245.072389 
L 226.1995 245.072389 
z
" clip-path="url(#pe5ea37a7b9)" style="fill: #1f77b4"/>
   </g>
   <g id="patch_218">
    <path d="M 307.5815 258.05 
L 348.2725 258.05 
L 348.2725 238.383138 
L 307.5815 238.383138 
z
" clip-path="url(#pe5ea37a7b9)" style="fill: #1f77b4"/>
   </g>
   <g id="patch_219">
    <path d="M 388.9635 258.05 
L 429.6545 258.05 
L 429.6545 253.120673 
L 388.9635 253.120673 
z
" clip-path="url(#pe5ea37a7b9)" style="fill: #1f77b4"/>
   </g>
   <g id="patch_220">
    <path d="M 63.4355 258.05 
L 104.1265 258.05 
L 104.1265 257.518973 
L 63.4355 257.518973 
z
" clip-path="url(#pe5ea37a7b9)" style="fill: #1f77b4"/>
   </g>
   <g id="patch_221">
    <path d="M 144.8175 258.05 
L 185.5085 258.05 
L 185.5085 257.554375 
L 144.8175 257.554375 
z
" clip-path="url(#pe5ea37a7b9)" style="fill: #1f77b4"/>
   </g>
   <g id="patch_222">
    <path d="M 226.1995 258.05 
L 266.8905 258.05 
L 266.8905 257.341964 
L 226.1995 257.341964 
z
" clip-path="url(#pe5ea37a7b9)" style="fill: #1f77b4"/>
   </g>
   <g id="patch_223">
    <path d="M 307.5815 258.05 
L 348.2725 258.05 
L 348.2725 257.872991 
L 307.5815 257.872991 
z
" clip-path="url(#pe5ea37a7b9)" style="fill: #1f77b4"/>
   </g>
   <g id="patch_224">
    <path d="M 388.9635 258.05 
L 429.6545 258.05 
L 429.6545 257.872991 
L 388.9635 257.872991 
z
" clip-path="url(#pe5ea37a7b9)" style="fill: #1f77b4"/>
   </g>
   <g id="patch_225">
    <path d="M 63.4355 258.05 
L 104.1265 258.05 
L 104.1265 257.554375 
L 63.4355 257.554375 
z
" clip-path="url(#pe5ea37a7b9)" style="fill: #1f77b4"/>
   </g>
   <g id="patch_226">
    <path d="M 144.8175 258.05 
L 185.5085 258.05 
L 185.5085 257.554375 
L 144.8175 257.554375 
z
" clip-path="url(#pe5ea37a7b9)" style="fill: #1f77b4"/>
   </g>
   <g id="patch_227">
    <path d="M 226.1995 258.05 
L 266.8905 258.05 
L 266.8905 257.554375 
L 226.1995 257.554375 
z
" clip-path="url(#pe5ea37a7b9)" style="fill: #1f77b4"/>
   </g>
   <g id="patch_228">
    <path d="M 307.5815 258.05 
L 348.2725 258.05 
L 348.2725 258.026399 
L 307.5815 258.026399 
z
" clip-path="url(#pe5ea37a7b9)" style="fill: #1f77b4"/>
   </g>
   <g id="patch_229">
    <path d="M 388.9635 258.05 
L 429.6545 258.05 
L 429.6545 258.026399 
L 388.9635 258.026399 
z
" clip-path="url(#pe5ea37a7b9)" style="fill: #1f77b4"/>
   </g>
   <g id="patch_230">
    <path d="M 63.4355 258.05 
L 104.1265 258.05 
L 104.1265 257.625179 
L 63.4355 257.625179 
z
" clip-path="url(#pe5ea37a7b9)" style="fill: #1f77b4"/>
   </g>
   <g id="patch_231">
    <path d="M 144.8175 258.05 
L 185.5085 258.05 
L 185.5085 257.979196 
L 144.8175 257.979196 
z
" clip-path="url(#pe5ea37a7b9)" style="fill: #1f77b4"/>
   </g>
   <g id="patch_232">
    <path d="M 226.1995 258.05 
L 266.8905 258.05 
L 266.8905 257.979196 
L 226.1995 257.979196 
z
" clip-path="url(#pe5ea37a7b9)" style="fill: #1f77b4"/>
   </g>
   <g id="patch_233">
    <path d="M 307.5815 258.05 
L 348.2725 258.05 
L 348.2725 258.05 
L 307.5815 258.05 
z
" clip-path="url(#pe5ea37a7b9)" style="fill: #1f77b4"/>
   </g>
   <g id="patch_234">
    <path d="M 388.9635 258.05 
L 429.6545 258.05 
L 429.6545 258.05 
L 388.9635 258.05 
z
" clip-path="url(#pe5ea37a7b9)" style="fill: #1f77b4"/>
   </g>
   <g id="patch_235">
    <path d="M 63.4355 258.05 
L 104.1265 258.05 
L 104.1265 251.596762 
L 63.4355 251.596762 
z
" clip-path="url(#pe5ea37a7b9)" style="fill: #1f77b4"/>
   </g>
   <g id="patch_236">
    <path d="M 144.8175 258.05 
L 185.5085 258.05 
L 185.5085 255.490957 
L 144.8175 255.490957 
z
" clip-path="url(#pe5ea37a7b9)" style="fill: #1f77b4"/>
   </g>
   <g id="patch_237">
    <path d="M 226.1995 258.05 
L 266.8905 258.05 
L 266.8905 255.490957 
L 226.1995 255.490957 
z
" clip-path="url(#pe5ea37a7b9)" style="fill: #1f77b4"/>
   </g>
   <g id="patch_238">
    <path d="M 307.5815 258.05 
L 348.2725 258.05 
L 348.2725 254.251895 
L 307.5815 254.251895 
z
" clip-path="url(#pe5ea37a7b9)" style="fill: #1f77b4"/>
   </g>
   <g id="patch_239">
    <path d="M 388.9635 258.05 
L 429.6545 258.05 
L 429.6545 255.597163 
L 388.9635 255.597163 
z
" clip-path="url(#pe5ea37a7b9)" style="fill: #1f77b4"/>
   </g>
   <g id="patch_240">
    <path d="M 63.4355 258.05 
L 104.1265 258.05 
L 104.1265 258.05 
L 63.4355 258.05 
z
" clip-path="url(#pe5ea37a7b9)" style="fill: #1f77b4"/>
   </g>
   <g id="patch_241">
    <path d="M 63.4355 258.05 
L 104.1265 258.05 
L 104.1265 151.284257 
L 63.4355 151.284257 
z
" clip-path="url(#pe5ea37a7b9)" style="fill: #1f77b4"/>
   </g>
   <g id="patch_242">
    <path d="M 144.8175 258.05 
L 185.5085 258.05 
L 185.5085 170.75128 
L 144.8175 170.75128 
z
" clip-path="url(#pe5ea37a7b9)" style="fill: #1f77b4"/>
   </g>
   <g id="patch_243">
    <path d="M 226.1995 258.05 
L 266.8905 258.05 
L 266.8905 168.349515 
L 226.1995 168.349515 
z
" clip-path="url(#pe5ea37a7b9)" style="fill: #1f77b4"/>
   </g>
   <g id="patch_244">
    <path d="M 307.5815 258.05 
L 348.2725 258.05 
L 348.2725 181.148824 
L 307.5815 181.148824 
z
" clip-path="url(#pe5ea37a7b9)" style="fill: #1f77b4"/>
   </g>
   <g id="patch_245">
    <path d="M 388.9635 258.05 
L 429.6545 258.05 
L 429.6545 223.502285 
L 388.9635 223.502285 
z
" clip-path="url(#pe5ea37a7b9)" style="fill: #1f77b4"/>
   </g>
   <g id="patch_246">
    <path d="M 63.4355 258.05 
L 104.1265 258.05 
L 104.1265 196.760618 
L 63.4355 196.760618 
z
" clip-path="url(#pe5ea37a7b9)" style="fill: #1f77b4"/>
   </g>
   <g id="patch_247">
    <path d="M 144.8175 258.05 
L 185.5085 258.05 
L 185.5085 171.214516 
L 144.8175 171.214516 
z
" clip-path="url(#pe5ea37a7b9)" style="fill: #1f77b4"/>
   </g>
   <g id="patch_248">
    <path d="M 226.1995 258.05 
L 266.8905 258.05 
L 266.8905 212.946609 
L 226.1995 212.946609 
z
" clip-path="url(#pe5ea37a7b9)" style="fill: #1f77b4"/>
   </g>
   <g id="patch_249">
    <path d="M 307.5815 258.05 
L 348.2725 258.05 
L 348.2725 215.107008 
L 307.5815 215.107008 
z
" clip-path="url(#pe5ea37a7b9)" style="fill: #1f77b4"/>
   </g>
   <g id="patch_250">
    <path d="M 388.9635 258.05 
L 429.6545 258.05 
L 429.6545 229.048329 
L 388.9635 229.048329 
z
" clip-path="url(#pe5ea37a7b9)" style="fill: #1f77b4"/>
   </g>
   <g id="patch_251">
    <path d="M 63.4355 258.05 
L 104.1265 258.05 
L 104.1265 258.026399 
L 63.4355 258.026399 
z
" clip-path="url(#pe5ea37a7b9)" style="fill: #1f77b4"/>
   </g>
   <g id="patch_252">
    <path d="M 144.8175 258.05 
L 185.5085 258.05 
L 185.5085 258.026399 
L 144.8175 258.026399 
z
" clip-path="url(#pe5ea37a7b9)" style="fill: #1f77b4"/>
   </g>
   <g id="patch_253">
    <path d="M 226.1995 258.05 
L 266.8905 258.05 
L 266.8905 258.026399 
L 226.1995 258.026399 
z
" clip-path="url(#pe5ea37a7b9)" style="fill: #1f77b4"/>
   </g>
   <g id="patch_254">
    <path d="M 307.5815 258.05 
L 348.2725 258.05 
L 348.2725 258.05 
L 307.5815 258.05 
z
" clip-path="url(#pe5ea37a7b9)" style="fill: #1f77b4"/>
   </g>
   <g id="patch_255">
    <path d="M 388.9635 258.05 
L 429.6545 258.05 
L 429.6545 258.05 
L 388.9635 258.05 
z
" clip-path="url(#pe5ea37a7b9)" style="fill: #1f77b4"/>
   </g>
   <g id="patch_256">
    <path d="M 63.4355 258.05 
L 104.1265 258.05 
L 104.1265 256.067501 
L 63.4355 256.067501 
z
" clip-path="url(#pe5ea37a7b9)" style="fill: #1f77b4"/>
   </g>
   <g id="patch_257">
    <path d="M 144.8175 258.05 
L 185.5085 258.05 
L 185.5085 255.902292 
L 144.8175 255.902292 
z
" clip-path="url(#pe5ea37a7b9)" style="fill: #1f77b4"/>
   </g>
   <g id="patch_258">
    <path d="M 226.1995 258.05 
L 266.8905 258.05 
L 266.8905 257.872991 
L 226.1995 257.872991 
z
" clip-path="url(#pe5ea37a7b9)" style="fill: #1f77b4"/>
   </g>
   <g id="patch_259">
    <path d="M 307.5815 258.05 
L 348.2725 258.05 
L 348.2725 257.996897 
L 307.5815 257.996897 
z
" clip-path="url(#pe5ea37a7b9)" style="fill: #1f77b4"/>
   </g>
   <g id="patch_260">
    <path d="M 388.9635 258.05 
L 429.6545 258.05 
L 429.6545 257.996897 
L 388.9635 257.996897 
z
" clip-path="url(#pe5ea37a7b9)" style="fill: #1f77b4"/>
   </g>
   <g id="patch_261">
    <path d="M 63.4355 258.05 
L 104.1265 258.05 
L 104.1265 257.625179 
L 63.4355 257.625179 
z
" clip-path="url(#pe5ea37a7b9)" style="fill: #1f77b4"/>
   </g>
   <g id="patch_262">
    <path d="M 144.8175 258.05 
L 185.5085 258.05 
L 185.5085 257.766786 
L 144.8175 257.766786 
z
" clip-path="url(#pe5ea37a7b9)" style="fill: #1f77b4"/>
   </g>
   <g id="patch_263">
    <path d="M 226.1995 258.05 
L 266.8905 258.05 
L 266.8905 257.908393 
L 226.1995 257.908393 
z
" clip-path="url(#pe5ea37a7b9)" style="fill: #1f77b4"/>
   </g>
   <g id="patch_264">
    <path d="M 307.5815 258.05 
L 348.2725 258.05 
L 348.2725 257.908393 
L 307.5815 257.908393 
z
" clip-path="url(#pe5ea37a7b9)" style="fill: #1f77b4"/>
   </g>
   <g id="patch_265">
    <path d="M 388.9635 258.05 
L 429.6545 258.05 
L 429.6545 257.719583 
L 388.9635 257.719583 
z
" clip-path="url(#pe5ea37a7b9)" style="fill: #1f77b4"/>
   </g>
   <g id="patch_266">
    <path d="M 63.4355 258.05 
L 104.1265 258.05 
L 104.1265 257.802188 
L 63.4355 257.802188 
z
" clip-path="url(#pe5ea37a7b9)" style="fill: #1f77b4"/>
   </g>
   <g id="patch_267">
    <path d="M 144.8175 258.05 
L 185.5085 258.05 
L 185.5085 257.802188 
L 144.8175 257.802188 
z
" clip-path="url(#pe5ea37a7b9)" style="fill: #1f77b4"/>
   </g>
   <g id="patch_268">
    <path d="M 226.1995 258.05 
L 266.8905 258.05 
L 266.8905 258.032299 
L 226.1995 258.032299 
z
" clip-path="url(#pe5ea37a7b9)" style="fill: #1f77b4"/>
   </g>
   <g id="patch_269">
    <path d="M 307.5815 258.05 
L 348.2725 258.05 
L 348.2725 258.032299 
L 307.5815 258.032299 
z
" clip-path="url(#pe5ea37a7b9)" style="fill: #1f77b4"/>
   </g>
   <g id="patch_270">
    <path d="M 388.9635 258.05 
L 429.6545 258.05 
L 429.6545 258.032299 
L 388.9635 258.032299 
z
" clip-path="url(#pe5ea37a7b9)" style="fill: #1f77b4"/>
   </g>
   <g id="patch_271">
    <path d="M 63.4355 258.05 
L 104.1265 258.05 
L 104.1265 257.269194 
L 63.4355 257.269194 
z
" clip-path="url(#pe5ea37a7b9)" style="fill: #1f77b4"/>
   </g>
   <g id="patch_272">
    <path d="M 144.8175 258.05 
L 185.5085 258.05 
L 185.5085 257.994931 
L 144.8175 257.994931 
z
" clip-path="url(#pe5ea37a7b9)" style="fill: #1f77b4"/>
   </g>
   <g id="patch_273">
    <path d="M 226.1995 258.05 
L 266.8905 258.05 
L 266.8905 257.994931 
L 226.1995 257.994931 
z
" clip-path="url(#pe5ea37a7b9)" style="fill: #1f77b4"/>
   </g>
   <g id="patch_274">
    <path d="M 307.5815 258.05 
L 348.2725 258.05 
L 348.2725 257.994931 
L 307.5815 257.994931 
z
" clip-path="url(#pe5ea37a7b9)" style="fill: #1f77b4"/>
   </g>
   <g id="patch_275">
    <path d="M 388.9635 258.05 
L 429.6545 258.05 
L 429.6545 257.994931 
L 388.9635 257.994931 
z
" clip-path="url(#pe5ea37a7b9)" style="fill: #1f77b4"/>
   </g>
   <g id="patch_276">
    <path d="M 63.4355 258.05 
L 104.1265 258.05 
L 104.1265 219.331808 
L 63.4355 219.331808 
z
" clip-path="url(#pe5ea37a7b9)" style="fill: #1f77b4"/>
   </g>
   <g id="patch_277">
    <path d="M 144.8175 258.05 
L 185.5085 258.05 
L 185.5085 246.292794 
L 144.8175 246.292794 
z
" clip-path="url(#pe5ea37a7b9)" style="fill: #1f77b4"/>
   </g>
   <g id="patch_278">
    <path d="M 226.1995 258.05 
L 266.8905 258.05 
L 266.8905 245.122086 
L 226.1995 245.122086 
z
" clip-path="url(#pe5ea37a7b9)" style="fill: #1f77b4"/>
   </g>
   <g id="patch_279">
    <path d="M 307.5815 258.05 
L 348.2725 258.05 
L 348.2725 245.340762 
L 307.5815 245.340762 
z
" clip-path="url(#pe5ea37a7b9)" style="fill: #1f77b4"/>
   </g>
   <g id="patch_280">
    <path d="M 388.9635 258.05 
L 429.6545 258.05 
L 429.6545 218.781682 
L 388.9635 218.781682 
z
" clip-path="url(#pe5ea37a7b9)" style="fill: #1f77b4"/>
   </g>
   <g id="patch_281">
    <path d="M 63.4355 258.05 
L 104.1265 258.05 
L 104.1265 250.306451 
L 63.4355 250.306451 
z
" clip-path="url(#pe5ea37a7b9)" style="fill: #1f77b4"/>
   </g>
   <g id="patch_282">
    <path d="M 144.8175 258.05 
L 185.5085 258.05 
L 185.5085 256.970246 
L 144.8175 256.970246 
z
" clip-path="url(#pe5ea37a7b9)" style="fill: #1f77b4"/>
   </g>
   <g id="patch_283">
    <path d="M 226.1995 258.05 
L 266.8905 258.05 
L 266.8905 256.970246 
L 226.1995 256.970246 
z
" clip-path="url(#pe5ea37a7b9)" style="fill: #1f77b4"/>
   </g>
   <g id="patch_284">
    <path d="M 307.5815 258.05 
L 348.2725 258.05 
L 348.2725 256.970246 
L 307.5815 256.970246 
z
" clip-path="url(#pe5ea37a7b9)" style="fill: #1f77b4"/>
   </g>
   <g id="patch_285">
    <path d="M 388.9635 258.05 
L 429.6545 258.05 
L 429.6545 256.970246 
L 388.9635 256.970246 
z
" clip-path="url(#pe5ea37a7b9)" style="fill: #1f77b4"/>
   </g>
   <g id="patch_286">
    <path d="M 63.4355 258.05 
L 104.1265 258.05 
L 104.1265 257.979196 
L 63.4355 257.979196 
z
" clip-path="url(#pe5ea37a7b9)" style="fill: #1f77b4"/>
   </g>
   <g id="patch_287">
    <path d="M 144.8175 258.05 
L 185.5085 258.05 
L 185.5085 258.026399 
L 144.8175 258.026399 
z
" clip-path="url(#pe5ea37a7b9)" style="fill: #1f77b4"/>
   </g>
   <g id="patch_288">
    <path d="M 226.1995 258.05 
L 266.8905 258.05 
L 266.8905 258.026399 
L 226.1995 258.026399 
z
" clip-path="url(#pe5ea37a7b9)" style="fill: #1f77b4"/>
   </g>
   <g id="patch_289">
    <path d="M 307.5815 258.05 
L 348.2725 258.05 
L 348.2725 258.026399 
L 307.5815 258.026399 
z
" clip-path="url(#pe5ea37a7b9)" style="fill: #1f77b4"/>
   </g>
   <g id="patch_290">
    <path d="M 388.9635 258.05 
L 429.6545 258.05 
L 429.6545 258.014598 
L 388.9635 258.014598 
z
" clip-path="url(#pe5ea37a7b9)" style="fill: #1f77b4"/>
   </g>
   <g id="patch_291">
    <path d="M 63.4355 258.05 
L 104.1265 258.05 
L 104.1265 256.733054 
L 63.4355 256.733054 
z
" clip-path="url(#pe5ea37a7b9)" style="fill: #1f77b4"/>
   </g>
   <g id="patch_292">
    <path d="M 144.8175 258.05 
L 185.5085 258.05 
L 185.5085 256.563125 
L 144.8175 256.563125 
z
" clip-path="url(#pe5ea37a7b9)" style="fill: #1f77b4"/>
   </g>
   <g id="patch_293">
    <path d="M 226.1995 258.05 
L 266.8905 258.05 
L 266.8905 257.412768 
L 226.1995 257.412768 
z
" clip-path="url(#pe5ea37a7b9)" style="fill: #1f77b4"/>
   </g>
   <g id="patch_294">
    <path d="M 307.5815 258.05 
L 348.2725 258.05 
L 348.2725 258.007518 
L 307.5815 258.007518 
z
" clip-path="url(#pe5ea37a7b9)" style="fill: #1f77b4"/>
   </g>
   <g id="patch_295">
    <path d="M 388.9635 258.05 
L 429.6545 258.05 
L 429.6545 258.007518 
L 388.9635 258.007518 
z
" clip-path="url(#pe5ea37a7b9)" style="fill: #1f77b4"/>
   </g>
   <g id="patch_296">
    <path d="M 63.4355 258.05 
L 104.1265 258.05 
L 104.1265 257.257 
L 63.4355 257.257 
z
" clip-path="url(#pe5ea37a7b9)" style="fill: #1f77b4"/>
   </g>
   <g id="patch_297">
    <path d="M 144.8175 258.05 
L 185.5085 258.05 
L 185.5085 257.979196 
L 144.8175 257.979196 
z
" clip-path="url(#pe5ea37a7b9)" style="fill: #1f77b4"/>
   </g>
   <g id="patch_298">
    <path d="M 226.1995 258.05 
L 266.8905 258.05 
L 266.8905 257.979196 
L 226.1995 257.979196 
z
" clip-path="url(#pe5ea37a7b9)" style="fill: #1f77b4"/>
   </g>
   <g id="patch_299">
    <path d="M 307.5815 258.05 
L 348.2725 258.05 
L 348.2725 257.979196 
L 307.5815 257.979196 
z
" clip-path="url(#pe5ea37a7b9)" style="fill: #1f77b4"/>
   </g>
   <g id="patch_300">
    <path d="M 388.9635 258.05 
L 429.6545 258.05 
L 429.6545 257.979196 
L 388.9635 257.979196 
z
" clip-path="url(#pe5ea37a7b9)" style="fill: #1f77b4"/>
   </g>
   <g id="patch_301">
    <path d="M 63.4355 258.05 
L 104.1265 258.05 
L 104.1265 257.625179 
L 63.4355 257.625179 
z
" clip-path="url(#pe5ea37a7b9)" style="fill: #1f77b4"/>
   </g>
   <g id="patch_302">
    <path d="M 144.8175 258.05 
L 185.5085 258.05 
L 185.5085 257.979196 
L 144.8175 257.979196 
z
" clip-path="url(#pe5ea37a7b9)" style="fill: #1f77b4"/>
   </g>
   <g id="patch_303">
    <path d="M 226.1995 258.05 
L 266.8905 258.05 
L 266.8905 257.979196 
L 226.1995 257.979196 
z
" clip-path="url(#pe5ea37a7b9)" style="fill: #1f77b4"/>
   </g>
   <g id="patch_304">
    <path d="M 307.5815 258.05 
L 348.2725 258.05 
L 348.2725 257.979196 
L 307.5815 257.979196 
z
" clip-path="url(#pe5ea37a7b9)" style="fill: #1f77b4"/>
   </g>
   <g id="patch_305">
    <path d="M 388.9635 258.05 
L 429.6545 258.05 
L 429.6545 258.035839 
L 388.9635 258.035839 
z
" clip-path="url(#pe5ea37a7b9)" style="fill: #1f77b4"/>
   </g>
   <g id="patch_306">
    <path d="M 63.4355 258.05 
L 104.1265 258.05 
L 104.1265 257.979196 
L 63.4355 257.979196 
z
" clip-path="url(#pe5ea37a7b9)" style="fill: #1f77b4"/>
   </g>
   <g id="patch_307">
    <path d="M 144.8175 258.05 
L 185.5085 258.05 
L 185.5085 258.05 
L 144.8175 258.05 
z
" clip-path="url(#pe5ea37a7b9)" style="fill: #1f77b4"/>
   </g>
   <g id="patch_308">
    <path d="M 226.1995 258.05 
L 266.8905 258.05 
L 266.8905 258.05 
L 226.1995 258.05 
z
" clip-path="url(#pe5ea37a7b9)" style="fill: #1f77b4"/>
   </g>
   <g id="patch_309">
    <path d="M 307.5815 258.05 
L 348.2725 258.05 
L 348.2725 258.05 
L 307.5815 258.05 
z
" clip-path="url(#pe5ea37a7b9)" style="fill: #1f77b4"/>
   </g>
   <g id="patch_310">
    <path d="M 388.9635 258.05 
L 429.6545 258.05 
L 429.6545 258.05 
L 388.9635 258.05 
z
" clip-path="url(#pe5ea37a7b9)" style="fill: #1f77b4"/>
   </g>
   <g id="patch_311">
    <path d="M 63.4355 258.05 
L 104.1265 258.05 
L 104.1265 258.05 
L 63.4355 258.05 
z
" clip-path="url(#pe5ea37a7b9)" style="fill: #1f77b4"/>
   </g>
   <g id="patch_312">
    <path d="M 144.8175 258.05 
L 185.5085 258.05 
L 185.5085 258.05 
L 144.8175 258.05 
z
" clip-path="url(#pe5ea37a7b9)" style="fill: #1f77b4"/>
   </g>
   <g id="patch_313">
    <path d="M 63.4355 258.05 
L 104.1265 258.05 
L 104.1265 149.962173 
L 63.4355 149.962173 
z
" clip-path="url(#pe5ea37a7b9)" style="fill: #1f77b4"/>
   </g>
   <g id="patch_314">
    <path d="M 144.8175 258.05 
L 185.5085 258.05 
L 185.5085 150.757855 
L 144.8175 150.757855 
z
" clip-path="url(#pe5ea37a7b9)" style="fill: #1f77b4"/>
   </g>
   <g id="patch_315">
    <path d="M 226.1995 258.05 
L 266.8905 258.05 
L 266.8905 131.871211 
L 226.1995 131.871211 
z
" clip-path="url(#pe5ea37a7b9)" style="fill: #1f77b4"/>
   </g>
   <g id="patch_316">
    <path d="M 307.5815 258.05 
L 348.2725 258.05 
L 348.2725 201.634583 
L 307.5815 201.634583 
z
" clip-path="url(#pe5ea37a7b9)" style="fill: #1f77b4"/>
   </g>
   <g id="patch_317">
    <path d="M 388.9635 258.05 
L 429.6545 258.05 
L 429.6545 141.895644 
L 388.9635 141.895644 
z
" clip-path="url(#pe5ea37a7b9)" style="fill: #1f77b4"/>
   </g>
   <g id="patch_318">
    <path d="M 63.4355 258.05 
L 104.1265 258.05 
L 104.1265 166.708129 
L 63.4355 166.708129 
z
" clip-path="url(#pe5ea37a7b9)" style="fill: #1f77b4"/>
   </g>
   <g id="patch_319">
    <path d="M 144.8175 258.05 
L 185.5085 258.05 
L 185.5085 100.951119 
L 144.8175 100.951119 
z
" clip-path="url(#pe5ea37a7b9)" style="fill: #1f77b4"/>
   </g>
   <g id="patch_320">
    <path d="M 226.1995 258.05 
L 266.8905 258.05 
L 266.8905 179.631347 
L 226.1995 179.631347 
z
" clip-path="url(#pe5ea37a7b9)" style="fill: #1f77b4"/>
   </g>
   <g id="patch_321">
    <path d="M 307.5815 258.05 
L 348.2725 258.05 
L 348.2725 195.744078 
L 307.5815 195.744078 
z
" clip-path="url(#pe5ea37a7b9)" style="fill: #1f77b4"/>
   </g>
   <g id="patch_322">
    <path d="M 388.9635 258.05 
L 429.6545 258.05 
L 429.6545 199.417706 
L 388.9635 199.417706 
z
" clip-path="url(#pe5ea37a7b9)" style="fill: #1f77b4"/>
   </g>
   <g id="patch_323">
    <path d="M 63.4355 258.05 
L 104.1265 258.05 
L 104.1265 257.684182 
L 63.4355 257.684182 
z
" clip-path="url(#pe5ea37a7b9)" style="fill: #1f77b4"/>
   </g>
   <g id="patch_324">
    <path d="M 144.8175 258.05 
L 185.5085 258.05 
L 185.5085 257.731384 
L 144.8175 257.731384 
z
" clip-path="url(#pe5ea37a7b9)" style="fill: #1f77b4"/>
   </g>
   <g id="patch_325">
    <path d="M 226.1995 258.05 
L 266.8905 258.05 
L 266.8905 257.821855 
L 226.1995 257.821855 
z
" clip-path="url(#pe5ea37a7b9)" style="fill: #1f77b4"/>
   </g>
   <g id="patch_326">
    <path d="M 307.5815 258.05 
L 348.2725 258.05 
L 348.2725 257.943795 
L 307.5815 257.943795 
z
" clip-path="url(#pe5ea37a7b9)" style="fill: #1f77b4"/>
   </g>
   <g id="patch_327">
    <path d="M 388.9635 258.05 
L 429.6545 258.05 
L 429.6545 257.837589 
L 388.9635 257.837589 
z
" clip-path="url(#pe5ea37a7b9)" style="fill: #1f77b4"/>
   </g>
   <g id="patch_328">
    <path d="M 63.4355 258.05 
L 104.1265 258.05 
L 104.1265 200.946915 
L 63.4355 200.946915 
z
" clip-path="url(#pe5ea37a7b9)" style="fill: #1f77b4"/>
   </g>
   <g id="patch_329">
    <path d="M 144.8175 258.05 
L 185.5085 258.05 
L 185.5085 216.819338 
L 144.8175 216.819338 
z
" clip-path="url(#pe5ea37a7b9)" style="fill: #1f77b4"/>
   </g>
   <g id="patch_330">
    <path d="M 226.1995 258.05 
L 266.8905 258.05 
L 266.8905 248.367853 
L 226.1995 248.367853 
z
" clip-path="url(#pe5ea37a7b9)" style="fill: #1f77b4"/>
   </g>
   <g id="patch_331">
    <path d="M 307.5815 258.05 
L 348.2725 258.05 
L 348.2725 245.339539 
L 307.5815 245.339539 
z
" clip-path="url(#pe5ea37a7b9)" style="fill: #1f77b4"/>
   </g>
   <g id="patch_332">
    <path d="M 388.9635 258.05 
L 429.6545 258.05 
L 429.6545 254.173744 
L 388.9635 254.173744 
z
" clip-path="url(#pe5ea37a7b9)" style="fill: #1f77b4"/>
   </g>
   <g id="matplotlib.axis_1">
    <g id="xtick_1">
     <g id="line2d_1">
      <defs>
       <path id="mc5dfa593e1" d="M 0 0 
L 0 3.5 
" style="stroke: #000000; stroke-width: 0.8"/>
      </defs>
      <g>
       <use xlink:href="#mc5dfa593e1" x="83.781" y="258.05" style="stroke: #000000; stroke-width: 0.8"/>
      </g>
     </g>
     <g id="text_1">
      <!-- Jonah Hill -->
      <g transform="translate(86.540375 311.954687) rotate(-90) scale(0.1 -0.1)">
       <defs>
        <path id="DejaVuSans-4a" d="M 628 4666 
L 1259 4666 
L 1259 325 
Q 1259 -519 939 -900 
Q 619 -1281 -91 -1281 
L -331 -1281 
L -331 -750 
L -134 -750 
Q 284 -750 456 -515 
Q 628 -281 628 325 
L 628 4666 
z
" transform="scale(0.015625)"/>
        <path id="DejaVuSans-6f" d="M 1959 3097 
Q 1497 3097 1228 2736 
Q 959 2375 959 1747 
Q 959 1119 1226 758 
Q 1494 397 1959 397 
Q 2419 397 2687 759 
Q 2956 1122 2956 1747 
Q 2956 2369 2687 2733 
Q 2419 3097 1959 3097 
z
M 1959 3584 
Q 2709 3584 3137 3096 
Q 3566 2609 3566 1747 
Q 3566 888 3137 398 
Q 2709 -91 1959 -91 
Q 1206 -91 779 398 
Q 353 888 353 1747 
Q 353 2609 779 3096 
Q 1206 3584 1959 3584 
z
" transform="scale(0.015625)"/>
        <path id="DejaVuSans-6e" d="M 3513 2113 
L 3513 0 
L 2938 0 
L 2938 2094 
Q 2938 2591 2744 2837 
Q 2550 3084 2163 3084 
Q 1697 3084 1428 2787 
Q 1159 2491 1159 1978 
L 1159 0 
L 581 0 
L 581 3500 
L 1159 3500 
L 1159 2956 
Q 1366 3272 1645 3428 
Q 1925 3584 2291 3584 
Q 2894 3584 3203 3211 
Q 3513 2838 3513 2113 
z
" transform="scale(0.015625)"/>
        <path id="DejaVuSans-61" d="M 2194 1759 
Q 1497 1759 1228 1600 
Q 959 1441 959 1056 
Q 959 750 1161 570 
Q 1363 391 1709 391 
Q 2188 391 2477 730 
Q 2766 1069 2766 1631 
L 2766 1759 
L 2194 1759 
z
M 3341 1997 
L 3341 0 
L 2766 0 
L 2766 531 
Q 2569 213 2275 61 
Q 1981 -91 1556 -91 
Q 1019 -91 701 211 
Q 384 513 384 1019 
Q 384 1609 779 1909 
Q 1175 2209 1959 2209 
L 2766 2209 
L 2766 2266 
Q 2766 2663 2505 2880 
Q 2244 3097 1772 3097 
Q 1472 3097 1187 3025 
Q 903 2953 641 2809 
L 641 3341 
Q 956 3463 1253 3523 
Q 1550 3584 1831 3584 
Q 2591 3584 2966 3190 
Q 3341 2797 3341 1997 
z
" transform="scale(0.015625)"/>
        <path id="DejaVuSans-68" d="M 3513 2113 
L 3513 0 
L 2938 0 
L 2938 2094 
Q 2938 2591 2744 2837 
Q 2550 3084 2163 3084 
Q 1697 3084 1428 2787 
Q 1159 2491 1159 1978 
L 1159 0 
L 581 0 
L 581 4863 
L 1159 4863 
L 1159 2956 
Q 1366 3272 1645 3428 
Q 1925 3584 2291 3584 
Q 2894 3584 3203 3211 
Q 3513 2838 3513 2113 
z
" transform="scale(0.015625)"/>
        <path id="DejaVuSans-20" transform="scale(0.015625)"/>
        <path id="DejaVuSans-48" d="M 628 4666 
L 1259 4666 
L 1259 2753 
L 3553 2753 
L 3553 4666 
L 4184 4666 
L 4184 0 
L 3553 0 
L 3553 2222 
L 1259 2222 
L 1259 0 
L 628 0 
L 628 4666 
z
" transform="scale(0.015625)"/>
        <path id="DejaVuSans-69" d="M 603 3500 
L 1178 3500 
L 1178 0 
L 603 0 
L 603 3500 
z
M 603 4863 
L 1178 4863 
L 1178 4134 
L 603 4134 
L 603 4863 
z
" transform="scale(0.015625)"/>
        <path id="DejaVuSans-6c" d="M 603 4863 
L 1178 4863 
L 1178 0 
L 603 0 
L 603 4863 
z
" transform="scale(0.015625)"/>
       </defs>
       <use xlink:href="#DejaVuSans-4a"/>
       <use xlink:href="#DejaVuSans-6f" x="29.492188"/>
       <use xlink:href="#DejaVuSans-6e" x="90.673828"/>
       <use xlink:href="#DejaVuSans-61" x="154.052734"/>
       <use xlink:href="#DejaVuSans-68" x="215.332031"/>
       <use xlink:href="#DejaVuSans-20" x="278.710938"/>
       <use xlink:href="#DejaVuSans-48" x="310.498047"/>
       <use xlink:href="#DejaVuSans-69" x="385.693359"/>
       <use xlink:href="#DejaVuSans-6c" x="413.476562"/>
       <use xlink:href="#DejaVuSans-6c" x="441.259766"/>
      </g>
     </g>
    </g>
    <g id="xtick_2">
     <g id="line2d_2">
      <g>
       <use xlink:href="#mc5dfa593e1" x="165.163" y="258.05" style="stroke: #000000; stroke-width: 0.8"/>
      </g>
     </g>
     <g id="text_2">
      <!-- Julie Andrews -->
      <g transform="translate(167.922375 332.178125) rotate(-90) scale(0.1 -0.1)">
       <defs>
        <path id="DejaVuSans-75" d="M 544 1381 
L 544 3500 
L 1119 3500 
L 1119 1403 
Q 1119 906 1312 657 
Q 1506 409 1894 409 
Q 2359 409 2629 706 
Q 2900 1003 2900 1516 
L 2900 3500 
L 3475 3500 
L 3475 0 
L 2900 0 
L 2900 538 
Q 2691 219 2414 64 
Q 2138 -91 1772 -91 
Q 1169 -91 856 284 
Q 544 659 544 1381 
z
M 1991 3584 
L 1991 3584 
z
" transform="scale(0.015625)"/>
        <path id="DejaVuSans-65" d="M 3597 1894 
L 3597 1613 
L 953 1613 
Q 991 1019 1311 708 
Q 1631 397 2203 397 
Q 2534 397 2845 478 
Q 3156 559 3463 722 
L 3463 178 
Q 3153 47 2828 -22 
Q 2503 -91 2169 -91 
Q 1331 -91 842 396 
Q 353 884 353 1716 
Q 353 2575 817 3079 
Q 1281 3584 2069 3584 
Q 2775 3584 3186 3129 
Q 3597 2675 3597 1894 
z
M 3022 2063 
Q 3016 2534 2758 2815 
Q 2500 3097 2075 3097 
Q 1594 3097 1305 2825 
Q 1016 2553 972 2059 
L 3022 2063 
z
" transform="scale(0.015625)"/>
        <path id="DejaVuSans-41" d="M 2188 4044 
L 1331 1722 
L 3047 1722 
L 2188 4044 
z
M 1831 4666 
L 2547 4666 
L 4325 0 
L 3669 0 
L 3244 1197 
L 1141 1197 
L 716 0 
L 50 0 
L 1831 4666 
z
" transform="scale(0.015625)"/>
        <path id="DejaVuSans-64" d="M 2906 2969 
L 2906 4863 
L 3481 4863 
L 3481 0 
L 2906 0 
L 2906 525 
Q 2725 213 2448 61 
Q 2172 -91 1784 -91 
Q 1150 -91 751 415 
Q 353 922 353 1747 
Q 353 2572 751 3078 
Q 1150 3584 1784 3584 
Q 2172 3584 2448 3432 
Q 2725 3281 2906 2969 
z
M 947 1747 
Q 947 1113 1208 752 
Q 1469 391 1925 391 
Q 2381 391 2643 752 
Q 2906 1113 2906 1747 
Q 2906 2381 2643 2742 
Q 2381 3103 1925 3103 
Q 1469 3103 1208 2742 
Q 947 2381 947 1747 
z
" transform="scale(0.015625)"/>
        <path id="DejaVuSans-72" d="M 2631 2963 
Q 2534 3019 2420 3045 
Q 2306 3072 2169 3072 
Q 1681 3072 1420 2755 
Q 1159 2438 1159 1844 
L 1159 0 
L 581 0 
L 581 3500 
L 1159 3500 
L 1159 2956 
Q 1341 3275 1631 3429 
Q 1922 3584 2338 3584 
Q 2397 3584 2469 3576 
Q 2541 3569 2628 3553 
L 2631 2963 
z
" transform="scale(0.015625)"/>
        <path id="DejaVuSans-77" d="M 269 3500 
L 844 3500 
L 1563 769 
L 2278 3500 
L 2956 3500 
L 3675 769 
L 4391 3500 
L 4966 3500 
L 4050 0 
L 3372 0 
L 2619 2869 
L 1863 0 
L 1184 0 
L 269 3500 
z
" transform="scale(0.015625)"/>
        <path id="DejaVuSans-73" d="M 2834 3397 
L 2834 2853 
Q 2591 2978 2328 3040 
Q 2066 3103 1784 3103 
Q 1356 3103 1142 2972 
Q 928 2841 928 2578 
Q 928 2378 1081 2264 
Q 1234 2150 1697 2047 
L 1894 2003 
Q 2506 1872 2764 1633 
Q 3022 1394 3022 966 
Q 3022 478 2636 193 
Q 2250 -91 1575 -91 
Q 1294 -91 989 -36 
Q 684 19 347 128 
L 347 722 
Q 666 556 975 473 
Q 1284 391 1588 391 
Q 1994 391 2212 530 
Q 2431 669 2431 922 
Q 2431 1156 2273 1281 
Q 2116 1406 1581 1522 
L 1381 1569 
Q 847 1681 609 1914 
Q 372 2147 372 2553 
Q 372 3047 722 3315 
Q 1072 3584 1716 3584 
Q 2034 3584 2315 3537 
Q 2597 3491 2834 3397 
z
" transform="scale(0.015625)"/>
       </defs>
       <use xlink:href="#DejaVuSans-4a"/>
       <use xlink:href="#DejaVuSans-75" x="29.492188"/>
       <use xlink:href="#DejaVuSans-6c" x="92.871094"/>
       <use xlink:href="#DejaVuSans-69" x="120.654297"/>
       <use xlink:href="#DejaVuSans-65" x="148.4375"/>
       <use xlink:href="#DejaVuSans-20" x="209.960938"/>
       <use xlink:href="#DejaVuSans-41" x="241.748047"/>
       <use xlink:href="#DejaVuSans-6e" x="310.15625"/>
       <use xlink:href="#DejaVuSans-64" x="373.535156"/>
       <use xlink:href="#DejaVuSans-72" x="437.011719"/>
       <use xlink:href="#DejaVuSans-65" x="475.875"/>
       <use xlink:href="#DejaVuSans-77" x="537.398438"/>
       <use xlink:href="#DejaVuSans-73" x="619.185547"/>
      </g>
     </g>
    </g>
    <g id="xtick_3">
     <g id="line2d_3">
      <g>
       <use xlink:href="#mc5dfa593e1" x="246.545" y="258.05" style="stroke: #000000; stroke-width: 0.8"/>
      </g>
     </g>
     <g id="text_3">
      <!-- John Cleese -->
      <g transform="translate(249.304375 323.401562) rotate(-90) scale(0.1 -0.1)">
       <defs>
        <path id="DejaVuSans-43" d="M 4122 4306 
L 4122 3641 
Q 3803 3938 3442 4084 
Q 3081 4231 2675 4231 
Q 1875 4231 1450 3742 
Q 1025 3253 1025 2328 
Q 1025 1406 1450 917 
Q 1875 428 2675 428 
Q 3081 428 3442 575 
Q 3803 722 4122 1019 
L 4122 359 
Q 3791 134 3420 21 
Q 3050 -91 2638 -91 
Q 1578 -91 968 557 
Q 359 1206 359 2328 
Q 359 3453 968 4101 
Q 1578 4750 2638 4750 
Q 3056 4750 3426 4639 
Q 3797 4528 4122 4306 
z
" transform="scale(0.015625)"/>
       </defs>
       <use xlink:href="#DejaVuSans-4a"/>
       <use xlink:href="#DejaVuSans-6f" x="29.492188"/>
       <use xlink:href="#DejaVuSans-68" x="90.673828"/>
       <use xlink:href="#DejaVuSans-6e" x="154.052734"/>
       <use xlink:href="#DejaVuSans-20" x="217.431641"/>
       <use xlink:href="#DejaVuSans-43" x="249.21875"/>
       <use xlink:href="#DejaVuSans-6c" x="319.042969"/>
       <use xlink:href="#DejaVuSans-65" x="346.826172"/>
       <use xlink:href="#DejaVuSans-65" x="408.349609"/>
       <use xlink:href="#DejaVuSans-73" x="469.873047"/>
       <use xlink:href="#DejaVuSans-65" x="521.972656"/>
      </g>
     </g>
    </g>
    <g id="xtick_4">
     <g id="line2d_4">
      <g>
       <use xlink:href="#mc5dfa593e1" x="327.927" y="258.05" style="stroke: #000000; stroke-width: 0.8"/>
      </g>
     </g>
     <g id="text_4">
      <!-- Steve Coogan -->
      <g transform="translate(330.686375 334.75625) rotate(-90) scale(0.1 -0.1)">
       <defs>
        <path id="DejaVuSans-53" d="M 3425 4513 
L 3425 3897 
Q 3066 4069 2747 4153 
Q 2428 4238 2131 4238 
Q 1616 4238 1336 4038 
Q 1056 3838 1056 3469 
Q 1056 3159 1242 3001 
Q 1428 2844 1947 2747 
L 2328 2669 
Q 3034 2534 3370 2195 
Q 3706 1856 3706 1288 
Q 3706 609 3251 259 
Q 2797 -91 1919 -91 
Q 1588 -91 1214 -16 
Q 841 59 441 206 
L 441 856 
Q 825 641 1194 531 
Q 1563 422 1919 422 
Q 2459 422 2753 634 
Q 3047 847 3047 1241 
Q 3047 1584 2836 1778 
Q 2625 1972 2144 2069 
L 1759 2144 
Q 1053 2284 737 2584 
Q 422 2884 422 3419 
Q 422 4038 858 4394 
Q 1294 4750 2059 4750 
Q 2388 4750 2728 4690 
Q 3069 4631 3425 4513 
z
" transform="scale(0.015625)"/>
        <path id="DejaVuSans-74" d="M 1172 4494 
L 1172 3500 
L 2356 3500 
L 2356 3053 
L 1172 3053 
L 1172 1153 
Q 1172 725 1289 603 
Q 1406 481 1766 481 
L 2356 481 
L 2356 0 
L 1766 0 
Q 1100 0 847 248 
Q 594 497 594 1153 
L 594 3053 
L 172 3053 
L 172 3500 
L 594 3500 
L 594 4494 
L 1172 4494 
z
" transform="scale(0.015625)"/>
        <path id="DejaVuSans-76" d="M 191 3500 
L 800 3500 
L 1894 563 
L 2988 3500 
L 3597 3500 
L 2284 0 
L 1503 0 
L 191 3500 
z
" transform="scale(0.015625)"/>
        <path id="DejaVuSans-67" d="M 2906 1791 
Q 2906 2416 2648 2759 
Q 2391 3103 1925 3103 
Q 1463 3103 1205 2759 
Q 947 2416 947 1791 
Q 947 1169 1205 825 
Q 1463 481 1925 481 
Q 2391 481 2648 825 
Q 2906 1169 2906 1791 
z
M 3481 434 
Q 3481 -459 3084 -895 
Q 2688 -1331 1869 -1331 
Q 1566 -1331 1297 -1286 
Q 1028 -1241 775 -1147 
L 775 -588 
Q 1028 -725 1275 -790 
Q 1522 -856 1778 -856 
Q 2344 -856 2625 -561 
Q 2906 -266 2906 331 
L 2906 616 
Q 2728 306 2450 153 
Q 2172 0 1784 0 
Q 1141 0 747 490 
Q 353 981 353 1791 
Q 353 2603 747 3093 
Q 1141 3584 1784 3584 
Q 2172 3584 2450 3431 
Q 2728 3278 2906 2969 
L 2906 3500 
L 3481 3500 
L 3481 434 
z
" transform="scale(0.015625)"/>
       </defs>
       <use xlink:href="#DejaVuSans-53"/>
       <use xlink:href="#DejaVuSans-74" x="63.476562"/>
       <use xlink:href="#DejaVuSans-65" x="102.685547"/>
       <use xlink:href="#DejaVuSans-76" x="164.208984"/>
       <use xlink:href="#DejaVuSans-65" x="223.388672"/>
       <use xlink:href="#DejaVuSans-20" x="284.912109"/>
       <use xlink:href="#DejaVuSans-43" x="316.699219"/>
       <use xlink:href="#DejaVuSans-6f" x="386.523438"/>
       <use xlink:href="#DejaVuSans-6f" x="447.705078"/>
       <use xlink:href="#DejaVuSans-67" x="508.886719"/>
       <use xlink:href="#DejaVuSans-61" x="572.363281"/>
       <use xlink:href="#DejaVuSans-6e" x="633.642578"/>
      </g>
     </g>
    </g>
    <g id="xtick_5">
     <g id="line2d_5">
      <g>
       <use xlink:href="#mc5dfa593e1" x="409.309" y="258.05" style="stroke: #000000; stroke-width: 0.8"/>
      </g>
     </g>
     <g id="text_5">
      <!-- Mike Myers -->
      <g transform="translate(412.068375 321.235937) rotate(-90) scale(0.1 -0.1)">
       <defs>
        <path id="DejaVuSans-4d" d="M 628 4666 
L 1569 4666 
L 2759 1491 
L 3956 4666 
L 4897 4666 
L 4897 0 
L 4281 0 
L 4281 4097 
L 3078 897 
L 2444 897 
L 1241 4097 
L 1241 0 
L 628 0 
L 628 4666 
z
" transform="scale(0.015625)"/>
        <path id="DejaVuSans-6b" d="M 581 4863 
L 1159 4863 
L 1159 1991 
L 2875 3500 
L 3609 3500 
L 1753 1863 
L 3688 0 
L 2938 0 
L 1159 1709 
L 1159 0 
L 581 0 
L 581 4863 
z
" transform="scale(0.015625)"/>
        <path id="DejaVuSans-79" d="M 2059 -325 
Q 1816 -950 1584 -1140 
Q 1353 -1331 966 -1331 
L 506 -1331 
L 506 -850 
L 844 -850 
Q 1081 -850 1212 -737 
Q 1344 -625 1503 -206 
L 1606 56 
L 191 3500 
L 800 3500 
L 1894 763 
L 2988 3500 
L 3597 3500 
L 2059 -325 
z
" transform="scale(0.015625)"/>
       </defs>
       <use xlink:href="#DejaVuSans-4d"/>
       <use xlink:href="#DejaVuSans-69" x="86.279297"/>
       <use xlink:href="#DejaVuSans-6b" x="114.0625"/>
       <use xlink:href="#DejaVuSans-65" x="168.347656"/>
       <use xlink:href="#DejaVuSans-20" x="229.871094"/>
       <use xlink:href="#DejaVuSans-4d" x="261.658203"/>
       <use xlink:href="#DejaVuSans-79" x="347.9375"/>
       <use xlink:href="#DejaVuSans-65" x="407.117188"/>
       <use xlink:href="#DejaVuSans-72" x="468.640625"/>
       <use xlink:href="#DejaVuSans-73" x="509.753906"/>
      </g>
     </g>
    </g>
   </g>
   <g id="matplotlib.axis_2">
    <g id="ytick_1">
     <g id="line2d_6">
      <defs>
       <path id="m0fb0956cef" d="M 0 0 
L -3.5 0 
" style="stroke: #000000; stroke-width: 0.8"/>
      </defs>
      <g>
       <use xlink:href="#m0fb0956cef" x="43.09" y="258.05" style="stroke: #000000; stroke-width: 0.8"/>
      </g>
     </g>
     <g id="text_6">
      <!-- 0 -->
      <g transform="translate(29.7275 261.849219) scale(0.1 -0.1)">
       <defs>
        <path id="DejaVuSans-30" d="M 2034 4250 
Q 1547 4250 1301 3770 
Q 1056 3291 1056 2328 
Q 1056 1369 1301 889 
Q 1547 409 2034 409 
Q 2525 409 2770 889 
Q 3016 1369 3016 2328 
Q 3016 3291 2770 3770 
Q 2525 4250 2034 4250 
z
M 2034 4750 
Q 2819 4750 3233 4129 
Q 3647 3509 3647 2328 
Q 3647 1150 3233 529 
Q 2819 -91 2034 -91 
Q 1250 -91 836 529 
Q 422 1150 422 2328 
Q 422 3509 836 4129 
Q 1250 4750 2034 4750 
z
" transform="scale(0.015625)"/>
       </defs>
       <use xlink:href="#DejaVuSans-30"/>
      </g>
     </g>
    </g>
    <g id="ytick_2">
     <g id="line2d_7">
      <g>
       <use xlink:href="#m0fb0956cef" x="43.09" y="222.648224" style="stroke: #000000; stroke-width: 0.8"/>
      </g>
     </g>
     <g id="text_7">
      <!-- 500 -->
      <g transform="translate(17.0025 226.447442) scale(0.1 -0.1)">
       <defs>
        <path id="DejaVuSans-35" d="M 691 4666 
L 3169 4666 
L 3169 4134 
L 1269 4134 
L 1269 2991 
Q 1406 3038 1543 3061 
Q 1681 3084 1819 3084 
Q 2600 3084 3056 2656 
Q 3513 2228 3513 1497 
Q 3513 744 3044 326 
Q 2575 -91 1722 -91 
Q 1428 -91 1123 -41 
Q 819 9 494 109 
L 494 744 
Q 775 591 1075 516 
Q 1375 441 1709 441 
Q 2250 441 2565 725 
Q 2881 1009 2881 1497 
Q 2881 1984 2565 2268 
Q 2250 2553 1709 2553 
Q 1456 2553 1204 2497 
Q 953 2441 691 2322 
L 691 4666 
z
" transform="scale(0.015625)"/>
       </defs>
       <use xlink:href="#DejaVuSans-35"/>
       <use xlink:href="#DejaVuSans-30" x="63.623047"/>
       <use xlink:href="#DejaVuSans-30" x="127.246094"/>
      </g>
     </g>
    </g>
    <g id="ytick_3">
     <g id="line2d_8">
      <g>
       <use xlink:href="#m0fb0956cef" x="43.09" y="187.246447" style="stroke: #000000; stroke-width: 0.8"/>
      </g>
     </g>
     <g id="text_8">
      <!-- 1000 -->
      <g transform="translate(10.64 191.045666) scale(0.1 -0.1)">
       <defs>
        <path id="DejaVuSans-31" d="M 794 531 
L 1825 531 
L 1825 4091 
L 703 3866 
L 703 4441 
L 1819 4666 
L 2450 4666 
L 2450 531 
L 3481 531 
L 3481 0 
L 794 0 
L 794 531 
z
" transform="scale(0.015625)"/>
       </defs>
       <use xlink:href="#DejaVuSans-31"/>
       <use xlink:href="#DejaVuSans-30" x="63.623047"/>
       <use xlink:href="#DejaVuSans-30" x="127.246094"/>
       <use xlink:href="#DejaVuSans-30" x="190.869141"/>
      </g>
     </g>
    </g>
    <g id="ytick_4">
     <g id="line2d_9">
      <g>
       <use xlink:href="#m0fb0956cef" x="43.09" y="151.844671" style="stroke: #000000; stroke-width: 0.8"/>
      </g>
     </g>
     <g id="text_9">
      <!-- 1500 -->
      <g transform="translate(10.64 155.643889) scale(0.1 -0.1)">
       <use xlink:href="#DejaVuSans-31"/>
       <use xlink:href="#DejaVuSans-35" x="63.623047"/>
       <use xlink:href="#DejaVuSans-30" x="127.246094"/>
       <use xlink:href="#DejaVuSans-30" x="190.869141"/>
      </g>
     </g>
    </g>
    <g id="ytick_5">
     <g id="line2d_10">
      <g>
       <use xlink:href="#m0fb0956cef" x="43.09" y="116.442894" style="stroke: #000000; stroke-width: 0.8"/>
      </g>
     </g>
     <g id="text_10">
      <!-- 2000 -->
      <g transform="translate(10.64 120.242113) scale(0.1 -0.1)">
       <defs>
        <path id="DejaVuSans-32" d="M 1228 531 
L 3431 531 
L 3431 0 
L 469 0 
L 469 531 
Q 828 903 1448 1529 
Q 2069 2156 2228 2338 
Q 2531 2678 2651 2914 
Q 2772 3150 2772 3378 
Q 2772 3750 2511 3984 
Q 2250 4219 1831 4219 
Q 1534 4219 1204 4116 
Q 875 4013 500 3803 
L 500 4441 
Q 881 4594 1212 4672 
Q 1544 4750 1819 4750 
Q 2544 4750 2975 4387 
Q 3406 4025 3406 3419 
Q 3406 3131 3298 2873 
Q 3191 2616 2906 2266 
Q 2828 2175 2409 1742 
Q 1991 1309 1228 531 
z
" transform="scale(0.015625)"/>
       </defs>
       <use xlink:href="#DejaVuSans-32"/>
       <use xlink:href="#DejaVuSans-30" x="63.623047"/>
       <use xlink:href="#DejaVuSans-30" x="127.246094"/>
       <use xlink:href="#DejaVuSans-30" x="190.869141"/>
      </g>
     </g>
    </g>
    <g id="ytick_6">
     <g id="line2d_11">
      <g>
       <use xlink:href="#m0fb0956cef" x="43.09" y="81.041118" style="stroke: #000000; stroke-width: 0.8"/>
      </g>
     </g>
     <g id="text_11">
      <!-- 2500 -->
      <g transform="translate(10.64 84.840337) scale(0.1 -0.1)">
       <use xlink:href="#DejaVuSans-32"/>
       <use xlink:href="#DejaVuSans-35" x="63.623047"/>
       <use xlink:href="#DejaVuSans-30" x="127.246094"/>
       <use xlink:href="#DejaVuSans-30" x="190.869141"/>
      </g>
     </g>
    </g>
    <g id="ytick_7">
     <g id="line2d_12">
      <g>
       <use xlink:href="#m0fb0956cef" x="43.09" y="45.639341" style="stroke: #000000; stroke-width: 0.8"/>
      </g>
     </g>
     <g id="text_12">
      <!-- 3000 -->
      <g transform="translate(10.64 49.43856) scale(0.1 -0.1)">
       <defs>
        <path id="DejaVuSans-33" d="M 2597 2516 
Q 3050 2419 3304 2112 
Q 3559 1806 3559 1356 
Q 3559 666 3084 287 
Q 2609 -91 1734 -91 
Q 1441 -91 1130 -33 
Q 819 25 488 141 
L 488 750 
Q 750 597 1062 519 
Q 1375 441 1716 441 
Q 2309 441 2620 675 
Q 2931 909 2931 1356 
Q 2931 1769 2642 2001 
Q 2353 2234 1838 2234 
L 1294 2234 
L 1294 2753 
L 1863 2753 
Q 2328 2753 2575 2939 
Q 2822 3125 2822 3475 
Q 2822 3834 2567 4026 
Q 2313 4219 1838 4219 
Q 1578 4219 1281 4162 
Q 984 4106 628 3988 
L 628 4550 
Q 988 4650 1302 4700 
Q 1616 4750 1894 4750 
Q 2613 4750 3031 4423 
Q 3450 4097 3450 3541 
Q 3450 3153 3228 2886 
Q 3006 2619 2597 2516 
z
" transform="scale(0.015625)"/>
       </defs>
       <use xlink:href="#DejaVuSans-33"/>
       <use xlink:href="#DejaVuSans-30" x="63.623047"/>
       <use xlink:href="#DejaVuSans-30" x="127.246094"/>
       <use xlink:href="#DejaVuSans-30" x="190.869141"/>
      </g>
     </g>
    </g>
   </g>
   <g id="patch_333">
    <path d="M 43.09 258.05 
L 43.09 10.8 
" style="fill: none; stroke: #000000; stroke-width: 0.8; stroke-linejoin: miter; stroke-linecap: square"/>
   </g>
   <g id="patch_334">
    <path d="M 450 258.05 
L 450 10.8 
" style="fill: none; stroke: #000000; stroke-width: 0.8; stroke-linejoin: miter; stroke-linecap: square"/>
   </g>
   <g id="patch_335">
    <path d="M 43.09 258.05 
L 450 258.05 
" style="fill: none; stroke: #000000; stroke-width: 0.8; stroke-linejoin: miter; stroke-linecap: square"/>
   </g>
   <g id="patch_336">
    <path d="M 43.09 10.8 
L 450 10.8 
" style="fill: none; stroke: #000000; stroke-width: 0.8; stroke-linejoin: miter; stroke-linecap: square"/>
   </g>
  </g>
 </g>
 <defs>
  <clipPath id="pe5ea37a7b9">
   <rect x="43.09" y="10.8" width="406.91" height="247.25"/>
  </clipPath>
 </defs>
</svg>
