<?xml version="1.0" encoding="utf-8" standalone="no"?>
<!DOCTYPE svg PUBLIC "-//W3C//DTD SVG 1.1//EN"
  "http://www.w3.org/Graphics/SVG/1.1/DTD/svg11.dtd">
<svg xmlns:xlink="http://www.w3.org/1999/xlink" width="460.8pt" height="345.6pt" viewBox="0 0 460.8 345.6" xmlns="http://www.w3.org/2000/svg" version="1.1">
 <metadata>
  <rdf:RDF xmlns:dc="http://purl.org/dc/elements/1.1/" xmlns:cc="http://creativecommons.org/ns#" xmlns:rdf="http://www.w3.org/1999/02/22-rdf-syntax-ns#">
   <cc:Work>
    <dc:type rdf:resource="http://purl.org/dc/dcmitype/StillImage"/>
    <dc:date>2022-12-20T12:31:05.739556</dc:date>
    <dc:format>image/svg+xml</dc:format>
    <dc:creator>
     <cc:Agent>
      <dc:title>Matplotlib v3.6.0, https://matplotlib.org/</dc:title>
     </cc:Agent>
    </dc:creator>
   </cc:Work>
  </rdf:RDF>
 </metadata>
 <defs>
  <style type="text/css">*{stroke-linejoin: round; stroke-linecap: butt}</style>
 </defs>
 <g id="figure_1">
  <g id="patch_1">
   <path d="M 0 345.6 
L 460.8 345.6 
L 460.8 0 
L 0 0 
z
" style="fill: #ffffff"/>
  </g>
  <g id="axes_1">
   <g id="patch_2">
    <path d="M 43.09 216.56 
L 450 216.56 
L 450 10.8 
L 43.09 10.8 
z
" style="fill: #ffffff"/>
   </g>
   <g id="patch_3">
    <path d="M 68.521875 216.56 
L 119.385625 216.56 
L 119.385625 21.652158 
L 68.521875 21.652158 
z
" clip-path="url(#p9ec6d6f4aa)" style="fill: #1f77b4"/>
   </g>
   <g id="patch_4">
    <path d="M 170.249375 216.56 
L 221.113125 216.56 
L 221.113125 67.494289 
L 170.249375 67.494289 
z
" clip-path="url(#p9ec6d6f4aa)" style="fill: #1f77b4"/>
   </g>
   <g id="patch_5">
    <path d="M 271.976875 216.56 
L 322.840625 216.56 
L 322.840625 53.85687 
L 271.976875 53.85687 
z
" clip-path="url(#p9ec6d6f4aa)" style="fill: #1f77b4"/>
   </g>
   <g id="patch_6">
    <path d="M 373.704375 216.56 
L 424.568125 216.56 
L 424.568125 83.821511 
L 373.704375 83.821511 
z
" clip-path="url(#p9ec6d6f4aa)" style="fill: #1f77b4"/>
   </g>
   <g id="patch_7">
    <path d="M 475.431875 216.56 
L 526.295625 216.56 
L 526.295625 136.698955 
L 475.431875 136.698955 
z
" clip-path="url(#p9ec6d6f4aa)" style="fill: #1f77b4"/>
   </g>
   <g id="patch_8">
    <path d="M 68.521875 216.56 
L 119.385625 216.56 
L 119.385625 216.03995 
L 68.521875 216.03995 
z
" clip-path="url(#p9ec6d6f4aa)" style="fill: #1f77b4"/>
   </g>
   <g id="patch_9">
    <path d="M 170.249375 216.56 
L 221.113125 216.56 
L 221.113125 216.38665 
L 170.249375 216.38665 
z
" clip-path="url(#p9ec6d6f4aa)" style="fill: #1f77b4"/>
   </g>
   <g id="patch_10">
    <path d="M 271.976875 216.56 
L 322.840625 216.56 
L 322.840625 216.56 
L 271.976875 216.56 
z
" clip-path="url(#p9ec6d6f4aa)" style="fill: #1f77b4"/>
   </g>
   <g id="patch_11">
    <path d="M 68.521875 216.56 
L 119.385625 216.56 
L 119.385625 216.502217 
L 68.521875 216.502217 
z
" clip-path="url(#p9ec6d6f4aa)" style="fill: #1f77b4"/>
   </g>
   <g id="patch_12">
    <path d="M 170.249375 216.56 
L 221.113125 216.56 
L 221.113125 216.502217 
L 170.249375 216.502217 
z
" clip-path="url(#p9ec6d6f4aa)" style="fill: #1f77b4"/>
   </g>
   <g id="patch_13">
    <path d="M 271.976875 216.56 
L 322.840625 216.56 
L 322.840625 216.502217 
L 271.976875 216.502217 
z
" clip-path="url(#p9ec6d6f4aa)" style="fill: #1f77b4"/>
   </g>
   <g id="patch_14">
    <path d="M 373.704375 216.56 
L 424.568125 216.56 
L 424.568125 216.38665 
L 373.704375 216.38665 
z
" clip-path="url(#p9ec6d6f4aa)" style="fill: #1f77b4"/>
   </g>
   <g id="patch_15">
    <path d="M 475.431875 216.56 
L 526.295625 216.56 
L 526.295625 216.56 
L 475.431875 216.56 
z
" clip-path="url(#p9ec6d6f4aa)" style="fill: #1f77b4"/>
   </g>
   <g id="patch_16">
    <path d="M 68.521875 216.56 
L 119.385625 216.56 
L 119.385625 183.970173 
L 68.521875 183.970173 
z
" clip-path="url(#p9ec6d6f4aa)" style="fill: #1f77b4"/>
   </g>
   <g id="patch_17">
    <path d="M 170.249375 216.56 
L 221.113125 216.56 
L 221.113125 207.372442 
L 170.249375 207.372442 
z
" clip-path="url(#p9ec6d6f4aa)" style="fill: #1f77b4"/>
   </g>
   <g id="patch_18">
    <path d="M 271.976875 216.56 
L 322.840625 216.56 
L 322.840625 209.019269 
L 271.976875 209.019269 
z
" clip-path="url(#p9ec6d6f4aa)" style="fill: #1f77b4"/>
   </g>
   <g id="patch_19">
    <path d="M 373.704375 216.56 
L 424.568125 216.56 
L 424.568125 184.836923 
L 373.704375 184.836923 
z
" clip-path="url(#p9ec6d6f4aa)" style="fill: #1f77b4"/>
   </g>
   <g id="patch_20">
    <path d="M 475.431875 216.56 
L 526.295625 216.56 
L 526.295625 212.486272 
L 475.431875 212.486272 
z
" clip-path="url(#p9ec6d6f4aa)" style="fill: #1f77b4"/>
   </g>
   <g id="patch_21">
    <path d="M 68.521875 216.56 
L 119.385625 216.56 
L 119.385625 216.38665 
L 68.521875 216.38665 
z
" clip-path="url(#p9ec6d6f4aa)" style="fill: #1f77b4"/>
   </g>
   <g id="patch_22">
    <path d="M 170.249375 216.56 
L 221.113125 216.56 
L 221.113125 216.56 
L 170.249375 216.56 
z
" clip-path="url(#p9ec6d6f4aa)" style="fill: #1f77b4"/>
   </g>
   <g id="patch_23">
    <path d="M 271.976875 216.56 
L 322.840625 216.56 
L 322.840625 216.56 
L 271.976875 216.56 
z
" clip-path="url(#p9ec6d6f4aa)" style="fill: #1f77b4"/>
   </g>
   <g id="patch_24">
    <path d="M 373.704375 216.56 
L 424.568125 216.56 
L 424.568125 216.56 
L 373.704375 216.56 
z
" clip-path="url(#p9ec6d6f4aa)" style="fill: #1f77b4"/>
   </g>
   <g id="patch_25">
    <path d="M 68.521875 216.56 
L 119.385625 216.56 
L 119.385625 211.879546 
L 68.521875 211.879546 
z
" clip-path="url(#p9ec6d6f4aa)" style="fill: #1f77b4"/>
   </g>
   <g id="patch_26">
    <path d="M 170.249375 216.56 
L 221.113125 216.56 
L 221.113125 216.03995 
L 170.249375 216.03995 
z
" clip-path="url(#p9ec6d6f4aa)" style="fill: #1f77b4"/>
   </g>
   <g id="patch_27">
    <path d="M 271.976875 216.56 
L 322.840625 216.56 
L 322.840625 216.38665 
L 271.976875 216.38665 
z
" clip-path="url(#p9ec6d6f4aa)" style="fill: #1f77b4"/>
   </g>
   <g id="patch_28">
    <path d="M 373.704375 216.56 
L 424.568125 216.56 
L 424.568125 216.38665 
L 373.704375 216.38665 
z
" clip-path="url(#p9ec6d6f4aa)" style="fill: #1f77b4"/>
   </g>
   <g id="patch_29">
    <path d="M 475.431875 216.56 
L 526.295625 216.56 
L 526.295625 215.346549 
L 475.431875 215.346549 
z
" clip-path="url(#p9ec6d6f4aa)" style="fill: #1f77b4"/>
   </g>
   <g id="patch_30">
    <path d="M 68.521875 216.56 
L 119.385625 216.56 
L 119.385625 216.2133 
L 68.521875 216.2133 
z
" clip-path="url(#p9ec6d6f4aa)" style="fill: #1f77b4"/>
   </g>
   <g id="patch_31">
    <path d="M 170.249375 216.56 
L 221.113125 216.56 
L 221.113125 216.2133 
L 170.249375 216.2133 
z
" clip-path="url(#p9ec6d6f4aa)" style="fill: #1f77b4"/>
   </g>
   <g id="patch_32">
    <path d="M 271.976875 216.56 
L 322.840625 216.56 
L 322.840625 216.2133 
L 271.976875 216.2133 
z
" clip-path="url(#p9ec6d6f4aa)" style="fill: #1f77b4"/>
   </g>
   <g id="patch_33">
    <path d="M 373.704375 216.56 
L 424.568125 216.56 
L 424.568125 216.2133 
L 373.704375 216.2133 
z
" clip-path="url(#p9ec6d6f4aa)" style="fill: #1f77b4"/>
   </g>
   <g id="patch_34">
    <path d="M 475.431875 216.56 
L 526.295625 216.56 
L 526.295625 216.2133 
L 475.431875 216.2133 
z
" clip-path="url(#p9ec6d6f4aa)" style="fill: #1f77b4"/>
   </g>
   <g id="patch_35">
    <path d="M 68.521875 216.56 
L 119.385625 216.56 
L 119.385625 216.03995 
L 68.521875 216.03995 
z
" clip-path="url(#p9ec6d6f4aa)" style="fill: #1f77b4"/>
   </g>
   <g id="patch_36">
    <path d="M 170.249375 216.56 
L 221.113125 216.56 
L 221.113125 216.126625 
L 170.249375 216.126625 
z
" clip-path="url(#p9ec6d6f4aa)" style="fill: #1f77b4"/>
   </g>
   <g id="patch_37">
    <path d="M 271.976875 216.56 
L 322.840625 216.56 
L 322.840625 216.38665 
L 271.976875 216.38665 
z
" clip-path="url(#p9ec6d6f4aa)" style="fill: #1f77b4"/>
   </g>
   <g id="patch_38">
    <path d="M 373.704375 216.56 
L 424.568125 216.56 
L 424.568125 216.473325 
L 373.704375 216.473325 
z
" clip-path="url(#p9ec6d6f4aa)" style="fill: #1f77b4"/>
   </g>
   <g id="patch_39">
    <path d="M 475.431875 216.56 
L 526.295625 216.56 
L 526.295625 216.473325 
L 475.431875 216.473325 
z
" clip-path="url(#p9ec6d6f4aa)" style="fill: #1f77b4"/>
   </g>
   <g id="patch_40">
    <path d="M 68.521875 216.56 
L 119.385625 216.56 
L 119.385625 216.03995 
L 68.521875 216.03995 
z
" clip-path="url(#p9ec6d6f4aa)" style="fill: #1f77b4"/>
   </g>
   <g id="patch_41">
    <path d="M 170.249375 216.56 
L 221.113125 216.56 
L 221.113125 216.56 
L 170.249375 216.56 
z
" clip-path="url(#p9ec6d6f4aa)" style="fill: #1f77b4"/>
   </g>
   <g id="patch_42">
    <path d="M 271.976875 216.56 
L 322.840625 216.56 
L 322.840625 216.56 
L 271.976875 216.56 
z
" clip-path="url(#p9ec6d6f4aa)" style="fill: #1f77b4"/>
   </g>
   <g id="patch_43">
    <path d="M 68.521875 216.56 
L 119.385625 216.56 
L 119.385625 216.03995 
L 68.521875 216.03995 
z
" clip-path="url(#p9ec6d6f4aa)" style="fill: #1f77b4"/>
   </g>
   <g id="patch_44">
    <path d="M 170.249375 216.56 
L 221.113125 216.56 
L 221.113125 216.38665 
L 170.249375 216.38665 
z
" clip-path="url(#p9ec6d6f4aa)" style="fill: #1f77b4"/>
   </g>
   <g id="patch_45">
    <path d="M 68.521875 216.56 
L 119.385625 216.56 
L 119.385625 25.420823 
L 68.521875 25.420823 
z
" clip-path="url(#p9ec6d6f4aa)" style="fill: #1f77b4"/>
   </g>
   <g id="patch_46">
    <path d="M 170.249375 216.56 
L 221.113125 216.56 
L 221.113125 79.219438 
L 170.249375 79.219438 
z
" clip-path="url(#p9ec6d6f4aa)" style="fill: #1f77b4"/>
   </g>
   <g id="patch_47">
    <path d="M 271.976875 216.56 
L 322.840625 216.56 
L 322.840625 97.188291 
L 271.976875 97.188291 
z
" clip-path="url(#p9ec6d6f4aa)" style="fill: #1f77b4"/>
   </g>
   <g id="patch_48">
    <path d="M 373.704375 216.56 
L 424.568125 216.56 
L 424.568125 79.696473 
L 373.704375 79.696473 
z
" clip-path="url(#p9ec6d6f4aa)" style="fill: #1f77b4"/>
   </g>
   <g id="patch_49">
    <path d="M 475.431875 216.56 
L 526.295625 216.56 
L 526.295625 115.898233 
L 475.431875 115.898233 
z
" clip-path="url(#p9ec6d6f4aa)" style="fill: #1f77b4"/>
   </g>
   <g id="patch_50">
    <path d="M 68.521875 216.56 
L 119.385625 216.56 
L 119.385625 216.56 
L 68.521875 216.56 
z
" clip-path="url(#p9ec6d6f4aa)" style="fill: #1f77b4"/>
   </g>
   <g id="patch_51">
    <path d="M 170.249375 216.56 
L 221.113125 216.56 
L 221.113125 216.56 
L 170.249375 216.56 
z
" clip-path="url(#p9ec6d6f4aa)" style="fill: #1f77b4"/>
   </g>
   <g id="patch_52">
    <path d="M 271.976875 216.56 
L 322.840625 216.56 
L 322.840625 216.56 
L 271.976875 216.56 
z
" clip-path="url(#p9ec6d6f4aa)" style="fill: #1f77b4"/>
   </g>
   <g id="patch_53">
    <path d="M 373.704375 216.56 
L 424.568125 216.56 
L 424.568125 216.56 
L 373.704375 216.56 
z
" clip-path="url(#p9ec6d6f4aa)" style="fill: #1f77b4"/>
   </g>
   <g id="patch_54">
    <path d="M 475.431875 216.56 
L 526.295625 216.56 
L 526.295625 216.56 
L 475.431875 216.56 
z
" clip-path="url(#p9ec6d6f4aa)" style="fill: #1f77b4"/>
   </g>
   <g id="patch_55">
    <path d="M 68.521875 216.56 
L 119.385625 216.56 
L 119.385625 216.38665 
L 68.521875 216.38665 
z
" clip-path="url(#p9ec6d6f4aa)" style="fill: #1f77b4"/>
   </g>
   <g id="patch_56">
    <path d="M 170.249375 216.56 
L 221.113125 216.56 
L 221.113125 216.56 
L 170.249375 216.56 
z
" clip-path="url(#p9ec6d6f4aa)" style="fill: #1f77b4"/>
   </g>
   <g id="patch_57">
    <path d="M 271.976875 216.56 
L 322.840625 216.56 
L 322.840625 216.56 
L 271.976875 216.56 
z
" clip-path="url(#p9ec6d6f4aa)" style="fill: #1f77b4"/>
   </g>
   <g id="patch_58">
    <path d="M 373.704375 216.56 
L 424.568125 216.56 
L 424.568125 216.56 
L 373.704375 216.56 
z
" clip-path="url(#p9ec6d6f4aa)" style="fill: #1f77b4"/>
   </g>
   <g id="patch_59">
    <path d="M 475.431875 216.56 
L 526.295625 216.56 
L 526.295625 216.56 
L 475.431875 216.56 
z
" clip-path="url(#p9ec6d6f4aa)" style="fill: #1f77b4"/>
   </g>
   <g id="patch_60">
    <path d="M 68.521875 216.56 
L 119.385625 216.56 
L 119.385625 215.606574 
L 68.521875 215.606574 
z
" clip-path="url(#p9ec6d6f4aa)" style="fill: #1f77b4"/>
   </g>
   <g id="patch_61">
    <path d="M 170.249375 216.56 
L 221.113125 216.56 
L 221.113125 216.03995 
L 170.249375 216.03995 
z
" clip-path="url(#p9ec6d6f4aa)" style="fill: #1f77b4"/>
   </g>
   <g id="patch_62">
    <path d="M 271.976875 216.56 
L 322.840625 216.56 
L 322.840625 216.473325 
L 271.976875 216.473325 
z
" clip-path="url(#p9ec6d6f4aa)" style="fill: #1f77b4"/>
   </g>
   <g id="patch_63">
    <path d="M 373.704375 216.56 
L 424.568125 216.56 
L 424.568125 216.56 
L 373.704375 216.56 
z
" clip-path="url(#p9ec6d6f4aa)" style="fill: #1f77b4"/>
   </g>
   <g id="patch_64">
    <path d="M 475.431875 216.56 
L 526.295625 216.56 
L 526.295625 216.56 
L 475.431875 216.56 
z
" clip-path="url(#p9ec6d6f4aa)" style="fill: #1f77b4"/>
   </g>
   <g id="patch_65">
    <path d="M 68.521875 216.56 
L 119.385625 216.56 
L 119.385625 197.404809 
L 68.521875 197.404809 
z
" clip-path="url(#p9ec6d6f4aa)" style="fill: #1f77b4"/>
   </g>
   <g id="patch_66">
    <path d="M 170.249375 216.56 
L 221.113125 216.56 
L 221.113125 214.826499 
L 170.249375 214.826499 
z
" clip-path="url(#p9ec6d6f4aa)" style="fill: #1f77b4"/>
   </g>
   <g id="patch_67">
    <path d="M 271.976875 216.56 
L 322.840625 216.56 
L 322.840625 206.101208 
L 271.976875 206.101208 
z
" clip-path="url(#p9ec6d6f4aa)" style="fill: #1f77b4"/>
   </g>
   <g id="patch_68">
    <path d="M 373.704375 216.56 
L 424.568125 216.56 
L 424.568125 203.385389 
L 373.704375 203.385389 
z
" clip-path="url(#p9ec6d6f4aa)" style="fill: #1f77b4"/>
   </g>
   <g id="patch_69">
    <path d="M 475.431875 216.56 
L 526.295625 216.56 
L 526.295625 205.898966 
L 475.431875 205.898966 
z
" clip-path="url(#p9ec6d6f4aa)" style="fill: #1f77b4"/>
   </g>
   <g id="patch_70">
    <path d="M 68.521875 216.56 
L 119.385625 216.56 
L 119.385625 158.870879 
L 68.521875 158.870879 
z
" clip-path="url(#p9ec6d6f4aa)" style="fill: #1f77b4"/>
   </g>
   <g id="patch_71">
    <path d="M 170.249375 216.56 
L 221.113125 216.56 
L 221.113125 167.149313 
L 170.249375 167.149313 
z
" clip-path="url(#p9ec6d6f4aa)" style="fill: #1f77b4"/>
   </g>
   <g id="patch_72">
    <path d="M 271.976875 216.56 
L 322.840625 216.56 
L 322.840625 96.565409 
L 271.976875 96.565409 
z
" clip-path="url(#p9ec6d6f4aa)" style="fill: #1f77b4"/>
   </g>
   <g id="patch_73">
    <path d="M 373.704375 216.56 
L 424.568125 216.56 
L 424.568125 144.200765 
L 373.704375 144.200765 
z
" clip-path="url(#p9ec6d6f4aa)" style="fill: #1f77b4"/>
   </g>
   <g id="patch_74">
    <path d="M 475.431875 216.56 
L 526.295625 216.56 
L 526.295625 95.775364 
L 475.431875 95.775364 
z
" clip-path="url(#p9ec6d6f4aa)" style="fill: #1f77b4"/>
   </g>
   <g id="patch_75">
    <path d="M 68.521875 216.56 
L 119.385625 216.56 
L 119.385625 216.56 
L 68.521875 216.56 
z
" clip-path="url(#p9ec6d6f4aa)" style="fill: #1f77b4"/>
   </g>
   <g id="patch_76">
    <path d="M 170.249375 216.56 
L 221.113125 216.56 
L 221.113125 216.56 
L 170.249375 216.56 
z
" clip-path="url(#p9ec6d6f4aa)" style="fill: #1f77b4"/>
   </g>
   <g id="patch_77">
    <path d="M 68.521875 216.56 
L 119.385625 216.56 
L 119.385625 214.393123 
L 68.521875 214.393123 
z
" clip-path="url(#p9ec6d6f4aa)" style="fill: #1f77b4"/>
   </g>
   <g id="patch_78">
    <path d="M 170.249375 216.56 
L 221.113125 216.56 
L 221.113125 214.826499 
L 170.249375 214.826499 
z
" clip-path="url(#p9ec6d6f4aa)" style="fill: #1f77b4"/>
   </g>
   <g id="patch_79">
    <path d="M 271.976875 216.56 
L 322.840625 216.56 
L 322.840625 215.519899 
L 271.976875 215.519899 
z
" clip-path="url(#p9ec6d6f4aa)" style="fill: #1f77b4"/>
   </g>
   <g id="patch_80">
    <path d="M 373.704375 216.56 
L 424.568125 216.56 
L 424.568125 216.38665 
L 373.704375 216.38665 
z
" clip-path="url(#p9ec6d6f4aa)" style="fill: #1f77b4"/>
   </g>
   <g id="patch_81">
    <path d="M 475.431875 216.56 
L 526.295625 216.56 
L 526.295625 216.2133 
L 475.431875 216.2133 
z
" clip-path="url(#p9ec6d6f4aa)" style="fill: #1f77b4"/>
   </g>
   <g id="patch_82">
    <path d="M 68.521875 216.56 
L 119.385625 216.56 
L 119.385625 216.03995 
L 68.521875 216.03995 
z
" clip-path="url(#p9ec6d6f4aa)" style="fill: #1f77b4"/>
   </g>
   <g id="patch_83">
    <path d="M 170.249375 216.56 
L 221.113125 216.56 
L 221.113125 216.03995 
L 170.249375 216.03995 
z
" clip-path="url(#p9ec6d6f4aa)" style="fill: #1f77b4"/>
   </g>
   <g id="patch_84">
    <path d="M 271.976875 216.56 
L 322.840625 216.56 
L 322.840625 216.38665 
L 271.976875 216.38665 
z
" clip-path="url(#p9ec6d6f4aa)" style="fill: #1f77b4"/>
   </g>
   <g id="patch_85">
    <path d="M 373.704375 216.56 
L 424.568125 216.56 
L 424.568125 216.56 
L 373.704375 216.56 
z
" clip-path="url(#p9ec6d6f4aa)" style="fill: #1f77b4"/>
   </g>
   <g id="patch_86">
    <path d="M 475.431875 216.56 
L 526.295625 216.56 
L 526.295625 216.56 
L 475.431875 216.56 
z
" clip-path="url(#p9ec6d6f4aa)" style="fill: #1f77b4"/>
   </g>
   <g id="patch_87">
    <path d="M 68.521875 216.56 
L 119.385625 216.56 
L 119.385625 212.919647 
L 68.521875 212.919647 
z
" clip-path="url(#p9ec6d6f4aa)" style="fill: #1f77b4"/>
   </g>
   <g id="patch_88">
    <path d="M 170.249375 216.56 
L 221.113125 216.56 
L 221.113125 216.473325 
L 170.249375 216.473325 
z
" clip-path="url(#p9ec6d6f4aa)" style="fill: #1f77b4"/>
   </g>
   <g id="patch_89">
    <path d="M 271.976875 216.56 
L 322.840625 216.56 
L 322.840625 216.473325 
L 271.976875 216.473325 
z
" clip-path="url(#p9ec6d6f4aa)" style="fill: #1f77b4"/>
   </g>
   <g id="patch_90">
    <path d="M 373.704375 216.56 
L 424.568125 216.56 
L 424.568125 216.473325 
L 373.704375 216.473325 
z
" clip-path="url(#p9ec6d6f4aa)" style="fill: #1f77b4"/>
   </g>
   <g id="patch_91">
    <path d="M 475.431875 216.56 
L 526.295625 216.56 
L 526.295625 216.473325 
L 475.431875 216.473325 
z
" clip-path="url(#p9ec6d6f4aa)" style="fill: #1f77b4"/>
   </g>
   <g id="patch_92">
    <path d="M 68.521875 216.56 
L 119.385625 216.56 
L 119.385625 216.56 
L 68.521875 216.56 
z
" clip-path="url(#p9ec6d6f4aa)" style="fill: #1f77b4"/>
   </g>
   <g id="patch_93">
    <path d="M 68.521875 216.56 
L 119.385625 216.56 
L 119.385625 215.693249 
L 68.521875 215.693249 
z
" clip-path="url(#p9ec6d6f4aa)" style="fill: #1f77b4"/>
   </g>
   <g id="patch_94">
    <path d="M 170.249375 216.56 
L 221.113125 216.56 
L 221.113125 215.693249 
L 170.249375 215.693249 
z
" clip-path="url(#p9ec6d6f4aa)" style="fill: #1f77b4"/>
   </g>
   <g id="patch_95">
    <path d="M 271.976875 216.56 
L 322.840625 216.56 
L 322.840625 216.38665 
L 271.976875 216.38665 
z
" clip-path="url(#p9ec6d6f4aa)" style="fill: #1f77b4"/>
   </g>
   <g id="patch_96">
    <path d="M 68.521875 216.56 
L 119.385625 216.56 
L 119.385625 212.919647 
L 68.521875 212.919647 
z
" clip-path="url(#p9ec6d6f4aa)" style="fill: #1f77b4"/>
   </g>
   <g id="patch_97">
    <path d="M 170.249375 216.56 
L 221.113125 216.56 
L 221.113125 216.38665 
L 170.249375 216.38665 
z
" clip-path="url(#p9ec6d6f4aa)" style="fill: #1f77b4"/>
   </g>
   <g id="patch_98">
    <path d="M 271.976875 216.56 
L 322.840625 216.56 
L 322.840625 216.38665 
L 271.976875 216.38665 
z
" clip-path="url(#p9ec6d6f4aa)" style="fill: #1f77b4"/>
   </g>
   <g id="patch_99">
    <path d="M 373.704375 216.56 
L 424.568125 216.56 
L 424.568125 216.56 
L 373.704375 216.56 
z
" clip-path="url(#p9ec6d6f4aa)" style="fill: #1f77b4"/>
   </g>
   <g id="patch_100">
    <path d="M 475.431875 216.56 
L 526.295625 216.56 
L 526.295625 216.56 
L 475.431875 216.56 
z
" clip-path="url(#p9ec6d6f4aa)" style="fill: #1f77b4"/>
   </g>
   <g id="patch_101">
    <path d="M 68.521875 216.56 
L 119.385625 216.56 
L 119.385625 216.56 
L 68.521875 216.56 
z
" clip-path="url(#p9ec6d6f4aa)" style="fill: #1f77b4"/>
   </g>
   <g id="patch_102">
    <path d="M 68.521875 216.56 
L 119.385625 216.56 
L 119.385625 20.598095 
L 68.521875 20.598095 
z
" clip-path="url(#p9ec6d6f4aa)" style="fill: #1f77b4"/>
   </g>
   <g id="patch_103">
    <path d="M 170.249375 216.56 
L 221.113125 216.56 
L 221.113125 63.716413 
L 170.249375 63.716413 
z
" clip-path="url(#p9ec6d6f4aa)" style="fill: #1f77b4"/>
   </g>
   <g id="patch_104">
    <path d="M 271.976875 216.56 
L 322.840625 216.56 
L 322.840625 92.877512 
L 271.976875 92.877512 
z
" clip-path="url(#p9ec6d6f4aa)" style="fill: #1f77b4"/>
   </g>
   <g id="patch_105">
    <path d="M 373.704375 216.56 
L 424.568125 216.56 
L 424.568125 115.35114 
L 373.704375 115.35114 
z
" clip-path="url(#p9ec6d6f4aa)" style="fill: #1f77b4"/>
   </g>
   <g id="patch_106">
    <path d="M 475.431875 216.56 
L 526.295625 216.56 
L 526.295625 131.381917 
L 475.431875 131.381917 
z
" clip-path="url(#p9ec6d6f4aa)" style="fill: #1f77b4"/>
   </g>
   <g id="patch_107">
    <path d="M 68.521875 216.56 
L 119.385625 216.56 
L 119.385625 215.693249 
L 68.521875 215.693249 
z
" clip-path="url(#p9ec6d6f4aa)" style="fill: #1f77b4"/>
   </g>
   <g id="patch_108">
    <path d="M 170.249375 216.56 
L 221.113125 216.56 
L 221.113125 215.693249 
L 170.249375 215.693249 
z
" clip-path="url(#p9ec6d6f4aa)" style="fill: #1f77b4"/>
   </g>
   <g id="patch_109">
    <path d="M 271.976875 216.56 
L 322.840625 216.56 
L 322.840625 215.693249 
L 271.976875 215.693249 
z
" clip-path="url(#p9ec6d6f4aa)" style="fill: #1f77b4"/>
   </g>
   <g id="patch_110">
    <path d="M 373.704375 216.56 
L 424.568125 216.56 
L 424.568125 216.473325 
L 373.704375 216.473325 
z
" clip-path="url(#p9ec6d6f4aa)" style="fill: #1f77b4"/>
   </g>
   <g id="patch_111">
    <path d="M 475.431875 216.56 
L 526.295625 216.56 
L 526.295625 216.473325 
L 475.431875 216.473325 
z
" clip-path="url(#p9ec6d6f4aa)" style="fill: #1f77b4"/>
   </g>
   <g id="patch_112">
    <path d="M 68.521875 216.56 
L 119.385625 216.56 
L 119.385625 114.205878 
L 68.521875 114.205878 
z
" clip-path="url(#p9ec6d6f4aa)" style="fill: #1f77b4"/>
   </g>
   <g id="patch_113">
    <path d="M 170.249375 216.56 
L 221.113125 216.56 
L 221.113125 114.405411 
L 170.249375 114.405411 
z
" clip-path="url(#p9ec6d6f4aa)" style="fill: #1f77b4"/>
   </g>
   <g id="patch_114">
    <path d="M 271.976875 216.56 
L 322.840625 216.56 
L 322.840625 149.307721 
L 271.976875 149.307721 
z
" clip-path="url(#p9ec6d6f4aa)" style="fill: #1f77b4"/>
   </g>
   <g id="patch_115">
    <path d="M 373.704375 216.56 
L 424.568125 216.56 
L 424.568125 146.283732 
L 373.704375 146.283732 
z
" clip-path="url(#p9ec6d6f4aa)" style="fill: #1f77b4"/>
   </g>
   <g id="patch_116">
    <path d="M 475.431875 216.56 
L 526.295625 216.56 
L 526.295625 113.472411 
L 475.431875 113.472411 
z
" clip-path="url(#p9ec6d6f4aa)" style="fill: #1f77b4"/>
   </g>
   <g id="patch_117">
    <path d="M 68.521875 216.56 
L 119.385625 216.56 
L 119.385625 215.519899 
L 68.521875 215.519899 
z
" clip-path="url(#p9ec6d6f4aa)" style="fill: #1f77b4"/>
   </g>
   <g id="patch_118">
    <path d="M 170.249375 216.56 
L 221.113125 216.56 
L 221.113125 215.693249 
L 170.249375 215.693249 
z
" clip-path="url(#p9ec6d6f4aa)" style="fill: #1f77b4"/>
   </g>
   <g id="patch_119">
    <path d="M 271.976875 216.56 
L 322.840625 216.56 
L 322.840625 216.03995 
L 271.976875 216.03995 
z
" clip-path="url(#p9ec6d6f4aa)" style="fill: #1f77b4"/>
   </g>
   <g id="patch_120">
    <path d="M 373.704375 216.56 
L 424.568125 216.56 
L 424.568125 216.2133 
L 373.704375 216.2133 
z
" clip-path="url(#p9ec6d6f4aa)" style="fill: #1f77b4"/>
   </g>
   <g id="patch_121">
    <path d="M 475.431875 216.56 
L 526.295625 216.56 
L 526.295625 216.473325 
L 475.431875 216.473325 
z
" clip-path="url(#p9ec6d6f4aa)" style="fill: #1f77b4"/>
   </g>
   <g id="patch_122">
    <path d="M 68.521875 216.56 
L 119.385625 216.56 
L 119.385625 216.03995 
L 68.521875 216.03995 
z
" clip-path="url(#p9ec6d6f4aa)" style="fill: #1f77b4"/>
   </g>
   <g id="patch_123">
    <path d="M 170.249375 216.56 
L 221.113125 216.56 
L 221.113125 216.473325 
L 170.249375 216.473325 
z
" clip-path="url(#p9ec6d6f4aa)" style="fill: #1f77b4"/>
   </g>
   <g id="patch_124">
    <path d="M 271.976875 216.56 
L 322.840625 216.56 
L 322.840625 216.473325 
L 271.976875 216.473325 
z
" clip-path="url(#p9ec6d6f4aa)" style="fill: #1f77b4"/>
   </g>
   <g id="patch_125">
    <path d="M 373.704375 216.56 
L 424.568125 216.56 
L 424.568125 216.38665 
L 373.704375 216.38665 
z
" clip-path="url(#p9ec6d6f4aa)" style="fill: #1f77b4"/>
   </g>
   <g id="patch_126">
    <path d="M 475.431875 216.56 
L 526.295625 216.56 
L 526.295625 216.56 
L 475.431875 216.56 
z
" clip-path="url(#p9ec6d6f4aa)" style="fill: #1f77b4"/>
   </g>
   <g id="patch_127">
    <path d="M 68.521875 216.56 
L 119.385625 216.56 
L 119.385625 216.03995 
L 68.521875 216.03995 
z
" clip-path="url(#p9ec6d6f4aa)" style="fill: #1f77b4"/>
   </g>
   <g id="patch_128">
    <path d="M 170.249375 216.56 
L 221.113125 216.56 
L 221.113125 216.38665 
L 170.249375 216.38665 
z
" clip-path="url(#p9ec6d6f4aa)" style="fill: #1f77b4"/>
   </g>
   <g id="patch_129">
    <path d="M 271.976875 216.56 
L 322.840625 216.56 
L 322.840625 216.56 
L 271.976875 216.56 
z
" clip-path="url(#p9ec6d6f4aa)" style="fill: #1f77b4"/>
   </g>
   <g id="patch_130">
    <path d="M 373.704375 216.56 
L 424.568125 216.56 
L 424.568125 216.56 
L 373.704375 216.56 
z
" clip-path="url(#p9ec6d6f4aa)" style="fill: #1f77b4"/>
   </g>
   <g id="patch_131">
    <path d="M 475.431875 216.56 
L 526.295625 216.56 
L 526.295625 216.56 
L 475.431875 216.56 
z
" clip-path="url(#p9ec6d6f4aa)" style="fill: #1f77b4"/>
   </g>
   <g id="patch_132">
    <path d="M 68.521875 216.56 
L 119.385625 216.56 
L 119.385625 211.986445 
L 68.521875 211.986445 
z
" clip-path="url(#p9ec6d6f4aa)" style="fill: #1f77b4"/>
   </g>
   <g id="patch_133">
    <path d="M 170.249375 216.56 
L 221.113125 216.56 
L 221.113125 215.519899 
L 170.249375 215.519899 
z
" clip-path="url(#p9ec6d6f4aa)" style="fill: #1f77b4"/>
   </g>
   <g id="patch_134">
    <path d="M 271.976875 216.56 
L 322.840625 216.56 
L 322.840625 214.09265 
L 271.976875 214.09265 
z
" clip-path="url(#p9ec6d6f4aa)" style="fill: #1f77b4"/>
   </g>
   <g id="patch_135">
    <path d="M 373.704375 216.56 
L 424.568125 216.56 
L 424.568125 214.09265 
L 373.704375 214.09265 
z
" clip-path="url(#p9ec6d6f4aa)" style="fill: #1f77b4"/>
   </g>
   <g id="patch_136">
    <path d="M 475.431875 216.56 
L 526.295625 216.56 
L 526.295625 214.09265 
L 475.431875 214.09265 
z
" clip-path="url(#p9ec6d6f4aa)" style="fill: #1f77b4"/>
   </g>
   <g id="patch_137">
    <path d="M 68.521875 216.56 
L 119.385625 216.56 
L 119.385625 181.195607 
L 68.521875 181.195607 
z
" clip-path="url(#p9ec6d6f4aa)" style="fill: #1f77b4"/>
   </g>
   <g id="patch_138">
    <path d="M 170.249375 216.56 
L 221.113125 216.56 
L 221.113125 187.83877 
L 170.249375 187.83877 
z
" clip-path="url(#p9ec6d6f4aa)" style="fill: #1f77b4"/>
   </g>
   <g id="patch_139">
    <path d="M 271.976875 216.56 
L 322.840625 216.56 
L 322.840625 211.677304 
L 271.976875 211.677304 
z
" clip-path="url(#p9ec6d6f4aa)" style="fill: #1f77b4"/>
   </g>
   <g id="patch_140">
    <path d="M 373.704375 216.56 
L 424.568125 216.56 
L 424.568125 215.909937 
L 373.704375 215.909937 
z
" clip-path="url(#p9ec6d6f4aa)" style="fill: #1f77b4"/>
   </g>
   <g id="patch_141">
    <path d="M 475.431875 216.56 
L 526.295625 216.56 
L 526.295625 215.909937 
L 475.431875 215.909937 
z
" clip-path="url(#p9ec6d6f4aa)" style="fill: #1f77b4"/>
   </g>
   <g id="patch_142">
    <path d="M 68.521875 216.56 
L 119.385625 216.56 
L 119.385625 212.702959 
L 68.521875 212.702959 
z
" clip-path="url(#p9ec6d6f4aa)" style="fill: #1f77b4"/>
   </g>
   <g id="patch_143">
    <path d="M 170.249375 216.56 
L 221.113125 216.56 
L 221.113125 214.046423 
L 170.249375 214.046423 
z
" clip-path="url(#p9ec6d6f4aa)" style="fill: #1f77b4"/>
   </g>
   <g id="patch_144">
    <path d="M 271.976875 216.56 
L 322.840625 216.56 
L 322.840625 216.03995 
L 271.976875 216.03995 
z
" clip-path="url(#p9ec6d6f4aa)" style="fill: #1f77b4"/>
   </g>
   <g id="patch_145">
    <path d="M 373.704375 216.56 
L 424.568125 216.56 
L 424.568125 216.17863 
L 373.704375 216.17863 
z
" clip-path="url(#p9ec6d6f4aa)" style="fill: #1f77b4"/>
   </g>
   <g id="patch_146">
    <path d="M 475.431875 216.56 
L 526.295625 216.56 
L 526.295625 215.693249 
L 475.431875 215.693249 
z
" clip-path="url(#p9ec6d6f4aa)" style="fill: #1f77b4"/>
   </g>
   <g id="patch_147">
    <path d="M 68.521875 216.56 
L 119.385625 216.56 
L 119.385625 216.194039 
L 68.521875 216.194039 
z
" clip-path="url(#p9ec6d6f4aa)" style="fill: #1f77b4"/>
   </g>
   <g id="patch_148">
    <path d="M 170.249375 216.56 
L 221.113125 216.56 
L 221.113125 216.473325 
L 170.249375 216.473325 
z
" clip-path="url(#p9ec6d6f4aa)" style="fill: #1f77b4"/>
   </g>
   <g id="patch_149">
    <path d="M 271.976875 216.56 
L 322.840625 216.56 
L 322.840625 216.473325 
L 271.976875 216.473325 
z
" clip-path="url(#p9ec6d6f4aa)" style="fill: #1f77b4"/>
   </g>
   <g id="patch_150">
    <path d="M 373.704375 216.56 
L 424.568125 216.56 
L 424.568125 216.540739 
L 373.704375 216.540739 
z
" clip-path="url(#p9ec6d6f4aa)" style="fill: #1f77b4"/>
   </g>
   <g id="patch_151">
    <path d="M 475.431875 216.56 
L 526.295625 216.56 
L 526.295625 216.540739 
L 475.431875 216.540739 
z
" clip-path="url(#p9ec6d6f4aa)" style="fill: #1f77b4"/>
   </g>
   <g id="patch_152">
    <path d="M 68.521875 216.56 
L 119.385625 216.56 
L 119.385625 215.808816 
L 68.521875 215.808816 
z
" clip-path="url(#p9ec6d6f4aa)" style="fill: #1f77b4"/>
   </g>
   <g id="patch_153">
    <path d="M 170.249375 216.56 
L 221.113125 216.56 
L 221.113125 216.155516 
L 170.249375 216.155516 
z
" clip-path="url(#p9ec6d6f4aa)" style="fill: #1f77b4"/>
   </g>
   <g id="patch_154">
    <path d="M 271.976875 216.56 
L 322.840625 216.56 
L 322.840625 216.03995 
L 271.976875 216.03995 
z
" clip-path="url(#p9ec6d6f4aa)" style="fill: #1f77b4"/>
   </g>
   <g id="patch_155">
    <path d="M 373.704375 216.56 
L 424.568125 216.56 
L 424.568125 215.866599 
L 373.704375 215.866599 
z
" clip-path="url(#p9ec6d6f4aa)" style="fill: #1f77b4"/>
   </g>
   <g id="patch_156">
    <path d="M 475.431875 216.56 
L 526.295625 216.56 
L 526.295625 216.38665 
L 475.431875 216.38665 
z
" clip-path="url(#p9ec6d6f4aa)" style="fill: #1f77b4"/>
   </g>
   <g id="patch_157">
    <path d="M 68.521875 216.56 
L 119.385625 216.56 
L 119.385625 216.56 
L 68.521875 216.56 
z
" clip-path="url(#p9ec6d6f4aa)" style="fill: #1f77b4"/>
   </g>
   <g id="patch_158">
    <path d="M 170.249375 216.56 
L 221.113125 216.56 
L 221.113125 216.56 
L 170.249375 216.56 
z
" clip-path="url(#p9ec6d6f4aa)" style="fill: #1f77b4"/>
   </g>
   <g id="patch_159">
    <path d="M 271.976875 216.56 
L 322.840625 216.56 
L 322.840625 216.56 
L 271.976875 216.56 
z
" clip-path="url(#p9ec6d6f4aa)" style="fill: #1f77b4"/>
   </g>
   <g id="patch_160">
    <path d="M 373.704375 216.56 
L 424.568125 216.56 
L 424.568125 216.56 
L 373.704375 216.56 
z
" clip-path="url(#p9ec6d6f4aa)" style="fill: #1f77b4"/>
   </g>
   <g id="patch_161">
    <path d="M 68.521875 216.56 
L 119.385625 216.56 
L 119.385625 216.56 
L 68.521875 216.56 
z
" clip-path="url(#p9ec6d6f4aa)" style="fill: #1f77b4"/>
   </g>
   <g id="patch_162">
    <path d="M 170.249375 216.56 
L 221.113125 216.56 
L 221.113125 216.56 
L 170.249375 216.56 
z
" clip-path="url(#p9ec6d6f4aa)" style="fill: #1f77b4"/>
   </g>
   <g id="patch_163">
    <path d="M 271.976875 216.56 
L 322.840625 216.56 
L 322.840625 216.56 
L 271.976875 216.56 
z
" clip-path="url(#p9ec6d6f4aa)" style="fill: #1f77b4"/>
   </g>
   <g id="patch_164">
    <path d="M 68.521875 216.56 
L 119.385625 216.56 
L 119.385625 216.56 
L 68.521875 216.56 
z
" clip-path="url(#p9ec6d6f4aa)" style="fill: #1f77b4"/>
   </g>
   <g id="patch_165">
    <path d="M 170.249375 216.56 
L 221.113125 216.56 
L 221.113125 216.56 
L 170.249375 216.56 
z
" clip-path="url(#p9ec6d6f4aa)" style="fill: #1f77b4"/>
   </g>
   <g id="patch_166">
    <path d="M 271.976875 216.56 
L 322.840625 216.56 
L 322.840625 216.56 
L 271.976875 216.56 
z
" clip-path="url(#p9ec6d6f4aa)" style="fill: #1f77b4"/>
   </g>
   <g id="patch_167">
    <path d="M 373.704375 216.56 
L 424.568125 216.56 
L 424.568125 216.56 
L 373.704375 216.56 
z
" clip-path="url(#p9ec6d6f4aa)" style="fill: #1f77b4"/>
   </g>
   <g id="matplotlib.axis_1">
    <g id="xtick_1">
     <g id="line2d_1">
      <defs>
       <path id="m6a1d045684" d="M 0 0 
L 0 3.5 
" style="stroke: #000000; stroke-width: 0.8"/>
      </defs>
      <g>
       <use xlink:href="#m6a1d045684" x="93.95375" y="216.56" style="stroke: #000000; stroke-width: 0.8"/>
      </g>
     </g>
     <g id="text_1">
      <!-- Laurence Fishburne -->
      <g transform="translate(96.713125 321.267812) rotate(-90) scale(0.1 -0.1)">
       <defs>
        <path id="DejaVuSans-4c" d="M 628 4666 
L 1259 4666 
L 1259 531 
L 3531 531 
L 3531 0 
L 628 0 
L 628 4666 
z
" transform="scale(0.015625)"/>
        <path id="DejaVuSans-61" d="M 2194 1759 
Q 1497 1759 1228 1600 
Q 959 1441 959 1056 
Q 959 750 1161 570 
Q 1363 391 1709 391 
Q 2188 391 2477 730 
Q 2766 1069 2766 1631 
L 2766 1759 
L 2194 1759 
z
M 3341 1997 
L 3341 0 
L 2766 0 
L 2766 531 
Q 2569 213 2275 61 
Q 1981 -91 1556 -91 
Q 1019 -91 701 211 
Q 384 513 384 1019 
Q 384 1609 779 1909 
Q 1175 2209 1959 2209 
L 2766 2209 
L 2766 2266 
Q 2766 2663 2505 2880 
Q 2244 3097 1772 3097 
Q 1472 3097 1187 3025 
Q 903 2953 641 2809 
L 641 3341 
Q 956 3463 1253 3523 
Q 1550 3584 1831 3584 
Q 2591 3584 2966 3190 
Q 3341 2797 3341 1997 
z
" transform="scale(0.015625)"/>
        <path id="DejaVuSans-75" d="M 544 1381 
L 544 3500 
L 1119 3500 
L 1119 1403 
Q 1119 906 1312 657 
Q 1506 409 1894 409 
Q 2359 409 2629 706 
Q 2900 1003 2900 1516 
L 2900 3500 
L 3475 3500 
L 3475 0 
L 2900 0 
L 2900 538 
Q 2691 219 2414 64 
Q 2138 -91 1772 -91 
Q 1169 -91 856 284 
Q 544 659 544 1381 
z
M 1991 3584 
L 1991 3584 
z
" transform="scale(0.015625)"/>
        <path id="DejaVuSans-72" d="M 2631 2963 
Q 2534 3019 2420 3045 
Q 2306 3072 2169 3072 
Q 1681 3072 1420 2755 
Q 1159 2438 1159 1844 
L 1159 0 
L 581 0 
L 581 3500 
L 1159 3500 
L 1159 2956 
Q 1341 3275 1631 3429 
Q 1922 3584 2338 3584 
Q 2397 3584 2469 3576 
Q 2541 3569 2628 3553 
L 2631 2963 
z
" transform="scale(0.015625)"/>
        <path id="DejaVuSans-65" d="M 3597 1894 
L 3597 1613 
L 953 1613 
Q 991 1019 1311 708 
Q 1631 397 2203 397 
Q 2534 397 2845 478 
Q 3156 559 3463 722 
L 3463 178 
Q 3153 47 2828 -22 
Q 2503 -91 2169 -91 
Q 1331 -91 842 396 
Q 353 884 353 1716 
Q 353 2575 817 3079 
Q 1281 3584 2069 3584 
Q 2775 3584 3186 3129 
Q 3597 2675 3597 1894 
z
M 3022 2063 
Q 3016 2534 2758 2815 
Q 2500 3097 2075 3097 
Q 1594 3097 1305 2825 
Q 1016 2553 972 2059 
L 3022 2063 
z
" transform="scale(0.015625)"/>
        <path id="DejaVuSans-6e" d="M 3513 2113 
L 3513 0 
L 2938 0 
L 2938 2094 
Q 2938 2591 2744 2837 
Q 2550 3084 2163 3084 
Q 1697 3084 1428 2787 
Q 1159 2491 1159 1978 
L 1159 0 
L 581 0 
L 581 3500 
L 1159 3500 
L 1159 2956 
Q 1366 3272 1645 3428 
Q 1925 3584 2291 3584 
Q 2894 3584 3203 3211 
Q 3513 2838 3513 2113 
z
" transform="scale(0.015625)"/>
        <path id="DejaVuSans-63" d="M 3122 3366 
L 3122 2828 
Q 2878 2963 2633 3030 
Q 2388 3097 2138 3097 
Q 1578 3097 1268 2742 
Q 959 2388 959 1747 
Q 959 1106 1268 751 
Q 1578 397 2138 397 
Q 2388 397 2633 464 
Q 2878 531 3122 666 
L 3122 134 
Q 2881 22 2623 -34 
Q 2366 -91 2075 -91 
Q 1284 -91 818 406 
Q 353 903 353 1747 
Q 353 2603 823 3093 
Q 1294 3584 2113 3584 
Q 2378 3584 2631 3529 
Q 2884 3475 3122 3366 
z
" transform="scale(0.015625)"/>
        <path id="DejaVuSans-20" transform="scale(0.015625)"/>
        <path id="DejaVuSans-46" d="M 628 4666 
L 3309 4666 
L 3309 4134 
L 1259 4134 
L 1259 2759 
L 3109 2759 
L 3109 2228 
L 1259 2228 
L 1259 0 
L 628 0 
L 628 4666 
z
" transform="scale(0.015625)"/>
        <path id="DejaVuSans-69" d="M 603 3500 
L 1178 3500 
L 1178 0 
L 603 0 
L 603 3500 
z
M 603 4863 
L 1178 4863 
L 1178 4134 
L 603 4134 
L 603 4863 
z
" transform="scale(0.015625)"/>
        <path id="DejaVuSans-73" d="M 2834 3397 
L 2834 2853 
Q 2591 2978 2328 3040 
Q 2066 3103 1784 3103 
Q 1356 3103 1142 2972 
Q 928 2841 928 2578 
Q 928 2378 1081 2264 
Q 1234 2150 1697 2047 
L 1894 2003 
Q 2506 1872 2764 1633 
Q 3022 1394 3022 966 
Q 3022 478 2636 193 
Q 2250 -91 1575 -91 
Q 1294 -91 989 -36 
Q 684 19 347 128 
L 347 722 
Q 666 556 975 473 
Q 1284 391 1588 391 
Q 1994 391 2212 530 
Q 2431 669 2431 922 
Q 2431 1156 2273 1281 
Q 2116 1406 1581 1522 
L 1381 1569 
Q 847 1681 609 1914 
Q 372 2147 372 2553 
Q 372 3047 722 3315 
Q 1072 3584 1716 3584 
Q 2034 3584 2315 3537 
Q 2597 3491 2834 3397 
z
" transform="scale(0.015625)"/>
        <path id="DejaVuSans-68" d="M 3513 2113 
L 3513 0 
L 2938 0 
L 2938 2094 
Q 2938 2591 2744 2837 
Q 2550 3084 2163 3084 
Q 1697 3084 1428 2787 
Q 1159 2491 1159 1978 
L 1159 0 
L 581 0 
L 581 4863 
L 1159 4863 
L 1159 2956 
Q 1366 3272 1645 3428 
Q 1925 3584 2291 3584 
Q 2894 3584 3203 3211 
Q 3513 2838 3513 2113 
z
" transform="scale(0.015625)"/>
        <path id="DejaVuSans-62" d="M 3116 1747 
Q 3116 2381 2855 2742 
Q 2594 3103 2138 3103 
Q 1681 3103 1420 2742 
Q 1159 2381 1159 1747 
Q 1159 1113 1420 752 
Q 1681 391 2138 391 
Q 2594 391 2855 752 
Q 3116 1113 3116 1747 
z
M 1159 2969 
Q 1341 3281 1617 3432 
Q 1894 3584 2278 3584 
Q 2916 3584 3314 3078 
Q 3713 2572 3713 1747 
Q 3713 922 3314 415 
Q 2916 -91 2278 -91 
Q 1894 -91 1617 61 
Q 1341 213 1159 525 
L 1159 0 
L 581 0 
L 581 4863 
L 1159 4863 
L 1159 2969 
z
" transform="scale(0.015625)"/>
       </defs>
       <use xlink:href="#DejaVuSans-4c"/>
       <use xlink:href="#DejaVuSans-61" x="55.712891"/>
       <use xlink:href="#DejaVuSans-75" x="116.992188"/>
       <use xlink:href="#DejaVuSans-72" x="180.371094"/>
       <use xlink:href="#DejaVuSans-65" x="219.234375"/>
       <use xlink:href="#DejaVuSans-6e" x="280.757812"/>
       <use xlink:href="#DejaVuSans-63" x="344.136719"/>
       <use xlink:href="#DejaVuSans-65" x="399.117188"/>
       <use xlink:href="#DejaVuSans-20" x="460.640625"/>
       <use xlink:href="#DejaVuSans-46" x="492.427734"/>
       <use xlink:href="#DejaVuSans-69" x="542.697266"/>
       <use xlink:href="#DejaVuSans-73" x="570.480469"/>
       <use xlink:href="#DejaVuSans-68" x="622.580078"/>
       <use xlink:href="#DejaVuSans-62" x="685.958984"/>
       <use xlink:href="#DejaVuSans-75" x="749.435547"/>
       <use xlink:href="#DejaVuSans-72" x="812.814453"/>
       <use xlink:href="#DejaVuSans-6e" x="852.177734"/>
       <use xlink:href="#DejaVuSans-65" x="915.556641"/>
      </g>
     </g>
    </g>
    <g id="xtick_2">
     <g id="line2d_2">
      <g>
       <use xlink:href="#m6a1d045684" x="195.68125" y="216.56" style="stroke: #000000; stroke-width: 0.8"/>
      </g>
     </g>
     <g id="text_2">
      <!-- John Lithgow -->
      <g transform="translate(198.440625 287.735) rotate(-90) scale(0.1 -0.1)">
       <defs>
        <path id="DejaVuSans-4a" d="M 628 4666 
L 1259 4666 
L 1259 325 
Q 1259 -519 939 -900 
Q 619 -1281 -91 -1281 
L -331 -1281 
L -331 -750 
L -134 -750 
Q 284 -750 456 -515 
Q 628 -281 628 325 
L 628 4666 
z
" transform="scale(0.015625)"/>
        <path id="DejaVuSans-6f" d="M 1959 3097 
Q 1497 3097 1228 2736 
Q 959 2375 959 1747 
Q 959 1119 1226 758 
Q 1494 397 1959 397 
Q 2419 397 2687 759 
Q 2956 1122 2956 1747 
Q 2956 2369 2687 2733 
Q 2419 3097 1959 3097 
z
M 1959 3584 
Q 2709 3584 3137 3096 
Q 3566 2609 3566 1747 
Q 3566 888 3137 398 
Q 2709 -91 1959 -91 
Q 1206 -91 779 398 
Q 353 888 353 1747 
Q 353 2609 779 3096 
Q 1206 3584 1959 3584 
z
" transform="scale(0.015625)"/>
        <path id="DejaVuSans-74" d="M 1172 4494 
L 1172 3500 
L 2356 3500 
L 2356 3053 
L 1172 3053 
L 1172 1153 
Q 1172 725 1289 603 
Q 1406 481 1766 481 
L 2356 481 
L 2356 0 
L 1766 0 
Q 1100 0 847 248 
Q 594 497 594 1153 
L 594 3053 
L 172 3053 
L 172 3500 
L 594 3500 
L 594 4494 
L 1172 4494 
z
" transform="scale(0.015625)"/>
        <path id="DejaVuSans-67" d="M 2906 1791 
Q 2906 2416 2648 2759 
Q 2391 3103 1925 3103 
Q 1463 3103 1205 2759 
Q 947 2416 947 1791 
Q 947 1169 1205 825 
Q 1463 481 1925 481 
Q 2391 481 2648 825 
Q 2906 1169 2906 1791 
z
M 3481 434 
Q 3481 -459 3084 -895 
Q 2688 -1331 1869 -1331 
Q 1566 -1331 1297 -1286 
Q 1028 -1241 775 -1147 
L 775 -588 
Q 1028 -725 1275 -790 
Q 1522 -856 1778 -856 
Q 2344 -856 2625 -561 
Q 2906 -266 2906 331 
L 2906 616 
Q 2728 306 2450 153 
Q 2172 0 1784 0 
Q 1141 0 747 490 
Q 353 981 353 1791 
Q 353 2603 747 3093 
Q 1141 3584 1784 3584 
Q 2172 3584 2450 3431 
Q 2728 3278 2906 2969 
L 2906 3500 
L 3481 3500 
L 3481 434 
z
" transform="scale(0.015625)"/>
        <path id="DejaVuSans-77" d="M 269 3500 
L 844 3500 
L 1563 769 
L 2278 3500 
L 2956 3500 
L 3675 769 
L 4391 3500 
L 4966 3500 
L 4050 0 
L 3372 0 
L 2619 2869 
L 1863 0 
L 1184 0 
L 269 3500 
z
" transform="scale(0.015625)"/>
       </defs>
       <use xlink:href="#DejaVuSans-4a"/>
       <use xlink:href="#DejaVuSans-6f" x="29.492188"/>
       <use xlink:href="#DejaVuSans-68" x="90.673828"/>
       <use xlink:href="#DejaVuSans-6e" x="154.052734"/>
       <use xlink:href="#DejaVuSans-20" x="217.431641"/>
       <use xlink:href="#DejaVuSans-4c" x="249.21875"/>
       <use xlink:href="#DejaVuSans-69" x="304.931641"/>
       <use xlink:href="#DejaVuSans-74" x="332.714844"/>
       <use xlink:href="#DejaVuSans-68" x="371.923828"/>
       <use xlink:href="#DejaVuSans-67" x="435.302734"/>
       <use xlink:href="#DejaVuSans-6f" x="498.779297"/>
       <use xlink:href="#DejaVuSans-77" x="559.960938"/>
      </g>
     </g>
    </g>
    <g id="xtick_3">
     <g id="line2d_3">
      <g>
       <use xlink:href="#m6a1d045684" x="297.40875" y="216.56" style="stroke: #000000; stroke-width: 0.8"/>
      </g>
     </g>
     <g id="text_3">
      <!-- Christopher McDonald -->
      <g transform="translate(300.168125 334.683437) rotate(-90) scale(0.1 -0.1)">
       <defs>
        <path id="DejaVuSans-43" d="M 4122 4306 
L 4122 3641 
Q 3803 3938 3442 4084 
Q 3081 4231 2675 4231 
Q 1875 4231 1450 3742 
Q 1025 3253 1025 2328 
Q 1025 1406 1450 917 
Q 1875 428 2675 428 
Q 3081 428 3442 575 
Q 3803 722 4122 1019 
L 4122 359 
Q 3791 134 3420 21 
Q 3050 -91 2638 -91 
Q 1578 -91 968 557 
Q 359 1206 359 2328 
Q 359 3453 968 4101 
Q 1578 4750 2638 4750 
Q 3056 4750 3426 4639 
Q 3797 4528 4122 4306 
z
" transform="scale(0.015625)"/>
        <path id="DejaVuSans-70" d="M 1159 525 
L 1159 -1331 
L 581 -1331 
L 581 3500 
L 1159 3500 
L 1159 2969 
Q 1341 3281 1617 3432 
Q 1894 3584 2278 3584 
Q 2916 3584 3314 3078 
Q 3713 2572 3713 1747 
Q 3713 922 3314 415 
Q 2916 -91 2278 -91 
Q 1894 -91 1617 61 
Q 1341 213 1159 525 
z
M 3116 1747 
Q 3116 2381 2855 2742 
Q 2594 3103 2138 3103 
Q 1681 3103 1420 2742 
Q 1159 2381 1159 1747 
Q 1159 1113 1420 752 
Q 1681 391 2138 391 
Q 2594 391 2855 752 
Q 3116 1113 3116 1747 
z
" transform="scale(0.015625)"/>
        <path id="DejaVuSans-4d" d="M 628 4666 
L 1569 4666 
L 2759 1491 
L 3956 4666 
L 4897 4666 
L 4897 0 
L 4281 0 
L 4281 4097 
L 3078 897 
L 2444 897 
L 1241 4097 
L 1241 0 
L 628 0 
L 628 4666 
z
" transform="scale(0.015625)"/>
        <path id="DejaVuSans-44" d="M 1259 4147 
L 1259 519 
L 2022 519 
Q 2988 519 3436 956 
Q 3884 1394 3884 2338 
Q 3884 3275 3436 3711 
Q 2988 4147 2022 4147 
L 1259 4147 
z
M 628 4666 
L 1925 4666 
Q 3281 4666 3915 4102 
Q 4550 3538 4550 2338 
Q 4550 1131 3912 565 
Q 3275 0 1925 0 
L 628 0 
L 628 4666 
z
" transform="scale(0.015625)"/>
        <path id="DejaVuSans-6c" d="M 603 4863 
L 1178 4863 
L 1178 0 
L 603 0 
L 603 4863 
z
" transform="scale(0.015625)"/>
        <path id="DejaVuSans-64" d="M 2906 2969 
L 2906 4863 
L 3481 4863 
L 3481 0 
L 2906 0 
L 2906 525 
Q 2725 213 2448 61 
Q 2172 -91 1784 -91 
Q 1150 -91 751 415 
Q 353 922 353 1747 
Q 353 2572 751 3078 
Q 1150 3584 1784 3584 
Q 2172 3584 2448 3432 
Q 2725 3281 2906 2969 
z
M 947 1747 
Q 947 1113 1208 752 
Q 1469 391 1925 391 
Q 2381 391 2643 752 
Q 2906 1113 2906 1747 
Q 2906 2381 2643 2742 
Q 2381 3103 1925 3103 
Q 1469 3103 1208 2742 
Q 947 2381 947 1747 
z
" transform="scale(0.015625)"/>
       </defs>
       <use xlink:href="#DejaVuSans-43"/>
       <use xlink:href="#DejaVuSans-68" x="69.824219"/>
       <use xlink:href="#DejaVuSans-72" x="133.203125"/>
       <use xlink:href="#DejaVuSans-69" x="174.316406"/>
       <use xlink:href="#DejaVuSans-73" x="202.099609"/>
       <use xlink:href="#DejaVuSans-74" x="254.199219"/>
       <use xlink:href="#DejaVuSans-6f" x="293.408203"/>
       <use xlink:href="#DejaVuSans-70" x="354.589844"/>
       <use xlink:href="#DejaVuSans-68" x="418.066406"/>
       <use xlink:href="#DejaVuSans-65" x="481.445312"/>
       <use xlink:href="#DejaVuSans-72" x="542.96875"/>
       <use xlink:href="#DejaVuSans-20" x="584.082031"/>
       <use xlink:href="#DejaVuSans-4d" x="615.869141"/>
       <use xlink:href="#DejaVuSans-63" x="702.148438"/>
       <use xlink:href="#DejaVuSans-44" x="757.128906"/>
       <use xlink:href="#DejaVuSans-6f" x="834.130859"/>
       <use xlink:href="#DejaVuSans-6e" x="895.3125"/>
       <use xlink:href="#DejaVuSans-61" x="958.691406"/>
       <use xlink:href="#DejaVuSans-6c" x="1019.970703"/>
       <use xlink:href="#DejaVuSans-64" x="1047.753906"/>
      </g>
     </g>
    </g>
    <g id="xtick_4">
     <g id="line2d_4">
      <g>
       <use xlink:href="#m6a1d045684" x="399.13625" y="216.56" style="stroke: #000000; stroke-width: 0.8"/>
      </g>
     </g>
     <g id="text_4">
      <!-- Perry Lang -->
      <g transform="translate(401.895625 276.91) rotate(-90) scale(0.1 -0.1)">
       <defs>
        <path id="DejaVuSans-50" d="M 1259 4147 
L 1259 2394 
L 2053 2394 
Q 2494 2394 2734 2622 
Q 2975 2850 2975 3272 
Q 2975 3691 2734 3919 
Q 2494 4147 2053 4147 
L 1259 4147 
z
M 628 4666 
L 2053 4666 
Q 2838 4666 3239 4311 
Q 3641 3956 3641 3272 
Q 3641 2581 3239 2228 
Q 2838 1875 2053 1875 
L 1259 1875 
L 1259 0 
L 628 0 
L 628 4666 
z
" transform="scale(0.015625)"/>
        <path id="DejaVuSans-79" d="M 2059 -325 
Q 1816 -950 1584 -1140 
Q 1353 -1331 966 -1331 
L 506 -1331 
L 506 -850 
L 844 -850 
Q 1081 -850 1212 -737 
Q 1344 -625 1503 -206 
L 1606 56 
L 191 3500 
L 800 3500 
L 1894 763 
L 2988 3500 
L 3597 3500 
L 2059 -325 
z
" transform="scale(0.015625)"/>
       </defs>
       <use xlink:href="#DejaVuSans-50"/>
       <use xlink:href="#DejaVuSans-65" x="56.677734"/>
       <use xlink:href="#DejaVuSans-72" x="118.201172"/>
       <use xlink:href="#DejaVuSans-72" x="157.564453"/>
       <use xlink:href="#DejaVuSans-79" x="198.677734"/>
       <use xlink:href="#DejaVuSans-20" x="257.857422"/>
       <use xlink:href="#DejaVuSans-4c" x="289.644531"/>
       <use xlink:href="#DejaVuSans-61" x="345.357422"/>
       <use xlink:href="#DejaVuSans-6e" x="406.636719"/>
       <use xlink:href="#DejaVuSans-67" x="470.015625"/>
      </g>
     </g>
    </g>
   </g>
   <g id="matplotlib.axis_2">
    <g id="ytick_1">
     <g id="line2d_5">
      <defs>
       <path id="md869a30a19" d="M 0 0 
L -3.5 0 
" style="stroke: #000000; stroke-width: 0.8"/>
      </defs>
      <g>
       <use xlink:href="#md869a30a19" x="43.09" y="216.56" style="stroke: #000000; stroke-width: 0.8"/>
      </g>
     </g>
     <g id="text_5">
      <!-- 0 -->
      <g transform="translate(29.7275 220.359219) scale(0.1 -0.1)">
       <defs>
        <path id="DejaVuSans-30" d="M 2034 4250 
Q 1547 4250 1301 3770 
Q 1056 3291 1056 2328 
Q 1056 1369 1301 889 
Q 1547 409 2034 409 
Q 2525 409 2770 889 
Q 3016 1369 3016 2328 
Q 3016 3291 2770 3770 
Q 2525 4250 2034 4250 
z
M 2034 4750 
Q 2819 4750 3233 4129 
Q 3647 3509 3647 2328 
Q 3647 1150 3233 529 
Q 2819 -91 2034 -91 
Q 1250 -91 836 529 
Q 422 1150 422 2328 
Q 422 3509 836 4129 
Q 1250 4750 2034 4750 
z
" transform="scale(0.015625)"/>
       </defs>
       <use xlink:href="#DejaVuSans-30"/>
      </g>
     </g>
    </g>
    <g id="ytick_2">
     <g id="line2d_6">
      <g>
       <use xlink:href="#md869a30a19" x="43.09" y="181.889971" style="stroke: #000000; stroke-width: 0.8"/>
      </g>
     </g>
     <g id="text_6">
      <!-- 200 -->
      <g transform="translate(17.0025 185.68919) scale(0.1 -0.1)">
       <defs>
        <path id="DejaVuSans-32" d="M 1228 531 
L 3431 531 
L 3431 0 
L 469 0 
L 469 531 
Q 828 903 1448 1529 
Q 2069 2156 2228 2338 
Q 2531 2678 2651 2914 
Q 2772 3150 2772 3378 
Q 2772 3750 2511 3984 
Q 2250 4219 1831 4219 
Q 1534 4219 1204 4116 
Q 875 4013 500 3803 
L 500 4441 
Q 881 4594 1212 4672 
Q 1544 4750 1819 4750 
Q 2544 4750 2975 4387 
Q 3406 4025 3406 3419 
Q 3406 3131 3298 2873 
Q 3191 2616 2906 2266 
Q 2828 2175 2409 1742 
Q 1991 1309 1228 531 
z
" transform="scale(0.015625)"/>
       </defs>
       <use xlink:href="#DejaVuSans-32"/>
       <use xlink:href="#DejaVuSans-30" x="63.623047"/>
       <use xlink:href="#DejaVuSans-30" x="127.246094"/>
      </g>
     </g>
    </g>
    <g id="ytick_3">
     <g id="line2d_7">
      <g>
       <use xlink:href="#md869a30a19" x="43.09" y="147.219942" style="stroke: #000000; stroke-width: 0.8"/>
      </g>
     </g>
     <g id="text_7">
      <!-- 400 -->
      <g transform="translate(17.0025 151.01916) scale(0.1 -0.1)">
       <defs>
        <path id="DejaVuSans-34" d="M 2419 4116 
L 825 1625 
L 2419 1625 
L 2419 4116 
z
M 2253 4666 
L 3047 4666 
L 3047 1625 
L 3713 1625 
L 3713 1100 
L 3047 1100 
L 3047 0 
L 2419 0 
L 2419 1100 
L 313 1100 
L 313 1709 
L 2253 4666 
z
" transform="scale(0.015625)"/>
       </defs>
       <use xlink:href="#DejaVuSans-34"/>
       <use xlink:href="#DejaVuSans-30" x="63.623047"/>
       <use xlink:href="#DejaVuSans-30" x="127.246094"/>
      </g>
     </g>
    </g>
    <g id="ytick_4">
     <g id="line2d_8">
      <g>
       <use xlink:href="#md869a30a19" x="43.09" y="112.549912" style="stroke: #000000; stroke-width: 0.8"/>
      </g>
     </g>
     <g id="text_8">
      <!-- 600 -->
      <g transform="translate(17.0025 116.349131) scale(0.1 -0.1)">
       <defs>
        <path id="DejaVuSans-36" d="M 2113 2584 
Q 1688 2584 1439 2293 
Q 1191 2003 1191 1497 
Q 1191 994 1439 701 
Q 1688 409 2113 409 
Q 2538 409 2786 701 
Q 3034 994 3034 1497 
Q 3034 2003 2786 2293 
Q 2538 2584 2113 2584 
z
M 3366 4563 
L 3366 3988 
Q 3128 4100 2886 4159 
Q 2644 4219 2406 4219 
Q 1781 4219 1451 3797 
Q 1122 3375 1075 2522 
Q 1259 2794 1537 2939 
Q 1816 3084 2150 3084 
Q 2853 3084 3261 2657 
Q 3669 2231 3669 1497 
Q 3669 778 3244 343 
Q 2819 -91 2113 -91 
Q 1303 -91 875 529 
Q 447 1150 447 2328 
Q 447 3434 972 4092 
Q 1497 4750 2381 4750 
Q 2619 4750 2861 4703 
Q 3103 4656 3366 4563 
z
" transform="scale(0.015625)"/>
       </defs>
       <use xlink:href="#DejaVuSans-36"/>
       <use xlink:href="#DejaVuSans-30" x="63.623047"/>
       <use xlink:href="#DejaVuSans-30" x="127.246094"/>
      </g>
     </g>
    </g>
    <g id="ytick_5">
     <g id="line2d_9">
      <g>
       <use xlink:href="#md869a30a19" x="43.09" y="77.879883" style="stroke: #000000; stroke-width: 0.8"/>
      </g>
     </g>
     <g id="text_9">
      <!-- 800 -->
      <g transform="translate(17.0025 81.679102) scale(0.1 -0.1)">
       <defs>
        <path id="DejaVuSans-38" d="M 2034 2216 
Q 1584 2216 1326 1975 
Q 1069 1734 1069 1313 
Q 1069 891 1326 650 
Q 1584 409 2034 409 
Q 2484 409 2743 651 
Q 3003 894 3003 1313 
Q 3003 1734 2745 1975 
Q 2488 2216 2034 2216 
z
M 1403 2484 
Q 997 2584 770 2862 
Q 544 3141 544 3541 
Q 544 4100 942 4425 
Q 1341 4750 2034 4750 
Q 2731 4750 3128 4425 
Q 3525 4100 3525 3541 
Q 3525 3141 3298 2862 
Q 3072 2584 2669 2484 
Q 3125 2378 3379 2068 
Q 3634 1759 3634 1313 
Q 3634 634 3220 271 
Q 2806 -91 2034 -91 
Q 1263 -91 848 271 
Q 434 634 434 1313 
Q 434 1759 690 2068 
Q 947 2378 1403 2484 
z
M 1172 3481 
Q 1172 3119 1398 2916 
Q 1625 2713 2034 2713 
Q 2441 2713 2670 2916 
Q 2900 3119 2900 3481 
Q 2900 3844 2670 4047 
Q 2441 4250 2034 4250 
Q 1625 4250 1398 4047 
Q 1172 3844 1172 3481 
z
" transform="scale(0.015625)"/>
       </defs>
       <use xlink:href="#DejaVuSans-38"/>
       <use xlink:href="#DejaVuSans-30" x="63.623047"/>
       <use xlink:href="#DejaVuSans-30" x="127.246094"/>
      </g>
     </g>
    </g>
    <g id="ytick_6">
     <g id="line2d_10">
      <g>
       <use xlink:href="#md869a30a19" x="43.09" y="43.209854" style="stroke: #000000; stroke-width: 0.8"/>
      </g>
     </g>
     <g id="text_10">
      <!-- 1000 -->
      <g transform="translate(10.64 47.009073) scale(0.1 -0.1)">
       <defs>
        <path id="DejaVuSans-31" d="M 794 531 
L 1825 531 
L 1825 4091 
L 703 3866 
L 703 4441 
L 1819 4666 
L 2450 4666 
L 2450 531 
L 3481 531 
L 3481 0 
L 794 0 
L 794 531 
z
" transform="scale(0.015625)"/>
       </defs>
       <use xlink:href="#DejaVuSans-31"/>
       <use xlink:href="#DejaVuSans-30" x="63.623047"/>
       <use xlink:href="#DejaVuSans-30" x="127.246094"/>
       <use xlink:href="#DejaVuSans-30" x="190.869141"/>
      </g>
     </g>
    </g>
   </g>
   <g id="patch_168">
    <path d="M 43.09 216.56 
L 43.09 10.8 
" style="fill: none; stroke: #000000; stroke-width: 0.8; stroke-linejoin: miter; stroke-linecap: square"/>
   </g>
   <g id="patch_169">
    <path d="M 450 216.56 
L 450 10.8 
" style="fill: none; stroke: #000000; stroke-width: 0.8; stroke-linejoin: miter; stroke-linecap: square"/>
   </g>
   <g id="patch_170">
    <path d="M 43.09 216.56 
L 450 216.56 
" style="fill: none; stroke: #000000; stroke-width: 0.8; stroke-linejoin: miter; stroke-linecap: square"/>
   </g>
   <g id="patch_171">
    <path d="M 43.09 10.8 
L 450 10.8 
" style="fill: none; stroke: #000000; stroke-width: 0.8; stroke-linejoin: miter; stroke-linecap: square"/>
   </g>
  </g>
 </g>
 <defs>
  <clipPath id="p9ec6d6f4aa">
   <rect x="43.09" y="10.8" width="406.91" height="205.76"/>
  </clipPath>
 </defs>
</svg>
