<?xml version="1.0" encoding="utf-8" standalone="no"?>
<!DOCTYPE svg PUBLIC "-//W3C//DTD SVG 1.1//EN"
  "http://www.w3.org/Graphics/SVG/1.1/DTD/svg11.dtd">
<svg xmlns:xlink="http://www.w3.org/1999/xlink" width="460.8pt" height="345.6pt" viewBox="0 0 460.8 345.6" xmlns="http://www.w3.org/2000/svg" version="1.1">
 <metadata>
  <rdf:RDF xmlns:dc="http://purl.org/dc/elements/1.1/" xmlns:cc="http://creativecommons.org/ns#" xmlns:rdf="http://www.w3.org/1999/02/22-rdf-syntax-ns#">
   <cc:Work>
    <dc:type rdf:resource="http://purl.org/dc/dcmitype/StillImage"/>
    <dc:date>2022-12-20T12:31:10.396119</dc:date>
    <dc:format>image/svg+xml</dc:format>
    <dc:creator>
     <cc:Agent>
      <dc:title>Matplotlib v3.6.0, https://matplotlib.org/</dc:title>
     </cc:Agent>
    </dc:creator>
   </cc:Work>
  </rdf:RDF>
 </metadata>
 <defs>
  <style type="text/css">*{stroke-linejoin: round; stroke-linecap: butt}</style>
 </defs>
 <g id="figure_1">
  <g id="patch_1">
   <path d="M 0 345.6 
L 460.8 345.6 
L 460.8 0 
L 0 0 
z
" style="fill: #ffffff"/>
  </g>
  <g id="axes_1">
   <g id="patch_2">
    <path d="M 43.09 258.59 
L 450 258.59 
L 450 10.8 
L 43.09 10.8 
z
" style="fill: #ffffff"/>
   </g>
   <g id="patch_3">
    <path d="M 63.4355 258.59 
L 104.1265 258.59 
L 104.1265 178.807503 
L 63.4355 178.807503 
z
" clip-path="url(#p48a638d76d)" style="fill: #1f77b4"/>
   </g>
   <g id="patch_4">
    <path d="M 144.8175 258.59 
L 185.5085 258.59 
L 185.5085 197.572267 
L 144.8175 197.572267 
z
" clip-path="url(#p48a638d76d)" style="fill: #1f77b4"/>
   </g>
   <g id="patch_5">
    <path d="M 226.1995 258.59 
L 266.8905 258.59 
L 266.8905 191.990001 
L 226.1995 191.990001 
z
" clip-path="url(#p48a638d76d)" style="fill: #1f77b4"/>
   </g>
   <g id="patch_6">
    <path d="M 307.5815 258.59 
L 348.2725 258.59 
L 348.2725 204.255561 
L 307.5815 204.255561 
z
" clip-path="url(#p48a638d76d)" style="fill: #1f77b4"/>
   </g>
   <g id="patch_7">
    <path d="M 388.9635 258.59 
L 429.6545 258.59 
L 429.6545 225.900122 
L 388.9635 225.900122 
z
" clip-path="url(#p48a638d76d)" style="fill: #1f77b4"/>
   </g>
   <g id="patch_8">
    <path d="M 63.4355 258.59 
L 104.1265 258.59 
L 104.1265 258.377125 
L 63.4355 258.377125 
z
" clip-path="url(#p48a638d76d)" style="fill: #1f77b4"/>
   </g>
   <g id="patch_9">
    <path d="M 144.8175 258.59 
L 185.5085 258.59 
L 185.5085 258.519042 
L 144.8175 258.519042 
z
" clip-path="url(#p48a638d76d)" style="fill: #1f77b4"/>
   </g>
   <g id="patch_10">
    <path d="M 226.1995 258.59 
L 266.8905 258.59 
L 266.8905 258.59 
L 226.1995 258.59 
z
" clip-path="url(#p48a638d76d)" style="fill: #1f77b4"/>
   </g>
   <g id="patch_11">
    <path d="M 63.4355 258.59 
L 104.1265 258.59 
L 104.1265 258.566347 
L 63.4355 258.566347 
z
" clip-path="url(#p48a638d76d)" style="fill: #1f77b4"/>
   </g>
   <g id="patch_12">
    <path d="M 144.8175 258.59 
L 185.5085 258.59 
L 185.5085 258.566347 
L 144.8175 258.566347 
z
" clip-path="url(#p48a638d76d)" style="fill: #1f77b4"/>
   </g>
   <g id="patch_13">
    <path d="M 226.1995 258.59 
L 266.8905 258.59 
L 266.8905 258.566347 
L 226.1995 258.566347 
z
" clip-path="url(#p48a638d76d)" style="fill: #1f77b4"/>
   </g>
   <g id="patch_14">
    <path d="M 307.5815 258.59 
L 348.2725 258.59 
L 348.2725 258.519042 
L 307.5815 258.519042 
z
" clip-path="url(#p48a638d76d)" style="fill: #1f77b4"/>
   </g>
   <g id="patch_15">
    <path d="M 388.9635 258.59 
L 429.6545 258.59 
L 429.6545 258.59 
L 388.9635 258.59 
z
" clip-path="url(#p48a638d76d)" style="fill: #1f77b4"/>
   </g>
   <g id="patch_16">
    <path d="M 63.4355 258.59 
L 104.1265 258.59 
L 104.1265 245.24986 
L 63.4355 245.24986 
z
" clip-path="url(#p48a638d76d)" style="fill: #1f77b4"/>
   </g>
   <g id="patch_17">
    <path d="M 144.8175 258.59 
L 185.5085 258.59 
L 185.5085 254.829216 
L 144.8175 254.829216 
z
" clip-path="url(#p48a638d76d)" style="fill: #1f77b4"/>
   </g>
   <g id="patch_18">
    <path d="M 226.1995 258.59 
L 266.8905 258.59 
L 266.8905 255.503319 
L 226.1995 255.503319 
z
" clip-path="url(#p48a638d76d)" style="fill: #1f77b4"/>
   </g>
   <g id="patch_19">
    <path d="M 307.5815 258.59 
L 348.2725 258.59 
L 348.2725 245.604651 
L 307.5815 245.604651 
z
" clip-path="url(#p48a638d76d)" style="fill: #1f77b4"/>
   </g>
   <g id="patch_20">
    <path d="M 388.9635 258.59 
L 429.6545 258.59 
L 429.6545 256.922483 
L 388.9635 256.922483 
z
" clip-path="url(#p48a638d76d)" style="fill: #1f77b4"/>
   </g>
   <g id="patch_21">
    <path d="M 63.4355 258.59 
L 104.1265 258.59 
L 104.1265 258.519042 
L 63.4355 258.519042 
z
" clip-path="url(#p48a638d76d)" style="fill: #1f77b4"/>
   </g>
   <g id="patch_22">
    <path d="M 144.8175 258.59 
L 185.5085 258.59 
L 185.5085 258.59 
L 144.8175 258.59 
z
" clip-path="url(#p48a638d76d)" style="fill: #1f77b4"/>
   </g>
   <g id="patch_23">
    <path d="M 226.1995 258.59 
L 266.8905 258.59 
L 266.8905 258.59 
L 226.1995 258.59 
z
" clip-path="url(#p48a638d76d)" style="fill: #1f77b4"/>
   </g>
   <g id="patch_24">
    <path d="M 307.5815 258.59 
L 348.2725 258.59 
L 348.2725 258.59 
L 307.5815 258.59 
z
" clip-path="url(#p48a638d76d)" style="fill: #1f77b4"/>
   </g>
   <g id="patch_25">
    <path d="M 63.4355 258.59 
L 104.1265 258.59 
L 104.1265 256.674129 
L 63.4355 256.674129 
z
" clip-path="url(#p48a638d76d)" style="fill: #1f77b4"/>
   </g>
   <g id="patch_26">
    <path d="M 144.8175 258.59 
L 185.5085 258.59 
L 185.5085 258.377125 
L 144.8175 258.377125 
z
" clip-path="url(#p48a638d76d)" style="fill: #1f77b4"/>
   </g>
   <g id="patch_27">
    <path d="M 226.1995 258.59 
L 266.8905 258.59 
L 266.8905 258.519042 
L 226.1995 258.519042 
z
" clip-path="url(#p48a638d76d)" style="fill: #1f77b4"/>
   </g>
   <g id="patch_28">
    <path d="M 307.5815 258.59 
L 348.2725 258.59 
L 348.2725 258.519042 
L 307.5815 258.519042 
z
" clip-path="url(#p48a638d76d)" style="fill: #1f77b4"/>
   </g>
   <g id="patch_29">
    <path d="M 388.9635 258.59 
L 429.6545 258.59 
L 429.6545 258.093293 
L 388.9635 258.093293 
z
" clip-path="url(#p48a638d76d)" style="fill: #1f77b4"/>
   </g>
   <g id="patch_30">
    <path d="M 63.4355 258.59 
L 104.1265 258.59 
L 104.1265 258.448084 
L 63.4355 258.448084 
z
" clip-path="url(#p48a638d76d)" style="fill: #1f77b4"/>
   </g>
   <g id="patch_31">
    <path d="M 144.8175 258.59 
L 185.5085 258.59 
L 185.5085 258.448084 
L 144.8175 258.448084 
z
" clip-path="url(#p48a638d76d)" style="fill: #1f77b4"/>
   </g>
   <g id="patch_32">
    <path d="M 226.1995 258.59 
L 266.8905 258.59 
L 266.8905 258.448084 
L 226.1995 258.448084 
z
" clip-path="url(#p48a638d76d)" style="fill: #1f77b4"/>
   </g>
   <g id="patch_33">
    <path d="M 307.5815 258.59 
L 348.2725 258.59 
L 348.2725 258.448084 
L 307.5815 258.448084 
z
" clip-path="url(#p48a638d76d)" style="fill: #1f77b4"/>
   </g>
   <g id="patch_34">
    <path d="M 388.9635 258.59 
L 429.6545 258.59 
L 429.6545 258.448084 
L 388.9635 258.448084 
z
" clip-path="url(#p48a638d76d)" style="fill: #1f77b4"/>
   </g>
   <g id="patch_35">
    <path d="M 63.4355 258.59 
L 104.1265 258.59 
L 104.1265 258.377125 
L 63.4355 258.377125 
z
" clip-path="url(#p48a638d76d)" style="fill: #1f77b4"/>
   </g>
   <g id="patch_36">
    <path d="M 144.8175 258.59 
L 185.5085 258.59 
L 185.5085 258.412605 
L 144.8175 258.412605 
z
" clip-path="url(#p48a638d76d)" style="fill: #1f77b4"/>
   </g>
   <g id="patch_37">
    <path d="M 226.1995 258.59 
L 266.8905 258.59 
L 266.8905 258.519042 
L 226.1995 258.519042 
z
" clip-path="url(#p48a638d76d)" style="fill: #1f77b4"/>
   </g>
   <g id="patch_38">
    <path d="M 307.5815 258.59 
L 348.2725 258.59 
L 348.2725 258.554521 
L 307.5815 258.554521 
z
" clip-path="url(#p48a638d76d)" style="fill: #1f77b4"/>
   </g>
   <g id="patch_39">
    <path d="M 388.9635 258.59 
L 429.6545 258.59 
L 429.6545 258.554521 
L 388.9635 258.554521 
z
" clip-path="url(#p48a638d76d)" style="fill: #1f77b4"/>
   </g>
   <g id="patch_40">
    <path d="M 63.4355 258.59 
L 104.1265 258.59 
L 104.1265 258.377125 
L 63.4355 258.377125 
z
" clip-path="url(#p48a638d76d)" style="fill: #1f77b4"/>
   </g>
   <g id="patch_41">
    <path d="M 144.8175 258.59 
L 185.5085 258.59 
L 185.5085 258.59 
L 144.8175 258.59 
z
" clip-path="url(#p48a638d76d)" style="fill: #1f77b4"/>
   </g>
   <g id="patch_42">
    <path d="M 226.1995 258.59 
L 266.8905 258.59 
L 266.8905 258.59 
L 226.1995 258.59 
z
" clip-path="url(#p48a638d76d)" style="fill: #1f77b4"/>
   </g>
   <g id="patch_43">
    <path d="M 63.4355 258.59 
L 104.1265 258.59 
L 104.1265 258.377125 
L 63.4355 258.377125 
z
" clip-path="url(#p48a638d76d)" style="fill: #1f77b4"/>
   </g>
   <g id="patch_44">
    <path d="M 144.8175 258.59 
L 185.5085 258.59 
L 185.5085 258.519042 
L 144.8175 258.519042 
z
" clip-path="url(#p48a638d76d)" style="fill: #1f77b4"/>
   </g>
   <g id="patch_45">
    <path d="M 63.4355 258.59 
L 104.1265 258.59 
L 104.1265 180.350147 
L 63.4355 180.350147 
z
" clip-path="url(#p48a638d76d)" style="fill: #1f77b4"/>
   </g>
   <g id="patch_46">
    <path d="M 144.8175 258.59 
L 185.5085 258.59 
L 185.5085 202.371774 
L 144.8175 202.371774 
z
" clip-path="url(#p48a638d76d)" style="fill: #1f77b4"/>
   </g>
   <g id="patch_47">
    <path d="M 226.1995 258.59 
L 266.8905 258.59 
L 266.8905 209.727045 
L 226.1995 209.727045 
z
" clip-path="url(#p48a638d76d)" style="fill: #1f77b4"/>
   </g>
   <g id="patch_48">
    <path d="M 307.5815 258.59 
L 348.2725 258.59 
L 348.2725 202.567041 
L 307.5815 202.567041 
z
" clip-path="url(#p48a638d76d)" style="fill: #1f77b4"/>
   </g>
   <g id="patch_49">
    <path d="M 388.9635 258.59 
L 429.6545 258.59 
L 429.6545 217.38567 
L 388.9635 217.38567 
z
" clip-path="url(#p48a638d76d)" style="fill: #1f77b4"/>
   </g>
   <g id="patch_50">
    <path d="M 63.4355 258.59 
L 104.1265 258.59 
L 104.1265 258.59 
L 63.4355 258.59 
z
" clip-path="url(#p48a638d76d)" style="fill: #1f77b4"/>
   </g>
   <g id="patch_51">
    <path d="M 144.8175 258.59 
L 185.5085 258.59 
L 185.5085 258.59 
L 144.8175 258.59 
z
" clip-path="url(#p48a638d76d)" style="fill: #1f77b4"/>
   </g>
   <g id="patch_52">
    <path d="M 226.1995 258.59 
L 266.8905 258.59 
L 266.8905 258.59 
L 226.1995 258.59 
z
" clip-path="url(#p48a638d76d)" style="fill: #1f77b4"/>
   </g>
   <g id="patch_53">
    <path d="M 307.5815 258.59 
L 348.2725 258.59 
L 348.2725 258.59 
L 307.5815 258.59 
z
" clip-path="url(#p48a638d76d)" style="fill: #1f77b4"/>
   </g>
   <g id="patch_54">
    <path d="M 388.9635 258.59 
L 429.6545 258.59 
L 429.6545 258.59 
L 388.9635 258.59 
z
" clip-path="url(#p48a638d76d)" style="fill: #1f77b4"/>
   </g>
   <g id="patch_55">
    <path d="M 63.4355 258.59 
L 104.1265 258.59 
L 104.1265 258.519042 
L 63.4355 258.519042 
z
" clip-path="url(#p48a638d76d)" style="fill: #1f77b4"/>
   </g>
   <g id="patch_56">
    <path d="M 144.8175 258.59 
L 185.5085 258.59 
L 185.5085 258.59 
L 144.8175 258.59 
z
" clip-path="url(#p48a638d76d)" style="fill: #1f77b4"/>
   </g>
   <g id="patch_57">
    <path d="M 226.1995 258.59 
L 266.8905 258.59 
L 266.8905 258.59 
L 226.1995 258.59 
z
" clip-path="url(#p48a638d76d)" style="fill: #1f77b4"/>
   </g>
   <g id="patch_58">
    <path d="M 307.5815 258.59 
L 348.2725 258.59 
L 348.2725 258.59 
L 307.5815 258.59 
z
" clip-path="url(#p48a638d76d)" style="fill: #1f77b4"/>
   </g>
   <g id="patch_59">
    <path d="M 388.9635 258.59 
L 429.6545 258.59 
L 429.6545 258.59 
L 388.9635 258.59 
z
" clip-path="url(#p48a638d76d)" style="fill: #1f77b4"/>
   </g>
   <g id="patch_60">
    <path d="M 63.4355 258.59 
L 104.1265 258.59 
L 104.1265 258.19973 
L 63.4355 258.19973 
z
" clip-path="url(#p48a638d76d)" style="fill: #1f77b4"/>
   </g>
   <g id="patch_61">
    <path d="M 144.8175 258.59 
L 185.5085 258.59 
L 185.5085 258.377125 
L 144.8175 258.377125 
z
" clip-path="url(#p48a638d76d)" style="fill: #1f77b4"/>
   </g>
   <g id="patch_62">
    <path d="M 226.1995 258.59 
L 266.8905 258.59 
L 266.8905 258.554521 
L 226.1995 258.554521 
z
" clip-path="url(#p48a638d76d)" style="fill: #1f77b4"/>
   </g>
   <g id="patch_63">
    <path d="M 307.5815 258.59 
L 348.2725 258.59 
L 348.2725 258.59 
L 307.5815 258.59 
z
" clip-path="url(#p48a638d76d)" style="fill: #1f77b4"/>
   </g>
   <g id="patch_64">
    <path d="M 388.9635 258.59 
L 429.6545 258.59 
L 429.6545 258.59 
L 388.9635 258.59 
z
" clip-path="url(#p48a638d76d)" style="fill: #1f77b4"/>
   </g>
   <g id="patch_65">
    <path d="M 63.4355 258.59 
L 104.1265 258.59 
L 104.1265 250.74912 
L 63.4355 250.74912 
z
" clip-path="url(#p48a638d76d)" style="fill: #1f77b4"/>
   </g>
   <g id="patch_66">
    <path d="M 144.8175 258.59 
L 185.5085 258.59 
L 185.5085 257.880418 
L 144.8175 257.880418 
z
" clip-path="url(#p48a638d76d)" style="fill: #1f77b4"/>
   </g>
   <g id="patch_67">
    <path d="M 226.1995 258.59 
L 266.8905 258.59 
L 266.8905 254.308856 
L 226.1995 254.308856 
z
" clip-path="url(#p48a638d76d)" style="fill: #1f77b4"/>
   </g>
   <g id="patch_68">
    <path d="M 307.5815 258.59 
L 348.2725 258.59 
L 348.2725 253.197178 
L 307.5815 253.197178 
z
" clip-path="url(#p48a638d76d)" style="fill: #1f77b4"/>
   </g>
   <g id="patch_69">
    <path d="M 388.9635 258.59 
L 429.6545 258.59 
L 429.6545 254.226071 
L 388.9635 254.226071 
z
" clip-path="url(#p48a638d76d)" style="fill: #1f77b4"/>
   </g>
   <g id="patch_70">
    <path d="M 63.4355 258.59 
L 104.1265 258.59 
L 104.1265 234.975854 
L 63.4355 234.975854 
z
" clip-path="url(#p48a638d76d)" style="fill: #1f77b4"/>
   </g>
   <g id="patch_71">
    <path d="M 144.8175 258.59 
L 185.5085 258.59 
L 185.5085 238.364503 
L 144.8175 238.364503 
z
" clip-path="url(#p48a638d76d)" style="fill: #1f77b4"/>
   </g>
   <g id="patch_72">
    <path d="M 226.1995 258.59 
L 266.8905 258.59 
L 266.8905 209.472078 
L 226.1995 209.472078 
z
" clip-path="url(#p48a638d76d)" style="fill: #1f77b4"/>
   </g>
   <g id="patch_73">
    <path d="M 307.5815 258.59 
L 348.2725 258.59 
L 348.2725 228.970871 
L 307.5815 228.970871 
z
" clip-path="url(#p48a638d76d)" style="fill: #1f77b4"/>
   </g>
   <g id="patch_74">
    <path d="M 388.9635 258.59 
L 429.6545 258.59 
L 429.6545 209.148686 
L 388.9635 209.148686 
z
" clip-path="url(#p48a638d76d)" style="fill: #1f77b4"/>
   </g>
   <g id="patch_75">
    <path d="M 63.4355 258.59 
L 104.1265 258.59 
L 104.1265 258.59 
L 63.4355 258.59 
z
" clip-path="url(#p48a638d76d)" style="fill: #1f77b4"/>
   </g>
   <g id="patch_76">
    <path d="M 144.8175 258.59 
L 185.5085 258.59 
L 185.5085 258.59 
L 144.8175 258.59 
z
" clip-path="url(#p48a638d76d)" style="fill: #1f77b4"/>
   </g>
   <g id="patch_77">
    <path d="M 63.4355 258.59 
L 104.1265 258.59 
L 104.1265 257.703023 
L 63.4355 257.703023 
z
" clip-path="url(#p48a638d76d)" style="fill: #1f77b4"/>
   </g>
   <g id="patch_78">
    <path d="M 144.8175 258.59 
L 185.5085 258.59 
L 185.5085 257.880418 
L 144.8175 257.880418 
z
" clip-path="url(#p48a638d76d)" style="fill: #1f77b4"/>
   </g>
   <g id="patch_79">
    <path d="M 226.1995 258.59 
L 266.8905 258.59 
L 266.8905 258.164251 
L 226.1995 258.164251 
z
" clip-path="url(#p48a638d76d)" style="fill: #1f77b4"/>
   </g>
   <g id="patch_80">
    <path d="M 307.5815 258.59 
L 348.2725 258.59 
L 348.2725 258.519042 
L 307.5815 258.519042 
z
" clip-path="url(#p48a638d76d)" style="fill: #1f77b4"/>
   </g>
   <g id="patch_81">
    <path d="M 388.9635 258.59 
L 429.6545 258.59 
L 429.6545 258.448084 
L 388.9635 258.448084 
z
" clip-path="url(#p48a638d76d)" style="fill: #1f77b4"/>
   </g>
   <g id="patch_82">
    <path d="M 63.4355 258.59 
L 104.1265 258.59 
L 104.1265 258.377125 
L 63.4355 258.377125 
z
" clip-path="url(#p48a638d76d)" style="fill: #1f77b4"/>
   </g>
   <g id="patch_83">
    <path d="M 144.8175 258.59 
L 185.5085 258.59 
L 185.5085 258.377125 
L 144.8175 258.377125 
z
" clip-path="url(#p48a638d76d)" style="fill: #1f77b4"/>
   </g>
   <g id="patch_84">
    <path d="M 226.1995 258.59 
L 266.8905 258.59 
L 266.8905 258.519042 
L 226.1995 258.519042 
z
" clip-path="url(#p48a638d76d)" style="fill: #1f77b4"/>
   </g>
   <g id="patch_85">
    <path d="M 307.5815 258.59 
L 348.2725 258.59 
L 348.2725 258.59 
L 307.5815 258.59 
z
" clip-path="url(#p48a638d76d)" style="fill: #1f77b4"/>
   </g>
   <g id="patch_86">
    <path d="M 388.9635 258.59 
L 429.6545 258.59 
L 429.6545 258.59 
L 388.9635 258.59 
z
" clip-path="url(#p48a638d76d)" style="fill: #1f77b4"/>
   </g>
   <g id="patch_87">
    <path d="M 63.4355 258.59 
L 104.1265 258.59 
L 104.1265 257.099878 
L 63.4355 257.099878 
z
" clip-path="url(#p48a638d76d)" style="fill: #1f77b4"/>
   </g>
   <g id="patch_88">
    <path d="M 144.8175 258.59 
L 185.5085 258.59 
L 185.5085 258.554521 
L 144.8175 258.554521 
z
" clip-path="url(#p48a638d76d)" style="fill: #1f77b4"/>
   </g>
   <g id="patch_89">
    <path d="M 226.1995 258.59 
L 266.8905 258.59 
L 266.8905 258.554521 
L 226.1995 258.554521 
z
" clip-path="url(#p48a638d76d)" style="fill: #1f77b4"/>
   </g>
   <g id="patch_90">
    <path d="M 307.5815 258.59 
L 348.2725 258.59 
L 348.2725 258.554521 
L 307.5815 258.554521 
z
" clip-path="url(#p48a638d76d)" style="fill: #1f77b4"/>
   </g>
   <g id="patch_91">
    <path d="M 388.9635 258.59 
L 429.6545 258.59 
L 429.6545 258.554521 
L 388.9635 258.554521 
z
" clip-path="url(#p48a638d76d)" style="fill: #1f77b4"/>
   </g>
   <g id="patch_92">
    <path d="M 63.4355 258.59 
L 104.1265 258.59 
L 104.1265 258.59 
L 63.4355 258.59 
z
" clip-path="url(#p48a638d76d)" style="fill: #1f77b4"/>
   </g>
   <g id="patch_93">
    <path d="M 63.4355 258.59 
L 104.1265 258.59 
L 104.1265 258.235209 
L 63.4355 258.235209 
z
" clip-path="url(#p48a638d76d)" style="fill: #1f77b4"/>
   </g>
   <g id="patch_94">
    <path d="M 144.8175 258.59 
L 185.5085 258.59 
L 185.5085 258.235209 
L 144.8175 258.235209 
z
" clip-path="url(#p48a638d76d)" style="fill: #1f77b4"/>
   </g>
   <g id="patch_95">
    <path d="M 226.1995 258.59 
L 266.8905 258.59 
L 266.8905 258.519042 
L 226.1995 258.519042 
z
" clip-path="url(#p48a638d76d)" style="fill: #1f77b4"/>
   </g>
   <g id="patch_96">
    <path d="M 63.4355 258.59 
L 104.1265 258.59 
L 104.1265 257.099878 
L 63.4355 257.099878 
z
" clip-path="url(#p48a638d76d)" style="fill: #1f77b4"/>
   </g>
   <g id="patch_97">
    <path d="M 144.8175 258.59 
L 185.5085 258.59 
L 185.5085 258.519042 
L 144.8175 258.519042 
z
" clip-path="url(#p48a638d76d)" style="fill: #1f77b4"/>
   </g>
   <g id="patch_98">
    <path d="M 226.1995 258.59 
L 266.8905 258.59 
L 266.8905 258.519042 
L 226.1995 258.519042 
z
" clip-path="url(#p48a638d76d)" style="fill: #1f77b4"/>
   </g>
   <g id="patch_99">
    <path d="M 307.5815 258.59 
L 348.2725 258.59 
L 348.2725 258.59 
L 307.5815 258.59 
z
" clip-path="url(#p48a638d76d)" style="fill: #1f77b4"/>
   </g>
   <g id="patch_100">
    <path d="M 388.9635 258.59 
L 429.6545 258.59 
L 429.6545 258.59 
L 388.9635 258.59 
z
" clip-path="url(#p48a638d76d)" style="fill: #1f77b4"/>
   </g>
   <g id="patch_101">
    <path d="M 63.4355 258.59 
L 104.1265 258.59 
L 104.1265 258.59 
L 63.4355 258.59 
z
" clip-path="url(#p48a638d76d)" style="fill: #1f77b4"/>
   </g>
   <g id="patch_102">
    <path d="M 63.4355 258.59 
L 104.1265 258.59 
L 104.1265 178.376038 
L 63.4355 178.376038 
z
" clip-path="url(#p48a638d76d)" style="fill: #1f77b4"/>
   </g>
   <g id="patch_103">
    <path d="M 144.8175 258.59 
L 185.5085 258.59 
L 185.5085 196.025852 
L 144.8175 196.025852 
z
" clip-path="url(#p48a638d76d)" style="fill: #1f77b4"/>
   </g>
   <g id="patch_104">
    <path d="M 226.1995 258.59 
L 266.8905 258.59 
L 266.8905 207.962495 
L 226.1995 207.962495 
z
" clip-path="url(#p48a638d76d)" style="fill: #1f77b4"/>
   </g>
   <g id="patch_105">
    <path d="M 307.5815 258.59 
L 348.2725 258.59 
L 348.2725 217.161725 
L 307.5815 217.161725 
z
" clip-path="url(#p48a638d76d)" style="fill: #1f77b4"/>
   </g>
   <g id="patch_106">
    <path d="M 388.9635 258.59 
L 429.6545 258.59 
L 429.6545 223.723675 
L 388.9635 223.723675 
z
" clip-path="url(#p48a638d76d)" style="fill: #1f77b4"/>
   </g>
   <g id="patch_107">
    <path d="M 63.4355 258.59 
L 104.1265 258.59 
L 104.1265 258.235209 
L 63.4355 258.235209 
z
" clip-path="url(#p48a638d76d)" style="fill: #1f77b4"/>
   </g>
   <g id="patch_108">
    <path d="M 144.8175 258.59 
L 185.5085 258.59 
L 185.5085 258.235209 
L 144.8175 258.235209 
z
" clip-path="url(#p48a638d76d)" style="fill: #1f77b4"/>
   </g>
   <g id="patch_109">
    <path d="M 226.1995 258.59 
L 266.8905 258.59 
L 266.8905 258.235209 
L 226.1995 258.235209 
z
" clip-path="url(#p48a638d76d)" style="fill: #1f77b4"/>
   </g>
   <g id="patch_110">
    <path d="M 307.5815 258.59 
L 348.2725 258.59 
L 348.2725 258.554521 
L 307.5815 258.554521 
z
" clip-path="url(#p48a638d76d)" style="fill: #1f77b4"/>
   </g>
   <g id="patch_111">
    <path d="M 388.9635 258.59 
L 429.6545 258.59 
L 429.6545 258.554521 
L 388.9635 258.554521 
z
" clip-path="url(#p48a638d76d)" style="fill: #1f77b4"/>
   </g>
   <g id="patch_112">
    <path d="M 63.4355 258.59 
L 104.1265 258.59 
L 104.1265 216.69293 
L 63.4355 216.69293 
z
" clip-path="url(#p48a638d76d)" style="fill: #1f77b4"/>
   </g>
   <g id="patch_113">
    <path d="M 144.8175 258.59 
L 185.5085 258.59 
L 185.5085 216.774606 
L 144.8175 216.774606 
z
" clip-path="url(#p48a638d76d)" style="fill: #1f77b4"/>
   </g>
   <g id="patch_114">
    <path d="M 226.1995 258.59 
L 266.8905 258.59 
L 266.8905 231.061324 
L 226.1995 231.061324 
z
" clip-path="url(#p48a638d76d)" style="fill: #1f77b4"/>
   </g>
   <g id="patch_115">
    <path d="M 307.5815 258.59 
L 348.2725 258.59 
L 348.2725 229.823501 
L 307.5815 229.823501 
z
" clip-path="url(#p48a638d76d)" style="fill: #1f77b4"/>
   </g>
   <g id="patch_116">
    <path d="M 388.9635 258.59 
L 429.6545 258.59 
L 429.6545 216.392697 
L 388.9635 216.392697 
z
" clip-path="url(#p48a638d76d)" style="fill: #1f77b4"/>
   </g>
   <g id="patch_117">
    <path d="M 63.4355 258.59 
L 104.1265 258.59 
L 104.1265 258.164251 
L 63.4355 258.164251 
z
" clip-path="url(#p48a638d76d)" style="fill: #1f77b4"/>
   </g>
   <g id="patch_118">
    <path d="M 144.8175 258.59 
L 185.5085 258.59 
L 185.5085 258.235209 
L 144.8175 258.235209 
z
" clip-path="url(#p48a638d76d)" style="fill: #1f77b4"/>
   </g>
   <g id="patch_119">
    <path d="M 226.1995 258.59 
L 266.8905 258.59 
L 266.8905 258.377125 
L 226.1995 258.377125 
z
" clip-path="url(#p48a638d76d)" style="fill: #1f77b4"/>
   </g>
   <g id="patch_120">
    <path d="M 307.5815 258.59 
L 348.2725 258.59 
L 348.2725 258.448084 
L 307.5815 258.448084 
z
" clip-path="url(#p48a638d76d)" style="fill: #1f77b4"/>
   </g>
   <g id="patch_121">
    <path d="M 388.9635 258.59 
L 429.6545 258.59 
L 429.6545 258.554521 
L 388.9635 258.554521 
z
" clip-path="url(#p48a638d76d)" style="fill: #1f77b4"/>
   </g>
   <g id="patch_122">
    <path d="M 63.4355 258.59 
L 104.1265 258.59 
L 104.1265 258.377125 
L 63.4355 258.377125 
z
" clip-path="url(#p48a638d76d)" style="fill: #1f77b4"/>
   </g>
   <g id="patch_123">
    <path d="M 144.8175 258.59 
L 185.5085 258.59 
L 185.5085 258.554521 
L 144.8175 258.554521 
z
" clip-path="url(#p48a638d76d)" style="fill: #1f77b4"/>
   </g>
   <g id="patch_124">
    <path d="M 226.1995 258.59 
L 266.8905 258.59 
L 266.8905 258.554521 
L 226.1995 258.554521 
z
" clip-path="url(#p48a638d76d)" style="fill: #1f77b4"/>
   </g>
   <g id="patch_125">
    <path d="M 307.5815 258.59 
L 348.2725 258.59 
L 348.2725 258.519042 
L 307.5815 258.519042 
z
" clip-path="url(#p48a638d76d)" style="fill: #1f77b4"/>
   </g>
   <g id="patch_126">
    <path d="M 388.9635 258.59 
L 429.6545 258.59 
L 429.6545 258.59 
L 388.9635 258.59 
z
" clip-path="url(#p48a638d76d)" style="fill: #1f77b4"/>
   </g>
   <g id="patch_127">
    <path d="M 63.4355 258.59 
L 104.1265 258.59 
L 104.1265 258.377125 
L 63.4355 258.377125 
z
" clip-path="url(#p48a638d76d)" style="fill: #1f77b4"/>
   </g>
   <g id="patch_128">
    <path d="M 144.8175 258.59 
L 185.5085 258.59 
L 185.5085 258.519042 
L 144.8175 258.519042 
z
" clip-path="url(#p48a638d76d)" style="fill: #1f77b4"/>
   </g>
   <g id="patch_129">
    <path d="M 226.1995 258.59 
L 266.8905 258.59 
L 266.8905 258.59 
L 226.1995 258.59 
z
" clip-path="url(#p48a638d76d)" style="fill: #1f77b4"/>
   </g>
   <g id="patch_130">
    <path d="M 307.5815 258.59 
L 348.2725 258.59 
L 348.2725 258.59 
L 307.5815 258.59 
z
" clip-path="url(#p48a638d76d)" style="fill: #1f77b4"/>
   </g>
   <g id="patch_131">
    <path d="M 388.9635 258.59 
L 429.6545 258.59 
L 429.6545 258.59 
L 388.9635 258.59 
z
" clip-path="url(#p48a638d76d)" style="fill: #1f77b4"/>
   </g>
   <g id="patch_132">
    <path d="M 63.4355 258.59 
L 104.1265 258.59 
L 104.1265 256.717886 
L 63.4355 256.717886 
z
" clip-path="url(#p48a638d76d)" style="fill: #1f77b4"/>
   </g>
   <g id="patch_133">
    <path d="M 144.8175 258.59 
L 185.5085 258.59 
L 185.5085 258.164251 
L 144.8175 258.164251 
z
" clip-path="url(#p48a638d76d)" style="fill: #1f77b4"/>
   </g>
   <g id="patch_134">
    <path d="M 226.1995 258.59 
L 266.8905 258.59 
L 266.8905 257.580028 
L 226.1995 257.580028 
z
" clip-path="url(#p48a638d76d)" style="fill: #1f77b4"/>
   </g>
   <g id="patch_135">
    <path d="M 307.5815 258.59 
L 348.2725 258.59 
L 348.2725 257.580028 
L 307.5815 257.580028 
z
" clip-path="url(#p48a638d76d)" style="fill: #1f77b4"/>
   </g>
   <g id="patch_136">
    <path d="M 388.9635 258.59 
L 429.6545 258.59 
L 429.6545 257.580028 
L 388.9635 257.580028 
z
" clip-path="url(#p48a638d76d)" style="fill: #1f77b4"/>
   </g>
   <g id="patch_137">
    <path d="M 63.4355 258.59 
L 104.1265 258.59 
L 104.1265 244.114135 
L 63.4355 244.114135 
z
" clip-path="url(#p48a638d76d)" style="fill: #1f77b4"/>
   </g>
   <g id="patch_138">
    <path d="M 144.8175 258.59 
L 185.5085 258.59 
L 185.5085 246.833411 
L 144.8175 246.833411 
z
" clip-path="url(#p48a638d76d)" style="fill: #1f77b4"/>
   </g>
   <g id="patch_139">
    <path d="M 226.1995 258.59 
L 266.8905 258.59 
L 266.8905 256.591344 
L 226.1995 256.591344 
z
" clip-path="url(#p48a638d76d)" style="fill: #1f77b4"/>
   </g>
   <g id="patch_140">
    <path d="M 307.5815 258.59 
L 348.2725 258.59 
L 348.2725 258.323907 
L 307.5815 258.323907 
z
" clip-path="url(#p48a638d76d)" style="fill: #1f77b4"/>
   </g>
   <g id="patch_141">
    <path d="M 388.9635 258.59 
L 429.6545 258.59 
L 429.6545 258.323907 
L 388.9635 258.323907 
z
" clip-path="url(#p48a638d76d)" style="fill: #1f77b4"/>
   </g>
   <g id="patch_142">
    <path d="M 63.4355 258.59 
L 104.1265 258.59 
L 104.1265 257.01118 
L 63.4355 257.01118 
z
" clip-path="url(#p48a638d76d)" style="fill: #1f77b4"/>
   </g>
   <g id="patch_143">
    <path d="M 144.8175 258.59 
L 185.5085 258.59 
L 185.5085 257.561106 
L 144.8175 257.561106 
z
" clip-path="url(#p48a638d76d)" style="fill: #1f77b4"/>
   </g>
   <g id="patch_144">
    <path d="M 226.1995 258.59 
L 266.8905 258.59 
L 266.8905 258.377125 
L 226.1995 258.377125 
z
" clip-path="url(#p48a638d76d)" style="fill: #1f77b4"/>
   </g>
   <g id="patch_145">
    <path d="M 307.5815 258.59 
L 348.2725 258.59 
L 348.2725 258.433892 
L 307.5815 258.433892 
z
" clip-path="url(#p48a638d76d)" style="fill: #1f77b4"/>
   </g>
   <g id="patch_146">
    <path d="M 388.9635 258.59 
L 429.6545 258.59 
L 429.6545 258.235209 
L 388.9635 258.235209 
z
" clip-path="url(#p48a638d76d)" style="fill: #1f77b4"/>
   </g>
   <g id="patch_147">
    <path d="M 63.4355 258.59 
L 104.1265 258.59 
L 104.1265 258.440199 
L 63.4355 258.440199 
z
" clip-path="url(#p48a638d76d)" style="fill: #1f77b4"/>
   </g>
   <g id="patch_148">
    <path d="M 144.8175 258.59 
L 185.5085 258.59 
L 185.5085 258.554521 
L 144.8175 258.554521 
z
" clip-path="url(#p48a638d76d)" style="fill: #1f77b4"/>
   </g>
   <g id="patch_149">
    <path d="M 226.1995 258.59 
L 266.8905 258.59 
L 266.8905 258.554521 
L 226.1995 258.554521 
z
" clip-path="url(#p48a638d76d)" style="fill: #1f77b4"/>
   </g>
   <g id="patch_150">
    <path d="M 307.5815 258.59 
L 348.2725 258.59 
L 348.2725 258.582116 
L 307.5815 258.582116 
z
" clip-path="url(#p48a638d76d)" style="fill: #1f77b4"/>
   </g>
   <g id="patch_151">
    <path d="M 388.9635 258.59 
L 429.6545 258.59 
L 429.6545 258.582116 
L 388.9635 258.582116 
z
" clip-path="url(#p48a638d76d)" style="fill: #1f77b4"/>
   </g>
   <g id="patch_152">
    <path d="M 63.4355 258.59 
L 104.1265 258.59 
L 104.1265 258.282515 
L 63.4355 258.282515 
z
" clip-path="url(#p48a638d76d)" style="fill: #1f77b4"/>
   </g>
   <g id="patch_153">
    <path d="M 144.8175 258.59 
L 185.5085 258.59 
L 185.5085 258.424431 
L 144.8175 258.424431 
z
" clip-path="url(#p48a638d76d)" style="fill: #1f77b4"/>
   </g>
   <g id="patch_154">
    <path d="M 226.1995 258.59 
L 266.8905 258.59 
L 266.8905 258.377125 
L 226.1995 258.377125 
z
" clip-path="url(#p48a638d76d)" style="fill: #1f77b4"/>
   </g>
   <g id="patch_155">
    <path d="M 307.5815 258.59 
L 348.2725 258.59 
L 348.2725 258.306167 
L 307.5815 258.306167 
z
" clip-path="url(#p48a638d76d)" style="fill: #1f77b4"/>
   </g>
   <g id="patch_156">
    <path d="M 388.9635 258.59 
L 429.6545 258.59 
L 429.6545 258.519042 
L 388.9635 258.519042 
z
" clip-path="url(#p48a638d76d)" style="fill: #1f77b4"/>
   </g>
   <g id="patch_157">
    <path d="M 63.4355 258.59 
L 104.1265 258.59 
L 104.1265 258.59 
L 63.4355 258.59 
z
" clip-path="url(#p48a638d76d)" style="fill: #1f77b4"/>
   </g>
   <g id="patch_158">
    <path d="M 144.8175 258.59 
L 185.5085 258.59 
L 185.5085 258.59 
L 144.8175 258.59 
z
" clip-path="url(#p48a638d76d)" style="fill: #1f77b4"/>
   </g>
   <g id="patch_159">
    <path d="M 226.1995 258.59 
L 266.8905 258.59 
L 266.8905 258.59 
L 226.1995 258.59 
z
" clip-path="url(#p48a638d76d)" style="fill: #1f77b4"/>
   </g>
   <g id="patch_160">
    <path d="M 307.5815 258.59 
L 348.2725 258.59 
L 348.2725 258.59 
L 307.5815 258.59 
z
" clip-path="url(#p48a638d76d)" style="fill: #1f77b4"/>
   </g>
   <g id="patch_161">
    <path d="M 63.4355 258.59 
L 104.1265 258.59 
L 104.1265 258.59 
L 63.4355 258.59 
z
" clip-path="url(#p48a638d76d)" style="fill: #1f77b4"/>
   </g>
   <g id="patch_162">
    <path d="M 144.8175 258.59 
L 185.5085 258.59 
L 185.5085 258.59 
L 144.8175 258.59 
z
" clip-path="url(#p48a638d76d)" style="fill: #1f77b4"/>
   </g>
   <g id="patch_163">
    <path d="M 226.1995 258.59 
L 266.8905 258.59 
L 266.8905 258.59 
L 226.1995 258.59 
z
" clip-path="url(#p48a638d76d)" style="fill: #1f77b4"/>
   </g>
   <g id="patch_164">
    <path d="M 63.4355 258.59 
L 104.1265 258.59 
L 104.1265 258.59 
L 63.4355 258.59 
z
" clip-path="url(#p48a638d76d)" style="fill: #1f77b4"/>
   </g>
   <g id="patch_165">
    <path d="M 144.8175 258.59 
L 185.5085 258.59 
L 185.5085 258.59 
L 144.8175 258.59 
z
" clip-path="url(#p48a638d76d)" style="fill: #1f77b4"/>
   </g>
   <g id="patch_166">
    <path d="M 226.1995 258.59 
L 266.8905 258.59 
L 266.8905 258.59 
L 226.1995 258.59 
z
" clip-path="url(#p48a638d76d)" style="fill: #1f77b4"/>
   </g>
   <g id="patch_167">
    <path d="M 307.5815 258.59 
L 348.2725 258.59 
L 348.2725 258.59 
L 307.5815 258.59 
z
" clip-path="url(#p48a638d76d)" style="fill: #1f77b4"/>
   </g>
   <g id="patch_168">
    <path d="M 63.4355 258.59 
L 104.1265 258.59 
L 104.1265 258.59 
L 63.4355 258.59 
z
" clip-path="url(#p48a638d76d)" style="fill: #1f77b4"/>
   </g>
   <g id="patch_169">
    <path d="M 144.8175 258.59 
L 185.5085 258.59 
L 185.5085 258.59 
L 144.8175 258.59 
z
" clip-path="url(#p48a638d76d)" style="fill: #1f77b4"/>
   </g>
   <g id="patch_170">
    <path d="M 63.4355 258.59 
L 104.1265 258.59 
L 104.1265 22.599524 
L 63.4355 22.599524 
z
" clip-path="url(#p48a638d76d)" style="fill: #1f77b4"/>
   </g>
   <g id="patch_171">
    <path d="M 144.8175 258.59 
L 185.5085 258.59 
L 185.5085 108.244914 
L 144.8175 108.244914 
z
" clip-path="url(#p48a638d76d)" style="fill: #1f77b4"/>
   </g>
   <g id="patch_172">
    <path d="M 226.1995 258.59 
L 266.8905 258.59 
L 266.8905 146.773006 
L 226.1995 146.773006 
z
" clip-path="url(#p48a638d76d)" style="fill: #1f77b4"/>
   </g>
   <g id="patch_173">
    <path d="M 307.5815 258.59 
L 348.2725 258.59 
L 348.2725 137.648585 
L 307.5815 137.648585 
z
" clip-path="url(#p48a638d76d)" style="fill: #1f77b4"/>
   </g>
   <g id="patch_174">
    <path d="M 388.9635 258.59 
L 429.6545 258.59 
L 429.6545 161.638387 
L 388.9635 161.638387 
z
" clip-path="url(#p48a638d76d)" style="fill: #1f77b4"/>
   </g>
   <g id="patch_175">
    <path d="M 63.4355 258.59 
L 104.1265 258.59 
L 104.1265 258.21747 
L 63.4355 258.21747 
z
" clip-path="url(#p48a638d76d)" style="fill: #1f77b4"/>
   </g>
   <g id="patch_176">
    <path d="M 144.8175 258.59 
L 185.5085 258.59 
L 185.5085 258.519042 
L 144.8175 258.519042 
z
" clip-path="url(#p48a638d76d)" style="fill: #1f77b4"/>
   </g>
   <g id="patch_177">
    <path d="M 226.1995 258.59 
L 266.8905 258.59 
L 266.8905 258.519042 
L 226.1995 258.519042 
z
" clip-path="url(#p48a638d76d)" style="fill: #1f77b4"/>
   </g>
   <g id="patch_178">
    <path d="M 307.5815 258.59 
L 348.2725 258.59 
L 348.2725 258.519042 
L 307.5815 258.519042 
z
" clip-path="url(#p48a638d76d)" style="fill: #1f77b4"/>
   </g>
   <g id="patch_179">
    <path d="M 388.9635 258.59 
L 429.6545 258.59 
L 429.6545 258.483563 
L 388.9635 258.483563 
z
" clip-path="url(#p48a638d76d)" style="fill: #1f77b4"/>
   </g>
   <g id="patch_180">
    <path d="M 63.4355 258.59 
L 104.1265 258.59 
L 104.1265 45.386164 
L 63.4355 45.386164 
z
" clip-path="url(#p48a638d76d)" style="fill: #1f77b4"/>
   </g>
   <g id="patch_181">
    <path d="M 144.8175 258.59 
L 185.5085 258.59 
L 185.5085 148.765375 
L 144.8175 148.765375 
z
" clip-path="url(#p48a638d76d)" style="fill: #1f77b4"/>
   </g>
   <g id="patch_182">
    <path d="M 226.1995 258.59 
L 266.8905 258.59 
L 266.8905 180.590331 
L 226.1995 180.590331 
z
" clip-path="url(#p48a638d76d)" style="fill: #1f77b4"/>
   </g>
   <g id="patch_183">
    <path d="M 307.5815 258.59 
L 348.2725 258.59 
L 348.2725 169.118629 
L 307.5815 169.118629 
z
" clip-path="url(#p48a638d76d)" style="fill: #1f77b4"/>
   </g>
   <g id="patch_184">
    <path d="M 388.9635 258.59 
L 429.6545 258.59 
L 429.6545 197.81496 
L 388.9635 197.81496 
z
" clip-path="url(#p48a638d76d)" style="fill: #1f77b4"/>
   </g>
   <g id="patch_185">
    <path d="M 63.4355 258.59 
L 104.1265 258.59 
L 104.1265 254.533557 
L 63.4355 254.533557 
z
" clip-path="url(#p48a638d76d)" style="fill: #1f77b4"/>
   </g>
   <g id="patch_186">
    <path d="M 144.8175 258.59 
L 185.5085 258.59 
L 185.5085 255.219486 
L 144.8175 255.219486 
z
" clip-path="url(#p48a638d76d)" style="fill: #1f77b4"/>
   </g>
   <g id="patch_187">
    <path d="M 226.1995 258.59 
L 266.8905 258.59 
L 266.8905 258.116945 
L 226.1995 258.116945 
z
" clip-path="url(#p48a638d76d)" style="fill: #1f77b4"/>
   </g>
   <g id="patch_188">
    <path d="M 307.5815 258.59 
L 348.2725 258.59 
L 348.2725 258.116945 
L 307.5815 258.116945 
z
" clip-path="url(#p48a638d76d)" style="fill: #1f77b4"/>
   </g>
   <g id="patch_189">
    <path d="M 388.9635 258.59 
L 429.6545 258.59 
L 429.6545 258.263592 
L 388.9635 258.263592 
z
" clip-path="url(#p48a638d76d)" style="fill: #1f77b4"/>
   </g>
   <g id="patch_190">
    <path d="M 63.4355 258.59 
L 104.1265 258.59 
L 104.1265 225.1273 
L 63.4355 225.1273 
z
" clip-path="url(#p48a638d76d)" style="fill: #1f77b4"/>
   </g>
   <g id="patch_191">
    <path d="M 144.8175 258.59 
L 185.5085 258.59 
L 185.5085 247.378606 
L 144.8175 247.378606 
z
" clip-path="url(#p48a638d76d)" style="fill: #1f77b4"/>
   </g>
   <g id="patch_192">
    <path d="M 226.1995 258.59 
L 266.8905 258.59 
L 266.8905 252.984303 
L 226.1995 252.984303 
z
" clip-path="url(#p48a638d76d)" style="fill: #1f77b4"/>
   </g>
   <g id="patch_193">
    <path d="M 307.5815 258.59 
L 348.2725 258.59 
L 348.2725 252.984303 
L 307.5815 252.984303 
z
" clip-path="url(#p48a638d76d)" style="fill: #1f77b4"/>
   </g>
   <g id="patch_194">
    <path d="M 388.9635 258.59 
L 429.6545 258.59 
L 429.6545 251.217444 
L 388.9635 251.217444 
z
" clip-path="url(#p48a638d76d)" style="fill: #1f77b4"/>
   </g>
   <g id="patch_195">
    <path d="M 63.4355 258.59 
L 104.1265 258.59 
L 104.1265 258.412605 
L 63.4355 258.412605 
z
" clip-path="url(#p48a638d76d)" style="fill: #1f77b4"/>
   </g>
   <g id="patch_196">
    <path d="M 144.8175 258.59 
L 185.5085 258.59 
L 185.5085 258.412605 
L 144.8175 258.412605 
z
" clip-path="url(#p48a638d76d)" style="fill: #1f77b4"/>
   </g>
   <g id="patch_197">
    <path d="M 226.1995 258.59 
L 266.8905 258.59 
L 266.8905 258.412605 
L 226.1995 258.412605 
z
" clip-path="url(#p48a638d76d)" style="fill: #1f77b4"/>
   </g>
   <g id="patch_198">
    <path d="M 307.5815 258.59 
L 348.2725 258.59 
L 348.2725 258.412605 
L 307.5815 258.412605 
z
" clip-path="url(#p48a638d76d)" style="fill: #1f77b4"/>
   </g>
   <g id="patch_199">
    <path d="M 388.9635 258.59 
L 429.6545 258.59 
L 429.6545 258.412605 
L 388.9635 258.412605 
z
" clip-path="url(#p48a638d76d)" style="fill: #1f77b4"/>
   </g>
   <g id="patch_200">
    <path d="M 63.4355 258.59 
L 104.1265 258.59 
L 104.1265 258.448084 
L 63.4355 258.448084 
z
" clip-path="url(#p48a638d76d)" style="fill: #1f77b4"/>
   </g>
   <g id="patch_201">
    <path d="M 144.8175 258.59 
L 185.5085 258.59 
L 185.5085 258.448084 
L 144.8175 258.448084 
z
" clip-path="url(#p48a638d76d)" style="fill: #1f77b4"/>
   </g>
   <g id="patch_202">
    <path d="M 226.1995 258.59 
L 266.8905 258.59 
L 266.8905 258.448084 
L 226.1995 258.448084 
z
" clip-path="url(#p48a638d76d)" style="fill: #1f77b4"/>
   </g>
   <g id="patch_203">
    <path d="M 307.5815 258.59 
L 348.2725 258.59 
L 348.2725 258.57226 
L 307.5815 258.57226 
z
" clip-path="url(#p48a638d76d)" style="fill: #1f77b4"/>
   </g>
   <g id="patch_204">
    <path d="M 388.9635 258.59 
L 429.6545 258.59 
L 429.6545 258.57226 
L 388.9635 258.57226 
z
" clip-path="url(#p48a638d76d)" style="fill: #1f77b4"/>
   </g>
   <g id="patch_205">
    <path d="M 63.4355 258.59 
L 104.1265 258.59 
L 104.1265 219.10015 
L 63.4355 219.10015 
z
" clip-path="url(#p48a638d76d)" style="fill: #1f77b4"/>
   </g>
   <g id="patch_206">
    <path d="M 144.8175 258.59 
L 185.5085 258.59 
L 185.5085 217.655129 
L 144.8175 217.655129 
z
" clip-path="url(#p48a638d76d)" style="fill: #1f77b4"/>
   </g>
   <g id="patch_207">
    <path d="M 226.1995 258.59 
L 266.8905 258.59 
L 266.8905 243.812957 
L 226.1995 243.812957 
z
" clip-path="url(#p48a638d76d)" style="fill: #1f77b4"/>
   </g>
   <g id="patch_208">
    <path d="M 307.5815 258.59 
L 348.2725 258.59 
L 348.2725 243.812957 
L 307.5815 243.812957 
z
" clip-path="url(#p48a638d76d)" style="fill: #1f77b4"/>
   </g>
   <g id="patch_209">
    <path d="M 388.9635 258.59 
L 429.6545 258.59 
L 429.6545 218.609363 
L 388.9635 218.609363 
z
" clip-path="url(#p48a638d76d)" style="fill: #1f77b4"/>
   </g>
   <g id="patch_210">
    <path d="M 63.4355 258.59 
L 104.1265 258.59 
L 104.1265 258.483563 
L 63.4355 258.483563 
z
" clip-path="url(#p48a638d76d)" style="fill: #1f77b4"/>
   </g>
   <g id="patch_211">
    <path d="M 144.8175 258.59 
L 185.5085 258.59 
L 185.5085 258.483563 
L 144.8175 258.483563 
z
" clip-path="url(#p48a638d76d)" style="fill: #1f77b4"/>
   </g>
   <g id="patch_212">
    <path d="M 226.1995 258.59 
L 266.8905 258.59 
L 266.8905 258.59 
L 226.1995 258.59 
z
" clip-path="url(#p48a638d76d)" style="fill: #1f77b4"/>
   </g>
   <g id="patch_213">
    <path d="M 307.5815 258.59 
L 348.2725 258.59 
L 348.2725 258.59 
L 307.5815 258.59 
z
" clip-path="url(#p48a638d76d)" style="fill: #1f77b4"/>
   </g>
   <g id="patch_214">
    <path d="M 388.9635 258.59 
L 429.6545 258.59 
L 429.6545 258.59 
L 388.9635 258.59 
z
" clip-path="url(#p48a638d76d)" style="fill: #1f77b4"/>
   </g>
   <g id="patch_215">
    <path d="M 63.4355 258.59 
L 104.1265 258.59 
L 104.1265 235.094617 
L 63.4355 235.094617 
z
" clip-path="url(#p48a638d76d)" style="fill: #1f77b4"/>
   </g>
   <g id="patch_216">
    <path d="M 144.8175 258.59 
L 185.5085 258.59 
L 185.5085 241.086678 
L 144.8175 241.086678 
z
" clip-path="url(#p48a638d76d)" style="fill: #1f77b4"/>
   </g>
   <g id="patch_217">
    <path d="M 226.1995 258.59 
L 266.8905 258.59 
L 266.8905 245.584045 
L 226.1995 245.584045 
z
" clip-path="url(#p48a638d76d)" style="fill: #1f77b4"/>
   </g>
   <g id="patch_218">
    <path d="M 307.5815 258.59 
L 348.2725 258.59 
L 348.2725 238.880185 
L 307.5815 238.880185 
z
" clip-path="url(#p48a638d76d)" style="fill: #1f77b4"/>
   </g>
   <g id="patch_219">
    <path d="M 388.9635 258.59 
L 429.6545 258.59 
L 429.6545 253.649907 
L 388.9635 253.649907 
z
" clip-path="url(#p48a638d76d)" style="fill: #1f77b4"/>
   </g>
   <g id="patch_220">
    <path d="M 63.4355 258.59 
L 104.1265 258.59 
L 104.1265 258.057814 
L 63.4355 258.057814 
z
" clip-path="url(#p48a638d76d)" style="fill: #1f77b4"/>
   </g>
   <g id="patch_221">
    <path d="M 144.8175 258.59 
L 185.5085 258.59 
L 185.5085 258.093293 
L 144.8175 258.093293 
z
" clip-path="url(#p48a638d76d)" style="fill: #1f77b4"/>
   </g>
   <g id="patch_222">
    <path d="M 226.1995 258.59 
L 266.8905 258.59 
L 266.8905 257.880418 
L 226.1995 257.880418 
z
" clip-path="url(#p48a638d76d)" style="fill: #1f77b4"/>
   </g>
   <g id="patch_223">
    <path d="M 307.5815 258.59 
L 348.2725 258.59 
L 348.2725 258.412605 
L 307.5815 258.412605 
z
" clip-path="url(#p48a638d76d)" style="fill: #1f77b4"/>
   </g>
   <g id="patch_224">
    <path d="M 388.9635 258.59 
L 429.6545 258.59 
L 429.6545 258.412605 
L 388.9635 258.412605 
z
" clip-path="url(#p48a638d76d)" style="fill: #1f77b4"/>
   </g>
   <g id="patch_225">
    <path d="M 63.4355 258.59 
L 104.1265 258.59 
L 104.1265 258.093293 
L 63.4355 258.093293 
z
" clip-path="url(#p48a638d76d)" style="fill: #1f77b4"/>
   </g>
   <g id="patch_226">
    <path d="M 144.8175 258.59 
L 185.5085 258.59 
L 185.5085 258.093293 
L 144.8175 258.093293 
z
" clip-path="url(#p48a638d76d)" style="fill: #1f77b4"/>
   </g>
   <g id="patch_227">
    <path d="M 226.1995 258.59 
L 266.8905 258.59 
L 266.8905 258.093293 
L 226.1995 258.093293 
z
" clip-path="url(#p48a638d76d)" style="fill: #1f77b4"/>
   </g>
   <g id="patch_228">
    <path d="M 307.5815 258.59 
L 348.2725 258.59 
L 348.2725 258.566347 
L 307.5815 258.566347 
z
" clip-path="url(#p48a638d76d)" style="fill: #1f77b4"/>
   </g>
   <g id="patch_229">
    <path d="M 388.9635 258.59 
L 429.6545 258.59 
L 429.6545 258.566347 
L 388.9635 258.566347 
z
" clip-path="url(#p48a638d76d)" style="fill: #1f77b4"/>
   </g>
   <g id="patch_230">
    <path d="M 63.4355 258.59 
L 104.1265 258.59 
L 104.1265 258.164251 
L 63.4355 258.164251 
z
" clip-path="url(#p48a638d76d)" style="fill: #1f77b4"/>
   </g>
   <g id="patch_231">
    <path d="M 144.8175 258.59 
L 185.5085 258.59 
L 185.5085 258.519042 
L 144.8175 258.519042 
z
" clip-path="url(#p48a638d76d)" style="fill: #1f77b4"/>
   </g>
   <g id="patch_232">
    <path d="M 226.1995 258.59 
L 266.8905 258.59 
L 266.8905 258.519042 
L 226.1995 258.519042 
z
" clip-path="url(#p48a638d76d)" style="fill: #1f77b4"/>
   </g>
   <g id="patch_233">
    <path d="M 307.5815 258.59 
L 348.2725 258.59 
L 348.2725 258.59 
L 307.5815 258.59 
z
" clip-path="url(#p48a638d76d)" style="fill: #1f77b4"/>
   </g>
   <g id="patch_234">
    <path d="M 388.9635 258.59 
L 429.6545 258.59 
L 429.6545 258.59 
L 388.9635 258.59 
z
" clip-path="url(#p48a638d76d)" style="fill: #1f77b4"/>
   </g>
   <g id="patch_235">
    <path d="M 63.4355 258.59 
L 104.1265 258.59 
L 104.1265 252.122668 
L 63.4355 252.122668 
z
" clip-path="url(#p48a638d76d)" style="fill: #1f77b4"/>
   </g>
   <g id="patch_236">
    <path d="M 144.8175 258.59 
L 185.5085 258.59 
L 185.5085 256.025368 
L 144.8175 256.025368 
z
" clip-path="url(#p48a638d76d)" style="fill: #1f77b4"/>
   </g>
   <g id="patch_237">
    <path d="M 226.1995 258.59 
L 266.8905 258.59 
L 266.8905 256.025368 
L 226.1995 256.025368 
z
" clip-path="url(#p48a638d76d)" style="fill: #1f77b4"/>
   </g>
   <g id="patch_238">
    <path d="M 307.5815 258.59 
L 348.2725 258.59 
L 348.2725 254.7836 
L 307.5815 254.7836 
z
" clip-path="url(#p48a638d76d)" style="fill: #1f77b4"/>
   </g>
   <g id="patch_239">
    <path d="M 388.9635 258.59 
L 429.6545 258.59 
L 429.6545 256.131806 
L 388.9635 256.131806 
z
" clip-path="url(#p48a638d76d)" style="fill: #1f77b4"/>
   </g>
   <g id="patch_240">
    <path d="M 63.4355 258.59 
L 104.1265 258.59 
L 104.1265 258.59 
L 63.4355 258.59 
z
" clip-path="url(#p48a638d76d)" style="fill: #1f77b4"/>
   </g>
   <g id="patch_241">
    <path d="M 63.4355 258.59 
L 104.1265 258.59 
L 104.1265 151.591078 
L 63.4355 151.591078 
z
" clip-path="url(#p48a638d76d)" style="fill: #1f77b4"/>
   </g>
   <g id="patch_242">
    <path d="M 144.8175 258.59 
L 185.5085 258.59 
L 185.5085 171.100617 
L 144.8175 171.100617 
z
" clip-path="url(#p48a638d76d)" style="fill: #1f77b4"/>
   </g>
   <g id="patch_243">
    <path d="M 226.1995 258.59 
L 266.8905 258.59 
L 266.8905 168.693607 
L 226.1995 168.693607 
z
" clip-path="url(#p48a638d76d)" style="fill: #1f77b4"/>
   </g>
   <g id="patch_244">
    <path d="M 307.5815 258.59 
L 348.2725 258.59 
L 348.2725 181.52087 
L 307.5815 181.52087 
z
" clip-path="url(#p48a638d76d)" style="fill: #1f77b4"/>
   </g>
   <g id="patch_245">
    <path d="M 388.9635 258.59 
L 429.6545 258.59 
L 429.6545 223.966832 
L 388.9635 223.966832 
z
" clip-path="url(#p48a638d76d)" style="fill: #1f77b4"/>
   </g>
   <g id="patch_246">
    <path d="M 63.4355 258.59 
L 104.1265 258.59 
L 104.1265 197.16676 
L 63.4355 197.16676 
z
" clip-path="url(#p48a638d76d)" style="fill: #1f77b4"/>
   </g>
   <g id="patch_247">
    <path d="M 144.8175 258.59 
L 185.5085 258.59 
L 185.5085 171.564865 
L 144.8175 171.564865 
z
" clip-path="url(#p48a638d76d)" style="fill: #1f77b4"/>
   </g>
   <g id="patch_248">
    <path d="M 226.1995 258.59 
L 266.8905 258.59 
L 266.8905 213.388102 
L 226.1995 213.388102 
z
" clip-path="url(#p48a638d76d)" style="fill: #1f77b4"/>
   </g>
   <g id="patch_249">
    <path d="M 307.5815 258.59 
L 348.2725 258.59 
L 348.2725 215.55322 
L 307.5815 215.55322 
z
" clip-path="url(#p48a638d76d)" style="fill: #1f77b4"/>
   </g>
   <g id="patch_250">
    <path d="M 388.9635 258.59 
L 429.6545 258.59 
L 429.6545 229.524988 
L 388.9635 229.524988 
z
" clip-path="url(#p48a638d76d)" style="fill: #1f77b4"/>
   </g>
   <g id="patch_251">
    <path d="M 63.4355 258.59 
L 104.1265 258.59 
L 104.1265 258.566347 
L 63.4355 258.566347 
z
" clip-path="url(#p48a638d76d)" style="fill: #1f77b4"/>
   </g>
   <g id="patch_252">
    <path d="M 144.8175 258.59 
L 185.5085 258.59 
L 185.5085 258.566347 
L 144.8175 258.566347 
z
" clip-path="url(#p48a638d76d)" style="fill: #1f77b4"/>
   </g>
   <g id="patch_253">
    <path d="M 226.1995 258.59 
L 266.8905 258.59 
L 266.8905 258.566347 
L 226.1995 258.566347 
z
" clip-path="url(#p48a638d76d)" style="fill: #1f77b4"/>
   </g>
   <g id="patch_254">
    <path d="M 307.5815 258.59 
L 348.2725 258.59 
L 348.2725 258.59 
L 307.5815 258.59 
z
" clip-path="url(#p48a638d76d)" style="fill: #1f77b4"/>
   </g>
   <g id="patch_255">
    <path d="M 388.9635 258.59 
L 429.6545 258.59 
L 429.6545 258.59 
L 388.9635 258.59 
z
" clip-path="url(#p48a638d76d)" style="fill: #1f77b4"/>
   </g>
   <g id="patch_256">
    <path d="M 63.4355 258.59 
L 104.1265 258.59 
L 104.1265 256.603171 
L 63.4355 256.603171 
z
" clip-path="url(#p48a638d76d)" style="fill: #1f77b4"/>
   </g>
   <g id="patch_257">
    <path d="M 144.8175 258.59 
L 185.5085 258.59 
L 185.5085 256.437602 
L 144.8175 256.437602 
z
" clip-path="url(#p48a638d76d)" style="fill: #1f77b4"/>
   </g>
   <g id="patch_258">
    <path d="M 226.1995 258.59 
L 266.8905 258.59 
L 266.8905 258.412605 
L 226.1995 258.412605 
z
" clip-path="url(#p48a638d76d)" style="fill: #1f77b4"/>
   </g>
   <g id="patch_259">
    <path d="M 307.5815 258.59 
L 348.2725 258.59 
L 348.2725 258.536781 
L 307.5815 258.536781 
z
" clip-path="url(#p48a638d76d)" style="fill: #1f77b4"/>
   </g>
   <g id="patch_260">
    <path d="M 388.9635 258.59 
L 429.6545 258.59 
L 429.6545 258.536781 
L 388.9635 258.536781 
z
" clip-path="url(#p48a638d76d)" style="fill: #1f77b4"/>
   </g>
   <g id="patch_261">
    <path d="M 63.4355 258.59 
L 104.1265 258.59 
L 104.1265 258.164251 
L 63.4355 258.164251 
z
" clip-path="url(#p48a638d76d)" style="fill: #1f77b4"/>
   </g>
   <g id="patch_262">
    <path d="M 144.8175 258.59 
L 185.5085 258.59 
L 185.5085 258.306167 
L 144.8175 258.306167 
z
" clip-path="url(#p48a638d76d)" style="fill: #1f77b4"/>
   </g>
   <g id="patch_263">
    <path d="M 226.1995 258.59 
L 266.8905 258.59 
L 266.8905 258.448084 
L 226.1995 258.448084 
z
" clip-path="url(#p48a638d76d)" style="fill: #1f77b4"/>
   </g>
   <g id="patch_264">
    <path d="M 307.5815 258.59 
L 348.2725 258.59 
L 348.2725 258.448084 
L 307.5815 258.448084 
z
" clip-path="url(#p48a638d76d)" style="fill: #1f77b4"/>
   </g>
   <g id="patch_265">
    <path d="M 388.9635 258.59 
L 429.6545 258.59 
L 429.6545 258.258862 
L 388.9635 258.258862 
z
" clip-path="url(#p48a638d76d)" style="fill: #1f77b4"/>
   </g>
   <g id="patch_266">
    <path d="M 63.4355 258.59 
L 104.1265 258.59 
L 104.1265 258.341646 
L 63.4355 258.341646 
z
" clip-path="url(#p48a638d76d)" style="fill: #1f77b4"/>
   </g>
   <g id="patch_267">
    <path d="M 144.8175 258.59 
L 185.5085 258.59 
L 185.5085 258.341646 
L 144.8175 258.341646 
z
" clip-path="url(#p48a638d76d)" style="fill: #1f77b4"/>
   </g>
   <g id="patch_268">
    <path d="M 226.1995 258.59 
L 266.8905 258.59 
L 266.8905 258.57226 
L 226.1995 258.57226 
z
" clip-path="url(#p48a638d76d)" style="fill: #1f77b4"/>
   </g>
   <g id="patch_269">
    <path d="M 307.5815 258.59 
L 348.2725 258.59 
L 348.2725 258.57226 
L 307.5815 258.57226 
z
" clip-path="url(#p48a638d76d)" style="fill: #1f77b4"/>
   </g>
   <g id="patch_270">
    <path d="M 388.9635 258.59 
L 429.6545 258.59 
L 429.6545 258.57226 
L 388.9635 258.57226 
z
" clip-path="url(#p48a638d76d)" style="fill: #1f77b4"/>
   </g>
   <g id="patch_271">
    <path d="M 63.4355 258.59 
L 104.1265 258.59 
L 104.1265 257.807489 
L 63.4355 257.807489 
z
" clip-path="url(#p48a638d76d)" style="fill: #1f77b4"/>
   </g>
   <g id="patch_272">
    <path d="M 144.8175 258.59 
L 185.5085 258.59 
L 185.5085 258.53481 
L 144.8175 258.53481 
z
" clip-path="url(#p48a638d76d)" style="fill: #1f77b4"/>
   </g>
   <g id="patch_273">
    <path d="M 226.1995 258.59 
L 266.8905 258.59 
L 266.8905 258.53481 
L 226.1995 258.53481 
z
" clip-path="url(#p48a638d76d)" style="fill: #1f77b4"/>
   </g>
   <g id="patch_274">
    <path d="M 307.5815 258.59 
L 348.2725 258.59 
L 348.2725 258.53481 
L 307.5815 258.53481 
z
" clip-path="url(#p48a638d76d)" style="fill: #1f77b4"/>
   </g>
   <g id="patch_275">
    <path d="M 388.9635 258.59 
L 429.6545 258.59 
L 429.6545 258.53481 
L 388.9635 258.53481 
z
" clip-path="url(#p48a638d76d)" style="fill: #1f77b4"/>
   </g>
   <g id="patch_276">
    <path d="M 63.4355 258.59 
L 104.1265 258.59 
L 104.1265 219.787246 
L 63.4355 219.787246 
z
" clip-path="url(#p48a638d76d)" style="fill: #1f77b4"/>
   </g>
   <g id="patch_277">
    <path d="M 144.8175 258.59 
L 185.5085 258.59 
L 185.5085 246.807116 
L 144.8175 246.807116 
z
" clip-path="url(#p48a638d76d)" style="fill: #1f77b4"/>
   </g>
   <g id="patch_278">
    <path d="M 226.1995 258.59 
L 266.8905 258.59 
L 266.8905 245.633851 
L 226.1995 245.633851 
z
" clip-path="url(#p48a638d76d)" style="fill: #1f77b4"/>
   </g>
   <g id="patch_279">
    <path d="M 307.5815 258.59 
L 348.2725 258.59 
L 348.2725 245.853005 
L 307.5815 245.853005 
z
" clip-path="url(#p48a638d76d)" style="fill: #1f77b4"/>
   </g>
   <g id="patch_280">
    <path d="M 388.9635 258.59 
L 429.6545 258.59 
L 429.6545 219.23592 
L 388.9635 219.23592 
z
" clip-path="url(#p48a638d76d)" style="fill: #1f77b4"/>
   </g>
   <g id="patch_281">
    <path d="M 63.4355 258.59 
L 104.1265 258.59 
L 104.1265 250.829539 
L 63.4355 250.829539 
z
" clip-path="url(#p48a638d76d)" style="fill: #1f77b4"/>
   </g>
   <g id="patch_282">
    <path d="M 144.8175 258.59 
L 185.5085 258.59 
L 185.5085 257.507888 
L 144.8175 257.507888 
z
" clip-path="url(#p48a638d76d)" style="fill: #1f77b4"/>
   </g>
   <g id="patch_283">
    <path d="M 226.1995 258.59 
L 266.8905 258.59 
L 266.8905 257.507888 
L 226.1995 257.507888 
z
" clip-path="url(#p48a638d76d)" style="fill: #1f77b4"/>
   </g>
   <g id="patch_284">
    <path d="M 307.5815 258.59 
L 348.2725 258.59 
L 348.2725 257.507888 
L 307.5815 257.507888 
z
" clip-path="url(#p48a638d76d)" style="fill: #1f77b4"/>
   </g>
   <g id="patch_285">
    <path d="M 388.9635 258.59 
L 429.6545 258.59 
L 429.6545 257.507888 
L 388.9635 257.507888 
z
" clip-path="url(#p48a638d76d)" style="fill: #1f77b4"/>
   </g>
   <g id="patch_286">
    <path d="M 63.4355 258.59 
L 104.1265 258.59 
L 104.1265 258.519042 
L 63.4355 258.519042 
z
" clip-path="url(#p48a638d76d)" style="fill: #1f77b4"/>
   </g>
   <g id="patch_287">
    <path d="M 144.8175 258.59 
L 185.5085 258.59 
L 185.5085 258.566347 
L 144.8175 258.566347 
z
" clip-path="url(#p48a638d76d)" style="fill: #1f77b4"/>
   </g>
   <g id="patch_288">
    <path d="M 226.1995 258.59 
L 266.8905 258.59 
L 266.8905 258.566347 
L 226.1995 258.566347 
z
" clip-path="url(#p48a638d76d)" style="fill: #1f77b4"/>
   </g>
   <g id="patch_289">
    <path d="M 307.5815 258.59 
L 348.2725 258.59 
L 348.2725 258.566347 
L 307.5815 258.566347 
z
" clip-path="url(#p48a638d76d)" style="fill: #1f77b4"/>
   </g>
   <g id="patch_290">
    <path d="M 388.9635 258.59 
L 429.6545 258.59 
L 429.6545 258.554521 
L 388.9635 258.554521 
z
" clip-path="url(#p48a638d76d)" style="fill: #1f77b4"/>
   </g>
   <g id="patch_291">
    <path d="M 63.4355 258.59 
L 104.1265 258.59 
L 104.1265 257.270178 
L 63.4355 257.270178 
z
" clip-path="url(#p48a638d76d)" style="fill: #1f77b4"/>
   </g>
   <g id="patch_292">
    <path d="M 144.8175 258.59 
L 185.5085 258.59 
L 185.5085 257.099878 
L 144.8175 257.099878 
z
" clip-path="url(#p48a638d76d)" style="fill: #1f77b4"/>
   </g>
   <g id="patch_293">
    <path d="M 226.1995 258.59 
L 266.8905 258.59 
L 266.8905 257.951376 
L 226.1995 257.951376 
z
" clip-path="url(#p48a638d76d)" style="fill: #1f77b4"/>
   </g>
   <g id="patch_294">
    <path d="M 307.5815 258.59 
L 348.2725 258.59 
L 348.2725 258.547425 
L 307.5815 258.547425 
z
" clip-path="url(#p48a638d76d)" style="fill: #1f77b4"/>
   </g>
   <g id="patch_295">
    <path d="M 388.9635 258.59 
L 429.6545 258.59 
L 429.6545 258.547425 
L 388.9635 258.547425 
z
" clip-path="url(#p48a638d76d)" style="fill: #1f77b4"/>
   </g>
   <g id="patch_296">
    <path d="M 63.4355 258.59 
L 104.1265 258.59 
L 104.1265 257.795268 
L 63.4355 257.795268 
z
" clip-path="url(#p48a638d76d)" style="fill: #1f77b4"/>
   </g>
   <g id="patch_297">
    <path d="M 144.8175 258.59 
L 185.5085 258.59 
L 185.5085 258.519042 
L 144.8175 258.519042 
z
" clip-path="url(#p48a638d76d)" style="fill: #1f77b4"/>
   </g>
   <g id="patch_298">
    <path d="M 226.1995 258.59 
L 266.8905 258.59 
L 266.8905 258.519042 
L 226.1995 258.519042 
z
" clip-path="url(#p48a638d76d)" style="fill: #1f77b4"/>
   </g>
   <g id="patch_299">
    <path d="M 307.5815 258.59 
L 348.2725 258.59 
L 348.2725 258.519042 
L 307.5815 258.519042 
z
" clip-path="url(#p48a638d76d)" style="fill: #1f77b4"/>
   </g>
   <g id="patch_300">
    <path d="M 388.9635 258.59 
L 429.6545 258.59 
L 429.6545 258.519042 
L 388.9635 258.519042 
z
" clip-path="url(#p48a638d76d)" style="fill: #1f77b4"/>
   </g>
   <g id="patch_301">
    <path d="M 63.4355 258.59 
L 104.1265 258.59 
L 104.1265 258.164251 
L 63.4355 258.164251 
z
" clip-path="url(#p48a638d76d)" style="fill: #1f77b4"/>
   </g>
   <g id="patch_302">
    <path d="M 144.8175 258.59 
L 185.5085 258.59 
L 185.5085 258.519042 
L 144.8175 258.519042 
z
" clip-path="url(#p48a638d76d)" style="fill: #1f77b4"/>
   </g>
   <g id="patch_303">
    <path d="M 226.1995 258.59 
L 266.8905 258.59 
L 266.8905 258.519042 
L 226.1995 258.519042 
z
" clip-path="url(#p48a638d76d)" style="fill: #1f77b4"/>
   </g>
   <g id="patch_304">
    <path d="M 307.5815 258.59 
L 348.2725 258.59 
L 348.2725 258.519042 
L 307.5815 258.519042 
z
" clip-path="url(#p48a638d76d)" style="fill: #1f77b4"/>
   </g>
   <g id="patch_305">
    <path d="M 388.9635 258.59 
L 429.6545 258.59 
L 429.6545 258.575808 
L 388.9635 258.575808 
z
" clip-path="url(#p48a638d76d)" style="fill: #1f77b4"/>
   </g>
   <g id="patch_306">
    <path d="M 63.4355 258.59 
L 104.1265 258.59 
L 104.1265 258.519042 
L 63.4355 258.519042 
z
" clip-path="url(#p48a638d76d)" style="fill: #1f77b4"/>
   </g>
   <g id="patch_307">
    <path d="M 144.8175 258.59 
L 185.5085 258.59 
L 185.5085 258.59 
L 144.8175 258.59 
z
" clip-path="url(#p48a638d76d)" style="fill: #1f77b4"/>
   </g>
   <g id="patch_308">
    <path d="M 226.1995 258.59 
L 266.8905 258.59 
L 266.8905 258.59 
L 226.1995 258.59 
z
" clip-path="url(#p48a638d76d)" style="fill: #1f77b4"/>
   </g>
   <g id="patch_309">
    <path d="M 307.5815 258.59 
L 348.2725 258.59 
L 348.2725 258.59 
L 307.5815 258.59 
z
" clip-path="url(#p48a638d76d)" style="fill: #1f77b4"/>
   </g>
   <g id="patch_310">
    <path d="M 388.9635 258.59 
L 429.6545 258.59 
L 429.6545 258.59 
L 388.9635 258.59 
z
" clip-path="url(#p48a638d76d)" style="fill: #1f77b4"/>
   </g>
   <g id="patch_311">
    <path d="M 63.4355 258.59 
L 104.1265 258.59 
L 104.1265 258.59 
L 63.4355 258.59 
z
" clip-path="url(#p48a638d76d)" style="fill: #1f77b4"/>
   </g>
   <g id="patch_312">
    <path d="M 144.8175 258.59 
L 185.5085 258.59 
L 185.5085 258.59 
L 144.8175 258.59 
z
" clip-path="url(#p48a638d76d)" style="fill: #1f77b4"/>
   </g>
   <g id="patch_313">
    <path d="M 63.4355 258.59 
L 104.1265 258.59 
L 104.1265 150.266107 
L 63.4355 150.266107 
z
" clip-path="url(#p48a638d76d)" style="fill: #1f77b4"/>
   </g>
   <g id="patch_314">
    <path d="M 144.8175 258.59 
L 185.5085 258.59 
L 185.5085 151.063527 
L 144.8175 151.063527 
z
" clip-path="url(#p48a638d76d)" style="fill: #1f77b4"/>
   </g>
   <g id="patch_315">
    <path d="M 226.1995 258.59 
L 266.8905 258.59 
L 266.8905 132.135634 
L 226.1995 132.135634 
z
" clip-path="url(#p48a638d76d)" style="fill: #1f77b4"/>
   </g>
   <g id="patch_316">
    <path d="M 307.5815 258.59 
L 348.2725 258.59 
L 348.2725 202.05137 
L 307.5815 202.05137 
z
" clip-path="url(#p48a638d76d)" style="fill: #1f77b4"/>
   </g>
   <g id="patch_317">
    <path d="M 388.9635 258.59 
L 429.6545 258.59 
L 429.6545 142.18196 
L 388.9635 142.18196 
z
" clip-path="url(#p48a638d76d)" style="fill: #1f77b4"/>
   </g>
   <g id="patch_318">
    <path d="M 63.4355 258.59 
L 104.1265 258.59 
L 104.1265 167.048636 
L 63.4355 167.048636 
z
" clip-path="url(#p48a638d76d)" style="fill: #1f77b4"/>
   </g>
   <g id="patch_319">
    <path d="M 144.8175 258.59 
L 185.5085 258.59 
L 185.5085 101.148011 
L 144.8175 101.148011 
z
" clip-path="url(#p48a638d76d)" style="fill: #1f77b4"/>
   </g>
   <g id="patch_320">
    <path d="M 226.1995 258.59 
L 266.8905 258.59 
L 266.8905 180.000079 
L 226.1995 180.000079 
z
" clip-path="url(#p48a638d76d)" style="fill: #1f77b4"/>
   </g>
   <g id="patch_321">
    <path d="M 307.5815 258.59 
L 348.2725 258.59 
L 348.2725 196.148 
L 307.5815 196.148 
z
" clip-path="url(#p48a638d76d)" style="fill: #1f77b4"/>
   </g>
   <g id="patch_322">
    <path d="M 388.9635 258.59 
L 429.6545 258.59 
L 429.6545 199.829651 
L 388.9635 199.829651 
z
" clip-path="url(#p48a638d76d)" style="fill: #1f77b4"/>
   </g>
   <g id="patch_323">
    <path d="M 63.4355 258.59 
L 104.1265 258.59 
L 104.1265 258.223383 
L 63.4355 258.223383 
z
" clip-path="url(#p48a638d76d)" style="fill: #1f77b4"/>
   </g>
   <g id="patch_324">
    <path d="M 144.8175 258.59 
L 185.5085 258.59 
L 185.5085 258.270688 
L 144.8175 258.270688 
z
" clip-path="url(#p48a638d76d)" style="fill: #1f77b4"/>
   </g>
   <g id="patch_325">
    <path d="M 226.1995 258.59 
L 266.8905 258.59 
L 266.8905 258.361357 
L 226.1995 258.361357 
z
" clip-path="url(#p48a638d76d)" style="fill: #1f77b4"/>
   </g>
   <g id="patch_326">
    <path d="M 307.5815 258.59 
L 348.2725 258.59 
L 348.2725 258.483563 
L 307.5815 258.483563 
z
" clip-path="url(#p48a638d76d)" style="fill: #1f77b4"/>
   </g>
   <g id="patch_327">
    <path d="M 388.9635 258.59 
L 429.6545 258.59 
L 429.6545 258.377125 
L 388.9635 258.377125 
z
" clip-path="url(#p48a638d76d)" style="fill: #1f77b4"/>
   </g>
   <g id="patch_328">
    <path d="M 63.4355 258.59 
L 104.1265 258.59 
L 104.1265 201.362201 
L 63.4355 201.362201 
z
" clip-path="url(#p48a638d76d)" style="fill: #1f77b4"/>
   </g>
   <g id="patch_329">
    <path d="M 144.8175 258.59 
L 185.5085 258.59 
L 185.5085 217.269289 
L 144.8175 217.269289 
z
" clip-path="url(#p48a638d76d)" style="fill: #1f77b4"/>
   </g>
   <g id="patch_330">
    <path d="M 226.1995 258.59 
L 266.8905 258.59 
L 266.8905 248.886707 
L 226.1995 248.886707 
z
" clip-path="url(#p48a638d76d)" style="fill: #1f77b4"/>
   </g>
   <g id="patch_331">
    <path d="M 307.5815 258.59 
L 348.2725 258.59 
L 348.2725 245.851779 
L 307.5815 245.851779 
z
" clip-path="url(#p48a638d76d)" style="fill: #1f77b4"/>
   </g>
   <g id="patch_332">
    <path d="M 388.9635 258.59 
L 429.6545 258.59 
L 429.6545 254.705279 
L 388.9635 254.705279 
z
" clip-path="url(#p48a638d76d)" style="fill: #1f77b4"/>
   </g>
   <g id="patch_333">
    <path d="M 63.4355 258.59 
L 104.1265 258.59 
L 104.1265 258.150059 
L 63.4355 258.150059 
z
" clip-path="url(#p48a638d76d)" style="fill: #1f77b4"/>
   </g>
   <g id="patch_334">
    <path d="M 144.8175 258.59 
L 185.5085 258.59 
L 185.5085 258.549452 
L 144.8175 258.549452 
z
" clip-path="url(#p48a638d76d)" style="fill: #1f77b4"/>
   </g>
   <g id="patch_335">
    <path d="M 226.1995 258.59 
L 266.8905 258.59 
L 266.8905 258.549452 
L 226.1995 258.549452 
z
" clip-path="url(#p48a638d76d)" style="fill: #1f77b4"/>
   </g>
   <g id="patch_336">
    <path d="M 307.5815 258.59 
L 348.2725 258.59 
L 348.2725 258.549452 
L 307.5815 258.549452 
z
" clip-path="url(#p48a638d76d)" style="fill: #1f77b4"/>
   </g>
   <g id="patch_337">
    <path d="M 388.9635 258.59 
L 429.6545 258.59 
L 429.6545 258.549452 
L 388.9635 258.549452 
z
" clip-path="url(#p48a638d76d)" style="fill: #1f77b4"/>
   </g>
   <g id="patch_338">
    <path d="M 63.4355 258.59 
L 104.1265 258.59 
L 104.1265 247.138752 
L 63.4355 247.138752 
z
" clip-path="url(#p48a638d76d)" style="fill: #1f77b4"/>
   </g>
   <g id="patch_339">
    <path d="M 144.8175 258.59 
L 185.5085 258.59 
L 185.5085 257.653375 
L 144.8175 257.653375 
z
" clip-path="url(#p48a638d76d)" style="fill: #1f77b4"/>
   </g>
   <g id="patch_340">
    <path d="M 226.1995 258.59 
L 266.8905 258.59 
L 266.8905 257.653375 
L 226.1995 257.653375 
z
" clip-path="url(#p48a638d76d)" style="fill: #1f77b4"/>
   </g>
   <g id="patch_341">
    <path d="M 307.5815 258.59 
L 348.2725 258.59 
L 348.2725 257.653375 
L 307.5815 257.653375 
z
" clip-path="url(#p48a638d76d)" style="fill: #1f77b4"/>
   </g>
   <g id="patch_342">
    <path d="M 388.9635 258.59 
L 429.6545 258.59 
L 429.6545 257.653375 
L 388.9635 257.653375 
z
" clip-path="url(#p48a638d76d)" style="fill: #1f77b4"/>
   </g>
   <g id="patch_343">
    <path d="M 63.4355 258.59 
L 104.1265 258.59 
L 104.1265 250.76686 
L 63.4355 250.76686 
z
" clip-path="url(#p48a638d76d)" style="fill: #1f77b4"/>
   </g>
   <g id="patch_344">
    <path d="M 144.8175 258.59 
L 185.5085 258.59 
L 185.5085 252.735949 
L 144.8175 252.735949 
z
" clip-path="url(#p48a638d76d)" style="fill: #1f77b4"/>
   </g>
   <g id="patch_345">
    <path d="M 226.1995 258.59 
L 266.8905 258.59 
L 266.8905 251.44451 
L 226.1995 251.44451 
z
" clip-path="url(#p48a638d76d)" style="fill: #1f77b4"/>
   </g>
   <g id="patch_346">
    <path d="M 307.5815 258.59 
L 348.2725 258.59 
L 348.2725 257.312753 
L 307.5815 257.312753 
z
" clip-path="url(#p48a638d76d)" style="fill: #1f77b4"/>
   </g>
   <g id="patch_347">
    <path d="M 388.9635 258.59 
L 429.6545 258.59 
L 429.6545 240.050596 
L 388.9635 240.050596 
z
" clip-path="url(#p48a638d76d)" style="fill: #1f77b4"/>
   </g>
   <g id="patch_348">
    <path d="M 63.4355 258.59 
L 104.1265 258.59 
L 104.1265 258.128772 
L 63.4355 258.128772 
z
" clip-path="url(#p48a638d76d)" style="fill: #1f77b4"/>
   </g>
   <g id="patch_349">
    <path d="M 144.8175 258.59 
L 185.5085 258.59 
L 185.5085 258.430344 
L 144.8175 258.430344 
z
" clip-path="url(#p48a638d76d)" style="fill: #1f77b4"/>
   </g>
   <g id="patch_350">
    <path d="M 226.1995 258.59 
L 266.8905 258.59 
L 266.8905 258.554521 
L 226.1995 258.554521 
z
" clip-path="url(#p48a638d76d)" style="fill: #1f77b4"/>
   </g>
   <g id="patch_351">
    <path d="M 307.5815 258.59 
L 348.2725 258.59 
L 348.2725 258.554521 
L 307.5815 258.554521 
z
" clip-path="url(#p48a638d76d)" style="fill: #1f77b4"/>
   </g>
   <g id="patch_352">
    <path d="M 388.9635 258.59 
L 429.6545 258.59 
L 429.6545 258.554521 
L 388.9635 258.554521 
z
" clip-path="url(#p48a638d76d)" style="fill: #1f77b4"/>
   </g>
   <g id="patch_353">
    <path d="M 63.4355 258.59 
L 104.1265 258.59 
L 104.1265 254.190592 
L 63.4355 254.190592 
z
" clip-path="url(#p48a638d76d)" style="fill: #1f77b4"/>
   </g>
   <g id="patch_354">
    <path d="M 144.8175 258.59 
L 185.5085 258.59 
L 185.5085 258.412605 
L 144.8175 258.412605 
z
" clip-path="url(#p48a638d76d)" style="fill: #1f77b4"/>
   </g>
   <g id="patch_355">
    <path d="M 226.1995 258.59 
L 266.8905 258.59 
L 266.8905 258.412605 
L 226.1995 258.412605 
z
" clip-path="url(#p48a638d76d)" style="fill: #1f77b4"/>
   </g>
   <g id="patch_356">
    <path d="M 307.5815 258.59 
L 348.2725 258.59 
L 348.2725 258.412605 
L 307.5815 258.412605 
z
" clip-path="url(#p48a638d76d)" style="fill: #1f77b4"/>
   </g>
   <g id="patch_357">
    <path d="M 388.9635 258.59 
L 429.6545 258.59 
L 429.6545 258.412605 
L 388.9635 258.412605 
z
" clip-path="url(#p48a638d76d)" style="fill: #1f77b4"/>
   </g>
   <g id="patch_358">
    <path d="M 63.4355 258.59 
L 104.1265 258.59 
L 104.1265 258.323907 
L 63.4355 258.323907 
z
" clip-path="url(#p48a638d76d)" style="fill: #1f77b4"/>
   </g>
   <g id="patch_359">
    <path d="M 144.8175 258.59 
L 185.5085 258.59 
L 185.5085 258.536781 
L 144.8175 258.536781 
z
" clip-path="url(#p48a638d76d)" style="fill: #1f77b4"/>
   </g>
   <g id="patch_360">
    <path d="M 226.1995 258.59 
L 266.8905 258.59 
L 266.8905 258.536781 
L 226.1995 258.536781 
z
" clip-path="url(#p48a638d76d)" style="fill: #1f77b4"/>
   </g>
   <g id="patch_361">
    <path d="M 307.5815 258.59 
L 348.2725 258.59 
L 348.2725 258.536781 
L 307.5815 258.536781 
z
" clip-path="url(#p48a638d76d)" style="fill: #1f77b4"/>
   </g>
   <g id="patch_362">
    <path d="M 388.9635 258.59 
L 429.6545 258.59 
L 429.6545 258.582116 
L 388.9635 258.582116 
z
" clip-path="url(#p48a638d76d)" style="fill: #1f77b4"/>
   </g>
   <g id="patch_363">
    <path d="M 63.4355 258.59 
L 104.1265 258.59 
L 104.1265 258.519042 
L 63.4355 258.519042 
z
" clip-path="url(#p48a638d76d)" style="fill: #1f77b4"/>
   </g>
   <g id="patch_364">
    <path d="M 144.8175 258.59 
L 185.5085 258.59 
L 185.5085 258.519042 
L 144.8175 258.519042 
z
" clip-path="url(#p48a638d76d)" style="fill: #1f77b4"/>
   </g>
   <g id="patch_365">
    <path d="M 226.1995 258.59 
L 266.8905 258.59 
L 266.8905 258.519042 
L 226.1995 258.519042 
z
" clip-path="url(#p48a638d76d)" style="fill: #1f77b4"/>
   </g>
   <g id="patch_366">
    <path d="M 307.5815 258.59 
L 348.2725 258.59 
L 348.2725 258.59 
L 307.5815 258.59 
z
" clip-path="url(#p48a638d76d)" style="fill: #1f77b4"/>
   </g>
   <g id="patch_367">
    <path d="M 388.9635 258.59 
L 429.6545 258.59 
L 429.6545 258.59 
L 388.9635 258.59 
z
" clip-path="url(#p48a638d76d)" style="fill: #1f77b4"/>
   </g>
   <g id="matplotlib.axis_1">
    <g id="xtick_1">
     <g id="line2d_1">
      <defs>
       <path id="mfb1c56a460" d="M 0 0 
L 0 3.5 
" style="stroke: #000000; stroke-width: 0.8"/>
      </defs>
      <g>
       <use xlink:href="#mfb1c56a460" x="83.781" y="258.59" style="stroke: #000000; stroke-width: 0.8"/>
      </g>
     </g>
     <g id="text_1">
      <!-- Brad Pitt -->
      <g transform="translate(86.540375 308.64) rotate(-90) scale(0.1 -0.1)">
       <defs>
        <path id="DejaVuSans-42" d="M 1259 2228 
L 1259 519 
L 2272 519 
Q 2781 519 3026 730 
Q 3272 941 3272 1375 
Q 3272 1813 3026 2020 
Q 2781 2228 2272 2228 
L 1259 2228 
z
M 1259 4147 
L 1259 2741 
L 2194 2741 
Q 2656 2741 2882 2914 
Q 3109 3088 3109 3444 
Q 3109 3797 2882 3972 
Q 2656 4147 2194 4147 
L 1259 4147 
z
M 628 4666 
L 2241 4666 
Q 2963 4666 3353 4366 
Q 3744 4066 3744 3513 
Q 3744 3084 3544 2831 
Q 3344 2578 2956 2516 
Q 3422 2416 3680 2098 
Q 3938 1781 3938 1306 
Q 3938 681 3513 340 
Q 3088 0 2303 0 
L 628 0 
L 628 4666 
z
" transform="scale(0.015625)"/>
        <path id="DejaVuSans-72" d="M 2631 2963 
Q 2534 3019 2420 3045 
Q 2306 3072 2169 3072 
Q 1681 3072 1420 2755 
Q 1159 2438 1159 1844 
L 1159 0 
L 581 0 
L 581 3500 
L 1159 3500 
L 1159 2956 
Q 1341 3275 1631 3429 
Q 1922 3584 2338 3584 
Q 2397 3584 2469 3576 
Q 2541 3569 2628 3553 
L 2631 2963 
z
" transform="scale(0.015625)"/>
        <path id="DejaVuSans-61" d="M 2194 1759 
Q 1497 1759 1228 1600 
Q 959 1441 959 1056 
Q 959 750 1161 570 
Q 1363 391 1709 391 
Q 2188 391 2477 730 
Q 2766 1069 2766 1631 
L 2766 1759 
L 2194 1759 
z
M 3341 1997 
L 3341 0 
L 2766 0 
L 2766 531 
Q 2569 213 2275 61 
Q 1981 -91 1556 -91 
Q 1019 -91 701 211 
Q 384 513 384 1019 
Q 384 1609 779 1909 
Q 1175 2209 1959 2209 
L 2766 2209 
L 2766 2266 
Q 2766 2663 2505 2880 
Q 2244 3097 1772 3097 
Q 1472 3097 1187 3025 
Q 903 2953 641 2809 
L 641 3341 
Q 956 3463 1253 3523 
Q 1550 3584 1831 3584 
Q 2591 3584 2966 3190 
Q 3341 2797 3341 1997 
z
" transform="scale(0.015625)"/>
        <path id="DejaVuSans-64" d="M 2906 2969 
L 2906 4863 
L 3481 4863 
L 3481 0 
L 2906 0 
L 2906 525 
Q 2725 213 2448 61 
Q 2172 -91 1784 -91 
Q 1150 -91 751 415 
Q 353 922 353 1747 
Q 353 2572 751 3078 
Q 1150 3584 1784 3584 
Q 2172 3584 2448 3432 
Q 2725 3281 2906 2969 
z
M 947 1747 
Q 947 1113 1208 752 
Q 1469 391 1925 391 
Q 2381 391 2643 752 
Q 2906 1113 2906 1747 
Q 2906 2381 2643 2742 
Q 2381 3103 1925 3103 
Q 1469 3103 1208 2742 
Q 947 2381 947 1747 
z
" transform="scale(0.015625)"/>
        <path id="DejaVuSans-20" transform="scale(0.015625)"/>
        <path id="DejaVuSans-50" d="M 1259 4147 
L 1259 2394 
L 2053 2394 
Q 2494 2394 2734 2622 
Q 2975 2850 2975 3272 
Q 2975 3691 2734 3919 
Q 2494 4147 2053 4147 
L 1259 4147 
z
M 628 4666 
L 2053 4666 
Q 2838 4666 3239 4311 
Q 3641 3956 3641 3272 
Q 3641 2581 3239 2228 
Q 2838 1875 2053 1875 
L 1259 1875 
L 1259 0 
L 628 0 
L 628 4666 
z
" transform="scale(0.015625)"/>
        <path id="DejaVuSans-69" d="M 603 3500 
L 1178 3500 
L 1178 0 
L 603 0 
L 603 3500 
z
M 603 4863 
L 1178 4863 
L 1178 4134 
L 603 4134 
L 603 4863 
z
" transform="scale(0.015625)"/>
        <path id="DejaVuSans-74" d="M 1172 4494 
L 1172 3500 
L 2356 3500 
L 2356 3053 
L 1172 3053 
L 1172 1153 
Q 1172 725 1289 603 
Q 1406 481 1766 481 
L 2356 481 
L 2356 0 
L 1766 0 
Q 1100 0 847 248 
Q 594 497 594 1153 
L 594 3053 
L 172 3053 
L 172 3500 
L 594 3500 
L 594 4494 
L 1172 4494 
z
" transform="scale(0.015625)"/>
       </defs>
       <use xlink:href="#DejaVuSans-42"/>
       <use xlink:href="#DejaVuSans-72" x="68.603516"/>
       <use xlink:href="#DejaVuSans-61" x="109.716797"/>
       <use xlink:href="#DejaVuSans-64" x="170.996094"/>
       <use xlink:href="#DejaVuSans-20" x="234.472656"/>
       <use xlink:href="#DejaVuSans-50" x="266.259766"/>
       <use xlink:href="#DejaVuSans-69" x="324.3125"/>
       <use xlink:href="#DejaVuSans-74" x="352.095703"/>
       <use xlink:href="#DejaVuSans-74" x="391.304688"/>
      </g>
     </g>
    </g>
    <g id="xtick_2">
     <g id="line2d_2">
      <g>
       <use xlink:href="#mfb1c56a460" x="165.163" y="258.59" style="stroke: #000000; stroke-width: 0.8"/>
      </g>
     </g>
     <g id="text_2">
      <!-- Sam Rockwell -->
      <g transform="translate(167.922375 334.779062) rotate(-90) scale(0.1 -0.1)">
       <defs>
        <path id="DejaVuSans-53" d="M 3425 4513 
L 3425 3897 
Q 3066 4069 2747 4153 
Q 2428 4238 2131 4238 
Q 1616 4238 1336 4038 
Q 1056 3838 1056 3469 
Q 1056 3159 1242 3001 
Q 1428 2844 1947 2747 
L 2328 2669 
Q 3034 2534 3370 2195 
Q 3706 1856 3706 1288 
Q 3706 609 3251 259 
Q 2797 -91 1919 -91 
Q 1588 -91 1214 -16 
Q 841 59 441 206 
L 441 856 
Q 825 641 1194 531 
Q 1563 422 1919 422 
Q 2459 422 2753 634 
Q 3047 847 3047 1241 
Q 3047 1584 2836 1778 
Q 2625 1972 2144 2069 
L 1759 2144 
Q 1053 2284 737 2584 
Q 422 2884 422 3419 
Q 422 4038 858 4394 
Q 1294 4750 2059 4750 
Q 2388 4750 2728 4690 
Q 3069 4631 3425 4513 
z
" transform="scale(0.015625)"/>
        <path id="DejaVuSans-6d" d="M 3328 2828 
Q 3544 3216 3844 3400 
Q 4144 3584 4550 3584 
Q 5097 3584 5394 3201 
Q 5691 2819 5691 2113 
L 5691 0 
L 5113 0 
L 5113 2094 
Q 5113 2597 4934 2840 
Q 4756 3084 4391 3084 
Q 3944 3084 3684 2787 
Q 3425 2491 3425 1978 
L 3425 0 
L 2847 0 
L 2847 2094 
Q 2847 2600 2669 2842 
Q 2491 3084 2119 3084 
Q 1678 3084 1418 2786 
Q 1159 2488 1159 1978 
L 1159 0 
L 581 0 
L 581 3500 
L 1159 3500 
L 1159 2956 
Q 1356 3278 1631 3431 
Q 1906 3584 2284 3584 
Q 2666 3584 2933 3390 
Q 3200 3197 3328 2828 
z
" transform="scale(0.015625)"/>
        <path id="DejaVuSans-52" d="M 2841 2188 
Q 3044 2119 3236 1894 
Q 3428 1669 3622 1275 
L 4263 0 
L 3584 0 
L 2988 1197 
Q 2756 1666 2539 1819 
Q 2322 1972 1947 1972 
L 1259 1972 
L 1259 0 
L 628 0 
L 628 4666 
L 2053 4666 
Q 2853 4666 3247 4331 
Q 3641 3997 3641 3322 
Q 3641 2881 3436 2590 
Q 3231 2300 2841 2188 
z
M 1259 4147 
L 1259 2491 
L 2053 2491 
Q 2509 2491 2742 2702 
Q 2975 2913 2975 3322 
Q 2975 3731 2742 3939 
Q 2509 4147 2053 4147 
L 1259 4147 
z
" transform="scale(0.015625)"/>
        <path id="DejaVuSans-6f" d="M 1959 3097 
Q 1497 3097 1228 2736 
Q 959 2375 959 1747 
Q 959 1119 1226 758 
Q 1494 397 1959 397 
Q 2419 397 2687 759 
Q 2956 1122 2956 1747 
Q 2956 2369 2687 2733 
Q 2419 3097 1959 3097 
z
M 1959 3584 
Q 2709 3584 3137 3096 
Q 3566 2609 3566 1747 
Q 3566 888 3137 398 
Q 2709 -91 1959 -91 
Q 1206 -91 779 398 
Q 353 888 353 1747 
Q 353 2609 779 3096 
Q 1206 3584 1959 3584 
z
" transform="scale(0.015625)"/>
        <path id="DejaVuSans-63" d="M 3122 3366 
L 3122 2828 
Q 2878 2963 2633 3030 
Q 2388 3097 2138 3097 
Q 1578 3097 1268 2742 
Q 959 2388 959 1747 
Q 959 1106 1268 751 
Q 1578 397 2138 397 
Q 2388 397 2633 464 
Q 2878 531 3122 666 
L 3122 134 
Q 2881 22 2623 -34 
Q 2366 -91 2075 -91 
Q 1284 -91 818 406 
Q 353 903 353 1747 
Q 353 2603 823 3093 
Q 1294 3584 2113 3584 
Q 2378 3584 2631 3529 
Q 2884 3475 3122 3366 
z
" transform="scale(0.015625)"/>
        <path id="DejaVuSans-6b" d="M 581 4863 
L 1159 4863 
L 1159 1991 
L 2875 3500 
L 3609 3500 
L 1753 1863 
L 3688 0 
L 2938 0 
L 1159 1709 
L 1159 0 
L 581 0 
L 581 4863 
z
" transform="scale(0.015625)"/>
        <path id="DejaVuSans-77" d="M 269 3500 
L 844 3500 
L 1563 769 
L 2278 3500 
L 2956 3500 
L 3675 769 
L 4391 3500 
L 4966 3500 
L 4050 0 
L 3372 0 
L 2619 2869 
L 1863 0 
L 1184 0 
L 269 3500 
z
" transform="scale(0.015625)"/>
        <path id="DejaVuSans-65" d="M 3597 1894 
L 3597 1613 
L 953 1613 
Q 991 1019 1311 708 
Q 1631 397 2203 397 
Q 2534 397 2845 478 
Q 3156 559 3463 722 
L 3463 178 
Q 3153 47 2828 -22 
Q 2503 -91 2169 -91 
Q 1331 -91 842 396 
Q 353 884 353 1716 
Q 353 2575 817 3079 
Q 1281 3584 2069 3584 
Q 2775 3584 3186 3129 
Q 3597 2675 3597 1894 
z
M 3022 2063 
Q 3016 2534 2758 2815 
Q 2500 3097 2075 3097 
Q 1594 3097 1305 2825 
Q 1016 2553 972 2059 
L 3022 2063 
z
" transform="scale(0.015625)"/>
        <path id="DejaVuSans-6c" d="M 603 4863 
L 1178 4863 
L 1178 0 
L 603 0 
L 603 4863 
z
" transform="scale(0.015625)"/>
       </defs>
       <use xlink:href="#DejaVuSans-53"/>
       <use xlink:href="#DejaVuSans-61" x="63.476562"/>
       <use xlink:href="#DejaVuSans-6d" x="124.755859"/>
       <use xlink:href="#DejaVuSans-20" x="222.167969"/>
       <use xlink:href="#DejaVuSans-52" x="253.955078"/>
       <use xlink:href="#DejaVuSans-6f" x="318.9375"/>
       <use xlink:href="#DejaVuSans-63" x="380.119141"/>
       <use xlink:href="#DejaVuSans-6b" x="435.099609"/>
       <use xlink:href="#DejaVuSans-77" x="493.009766"/>
       <use xlink:href="#DejaVuSans-65" x="574.796875"/>
       <use xlink:href="#DejaVuSans-6c" x="636.320312"/>
       <use xlink:href="#DejaVuSans-6c" x="664.103516"/>
      </g>
     </g>
    </g>
    <g id="xtick_3">
     <g id="line2d_3">
      <g>
       <use xlink:href="#mfb1c56a460" x="246.545" y="258.59" style="stroke: #000000; stroke-width: 0.8"/>
      </g>
     </g>
     <g id="text_3">
      <!-- Sam Shepard -->
      <g transform="translate(249.304375 332.585312) rotate(-90) scale(0.1 -0.1)">
       <defs>
        <path id="DejaVuSans-68" d="M 3513 2113 
L 3513 0 
L 2938 0 
L 2938 2094 
Q 2938 2591 2744 2837 
Q 2550 3084 2163 3084 
Q 1697 3084 1428 2787 
Q 1159 2491 1159 1978 
L 1159 0 
L 581 0 
L 581 4863 
L 1159 4863 
L 1159 2956 
Q 1366 3272 1645 3428 
Q 1925 3584 2291 3584 
Q 2894 3584 3203 3211 
Q 3513 2838 3513 2113 
z
" transform="scale(0.015625)"/>
        <path id="DejaVuSans-70" d="M 1159 525 
L 1159 -1331 
L 581 -1331 
L 581 3500 
L 1159 3500 
L 1159 2969 
Q 1341 3281 1617 3432 
Q 1894 3584 2278 3584 
Q 2916 3584 3314 3078 
Q 3713 2572 3713 1747 
Q 3713 922 3314 415 
Q 2916 -91 2278 -91 
Q 1894 -91 1617 61 
Q 1341 213 1159 525 
z
M 3116 1747 
Q 3116 2381 2855 2742 
Q 2594 3103 2138 3103 
Q 1681 3103 1420 2742 
Q 1159 2381 1159 1747 
Q 1159 1113 1420 752 
Q 1681 391 2138 391 
Q 2594 391 2855 752 
Q 3116 1113 3116 1747 
z
" transform="scale(0.015625)"/>
       </defs>
       <use xlink:href="#DejaVuSans-53"/>
       <use xlink:href="#DejaVuSans-61" x="63.476562"/>
       <use xlink:href="#DejaVuSans-6d" x="124.755859"/>
       <use xlink:href="#DejaVuSans-20" x="222.167969"/>
       <use xlink:href="#DejaVuSans-53" x="253.955078"/>
       <use xlink:href="#DejaVuSans-68" x="317.431641"/>
       <use xlink:href="#DejaVuSans-65" x="380.810547"/>
       <use xlink:href="#DejaVuSans-70" x="442.333984"/>
       <use xlink:href="#DejaVuSans-61" x="505.810547"/>
       <use xlink:href="#DejaVuSans-72" x="567.089844"/>
       <use xlink:href="#DejaVuSans-64" x="606.453125"/>
      </g>
     </g>
    </g>
    <g id="xtick_4">
     <g id="line2d_4">
      <g>
       <use xlink:href="#mfb1c56a460" x="327.927" y="258.59" style="stroke: #000000; stroke-width: 0.8"/>
      </g>
     </g>
     <g id="text_4">
      <!-- Don Cheadle -->
      <g transform="translate(330.686375 329.805625) rotate(-90) scale(0.1 -0.1)">
       <defs>
        <path id="DejaVuSans-44" d="M 1259 4147 
L 1259 519 
L 2022 519 
Q 2988 519 3436 956 
Q 3884 1394 3884 2338 
Q 3884 3275 3436 3711 
Q 2988 4147 2022 4147 
L 1259 4147 
z
M 628 4666 
L 1925 4666 
Q 3281 4666 3915 4102 
Q 4550 3538 4550 2338 
Q 4550 1131 3912 565 
Q 3275 0 1925 0 
L 628 0 
L 628 4666 
z
" transform="scale(0.015625)"/>
        <path id="DejaVuSans-6e" d="M 3513 2113 
L 3513 0 
L 2938 0 
L 2938 2094 
Q 2938 2591 2744 2837 
Q 2550 3084 2163 3084 
Q 1697 3084 1428 2787 
Q 1159 2491 1159 1978 
L 1159 0 
L 581 0 
L 581 3500 
L 1159 3500 
L 1159 2956 
Q 1366 3272 1645 3428 
Q 1925 3584 2291 3584 
Q 2894 3584 3203 3211 
Q 3513 2838 3513 2113 
z
" transform="scale(0.015625)"/>
        <path id="DejaVuSans-43" d="M 4122 4306 
L 4122 3641 
Q 3803 3938 3442 4084 
Q 3081 4231 2675 4231 
Q 1875 4231 1450 3742 
Q 1025 3253 1025 2328 
Q 1025 1406 1450 917 
Q 1875 428 2675 428 
Q 3081 428 3442 575 
Q 3803 722 4122 1019 
L 4122 359 
Q 3791 134 3420 21 
Q 3050 -91 2638 -91 
Q 1578 -91 968 557 
Q 359 1206 359 2328 
Q 359 3453 968 4101 
Q 1578 4750 2638 4750 
Q 3056 4750 3426 4639 
Q 3797 4528 4122 4306 
z
" transform="scale(0.015625)"/>
       </defs>
       <use xlink:href="#DejaVuSans-44"/>
       <use xlink:href="#DejaVuSans-6f" x="77.001953"/>
       <use xlink:href="#DejaVuSans-6e" x="138.183594"/>
       <use xlink:href="#DejaVuSans-20" x="201.5625"/>
       <use xlink:href="#DejaVuSans-43" x="233.349609"/>
       <use xlink:href="#DejaVuSans-68" x="303.173828"/>
       <use xlink:href="#DejaVuSans-65" x="366.552734"/>
       <use xlink:href="#DejaVuSans-61" x="428.076172"/>
       <use xlink:href="#DejaVuSans-64" x="489.355469"/>
       <use xlink:href="#DejaVuSans-6c" x="552.832031"/>
       <use xlink:href="#DejaVuSans-65" x="580.615234"/>
      </g>
     </g>
    </g>
    <g id="xtick_5">
     <g id="line2d_5">
      <g>
       <use xlink:href="#mfb1c56a460" x="409.309" y="258.59" style="stroke: #000000; stroke-width: 0.8"/>
      </g>
     </g>
     <g id="text_5">
      <!-- Mike Epps -->
      <g transform="translate(412.068375 315.980625) rotate(-90) scale(0.1 -0.1)">
       <defs>
        <path id="DejaVuSans-4d" d="M 628 4666 
L 1569 4666 
L 2759 1491 
L 3956 4666 
L 4897 4666 
L 4897 0 
L 4281 0 
L 4281 4097 
L 3078 897 
L 2444 897 
L 1241 4097 
L 1241 0 
L 628 0 
L 628 4666 
z
" transform="scale(0.015625)"/>
        <path id="DejaVuSans-45" d="M 628 4666 
L 3578 4666 
L 3578 4134 
L 1259 4134 
L 1259 2753 
L 3481 2753 
L 3481 2222 
L 1259 2222 
L 1259 531 
L 3634 531 
L 3634 0 
L 628 0 
L 628 4666 
z
" transform="scale(0.015625)"/>
        <path id="DejaVuSans-73" d="M 2834 3397 
L 2834 2853 
Q 2591 2978 2328 3040 
Q 2066 3103 1784 3103 
Q 1356 3103 1142 2972 
Q 928 2841 928 2578 
Q 928 2378 1081 2264 
Q 1234 2150 1697 2047 
L 1894 2003 
Q 2506 1872 2764 1633 
Q 3022 1394 3022 966 
Q 3022 478 2636 193 
Q 2250 -91 1575 -91 
Q 1294 -91 989 -36 
Q 684 19 347 128 
L 347 722 
Q 666 556 975 473 
Q 1284 391 1588 391 
Q 1994 391 2212 530 
Q 2431 669 2431 922 
Q 2431 1156 2273 1281 
Q 2116 1406 1581 1522 
L 1381 1569 
Q 847 1681 609 1914 
Q 372 2147 372 2553 
Q 372 3047 722 3315 
Q 1072 3584 1716 3584 
Q 2034 3584 2315 3537 
Q 2597 3491 2834 3397 
z
" transform="scale(0.015625)"/>
       </defs>
       <use xlink:href="#DejaVuSans-4d"/>
       <use xlink:href="#DejaVuSans-69" x="86.279297"/>
       <use xlink:href="#DejaVuSans-6b" x="114.0625"/>
       <use xlink:href="#DejaVuSans-65" x="168.347656"/>
       <use xlink:href="#DejaVuSans-20" x="229.871094"/>
       <use xlink:href="#DejaVuSans-45" x="261.658203"/>
       <use xlink:href="#DejaVuSans-70" x="324.841797"/>
       <use xlink:href="#DejaVuSans-70" x="388.318359"/>
       <use xlink:href="#DejaVuSans-73" x="451.794922"/>
      </g>
     </g>
    </g>
   </g>
   <g id="matplotlib.axis_2">
    <g id="ytick_1">
     <g id="line2d_6">
      <defs>
       <path id="mc2be1df71e" d="M 0 0 
L -3.5 0 
" style="stroke: #000000; stroke-width: 0.8"/>
      </defs>
      <g>
       <use xlink:href="#mc2be1df71e" x="43.09" y="258.59" style="stroke: #000000; stroke-width: 0.8"/>
      </g>
     </g>
     <g id="text_6">
      <!-- 0 -->
      <g transform="translate(29.7275 262.389219) scale(0.1 -0.1)">
       <defs>
        <path id="DejaVuSans-30" d="M 2034 4250 
Q 1547 4250 1301 3770 
Q 1056 3291 1056 2328 
Q 1056 1369 1301 889 
Q 1547 409 2034 409 
Q 2525 409 2770 889 
Q 3016 1369 3016 2328 
Q 3016 3291 2770 3770 
Q 2525 4250 2034 4250 
z
M 2034 4750 
Q 2819 4750 3233 4129 
Q 3647 3509 3647 2328 
Q 3647 1150 3233 529 
Q 2819 -91 2034 -91 
Q 1250 -91 836 529 
Q 422 1150 422 2328 
Q 422 3509 836 4129 
Q 1250 4750 2034 4750 
z
" transform="scale(0.015625)"/>
       </defs>
       <use xlink:href="#DejaVuSans-30"/>
      </g>
     </g>
    </g>
    <g id="ytick_2">
     <g id="line2d_7">
      <g>
       <use xlink:href="#mc2be1df71e" x="43.09" y="223.110905" style="stroke: #000000; stroke-width: 0.8"/>
      </g>
     </g>
     <g id="text_7">
      <!-- 500 -->
      <g transform="translate(17.0025 226.910124) scale(0.1 -0.1)">
       <defs>
        <path id="DejaVuSans-35" d="M 691 4666 
L 3169 4666 
L 3169 4134 
L 1269 4134 
L 1269 2991 
Q 1406 3038 1543 3061 
Q 1681 3084 1819 3084 
Q 2600 3084 3056 2656 
Q 3513 2228 3513 1497 
Q 3513 744 3044 326 
Q 2575 -91 1722 -91 
Q 1428 -91 1123 -41 
Q 819 9 494 109 
L 494 744 
Q 775 591 1075 516 
Q 1375 441 1709 441 
Q 2250 441 2565 725 
Q 2881 1009 2881 1497 
Q 2881 1984 2565 2268 
Q 2250 2553 1709 2553 
Q 1456 2553 1204 2497 
Q 953 2441 691 2322 
L 691 4666 
z
" transform="scale(0.015625)"/>
       </defs>
       <use xlink:href="#DejaVuSans-35"/>
       <use xlink:href="#DejaVuSans-30" x="63.623047"/>
       <use xlink:href="#DejaVuSans-30" x="127.246094"/>
      </g>
     </g>
    </g>
    <g id="ytick_3">
     <g id="line2d_8">
      <g>
       <use xlink:href="#mc2be1df71e" x="43.09" y="187.63181" style="stroke: #000000; stroke-width: 0.8"/>
      </g>
     </g>
     <g id="text_8">
      <!-- 1000 -->
      <g transform="translate(10.64 191.431029) scale(0.1 -0.1)">
       <defs>
        <path id="DejaVuSans-31" d="M 794 531 
L 1825 531 
L 1825 4091 
L 703 3866 
L 703 4441 
L 1819 4666 
L 2450 4666 
L 2450 531 
L 3481 531 
L 3481 0 
L 794 0 
L 794 531 
z
" transform="scale(0.015625)"/>
       </defs>
       <use xlink:href="#DejaVuSans-31"/>
       <use xlink:href="#DejaVuSans-30" x="63.623047"/>
       <use xlink:href="#DejaVuSans-30" x="127.246094"/>
       <use xlink:href="#DejaVuSans-30" x="190.869141"/>
      </g>
     </g>
    </g>
    <g id="ytick_4">
     <g id="line2d_9">
      <g>
       <use xlink:href="#mc2be1df71e" x="43.09" y="152.152716" style="stroke: #000000; stroke-width: 0.8"/>
      </g>
     </g>
     <g id="text_9">
      <!-- 1500 -->
      <g transform="translate(10.64 155.951934) scale(0.1 -0.1)">
       <use xlink:href="#DejaVuSans-31"/>
       <use xlink:href="#DejaVuSans-35" x="63.623047"/>
       <use xlink:href="#DejaVuSans-30" x="127.246094"/>
       <use xlink:href="#DejaVuSans-30" x="190.869141"/>
      </g>
     </g>
    </g>
    <g id="ytick_5">
     <g id="line2d_10">
      <g>
       <use xlink:href="#mc2be1df71e" x="43.09" y="116.673621" style="stroke: #000000; stroke-width: 0.8"/>
      </g>
     </g>
     <g id="text_10">
      <!-- 2000 -->
      <g transform="translate(10.64 120.47284) scale(0.1 -0.1)">
       <defs>
        <path id="DejaVuSans-32" d="M 1228 531 
L 3431 531 
L 3431 0 
L 469 0 
L 469 531 
Q 828 903 1448 1529 
Q 2069 2156 2228 2338 
Q 2531 2678 2651 2914 
Q 2772 3150 2772 3378 
Q 2772 3750 2511 3984 
Q 2250 4219 1831 4219 
Q 1534 4219 1204 4116 
Q 875 4013 500 3803 
L 500 4441 
Q 881 4594 1212 4672 
Q 1544 4750 1819 4750 
Q 2544 4750 2975 4387 
Q 3406 4025 3406 3419 
Q 3406 3131 3298 2873 
Q 3191 2616 2906 2266 
Q 2828 2175 2409 1742 
Q 1991 1309 1228 531 
z
" transform="scale(0.015625)"/>
       </defs>
       <use xlink:href="#DejaVuSans-32"/>
       <use xlink:href="#DejaVuSans-30" x="63.623047"/>
       <use xlink:href="#DejaVuSans-30" x="127.246094"/>
       <use xlink:href="#DejaVuSans-30" x="190.869141"/>
      </g>
     </g>
    </g>
    <g id="ytick_6">
     <g id="line2d_11">
      <g>
       <use xlink:href="#mc2be1df71e" x="43.09" y="81.194526" style="stroke: #000000; stroke-width: 0.8"/>
      </g>
     </g>
     <g id="text_11">
      <!-- 2500 -->
      <g transform="translate(10.64 84.993745) scale(0.1 -0.1)">
       <use xlink:href="#DejaVuSans-32"/>
       <use xlink:href="#DejaVuSans-35" x="63.623047"/>
       <use xlink:href="#DejaVuSans-30" x="127.246094"/>
       <use xlink:href="#DejaVuSans-30" x="190.869141"/>
      </g>
     </g>
    </g>
    <g id="ytick_7">
     <g id="line2d_12">
      <g>
       <use xlink:href="#mc2be1df71e" x="43.09" y="45.715431" style="stroke: #000000; stroke-width: 0.8"/>
      </g>
     </g>
     <g id="text_12">
      <!-- 3000 -->
      <g transform="translate(10.64 49.51465) scale(0.1 -0.1)">
       <defs>
        <path id="DejaVuSans-33" d="M 2597 2516 
Q 3050 2419 3304 2112 
Q 3559 1806 3559 1356 
Q 3559 666 3084 287 
Q 2609 -91 1734 -91 
Q 1441 -91 1130 -33 
Q 819 25 488 141 
L 488 750 
Q 750 597 1062 519 
Q 1375 441 1716 441 
Q 2309 441 2620 675 
Q 2931 909 2931 1356 
Q 2931 1769 2642 2001 
Q 2353 2234 1838 2234 
L 1294 2234 
L 1294 2753 
L 1863 2753 
Q 2328 2753 2575 2939 
Q 2822 3125 2822 3475 
Q 2822 3834 2567 4026 
Q 2313 4219 1838 4219 
Q 1578 4219 1281 4162 
Q 984 4106 628 3988 
L 628 4550 
Q 988 4650 1302 4700 
Q 1616 4750 1894 4750 
Q 2613 4750 3031 4423 
Q 3450 4097 3450 3541 
Q 3450 3153 3228 2886 
Q 3006 2619 2597 2516 
z
" transform="scale(0.015625)"/>
       </defs>
       <use xlink:href="#DejaVuSans-33"/>
       <use xlink:href="#DejaVuSans-30" x="63.623047"/>
       <use xlink:href="#DejaVuSans-30" x="127.246094"/>
       <use xlink:href="#DejaVuSans-30" x="190.869141"/>
      </g>
     </g>
    </g>
   </g>
   <g id="patch_368">
    <path d="M 43.09 258.59 
L 43.09 10.8 
" style="fill: none; stroke: #000000; stroke-width: 0.8; stroke-linejoin: miter; stroke-linecap: square"/>
   </g>
   <g id="patch_369">
    <path d="M 450 258.59 
L 450 10.8 
" style="fill: none; stroke: #000000; stroke-width: 0.8; stroke-linejoin: miter; stroke-linecap: square"/>
   </g>
   <g id="patch_370">
    <path d="M 43.09 258.59 
L 450 258.59 
" style="fill: none; stroke: #000000; stroke-width: 0.8; stroke-linejoin: miter; stroke-linecap: square"/>
   </g>
   <g id="patch_371">
    <path d="M 43.09 10.8 
L 450 10.8 
" style="fill: none; stroke: #000000; stroke-width: 0.8; stroke-linejoin: miter; stroke-linecap: square"/>
   </g>
  </g>
 </g>
 <defs>
  <clipPath id="p48a638d76d">
   <rect x="43.09" y="10.8" width="406.91" height="247.79"/>
  </clipPath>
 </defs>
</svg>
