<?xml version="1.0" encoding="utf-8" standalone="no"?>
<!DOCTYPE svg PUBLIC "-//W3C//DTD SVG 1.1//EN"
  "http://www.w3.org/Graphics/SVG/1.1/DTD/svg11.dtd">
<svg xmlns:xlink="http://www.w3.org/1999/xlink" width="460.8pt" height="345.6pt" viewBox="0 0 460.8 345.6" xmlns="http://www.w3.org/2000/svg" version="1.1">
 <metadata>
  <rdf:RDF xmlns:dc="http://purl.org/dc/elements/1.1/" xmlns:cc="http://creativecommons.org/ns#" xmlns:rdf="http://www.w3.org/1999/02/22-rdf-syntax-ns#">
   <cc:Work>
    <dc:type rdf:resource="http://purl.org/dc/dcmitype/StillImage"/>
    <dc:date>2022-12-20T12:31:10.815485</dc:date>
    <dc:format>image/svg+xml</dc:format>
    <dc:creator>
     <cc:Agent>
      <dc:title>Matplotlib v3.6.0, https://matplotlib.org/</dc:title>
     </cc:Agent>
    </dc:creator>
   </cc:Work>
  </rdf:RDF>
 </metadata>
 <defs>
  <style type="text/css">*{stroke-linejoin: round; stroke-linecap: butt}</style>
 </defs>
 <g id="figure_1">
  <g id="patch_1">
   <path d="M 0 345.6 
L 460.8 345.6 
L 460.8 0 
L 0 0 
z
" style="fill: #ffffff"/>
  </g>
  <g id="axes_1">
   <g id="patch_2">
    <path d="M 43.09 254.45 
L 450 254.45 
L 450 10.8 
L 43.09 10.8 
z
" style="fill: #ffffff"/>
   </g>
   <g id="patch_3">
    <path d="M 63.4355 254.45 
L 104.1265 254.45 
L 104.1265 176.000484 
L 63.4355 176.000484 
z
" clip-path="url(#p56f7f7fcb8)" style="fill: #1f77b4"/>
   </g>
   <g id="patch_4">
    <path d="M 144.8175 254.45 
L 185.5085 254.45 
L 185.5085 194.451733 
L 144.8175 194.451733 
z
" clip-path="url(#p56f7f7fcb8)" style="fill: #1f77b4"/>
   </g>
   <g id="patch_5">
    <path d="M 226.1995 254.45 
L 266.8905 254.45 
L 266.8905 188.962734 
L 226.1995 188.962734 
z
" clip-path="url(#p56f7f7fcb8)" style="fill: #1f77b4"/>
   </g>
   <g id="patch_6">
    <path d="M 307.5815 254.45 
L 348.2725 254.45 
L 348.2725 201.023365 
L 307.5815 201.023365 
z
" clip-path="url(#p56f7f7fcb8)" style="fill: #1f77b4"/>
   </g>
   <g id="patch_7">
    <path d="M 388.9635 254.45 
L 429.6545 254.45 
L 429.6545 222.306294 
L 388.9635 222.306294 
z
" clip-path="url(#p56f7f7fcb8)" style="fill: #1f77b4"/>
   </g>
   <g id="patch_8">
    <path d="M 63.4355 254.45 
L 104.1265 254.45 
L 104.1265 254.240682 
L 63.4355 254.240682 
z
" clip-path="url(#p56f7f7fcb8)" style="fill: #1f77b4"/>
   </g>
   <g id="patch_9">
    <path d="M 144.8175 254.45 
L 185.5085 254.45 
L 185.5085 254.380227 
L 144.8175 254.380227 
z
" clip-path="url(#p56f7f7fcb8)" style="fill: #1f77b4"/>
   </g>
   <g id="patch_10">
    <path d="M 226.1995 254.45 
L 266.8905 254.45 
L 266.8905 254.45 
L 226.1995 254.45 
z
" clip-path="url(#p56f7f7fcb8)" style="fill: #1f77b4"/>
   </g>
   <g id="patch_11">
    <path d="M 63.4355 254.45 
L 104.1265 254.45 
L 104.1265 254.426742 
L 63.4355 254.426742 
z
" clip-path="url(#p56f7f7fcb8)" style="fill: #1f77b4"/>
   </g>
   <g id="patch_12">
    <path d="M 144.8175 254.45 
L 185.5085 254.45 
L 185.5085 254.426742 
L 144.8175 254.426742 
z
" clip-path="url(#p56f7f7fcb8)" style="fill: #1f77b4"/>
   </g>
   <g id="patch_13">
    <path d="M 226.1995 254.45 
L 266.8905 254.45 
L 266.8905 254.426742 
L 226.1995 254.426742 
z
" clip-path="url(#p56f7f7fcb8)" style="fill: #1f77b4"/>
   </g>
   <g id="patch_14">
    <path d="M 307.5815 254.45 
L 348.2725 254.45 
L 348.2725 254.380227 
L 307.5815 254.380227 
z
" clip-path="url(#p56f7f7fcb8)" style="fill: #1f77b4"/>
   </g>
   <g id="patch_15">
    <path d="M 388.9635 254.45 
L 429.6545 254.45 
L 429.6545 254.45 
L 388.9635 254.45 
z
" clip-path="url(#p56f7f7fcb8)" style="fill: #1f77b4"/>
   </g>
   <g id="patch_16">
    <path d="M 63.4355 254.45 
L 104.1265 254.45 
L 104.1265 241.332743 
L 63.4355 241.332743 
z
" clip-path="url(#p56f7f7fcb8)" style="fill: #1f77b4"/>
   </g>
   <g id="patch_17">
    <path d="M 144.8175 254.45 
L 185.5085 254.45 
L 185.5085 250.75205 
L 144.8175 250.75205 
z
" clip-path="url(#p56f7f7fcb8)" style="fill: #1f77b4"/>
   </g>
   <g id="patch_18">
    <path d="M 226.1995 254.45 
L 266.8905 254.45 
L 266.8905 251.41489 
L 226.1995 251.41489 
z
" clip-path="url(#p56f7f7fcb8)" style="fill: #1f77b4"/>
   </g>
   <g id="patch_19">
    <path d="M 307.5815 254.45 
L 348.2725 254.45 
L 348.2725 241.681607 
L 307.5815 241.681607 
z
" clip-path="url(#p56f7f7fcb8)" style="fill: #1f77b4"/>
   </g>
   <g id="patch_20">
    <path d="M 388.9635 254.45 
L 429.6545 254.45 
L 429.6545 252.810343 
L 388.9635 252.810343 
z
" clip-path="url(#p56f7f7fcb8)" style="fill: #1f77b4"/>
   </g>
   <g id="patch_21">
    <path d="M 63.4355 254.45 
L 104.1265 254.45 
L 104.1265 254.380227 
L 63.4355 254.380227 
z
" clip-path="url(#p56f7f7fcb8)" style="fill: #1f77b4"/>
   </g>
   <g id="patch_22">
    <path d="M 144.8175 254.45 
L 185.5085 254.45 
L 185.5085 254.45 
L 144.8175 254.45 
z
" clip-path="url(#p56f7f7fcb8)" style="fill: #1f77b4"/>
   </g>
   <g id="patch_23">
    <path d="M 226.1995 254.45 
L 266.8905 254.45 
L 266.8905 254.45 
L 226.1995 254.45 
z
" clip-path="url(#p56f7f7fcb8)" style="fill: #1f77b4"/>
   </g>
   <g id="patch_24">
    <path d="M 307.5815 254.45 
L 348.2725 254.45 
L 348.2725 254.45 
L 307.5815 254.45 
z
" clip-path="url(#p56f7f7fcb8)" style="fill: #1f77b4"/>
   </g>
   <g id="patch_25">
    <path d="M 63.4355 254.45 
L 104.1265 254.45 
L 104.1265 252.566139 
L 63.4355 252.566139 
z
" clip-path="url(#p56f7f7fcb8)" style="fill: #1f77b4"/>
   </g>
   <g id="patch_26">
    <path d="M 144.8175 254.45 
L 185.5085 254.45 
L 185.5085 254.240682 
L 144.8175 254.240682 
z
" clip-path="url(#p56f7f7fcb8)" style="fill: #1f77b4"/>
   </g>
   <g id="patch_27">
    <path d="M 226.1995 254.45 
L 266.8905 254.45 
L 266.8905 254.380227 
L 226.1995 254.380227 
z
" clip-path="url(#p56f7f7fcb8)" style="fill: #1f77b4"/>
   </g>
   <g id="patch_28">
    <path d="M 307.5815 254.45 
L 348.2725 254.45 
L 348.2725 254.380227 
L 307.5815 254.380227 
z
" clip-path="url(#p56f7f7fcb8)" style="fill: #1f77b4"/>
   </g>
   <g id="patch_29">
    <path d="M 388.9635 254.45 
L 429.6545 254.45 
L 429.6545 253.961592 
L 388.9635 253.961592 
z
" clip-path="url(#p56f7f7fcb8)" style="fill: #1f77b4"/>
   </g>
   <g id="patch_30">
    <path d="M 63.4355 254.45 
L 104.1265 254.45 
L 104.1265 254.310455 
L 63.4355 254.310455 
z
" clip-path="url(#p56f7f7fcb8)" style="fill: #1f77b4"/>
   </g>
   <g id="patch_31">
    <path d="M 144.8175 254.45 
L 185.5085 254.45 
L 185.5085 254.310455 
L 144.8175 254.310455 
z
" clip-path="url(#p56f7f7fcb8)" style="fill: #1f77b4"/>
   </g>
   <g id="patch_32">
    <path d="M 226.1995 254.45 
L 266.8905 254.45 
L 266.8905 254.310455 
L 226.1995 254.310455 
z
" clip-path="url(#p56f7f7fcb8)" style="fill: #1f77b4"/>
   </g>
   <g id="patch_33">
    <path d="M 307.5815 254.45 
L 348.2725 254.45 
L 348.2725 254.310455 
L 307.5815 254.310455 
z
" clip-path="url(#p56f7f7fcb8)" style="fill: #1f77b4"/>
   </g>
   <g id="patch_34">
    <path d="M 388.9635 254.45 
L 429.6545 254.45 
L 429.6545 254.310455 
L 388.9635 254.310455 
z
" clip-path="url(#p56f7f7fcb8)" style="fill: #1f77b4"/>
   </g>
   <g id="patch_35">
    <path d="M 63.4355 254.45 
L 104.1265 254.45 
L 104.1265 254.240682 
L 63.4355 254.240682 
z
" clip-path="url(#p56f7f7fcb8)" style="fill: #1f77b4"/>
   </g>
   <g id="patch_36">
    <path d="M 144.8175 254.45 
L 185.5085 254.45 
L 185.5085 254.275568 
L 144.8175 254.275568 
z
" clip-path="url(#p56f7f7fcb8)" style="fill: #1f77b4"/>
   </g>
   <g id="patch_37">
    <path d="M 226.1995 254.45 
L 266.8905 254.45 
L 266.8905 254.380227 
L 226.1995 254.380227 
z
" clip-path="url(#p56f7f7fcb8)" style="fill: #1f77b4"/>
   </g>
   <g id="patch_38">
    <path d="M 307.5815 254.45 
L 348.2725 254.45 
L 348.2725 254.415114 
L 307.5815 254.415114 
z
" clip-path="url(#p56f7f7fcb8)" style="fill: #1f77b4"/>
   </g>
   <g id="patch_39">
    <path d="M 388.9635 254.45 
L 429.6545 254.45 
L 429.6545 254.415114 
L 388.9635 254.415114 
z
" clip-path="url(#p56f7f7fcb8)" style="fill: #1f77b4"/>
   </g>
   <g id="patch_40">
    <path d="M 63.4355 254.45 
L 104.1265 254.45 
L 104.1265 254.240682 
L 63.4355 254.240682 
z
" clip-path="url(#p56f7f7fcb8)" style="fill: #1f77b4"/>
   </g>
   <g id="patch_41">
    <path d="M 144.8175 254.45 
L 185.5085 254.45 
L 185.5085 254.45 
L 144.8175 254.45 
z
" clip-path="url(#p56f7f7fcb8)" style="fill: #1f77b4"/>
   </g>
   <g id="patch_42">
    <path d="M 226.1995 254.45 
L 266.8905 254.45 
L 266.8905 254.45 
L 226.1995 254.45 
z
" clip-path="url(#p56f7f7fcb8)" style="fill: #1f77b4"/>
   </g>
   <g id="patch_43">
    <path d="M 63.4355 254.45 
L 104.1265 254.45 
L 104.1265 254.240682 
L 63.4355 254.240682 
z
" clip-path="url(#p56f7f7fcb8)" style="fill: #1f77b4"/>
   </g>
   <g id="patch_44">
    <path d="M 144.8175 254.45 
L 185.5085 254.45 
L 185.5085 254.380227 
L 144.8175 254.380227 
z
" clip-path="url(#p56f7f7fcb8)" style="fill: #1f77b4"/>
   </g>
   <g id="patch_45">
    <path d="M 63.4355 254.45 
L 104.1265 254.45 
L 104.1265 177.517355 
L 63.4355 177.517355 
z
" clip-path="url(#p56f7f7fcb8)" style="fill: #1f77b4"/>
   </g>
   <g id="patch_46">
    <path d="M 144.8175 254.45 
L 185.5085 254.45 
L 185.5085 199.171051 
L 144.8175 199.171051 
z
" clip-path="url(#p56f7f7fcb8)" style="fill: #1f77b4"/>
   </g>
   <g id="patch_47">
    <path d="M 226.1995 254.45 
L 266.8905 254.45 
L 266.8905 206.403433 
L 226.1995 206.403433 
z
" clip-path="url(#p56f7f7fcb8)" style="fill: #1f77b4"/>
   </g>
   <g id="patch_48">
    <path d="M 307.5815 254.45 
L 348.2725 254.45 
L 348.2725 199.363056 
L 307.5815 199.363056 
z
" clip-path="url(#p56f7f7fcb8)" style="fill: #1f77b4"/>
   </g>
   <g id="patch_49">
    <path d="M 388.9635 254.45 
L 429.6545 254.45 
L 429.6545 213.934099 
L 388.9635 213.934099 
z
" clip-path="url(#p56f7f7fcb8)" style="fill: #1f77b4"/>
   </g>
   <g id="patch_50">
    <path d="M 63.4355 254.45 
L 104.1265 254.45 
L 104.1265 254.45 
L 63.4355 254.45 
z
" clip-path="url(#p56f7f7fcb8)" style="fill: #1f77b4"/>
   </g>
   <g id="patch_51">
    <path d="M 144.8175 254.45 
L 185.5085 254.45 
L 185.5085 254.45 
L 144.8175 254.45 
z
" clip-path="url(#p56f7f7fcb8)" style="fill: #1f77b4"/>
   </g>
   <g id="patch_52">
    <path d="M 226.1995 254.45 
L 266.8905 254.45 
L 266.8905 254.45 
L 226.1995 254.45 
z
" clip-path="url(#p56f7f7fcb8)" style="fill: #1f77b4"/>
   </g>
   <g id="patch_53">
    <path d="M 307.5815 254.45 
L 348.2725 254.45 
L 348.2725 254.45 
L 307.5815 254.45 
z
" clip-path="url(#p56f7f7fcb8)" style="fill: #1f77b4"/>
   </g>
   <g id="patch_54">
    <path d="M 388.9635 254.45 
L 429.6545 254.45 
L 429.6545 254.45 
L 388.9635 254.45 
z
" clip-path="url(#p56f7f7fcb8)" style="fill: #1f77b4"/>
   </g>
   <g id="patch_55">
    <path d="M 63.4355 254.45 
L 104.1265 254.45 
L 104.1265 254.380227 
L 63.4355 254.380227 
z
" clip-path="url(#p56f7f7fcb8)" style="fill: #1f77b4"/>
   </g>
   <g id="patch_56">
    <path d="M 144.8175 254.45 
L 185.5085 254.45 
L 185.5085 254.45 
L 144.8175 254.45 
z
" clip-path="url(#p56f7f7fcb8)" style="fill: #1f77b4"/>
   </g>
   <g id="patch_57">
    <path d="M 226.1995 254.45 
L 266.8905 254.45 
L 266.8905 254.45 
L 226.1995 254.45 
z
" clip-path="url(#p56f7f7fcb8)" style="fill: #1f77b4"/>
   </g>
   <g id="patch_58">
    <path d="M 307.5815 254.45 
L 348.2725 254.45 
L 348.2725 254.45 
L 307.5815 254.45 
z
" clip-path="url(#p56f7f7fcb8)" style="fill: #1f77b4"/>
   </g>
   <g id="patch_59">
    <path d="M 388.9635 254.45 
L 429.6545 254.45 
L 429.6545 254.45 
L 388.9635 254.45 
z
" clip-path="url(#p56f7f7fcb8)" style="fill: #1f77b4"/>
   </g>
   <g id="patch_60">
    <path d="M 63.4355 254.45 
L 104.1265 254.45 
L 104.1265 254.06625 
L 63.4355 254.06625 
z
" clip-path="url(#p56f7f7fcb8)" style="fill: #1f77b4"/>
   </g>
   <g id="patch_61">
    <path d="M 144.8175 254.45 
L 185.5085 254.45 
L 185.5085 254.240682 
L 144.8175 254.240682 
z
" clip-path="url(#p56f7f7fcb8)" style="fill: #1f77b4"/>
   </g>
   <g id="patch_62">
    <path d="M 226.1995 254.45 
L 266.8905 254.45 
L 266.8905 254.415114 
L 226.1995 254.415114 
z
" clip-path="url(#p56f7f7fcb8)" style="fill: #1f77b4"/>
   </g>
   <g id="patch_63">
    <path d="M 307.5815 254.45 
L 348.2725 254.45 
L 348.2725 254.45 
L 307.5815 254.45 
z
" clip-path="url(#p56f7f7fcb8)" style="fill: #1f77b4"/>
   </g>
   <g id="patch_64">
    <path d="M 388.9635 254.45 
L 429.6545 254.45 
L 429.6545 254.45 
L 388.9635 254.45 
z
" clip-path="url(#p56f7f7fcb8)" style="fill: #1f77b4"/>
   </g>
   <g id="patch_65">
    <path d="M 63.4355 254.45 
L 104.1265 254.45 
L 104.1265 246.740123 
L 63.4355 246.740123 
z
" clip-path="url(#p56f7f7fcb8)" style="fill: #1f77b4"/>
   </g>
   <g id="patch_66">
    <path d="M 144.8175 254.45 
L 185.5085 254.45 
L 185.5085 253.752274 
L 144.8175 253.752274 
z
" clip-path="url(#p56f7f7fcb8)" style="fill: #1f77b4"/>
   </g>
   <g id="patch_67">
    <path d="M 226.1995 254.45 
L 266.8905 254.45 
L 266.8905 250.240384 
L 226.1995 250.240384 
z
" clip-path="url(#p56f7f7fcb8)" style="fill: #1f77b4"/>
   </g>
   <g id="patch_68">
    <path d="M 307.5815 254.45 
L 348.2725 254.45 
L 348.2725 249.147279 
L 307.5815 249.147279 
z
" clip-path="url(#p56f7f7fcb8)" style="fill: #1f77b4"/>
   </g>
   <g id="patch_69">
    <path d="M 388.9635 254.45 
L 429.6545 254.45 
L 429.6545 250.158983 
L 388.9635 250.158983 
z
" clip-path="url(#p56f7f7fcb8)" style="fill: #1f77b4"/>
   </g>
   <g id="patch_70">
    <path d="M 63.4355 254.45 
L 104.1265 254.45 
L 104.1265 231.230392 
L 63.4355 231.230392 
z
" clip-path="url(#p56f7f7fcb8)" style="fill: #1f77b4"/>
   </g>
   <g id="patch_71">
    <path d="M 144.8175 254.45 
L 185.5085 254.45 
L 185.5085 234.562424 
L 144.8175 234.562424 
z
" clip-path="url(#p56f7f7fcb8)" style="fill: #1f77b4"/>
   </g>
   <g id="patch_72">
    <path d="M 226.1995 254.45 
L 266.8905 254.45 
L 266.8905 206.152726 
L 226.1995 206.152726 
z
" clip-path="url(#p56f7f7fcb8)" style="fill: #1f77b4"/>
   </g>
   <g id="patch_73">
    <path d="M 307.5815 254.45 
L 348.2725 254.45 
L 348.2725 225.325739 
L 307.5815 225.325739 
z
" clip-path="url(#p56f7f7fcb8)" style="fill: #1f77b4"/>
   </g>
   <g id="patch_74">
    <path d="M 388.9635 254.45 
L 429.6545 254.45 
L 429.6545 205.834736 
L 388.9635 205.834736 
z
" clip-path="url(#p56f7f7fcb8)" style="fill: #1f77b4"/>
   </g>
   <g id="patch_75">
    <path d="M 63.4355 254.45 
L 104.1265 254.45 
L 104.1265 254.45 
L 63.4355 254.45 
z
" clip-path="url(#p56f7f7fcb8)" style="fill: #1f77b4"/>
   </g>
   <g id="patch_76">
    <path d="M 144.8175 254.45 
L 185.5085 254.45 
L 185.5085 254.45 
L 144.8175 254.45 
z
" clip-path="url(#p56f7f7fcb8)" style="fill: #1f77b4"/>
   </g>
   <g id="patch_77">
    <path d="M 63.4355 254.45 
L 104.1265 254.45 
L 104.1265 253.577842 
L 63.4355 253.577842 
z
" clip-path="url(#p56f7f7fcb8)" style="fill: #1f77b4"/>
   </g>
   <g id="patch_78">
    <path d="M 144.8175 254.45 
L 185.5085 254.45 
L 185.5085 253.752274 
L 144.8175 253.752274 
z
" clip-path="url(#p56f7f7fcb8)" style="fill: #1f77b4"/>
   </g>
   <g id="patch_79">
    <path d="M 226.1995 254.45 
L 266.8905 254.45 
L 266.8905 254.031364 
L 226.1995 254.031364 
z
" clip-path="url(#p56f7f7fcb8)" style="fill: #1f77b4"/>
   </g>
   <g id="patch_80">
    <path d="M 307.5815 254.45 
L 348.2725 254.45 
L 348.2725 254.380227 
L 307.5815 254.380227 
z
" clip-path="url(#p56f7f7fcb8)" style="fill: #1f77b4"/>
   </g>
   <g id="patch_81">
    <path d="M 388.9635 254.45 
L 429.6545 254.45 
L 429.6545 254.310455 
L 388.9635 254.310455 
z
" clip-path="url(#p56f7f7fcb8)" style="fill: #1f77b4"/>
   </g>
   <g id="patch_82">
    <path d="M 63.4355 254.45 
L 104.1265 254.45 
L 104.1265 254.240682 
L 63.4355 254.240682 
z
" clip-path="url(#p56f7f7fcb8)" style="fill: #1f77b4"/>
   </g>
   <g id="patch_83">
    <path d="M 144.8175 254.45 
L 185.5085 254.45 
L 185.5085 254.240682 
L 144.8175 254.240682 
z
" clip-path="url(#p56f7f7fcb8)" style="fill: #1f77b4"/>
   </g>
   <g id="patch_84">
    <path d="M 226.1995 254.45 
L 266.8905 254.45 
L 266.8905 254.380227 
L 226.1995 254.380227 
z
" clip-path="url(#p56f7f7fcb8)" style="fill: #1f77b4"/>
   </g>
   <g id="patch_85">
    <path d="M 307.5815 254.45 
L 348.2725 254.45 
L 348.2725 254.45 
L 307.5815 254.45 
z
" clip-path="url(#p56f7f7fcb8)" style="fill: #1f77b4"/>
   </g>
   <g id="patch_86">
    <path d="M 388.9635 254.45 
L 429.6545 254.45 
L 429.6545 254.45 
L 388.9635 254.45 
z
" clip-path="url(#p56f7f7fcb8)" style="fill: #1f77b4"/>
   </g>
   <g id="patch_87">
    <path d="M 63.4355 254.45 
L 104.1265 254.45 
L 104.1265 252.984775 
L 63.4355 252.984775 
z
" clip-path="url(#p56f7f7fcb8)" style="fill: #1f77b4"/>
   </g>
   <g id="patch_88">
    <path d="M 144.8175 254.45 
L 185.5085 254.45 
L 185.5085 254.415114 
L 144.8175 254.415114 
z
" clip-path="url(#p56f7f7fcb8)" style="fill: #1f77b4"/>
   </g>
   <g id="patch_89">
    <path d="M 226.1995 254.45 
L 266.8905 254.45 
L 266.8905 254.415114 
L 226.1995 254.415114 
z
" clip-path="url(#p56f7f7fcb8)" style="fill: #1f77b4"/>
   </g>
   <g id="patch_90">
    <path d="M 307.5815 254.45 
L 348.2725 254.45 
L 348.2725 254.415114 
L 307.5815 254.415114 
z
" clip-path="url(#p56f7f7fcb8)" style="fill: #1f77b4"/>
   </g>
   <g id="patch_91">
    <path d="M 388.9635 254.45 
L 429.6545 254.45 
L 429.6545 254.415114 
L 388.9635 254.415114 
z
" clip-path="url(#p56f7f7fcb8)" style="fill: #1f77b4"/>
   </g>
   <g id="patch_92">
    <path d="M 63.4355 254.45 
L 104.1265 254.45 
L 104.1265 254.45 
L 63.4355 254.45 
z
" clip-path="url(#p56f7f7fcb8)" style="fill: #1f77b4"/>
   </g>
   <g id="patch_93">
    <path d="M 63.4355 254.45 
L 104.1265 254.45 
L 104.1265 254.101137 
L 63.4355 254.101137 
z
" clip-path="url(#p56f7f7fcb8)" style="fill: #1f77b4"/>
   </g>
   <g id="patch_94">
    <path d="M 144.8175 254.45 
L 185.5085 254.45 
L 185.5085 254.101137 
L 144.8175 254.101137 
z
" clip-path="url(#p56f7f7fcb8)" style="fill: #1f77b4"/>
   </g>
   <g id="patch_95">
    <path d="M 226.1995 254.45 
L 266.8905 254.45 
L 266.8905 254.380227 
L 226.1995 254.380227 
z
" clip-path="url(#p56f7f7fcb8)" style="fill: #1f77b4"/>
   </g>
   <g id="patch_96">
    <path d="M 63.4355 254.45 
L 104.1265 254.45 
L 104.1265 252.984775 
L 63.4355 252.984775 
z
" clip-path="url(#p56f7f7fcb8)" style="fill: #1f77b4"/>
   </g>
   <g id="patch_97">
    <path d="M 144.8175 254.45 
L 185.5085 254.45 
L 185.5085 254.380227 
L 144.8175 254.380227 
z
" clip-path="url(#p56f7f7fcb8)" style="fill: #1f77b4"/>
   </g>
   <g id="patch_98">
    <path d="M 226.1995 254.45 
L 266.8905 254.45 
L 266.8905 254.380227 
L 226.1995 254.380227 
z
" clip-path="url(#p56f7f7fcb8)" style="fill: #1f77b4"/>
   </g>
   <g id="patch_99">
    <path d="M 307.5815 254.45 
L 348.2725 254.45 
L 348.2725 254.45 
L 307.5815 254.45 
z
" clip-path="url(#p56f7f7fcb8)" style="fill: #1f77b4"/>
   </g>
   <g id="patch_100">
    <path d="M 388.9635 254.45 
L 429.6545 254.45 
L 429.6545 254.45 
L 388.9635 254.45 
z
" clip-path="url(#p56f7f7fcb8)" style="fill: #1f77b4"/>
   </g>
   <g id="patch_101">
    <path d="M 63.4355 254.45 
L 104.1265 254.45 
L 104.1265 254.45 
L 63.4355 254.45 
z
" clip-path="url(#p56f7f7fcb8)" style="fill: #1f77b4"/>
   </g>
   <g id="patch_102">
    <path d="M 63.4355 254.45 
L 104.1265 254.45 
L 104.1265 175.576229 
L 63.4355 175.576229 
z
" clip-path="url(#p56f7f7fcb8)" style="fill: #1f77b4"/>
   </g>
   <g id="patch_103">
    <path d="M 144.8175 254.45 
L 185.5085 254.45 
L 185.5085 192.931155 
L 144.8175 192.931155 
z
" clip-path="url(#p56f7f7fcb8)" style="fill: #1f77b4"/>
   </g>
   <g id="patch_104">
    <path d="M 226.1995 254.45 
L 266.8905 254.45 
L 266.8905 204.668364 
L 226.1995 204.668364 
z
" clip-path="url(#p56f7f7fcb8)" style="fill: #1f77b4"/>
   </g>
   <g id="patch_105">
    <path d="M 307.5815 254.45 
L 348.2725 254.45 
L 348.2725 213.713896 
L 307.5815 213.713896 
z
" clip-path="url(#p56f7f7fcb8)" style="fill: #1f77b4"/>
   </g>
   <g id="patch_106">
    <path d="M 388.9635 254.45 
L 429.6545 254.45 
L 429.6545 220.166211 
L 388.9635 220.166211 
z
" clip-path="url(#p56f7f7fcb8)" style="fill: #1f77b4"/>
   </g>
   <g id="patch_107">
    <path d="M 63.4355 254.45 
L 104.1265 254.45 
L 104.1265 254.101137 
L 63.4355 254.101137 
z
" clip-path="url(#p56f7f7fcb8)" style="fill: #1f77b4"/>
   </g>
   <g id="patch_108">
    <path d="M 144.8175 254.45 
L 185.5085 254.45 
L 185.5085 254.101137 
L 144.8175 254.101137 
z
" clip-path="url(#p56f7f7fcb8)" style="fill: #1f77b4"/>
   </g>
   <g id="patch_109">
    <path d="M 226.1995 254.45 
L 266.8905 254.45 
L 266.8905 254.101137 
L 226.1995 254.101137 
z
" clip-path="url(#p56f7f7fcb8)" style="fill: #1f77b4"/>
   </g>
   <g id="patch_110">
    <path d="M 307.5815 254.45 
L 348.2725 254.45 
L 348.2725 254.415114 
L 307.5815 254.415114 
z
" clip-path="url(#p56f7f7fcb8)" style="fill: #1f77b4"/>
   </g>
   <g id="patch_111">
    <path d="M 388.9635 254.45 
L 429.6545 254.45 
L 429.6545 254.415114 
L 388.9635 254.415114 
z
" clip-path="url(#p56f7f7fcb8)" style="fill: #1f77b4"/>
   </g>
   <g id="patch_112">
    <path d="M 63.4355 254.45 
L 104.1265 254.45 
L 104.1265 213.252933 
L 63.4355 213.252933 
z
" clip-path="url(#p56f7f7fcb8)" style="fill: #1f77b4"/>
   </g>
   <g id="patch_113">
    <path d="M 144.8175 254.45 
L 185.5085 254.45 
L 185.5085 213.333245 
L 144.8175 213.333245 
z
" clip-path="url(#p56f7f7fcb8)" style="fill: #1f77b4"/>
   </g>
   <g id="patch_114">
    <path d="M 226.1995 254.45 
L 266.8905 254.45 
L 266.8905 227.381265 
L 226.1995 227.381265 
z
" clip-path="url(#p56f7f7fcb8)" style="fill: #1f77b4"/>
   </g>
   <g id="patch_115">
    <path d="M 307.5815 254.45 
L 348.2725 254.45 
L 348.2725 226.164123 
L 307.5815 226.164123 
z
" clip-path="url(#p56f7f7fcb8)" style="fill: #1f77b4"/>
   </g>
   <g id="patch_116">
    <path d="M 388.9635 254.45 
L 429.6545 254.45 
L 429.6545 212.957716 
L 388.9635 212.957716 
z
" clip-path="url(#p56f7f7fcb8)" style="fill: #1f77b4"/>
   </g>
   <g id="patch_117">
    <path d="M 63.4355 254.45 
L 104.1265 254.45 
L 104.1265 254.031364 
L 63.4355 254.031364 
z
" clip-path="url(#p56f7f7fcb8)" style="fill: #1f77b4"/>
   </g>
   <g id="patch_118">
    <path d="M 144.8175 254.45 
L 185.5085 254.45 
L 185.5085 254.101137 
L 144.8175 254.101137 
z
" clip-path="url(#p56f7f7fcb8)" style="fill: #1f77b4"/>
   </g>
   <g id="patch_119">
    <path d="M 226.1995 254.45 
L 266.8905 254.45 
L 266.8905 254.240682 
L 226.1995 254.240682 
z
" clip-path="url(#p56f7f7fcb8)" style="fill: #1f77b4"/>
   </g>
   <g id="patch_120">
    <path d="M 307.5815 254.45 
L 348.2725 254.45 
L 348.2725 254.310455 
L 307.5815 254.310455 
z
" clip-path="url(#p56f7f7fcb8)" style="fill: #1f77b4"/>
   </g>
   <g id="patch_121">
    <path d="M 388.9635 254.45 
L 429.6545 254.45 
L 429.6545 254.415114 
L 388.9635 254.415114 
z
" clip-path="url(#p56f7f7fcb8)" style="fill: #1f77b4"/>
   </g>
   <g id="patch_122">
    <path d="M 63.4355 254.45 
L 104.1265 254.45 
L 104.1265 254.240682 
L 63.4355 254.240682 
z
" clip-path="url(#p56f7f7fcb8)" style="fill: #1f77b4"/>
   </g>
   <g id="patch_123">
    <path d="M 144.8175 254.45 
L 185.5085 254.45 
L 185.5085 254.415114 
L 144.8175 254.415114 
z
" clip-path="url(#p56f7f7fcb8)" style="fill: #1f77b4"/>
   </g>
   <g id="patch_124">
    <path d="M 226.1995 254.45 
L 266.8905 254.45 
L 266.8905 254.415114 
L 226.1995 254.415114 
z
" clip-path="url(#p56f7f7fcb8)" style="fill: #1f77b4"/>
   </g>
   <g id="patch_125">
    <path d="M 307.5815 254.45 
L 348.2725 254.45 
L 348.2725 254.380227 
L 307.5815 254.380227 
z
" clip-path="url(#p56f7f7fcb8)" style="fill: #1f77b4"/>
   </g>
   <g id="patch_126">
    <path d="M 388.9635 254.45 
L 429.6545 254.45 
L 429.6545 254.45 
L 388.9635 254.45 
z
" clip-path="url(#p56f7f7fcb8)" style="fill: #1f77b4"/>
   </g>
   <g id="patch_127">
    <path d="M 63.4355 254.45 
L 104.1265 254.45 
L 104.1265 254.240682 
L 63.4355 254.240682 
z
" clip-path="url(#p56f7f7fcb8)" style="fill: #1f77b4"/>
   </g>
   <g id="patch_128">
    <path d="M 144.8175 254.45 
L 185.5085 254.45 
L 185.5085 254.380227 
L 144.8175 254.380227 
z
" clip-path="url(#p56f7f7fcb8)" style="fill: #1f77b4"/>
   </g>
   <g id="patch_129">
    <path d="M 226.1995 254.45 
L 266.8905 254.45 
L 266.8905 254.45 
L 226.1995 254.45 
z
" clip-path="url(#p56f7f7fcb8)" style="fill: #1f77b4"/>
   </g>
   <g id="patch_130">
    <path d="M 307.5815 254.45 
L 348.2725 254.45 
L 348.2725 254.45 
L 307.5815 254.45 
z
" clip-path="url(#p56f7f7fcb8)" style="fill: #1f77b4"/>
   </g>
   <g id="patch_131">
    <path d="M 388.9635 254.45 
L 429.6545 254.45 
L 429.6545 254.45 
L 388.9635 254.45 
z
" clip-path="url(#p56f7f7fcb8)" style="fill: #1f77b4"/>
   </g>
   <g id="patch_132">
    <path d="M 63.4355 254.45 
L 104.1265 254.45 
L 104.1265 252.609165 
L 63.4355 252.609165 
z
" clip-path="url(#p56f7f7fcb8)" style="fill: #1f77b4"/>
   </g>
   <g id="patch_133">
    <path d="M 144.8175 254.45 
L 185.5085 254.45 
L 185.5085 254.031364 
L 144.8175 254.031364 
z
" clip-path="url(#p56f7f7fcb8)" style="fill: #1f77b4"/>
   </g>
   <g id="patch_134">
    <path d="M 226.1995 254.45 
L 266.8905 254.45 
L 266.8905 253.456903 
L 226.1995 253.456903 
z
" clip-path="url(#p56f7f7fcb8)" style="fill: #1f77b4"/>
   </g>
   <g id="patch_135">
    <path d="M 307.5815 254.45 
L 348.2725 254.45 
L 348.2725 253.456903 
L 307.5815 253.456903 
z
" clip-path="url(#p56f7f7fcb8)" style="fill: #1f77b4"/>
   </g>
   <g id="patch_136">
    <path d="M 388.9635 254.45 
L 429.6545 254.45 
L 429.6545 253.456903 
L 388.9635 253.456903 
z
" clip-path="url(#p56f7f7fcb8)" style="fill: #1f77b4"/>
   </g>
   <g id="patch_137">
    <path d="M 63.4355 254.45 
L 104.1265 254.45 
L 104.1265 240.215993 
L 63.4355 240.215993 
z
" clip-path="url(#p56f7f7fcb8)" style="fill: #1f77b4"/>
   </g>
   <g id="patch_138">
    <path d="M 144.8175 254.45 
L 185.5085 254.45 
L 185.5085 242.889836 
L 144.8175 242.889836 
z
" clip-path="url(#p56f7f7fcb8)" style="fill: #1f77b4"/>
   </g>
   <g id="patch_139">
    <path d="M 226.1995 254.45 
L 266.8905 254.45 
L 266.8905 252.484737 
L 226.1995 252.484737 
z
" clip-path="url(#p56f7f7fcb8)" style="fill: #1f77b4"/>
   </g>
   <g id="patch_140">
    <path d="M 307.5815 254.45 
L 348.2725 254.45 
L 348.2725 254.188353 
L 307.5815 254.188353 
z
" clip-path="url(#p56f7f7fcb8)" style="fill: #1f77b4"/>
   </g>
   <g id="patch_141">
    <path d="M 388.9635 254.45 
L 429.6545 254.45 
L 429.6545 254.188353 
L 388.9635 254.188353 
z
" clip-path="url(#p56f7f7fcb8)" style="fill: #1f77b4"/>
   </g>
   <g id="patch_142">
    <path d="M 63.4355 254.45 
L 104.1265 254.45 
L 104.1265 252.897559 
L 63.4355 252.897559 
z
" clip-path="url(#p56f7f7fcb8)" style="fill: #1f77b4"/>
   </g>
   <g id="patch_143">
    <path d="M 144.8175 254.45 
L 185.5085 254.45 
L 185.5085 253.438297 
L 144.8175 253.438297 
z
" clip-path="url(#p56f7f7fcb8)" style="fill: #1f77b4"/>
   </g>
   <g id="patch_144">
    <path d="M 226.1995 254.45 
L 266.8905 254.45 
L 266.8905 254.240682 
L 226.1995 254.240682 
z
" clip-path="url(#p56f7f7fcb8)" style="fill: #1f77b4"/>
   </g>
   <g id="patch_145">
    <path d="M 307.5815 254.45 
L 348.2725 254.45 
L 348.2725 254.2965 
L 307.5815 254.2965 
z
" clip-path="url(#p56f7f7fcb8)" style="fill: #1f77b4"/>
   </g>
   <g id="patch_146">
    <path d="M 388.9635 254.45 
L 429.6545 254.45 
L 429.6545 254.101137 
L 388.9635 254.101137 
z
" clip-path="url(#p56f7f7fcb8)" style="fill: #1f77b4"/>
   </g>
   <g id="patch_147">
    <path d="M 63.4355 254.45 
L 104.1265 254.45 
L 104.1265 254.302702 
L 63.4355 254.302702 
z
" clip-path="url(#p56f7f7fcb8)" style="fill: #1f77b4"/>
   </g>
   <g id="patch_148">
    <path d="M 144.8175 254.45 
L 185.5085 254.45 
L 185.5085 254.415114 
L 144.8175 254.415114 
z
" clip-path="url(#p56f7f7fcb8)" style="fill: #1f77b4"/>
   </g>
   <g id="patch_149">
    <path d="M 226.1995 254.45 
L 266.8905 254.45 
L 266.8905 254.415114 
L 226.1995 254.415114 
z
" clip-path="url(#p56f7f7fcb8)" style="fill: #1f77b4"/>
   </g>
   <g id="patch_150">
    <path d="M 307.5815 254.45 
L 348.2725 254.45 
L 348.2725 254.442247 
L 307.5815 254.442247 
z
" clip-path="url(#p56f7f7fcb8)" style="fill: #1f77b4"/>
   </g>
   <g id="patch_151">
    <path d="M 388.9635 254.45 
L 429.6545 254.45 
L 429.6545 254.442247 
L 388.9635 254.442247 
z
" clip-path="url(#p56f7f7fcb8)" style="fill: #1f77b4"/>
   </g>
   <g id="patch_152">
    <path d="M 63.4355 254.45 
L 104.1265 254.45 
L 104.1265 254.147652 
L 63.4355 254.147652 
z
" clip-path="url(#p56f7f7fcb8)" style="fill: #1f77b4"/>
   </g>
   <g id="patch_153">
    <path d="M 144.8175 254.45 
L 185.5085 254.45 
L 185.5085 254.287197 
L 144.8175 254.287197 
z
" clip-path="url(#p56f7f7fcb8)" style="fill: #1f77b4"/>
   </g>
   <g id="patch_154">
    <path d="M 226.1995 254.45 
L 266.8905 254.45 
L 266.8905 254.240682 
L 226.1995 254.240682 
z
" clip-path="url(#p56f7f7fcb8)" style="fill: #1f77b4"/>
   </g>
   <g id="patch_155">
    <path d="M 307.5815 254.45 
L 348.2725 254.45 
L 348.2725 254.170909 
L 307.5815 254.170909 
z
" clip-path="url(#p56f7f7fcb8)" style="fill: #1f77b4"/>
   </g>
   <g id="patch_156">
    <path d="M 388.9635 254.45 
L 429.6545 254.45 
L 429.6545 254.380227 
L 388.9635 254.380227 
z
" clip-path="url(#p56f7f7fcb8)" style="fill: #1f77b4"/>
   </g>
   <g id="patch_157">
    <path d="M 63.4355 254.45 
L 104.1265 254.45 
L 104.1265 254.45 
L 63.4355 254.45 
z
" clip-path="url(#p56f7f7fcb8)" style="fill: #1f77b4"/>
   </g>
   <g id="patch_158">
    <path d="M 144.8175 254.45 
L 185.5085 254.45 
L 185.5085 254.45 
L 144.8175 254.45 
z
" clip-path="url(#p56f7f7fcb8)" style="fill: #1f77b4"/>
   </g>
   <g id="patch_159">
    <path d="M 226.1995 254.45 
L 266.8905 254.45 
L 266.8905 254.45 
L 226.1995 254.45 
z
" clip-path="url(#p56f7f7fcb8)" style="fill: #1f77b4"/>
   </g>
   <g id="patch_160">
    <path d="M 307.5815 254.45 
L 348.2725 254.45 
L 348.2725 254.45 
L 307.5815 254.45 
z
" clip-path="url(#p56f7f7fcb8)" style="fill: #1f77b4"/>
   </g>
   <g id="patch_161">
    <path d="M 63.4355 254.45 
L 104.1265 254.45 
L 104.1265 254.45 
L 63.4355 254.45 
z
" clip-path="url(#p56f7f7fcb8)" style="fill: #1f77b4"/>
   </g>
   <g id="patch_162">
    <path d="M 144.8175 254.45 
L 185.5085 254.45 
L 185.5085 254.45 
L 144.8175 254.45 
z
" clip-path="url(#p56f7f7fcb8)" style="fill: #1f77b4"/>
   </g>
   <g id="patch_163">
    <path d="M 226.1995 254.45 
L 266.8905 254.45 
L 266.8905 254.45 
L 226.1995 254.45 
z
" clip-path="url(#p56f7f7fcb8)" style="fill: #1f77b4"/>
   </g>
   <g id="patch_164">
    <path d="M 63.4355 254.45 
L 104.1265 254.45 
L 104.1265 254.45 
L 63.4355 254.45 
z
" clip-path="url(#p56f7f7fcb8)" style="fill: #1f77b4"/>
   </g>
   <g id="patch_165">
    <path d="M 144.8175 254.45 
L 185.5085 254.45 
L 185.5085 254.45 
L 144.8175 254.45 
z
" clip-path="url(#p56f7f7fcb8)" style="fill: #1f77b4"/>
   </g>
   <g id="patch_166">
    <path d="M 226.1995 254.45 
L 266.8905 254.45 
L 266.8905 254.45 
L 226.1995 254.45 
z
" clip-path="url(#p56f7f7fcb8)" style="fill: #1f77b4"/>
   </g>
   <g id="patch_167">
    <path d="M 307.5815 254.45 
L 348.2725 254.45 
L 348.2725 254.45 
L 307.5815 254.45 
z
" clip-path="url(#p56f7f7fcb8)" style="fill: #1f77b4"/>
   </g>
   <g id="patch_168">
    <path d="M 63.4355 254.45 
L 104.1265 254.45 
L 104.1265 254.45 
L 63.4355 254.45 
z
" clip-path="url(#p56f7f7fcb8)" style="fill: #1f77b4"/>
   </g>
   <g id="patch_169">
    <path d="M 144.8175 254.45 
L 185.5085 254.45 
L 185.5085 254.45 
L 144.8175 254.45 
z
" clip-path="url(#p56f7f7fcb8)" style="fill: #1f77b4"/>
   </g>
   <g id="patch_170">
    <path d="M 63.4355 254.45 
L 104.1265 254.45 
L 104.1265 22.402381 
L 63.4355 22.402381 
z
" clip-path="url(#p56f7f7fcb8)" style="fill: #1f77b4"/>
   </g>
   <g id="patch_171">
    <path d="M 144.8175 254.45 
L 185.5085 254.45 
L 185.5085 106.616834 
L 144.8175 106.616834 
z
" clip-path="url(#p56f7f7fcb8)" style="fill: #1f77b4"/>
   </g>
   <g id="patch_172">
    <path d="M 226.1995 254.45 
L 266.8905 254.45 
L 266.8905 144.501211 
L 226.1995 144.501211 
z
" clip-path="url(#p56f7f7fcb8)" style="fill: #1f77b4"/>
   </g>
   <g id="patch_173">
    <path d="M 307.5815 254.45 
L 348.2725 254.45 
L 348.2725 135.529238 
L 307.5815 135.529238 
z
" clip-path="url(#p56f7f7fcb8)" style="fill: #1f77b4"/>
   </g>
   <g id="patch_174">
    <path d="M 388.9635 254.45 
L 429.6545 254.45 
L 429.6545 159.118225 
L 388.9635 159.118225 
z
" clip-path="url(#p56f7f7fcb8)" style="fill: #1f77b4"/>
   </g>
   <g id="patch_175">
    <path d="M 63.4355 254.45 
L 104.1265 254.45 
L 104.1265 254.083694 
L 63.4355 254.083694 
z
" clip-path="url(#p56f7f7fcb8)" style="fill: #1f77b4"/>
   </g>
   <g id="patch_176">
    <path d="M 144.8175 254.45 
L 185.5085 254.45 
L 185.5085 254.380227 
L 144.8175 254.380227 
z
" clip-path="url(#p56f7f7fcb8)" style="fill: #1f77b4"/>
   </g>
   <g id="patch_177">
    <path d="M 226.1995 254.45 
L 266.8905 254.45 
L 266.8905 254.380227 
L 226.1995 254.380227 
z
" clip-path="url(#p56f7f7fcb8)" style="fill: #1f77b4"/>
   </g>
   <g id="patch_178">
    <path d="M 307.5815 254.45 
L 348.2725 254.45 
L 348.2725 254.380227 
L 307.5815 254.380227 
z
" clip-path="url(#p56f7f7fcb8)" style="fill: #1f77b4"/>
   </g>
   <g id="patch_179">
    <path d="M 388.9635 254.45 
L 429.6545 254.45 
L 429.6545 254.345341 
L 388.9635 254.345341 
z
" clip-path="url(#p56f7f7fcb8)" style="fill: #1f77b4"/>
   </g>
   <g id="patch_180">
    <path d="M 63.4355 254.45 
L 104.1265 254.45 
L 104.1265 44.808308 
L 63.4355 44.808308 
z
" clip-path="url(#p56f7f7fcb8)" style="fill: #1f77b4"/>
   </g>
   <g id="patch_181">
    <path d="M 144.8175 254.45 
L 185.5085 254.45 
L 185.5085 146.460291 
L 144.8175 146.460291 
z
" clip-path="url(#p56f7f7fcb8)" style="fill: #1f77b4"/>
   </g>
   <g id="patch_182">
    <path d="M 226.1995 254.45 
L 266.8905 254.45 
L 266.8905 177.753526 
L 226.1995 177.753526 
z
" clip-path="url(#p56f7f7fcb8)" style="fill: #1f77b4"/>
   </g>
   <g id="patch_183">
    <path d="M 307.5815 254.45 
L 348.2725 254.45 
L 348.2725 166.473489 
L 307.5815 166.473489 
z
" clip-path="url(#p56f7f7fcb8)" style="fill: #1f77b4"/>
   </g>
   <g id="patch_184">
    <path d="M 388.9635 254.45 
L 429.6545 254.45 
L 429.6545 194.690371 
L 388.9635 194.690371 
z
" clip-path="url(#p56f7f7fcb8)" style="fill: #1f77b4"/>
   </g>
   <g id="patch_185">
    <path d="M 63.4355 254.45 
L 104.1265 254.45 
L 104.1265 250.461331 
L 63.4355 250.461331 
z
" clip-path="url(#p56f7f7fcb8)" style="fill: #1f77b4"/>
   </g>
   <g id="patch_186">
    <path d="M 144.8175 254.45 
L 185.5085 254.45 
L 185.5085 251.1358 
L 144.8175 251.1358 
z
" clip-path="url(#p56f7f7fcb8)" style="fill: #1f77b4"/>
   </g>
   <g id="patch_187">
    <path d="M 226.1995 254.45 
L 266.8905 254.45 
L 266.8905 253.984849 
L 226.1995 253.984849 
z
" clip-path="url(#p56f7f7fcb8)" style="fill: #1f77b4"/>
   </g>
   <g id="patch_188">
    <path d="M 307.5815 254.45 
L 348.2725 254.45 
L 348.2725 253.984849 
L 307.5815 253.984849 
z
" clip-path="url(#p56f7f7fcb8)" style="fill: #1f77b4"/>
   </g>
   <g id="patch_189">
    <path d="M 388.9635 254.45 
L 429.6545 254.45 
L 429.6545 254.129046 
L 388.9635 254.129046 
z
" clip-path="url(#p56f7f7fcb8)" style="fill: #1f77b4"/>
   </g>
   <g id="patch_190">
    <path d="M 63.4355 254.45 
L 104.1265 254.45 
L 104.1265 221.546385 
L 63.4355 221.546385 
z
" clip-path="url(#p56f7f7fcb8)" style="fill: #1f77b4"/>
   </g>
   <g id="patch_191">
    <path d="M 144.8175 254.45 
L 185.5085 254.45 
L 185.5085 243.425923 
L 144.8175 243.425923 
z
" clip-path="url(#p56f7f7fcb8)" style="fill: #1f77b4"/>
   </g>
   <g id="patch_192">
    <path d="M 226.1995 254.45 
L 266.8905 254.45 
L 266.8905 248.937961 
L 226.1995 248.937961 
z
" clip-path="url(#p56f7f7fcb8)" style="fill: #1f77b4"/>
   </g>
   <g id="patch_193">
    <path d="M 307.5815 254.45 
L 348.2725 254.45 
L 348.2725 248.937961 
L 307.5815 248.937961 
z
" clip-path="url(#p56f7f7fcb8)" style="fill: #1f77b4"/>
   </g>
   <g id="patch_194">
    <path d="M 388.9635 254.45 
L 429.6545 254.45 
L 429.6545 247.200623 
L 388.9635 247.200623 
z
" clip-path="url(#p56f7f7fcb8)" style="fill: #1f77b4"/>
   </g>
   <g id="patch_195">
    <path d="M 63.4355 254.45 
L 104.1265 254.45 
L 104.1265 254.275568 
L 63.4355 254.275568 
z
" clip-path="url(#p56f7f7fcb8)" style="fill: #1f77b4"/>
   </g>
   <g id="patch_196">
    <path d="M 144.8175 254.45 
L 185.5085 254.45 
L 185.5085 254.275568 
L 144.8175 254.275568 
z
" clip-path="url(#p56f7f7fcb8)" style="fill: #1f77b4"/>
   </g>
   <g id="patch_197">
    <path d="M 226.1995 254.45 
L 266.8905 254.45 
L 266.8905 254.275568 
L 226.1995 254.275568 
z
" clip-path="url(#p56f7f7fcb8)" style="fill: #1f77b4"/>
   </g>
   <g id="patch_198">
    <path d="M 307.5815 254.45 
L 348.2725 254.45 
L 348.2725 254.275568 
L 307.5815 254.275568 
z
" clip-path="url(#p56f7f7fcb8)" style="fill: #1f77b4"/>
   </g>
   <g id="patch_199">
    <path d="M 388.9635 254.45 
L 429.6545 254.45 
L 429.6545 254.275568 
L 388.9635 254.275568 
z
" clip-path="url(#p56f7f7fcb8)" style="fill: #1f77b4"/>
   </g>
   <g id="patch_200">
    <path d="M 63.4355 254.45 
L 104.1265 254.45 
L 104.1265 254.310455 
L 63.4355 254.310455 
z
" clip-path="url(#p56f7f7fcb8)" style="fill: #1f77b4"/>
   </g>
   <g id="patch_201">
    <path d="M 144.8175 254.45 
L 185.5085 254.45 
L 185.5085 254.310455 
L 144.8175 254.310455 
z
" clip-path="url(#p56f7f7fcb8)" style="fill: #1f77b4"/>
   </g>
   <g id="patch_202">
    <path d="M 226.1995 254.45 
L 266.8905 254.45 
L 266.8905 254.310455 
L 226.1995 254.310455 
z
" clip-path="url(#p56f7f7fcb8)" style="fill: #1f77b4"/>
   </g>
   <g id="patch_203">
    <path d="M 307.5815 254.45 
L 348.2725 254.45 
L 348.2725 254.432557 
L 307.5815 254.432557 
z
" clip-path="url(#p56f7f7fcb8)" style="fill: #1f77b4"/>
   </g>
   <g id="patch_204">
    <path d="M 388.9635 254.45 
L 429.6545 254.45 
L 429.6545 254.432557 
L 388.9635 254.432557 
z
" clip-path="url(#p56f7f7fcb8)" style="fill: #1f77b4"/>
   </g>
   <g id="patch_205">
    <path d="M 63.4355 254.45 
L 104.1265 254.45 
L 104.1265 215.619934 
L 63.4355 215.619934 
z
" clip-path="url(#p56f7f7fcb8)" style="fill: #1f77b4"/>
   </g>
   <g id="patch_206">
    <path d="M 144.8175 254.45 
L 185.5085 254.45 
L 185.5085 214.199057 
L 144.8175 214.199057 
z
" clip-path="url(#p56f7f7fcb8)" style="fill: #1f77b4"/>
   </g>
   <g id="patch_207">
    <path d="M 226.1995 254.45 
L 266.8905 254.45 
L 266.8905 239.919847 
L 226.1995 239.919847 
z
" clip-path="url(#p56f7f7fcb8)" style="fill: #1f77b4"/>
   </g>
   <g id="patch_208">
    <path d="M 307.5815 254.45 
L 348.2725 254.45 
L 348.2725 239.919847 
L 307.5815 239.919847 
z
" clip-path="url(#p56f7f7fcb8)" style="fill: #1f77b4"/>
   </g>
   <g id="patch_209">
    <path d="M 388.9635 254.45 
L 429.6545 254.45 
L 429.6545 215.137347 
L 388.9635 215.137347 
z
" clip-path="url(#p56f7f7fcb8)" style="fill: #1f77b4"/>
   </g>
   <g id="patch_210">
    <path d="M 63.4355 254.45 
L 104.1265 254.45 
L 104.1265 254.345341 
L 63.4355 254.345341 
z
" clip-path="url(#p56f7f7fcb8)" style="fill: #1f77b4"/>
   </g>
   <g id="patch_211">
    <path d="M 144.8175 254.45 
L 185.5085 254.45 
L 185.5085 254.345341 
L 144.8175 254.345341 
z
" clip-path="url(#p56f7f7fcb8)" style="fill: #1f77b4"/>
   </g>
   <g id="patch_212">
    <path d="M 226.1995 254.45 
L 266.8905 254.45 
L 266.8905 254.45 
L 226.1995 254.45 
z
" clip-path="url(#p56f7f7fcb8)" style="fill: #1f77b4"/>
   </g>
   <g id="patch_213">
    <path d="M 307.5815 254.45 
L 348.2725 254.45 
L 348.2725 254.45 
L 307.5815 254.45 
z
" clip-path="url(#p56f7f7fcb8)" style="fill: #1f77b4"/>
   </g>
   <g id="patch_214">
    <path d="M 388.9635 254.45 
L 429.6545 254.45 
L 429.6545 254.45 
L 388.9635 254.45 
z
" clip-path="url(#p56f7f7fcb8)" style="fill: #1f77b4"/>
   </g>
   <g id="patch_215">
    <path d="M 63.4355 254.45 
L 104.1265 254.45 
L 104.1265 231.34717 
L 63.4355 231.34717 
z
" clip-path="url(#p56f7f7fcb8)" style="fill: #1f77b4"/>
   </g>
   <g id="patch_216">
    <path d="M 144.8175 254.45 
L 185.5085 254.45 
L 185.5085 237.239118 
L 144.8175 237.239118 
z
" clip-path="url(#p56f7f7fcb8)" style="fill: #1f77b4"/>
   </g>
   <g id="patch_217">
    <path d="M 226.1995 254.45 
L 266.8905 254.45 
L 266.8905 241.661345 
L 226.1995 241.661345 
z
" clip-path="url(#p56f7f7fcb8)" style="fill: #1f77b4"/>
   </g>
   <g id="patch_218">
    <path d="M 307.5815 254.45 
L 348.2725 254.45 
L 348.2725 235.069491 
L 307.5815 235.069491 
z
" clip-path="url(#p56f7f7fcb8)" style="fill: #1f77b4"/>
   </g>
   <g id="patch_219">
    <path d="M 388.9635 254.45 
L 429.6545 254.45 
L 429.6545 249.592445 
L 388.9635 249.592445 
z
" clip-path="url(#p56f7f7fcb8)" style="fill: #1f77b4"/>
   </g>
   <g id="patch_220">
    <path d="M 63.4355 254.45 
L 104.1265 254.45 
L 104.1265 253.926705 
L 63.4355 253.926705 
z
" clip-path="url(#p56f7f7fcb8)" style="fill: #1f77b4"/>
   </g>
   <g id="patch_221">
    <path d="M 144.8175 254.45 
L 185.5085 254.45 
L 185.5085 253.961592 
L 144.8175 253.961592 
z
" clip-path="url(#p56f7f7fcb8)" style="fill: #1f77b4"/>
   </g>
   <g id="patch_222">
    <path d="M 226.1995 254.45 
L 266.8905 254.45 
L 266.8905 253.752274 
L 226.1995 253.752274 
z
" clip-path="url(#p56f7f7fcb8)" style="fill: #1f77b4"/>
   </g>
   <g id="patch_223">
    <path d="M 307.5815 254.45 
L 348.2725 254.45 
L 348.2725 254.275568 
L 307.5815 254.275568 
z
" clip-path="url(#p56f7f7fcb8)" style="fill: #1f77b4"/>
   </g>
   <g id="patch_224">
    <path d="M 388.9635 254.45 
L 429.6545 254.45 
L 429.6545 254.275568 
L 388.9635 254.275568 
z
" clip-path="url(#p56f7f7fcb8)" style="fill: #1f77b4"/>
   </g>
   <g id="patch_225">
    <path d="M 63.4355 254.45 
L 104.1265 254.45 
L 104.1265 253.961592 
L 63.4355 253.961592 
z
" clip-path="url(#p56f7f7fcb8)" style="fill: #1f77b4"/>
   </g>
   <g id="patch_226">
    <path d="M 144.8175 254.45 
L 185.5085 254.45 
L 185.5085 253.961592 
L 144.8175 253.961592 
z
" clip-path="url(#p56f7f7fcb8)" style="fill: #1f77b4"/>
   </g>
   <g id="patch_227">
    <path d="M 226.1995 254.45 
L 266.8905 254.45 
L 266.8905 253.961592 
L 226.1995 253.961592 
z
" clip-path="url(#p56f7f7fcb8)" style="fill: #1f77b4"/>
   </g>
   <g id="patch_228">
    <path d="M 307.5815 254.45 
L 348.2725 254.45 
L 348.2725 254.426742 
L 307.5815 254.426742 
z
" clip-path="url(#p56f7f7fcb8)" style="fill: #1f77b4"/>
   </g>
   <g id="patch_229">
    <path d="M 388.9635 254.45 
L 429.6545 254.45 
L 429.6545 254.426742 
L 388.9635 254.426742 
z
" clip-path="url(#p56f7f7fcb8)" style="fill: #1f77b4"/>
   </g>
   <g id="patch_230">
    <path d="M 63.4355 254.45 
L 104.1265 254.45 
L 104.1265 254.031364 
L 63.4355 254.031364 
z
" clip-path="url(#p56f7f7fcb8)" style="fill: #1f77b4"/>
   </g>
   <g id="patch_231">
    <path d="M 144.8175 254.45 
L 185.5085 254.45 
L 185.5085 254.380227 
L 144.8175 254.380227 
z
" clip-path="url(#p56f7f7fcb8)" style="fill: #1f77b4"/>
   </g>
   <g id="patch_232">
    <path d="M 226.1995 254.45 
L 266.8905 254.45 
L 266.8905 254.380227 
L 226.1995 254.380227 
z
" clip-path="url(#p56f7f7fcb8)" style="fill: #1f77b4"/>
   </g>
   <g id="patch_233">
    <path d="M 307.5815 254.45 
L 348.2725 254.45 
L 348.2725 254.45 
L 307.5815 254.45 
z
" clip-path="url(#p56f7f7fcb8)" style="fill: #1f77b4"/>
   </g>
   <g id="patch_234">
    <path d="M 388.9635 254.45 
L 429.6545 254.45 
L 429.6545 254.45 
L 388.9635 254.45 
z
" clip-path="url(#p56f7f7fcb8)" style="fill: #1f77b4"/>
   </g>
   <g id="patch_235">
    <path d="M 63.4355 254.45 
L 104.1265 254.45 
L 104.1265 248.090722 
L 63.4355 248.090722 
z
" clip-path="url(#p56f7f7fcb8)" style="fill: #1f77b4"/>
   </g>
   <g id="patch_236">
    <path d="M 144.8175 254.45 
L 185.5085 254.45 
L 185.5085 251.928217 
L 144.8175 251.928217 
z
" clip-path="url(#p56f7f7fcb8)" style="fill: #1f77b4"/>
   </g>
   <g id="patch_237">
    <path d="M 226.1995 254.45 
L 266.8905 254.45 
L 266.8905 251.928217 
L 226.1995 251.928217 
z
" clip-path="url(#p56f7f7fcb8)" style="fill: #1f77b4"/>
   </g>
   <g id="patch_238">
    <path d="M 307.5815 254.45 
L 348.2725 254.45 
L 348.2725 250.707196 
L 307.5815 250.707196 
z
" clip-path="url(#p56f7f7fcb8)" style="fill: #1f77b4"/>
   </g>
   <g id="patch_239">
    <path d="M 388.9635 254.45 
L 429.6545 254.45 
L 429.6545 252.032876 
L 388.9635 252.032876 
z
" clip-path="url(#p56f7f7fcb8)" style="fill: #1f77b4"/>
   </g>
   <g id="patch_240">
    <path d="M 63.4355 254.45 
L 104.1265 254.45 
L 104.1265 254.45 
L 63.4355 254.45 
z
" clip-path="url(#p56f7f7fcb8)" style="fill: #1f77b4"/>
   </g>
   <g id="patch_241">
    <path d="M 63.4355 254.45 
L 104.1265 254.45 
L 104.1265 149.238784 
L 63.4355 149.238784 
z
" clip-path="url(#p56f7f7fcb8)" style="fill: #1f77b4"/>
   </g>
   <g id="patch_242">
    <path d="M 144.8175 254.45 
L 185.5085 254.45 
L 185.5085 168.422363 
L 144.8175 168.422363 
z
" clip-path="url(#p56f7f7fcb8)" style="fill: #1f77b4"/>
   </g>
   <g id="patch_243">
    <path d="M 226.1995 254.45 
L 266.8905 254.45 
L 266.8905 166.055568 
L 226.1995 166.055568 
z
" clip-path="url(#p56f7f7fcb8)" style="fill: #1f77b4"/>
   </g>
   <g id="patch_244">
    <path d="M 307.5815 254.45 
L 348.2725 254.45 
L 348.2725 178.668518 
L 307.5815 178.668518 
z
" clip-path="url(#p56f7f7fcb8)" style="fill: #1f77b4"/>
   </g>
   <g id="patch_245">
    <path d="M 388.9635 254.45 
L 429.6545 254.45 
L 429.6545 220.405306 
L 388.9635 220.405306 
z
" clip-path="url(#p56f7f7fcb8)" style="fill: #1f77b4"/>
   </g>
   <g id="patch_246">
    <path d="M 63.4355 254.45 
L 104.1265 254.45 
L 104.1265 194.053001 
L 63.4355 194.053001 
z
" clip-path="url(#p56f7f7fcb8)" style="fill: #1f77b4"/>
   </g>
   <g id="patch_247">
    <path d="M 144.8175 254.45 
L 185.5085 254.45 
L 185.5085 168.878855 
L 144.8175 168.878855 
z
" clip-path="url(#p56f7f7fcb8)" style="fill: #1f77b4"/>
   </g>
   <g id="patch_248">
    <path d="M 226.1995 254.45 
L 266.8905 254.45 
L 266.8905 210.003322 
L 226.1995 210.003322 
z
" clip-path="url(#p56f7f7fcb8)" style="fill: #1f77b4"/>
   </g>
   <g id="patch_249">
    <path d="M 307.5815 254.45 
L 348.2725 254.45 
L 348.2725 212.132265 
L 307.5815 212.132265 
z
" clip-path="url(#p56f7f7fcb8)" style="fill: #1f77b4"/>
   </g>
   <g id="patch_250">
    <path d="M 388.9635 254.45 
L 429.6545 254.45 
L 429.6545 225.870598 
L 388.9635 225.870598 
z
" clip-path="url(#p56f7f7fcb8)" style="fill: #1f77b4"/>
   </g>
   <g id="patch_251">
    <path d="M 63.4355 254.45 
L 104.1265 254.45 
L 104.1265 254.426742 
L 63.4355 254.426742 
z
" clip-path="url(#p56f7f7fcb8)" style="fill: #1f77b4"/>
   </g>
   <g id="patch_252">
    <path d="M 144.8175 254.45 
L 185.5085 254.45 
L 185.5085 254.426742 
L 144.8175 254.426742 
z
" clip-path="url(#p56f7f7fcb8)" style="fill: #1f77b4"/>
   </g>
   <g id="patch_253">
    <path d="M 226.1995 254.45 
L 266.8905 254.45 
L 266.8905 254.426742 
L 226.1995 254.426742 
z
" clip-path="url(#p56f7f7fcb8)" style="fill: #1f77b4"/>
   </g>
   <g id="patch_254">
    <path d="M 307.5815 254.45 
L 348.2725 254.45 
L 348.2725 254.45 
L 307.5815 254.45 
z
" clip-path="url(#p56f7f7fcb8)" style="fill: #1f77b4"/>
   </g>
   <g id="patch_255">
    <path d="M 388.9635 254.45 
L 429.6545 254.45 
L 429.6545 254.45 
L 388.9635 254.45 
z
" clip-path="url(#p56f7f7fcb8)" style="fill: #1f77b4"/>
   </g>
   <g id="patch_256">
    <path d="M 63.4355 254.45 
L 104.1265 254.45 
L 104.1265 252.496366 
L 63.4355 252.496366 
z
" clip-path="url(#p56f7f7fcb8)" style="fill: #1f77b4"/>
   </g>
   <g id="patch_257">
    <path d="M 144.8175 254.45 
L 185.5085 254.45 
L 185.5085 252.333563 
L 144.8175 252.333563 
z
" clip-path="url(#p56f7f7fcb8)" style="fill: #1f77b4"/>
   </g>
   <g id="patch_258">
    <path d="M 226.1995 254.45 
L 266.8905 254.45 
L 266.8905 254.275568 
L 226.1995 254.275568 
z
" clip-path="url(#p56f7f7fcb8)" style="fill: #1f77b4"/>
   </g>
   <g id="patch_259">
    <path d="M 307.5815 254.45 
L 348.2725 254.45 
L 348.2725 254.397671 
L 307.5815 254.397671 
z
" clip-path="url(#p56f7f7fcb8)" style="fill: #1f77b4"/>
   </g>
   <g id="patch_260">
    <path d="M 388.9635 254.45 
L 429.6545 254.45 
L 429.6545 254.397671 
L 388.9635 254.397671 
z
" clip-path="url(#p56f7f7fcb8)" style="fill: #1f77b4"/>
   </g>
   <g id="patch_261">
    <path d="M 63.4355 254.45 
L 104.1265 254.45 
L 104.1265 254.031364 
L 63.4355 254.031364 
z
" clip-path="url(#p56f7f7fcb8)" style="fill: #1f77b4"/>
   </g>
   <g id="patch_262">
    <path d="M 144.8175 254.45 
L 185.5085 254.45 
L 185.5085 254.170909 
L 144.8175 254.170909 
z
" clip-path="url(#p56f7f7fcb8)" style="fill: #1f77b4"/>
   </g>
   <g id="patch_263">
    <path d="M 226.1995 254.45 
L 266.8905 254.45 
L 266.8905 254.310455 
L 226.1995 254.310455 
z
" clip-path="url(#p56f7f7fcb8)" style="fill: #1f77b4"/>
   </g>
   <g id="patch_264">
    <path d="M 307.5815 254.45 
L 348.2725 254.45 
L 348.2725 254.310455 
L 307.5815 254.310455 
z
" clip-path="url(#p56f7f7fcb8)" style="fill: #1f77b4"/>
   </g>
   <g id="patch_265">
    <path d="M 388.9635 254.45 
L 429.6545 254.45 
L 429.6545 254.124394 
L 388.9635 254.124394 
z
" clip-path="url(#p56f7f7fcb8)" style="fill: #1f77b4"/>
   </g>
   <g id="patch_266">
    <path d="M 63.4355 254.45 
L 104.1265 254.45 
L 104.1265 254.205796 
L 63.4355 254.205796 
z
" clip-path="url(#p56f7f7fcb8)" style="fill: #1f77b4"/>
   </g>
   <g id="patch_267">
    <path d="M 144.8175 254.45 
L 185.5085 254.45 
L 185.5085 254.205796 
L 144.8175 254.205796 
z
" clip-path="url(#p56f7f7fcb8)" style="fill: #1f77b4"/>
   </g>
   <g id="patch_268">
    <path d="M 226.1995 254.45 
L 266.8905 254.45 
L 266.8905 254.432557 
L 226.1995 254.432557 
z
" clip-path="url(#p56f7f7fcb8)" style="fill: #1f77b4"/>
   </g>
   <g id="patch_269">
    <path d="M 307.5815 254.45 
L 348.2725 254.45 
L 348.2725 254.432557 
L 307.5815 254.432557 
z
" clip-path="url(#p56f7f7fcb8)" style="fill: #1f77b4"/>
   </g>
   <g id="patch_270">
    <path d="M 388.9635 254.45 
L 429.6545 254.45 
L 429.6545 254.432557 
L 388.9635 254.432557 
z
" clip-path="url(#p56f7f7fcb8)" style="fill: #1f77b4"/>
   </g>
   <g id="patch_271">
    <path d="M 63.4355 254.45 
L 104.1265 254.45 
L 104.1265 253.680563 
L 63.4355 253.680563 
z
" clip-path="url(#p56f7f7fcb8)" style="fill: #1f77b4"/>
   </g>
   <g id="patch_272">
    <path d="M 144.8175 254.45 
L 185.5085 254.45 
L 185.5085 254.395732 
L 144.8175 254.395732 
z
" clip-path="url(#p56f7f7fcb8)" style="fill: #1f77b4"/>
   </g>
   <g id="patch_273">
    <path d="M 226.1995 254.45 
L 266.8905 254.45 
L 266.8905 254.395732 
L 226.1995 254.395732 
z
" clip-path="url(#p56f7f7fcb8)" style="fill: #1f77b4"/>
   </g>
   <g id="patch_274">
    <path d="M 307.5815 254.45 
L 348.2725 254.45 
L 348.2725 254.395732 
L 307.5815 254.395732 
z
" clip-path="url(#p56f7f7fcb8)" style="fill: #1f77b4"/>
   </g>
   <g id="patch_275">
    <path d="M 388.9635 254.45 
L 429.6545 254.45 
L 429.6545 254.395732 
L 388.9635 254.395732 
z
" clip-path="url(#p56f7f7fcb8)" style="fill: #1f77b4"/>
   </g>
   <g id="patch_276">
    <path d="M 63.4355 254.45 
L 104.1265 254.45 
L 104.1265 216.295551 
L 63.4355 216.295551 
z
" clip-path="url(#p56f7f7fcb8)" style="fill: #1f77b4"/>
   </g>
   <g id="patch_277">
    <path d="M 144.8175 254.45 
L 185.5085 254.45 
L 185.5085 242.863981 
L 144.8175 242.863981 
z
" clip-path="url(#p56f7f7fcb8)" style="fill: #1f77b4"/>
   </g>
   <g id="patch_278">
    <path d="M 226.1995 254.45 
L 266.8905 254.45 
L 266.8905 241.710319 
L 226.1995 241.710319 
z
" clip-path="url(#p56f7f7fcb8)" style="fill: #1f77b4"/>
   </g>
   <g id="patch_279">
    <path d="M 307.5815 254.45 
L 348.2725 254.45 
L 348.2725 241.925811 
L 307.5815 241.925811 
z
" clip-path="url(#p56f7f7fcb8)" style="fill: #1f77b4"/>
   </g>
   <g id="patch_280">
    <path d="M 388.9635 254.45 
L 429.6545 254.45 
L 429.6545 215.753436 
L 388.9635 215.753436 
z
" clip-path="url(#p56f7f7fcb8)" style="fill: #1f77b4"/>
   </g>
   <g id="patch_281">
    <path d="M 63.4355 254.45 
L 104.1265 254.45 
L 104.1265 246.819199 
L 63.4355 246.819199 
z
" clip-path="url(#p56f7f7fcb8)" style="fill: #1f77b4"/>
   </g>
   <g id="patch_282">
    <path d="M 144.8175 254.45 
L 185.5085 254.45 
L 185.5085 253.385967 
L 144.8175 253.385967 
z
" clip-path="url(#p56f7f7fcb8)" style="fill: #1f77b4"/>
   </g>
   <g id="patch_283">
    <path d="M 226.1995 254.45 
L 266.8905 254.45 
L 266.8905 253.385967 
L 226.1995 253.385967 
z
" clip-path="url(#p56f7f7fcb8)" style="fill: #1f77b4"/>
   </g>
   <g id="patch_284">
    <path d="M 307.5815 254.45 
L 348.2725 254.45 
L 348.2725 253.385967 
L 307.5815 253.385967 
z
" clip-path="url(#p56f7f7fcb8)" style="fill: #1f77b4"/>
   </g>
   <g id="patch_285">
    <path d="M 388.9635 254.45 
L 429.6545 254.45 
L 429.6545 253.385967 
L 388.9635 253.385967 
z
" clip-path="url(#p56f7f7fcb8)" style="fill: #1f77b4"/>
   </g>
   <g id="patch_286">
    <path d="M 63.4355 254.45 
L 104.1265 254.45 
L 104.1265 254.380227 
L 63.4355 254.380227 
z
" clip-path="url(#p56f7f7fcb8)" style="fill: #1f77b4"/>
   </g>
   <g id="patch_287">
    <path d="M 144.8175 254.45 
L 185.5085 254.45 
L 185.5085 254.426742 
L 144.8175 254.426742 
z
" clip-path="url(#p56f7f7fcb8)" style="fill: #1f77b4"/>
   </g>
   <g id="patch_288">
    <path d="M 226.1995 254.45 
L 266.8905 254.45 
L 266.8905 254.426742 
L 226.1995 254.426742 
z
" clip-path="url(#p56f7f7fcb8)" style="fill: #1f77b4"/>
   </g>
   <g id="patch_289">
    <path d="M 307.5815 254.45 
L 348.2725 254.45 
L 348.2725 254.426742 
L 307.5815 254.426742 
z
" clip-path="url(#p56f7f7fcb8)" style="fill: #1f77b4"/>
   </g>
   <g id="patch_290">
    <path d="M 388.9635 254.45 
L 429.6545 254.45 
L 429.6545 254.415114 
L 388.9635 254.415114 
z
" clip-path="url(#p56f7f7fcb8)" style="fill: #1f77b4"/>
   </g>
   <g id="patch_291">
    <path d="M 63.4355 254.45 
L 104.1265 254.45 
L 104.1265 253.152229 
L 63.4355 253.152229 
z
" clip-path="url(#p56f7f7fcb8)" style="fill: #1f77b4"/>
   </g>
   <g id="patch_292">
    <path d="M 144.8175 254.45 
L 185.5085 254.45 
L 185.5085 252.984775 
L 144.8175 252.984775 
z
" clip-path="url(#p56f7f7fcb8)" style="fill: #1f77b4"/>
   </g>
   <g id="patch_293">
    <path d="M 226.1995 254.45 
L 266.8905 254.45 
L 266.8905 253.822046 
L 226.1995 253.822046 
z
" clip-path="url(#p56f7f7fcb8)" style="fill: #1f77b4"/>
   </g>
   <g id="patch_294">
    <path d="M 307.5815 254.45 
L 348.2725 254.45 
L 348.2725 254.408136 
L 307.5815 254.408136 
z
" clip-path="url(#p56f7f7fcb8)" style="fill: #1f77b4"/>
   </g>
   <g id="patch_295">
    <path d="M 388.9635 254.45 
L 429.6545 254.45 
L 429.6545 254.408136 
L 388.9635 254.408136 
z
" clip-path="url(#p56f7f7fcb8)" style="fill: #1f77b4"/>
   </g>
   <g id="patch_296">
    <path d="M 63.4355 254.45 
L 104.1265 254.45 
L 104.1265 253.668546 
L 63.4355 253.668546 
z
" clip-path="url(#p56f7f7fcb8)" style="fill: #1f77b4"/>
   </g>
   <g id="patch_297">
    <path d="M 144.8175 254.45 
L 185.5085 254.45 
L 185.5085 254.380227 
L 144.8175 254.380227 
z
" clip-path="url(#p56f7f7fcb8)" style="fill: #1f77b4"/>
   </g>
   <g id="patch_298">
    <path d="M 226.1995 254.45 
L 266.8905 254.45 
L 266.8905 254.380227 
L 226.1995 254.380227 
z
" clip-path="url(#p56f7f7fcb8)" style="fill: #1f77b4"/>
   </g>
   <g id="patch_299">
    <path d="M 307.5815 254.45 
L 348.2725 254.45 
L 348.2725 254.380227 
L 307.5815 254.380227 
z
" clip-path="url(#p56f7f7fcb8)" style="fill: #1f77b4"/>
   </g>
   <g id="patch_300">
    <path d="M 388.9635 254.45 
L 429.6545 254.45 
L 429.6545 254.380227 
L 388.9635 254.380227 
z
" clip-path="url(#p56f7f7fcb8)" style="fill: #1f77b4"/>
   </g>
   <g id="patch_301">
    <path d="M 63.4355 254.45 
L 104.1265 254.45 
L 104.1265 254.031364 
L 63.4355 254.031364 
z
" clip-path="url(#p56f7f7fcb8)" style="fill: #1f77b4"/>
   </g>
   <g id="patch_302">
    <path d="M 144.8175 254.45 
L 185.5085 254.45 
L 185.5085 254.380227 
L 144.8175 254.380227 
z
" clip-path="url(#p56f7f7fcb8)" style="fill: #1f77b4"/>
   </g>
   <g id="patch_303">
    <path d="M 226.1995 254.45 
L 266.8905 254.45 
L 266.8905 254.380227 
L 226.1995 254.380227 
z
" clip-path="url(#p56f7f7fcb8)" style="fill: #1f77b4"/>
   </g>
   <g id="patch_304">
    <path d="M 307.5815 254.45 
L 348.2725 254.45 
L 348.2725 254.380227 
L 307.5815 254.380227 
z
" clip-path="url(#p56f7f7fcb8)" style="fill: #1f77b4"/>
   </g>
   <g id="patch_305">
    <path d="M 388.9635 254.45 
L 429.6545 254.45 
L 429.6545 254.436045 
L 388.9635 254.436045 
z
" clip-path="url(#p56f7f7fcb8)" style="fill: #1f77b4"/>
   </g>
   <g id="patch_306">
    <path d="M 63.4355 254.45 
L 104.1265 254.45 
L 104.1265 254.380227 
L 63.4355 254.380227 
z
" clip-path="url(#p56f7f7fcb8)" style="fill: #1f77b4"/>
   </g>
   <g id="patch_307">
    <path d="M 144.8175 254.45 
L 185.5085 254.45 
L 185.5085 254.45 
L 144.8175 254.45 
z
" clip-path="url(#p56f7f7fcb8)" style="fill: #1f77b4"/>
   </g>
   <g id="patch_308">
    <path d="M 226.1995 254.45 
L 266.8905 254.45 
L 266.8905 254.45 
L 226.1995 254.45 
z
" clip-path="url(#p56f7f7fcb8)" style="fill: #1f77b4"/>
   </g>
   <g id="patch_309">
    <path d="M 307.5815 254.45 
L 348.2725 254.45 
L 348.2725 254.45 
L 307.5815 254.45 
z
" clip-path="url(#p56f7f7fcb8)" style="fill: #1f77b4"/>
   </g>
   <g id="patch_310">
    <path d="M 388.9635 254.45 
L 429.6545 254.45 
L 429.6545 254.45 
L 388.9635 254.45 
z
" clip-path="url(#p56f7f7fcb8)" style="fill: #1f77b4"/>
   </g>
   <g id="patch_311">
    <path d="M 63.4355 254.45 
L 104.1265 254.45 
L 104.1265 254.45 
L 63.4355 254.45 
z
" clip-path="url(#p56f7f7fcb8)" style="fill: #1f77b4"/>
   </g>
   <g id="patch_312">
    <path d="M 144.8175 254.45 
L 185.5085 254.45 
L 185.5085 254.45 
L 144.8175 254.45 
z
" clip-path="url(#p56f7f7fcb8)" style="fill: #1f77b4"/>
   </g>
   <g id="patch_313">
    <path d="M 63.4355 254.45 
L 104.1265 254.45 
L 104.1265 147.93595 
L 63.4355 147.93595 
z
" clip-path="url(#p56f7f7fcb8)" style="fill: #1f77b4"/>
   </g>
   <g id="patch_314">
    <path d="M 144.8175 254.45 
L 185.5085 254.45 
L 185.5085 148.720046 
L 144.8175 148.720046 
z
" clip-path="url(#p56f7f7fcb8)" style="fill: #1f77b4"/>
   </g>
   <g id="patch_315">
    <path d="M 226.1995 254.45 
L 266.8905 254.45 
L 266.8905 130.108395 
L 226.1995 130.108395 
z
" clip-path="url(#p56f7f7fcb8)" style="fill: #1f77b4"/>
   </g>
   <g id="patch_316">
    <path d="M 307.5815 254.45 
L 348.2725 254.45 
L 348.2725 198.856 
L 307.5815 198.856 
z
" clip-path="url(#p56f7f7fcb8)" style="fill: #1f77b4"/>
   </g>
   <g id="patch_317">
    <path d="M 388.9635 254.45 
L 429.6545 254.45 
L 429.6545 139.986871 
L 388.9635 139.986871 
z
" clip-path="url(#p56f7f7fcb8)" style="fill: #1f77b4"/>
   </g>
   <g id="patch_318">
    <path d="M 63.4355 254.45 
L 104.1265 254.45 
L 104.1265 164.438082 
L 63.4355 164.438082 
z
" clip-path="url(#p56f7f7fcb8)" style="fill: #1f77b4"/>
   </g>
   <g id="patch_319">
    <path d="M 144.8175 254.45 
L 185.5085 254.45 
L 185.5085 99.638504 
L 144.8175 99.638504 
z
" clip-path="url(#p56f7f7fcb8)" style="fill: #1f77b4"/>
   </g>
   <g id="patch_320">
    <path d="M 226.1995 254.45 
L 266.8905 254.45 
L 266.8905 177.173136 
L 226.1995 177.173136 
z
" clip-path="url(#p56f7f7fcb8)" style="fill: #1f77b4"/>
   </g>
   <g id="patch_321">
    <path d="M 307.5815 254.45 
L 348.2725 254.45 
L 348.2725 193.051262 
L 307.5815 193.051262 
z
" clip-path="url(#p56f7f7fcb8)" style="fill: #1f77b4"/>
   </g>
   <g id="patch_322">
    <path d="M 388.9635 254.45 
L 429.6545 254.45 
L 429.6545 196.671401 
L 388.9635 196.671401 
z
" clip-path="url(#p56f7f7fcb8)" style="fill: #1f77b4"/>
   </g>
   <g id="patch_323">
    <path d="M 63.4355 254.45 
L 104.1265 254.45 
L 104.1265 254.089508 
L 63.4355 254.089508 
z
" clip-path="url(#p56f7f7fcb8)" style="fill: #1f77b4"/>
   </g>
   <g id="patch_324">
    <path d="M 144.8175 254.45 
L 185.5085 254.45 
L 185.5085 254.136023 
L 144.8175 254.136023 
z
" clip-path="url(#p56f7f7fcb8)" style="fill: #1f77b4"/>
   </g>
   <g id="patch_325">
    <path d="M 226.1995 254.45 
L 266.8905 254.45 
L 266.8905 254.225177 
L 226.1995 254.225177 
z
" clip-path="url(#p56f7f7fcb8)" style="fill: #1f77b4"/>
   </g>
   <g id="patch_326">
    <path d="M 307.5815 254.45 
L 348.2725 254.45 
L 348.2725 254.345341 
L 307.5815 254.345341 
z
" clip-path="url(#p56f7f7fcb8)" style="fill: #1f77b4"/>
   </g>
   <g id="patch_327">
    <path d="M 388.9635 254.45 
L 429.6545 254.45 
L 429.6545 254.240682 
L 388.9635 254.240682 
z
" clip-path="url(#p56f7f7fcb8)" style="fill: #1f77b4"/>
   </g>
   <g id="patch_328">
    <path d="M 63.4355 254.45 
L 104.1265 254.45 
L 104.1265 198.178346 
L 63.4355 198.178346 
z
" clip-path="url(#p56f7f7fcb8)" style="fill: #1f77b4"/>
   </g>
   <g id="patch_329">
    <path d="M 144.8175 254.45 
L 185.5085 254.45 
L 185.5085 213.819663 
L 144.8175 213.819663 
z
" clip-path="url(#p56f7f7fcb8)" style="fill: #1f77b4"/>
   </g>
   <g id="patch_330">
    <path d="M 226.1995 254.45 
L 266.8905 254.45 
L 266.8905 244.908827 
L 226.1995 244.908827 
z
" clip-path="url(#p56f7f7fcb8)" style="fill: #1f77b4"/>
   </g>
   <g id="patch_331">
    <path d="M 307.5815 254.45 
L 348.2725 254.45 
L 348.2725 241.924605 
L 307.5815 241.924605 
z
" clip-path="url(#p56f7f7fcb8)" style="fill: #1f77b4"/>
   </g>
   <g id="patch_332">
    <path d="M 388.9635 254.45 
L 429.6545 254.45 
L 429.6545 250.630183 
L 388.9635 250.630183 
z
" clip-path="url(#p56f7f7fcb8)" style="fill: #1f77b4"/>
   </g>
   <g id="patch_333">
    <path d="M 63.4355 254.45 
L 104.1265 254.45 
L 104.1265 254.01741 
L 63.4355 254.01741 
z
" clip-path="url(#p56f7f7fcb8)" style="fill: #1f77b4"/>
   </g>
   <g id="patch_334">
    <path d="M 144.8175 254.45 
L 185.5085 254.45 
L 185.5085 254.41013 
L 144.8175 254.41013 
z
" clip-path="url(#p56f7f7fcb8)" style="fill: #1f77b4"/>
   </g>
   <g id="patch_335">
    <path d="M 226.1995 254.45 
L 266.8905 254.45 
L 266.8905 254.41013 
L 226.1995 254.41013 
z
" clip-path="url(#p56f7f7fcb8)" style="fill: #1f77b4"/>
   </g>
   <g id="patch_336">
    <path d="M 307.5815 254.45 
L 348.2725 254.45 
L 348.2725 254.41013 
L 307.5815 254.41013 
z
" clip-path="url(#p56f7f7fcb8)" style="fill: #1f77b4"/>
   </g>
   <g id="patch_337">
    <path d="M 388.9635 254.45 
L 429.6545 254.45 
L 429.6545 254.41013 
L 388.9635 254.41013 
z
" clip-path="url(#p56f7f7fcb8)" style="fill: #1f77b4"/>
   </g>
   <g id="patch_338">
    <path d="M 63.4355 254.45 
L 104.1265 254.45 
L 104.1265 243.190076 
L 63.4355 243.190076 
z
" clip-path="url(#p56f7f7fcb8)" style="fill: #1f77b4"/>
   </g>
   <g id="patch_339">
    <path d="M 144.8175 254.45 
L 185.5085 254.45 
L 185.5085 253.529024 
L 144.8175 253.529024 
z
" clip-path="url(#p56f7f7fcb8)" style="fill: #1f77b4"/>
   </g>
   <g id="patch_340">
    <path d="M 226.1995 254.45 
L 266.8905 254.45 
L 266.8905 253.529024 
L 226.1995 253.529024 
z
" clip-path="url(#p56f7f7fcb8)" style="fill: #1f77b4"/>
   </g>
   <g id="patch_341">
    <path d="M 307.5815 254.45 
L 348.2725 254.45 
L 348.2725 253.529024 
L 307.5815 253.529024 
z
" clip-path="url(#p56f7f7fcb8)" style="fill: #1f77b4"/>
   </g>
   <g id="patch_342">
    <path d="M 388.9635 254.45 
L 429.6545 254.45 
L 429.6545 253.529024 
L 388.9635 253.529024 
z
" clip-path="url(#p56f7f7fcb8)" style="fill: #1f77b4"/>
   </g>
   <g id="patch_343">
    <path d="M 63.4355 254.45 
L 104.1265 254.45 
L 104.1265 246.757566 
L 63.4355 246.757566 
z
" clip-path="url(#p56f7f7fcb8)" style="fill: #1f77b4"/>
   </g>
   <g id="patch_344">
    <path d="M 144.8175 254.45 
L 185.5085 254.45 
L 185.5085 248.693757 
L 144.8175 248.693757 
z
" clip-path="url(#p56f7f7fcb8)" style="fill: #1f77b4"/>
   </g>
   <g id="patch_345">
    <path d="M 226.1995 254.45 
L 266.8905 254.45 
L 266.8905 247.423895 
L 226.1995 247.423895 
z
" clip-path="url(#p56f7f7fcb8)" style="fill: #1f77b4"/>
   </g>
   <g id="patch_346">
    <path d="M 307.5815 254.45 
L 348.2725 254.45 
L 348.2725 253.194092 
L 307.5815 253.194092 
z
" clip-path="url(#p56f7f7fcb8)" style="fill: #1f77b4"/>
   </g>
   <g id="patch_347">
    <path d="M 388.9635 254.45 
L 429.6545 254.45 
L 429.6545 236.220347 
L 388.9635 236.220347 
z
" clip-path="url(#p56f7f7fcb8)" style="fill: #1f77b4"/>
   </g>
   <g id="patch_348">
    <path d="M 63.4355 254.45 
L 104.1265 254.45 
L 104.1265 253.996478 
L 63.4355 253.996478 
z
" clip-path="url(#p56f7f7fcb8)" style="fill: #1f77b4"/>
   </g>
   <g id="patch_349">
    <path d="M 144.8175 254.45 
L 185.5085 254.45 
L 185.5085 254.293012 
L 144.8175 254.293012 
z
" clip-path="url(#p56f7f7fcb8)" style="fill: #1f77b4"/>
   </g>
   <g id="patch_350">
    <path d="M 226.1995 254.45 
L 266.8905 254.45 
L 266.8905 254.415114 
L 226.1995 254.415114 
z
" clip-path="url(#p56f7f7fcb8)" style="fill: #1f77b4"/>
   </g>
   <g id="patch_351">
    <path d="M 307.5815 254.45 
L 348.2725 254.45 
L 348.2725 254.415114 
L 307.5815 254.415114 
z
" clip-path="url(#p56f7f7fcb8)" style="fill: #1f77b4"/>
   </g>
   <g id="patch_352">
    <path d="M 388.9635 254.45 
L 429.6545 254.45 
L 429.6545 254.415114 
L 388.9635 254.415114 
z
" clip-path="url(#p56f7f7fcb8)" style="fill: #1f77b4"/>
   </g>
   <g id="patch_353">
    <path d="M 63.4355 254.45 
L 104.1265 254.45 
L 104.1265 250.124096 
L 63.4355 250.124096 
z
" clip-path="url(#p56f7f7fcb8)" style="fill: #1f77b4"/>
   </g>
   <g id="patch_354">
    <path d="M 144.8175 254.45 
L 185.5085 254.45 
L 185.5085 254.275568 
L 144.8175 254.275568 
z
" clip-path="url(#p56f7f7fcb8)" style="fill: #1f77b4"/>
   </g>
   <g id="patch_355">
    <path d="M 226.1995 254.45 
L 266.8905 254.45 
L 266.8905 254.275568 
L 226.1995 254.275568 
z
" clip-path="url(#p56f7f7fcb8)" style="fill: #1f77b4"/>
   </g>
   <g id="patch_356">
    <path d="M 307.5815 254.45 
L 348.2725 254.45 
L 348.2725 254.275568 
L 307.5815 254.275568 
z
" clip-path="url(#p56f7f7fcb8)" style="fill: #1f77b4"/>
   </g>
   <g id="patch_357">
    <path d="M 388.9635 254.45 
L 429.6545 254.45 
L 429.6545 254.275568 
L 388.9635 254.275568 
z
" clip-path="url(#p56f7f7fcb8)" style="fill: #1f77b4"/>
   </g>
   <g id="patch_358">
    <path d="M 63.4355 254.45 
L 104.1265 254.45 
L 104.1265 254.188353 
L 63.4355 254.188353 
z
" clip-path="url(#p56f7f7fcb8)" style="fill: #1f77b4"/>
   </g>
   <g id="patch_359">
    <path d="M 144.8175 254.45 
L 185.5085 254.45 
L 185.5085 254.397671 
L 144.8175 254.397671 
z
" clip-path="url(#p56f7f7fcb8)" style="fill: #1f77b4"/>
   </g>
   <g id="patch_360">
    <path d="M 226.1995 254.45 
L 266.8905 254.45 
L 266.8905 254.397671 
L 226.1995 254.397671 
z
" clip-path="url(#p56f7f7fcb8)" style="fill: #1f77b4"/>
   </g>
   <g id="patch_361">
    <path d="M 307.5815 254.45 
L 348.2725 254.45 
L 348.2725 254.397671 
L 307.5815 254.397671 
z
" clip-path="url(#p56f7f7fcb8)" style="fill: #1f77b4"/>
   </g>
   <g id="patch_362">
    <path d="M 388.9635 254.45 
L 429.6545 254.45 
L 429.6545 254.442247 
L 388.9635 254.442247 
z
" clip-path="url(#p56f7f7fcb8)" style="fill: #1f77b4"/>
   </g>
   <g id="patch_363">
    <path d="M 63.4355 254.45 
L 104.1265 254.45 
L 104.1265 254.380227 
L 63.4355 254.380227 
z
" clip-path="url(#p56f7f7fcb8)" style="fill: #1f77b4"/>
   </g>
   <g id="patch_364">
    <path d="M 144.8175 254.45 
L 185.5085 254.45 
L 185.5085 254.380227 
L 144.8175 254.380227 
z
" clip-path="url(#p56f7f7fcb8)" style="fill: #1f77b4"/>
   </g>
   <g id="patch_365">
    <path d="M 226.1995 254.45 
L 266.8905 254.45 
L 266.8905 254.380227 
L 226.1995 254.380227 
z
" clip-path="url(#p56f7f7fcb8)" style="fill: #1f77b4"/>
   </g>
   <g id="patch_366">
    <path d="M 307.5815 254.45 
L 348.2725 254.45 
L 348.2725 254.45 
L 307.5815 254.45 
z
" clip-path="url(#p56f7f7fcb8)" style="fill: #1f77b4"/>
   </g>
   <g id="patch_367">
    <path d="M 388.9635 254.45 
L 429.6545 254.45 
L 429.6545 254.45 
L 388.9635 254.45 
z
" clip-path="url(#p56f7f7fcb8)" style="fill: #1f77b4"/>
   </g>
   <g id="patch_368">
    <path d="M 63.4355 254.45 
L 104.1265 254.45 
L 104.1265 254.248435 
L 63.4355 254.248435 
z
" clip-path="url(#p56f7f7fcb8)" style="fill: #1f77b4"/>
   </g>
   <g id="patch_369">
    <path d="M 144.8175 254.45 
L 185.5085 254.45 
L 185.5085 254.248435 
L 144.8175 254.248435 
z
" clip-path="url(#p56f7f7fcb8)" style="fill: #1f77b4"/>
   </g>
   <g id="patch_370">
    <path d="M 226.1995 254.45 
L 266.8905 254.45 
L 266.8905 254.248435 
L 226.1995 254.248435 
z
" clip-path="url(#p56f7f7fcb8)" style="fill: #1f77b4"/>
   </g>
   <g id="patch_371">
    <path d="M 307.5815 254.45 
L 348.2725 254.45 
L 348.2725 254.248435 
L 307.5815 254.248435 
z
" clip-path="url(#p56f7f7fcb8)" style="fill: #1f77b4"/>
   </g>
   <g id="patch_372">
    <path d="M 388.9635 254.45 
L 429.6545 254.45 
L 429.6545 254.248435 
L 388.9635 254.248435 
z
" clip-path="url(#p56f7f7fcb8)" style="fill: #1f77b4"/>
   </g>
   <g id="patch_373">
    <path d="M 63.4355 254.45 
L 104.1265 254.45 
L 104.1265 254.45 
L 63.4355 254.45 
z
" clip-path="url(#p56f7f7fcb8)" style="fill: #1f77b4"/>
   </g>
   <g id="patch_374">
    <path d="M 144.8175 254.45 
L 185.5085 254.45 
L 185.5085 254.45 
L 144.8175 254.45 
z
" clip-path="url(#p56f7f7fcb8)" style="fill: #1f77b4"/>
   </g>
   <g id="patch_375">
    <path d="M 226.1995 254.45 
L 266.8905 254.45 
L 266.8905 254.45 
L 226.1995 254.45 
z
" clip-path="url(#p56f7f7fcb8)" style="fill: #1f77b4"/>
   </g>
   <g id="patch_376">
    <path d="M 307.5815 254.45 
L 348.2725 254.45 
L 348.2725 254.45 
L 307.5815 254.45 
z
" clip-path="url(#p56f7f7fcb8)" style="fill: #1f77b4"/>
   </g>
   <g id="patch_377">
    <path d="M 388.9635 254.45 
L 429.6545 254.45 
L 429.6545 254.45 
L 388.9635 254.45 
z
" clip-path="url(#p56f7f7fcb8)" style="fill: #1f77b4"/>
   </g>
   <g id="patch_378">
    <path d="M 63.4355 254.45 
L 104.1265 254.45 
L 104.1265 254.397671 
L 63.4355 254.397671 
z
" clip-path="url(#p56f7f7fcb8)" style="fill: #1f77b4"/>
   </g>
   <g id="patch_379">
    <path d="M 144.8175 254.45 
L 185.5085 254.45 
L 185.5085 254.397671 
L 144.8175 254.397671 
z
" clip-path="url(#p56f7f7fcb8)" style="fill: #1f77b4"/>
   </g>
   <g id="patch_380">
    <path d="M 226.1995 254.45 
L 266.8905 254.45 
L 266.8905 254.397671 
L 226.1995 254.397671 
z
" clip-path="url(#p56f7f7fcb8)" style="fill: #1f77b4"/>
   </g>
   <g id="patch_381">
    <path d="M 307.5815 254.45 
L 348.2725 254.45 
L 348.2725 254.397671 
L 307.5815 254.397671 
z
" clip-path="url(#p56f7f7fcb8)" style="fill: #1f77b4"/>
   </g>
   <g id="patch_382">
    <path d="M 388.9635 254.45 
L 429.6545 254.45 
L 429.6545 254.397671 
L 388.9635 254.397671 
z
" clip-path="url(#p56f7f7fcb8)" style="fill: #1f77b4"/>
   </g>
   <g id="matplotlib.axis_1">
    <g id="xtick_1">
     <g id="line2d_1">
      <defs>
       <path id="maee715f61e" d="M 0 0 
L 0 3.5 
" style="stroke: #000000; stroke-width: 0.8"/>
      </defs>
      <g>
       <use xlink:href="#maee715f61e" x="83.781" y="254.45" style="stroke: #000000; stroke-width: 0.8"/>
      </g>
     </g>
     <g id="text_1">
      <!-- Elijah Wood -->
      <g transform="translate(86.540375 319.632812) rotate(-90) scale(0.1 -0.1)">
       <defs>
        <path id="DejaVuSans-45" d="M 628 4666 
L 3578 4666 
L 3578 4134 
L 1259 4134 
L 1259 2753 
L 3481 2753 
L 3481 2222 
L 1259 2222 
L 1259 531 
L 3634 531 
L 3634 0 
L 628 0 
L 628 4666 
z
" transform="scale(0.015625)"/>
        <path id="DejaVuSans-6c" d="M 603 4863 
L 1178 4863 
L 1178 0 
L 603 0 
L 603 4863 
z
" transform="scale(0.015625)"/>
        <path id="DejaVuSans-69" d="M 603 3500 
L 1178 3500 
L 1178 0 
L 603 0 
L 603 3500 
z
M 603 4863 
L 1178 4863 
L 1178 4134 
L 603 4134 
L 603 4863 
z
" transform="scale(0.015625)"/>
        <path id="DejaVuSans-6a" d="M 603 3500 
L 1178 3500 
L 1178 -63 
Q 1178 -731 923 -1031 
Q 669 -1331 103 -1331 
L -116 -1331 
L -116 -844 
L 38 -844 
Q 366 -844 484 -692 
Q 603 -541 603 -63 
L 603 3500 
z
M 603 4863 
L 1178 4863 
L 1178 4134 
L 603 4134 
L 603 4863 
z
" transform="scale(0.015625)"/>
        <path id="DejaVuSans-61" d="M 2194 1759 
Q 1497 1759 1228 1600 
Q 959 1441 959 1056 
Q 959 750 1161 570 
Q 1363 391 1709 391 
Q 2188 391 2477 730 
Q 2766 1069 2766 1631 
L 2766 1759 
L 2194 1759 
z
M 3341 1997 
L 3341 0 
L 2766 0 
L 2766 531 
Q 2569 213 2275 61 
Q 1981 -91 1556 -91 
Q 1019 -91 701 211 
Q 384 513 384 1019 
Q 384 1609 779 1909 
Q 1175 2209 1959 2209 
L 2766 2209 
L 2766 2266 
Q 2766 2663 2505 2880 
Q 2244 3097 1772 3097 
Q 1472 3097 1187 3025 
Q 903 2953 641 2809 
L 641 3341 
Q 956 3463 1253 3523 
Q 1550 3584 1831 3584 
Q 2591 3584 2966 3190 
Q 3341 2797 3341 1997 
z
" transform="scale(0.015625)"/>
        <path id="DejaVuSans-68" d="M 3513 2113 
L 3513 0 
L 2938 0 
L 2938 2094 
Q 2938 2591 2744 2837 
Q 2550 3084 2163 3084 
Q 1697 3084 1428 2787 
Q 1159 2491 1159 1978 
L 1159 0 
L 581 0 
L 581 4863 
L 1159 4863 
L 1159 2956 
Q 1366 3272 1645 3428 
Q 1925 3584 2291 3584 
Q 2894 3584 3203 3211 
Q 3513 2838 3513 2113 
z
" transform="scale(0.015625)"/>
        <path id="DejaVuSans-20" transform="scale(0.015625)"/>
        <path id="DejaVuSans-57" d="M 213 4666 
L 850 4666 
L 1831 722 
L 2809 4666 
L 3519 4666 
L 4500 722 
L 5478 4666 
L 6119 4666 
L 4947 0 
L 4153 0 
L 3169 4050 
L 2175 0 
L 1381 0 
L 213 4666 
z
" transform="scale(0.015625)"/>
        <path id="DejaVuSans-6f" d="M 1959 3097 
Q 1497 3097 1228 2736 
Q 959 2375 959 1747 
Q 959 1119 1226 758 
Q 1494 397 1959 397 
Q 2419 397 2687 759 
Q 2956 1122 2956 1747 
Q 2956 2369 2687 2733 
Q 2419 3097 1959 3097 
z
M 1959 3584 
Q 2709 3584 3137 3096 
Q 3566 2609 3566 1747 
Q 3566 888 3137 398 
Q 2709 -91 1959 -91 
Q 1206 -91 779 398 
Q 353 888 353 1747 
Q 353 2609 779 3096 
Q 1206 3584 1959 3584 
z
" transform="scale(0.015625)"/>
        <path id="DejaVuSans-64" d="M 2906 2969 
L 2906 4863 
L 3481 4863 
L 3481 0 
L 2906 0 
L 2906 525 
Q 2725 213 2448 61 
Q 2172 -91 1784 -91 
Q 1150 -91 751 415 
Q 353 922 353 1747 
Q 353 2572 751 3078 
Q 1150 3584 1784 3584 
Q 2172 3584 2448 3432 
Q 2725 3281 2906 2969 
z
M 947 1747 
Q 947 1113 1208 752 
Q 1469 391 1925 391 
Q 2381 391 2643 752 
Q 2906 1113 2906 1747 
Q 2906 2381 2643 2742 
Q 2381 3103 1925 3103 
Q 1469 3103 1208 2742 
Q 947 2381 947 1747 
z
" transform="scale(0.015625)"/>
       </defs>
       <use xlink:href="#DejaVuSans-45"/>
       <use xlink:href="#DejaVuSans-6c" x="63.183594"/>
       <use xlink:href="#DejaVuSans-69" x="90.966797"/>
       <use xlink:href="#DejaVuSans-6a" x="118.75"/>
       <use xlink:href="#DejaVuSans-61" x="146.533203"/>
       <use xlink:href="#DejaVuSans-68" x="207.8125"/>
       <use xlink:href="#DejaVuSans-20" x="271.191406"/>
       <use xlink:href="#DejaVuSans-57" x="302.978516"/>
       <use xlink:href="#DejaVuSans-6f" x="395.980469"/>
       <use xlink:href="#DejaVuSans-6f" x="457.162109"/>
       <use xlink:href="#DejaVuSans-64" x="518.34375"/>
      </g>
     </g>
    </g>
    <g id="xtick_2">
     <g id="line2d_2">
      <g>
       <use xlink:href="#maee715f61e" x="165.163" y="254.45" style="stroke: #000000; stroke-width: 0.8"/>
      </g>
     </g>
     <g id="text_2">
      <!-- Kevin Bacon -->
      <g transform="translate(167.922375 322.817187) rotate(-90) scale(0.1 -0.1)">
       <defs>
        <path id="DejaVuSans-4b" d="M 628 4666 
L 1259 4666 
L 1259 2694 
L 3353 4666 
L 4166 4666 
L 1850 2491 
L 4331 0 
L 3500 0 
L 1259 2247 
L 1259 0 
L 628 0 
L 628 4666 
z
" transform="scale(0.015625)"/>
        <path id="DejaVuSans-65" d="M 3597 1894 
L 3597 1613 
L 953 1613 
Q 991 1019 1311 708 
Q 1631 397 2203 397 
Q 2534 397 2845 478 
Q 3156 559 3463 722 
L 3463 178 
Q 3153 47 2828 -22 
Q 2503 -91 2169 -91 
Q 1331 -91 842 396 
Q 353 884 353 1716 
Q 353 2575 817 3079 
Q 1281 3584 2069 3584 
Q 2775 3584 3186 3129 
Q 3597 2675 3597 1894 
z
M 3022 2063 
Q 3016 2534 2758 2815 
Q 2500 3097 2075 3097 
Q 1594 3097 1305 2825 
Q 1016 2553 972 2059 
L 3022 2063 
z
" transform="scale(0.015625)"/>
        <path id="DejaVuSans-76" d="M 191 3500 
L 800 3500 
L 1894 563 
L 2988 3500 
L 3597 3500 
L 2284 0 
L 1503 0 
L 191 3500 
z
" transform="scale(0.015625)"/>
        <path id="DejaVuSans-6e" d="M 3513 2113 
L 3513 0 
L 2938 0 
L 2938 2094 
Q 2938 2591 2744 2837 
Q 2550 3084 2163 3084 
Q 1697 3084 1428 2787 
Q 1159 2491 1159 1978 
L 1159 0 
L 581 0 
L 581 3500 
L 1159 3500 
L 1159 2956 
Q 1366 3272 1645 3428 
Q 1925 3584 2291 3584 
Q 2894 3584 3203 3211 
Q 3513 2838 3513 2113 
z
" transform="scale(0.015625)"/>
        <path id="DejaVuSans-42" d="M 1259 2228 
L 1259 519 
L 2272 519 
Q 2781 519 3026 730 
Q 3272 941 3272 1375 
Q 3272 1813 3026 2020 
Q 2781 2228 2272 2228 
L 1259 2228 
z
M 1259 4147 
L 1259 2741 
L 2194 2741 
Q 2656 2741 2882 2914 
Q 3109 3088 3109 3444 
Q 3109 3797 2882 3972 
Q 2656 4147 2194 4147 
L 1259 4147 
z
M 628 4666 
L 2241 4666 
Q 2963 4666 3353 4366 
Q 3744 4066 3744 3513 
Q 3744 3084 3544 2831 
Q 3344 2578 2956 2516 
Q 3422 2416 3680 2098 
Q 3938 1781 3938 1306 
Q 3938 681 3513 340 
Q 3088 0 2303 0 
L 628 0 
L 628 4666 
z
" transform="scale(0.015625)"/>
        <path id="DejaVuSans-63" d="M 3122 3366 
L 3122 2828 
Q 2878 2963 2633 3030 
Q 2388 3097 2138 3097 
Q 1578 3097 1268 2742 
Q 959 2388 959 1747 
Q 959 1106 1268 751 
Q 1578 397 2138 397 
Q 2388 397 2633 464 
Q 2878 531 3122 666 
L 3122 134 
Q 2881 22 2623 -34 
Q 2366 -91 2075 -91 
Q 1284 -91 818 406 
Q 353 903 353 1747 
Q 353 2603 823 3093 
Q 1294 3584 2113 3584 
Q 2378 3584 2631 3529 
Q 2884 3475 3122 3366 
z
" transform="scale(0.015625)"/>
       </defs>
       <use xlink:href="#DejaVuSans-4b"/>
       <use xlink:href="#DejaVuSans-65" x="60.576172"/>
       <use xlink:href="#DejaVuSans-76" x="122.099609"/>
       <use xlink:href="#DejaVuSans-69" x="181.279297"/>
       <use xlink:href="#DejaVuSans-6e" x="209.0625"/>
       <use xlink:href="#DejaVuSans-20" x="272.441406"/>
       <use xlink:href="#DejaVuSans-42" x="304.228516"/>
       <use xlink:href="#DejaVuSans-61" x="372.832031"/>
       <use xlink:href="#DejaVuSans-63" x="434.111328"/>
       <use xlink:href="#DejaVuSans-6f" x="489.091797"/>
       <use xlink:href="#DejaVuSans-6e" x="550.273438"/>
      </g>
     </g>
    </g>
    <g id="xtick_3">
     <g id="line2d_3">
      <g>
       <use xlink:href="#maee715f61e" x="246.545" y="254.45" style="stroke: #000000; stroke-width: 0.8"/>
      </g>
     </g>
     <g id="text_3">
      <!-- Blythe Danner -->
      <g transform="translate(249.304375 333.364062) rotate(-90) scale(0.1 -0.1)">
       <defs>
        <path id="DejaVuSans-79" d="M 2059 -325 
Q 1816 -950 1584 -1140 
Q 1353 -1331 966 -1331 
L 506 -1331 
L 506 -850 
L 844 -850 
Q 1081 -850 1212 -737 
Q 1344 -625 1503 -206 
L 1606 56 
L 191 3500 
L 800 3500 
L 1894 763 
L 2988 3500 
L 3597 3500 
L 2059 -325 
z
" transform="scale(0.015625)"/>
        <path id="DejaVuSans-74" d="M 1172 4494 
L 1172 3500 
L 2356 3500 
L 2356 3053 
L 1172 3053 
L 1172 1153 
Q 1172 725 1289 603 
Q 1406 481 1766 481 
L 2356 481 
L 2356 0 
L 1766 0 
Q 1100 0 847 248 
Q 594 497 594 1153 
L 594 3053 
L 172 3053 
L 172 3500 
L 594 3500 
L 594 4494 
L 1172 4494 
z
" transform="scale(0.015625)"/>
        <path id="DejaVuSans-44" d="M 1259 4147 
L 1259 519 
L 2022 519 
Q 2988 519 3436 956 
Q 3884 1394 3884 2338 
Q 3884 3275 3436 3711 
Q 2988 4147 2022 4147 
L 1259 4147 
z
M 628 4666 
L 1925 4666 
Q 3281 4666 3915 4102 
Q 4550 3538 4550 2338 
Q 4550 1131 3912 565 
Q 3275 0 1925 0 
L 628 0 
L 628 4666 
z
" transform="scale(0.015625)"/>
        <path id="DejaVuSans-72" d="M 2631 2963 
Q 2534 3019 2420 3045 
Q 2306 3072 2169 3072 
Q 1681 3072 1420 2755 
Q 1159 2438 1159 1844 
L 1159 0 
L 581 0 
L 581 3500 
L 1159 3500 
L 1159 2956 
Q 1341 3275 1631 3429 
Q 1922 3584 2338 3584 
Q 2397 3584 2469 3576 
Q 2541 3569 2628 3553 
L 2631 2963 
z
" transform="scale(0.015625)"/>
       </defs>
       <use xlink:href="#DejaVuSans-42"/>
       <use xlink:href="#DejaVuSans-6c" x="68.603516"/>
       <use xlink:href="#DejaVuSans-79" x="96.386719"/>
       <use xlink:href="#DejaVuSans-74" x="155.566406"/>
       <use xlink:href="#DejaVuSans-68" x="194.775391"/>
       <use xlink:href="#DejaVuSans-65" x="258.154297"/>
       <use xlink:href="#DejaVuSans-20" x="319.677734"/>
       <use xlink:href="#DejaVuSans-44" x="351.464844"/>
       <use xlink:href="#DejaVuSans-61" x="428.466797"/>
       <use xlink:href="#DejaVuSans-6e" x="489.746094"/>
       <use xlink:href="#DejaVuSans-6e" x="553.125"/>
       <use xlink:href="#DejaVuSans-65" x="616.503906"/>
       <use xlink:href="#DejaVuSans-72" x="678.027344"/>
      </g>
     </g>
    </g>
    <g id="xtick_4">
     <g id="line2d_4">
      <g>
       <use xlink:href="#maee715f61e" x="327.927" y="254.45" style="stroke: #000000; stroke-width: 0.8"/>
      </g>
     </g>
     <g id="text_4">
      <!-- John Goodman -->
      <g transform="translate(330.686375 334.9125) rotate(-90) scale(0.1 -0.1)">
       <defs>
        <path id="DejaVuSans-4a" d="M 628 4666 
L 1259 4666 
L 1259 325 
Q 1259 -519 939 -900 
Q 619 -1281 -91 -1281 
L -331 -1281 
L -331 -750 
L -134 -750 
Q 284 -750 456 -515 
Q 628 -281 628 325 
L 628 4666 
z
" transform="scale(0.015625)"/>
        <path id="DejaVuSans-47" d="M 3809 666 
L 3809 1919 
L 2778 1919 
L 2778 2438 
L 4434 2438 
L 4434 434 
Q 4069 175 3628 42 
Q 3188 -91 2688 -91 
Q 1594 -91 976 548 
Q 359 1188 359 2328 
Q 359 3472 976 4111 
Q 1594 4750 2688 4750 
Q 3144 4750 3555 4637 
Q 3966 4525 4313 4306 
L 4313 3634 
Q 3963 3931 3569 4081 
Q 3175 4231 2741 4231 
Q 1884 4231 1454 3753 
Q 1025 3275 1025 2328 
Q 1025 1384 1454 906 
Q 1884 428 2741 428 
Q 3075 428 3337 486 
Q 3600 544 3809 666 
z
" transform="scale(0.015625)"/>
        <path id="DejaVuSans-6d" d="M 3328 2828 
Q 3544 3216 3844 3400 
Q 4144 3584 4550 3584 
Q 5097 3584 5394 3201 
Q 5691 2819 5691 2113 
L 5691 0 
L 5113 0 
L 5113 2094 
Q 5113 2597 4934 2840 
Q 4756 3084 4391 3084 
Q 3944 3084 3684 2787 
Q 3425 2491 3425 1978 
L 3425 0 
L 2847 0 
L 2847 2094 
Q 2847 2600 2669 2842 
Q 2491 3084 2119 3084 
Q 1678 3084 1418 2786 
Q 1159 2488 1159 1978 
L 1159 0 
L 581 0 
L 581 3500 
L 1159 3500 
L 1159 2956 
Q 1356 3278 1631 3431 
Q 1906 3584 2284 3584 
Q 2666 3584 2933 3390 
Q 3200 3197 3328 2828 
z
" transform="scale(0.015625)"/>
       </defs>
       <use xlink:href="#DejaVuSans-4a"/>
       <use xlink:href="#DejaVuSans-6f" x="29.492188"/>
       <use xlink:href="#DejaVuSans-68" x="90.673828"/>
       <use xlink:href="#DejaVuSans-6e" x="154.052734"/>
       <use xlink:href="#DejaVuSans-20" x="217.431641"/>
       <use xlink:href="#DejaVuSans-47" x="249.21875"/>
       <use xlink:href="#DejaVuSans-6f" x="326.708984"/>
       <use xlink:href="#DejaVuSans-6f" x="387.890625"/>
       <use xlink:href="#DejaVuSans-64" x="449.072266"/>
       <use xlink:href="#DejaVuSans-6d" x="512.548828"/>
       <use xlink:href="#DejaVuSans-61" x="609.960938"/>
       <use xlink:href="#DejaVuSans-6e" x="671.240234"/>
      </g>
     </g>
    </g>
    <g id="xtick_5">
     <g id="line2d_5">
      <g>
       <use xlink:href="#maee715f61e" x="409.309" y="254.45" style="stroke: #000000; stroke-width: 0.8"/>
      </g>
     </g>
     <g id="text_5">
      <!-- Tom Hanks -->
      <g transform="translate(412.068375 315.88125) rotate(-90) scale(0.1 -0.1)">
       <defs>
        <path id="DejaVuSans-54" d="M -19 4666 
L 3928 4666 
L 3928 4134 
L 2272 4134 
L 2272 0 
L 1638 0 
L 1638 4134 
L -19 4134 
L -19 4666 
z
" transform="scale(0.015625)"/>
        <path id="DejaVuSans-48" d="M 628 4666 
L 1259 4666 
L 1259 2753 
L 3553 2753 
L 3553 4666 
L 4184 4666 
L 4184 0 
L 3553 0 
L 3553 2222 
L 1259 2222 
L 1259 0 
L 628 0 
L 628 4666 
z
" transform="scale(0.015625)"/>
        <path id="DejaVuSans-6b" d="M 581 4863 
L 1159 4863 
L 1159 1991 
L 2875 3500 
L 3609 3500 
L 1753 1863 
L 3688 0 
L 2938 0 
L 1159 1709 
L 1159 0 
L 581 0 
L 581 4863 
z
" transform="scale(0.015625)"/>
        <path id="DejaVuSans-73" d="M 2834 3397 
L 2834 2853 
Q 2591 2978 2328 3040 
Q 2066 3103 1784 3103 
Q 1356 3103 1142 2972 
Q 928 2841 928 2578 
Q 928 2378 1081 2264 
Q 1234 2150 1697 2047 
L 1894 2003 
Q 2506 1872 2764 1633 
Q 3022 1394 3022 966 
Q 3022 478 2636 193 
Q 2250 -91 1575 -91 
Q 1294 -91 989 -36 
Q 684 19 347 128 
L 347 722 
Q 666 556 975 473 
Q 1284 391 1588 391 
Q 1994 391 2212 530 
Q 2431 669 2431 922 
Q 2431 1156 2273 1281 
Q 2116 1406 1581 1522 
L 1381 1569 
Q 847 1681 609 1914 
Q 372 2147 372 2553 
Q 372 3047 722 3315 
Q 1072 3584 1716 3584 
Q 2034 3584 2315 3537 
Q 2597 3491 2834 3397 
z
" transform="scale(0.015625)"/>
       </defs>
       <use xlink:href="#DejaVuSans-54"/>
       <use xlink:href="#DejaVuSans-6f" x="44.083984"/>
       <use xlink:href="#DejaVuSans-6d" x="105.265625"/>
       <use xlink:href="#DejaVuSans-20" x="202.677734"/>
       <use xlink:href="#DejaVuSans-48" x="234.464844"/>
       <use xlink:href="#DejaVuSans-61" x="309.660156"/>
       <use xlink:href="#DejaVuSans-6e" x="370.939453"/>
       <use xlink:href="#DejaVuSans-6b" x="434.318359"/>
       <use xlink:href="#DejaVuSans-73" x="492.228516"/>
      </g>
     </g>
    </g>
   </g>
   <g id="matplotlib.axis_2">
    <g id="ytick_1">
     <g id="line2d_6">
      <defs>
       <path id="m76f7077666" d="M 0 0 
L -3.5 0 
" style="stroke: #000000; stroke-width: 0.8"/>
      </defs>
      <g>
       <use xlink:href="#m76f7077666" x="43.09" y="254.45" style="stroke: #000000; stroke-width: 0.8"/>
      </g>
     </g>
     <g id="text_6">
      <!-- 0 -->
      <g transform="translate(29.7275 258.249219) scale(0.1 -0.1)">
       <defs>
        <path id="DejaVuSans-30" d="M 2034 4250 
Q 1547 4250 1301 3770 
Q 1056 3291 1056 2328 
Q 1056 1369 1301 889 
Q 1547 409 2034 409 
Q 2525 409 2770 889 
Q 3016 1369 3016 2328 
Q 3016 3291 2770 3770 
Q 2525 4250 2034 4250 
z
M 2034 4750 
Q 2819 4750 3233 4129 
Q 3647 3509 3647 2328 
Q 3647 1150 3233 529 
Q 2819 -91 2034 -91 
Q 1250 -91 836 529 
Q 422 1150 422 2328 
Q 422 3509 836 4129 
Q 1250 4750 2034 4750 
z
" transform="scale(0.015625)"/>
       </defs>
       <use xlink:href="#DejaVuSans-30"/>
      </g>
     </g>
    </g>
    <g id="ytick_2">
     <g id="line2d_7">
      <g>
       <use xlink:href="#m76f7077666" x="43.09" y="219.563679" style="stroke: #000000; stroke-width: 0.8"/>
      </g>
     </g>
     <g id="text_7">
      <!-- 500 -->
      <g transform="translate(17.0025 223.362898) scale(0.1 -0.1)">
       <defs>
        <path id="DejaVuSans-35" d="M 691 4666 
L 3169 4666 
L 3169 4134 
L 1269 4134 
L 1269 2991 
Q 1406 3038 1543 3061 
Q 1681 3084 1819 3084 
Q 2600 3084 3056 2656 
Q 3513 2228 3513 1497 
Q 3513 744 3044 326 
Q 2575 -91 1722 -91 
Q 1428 -91 1123 -41 
Q 819 9 494 109 
L 494 744 
Q 775 591 1075 516 
Q 1375 441 1709 441 
Q 2250 441 2565 725 
Q 2881 1009 2881 1497 
Q 2881 1984 2565 2268 
Q 2250 2553 1709 2553 
Q 1456 2553 1204 2497 
Q 953 2441 691 2322 
L 691 4666 
z
" transform="scale(0.015625)"/>
       </defs>
       <use xlink:href="#DejaVuSans-35"/>
       <use xlink:href="#DejaVuSans-30" x="63.623047"/>
       <use xlink:href="#DejaVuSans-30" x="127.246094"/>
      </g>
     </g>
    </g>
    <g id="ytick_3">
     <g id="line2d_8">
      <g>
       <use xlink:href="#m76f7077666" x="43.09" y="184.677358" style="stroke: #000000; stroke-width: 0.8"/>
      </g>
     </g>
     <g id="text_8">
      <!-- 1000 -->
      <g transform="translate(10.64 188.476577) scale(0.1 -0.1)">
       <defs>
        <path id="DejaVuSans-31" d="M 794 531 
L 1825 531 
L 1825 4091 
L 703 3866 
L 703 4441 
L 1819 4666 
L 2450 4666 
L 2450 531 
L 3481 531 
L 3481 0 
L 794 0 
L 794 531 
z
" transform="scale(0.015625)"/>
       </defs>
       <use xlink:href="#DejaVuSans-31"/>
       <use xlink:href="#DejaVuSans-30" x="63.623047"/>
       <use xlink:href="#DejaVuSans-30" x="127.246094"/>
       <use xlink:href="#DejaVuSans-30" x="190.869141"/>
      </g>
     </g>
    </g>
    <g id="ytick_4">
     <g id="line2d_9">
      <g>
       <use xlink:href="#m76f7077666" x="43.09" y="149.791038" style="stroke: #000000; stroke-width: 0.8"/>
      </g>
     </g>
     <g id="text_9">
      <!-- 1500 -->
      <g transform="translate(10.64 153.590256) scale(0.1 -0.1)">
       <use xlink:href="#DejaVuSans-31"/>
       <use xlink:href="#DejaVuSans-35" x="63.623047"/>
       <use xlink:href="#DejaVuSans-30" x="127.246094"/>
       <use xlink:href="#DejaVuSans-30" x="190.869141"/>
      </g>
     </g>
    </g>
    <g id="ytick_5">
     <g id="line2d_10">
      <g>
       <use xlink:href="#m76f7077666" x="43.09" y="114.904717" style="stroke: #000000; stroke-width: 0.8"/>
      </g>
     </g>
     <g id="text_10">
      <!-- 2000 -->
      <g transform="translate(10.64 118.703935) scale(0.1 -0.1)">
       <defs>
        <path id="DejaVuSans-32" d="M 1228 531 
L 3431 531 
L 3431 0 
L 469 0 
L 469 531 
Q 828 903 1448 1529 
Q 2069 2156 2228 2338 
Q 2531 2678 2651 2914 
Q 2772 3150 2772 3378 
Q 2772 3750 2511 3984 
Q 2250 4219 1831 4219 
Q 1534 4219 1204 4116 
Q 875 4013 500 3803 
L 500 4441 
Q 881 4594 1212 4672 
Q 1544 4750 1819 4750 
Q 2544 4750 2975 4387 
Q 3406 4025 3406 3419 
Q 3406 3131 3298 2873 
Q 3191 2616 2906 2266 
Q 2828 2175 2409 1742 
Q 1991 1309 1228 531 
z
" transform="scale(0.015625)"/>
       </defs>
       <use xlink:href="#DejaVuSans-32"/>
       <use xlink:href="#DejaVuSans-30" x="63.623047"/>
       <use xlink:href="#DejaVuSans-30" x="127.246094"/>
       <use xlink:href="#DejaVuSans-30" x="190.869141"/>
      </g>
     </g>
    </g>
    <g id="ytick_6">
     <g id="line2d_11">
      <g>
       <use xlink:href="#m76f7077666" x="43.09" y="80.018396" style="stroke: #000000; stroke-width: 0.8"/>
      </g>
     </g>
     <g id="text_11">
      <!-- 2500 -->
      <g transform="translate(10.64 83.817615) scale(0.1 -0.1)">
       <use xlink:href="#DejaVuSans-32"/>
       <use xlink:href="#DejaVuSans-35" x="63.623047"/>
       <use xlink:href="#DejaVuSans-30" x="127.246094"/>
       <use xlink:href="#DejaVuSans-30" x="190.869141"/>
      </g>
     </g>
    </g>
    <g id="ytick_7">
     <g id="line2d_12">
      <g>
       <use xlink:href="#m76f7077666" x="43.09" y="45.132075" style="stroke: #000000; stroke-width: 0.8"/>
      </g>
     </g>
     <g id="text_12">
      <!-- 3000 -->
      <g transform="translate(10.64 48.931294) scale(0.1 -0.1)">
       <defs>
        <path id="DejaVuSans-33" d="M 2597 2516 
Q 3050 2419 3304 2112 
Q 3559 1806 3559 1356 
Q 3559 666 3084 287 
Q 2609 -91 1734 -91 
Q 1441 -91 1130 -33 
Q 819 25 488 141 
L 488 750 
Q 750 597 1062 519 
Q 1375 441 1716 441 
Q 2309 441 2620 675 
Q 2931 909 2931 1356 
Q 2931 1769 2642 2001 
Q 2353 2234 1838 2234 
L 1294 2234 
L 1294 2753 
L 1863 2753 
Q 2328 2753 2575 2939 
Q 2822 3125 2822 3475 
Q 2822 3834 2567 4026 
Q 2313 4219 1838 4219 
Q 1578 4219 1281 4162 
Q 984 4106 628 3988 
L 628 4550 
Q 988 4650 1302 4700 
Q 1616 4750 1894 4750 
Q 2613 4750 3031 4423 
Q 3450 4097 3450 3541 
Q 3450 3153 3228 2886 
Q 3006 2619 2597 2516 
z
" transform="scale(0.015625)"/>
       </defs>
       <use xlink:href="#DejaVuSans-33"/>
       <use xlink:href="#DejaVuSans-30" x="63.623047"/>
       <use xlink:href="#DejaVuSans-30" x="127.246094"/>
       <use xlink:href="#DejaVuSans-30" x="190.869141"/>
      </g>
     </g>
    </g>
   </g>
   <g id="patch_383">
    <path d="M 43.09 254.45 
L 43.09 10.8 
" style="fill: none; stroke: #000000; stroke-width: 0.8; stroke-linejoin: miter; stroke-linecap: square"/>
   </g>
   <g id="patch_384">
    <path d="M 450 254.45 
L 450 10.8 
" style="fill: none; stroke: #000000; stroke-width: 0.8; stroke-linejoin: miter; stroke-linecap: square"/>
   </g>
   <g id="patch_385">
    <path d="M 43.09 254.45 
L 450 254.45 
" style="fill: none; stroke: #000000; stroke-width: 0.8; stroke-linejoin: miter; stroke-linecap: square"/>
   </g>
   <g id="patch_386">
    <path d="M 43.09 10.8 
L 450 10.8 
" style="fill: none; stroke: #000000; stroke-width: 0.8; stroke-linejoin: miter; stroke-linecap: square"/>
   </g>
  </g>
 </g>
 <defs>
  <clipPath id="p56f7f7fcb8">
   <rect x="43.09" y="10.8" width="406.91" height="243.65"/>
  </clipPath>
 </defs>
</svg>
