<?xml version="1.0" encoding="utf-8" standalone="no"?>
<!DOCTYPE svg PUBLIC "-//W3C//DTD SVG 1.1//EN"
  "http://www.w3.org/Graphics/SVG/1.1/DTD/svg11.dtd">
<svg xmlns:xlink="http://www.w3.org/1999/xlink" width="460.8pt" height="345.6pt" viewBox="0 0 460.8 345.6" xmlns="http://www.w3.org/2000/svg" version="1.1">
 <metadata>
  <rdf:RDF xmlns:dc="http://purl.org/dc/elements/1.1/" xmlns:cc="http://creativecommons.org/ns#" xmlns:rdf="http://www.w3.org/1999/02/22-rdf-syntax-ns#">
   <cc:Work>
    <dc:type rdf:resource="http://purl.org/dc/dcmitype/StillImage"/>
    <dc:date>2022-12-20T12:31:08.480088</dc:date>
    <dc:format>image/svg+xml</dc:format>
    <dc:creator>
     <cc:Agent>
      <dc:title>Matplotlib v3.6.0, https://matplotlib.org/</dc:title>
     </cc:Agent>
    </dc:creator>
   </cc:Work>
  </rdf:RDF>
 </metadata>
 <defs>
  <style type="text/css">*{stroke-linejoin: round; stroke-linecap: butt}</style>
 </defs>
 <g id="figure_1">
  <g id="patch_1">
   <path d="M 0 345.6 
L 460.8 345.6 
L 460.8 0 
L 0 0 
z
" style="fill: #ffffff"/>
  </g>
  <g id="axes_1">
   <g id="patch_2">
    <path d="M 43.09 266.51 
L 450 266.51 
L 450 10.8 
L 43.09 10.8 
z
" style="fill: #ffffff"/>
   </g>
   <g id="patch_3">
    <path d="M 63.4355 266.51 
L 104.1265 266.51 
L 104.1265 184.177451 
L 63.4355 184.177451 
z
" clip-path="url(#p9ac74151c7)" style="fill: #1f77b4"/>
   </g>
   <g id="patch_4">
    <path d="M 144.8175 266.51 
L 185.5085 266.51 
L 185.5085 203.541985 
L 144.8175 203.541985 
z
" clip-path="url(#p9ac74151c7)" style="fill: #1f77b4"/>
   </g>
   <g id="patch_5">
    <path d="M 226.1995 266.51 
L 266.8905 266.51 
L 266.8905 197.781295 
L 226.1995 197.781295 
z
" clip-path="url(#p9ac74151c7)" style="fill: #1f77b4"/>
   </g>
   <g id="patch_6">
    <path d="M 307.5815 266.51 
L 348.2725 266.51 
L 348.2725 210.438894 
L 307.5815 210.438894 
z
" clip-path="url(#p9ac74151c7)" style="fill: #1f77b4"/>
   </g>
   <g id="patch_7">
    <path d="M 388.9635 266.51 
L 429.6545 266.51 
L 429.6545 232.77527 
L 388.9635 232.77527 
z
" clip-path="url(#p9ac74151c7)" style="fill: #1f77b4"/>
   </g>
   <g id="patch_8">
    <path d="M 63.4355 266.51 
L 104.1265 266.51 
L 104.1265 266.290321 
L 63.4355 266.290321 
z
" clip-path="url(#p9ac74151c7)" style="fill: #1f77b4"/>
   </g>
   <g id="patch_9">
    <path d="M 144.8175 266.51 
L 185.5085 266.51 
L 185.5085 266.436774 
L 144.8175 266.436774 
z
" clip-path="url(#p9ac74151c7)" style="fill: #1f77b4"/>
   </g>
   <g id="patch_10">
    <path d="M 226.1995 266.51 
L 266.8905 266.51 
L 266.8905 266.51 
L 226.1995 266.51 
z
" clip-path="url(#p9ac74151c7)" style="fill: #1f77b4"/>
   </g>
   <g id="patch_11">
    <path d="M 63.4355 266.51 
L 104.1265 266.51 
L 104.1265 266.485591 
L 63.4355 266.485591 
z
" clip-path="url(#p9ac74151c7)" style="fill: #1f77b4"/>
   </g>
   <g id="patch_12">
    <path d="M 144.8175 266.51 
L 185.5085 266.51 
L 185.5085 266.485591 
L 144.8175 266.485591 
z
" clip-path="url(#p9ac74151c7)" style="fill: #1f77b4"/>
   </g>
   <g id="patch_13">
    <path d="M 226.1995 266.51 
L 266.8905 266.51 
L 266.8905 266.485591 
L 226.1995 266.485591 
z
" clip-path="url(#p9ac74151c7)" style="fill: #1f77b4"/>
   </g>
   <g id="patch_14">
    <path d="M 307.5815 266.51 
L 348.2725 266.51 
L 348.2725 266.436774 
L 307.5815 266.436774 
z
" clip-path="url(#p9ac74151c7)" style="fill: #1f77b4"/>
   </g>
   <g id="patch_15">
    <path d="M 388.9635 266.51 
L 429.6545 266.51 
L 429.6545 266.51 
L 388.9635 266.51 
z
" clip-path="url(#p9ac74151c7)" style="fill: #1f77b4"/>
   </g>
   <g id="patch_16">
    <path d="M 63.4355 266.51 
L 104.1265 266.51 
L 104.1265 252.743476 
L 63.4355 252.743476 
z
" clip-path="url(#p9ac74151c7)" style="fill: #1f77b4"/>
   </g>
   <g id="patch_17">
    <path d="M 144.8175 266.51 
L 185.5085 266.51 
L 185.5085 262.629012 
L 144.8175 262.629012 
z
" clip-path="url(#p9ac74151c7)" style="fill: #1f77b4"/>
   </g>
   <g id="patch_18">
    <path d="M 226.1995 266.51 
L 266.8905 266.51 
L 266.8905 263.324661 
L 226.1995 263.324661 
z
" clip-path="url(#p9ac74151c7)" style="fill: #1f77b4"/>
   </g>
   <g id="patch_19">
    <path d="M 307.5815 266.51 
L 348.2725 266.51 
L 348.2725 253.109606 
L 307.5815 253.109606 
z
" clip-path="url(#p9ac74151c7)" style="fill: #1f77b4"/>
   </g>
   <g id="patch_20">
    <path d="M 388.9635 266.51 
L 429.6545 266.51 
L 429.6545 264.789184 
L 388.9635 264.789184 
z
" clip-path="url(#p9ac74151c7)" style="fill: #1f77b4"/>
   </g>
   <g id="patch_21">
    <path d="M 63.4355 266.51 
L 104.1265 266.51 
L 104.1265 266.436774 
L 63.4355 266.436774 
z
" clip-path="url(#p9ac74151c7)" style="fill: #1f77b4"/>
   </g>
   <g id="patch_22">
    <path d="M 144.8175 266.51 
L 185.5085 266.51 
L 185.5085 266.51 
L 144.8175 266.51 
z
" clip-path="url(#p9ac74151c7)" style="fill: #1f77b4"/>
   </g>
   <g id="patch_23">
    <path d="M 226.1995 266.51 
L 266.8905 266.51 
L 266.8905 266.51 
L 226.1995 266.51 
z
" clip-path="url(#p9ac74151c7)" style="fill: #1f77b4"/>
   </g>
   <g id="patch_24">
    <path d="M 307.5815 266.51 
L 348.2725 266.51 
L 348.2725 266.51 
L 307.5815 266.51 
z
" clip-path="url(#p9ac74151c7)" style="fill: #1f77b4"/>
   </g>
   <g id="patch_25">
    <path d="M 63.4355 266.51 
L 104.1265 266.51 
L 104.1265 264.532893 
L 63.4355 264.532893 
z
" clip-path="url(#p9ac74151c7)" style="fill: #1f77b4"/>
   </g>
   <g id="patch_26">
    <path d="M 144.8175 266.51 
L 185.5085 266.51 
L 185.5085 266.290321 
L 144.8175 266.290321 
z
" clip-path="url(#p9ac74151c7)" style="fill: #1f77b4"/>
   </g>
   <g id="patch_27">
    <path d="M 226.1995 266.51 
L 266.8905 266.51 
L 266.8905 266.436774 
L 226.1995 266.436774 
z
" clip-path="url(#p9ac74151c7)" style="fill: #1f77b4"/>
   </g>
   <g id="patch_28">
    <path d="M 307.5815 266.51 
L 348.2725 266.51 
L 348.2725 266.436774 
L 307.5815 266.436774 
z
" clip-path="url(#p9ac74151c7)" style="fill: #1f77b4"/>
   </g>
   <g id="patch_29">
    <path d="M 388.9635 266.51 
L 429.6545 266.51 
L 429.6545 265.997417 
L 388.9635 265.997417 
z
" clip-path="url(#p9ac74151c7)" style="fill: #1f77b4"/>
   </g>
   <g id="patch_30">
    <path d="M 63.4355 266.51 
L 104.1265 266.51 
L 104.1265 266.363548 
L 63.4355 266.363548 
z
" clip-path="url(#p9ac74151c7)" style="fill: #1f77b4"/>
   </g>
   <g id="patch_31">
    <path d="M 144.8175 266.51 
L 185.5085 266.51 
L 185.5085 266.363548 
L 144.8175 266.363548 
z
" clip-path="url(#p9ac74151c7)" style="fill: #1f77b4"/>
   </g>
   <g id="patch_32">
    <path d="M 226.1995 266.51 
L 266.8905 266.51 
L 266.8905 266.363548 
L 226.1995 266.363548 
z
" clip-path="url(#p9ac74151c7)" style="fill: #1f77b4"/>
   </g>
   <g id="patch_33">
    <path d="M 307.5815 266.51 
L 348.2725 266.51 
L 348.2725 266.363548 
L 307.5815 266.363548 
z
" clip-path="url(#p9ac74151c7)" style="fill: #1f77b4"/>
   </g>
   <g id="patch_34">
    <path d="M 388.9635 266.51 
L 429.6545 266.51 
L 429.6545 266.363548 
L 388.9635 266.363548 
z
" clip-path="url(#p9ac74151c7)" style="fill: #1f77b4"/>
   </g>
   <g id="patch_35">
    <path d="M 63.4355 266.51 
L 104.1265 266.51 
L 104.1265 266.290321 
L 63.4355 266.290321 
z
" clip-path="url(#p9ac74151c7)" style="fill: #1f77b4"/>
   </g>
   <g id="patch_36">
    <path d="M 144.8175 266.51 
L 185.5085 266.51 
L 185.5085 266.326935 
L 144.8175 266.326935 
z
" clip-path="url(#p9ac74151c7)" style="fill: #1f77b4"/>
   </g>
   <g id="patch_37">
    <path d="M 226.1995 266.51 
L 266.8905 266.51 
L 266.8905 266.436774 
L 226.1995 266.436774 
z
" clip-path="url(#p9ac74151c7)" style="fill: #1f77b4"/>
   </g>
   <g id="patch_38">
    <path d="M 307.5815 266.51 
L 348.2725 266.51 
L 348.2725 266.473387 
L 307.5815 266.473387 
z
" clip-path="url(#p9ac74151c7)" style="fill: #1f77b4"/>
   </g>
   <g id="patch_39">
    <path d="M 388.9635 266.51 
L 429.6545 266.51 
L 429.6545 266.473387 
L 388.9635 266.473387 
z
" clip-path="url(#p9ac74151c7)" style="fill: #1f77b4"/>
   </g>
   <g id="patch_40">
    <path d="M 63.4355 266.51 
L 104.1265 266.51 
L 104.1265 266.290321 
L 63.4355 266.290321 
z
" clip-path="url(#p9ac74151c7)" style="fill: #1f77b4"/>
   </g>
   <g id="patch_41">
    <path d="M 144.8175 266.51 
L 185.5085 266.51 
L 185.5085 266.51 
L 144.8175 266.51 
z
" clip-path="url(#p9ac74151c7)" style="fill: #1f77b4"/>
   </g>
   <g id="patch_42">
    <path d="M 226.1995 266.51 
L 266.8905 266.51 
L 266.8905 266.51 
L 226.1995 266.51 
z
" clip-path="url(#p9ac74151c7)" style="fill: #1f77b4"/>
   </g>
   <g id="patch_43">
    <path d="M 63.4355 266.51 
L 104.1265 266.51 
L 104.1265 266.290321 
L 63.4355 266.290321 
z
" clip-path="url(#p9ac74151c7)" style="fill: #1f77b4"/>
   </g>
   <g id="patch_44">
    <path d="M 144.8175 266.51 
L 185.5085 266.51 
L 185.5085 266.436774 
L 144.8175 266.436774 
z
" clip-path="url(#p9ac74151c7)" style="fill: #1f77b4"/>
   </g>
   <g id="patch_45">
    <path d="M 63.4355 266.51 
L 104.1265 266.51 
L 104.1265 185.769402 
L 63.4355 185.769402 
z
" clip-path="url(#p9ac74151c7)" style="fill: #1f77b4"/>
   </g>
   <g id="patch_46">
    <path d="M 144.8175 266.51 
L 185.5085 266.51 
L 185.5085 208.494896 
L 144.8175 208.494896 
z
" clip-path="url(#p9ac74151c7)" style="fill: #1f77b4"/>
   </g>
   <g id="patch_47">
    <path d="M 226.1995 266.51 
L 266.8905 266.51 
L 266.8905 216.085261 
L 226.1995 216.085261 
z
" clip-path="url(#p9ac74151c7)" style="fill: #1f77b4"/>
   </g>
   <g id="patch_48">
    <path d="M 307.5815 266.51 
L 348.2725 266.51 
L 348.2725 208.696405 
L 307.5815 208.696405 
z
" clip-path="url(#p9ac74151c7)" style="fill: #1f77b4"/>
   </g>
   <g id="patch_49">
    <path d="M 388.9635 266.51 
L 429.6545 266.51 
L 429.6545 223.988674 
L 388.9635 223.988674 
z
" clip-path="url(#p9ac74151c7)" style="fill: #1f77b4"/>
   </g>
   <g id="patch_50">
    <path d="M 63.4355 266.51 
L 104.1265 266.51 
L 104.1265 266.51 
L 63.4355 266.51 
z
" clip-path="url(#p9ac74151c7)" style="fill: #1f77b4"/>
   </g>
   <g id="patch_51">
    <path d="M 144.8175 266.51 
L 185.5085 266.51 
L 185.5085 266.51 
L 144.8175 266.51 
z
" clip-path="url(#p9ac74151c7)" style="fill: #1f77b4"/>
   </g>
   <g id="patch_52">
    <path d="M 226.1995 266.51 
L 266.8905 266.51 
L 266.8905 266.51 
L 226.1995 266.51 
z
" clip-path="url(#p9ac74151c7)" style="fill: #1f77b4"/>
   </g>
   <g id="patch_53">
    <path d="M 307.5815 266.51 
L 348.2725 266.51 
L 348.2725 266.51 
L 307.5815 266.51 
z
" clip-path="url(#p9ac74151c7)" style="fill: #1f77b4"/>
   </g>
   <g id="patch_54">
    <path d="M 388.9635 266.51 
L 429.6545 266.51 
L 429.6545 266.51 
L 388.9635 266.51 
z
" clip-path="url(#p9ac74151c7)" style="fill: #1f77b4"/>
   </g>
   <g id="patch_55">
    <path d="M 63.4355 266.51 
L 104.1265 266.51 
L 104.1265 266.436774 
L 63.4355 266.436774 
z
" clip-path="url(#p9ac74151c7)" style="fill: #1f77b4"/>
   </g>
   <g id="patch_56">
    <path d="M 144.8175 266.51 
L 185.5085 266.51 
L 185.5085 266.51 
L 144.8175 266.51 
z
" clip-path="url(#p9ac74151c7)" style="fill: #1f77b4"/>
   </g>
   <g id="patch_57">
    <path d="M 226.1995 266.51 
L 266.8905 266.51 
L 266.8905 266.51 
L 226.1995 266.51 
z
" clip-path="url(#p9ac74151c7)" style="fill: #1f77b4"/>
   </g>
   <g id="patch_58">
    <path d="M 307.5815 266.51 
L 348.2725 266.51 
L 348.2725 266.51 
L 307.5815 266.51 
z
" clip-path="url(#p9ac74151c7)" style="fill: #1f77b4"/>
   </g>
   <g id="patch_59">
    <path d="M 388.9635 266.51 
L 429.6545 266.51 
L 429.6545 266.51 
L 388.9635 266.51 
z
" clip-path="url(#p9ac74151c7)" style="fill: #1f77b4"/>
   </g>
   <g id="patch_60">
    <path d="M 63.4355 266.51 
L 104.1265 266.51 
L 104.1265 266.107256 
L 63.4355 266.107256 
z
" clip-path="url(#p9ac74151c7)" style="fill: #1f77b4"/>
   </g>
   <g id="patch_61">
    <path d="M 144.8175 266.51 
L 185.5085 266.51 
L 185.5085 266.290321 
L 144.8175 266.290321 
z
" clip-path="url(#p9ac74151c7)" style="fill: #1f77b4"/>
   </g>
   <g id="patch_62">
    <path d="M 226.1995 266.51 
L 266.8905 266.51 
L 266.8905 266.473387 
L 226.1995 266.473387 
z
" clip-path="url(#p9ac74151c7)" style="fill: #1f77b4"/>
   </g>
   <g id="patch_63">
    <path d="M 307.5815 266.51 
L 348.2725 266.51 
L 348.2725 266.51 
L 307.5815 266.51 
z
" clip-path="url(#p9ac74151c7)" style="fill: #1f77b4"/>
   </g>
   <g id="patch_64">
    <path d="M 388.9635 266.51 
L 429.6545 266.51 
L 429.6545 266.51 
L 388.9635 266.51 
z
" clip-path="url(#p9ac74151c7)" style="fill: #1f77b4"/>
   </g>
   <g id="patch_65">
    <path d="M 63.4355 266.51 
L 104.1265 266.51 
L 104.1265 258.418506 
L 63.4355 258.418506 
z
" clip-path="url(#p9ac74151c7)" style="fill: #1f77b4"/>
   </g>
   <g id="patch_66">
    <path d="M 144.8175 266.51 
L 185.5085 266.51 
L 185.5085 265.777738 
L 144.8175 265.777738 
z
" clip-path="url(#p9ac74151c7)" style="fill: #1f77b4"/>
   </g>
   <g id="patch_67">
    <path d="M 226.1995 266.51 
L 266.8905 266.51 
L 266.8905 262.09202 
L 226.1995 262.09202 
z
" clip-path="url(#p9ac74151c7)" style="fill: #1f77b4"/>
   </g>
   <g id="patch_68">
    <path d="M 307.5815 266.51 
L 348.2725 266.51 
L 348.2725 260.944809 
L 307.5815 260.944809 
z
" clip-path="url(#p9ac74151c7)" style="fill: #1f77b4"/>
   </g>
   <g id="patch_69">
    <path d="M 388.9635 266.51 
L 429.6545 266.51 
L 429.6545 262.006589 
L 388.9635 262.006589 
z
" clip-path="url(#p9ac74151c7)" style="fill: #1f77b4"/>
   </g>
   <g id="patch_70">
    <path d="M 63.4355 266.51 
L 104.1265 266.51 
L 104.1265 242.141086 
L 63.4355 242.141086 
z
" clip-path="url(#p9ac74151c7)" style="fill: #1f77b4"/>
   </g>
   <g id="patch_71">
    <path d="M 144.8175 266.51 
L 185.5085 266.51 
L 185.5085 245.638044 
L 144.8175 245.638044 
z
" clip-path="url(#p9ac74151c7)" style="fill: #1f77b4"/>
   </g>
   <g id="patch_72">
    <path d="M 226.1995 266.51 
L 266.8905 266.51 
L 266.8905 215.822144 
L 226.1995 215.822144 
z
" clip-path="url(#p9ac74151c7)" style="fill: #1f77b4"/>
   </g>
   <g id="patch_73">
    <path d="M 307.5815 266.51 
L 348.2725 266.51 
L 348.2725 235.944168 
L 307.5815 235.944168 
z
" clip-path="url(#p9ac74151c7)" style="fill: #1f77b4"/>
   </g>
   <g id="patch_74">
    <path d="M 388.9635 266.51 
L 429.6545 266.51 
L 429.6545 215.488415 
L 388.9635 215.488415 
z
" clip-path="url(#p9ac74151c7)" style="fill: #1f77b4"/>
   </g>
   <g id="patch_75">
    <path d="M 63.4355 266.51 
L 104.1265 266.51 
L 104.1265 266.51 
L 63.4355 266.51 
z
" clip-path="url(#p9ac74151c7)" style="fill: #1f77b4"/>
   </g>
   <g id="patch_76">
    <path d="M 144.8175 266.51 
L 185.5085 266.51 
L 185.5085 266.51 
L 144.8175 266.51 
z
" clip-path="url(#p9ac74151c7)" style="fill: #1f77b4"/>
   </g>
   <g id="patch_77">
    <path d="M 63.4355 266.51 
L 104.1265 266.51 
L 104.1265 265.594673 
L 63.4355 265.594673 
z
" clip-path="url(#p9ac74151c7)" style="fill: #1f77b4"/>
   </g>
   <g id="patch_78">
    <path d="M 144.8175 266.51 
L 185.5085 266.51 
L 185.5085 265.777738 
L 144.8175 265.777738 
z
" clip-path="url(#p9ac74151c7)" style="fill: #1f77b4"/>
   </g>
   <g id="patch_79">
    <path d="M 226.1995 266.51 
L 266.8905 266.51 
L 266.8905 266.070643 
L 226.1995 266.070643 
z
" clip-path="url(#p9ac74151c7)" style="fill: #1f77b4"/>
   </g>
   <g id="patch_80">
    <path d="M 307.5815 266.51 
L 348.2725 266.51 
L 348.2725 266.436774 
L 307.5815 266.436774 
z
" clip-path="url(#p9ac74151c7)" style="fill: #1f77b4"/>
   </g>
   <g id="patch_81">
    <path d="M 388.9635 266.51 
L 429.6545 266.51 
L 429.6545 266.363548 
L 388.9635 266.363548 
z
" clip-path="url(#p9ac74151c7)" style="fill: #1f77b4"/>
   </g>
   <g id="patch_82">
    <path d="M 63.4355 266.51 
L 104.1265 266.51 
L 104.1265 266.290321 
L 63.4355 266.290321 
z
" clip-path="url(#p9ac74151c7)" style="fill: #1f77b4"/>
   </g>
   <g id="patch_83">
    <path d="M 144.8175 266.51 
L 185.5085 266.51 
L 185.5085 266.290321 
L 144.8175 266.290321 
z
" clip-path="url(#p9ac74151c7)" style="fill: #1f77b4"/>
   </g>
   <g id="patch_84">
    <path d="M 226.1995 266.51 
L 266.8905 266.51 
L 266.8905 266.436774 
L 226.1995 266.436774 
z
" clip-path="url(#p9ac74151c7)" style="fill: #1f77b4"/>
   </g>
   <g id="patch_85">
    <path d="M 307.5815 266.51 
L 348.2725 266.51 
L 348.2725 266.51 
L 307.5815 266.51 
z
" clip-path="url(#p9ac74151c7)" style="fill: #1f77b4"/>
   </g>
   <g id="patch_86">
    <path d="M 388.9635 266.51 
L 429.6545 266.51 
L 429.6545 266.51 
L 388.9635 266.51 
z
" clip-path="url(#p9ac74151c7)" style="fill: #1f77b4"/>
   </g>
   <g id="patch_87">
    <path d="M 63.4355 266.51 
L 104.1265 266.51 
L 104.1265 264.97225 
L 63.4355 264.97225 
z
" clip-path="url(#p9ac74151c7)" style="fill: #1f77b4"/>
   </g>
   <g id="patch_88">
    <path d="M 144.8175 266.51 
L 185.5085 266.51 
L 185.5085 266.473387 
L 144.8175 266.473387 
z
" clip-path="url(#p9ac74151c7)" style="fill: #1f77b4"/>
   </g>
   <g id="patch_89">
    <path d="M 226.1995 266.51 
L 266.8905 266.51 
L 266.8905 266.473387 
L 226.1995 266.473387 
z
" clip-path="url(#p9ac74151c7)" style="fill: #1f77b4"/>
   </g>
   <g id="patch_90">
    <path d="M 307.5815 266.51 
L 348.2725 266.51 
L 348.2725 266.473387 
L 307.5815 266.473387 
z
" clip-path="url(#p9ac74151c7)" style="fill: #1f77b4"/>
   </g>
   <g id="patch_91">
    <path d="M 388.9635 266.51 
L 429.6545 266.51 
L 429.6545 266.473387 
L 388.9635 266.473387 
z
" clip-path="url(#p9ac74151c7)" style="fill: #1f77b4"/>
   </g>
   <g id="patch_92">
    <path d="M 63.4355 266.51 
L 104.1265 266.51 
L 104.1265 266.51 
L 63.4355 266.51 
z
" clip-path="url(#p9ac74151c7)" style="fill: #1f77b4"/>
   </g>
   <g id="patch_93">
    <path d="M 63.4355 266.51 
L 104.1265 266.51 
L 104.1265 266.143869 
L 63.4355 266.143869 
z
" clip-path="url(#p9ac74151c7)" style="fill: #1f77b4"/>
   </g>
   <g id="patch_94">
    <path d="M 144.8175 266.51 
L 185.5085 266.51 
L 185.5085 266.143869 
L 144.8175 266.143869 
z
" clip-path="url(#p9ac74151c7)" style="fill: #1f77b4"/>
   </g>
   <g id="patch_95">
    <path d="M 226.1995 266.51 
L 266.8905 266.51 
L 266.8905 266.436774 
L 226.1995 266.436774 
z
" clip-path="url(#p9ac74151c7)" style="fill: #1f77b4"/>
   </g>
   <g id="patch_96">
    <path d="M 63.4355 266.51 
L 104.1265 266.51 
L 104.1265 264.97225 
L 63.4355 264.97225 
z
" clip-path="url(#p9ac74151c7)" style="fill: #1f77b4"/>
   </g>
   <g id="patch_97">
    <path d="M 144.8175 266.51 
L 185.5085 266.51 
L 185.5085 266.436774 
L 144.8175 266.436774 
z
" clip-path="url(#p9ac74151c7)" style="fill: #1f77b4"/>
   </g>
   <g id="patch_98">
    <path d="M 226.1995 266.51 
L 266.8905 266.51 
L 266.8905 266.436774 
L 226.1995 266.436774 
z
" clip-path="url(#p9ac74151c7)" style="fill: #1f77b4"/>
   </g>
   <g id="patch_99">
    <path d="M 307.5815 266.51 
L 348.2725 266.51 
L 348.2725 266.51 
L 307.5815 266.51 
z
" clip-path="url(#p9ac74151c7)" style="fill: #1f77b4"/>
   </g>
   <g id="patch_100">
    <path d="M 388.9635 266.51 
L 429.6545 266.51 
L 429.6545 266.51 
L 388.9635 266.51 
z
" clip-path="url(#p9ac74151c7)" style="fill: #1f77b4"/>
   </g>
   <g id="patch_101">
    <path d="M 63.4355 266.51 
L 104.1265 266.51 
L 104.1265 266.51 
L 63.4355 266.51 
z
" clip-path="url(#p9ac74151c7)" style="fill: #1f77b4"/>
   </g>
   <g id="patch_102">
    <path d="M 63.4355 266.51 
L 104.1265 266.51 
L 104.1265 183.732196 
L 63.4355 183.732196 
z
" clip-path="url(#p9ac74151c7)" style="fill: #1f77b4"/>
   </g>
   <g id="patch_103">
    <path d="M 144.8175 266.51 
L 185.5085 266.51 
L 185.5085 201.946142 
L 144.8175 201.946142 
z
" clip-path="url(#p9ac74151c7)" style="fill: #1f77b4"/>
   </g>
   <g id="patch_104">
    <path d="M 226.1995 266.51 
L 266.8905 266.51 
L 266.8905 214.26431 
L 226.1995 214.26431 
z
" clip-path="url(#p9ac74151c7)" style="fill: #1f77b4"/>
   </g>
   <g id="patch_105">
    <path d="M 307.5815 266.51 
L 348.2725 266.51 
L 348.2725 223.757572 
L 307.5815 223.757572 
z
" clip-path="url(#p9ac74151c7)" style="fill: #1f77b4"/>
   </g>
   <g id="patch_106">
    <path d="M 388.9635 266.51 
L 429.6545 266.51 
L 429.6545 230.529258 
L 388.9635 230.529258 
z
" clip-path="url(#p9ac74151c7)" style="fill: #1f77b4"/>
   </g>
   <g id="patch_107">
    <path d="M 63.4355 266.51 
L 104.1265 266.51 
L 104.1265 266.143869 
L 63.4355 266.143869 
z
" clip-path="url(#p9ac74151c7)" style="fill: #1f77b4"/>
   </g>
   <g id="patch_108">
    <path d="M 144.8175 266.51 
L 185.5085 266.51 
L 185.5085 266.143869 
L 144.8175 266.143869 
z
" clip-path="url(#p9ac74151c7)" style="fill: #1f77b4"/>
   </g>
   <g id="patch_109">
    <path d="M 226.1995 266.51 
L 266.8905 266.51 
L 266.8905 266.143869 
L 226.1995 266.143869 
z
" clip-path="url(#p9ac74151c7)" style="fill: #1f77b4"/>
   </g>
   <g id="patch_110">
    <path d="M 307.5815 266.51 
L 348.2725 266.51 
L 348.2725 266.473387 
L 307.5815 266.473387 
z
" clip-path="url(#p9ac74151c7)" style="fill: #1f77b4"/>
   </g>
   <g id="patch_111">
    <path d="M 388.9635 266.51 
L 429.6545 266.51 
L 429.6545 266.473387 
L 388.9635 266.473387 
z
" clip-path="url(#p9ac74151c7)" style="fill: #1f77b4"/>
   </g>
   <g id="patch_112">
    <path d="M 63.4355 266.51 
L 104.1265 266.51 
L 104.1265 223.273793 
L 63.4355 223.273793 
z
" clip-path="url(#p9ac74151c7)" style="fill: #1f77b4"/>
   </g>
   <g id="patch_113">
    <path d="M 144.8175 266.51 
L 185.5085 266.51 
L 185.5085 223.358079 
L 144.8175 223.358079 
z
" clip-path="url(#p9ac74151c7)" style="fill: #1f77b4"/>
   </g>
   <g id="patch_114">
    <path d="M 226.1995 266.51 
L 266.8905 266.51 
L 266.8905 238.101438 
L 226.1995 238.101438 
z
" clip-path="url(#p9ac74151c7)" style="fill: #1f77b4"/>
   </g>
   <g id="patch_115">
    <path d="M 307.5815 266.51 
L 348.2725 266.51 
L 348.2725 236.824051 
L 307.5815 236.824051 
z
" clip-path="url(#p9ac74151c7)" style="fill: #1f77b4"/>
   </g>
   <g id="patch_116">
    <path d="M 388.9635 266.51 
L 429.6545 266.51 
L 429.6545 222.963963 
L 388.9635 222.963963 
z
" clip-path="url(#p9ac74151c7)" style="fill: #1f77b4"/>
   </g>
   <g id="patch_117">
    <path d="M 63.4355 266.51 
L 104.1265 266.51 
L 104.1265 266.070643 
L 63.4355 266.070643 
z
" clip-path="url(#p9ac74151c7)" style="fill: #1f77b4"/>
   </g>
   <g id="patch_118">
    <path d="M 144.8175 266.51 
L 185.5085 266.51 
L 185.5085 266.143869 
L 144.8175 266.143869 
z
" clip-path="url(#p9ac74151c7)" style="fill: #1f77b4"/>
   </g>
   <g id="patch_119">
    <path d="M 226.1995 266.51 
L 266.8905 266.51 
L 266.8905 266.290321 
L 226.1995 266.290321 
z
" clip-path="url(#p9ac74151c7)" style="fill: #1f77b4"/>
   </g>
   <g id="patch_120">
    <path d="M 307.5815 266.51 
L 348.2725 266.51 
L 348.2725 266.363548 
L 307.5815 266.363548 
z
" clip-path="url(#p9ac74151c7)" style="fill: #1f77b4"/>
   </g>
   <g id="patch_121">
    <path d="M 388.9635 266.51 
L 429.6545 266.51 
L 429.6545 266.473387 
L 388.9635 266.473387 
z
" clip-path="url(#p9ac74151c7)" style="fill: #1f77b4"/>
   </g>
   <g id="patch_122">
    <path d="M 63.4355 266.51 
L 104.1265 266.51 
L 104.1265 266.290321 
L 63.4355 266.290321 
z
" clip-path="url(#p9ac74151c7)" style="fill: #1f77b4"/>
   </g>
   <g id="patch_123">
    <path d="M 144.8175 266.51 
L 185.5085 266.51 
L 185.5085 266.473387 
L 144.8175 266.473387 
z
" clip-path="url(#p9ac74151c7)" style="fill: #1f77b4"/>
   </g>
   <g id="patch_124">
    <path d="M 226.1995 266.51 
L 266.8905 266.51 
L 266.8905 266.473387 
L 226.1995 266.473387 
z
" clip-path="url(#p9ac74151c7)" style="fill: #1f77b4"/>
   </g>
   <g id="patch_125">
    <path d="M 307.5815 266.51 
L 348.2725 266.51 
L 348.2725 266.436774 
L 307.5815 266.436774 
z
" clip-path="url(#p9ac74151c7)" style="fill: #1f77b4"/>
   </g>
   <g id="patch_126">
    <path d="M 388.9635 266.51 
L 429.6545 266.51 
L 429.6545 266.51 
L 388.9635 266.51 
z
" clip-path="url(#p9ac74151c7)" style="fill: #1f77b4"/>
   </g>
   <g id="patch_127">
    <path d="M 63.4355 266.51 
L 104.1265 266.51 
L 104.1265 266.290321 
L 63.4355 266.290321 
z
" clip-path="url(#p9ac74151c7)" style="fill: #1f77b4"/>
   </g>
   <g id="patch_128">
    <path d="M 144.8175 266.51 
L 185.5085 266.51 
L 185.5085 266.436774 
L 144.8175 266.436774 
z
" clip-path="url(#p9ac74151c7)" style="fill: #1f77b4"/>
   </g>
   <g id="patch_129">
    <path d="M 226.1995 266.51 
L 266.8905 266.51 
L 266.8905 266.51 
L 226.1995 266.51 
z
" clip-path="url(#p9ac74151c7)" style="fill: #1f77b4"/>
   </g>
   <g id="patch_130">
    <path d="M 307.5815 266.51 
L 348.2725 266.51 
L 348.2725 266.51 
L 307.5815 266.51 
z
" clip-path="url(#p9ac74151c7)" style="fill: #1f77b4"/>
   </g>
   <g id="patch_131">
    <path d="M 388.9635 266.51 
L 429.6545 266.51 
L 429.6545 266.51 
L 388.9635 266.51 
z
" clip-path="url(#p9ac74151c7)" style="fill: #1f77b4"/>
   </g>
   <g id="patch_132">
    <path d="M 63.4355 266.51 
L 104.1265 266.51 
L 104.1265 264.578049 
L 63.4355 264.578049 
z
" clip-path="url(#p9ac74151c7)" style="fill: #1f77b4"/>
   </g>
   <g id="patch_133">
    <path d="M 144.8175 266.51 
L 185.5085 266.51 
L 185.5085 266.070643 
L 144.8175 266.070643 
z
" clip-path="url(#p9ac74151c7)" style="fill: #1f77b4"/>
   </g>
   <g id="patch_134">
    <path d="M 226.1995 266.51 
L 266.8905 266.51 
L 266.8905 265.467747 
L 226.1995 265.467747 
z
" clip-path="url(#p9ac74151c7)" style="fill: #1f77b4"/>
   </g>
   <g id="patch_135">
    <path d="M 307.5815 266.51 
L 348.2725 266.51 
L 348.2725 265.467747 
L 307.5815 265.467747 
z
" clip-path="url(#p9ac74151c7)" style="fill: #1f77b4"/>
   </g>
   <g id="patch_136">
    <path d="M 388.9635 266.51 
L 429.6545 266.51 
L 429.6545 265.467747 
L 388.9635 265.467747 
z
" clip-path="url(#p9ac74151c7)" style="fill: #1f77b4"/>
   </g>
   <g id="patch_137">
    <path d="M 63.4355 266.51 
L 104.1265 266.51 
L 104.1265 251.57145 
L 63.4355 251.57145 
z
" clip-path="url(#p9ac74151c7)" style="fill: #1f77b4"/>
   </g>
   <g id="patch_138">
    <path d="M 144.8175 266.51 
L 185.5085 266.51 
L 185.5085 254.37764 
L 144.8175 254.37764 
z
" clip-path="url(#p9ac74151c7)" style="fill: #1f77b4"/>
   </g>
   <g id="patch_139">
    <path d="M 226.1995 266.51 
L 266.8905 266.51 
L 266.8905 264.447462 
L 226.1995 264.447462 
z
" clip-path="url(#p9ac74151c7)" style="fill: #1f77b4"/>
   </g>
   <g id="patch_140">
    <path d="M 307.5815 266.51 
L 348.2725 266.51 
L 348.2725 266.235402 
L 307.5815 266.235402 
z
" clip-path="url(#p9ac74151c7)" style="fill: #1f77b4"/>
   </g>
   <g id="patch_141">
    <path d="M 388.9635 266.51 
L 429.6545 266.51 
L 429.6545 266.235402 
L 388.9635 266.235402 
z
" clip-path="url(#p9ac74151c7)" style="fill: #1f77b4"/>
   </g>
   <g id="patch_142">
    <path d="M 63.4355 266.51 
L 104.1265 266.51 
L 104.1265 264.880717 
L 63.4355 264.880717 
z
" clip-path="url(#p9ac74151c7)" style="fill: #1f77b4"/>
   </g>
   <g id="patch_143">
    <path d="M 144.8175 266.51 
L 185.5085 266.51 
L 185.5085 265.44822 
L 144.8175 265.44822 
z
" clip-path="url(#p9ac74151c7)" style="fill: #1f77b4"/>
   </g>
   <g id="patch_144">
    <path d="M 226.1995 266.51 
L 266.8905 266.51 
L 266.8905 266.290321 
L 226.1995 266.290321 
z
" clip-path="url(#p9ac74151c7)" style="fill: #1f77b4"/>
   </g>
   <g id="patch_145">
    <path d="M 307.5815 266.51 
L 348.2725 266.51 
L 348.2725 266.348902 
L 307.5815 266.348902 
z
" clip-path="url(#p9ac74151c7)" style="fill: #1f77b4"/>
   </g>
   <g id="patch_146">
    <path d="M 388.9635 266.51 
L 429.6545 266.51 
L 429.6545 266.143869 
L 388.9635 266.143869 
z
" clip-path="url(#p9ac74151c7)" style="fill: #1f77b4"/>
   </g>
   <g id="patch_147">
    <path d="M 63.4355 266.51 
L 104.1265 266.51 
L 104.1265 266.355411 
L 63.4355 266.355411 
z
" clip-path="url(#p9ac74151c7)" style="fill: #1f77b4"/>
   </g>
   <g id="patch_148">
    <path d="M 144.8175 266.51 
L 185.5085 266.51 
L 185.5085 266.473387 
L 144.8175 266.473387 
z
" clip-path="url(#p9ac74151c7)" style="fill: #1f77b4"/>
   </g>
   <g id="patch_149">
    <path d="M 226.1995 266.51 
L 266.8905 266.51 
L 266.8905 266.473387 
L 226.1995 266.473387 
z
" clip-path="url(#p9ac74151c7)" style="fill: #1f77b4"/>
   </g>
   <g id="patch_150">
    <path d="M 307.5815 266.51 
L 348.2725 266.51 
L 348.2725 266.501864 
L 307.5815 266.501864 
z
" clip-path="url(#p9ac74151c7)" style="fill: #1f77b4"/>
   </g>
   <g id="patch_151">
    <path d="M 388.9635 266.51 
L 429.6545 266.51 
L 429.6545 266.501864 
L 388.9635 266.501864 
z
" clip-path="url(#p9ac74151c7)" style="fill: #1f77b4"/>
   </g>
   <g id="patch_152">
    <path d="M 63.4355 266.51 
L 104.1265 266.51 
L 104.1265 266.192686 
L 63.4355 266.192686 
z
" clip-path="url(#p9ac74151c7)" style="fill: #1f77b4"/>
   </g>
   <g id="patch_153">
    <path d="M 144.8175 266.51 
L 185.5085 266.51 
L 185.5085 266.339139 
L 144.8175 266.339139 
z
" clip-path="url(#p9ac74151c7)" style="fill: #1f77b4"/>
   </g>
   <g id="patch_154">
    <path d="M 226.1995 266.51 
L 266.8905 266.51 
L 266.8905 266.290321 
L 226.1995 266.290321 
z
" clip-path="url(#p9ac74151c7)" style="fill: #1f77b4"/>
   </g>
   <g id="patch_155">
    <path d="M 307.5815 266.51 
L 348.2725 266.51 
L 348.2725 266.217095 
L 307.5815 266.217095 
z
" clip-path="url(#p9ac74151c7)" style="fill: #1f77b4"/>
   </g>
   <g id="patch_156">
    <path d="M 388.9635 266.51 
L 429.6545 266.51 
L 429.6545 266.436774 
L 388.9635 266.436774 
z
" clip-path="url(#p9ac74151c7)" style="fill: #1f77b4"/>
   </g>
   <g id="patch_157">
    <path d="M 63.4355 266.51 
L 104.1265 266.51 
L 104.1265 266.51 
L 63.4355 266.51 
z
" clip-path="url(#p9ac74151c7)" style="fill: #1f77b4"/>
   </g>
   <g id="patch_158">
    <path d="M 144.8175 266.51 
L 185.5085 266.51 
L 185.5085 266.51 
L 144.8175 266.51 
z
" clip-path="url(#p9ac74151c7)" style="fill: #1f77b4"/>
   </g>
   <g id="patch_159">
    <path d="M 226.1995 266.51 
L 266.8905 266.51 
L 266.8905 266.51 
L 226.1995 266.51 
z
" clip-path="url(#p9ac74151c7)" style="fill: #1f77b4"/>
   </g>
   <g id="patch_160">
    <path d="M 307.5815 266.51 
L 348.2725 266.51 
L 348.2725 266.51 
L 307.5815 266.51 
z
" clip-path="url(#p9ac74151c7)" style="fill: #1f77b4"/>
   </g>
   <g id="patch_161">
    <path d="M 63.4355 266.51 
L 104.1265 266.51 
L 104.1265 266.51 
L 63.4355 266.51 
z
" clip-path="url(#p9ac74151c7)" style="fill: #1f77b4"/>
   </g>
   <g id="patch_162">
    <path d="M 144.8175 266.51 
L 185.5085 266.51 
L 185.5085 266.51 
L 144.8175 266.51 
z
" clip-path="url(#p9ac74151c7)" style="fill: #1f77b4"/>
   </g>
   <g id="patch_163">
    <path d="M 226.1995 266.51 
L 266.8905 266.51 
L 266.8905 266.51 
L 226.1995 266.51 
z
" clip-path="url(#p9ac74151c7)" style="fill: #1f77b4"/>
   </g>
   <g id="patch_164">
    <path d="M 63.4355 266.51 
L 104.1265 266.51 
L 104.1265 266.51 
L 63.4355 266.51 
z
" clip-path="url(#p9ac74151c7)" style="fill: #1f77b4"/>
   </g>
   <g id="patch_165">
    <path d="M 144.8175 266.51 
L 185.5085 266.51 
L 185.5085 266.51 
L 144.8175 266.51 
z
" clip-path="url(#p9ac74151c7)" style="fill: #1f77b4"/>
   </g>
   <g id="patch_166">
    <path d="M 226.1995 266.51 
L 266.8905 266.51 
L 266.8905 266.51 
L 226.1995 266.51 
z
" clip-path="url(#p9ac74151c7)" style="fill: #1f77b4"/>
   </g>
   <g id="patch_167">
    <path d="M 307.5815 266.51 
L 348.2725 266.51 
L 348.2725 266.51 
L 307.5815 266.51 
z
" clip-path="url(#p9ac74151c7)" style="fill: #1f77b4"/>
   </g>
   <g id="patch_168">
    <path d="M 63.4355 266.51 
L 104.1265 266.51 
L 104.1265 266.51 
L 63.4355 266.51 
z
" clip-path="url(#p9ac74151c7)" style="fill: #1f77b4"/>
   </g>
   <g id="patch_169">
    <path d="M 144.8175 266.51 
L 185.5085 266.51 
L 185.5085 266.51 
L 144.8175 266.51 
z
" clip-path="url(#p9ac74151c7)" style="fill: #1f77b4"/>
   </g>
   <g id="patch_170">
    <path d="M 63.4355 266.51 
L 104.1265 266.51 
L 104.1265 22.976667 
L 63.4355 22.976667 
z
" clip-path="url(#p9ac74151c7)" style="fill: #1f77b4"/>
   </g>
   <g id="patch_171">
    <path d="M 144.8175 266.51 
L 185.5085 266.51 
L 185.5085 111.359502 
L 144.8175 111.359502 
z
" clip-path="url(#p9ac74151c7)" style="fill: #1f77b4"/>
   </g>
   <g id="patch_172">
    <path d="M 226.1995 266.51 
L 266.8905 266.51 
L 266.8905 151.11905 
L 226.1995 151.11905 
z
" clip-path="url(#p9ac74151c7)" style="fill: #1f77b4"/>
   </g>
   <g id="patch_173">
    <path d="M 307.5815 266.51 
L 348.2725 266.51 
L 348.2725 141.702989 
L 307.5815 141.702989 
z
" clip-path="url(#p9ac74151c7)" style="fill: #1f77b4"/>
   </g>
   <g id="patch_174">
    <path d="M 388.9635 266.51 
L 429.6545 266.51 
L 429.6545 166.459567 
L 388.9635 166.459567 
z
" clip-path="url(#p9ac74151c7)" style="fill: #1f77b4"/>
   </g>
   <g id="patch_175">
    <path d="M 63.4355 266.51 
L 104.1265 266.51 
L 104.1265 266.125562 
L 63.4355 266.125562 
z
" clip-path="url(#p9ac74151c7)" style="fill: #1f77b4"/>
   </g>
   <g id="patch_176">
    <path d="M 144.8175 266.51 
L 185.5085 266.51 
L 185.5085 266.436774 
L 144.8175 266.436774 
z
" clip-path="url(#p9ac74151c7)" style="fill: #1f77b4"/>
   </g>
   <g id="patch_177">
    <path d="M 226.1995 266.51 
L 266.8905 266.51 
L 266.8905 266.436774 
L 226.1995 266.436774 
z
" clip-path="url(#p9ac74151c7)" style="fill: #1f77b4"/>
   </g>
   <g id="patch_178">
    <path d="M 307.5815 266.51 
L 348.2725 266.51 
L 348.2725 266.436774 
L 307.5815 266.436774 
z
" clip-path="url(#p9ac74151c7)" style="fill: #1f77b4"/>
   </g>
   <g id="patch_179">
    <path d="M 388.9635 266.51 
L 429.6545 266.51 
L 429.6545 266.400161 
L 388.9635 266.400161 
z
" clip-path="url(#p9ac74151c7)" style="fill: #1f77b4"/>
   </g>
   <g id="patch_180">
    <path d="M 63.4355 266.51 
L 104.1265 266.51 
L 104.1265 46.491626 
L 63.4355 46.491626 
z
" clip-path="url(#p9ac74151c7)" style="fill: #1f77b4"/>
   </g>
   <g id="patch_181">
    <path d="M 144.8175 266.51 
L 185.5085 266.51 
L 185.5085 153.1751 
L 144.8175 153.1751 
z
" clip-path="url(#p9ac74151c7)" style="fill: #1f77b4"/>
   </g>
   <g id="patch_182">
    <path d="M 226.1995 266.51 
L 266.8905 266.51 
L 266.8905 186.017263 
L 226.1995 186.017263 
z
" clip-path="url(#p9ac74151c7)" style="fill: #1f77b4"/>
   </g>
   <g id="patch_183">
    <path d="M 307.5815 266.51 
L 348.2725 266.51 
L 348.2725 174.178896 
L 307.5815 174.178896 
z
" clip-path="url(#p9ac74151c7)" style="fill: #1f77b4"/>
   </g>
   <g id="patch_184">
    <path d="M 388.9635 266.51 
L 429.6545 266.51 
L 429.6545 203.792434 
L 388.9635 203.792434 
z
" clip-path="url(#p9ac74151c7)" style="fill: #1f77b4"/>
   </g>
   <g id="patch_185">
    <path d="M 63.4355 266.51 
L 104.1265 266.51 
L 104.1265 262.323903 
L 63.4355 262.323903 
z
" clip-path="url(#p9ac74151c7)" style="fill: #1f77b4"/>
   </g>
   <g id="patch_186">
    <path d="M 144.8175 266.51 
L 185.5085 266.51 
L 185.5085 263.031756 
L 144.8175 263.031756 
z
" clip-path="url(#p9ac74151c7)" style="fill: #1f77b4"/>
   </g>
   <g id="patch_187">
    <path d="M 226.1995 266.51 
L 266.8905 266.51 
L 266.8905 266.021825 
L 226.1995 266.021825 
z
" clip-path="url(#p9ac74151c7)" style="fill: #1f77b4"/>
   </g>
   <g id="patch_188">
    <path d="M 307.5815 266.51 
L 348.2725 266.51 
L 348.2725 266.021825 
L 307.5815 266.021825 
z
" clip-path="url(#p9ac74151c7)" style="fill: #1f77b4"/>
   </g>
   <g id="patch_189">
    <path d="M 388.9635 266.51 
L 429.6545 266.51 
L 429.6545 266.17316 
L 388.9635 266.17316 
z
" clip-path="url(#p9ac74151c7)" style="fill: #1f77b4"/>
   </g>
   <g id="patch_190">
    <path d="M 63.4355 266.51 
L 104.1265 266.51 
L 104.1265 231.977747 
L 63.4355 231.977747 
z
" clip-path="url(#p9ac74151c7)" style="fill: #1f77b4"/>
   </g>
   <g id="patch_191">
    <path d="M 144.8175 266.51 
L 185.5085 266.51 
L 185.5085 254.940261 
L 144.8175 254.940261 
z
" clip-path="url(#p9ac74151c7)" style="fill: #1f77b4"/>
   </g>
   <g id="patch_192">
    <path d="M 226.1995 266.51 
L 266.8905 266.51 
L 266.8905 260.725131 
L 226.1995 260.725131 
z
" clip-path="url(#p9ac74151c7)" style="fill: #1f77b4"/>
   </g>
   <g id="patch_193">
    <path d="M 307.5815 266.51 
L 348.2725 266.51 
L 348.2725 260.725131 
L 307.5815 260.725131 
z
" clip-path="url(#p9ac74151c7)" style="fill: #1f77b4"/>
   </g>
   <g id="patch_194">
    <path d="M 388.9635 266.51 
L 429.6545 266.51 
L 429.6545 258.901798 
L 388.9635 258.901798 
z
" clip-path="url(#p9ac74151c7)" style="fill: #1f77b4"/>
   </g>
   <g id="patch_195">
    <path d="M 63.4355 266.51 
L 104.1265 266.51 
L 104.1265 266.326935 
L 63.4355 266.326935 
z
" clip-path="url(#p9ac74151c7)" style="fill: #1f77b4"/>
   </g>
   <g id="patch_196">
    <path d="M 144.8175 266.51 
L 185.5085 266.51 
L 185.5085 266.326935 
L 144.8175 266.326935 
z
" clip-path="url(#p9ac74151c7)" style="fill: #1f77b4"/>
   </g>
   <g id="patch_197">
    <path d="M 226.1995 266.51 
L 266.8905 266.51 
L 266.8905 266.326935 
L 226.1995 266.326935 
z
" clip-path="url(#p9ac74151c7)" style="fill: #1f77b4"/>
   </g>
   <g id="patch_198">
    <path d="M 307.5815 266.51 
L 348.2725 266.51 
L 348.2725 266.326935 
L 307.5815 266.326935 
z
" clip-path="url(#p9ac74151c7)" style="fill: #1f77b4"/>
   </g>
   <g id="patch_199">
    <path d="M 388.9635 266.51 
L 429.6545 266.51 
L 429.6545 266.326935 
L 388.9635 266.326935 
z
" clip-path="url(#p9ac74151c7)" style="fill: #1f77b4"/>
   </g>
   <g id="patch_200">
    <path d="M 63.4355 266.51 
L 104.1265 266.51 
L 104.1265 266.363548 
L 63.4355 266.363548 
z
" clip-path="url(#p9ac74151c7)" style="fill: #1f77b4"/>
   </g>
   <g id="patch_201">
    <path d="M 144.8175 266.51 
L 185.5085 266.51 
L 185.5085 266.363548 
L 144.8175 266.363548 
z
" clip-path="url(#p9ac74151c7)" style="fill: #1f77b4"/>
   </g>
   <g id="patch_202">
    <path d="M 226.1995 266.51 
L 266.8905 266.51 
L 266.8905 266.363548 
L 226.1995 266.363548 
z
" clip-path="url(#p9ac74151c7)" style="fill: #1f77b4"/>
   </g>
   <g id="patch_203">
    <path d="M 307.5815 266.51 
L 348.2725 266.51 
L 348.2725 266.491693 
L 307.5815 266.491693 
z
" clip-path="url(#p9ac74151c7)" style="fill: #1f77b4"/>
   </g>
   <g id="patch_204">
    <path d="M 388.9635 266.51 
L 429.6545 266.51 
L 429.6545 266.491693 
L 388.9635 266.491693 
z
" clip-path="url(#p9ac74151c7)" style="fill: #1f77b4"/>
   </g>
   <g id="patch_205">
    <path d="M 63.4355 266.51 
L 104.1265 266.51 
L 104.1265 225.757953 
L 63.4355 225.757953 
z
" clip-path="url(#p9ac74151c7)" style="fill: #1f77b4"/>
   </g>
   <g id="patch_206">
    <path d="M 144.8175 266.51 
L 185.5085 266.51 
L 185.5085 224.266746 
L 144.8175 224.266746 
z
" clip-path="url(#p9ac74151c7)" style="fill: #1f77b4"/>
   </g>
   <g id="patch_207">
    <path d="M 226.1995 266.51 
L 266.8905 266.51 
L 266.8905 251.260645 
L 226.1995 251.260645 
z
" clip-path="url(#p9ac74151c7)" style="fill: #1f77b4"/>
   </g>
   <g id="patch_208">
    <path d="M 307.5815 266.51 
L 348.2725 266.51 
L 348.2725 251.260645 
L 307.5815 251.260645 
z
" clip-path="url(#p9ac74151c7)" style="fill: #1f77b4"/>
   </g>
   <g id="patch_209">
    <path d="M 388.9635 266.51 
L 429.6545 266.51 
L 429.6545 225.25148 
L 388.9635 225.25148 
z
" clip-path="url(#p9ac74151c7)" style="fill: #1f77b4"/>
   </g>
   <g id="patch_210">
    <path d="M 63.4355 266.51 
L 104.1265 266.51 
L 104.1265 266.400161 
L 63.4355 266.400161 
z
" clip-path="url(#p9ac74151c7)" style="fill: #1f77b4"/>
   </g>
   <g id="patch_211">
    <path d="M 144.8175 266.51 
L 185.5085 266.51 
L 185.5085 266.400161 
L 144.8175 266.400161 
z
" clip-path="url(#p9ac74151c7)" style="fill: #1f77b4"/>
   </g>
   <g id="patch_212">
    <path d="M 226.1995 266.51 
L 266.8905 266.51 
L 266.8905 266.51 
L 226.1995 266.51 
z
" clip-path="url(#p9ac74151c7)" style="fill: #1f77b4"/>
   </g>
   <g id="patch_213">
    <path d="M 307.5815 266.51 
L 348.2725 266.51 
L 348.2725 266.51 
L 307.5815 266.51 
z
" clip-path="url(#p9ac74151c7)" style="fill: #1f77b4"/>
   </g>
   <g id="patch_214">
    <path d="M 388.9635 266.51 
L 429.6545 266.51 
L 429.6545 266.51 
L 388.9635 266.51 
z
" clip-path="url(#p9ac74151c7)" style="fill: #1f77b4"/>
   </g>
   <g id="patch_215">
    <path d="M 63.4355 266.51 
L 104.1265 266.51 
L 104.1265 242.263644 
L 63.4355 242.263644 
z
" clip-path="url(#p9ac74151c7)" style="fill: #1f77b4"/>
   </g>
   <g id="patch_216">
    <path d="M 144.8175 266.51 
L 185.5085 266.51 
L 185.5085 248.447227 
L 144.8175 248.447227 
z
" clip-path="url(#p9ac74151c7)" style="fill: #1f77b4"/>
   </g>
   <g id="patch_217">
    <path d="M 226.1995 266.51 
L 266.8905 266.51 
L 266.8905 253.088342 
L 226.1995 253.088342 
z
" clip-path="url(#p9ac74151c7)" style="fill: #1f77b4"/>
   </g>
   <g id="patch_218">
    <path d="M 307.5815 266.51 
L 348.2725 266.51 
L 348.2725 246.17021 
L 307.5815 246.17021 
z
" clip-path="url(#p9ac74151c7)" style="fill: #1f77b4"/>
   </g>
   <g id="patch_219">
    <path d="M 388.9635 266.51 
L 429.6545 266.51 
L 429.6545 261.412009 
L 388.9635 261.412009 
z
" clip-path="url(#p9ac74151c7)" style="fill: #1f77b4"/>
   </g>
   <g id="patch_220">
    <path d="M 63.4355 266.51 
L 104.1265 266.51 
L 104.1265 265.960804 
L 63.4355 265.960804 
z
" clip-path="url(#p9ac74151c7)" style="fill: #1f77b4"/>
   </g>
   <g id="patch_221">
    <path d="M 144.8175 266.51 
L 185.5085 266.51 
L 185.5085 265.997417 
L 144.8175 265.997417 
z
" clip-path="url(#p9ac74151c7)" style="fill: #1f77b4"/>
   </g>
   <g id="patch_222">
    <path d="M 226.1995 266.51 
L 266.8905 266.51 
L 266.8905 265.777738 
L 226.1995 265.777738 
z
" clip-path="url(#p9ac74151c7)" style="fill: #1f77b4"/>
   </g>
   <g id="patch_223">
    <path d="M 307.5815 266.51 
L 348.2725 266.51 
L 348.2725 266.326935 
L 307.5815 266.326935 
z
" clip-path="url(#p9ac74151c7)" style="fill: #1f77b4"/>
   </g>
   <g id="patch_224">
    <path d="M 388.9635 266.51 
L 429.6545 266.51 
L 429.6545 266.326935 
L 388.9635 266.326935 
z
" clip-path="url(#p9ac74151c7)" style="fill: #1f77b4"/>
   </g>
   <g id="patch_225">
    <path d="M 63.4355 266.51 
L 104.1265 266.51 
L 104.1265 265.997417 
L 63.4355 265.997417 
z
" clip-path="url(#p9ac74151c7)" style="fill: #1f77b4"/>
   </g>
   <g id="patch_226">
    <path d="M 144.8175 266.51 
L 185.5085 266.51 
L 185.5085 265.997417 
L 144.8175 265.997417 
z
" clip-path="url(#p9ac74151c7)" style="fill: #1f77b4"/>
   </g>
   <g id="patch_227">
    <path d="M 226.1995 266.51 
L 266.8905 266.51 
L 266.8905 265.997417 
L 226.1995 265.997417 
z
" clip-path="url(#p9ac74151c7)" style="fill: #1f77b4"/>
   </g>
   <g id="patch_228">
    <path d="M 307.5815 266.51 
L 348.2725 266.51 
L 348.2725 266.485591 
L 307.5815 266.485591 
z
" clip-path="url(#p9ac74151c7)" style="fill: #1f77b4"/>
   </g>
   <g id="patch_229">
    <path d="M 388.9635 266.51 
L 429.6545 266.51 
L 429.6545 266.485591 
L 388.9635 266.485591 
z
" clip-path="url(#p9ac74151c7)" style="fill: #1f77b4"/>
   </g>
   <g id="patch_230">
    <path d="M 63.4355 266.51 
L 104.1265 266.51 
L 104.1265 266.070643 
L 63.4355 266.070643 
z
" clip-path="url(#p9ac74151c7)" style="fill: #1f77b4"/>
   </g>
   <g id="patch_231">
    <path d="M 144.8175 266.51 
L 185.5085 266.51 
L 185.5085 266.436774 
L 144.8175 266.436774 
z
" clip-path="url(#p9ac74151c7)" style="fill: #1f77b4"/>
   </g>
   <g id="patch_232">
    <path d="M 226.1995 266.51 
L 266.8905 266.51 
L 266.8905 266.436774 
L 226.1995 266.436774 
z
" clip-path="url(#p9ac74151c7)" style="fill: #1f77b4"/>
   </g>
   <g id="patch_233">
    <path d="M 307.5815 266.51 
L 348.2725 266.51 
L 348.2725 266.51 
L 307.5815 266.51 
z
" clip-path="url(#p9ac74151c7)" style="fill: #1f77b4"/>
   </g>
   <g id="patch_234">
    <path d="M 388.9635 266.51 
L 429.6545 266.51 
L 429.6545 266.51 
L 388.9635 266.51 
z
" clip-path="url(#p9ac74151c7)" style="fill: #1f77b4"/>
   </g>
   <g id="patch_235">
    <path d="M 63.4355 266.51 
L 104.1265 266.51 
L 104.1265 259.835955 
L 63.4355 259.835955 
z
" clip-path="url(#p9ac74151c7)" style="fill: #1f77b4"/>
   </g>
   <g id="patch_236">
    <path d="M 144.8175 266.51 
L 185.5085 266.51 
L 185.5085 263.863396 
L 144.8175 263.863396 
z
" clip-path="url(#p9ac74151c7)" style="fill: #1f77b4"/>
   </g>
   <g id="patch_237">
    <path d="M 226.1995 266.51 
L 266.8905 266.51 
L 266.8905 263.863396 
L 226.1995 263.863396 
z
" clip-path="url(#p9ac74151c7)" style="fill: #1f77b4"/>
   </g>
   <g id="patch_238">
    <path d="M 307.5815 266.51 
L 348.2725 266.51 
L 348.2725 262.581938 
L 307.5815 262.581938 
z
" clip-path="url(#p9ac74151c7)" style="fill: #1f77b4"/>
   </g>
   <g id="patch_239">
    <path d="M 388.9635 266.51 
L 429.6545 266.51 
L 429.6545 263.973235 
L 388.9635 263.973235 
z
" clip-path="url(#p9ac74151c7)" style="fill: #1f77b4"/>
   </g>
   <g id="patch_240">
    <path d="M 63.4355 266.51 
L 104.1265 266.51 
L 104.1265 266.51 
L 63.4355 266.51 
z
" clip-path="url(#p9ac74151c7)" style="fill: #1f77b4"/>
   </g>
   <g id="patch_241">
    <path d="M 63.4355 266.51 
L 104.1265 266.51 
L 104.1265 156.09112 
L 63.4355 156.09112 
z
" clip-path="url(#p9ac74151c7)" style="fill: #1f77b4"/>
   </g>
   <g id="patch_242">
    <path d="M 144.8175 266.51 
L 185.5085 266.51 
L 185.5085 176.224234 
L 144.8175 176.224234 
z
" clip-path="url(#p9ac74151c7)" style="fill: #1f77b4"/>
   </g>
   <g id="patch_243">
    <path d="M 226.1995 266.51 
L 266.8905 266.51 
L 266.8905 173.740289 
L 226.1995 173.740289 
z
" clip-path="url(#p9ac74151c7)" style="fill: #1f77b4"/>
   </g>
   <g id="patch_244">
    <path d="M 307.5815 266.51 
L 348.2725 266.51 
L 348.2725 186.977544 
L 307.5815 186.977544 
z
" clip-path="url(#p9ac74151c7)" style="fill: #1f77b4"/>
   </g>
   <g id="patch_245">
    <path d="M 388.9635 266.51 
L 429.6545 266.51 
L 429.6545 230.780188 
L 388.9635 230.780188 
z
" clip-path="url(#p9ac74151c7)" style="fill: #1f77b4"/>
   </g>
   <g id="patch_246">
    <path d="M 63.4355 266.51 
L 104.1265 266.51 
L 104.1265 203.123517 
L 63.4355 203.123517 
z
" clip-path="url(#p9ac74151c7)" style="fill: #1f77b4"/>
   </g>
   <g id="patch_247">
    <path d="M 144.8175 266.51 
L 185.5085 266.51 
L 185.5085 176.70332 
L 144.8175 176.70332 
z
" clip-path="url(#p9ac74151c7)" style="fill: #1f77b4"/>
   </g>
   <g id="patch_248">
    <path d="M 226.1995 266.51 
L 266.8905 266.51 
L 266.8905 219.863334 
L 226.1995 219.863334 
z
" clip-path="url(#p9ac74151c7)" style="fill: #1f77b4"/>
   </g>
   <g id="patch_249">
    <path d="M 307.5815 266.51 
L 348.2725 266.51 
L 348.2725 222.097655 
L 307.5815 222.097655 
z
" clip-path="url(#p9ac74151c7)" style="fill: #1f77b4"/>
   </g>
   <g id="patch_250">
    <path d="M 388.9635 266.51 
L 429.6545 266.51 
L 429.6545 236.515996 
L 388.9635 236.515996 
z
" clip-path="url(#p9ac74151c7)" style="fill: #1f77b4"/>
   </g>
   <g id="patch_251">
    <path d="M 63.4355 266.51 
L 104.1265 266.51 
L 104.1265 266.485591 
L 63.4355 266.485591 
z
" clip-path="url(#p9ac74151c7)" style="fill: #1f77b4"/>
   </g>
   <g id="patch_252">
    <path d="M 144.8175 266.51 
L 185.5085 266.51 
L 185.5085 266.485591 
L 144.8175 266.485591 
z
" clip-path="url(#p9ac74151c7)" style="fill: #1f77b4"/>
   </g>
   <g id="patch_253">
    <path d="M 226.1995 266.51 
L 266.8905 266.51 
L 266.8905 266.485591 
L 226.1995 266.485591 
z
" clip-path="url(#p9ac74151c7)" style="fill: #1f77b4"/>
   </g>
   <g id="patch_254">
    <path d="M 307.5815 266.51 
L 348.2725 266.51 
L 348.2725 266.51 
L 307.5815 266.51 
z
" clip-path="url(#p9ac74151c7)" style="fill: #1f77b4"/>
   </g>
   <g id="patch_255">
    <path d="M 388.9635 266.51 
L 429.6545 266.51 
L 429.6545 266.51 
L 388.9635 266.51 
z
" clip-path="url(#p9ac74151c7)" style="fill: #1f77b4"/>
   </g>
   <g id="patch_256">
    <path d="M 63.4355 266.51 
L 104.1265 266.51 
L 104.1265 264.459667 
L 63.4355 264.459667 
z
" clip-path="url(#p9ac74151c7)" style="fill: #1f77b4"/>
   </g>
   <g id="patch_257">
    <path d="M 144.8175 266.51 
L 185.5085 266.51 
L 185.5085 264.288805 
L 144.8175 264.288805 
z
" clip-path="url(#p9ac74151c7)" style="fill: #1f77b4"/>
   </g>
   <g id="patch_258">
    <path d="M 226.1995 266.51 
L 266.8905 266.51 
L 266.8905 266.326935 
L 226.1995 266.326935 
z
" clip-path="url(#p9ac74151c7)" style="fill: #1f77b4"/>
   </g>
   <g id="patch_259">
    <path d="M 307.5815 266.51 
L 348.2725 266.51 
L 348.2725 266.45508 
L 307.5815 266.45508 
z
" clip-path="url(#p9ac74151c7)" style="fill: #1f77b4"/>
   </g>
   <g id="patch_260">
    <path d="M 388.9635 266.51 
L 429.6545 266.51 
L 429.6545 266.45508 
L 388.9635 266.45508 
z
" clip-path="url(#p9ac74151c7)" style="fill: #1f77b4"/>
   </g>
   <g id="patch_261">
    <path d="M 63.4355 266.51 
L 104.1265 266.51 
L 104.1265 266.070643 
L 63.4355 266.070643 
z
" clip-path="url(#p9ac74151c7)" style="fill: #1f77b4"/>
   </g>
   <g id="patch_262">
    <path d="M 144.8175 266.51 
L 185.5085 266.51 
L 185.5085 266.217095 
L 144.8175 266.217095 
z
" clip-path="url(#p9ac74151c7)" style="fill: #1f77b4"/>
   </g>
   <g id="patch_263">
    <path d="M 226.1995 266.51 
L 266.8905 266.51 
L 266.8905 266.363548 
L 226.1995 266.363548 
z
" clip-path="url(#p9ac74151c7)" style="fill: #1f77b4"/>
   </g>
   <g id="patch_264">
    <path d="M 307.5815 266.51 
L 348.2725 266.51 
L 348.2725 266.363548 
L 307.5815 266.363548 
z
" clip-path="url(#p9ac74151c7)" style="fill: #1f77b4"/>
   </g>
   <g id="patch_265">
    <path d="M 388.9635 266.51 
L 429.6545 266.51 
L 429.6545 266.168278 
L 388.9635 266.168278 
z
" clip-path="url(#p9ac74151c7)" style="fill: #1f77b4"/>
   </g>
   <g id="patch_266">
    <path d="M 63.4355 266.51 
L 104.1265 266.51 
L 104.1265 266.253708 
L 63.4355 266.253708 
z
" clip-path="url(#p9ac74151c7)" style="fill: #1f77b4"/>
   </g>
   <g id="patch_267">
    <path d="M 144.8175 266.51 
L 185.5085 266.51 
L 185.5085 266.253708 
L 144.8175 266.253708 
z
" clip-path="url(#p9ac74151c7)" style="fill: #1f77b4"/>
   </g>
   <g id="patch_268">
    <path d="M 226.1995 266.51 
L 266.8905 266.51 
L 266.8905 266.491693 
L 226.1995 266.491693 
z
" clip-path="url(#p9ac74151c7)" style="fill: #1f77b4"/>
   </g>
   <g id="patch_269">
    <path d="M 307.5815 266.51 
L 348.2725 266.51 
L 348.2725 266.491693 
L 307.5815 266.491693 
z
" clip-path="url(#p9ac74151c7)" style="fill: #1f77b4"/>
   </g>
   <g id="patch_270">
    <path d="M 388.9635 266.51 
L 429.6545 266.51 
L 429.6545 266.491693 
L 388.9635 266.491693 
z
" clip-path="url(#p9ac74151c7)" style="fill: #1f77b4"/>
   </g>
   <g id="patch_271">
    <path d="M 63.4355 266.51 
L 104.1265 266.51 
L 104.1265 265.702478 
L 63.4355 265.702478 
z
" clip-path="url(#p9ac74151c7)" style="fill: #1f77b4"/>
   </g>
   <g id="patch_272">
    <path d="M 144.8175 266.51 
L 185.5085 266.51 
L 185.5085 266.453046 
L 144.8175 266.453046 
z
" clip-path="url(#p9ac74151c7)" style="fill: #1f77b4"/>
   </g>
   <g id="patch_273">
    <path d="M 226.1995 266.51 
L 266.8905 266.51 
L 266.8905 266.453046 
L 226.1995 266.453046 
z
" clip-path="url(#p9ac74151c7)" style="fill: #1f77b4"/>
   </g>
   <g id="patch_274">
    <path d="M 307.5815 266.51 
L 348.2725 266.51 
L 348.2725 266.453046 
L 307.5815 266.453046 
z
" clip-path="url(#p9ac74151c7)" style="fill: #1f77b4"/>
   </g>
   <g id="patch_275">
    <path d="M 388.9635 266.51 
L 429.6545 266.51 
L 429.6545 266.453046 
L 388.9635 266.453046 
z
" clip-path="url(#p9ac74151c7)" style="fill: #1f77b4"/>
   </g>
   <g id="patch_276">
    <path d="M 63.4355 266.51 
L 104.1265 266.51 
L 104.1265 226.467011 
L 63.4355 226.467011 
z
" clip-path="url(#p9ac74151c7)" style="fill: #1f77b4"/>
   </g>
   <g id="patch_277">
    <path d="M 144.8175 266.51 
L 185.5085 266.51 
L 185.5085 254.350505 
L 144.8175 254.350505 
z
" clip-path="url(#p9ac74151c7)" style="fill: #1f77b4"/>
   </g>
   <g id="patch_278">
    <path d="M 226.1995 266.51 
L 266.8905 266.51 
L 266.8905 253.13974 
L 226.1995 253.13974 
z
" clip-path="url(#p9ac74151c7)" style="fill: #1f77b4"/>
   </g>
   <g id="patch_279">
    <path d="M 307.5815 266.51 
L 348.2725 266.51 
L 348.2725 253.365898 
L 307.5815 253.365898 
z
" clip-path="url(#p9ac74151c7)" style="fill: #1f77b4"/>
   </g>
   <g id="patch_280">
    <path d="M 388.9635 266.51 
L 429.6545 266.51 
L 429.6545 225.898063 
L 388.9635 225.898063 
z
" clip-path="url(#p9ac74151c7)" style="fill: #1f77b4"/>
   </g>
   <g id="patch_281">
    <path d="M 63.4355 266.51 
L 104.1265 266.51 
L 104.1265 258.501495 
L 63.4355 258.501495 
z
" clip-path="url(#p9ac74151c7)" style="fill: #1f77b4"/>
   </g>
   <g id="patch_282">
    <path d="M 144.8175 266.51 
L 185.5085 266.51 
L 185.5085 265.393301 
L 144.8175 265.393301 
z
" clip-path="url(#p9ac74151c7)" style="fill: #1f77b4"/>
   </g>
   <g id="patch_283">
    <path d="M 226.1995 266.51 
L 266.8905 266.51 
L 266.8905 265.393301 
L 226.1995 265.393301 
z
" clip-path="url(#p9ac74151c7)" style="fill: #1f77b4"/>
   </g>
   <g id="patch_284">
    <path d="M 307.5815 266.51 
L 348.2725 266.51 
L 348.2725 265.393301 
L 307.5815 265.393301 
z
" clip-path="url(#p9ac74151c7)" style="fill: #1f77b4"/>
   </g>
   <g id="patch_285">
    <path d="M 388.9635 266.51 
L 429.6545 266.51 
L 429.6545 265.393301 
L 388.9635 265.393301 
z
" clip-path="url(#p9ac74151c7)" style="fill: #1f77b4"/>
   </g>
   <g id="patch_286">
    <path d="M 63.4355 266.51 
L 104.1265 266.51 
L 104.1265 266.436774 
L 63.4355 266.436774 
z
" clip-path="url(#p9ac74151c7)" style="fill: #1f77b4"/>
   </g>
   <g id="patch_287">
    <path d="M 144.8175 266.51 
L 185.5085 266.51 
L 185.5085 266.485591 
L 144.8175 266.485591 
z
" clip-path="url(#p9ac74151c7)" style="fill: #1f77b4"/>
   </g>
   <g id="patch_288">
    <path d="M 226.1995 266.51 
L 266.8905 266.51 
L 266.8905 266.485591 
L 226.1995 266.485591 
z
" clip-path="url(#p9ac74151c7)" style="fill: #1f77b4"/>
   </g>
   <g id="patch_289">
    <path d="M 307.5815 266.51 
L 348.2725 266.51 
L 348.2725 266.485591 
L 307.5815 266.485591 
z
" clip-path="url(#p9ac74151c7)" style="fill: #1f77b4"/>
   </g>
   <g id="patch_290">
    <path d="M 388.9635 266.51 
L 429.6545 266.51 
L 429.6545 266.473387 
L 388.9635 266.473387 
z
" clip-path="url(#p9ac74151c7)" style="fill: #1f77b4"/>
   </g>
   <g id="patch_291">
    <path d="M 63.4355 266.51 
L 104.1265 266.51 
L 104.1265 265.147993 
L 63.4355 265.147993 
z
" clip-path="url(#p9ac74151c7)" style="fill: #1f77b4"/>
   </g>
   <g id="patch_292">
    <path d="M 144.8175 266.51 
L 185.5085 266.51 
L 185.5085 264.97225 
L 144.8175 264.97225 
z
" clip-path="url(#p9ac74151c7)" style="fill: #1f77b4"/>
   </g>
   <g id="patch_293">
    <path d="M 226.1995 266.51 
L 266.8905 266.51 
L 266.8905 265.850964 
L 226.1995 265.850964 
z
" clip-path="url(#p9ac74151c7)" style="fill: #1f77b4"/>
   </g>
   <g id="patch_294">
    <path d="M 307.5815 266.51 
L 348.2725 266.51 
L 348.2725 266.466064 
L 307.5815 266.466064 
z
" clip-path="url(#p9ac74151c7)" style="fill: #1f77b4"/>
   </g>
   <g id="patch_295">
    <path d="M 388.9635 266.51 
L 429.6545 266.51 
L 429.6545 266.466064 
L 388.9635 266.466064 
z
" clip-path="url(#p9ac74151c7)" style="fill: #1f77b4"/>
   </g>
   <g id="matplotlib.axis_1">
    <g id="xtick_1">
     <g id="line2d_1">
      <defs>
       <path id="m9deab3ed73" d="M 0 0 
L 0 3.5 
" style="stroke: #000000; stroke-width: 0.8"/>
      </defs>
      <g>
       <use xlink:href="#m9deab3ed73" x="83.781" y="266.51" style="stroke: #000000; stroke-width: 0.8"/>
      </g>
     </g>
     <g id="text_1">
      <!-- Kevin Bacon -->
      <g transform="translate(86.540375 334.877187) rotate(-90) scale(0.1 -0.1)">
       <defs>
        <path id="DejaVuSans-4b" d="M 628 4666 
L 1259 4666 
L 1259 2694 
L 3353 4666 
L 4166 4666 
L 1850 2491 
L 4331 0 
L 3500 0 
L 1259 2247 
L 1259 0 
L 628 0 
L 628 4666 
z
" transform="scale(0.015625)"/>
        <path id="DejaVuSans-65" d="M 3597 1894 
L 3597 1613 
L 953 1613 
Q 991 1019 1311 708 
Q 1631 397 2203 397 
Q 2534 397 2845 478 
Q 3156 559 3463 722 
L 3463 178 
Q 3153 47 2828 -22 
Q 2503 -91 2169 -91 
Q 1331 -91 842 396 
Q 353 884 353 1716 
Q 353 2575 817 3079 
Q 1281 3584 2069 3584 
Q 2775 3584 3186 3129 
Q 3597 2675 3597 1894 
z
M 3022 2063 
Q 3016 2534 2758 2815 
Q 2500 3097 2075 3097 
Q 1594 3097 1305 2825 
Q 1016 2553 972 2059 
L 3022 2063 
z
" transform="scale(0.015625)"/>
        <path id="DejaVuSans-76" d="M 191 3500 
L 800 3500 
L 1894 563 
L 2988 3500 
L 3597 3500 
L 2284 0 
L 1503 0 
L 191 3500 
z
" transform="scale(0.015625)"/>
        <path id="DejaVuSans-69" d="M 603 3500 
L 1178 3500 
L 1178 0 
L 603 0 
L 603 3500 
z
M 603 4863 
L 1178 4863 
L 1178 4134 
L 603 4134 
L 603 4863 
z
" transform="scale(0.015625)"/>
        <path id="DejaVuSans-6e" d="M 3513 2113 
L 3513 0 
L 2938 0 
L 2938 2094 
Q 2938 2591 2744 2837 
Q 2550 3084 2163 3084 
Q 1697 3084 1428 2787 
Q 1159 2491 1159 1978 
L 1159 0 
L 581 0 
L 581 3500 
L 1159 3500 
L 1159 2956 
Q 1366 3272 1645 3428 
Q 1925 3584 2291 3584 
Q 2894 3584 3203 3211 
Q 3513 2838 3513 2113 
z
" transform="scale(0.015625)"/>
        <path id="DejaVuSans-20" transform="scale(0.015625)"/>
        <path id="DejaVuSans-42" d="M 1259 2228 
L 1259 519 
L 2272 519 
Q 2781 519 3026 730 
Q 3272 941 3272 1375 
Q 3272 1813 3026 2020 
Q 2781 2228 2272 2228 
L 1259 2228 
z
M 1259 4147 
L 1259 2741 
L 2194 2741 
Q 2656 2741 2882 2914 
Q 3109 3088 3109 3444 
Q 3109 3797 2882 3972 
Q 2656 4147 2194 4147 
L 1259 4147 
z
M 628 4666 
L 2241 4666 
Q 2963 4666 3353 4366 
Q 3744 4066 3744 3513 
Q 3744 3084 3544 2831 
Q 3344 2578 2956 2516 
Q 3422 2416 3680 2098 
Q 3938 1781 3938 1306 
Q 3938 681 3513 340 
Q 3088 0 2303 0 
L 628 0 
L 628 4666 
z
" transform="scale(0.015625)"/>
        <path id="DejaVuSans-61" d="M 2194 1759 
Q 1497 1759 1228 1600 
Q 959 1441 959 1056 
Q 959 750 1161 570 
Q 1363 391 1709 391 
Q 2188 391 2477 730 
Q 2766 1069 2766 1631 
L 2766 1759 
L 2194 1759 
z
M 3341 1997 
L 3341 0 
L 2766 0 
L 2766 531 
Q 2569 213 2275 61 
Q 1981 -91 1556 -91 
Q 1019 -91 701 211 
Q 384 513 384 1019 
Q 384 1609 779 1909 
Q 1175 2209 1959 2209 
L 2766 2209 
L 2766 2266 
Q 2766 2663 2505 2880 
Q 2244 3097 1772 3097 
Q 1472 3097 1187 3025 
Q 903 2953 641 2809 
L 641 3341 
Q 956 3463 1253 3523 
Q 1550 3584 1831 3584 
Q 2591 3584 2966 3190 
Q 3341 2797 3341 1997 
z
" transform="scale(0.015625)"/>
        <path id="DejaVuSans-63" d="M 3122 3366 
L 3122 2828 
Q 2878 2963 2633 3030 
Q 2388 3097 2138 3097 
Q 1578 3097 1268 2742 
Q 959 2388 959 1747 
Q 959 1106 1268 751 
Q 1578 397 2138 397 
Q 2388 397 2633 464 
Q 2878 531 3122 666 
L 3122 134 
Q 2881 22 2623 -34 
Q 2366 -91 2075 -91 
Q 1284 -91 818 406 
Q 353 903 353 1747 
Q 353 2603 823 3093 
Q 1294 3584 2113 3584 
Q 2378 3584 2631 3529 
Q 2884 3475 3122 3366 
z
" transform="scale(0.015625)"/>
        <path id="DejaVuSans-6f" d="M 1959 3097 
Q 1497 3097 1228 2736 
Q 959 2375 959 1747 
Q 959 1119 1226 758 
Q 1494 397 1959 397 
Q 2419 397 2687 759 
Q 2956 1122 2956 1747 
Q 2956 2369 2687 2733 
Q 2419 3097 1959 3097 
z
M 1959 3584 
Q 2709 3584 3137 3096 
Q 3566 2609 3566 1747 
Q 3566 888 3137 398 
Q 2709 -91 1959 -91 
Q 1206 -91 779 398 
Q 353 888 353 1747 
Q 353 2609 779 3096 
Q 1206 3584 1959 3584 
z
" transform="scale(0.015625)"/>
       </defs>
       <use xlink:href="#DejaVuSans-4b"/>
       <use xlink:href="#DejaVuSans-65" x="60.576172"/>
       <use xlink:href="#DejaVuSans-76" x="122.099609"/>
       <use xlink:href="#DejaVuSans-69" x="181.279297"/>
       <use xlink:href="#DejaVuSans-6e" x="209.0625"/>
       <use xlink:href="#DejaVuSans-20" x="272.441406"/>
       <use xlink:href="#DejaVuSans-42" x="304.228516"/>
       <use xlink:href="#DejaVuSans-61" x="372.832031"/>
       <use xlink:href="#DejaVuSans-63" x="434.111328"/>
       <use xlink:href="#DejaVuSans-6f" x="489.091797"/>
       <use xlink:href="#DejaVuSans-6e" x="550.273438"/>
      </g>
     </g>
    </g>
    <g id="xtick_2">
     <g id="line2d_2">
      <g>
       <use xlink:href="#m9deab3ed73" x="165.163" y="266.51" style="stroke: #000000; stroke-width: 0.8"/>
      </g>
     </g>
     <g id="text_2">
      <!-- Irma P. Hall -->
      <g transform="translate(167.922375 329.470937) rotate(-90) scale(0.1 -0.1)">
       <defs>
        <path id="DejaVuSans-49" d="M 628 4666 
L 1259 4666 
L 1259 0 
L 628 0 
L 628 4666 
z
" transform="scale(0.015625)"/>
        <path id="DejaVuSans-72" d="M 2631 2963 
Q 2534 3019 2420 3045 
Q 2306 3072 2169 3072 
Q 1681 3072 1420 2755 
Q 1159 2438 1159 1844 
L 1159 0 
L 581 0 
L 581 3500 
L 1159 3500 
L 1159 2956 
Q 1341 3275 1631 3429 
Q 1922 3584 2338 3584 
Q 2397 3584 2469 3576 
Q 2541 3569 2628 3553 
L 2631 2963 
z
" transform="scale(0.015625)"/>
        <path id="DejaVuSans-6d" d="M 3328 2828 
Q 3544 3216 3844 3400 
Q 4144 3584 4550 3584 
Q 5097 3584 5394 3201 
Q 5691 2819 5691 2113 
L 5691 0 
L 5113 0 
L 5113 2094 
Q 5113 2597 4934 2840 
Q 4756 3084 4391 3084 
Q 3944 3084 3684 2787 
Q 3425 2491 3425 1978 
L 3425 0 
L 2847 0 
L 2847 2094 
Q 2847 2600 2669 2842 
Q 2491 3084 2119 3084 
Q 1678 3084 1418 2786 
Q 1159 2488 1159 1978 
L 1159 0 
L 581 0 
L 581 3500 
L 1159 3500 
L 1159 2956 
Q 1356 3278 1631 3431 
Q 1906 3584 2284 3584 
Q 2666 3584 2933 3390 
Q 3200 3197 3328 2828 
z
" transform="scale(0.015625)"/>
        <path id="DejaVuSans-50" d="M 1259 4147 
L 1259 2394 
L 2053 2394 
Q 2494 2394 2734 2622 
Q 2975 2850 2975 3272 
Q 2975 3691 2734 3919 
Q 2494 4147 2053 4147 
L 1259 4147 
z
M 628 4666 
L 2053 4666 
Q 2838 4666 3239 4311 
Q 3641 3956 3641 3272 
Q 3641 2581 3239 2228 
Q 2838 1875 2053 1875 
L 1259 1875 
L 1259 0 
L 628 0 
L 628 4666 
z
" transform="scale(0.015625)"/>
        <path id="DejaVuSans-2e" d="M 684 794 
L 1344 794 
L 1344 0 
L 684 0 
L 684 794 
z
" transform="scale(0.015625)"/>
        <path id="DejaVuSans-48" d="M 628 4666 
L 1259 4666 
L 1259 2753 
L 3553 2753 
L 3553 4666 
L 4184 4666 
L 4184 0 
L 3553 0 
L 3553 2222 
L 1259 2222 
L 1259 0 
L 628 0 
L 628 4666 
z
" transform="scale(0.015625)"/>
        <path id="DejaVuSans-6c" d="M 603 4863 
L 1178 4863 
L 1178 0 
L 603 0 
L 603 4863 
z
" transform="scale(0.015625)"/>
       </defs>
       <use xlink:href="#DejaVuSans-49"/>
       <use xlink:href="#DejaVuSans-72" x="29.492188"/>
       <use xlink:href="#DejaVuSans-6d" x="68.855469"/>
       <use xlink:href="#DejaVuSans-61" x="166.267578"/>
       <use xlink:href="#DejaVuSans-20" x="227.546875"/>
       <use xlink:href="#DejaVuSans-50" x="259.333984"/>
       <use xlink:href="#DejaVuSans-2e" x="304.011719"/>
       <use xlink:href="#DejaVuSans-20" x="335.798828"/>
       <use xlink:href="#DejaVuSans-48" x="367.585938"/>
       <use xlink:href="#DejaVuSans-61" x="442.78125"/>
       <use xlink:href="#DejaVuSans-6c" x="504.060547"/>
       <use xlink:href="#DejaVuSans-6c" x="531.84375"/>
      </g>
     </g>
    </g>
    <g id="xtick_3">
     <g id="line2d_3">
      <g>
       <use xlink:href="#m9deab3ed73" x="246.545" y="266.51" style="stroke: #000000; stroke-width: 0.8"/>
      </g>
     </g>
     <g id="text_3">
      <!-- Tom Hanks -->
      <g transform="translate(249.304375 327.94125) rotate(-90) scale(0.1 -0.1)">
       <defs>
        <path id="DejaVuSans-54" d="M -19 4666 
L 3928 4666 
L 3928 4134 
L 2272 4134 
L 2272 0 
L 1638 0 
L 1638 4134 
L -19 4134 
L -19 4666 
z
" transform="scale(0.015625)"/>
        <path id="DejaVuSans-6b" d="M 581 4863 
L 1159 4863 
L 1159 1991 
L 2875 3500 
L 3609 3500 
L 1753 1863 
L 3688 0 
L 2938 0 
L 1159 1709 
L 1159 0 
L 581 0 
L 581 4863 
z
" transform="scale(0.015625)"/>
        <path id="DejaVuSans-73" d="M 2834 3397 
L 2834 2853 
Q 2591 2978 2328 3040 
Q 2066 3103 1784 3103 
Q 1356 3103 1142 2972 
Q 928 2841 928 2578 
Q 928 2378 1081 2264 
Q 1234 2150 1697 2047 
L 1894 2003 
Q 2506 1872 2764 1633 
Q 3022 1394 3022 966 
Q 3022 478 2636 193 
Q 2250 -91 1575 -91 
Q 1294 -91 989 -36 
Q 684 19 347 128 
L 347 722 
Q 666 556 975 473 
Q 1284 391 1588 391 
Q 1994 391 2212 530 
Q 2431 669 2431 922 
Q 2431 1156 2273 1281 
Q 2116 1406 1581 1522 
L 1381 1569 
Q 847 1681 609 1914 
Q 372 2147 372 2553 
Q 372 3047 722 3315 
Q 1072 3584 1716 3584 
Q 2034 3584 2315 3537 
Q 2597 3491 2834 3397 
z
" transform="scale(0.015625)"/>
       </defs>
       <use xlink:href="#DejaVuSans-54"/>
       <use xlink:href="#DejaVuSans-6f" x="44.083984"/>
       <use xlink:href="#DejaVuSans-6d" x="105.265625"/>
       <use xlink:href="#DejaVuSans-20" x="202.677734"/>
       <use xlink:href="#DejaVuSans-48" x="234.464844"/>
       <use xlink:href="#DejaVuSans-61" x="309.660156"/>
       <use xlink:href="#DejaVuSans-6e" x="370.939453"/>
       <use xlink:href="#DejaVuSans-6b" x="434.318359"/>
       <use xlink:href="#DejaVuSans-73" x="492.228516"/>
      </g>
     </g>
    </g>
    <g id="xtick_4">
     <g id="line2d_4">
      <g>
       <use xlink:href="#m9deab3ed73" x="327.927" y="266.51" style="stroke: #000000; stroke-width: 0.8"/>
      </g>
     </g>
     <g id="text_4">
      <!-- Sean Penn -->
      <g transform="translate(330.686375 326.150625) rotate(-90) scale(0.1 -0.1)">
       <defs>
        <path id="DejaVuSans-53" d="M 3425 4513 
L 3425 3897 
Q 3066 4069 2747 4153 
Q 2428 4238 2131 4238 
Q 1616 4238 1336 4038 
Q 1056 3838 1056 3469 
Q 1056 3159 1242 3001 
Q 1428 2844 1947 2747 
L 2328 2669 
Q 3034 2534 3370 2195 
Q 3706 1856 3706 1288 
Q 3706 609 3251 259 
Q 2797 -91 1919 -91 
Q 1588 -91 1214 -16 
Q 841 59 441 206 
L 441 856 
Q 825 641 1194 531 
Q 1563 422 1919 422 
Q 2459 422 2753 634 
Q 3047 847 3047 1241 
Q 3047 1584 2836 1778 
Q 2625 1972 2144 2069 
L 1759 2144 
Q 1053 2284 737 2584 
Q 422 2884 422 3419 
Q 422 4038 858 4394 
Q 1294 4750 2059 4750 
Q 2388 4750 2728 4690 
Q 3069 4631 3425 4513 
z
" transform="scale(0.015625)"/>
       </defs>
       <use xlink:href="#DejaVuSans-53"/>
       <use xlink:href="#DejaVuSans-65" x="63.476562"/>
       <use xlink:href="#DejaVuSans-61" x="125"/>
       <use xlink:href="#DejaVuSans-6e" x="186.279297"/>
       <use xlink:href="#DejaVuSans-20" x="249.658203"/>
       <use xlink:href="#DejaVuSans-50" x="281.445312"/>
       <use xlink:href="#DejaVuSans-65" x="338.123047"/>
       <use xlink:href="#DejaVuSans-6e" x="399.646484"/>
       <use xlink:href="#DejaVuSans-6e" x="463.025391"/>
      </g>
     </g>
    </g>
    <g id="xtick_5">
     <g id="line2d_5">
      <g>
       <use xlink:href="#m9deab3ed73" x="409.309" y="266.51" style="stroke: #000000; stroke-width: 0.8"/>
      </g>
     </g>
     <g id="text_5">
      <!-- Tim Robbins -->
      <g transform="translate(412.068375 334.64125) rotate(-90) scale(0.1 -0.1)">
       <defs>
        <path id="DejaVuSans-52" d="M 2841 2188 
Q 3044 2119 3236 1894 
Q 3428 1669 3622 1275 
L 4263 0 
L 3584 0 
L 2988 1197 
Q 2756 1666 2539 1819 
Q 2322 1972 1947 1972 
L 1259 1972 
L 1259 0 
L 628 0 
L 628 4666 
L 2053 4666 
Q 2853 4666 3247 4331 
Q 3641 3997 3641 3322 
Q 3641 2881 3436 2590 
Q 3231 2300 2841 2188 
z
M 1259 4147 
L 1259 2491 
L 2053 2491 
Q 2509 2491 2742 2702 
Q 2975 2913 2975 3322 
Q 2975 3731 2742 3939 
Q 2509 4147 2053 4147 
L 1259 4147 
z
" transform="scale(0.015625)"/>
        <path id="DejaVuSans-62" d="M 3116 1747 
Q 3116 2381 2855 2742 
Q 2594 3103 2138 3103 
Q 1681 3103 1420 2742 
Q 1159 2381 1159 1747 
Q 1159 1113 1420 752 
Q 1681 391 2138 391 
Q 2594 391 2855 752 
Q 3116 1113 3116 1747 
z
M 1159 2969 
Q 1341 3281 1617 3432 
Q 1894 3584 2278 3584 
Q 2916 3584 3314 3078 
Q 3713 2572 3713 1747 
Q 3713 922 3314 415 
Q 2916 -91 2278 -91 
Q 1894 -91 1617 61 
Q 1341 213 1159 525 
L 1159 0 
L 581 0 
L 581 4863 
L 1159 4863 
L 1159 2969 
z
" transform="scale(0.015625)"/>
       </defs>
       <use xlink:href="#DejaVuSans-54"/>
       <use xlink:href="#DejaVuSans-69" x="57.958984"/>
       <use xlink:href="#DejaVuSans-6d" x="85.742188"/>
       <use xlink:href="#DejaVuSans-20" x="183.154297"/>
       <use xlink:href="#DejaVuSans-52" x="214.941406"/>
       <use xlink:href="#DejaVuSans-6f" x="279.923828"/>
       <use xlink:href="#DejaVuSans-62" x="341.105469"/>
       <use xlink:href="#DejaVuSans-62" x="404.582031"/>
       <use xlink:href="#DejaVuSans-69" x="468.058594"/>
       <use xlink:href="#DejaVuSans-6e" x="495.841797"/>
       <use xlink:href="#DejaVuSans-73" x="559.220703"/>
      </g>
     </g>
    </g>
   </g>
   <g id="matplotlib.axis_2">
    <g id="ytick_1">
     <g id="line2d_6">
      <defs>
       <path id="m02476bb7a3" d="M 0 0 
L -3.5 0 
" style="stroke: #000000; stroke-width: 0.8"/>
      </defs>
      <g>
       <use xlink:href="#m02476bb7a3" x="43.09" y="266.51" style="stroke: #000000; stroke-width: 0.8"/>
      </g>
     </g>
     <g id="text_6">
      <!-- 0 -->
      <g transform="translate(29.7275 270.309219) scale(0.1 -0.1)">
       <defs>
        <path id="DejaVuSans-30" d="M 2034 4250 
Q 1547 4250 1301 3770 
Q 1056 3291 1056 2328 
Q 1056 1369 1301 889 
Q 1547 409 2034 409 
Q 2525 409 2770 889 
Q 3016 1369 3016 2328 
Q 3016 3291 2770 3770 
Q 2525 4250 2034 4250 
z
M 2034 4750 
Q 2819 4750 3233 4129 
Q 3647 3509 3647 2328 
Q 3647 1150 3233 529 
Q 2819 -91 2034 -91 
Q 1250 -91 836 529 
Q 422 1150 422 2328 
Q 422 3509 836 4129 
Q 1250 4750 2034 4750 
z
" transform="scale(0.015625)"/>
       </defs>
       <use xlink:href="#DejaVuSans-30"/>
      </g>
     </g>
    </g>
    <g id="ytick_2">
     <g id="line2d_7">
      <g>
       <use xlink:href="#m02476bb7a3" x="43.09" y="229.896903" style="stroke: #000000; stroke-width: 0.8"/>
      </g>
     </g>
     <g id="text_7">
      <!-- 500 -->
      <g transform="translate(17.0025 233.696122) scale(0.1 -0.1)">
       <defs>
        <path id="DejaVuSans-35" d="M 691 4666 
L 3169 4666 
L 3169 4134 
L 1269 4134 
L 1269 2991 
Q 1406 3038 1543 3061 
Q 1681 3084 1819 3084 
Q 2600 3084 3056 2656 
Q 3513 2228 3513 1497 
Q 3513 744 3044 326 
Q 2575 -91 1722 -91 
Q 1428 -91 1123 -41 
Q 819 9 494 109 
L 494 744 
Q 775 591 1075 516 
Q 1375 441 1709 441 
Q 2250 441 2565 725 
Q 2881 1009 2881 1497 
Q 2881 1984 2565 2268 
Q 2250 2553 1709 2553 
Q 1456 2553 1204 2497 
Q 953 2441 691 2322 
L 691 4666 
z
" transform="scale(0.015625)"/>
       </defs>
       <use xlink:href="#DejaVuSans-35"/>
       <use xlink:href="#DejaVuSans-30" x="63.623047"/>
       <use xlink:href="#DejaVuSans-30" x="127.246094"/>
      </g>
     </g>
    </g>
    <g id="ytick_3">
     <g id="line2d_8">
      <g>
       <use xlink:href="#m02476bb7a3" x="43.09" y="193.283806" style="stroke: #000000; stroke-width: 0.8"/>
      </g>
     </g>
     <g id="text_8">
      <!-- 1000 -->
      <g transform="translate(10.64 197.083025) scale(0.1 -0.1)">
       <defs>
        <path id="DejaVuSans-31" d="M 794 531 
L 1825 531 
L 1825 4091 
L 703 3866 
L 703 4441 
L 1819 4666 
L 2450 4666 
L 2450 531 
L 3481 531 
L 3481 0 
L 794 0 
L 794 531 
z
" transform="scale(0.015625)"/>
       </defs>
       <use xlink:href="#DejaVuSans-31"/>
       <use xlink:href="#DejaVuSans-30" x="63.623047"/>
       <use xlink:href="#DejaVuSans-30" x="127.246094"/>
       <use xlink:href="#DejaVuSans-30" x="190.869141"/>
      </g>
     </g>
    </g>
    <g id="ytick_4">
     <g id="line2d_9">
      <g>
       <use xlink:href="#m02476bb7a3" x="43.09" y="156.670709" style="stroke: #000000; stroke-width: 0.8"/>
      </g>
     </g>
     <g id="text_9">
      <!-- 1500 -->
      <g transform="translate(10.64 160.469928) scale(0.1 -0.1)">
       <use xlink:href="#DejaVuSans-31"/>
       <use xlink:href="#DejaVuSans-35" x="63.623047"/>
       <use xlink:href="#DejaVuSans-30" x="127.246094"/>
       <use xlink:href="#DejaVuSans-30" x="190.869141"/>
      </g>
     </g>
    </g>
    <g id="ytick_5">
     <g id="line2d_10">
      <g>
       <use xlink:href="#m02476bb7a3" x="43.09" y="120.057612" style="stroke: #000000; stroke-width: 0.8"/>
      </g>
     </g>
     <g id="text_10">
      <!-- 2000 -->
      <g transform="translate(10.64 123.856831) scale(0.1 -0.1)">
       <defs>
        <path id="DejaVuSans-32" d="M 1228 531 
L 3431 531 
L 3431 0 
L 469 0 
L 469 531 
Q 828 903 1448 1529 
Q 2069 2156 2228 2338 
Q 2531 2678 2651 2914 
Q 2772 3150 2772 3378 
Q 2772 3750 2511 3984 
Q 2250 4219 1831 4219 
Q 1534 4219 1204 4116 
Q 875 4013 500 3803 
L 500 4441 
Q 881 4594 1212 4672 
Q 1544 4750 1819 4750 
Q 2544 4750 2975 4387 
Q 3406 4025 3406 3419 
Q 3406 3131 3298 2873 
Q 3191 2616 2906 2266 
Q 2828 2175 2409 1742 
Q 1991 1309 1228 531 
z
" transform="scale(0.015625)"/>
       </defs>
       <use xlink:href="#DejaVuSans-32"/>
       <use xlink:href="#DejaVuSans-30" x="63.623047"/>
       <use xlink:href="#DejaVuSans-30" x="127.246094"/>
       <use xlink:href="#DejaVuSans-30" x="190.869141"/>
      </g>
     </g>
    </g>
    <g id="ytick_6">
     <g id="line2d_11">
      <g>
       <use xlink:href="#m02476bb7a3" x="43.09" y="83.444515" style="stroke: #000000; stroke-width: 0.8"/>
      </g>
     </g>
     <g id="text_11">
      <!-- 2500 -->
      <g transform="translate(10.64 87.243733) scale(0.1 -0.1)">
       <use xlink:href="#DejaVuSans-32"/>
       <use xlink:href="#DejaVuSans-35" x="63.623047"/>
       <use xlink:href="#DejaVuSans-30" x="127.246094"/>
       <use xlink:href="#DejaVuSans-30" x="190.869141"/>
      </g>
     </g>
    </g>
    <g id="ytick_7">
     <g id="line2d_12">
      <g>
       <use xlink:href="#m02476bb7a3" x="43.09" y="46.831418" style="stroke: #000000; stroke-width: 0.8"/>
      </g>
     </g>
     <g id="text_12">
      <!-- 3000 -->
      <g transform="translate(10.64 50.630636) scale(0.1 -0.1)">
       <defs>
        <path id="DejaVuSans-33" d="M 2597 2516 
Q 3050 2419 3304 2112 
Q 3559 1806 3559 1356 
Q 3559 666 3084 287 
Q 2609 -91 1734 -91 
Q 1441 -91 1130 -33 
Q 819 25 488 141 
L 488 750 
Q 750 597 1062 519 
Q 1375 441 1716 441 
Q 2309 441 2620 675 
Q 2931 909 2931 1356 
Q 2931 1769 2642 2001 
Q 2353 2234 1838 2234 
L 1294 2234 
L 1294 2753 
L 1863 2753 
Q 2328 2753 2575 2939 
Q 2822 3125 2822 3475 
Q 2822 3834 2567 4026 
Q 2313 4219 1838 4219 
Q 1578 4219 1281 4162 
Q 984 4106 628 3988 
L 628 4550 
Q 988 4650 1302 4700 
Q 1616 4750 1894 4750 
Q 2613 4750 3031 4423 
Q 3450 4097 3450 3541 
Q 3450 3153 3228 2886 
Q 3006 2619 2597 2516 
z
" transform="scale(0.015625)"/>
       </defs>
       <use xlink:href="#DejaVuSans-33"/>
       <use xlink:href="#DejaVuSans-30" x="63.623047"/>
       <use xlink:href="#DejaVuSans-30" x="127.246094"/>
       <use xlink:href="#DejaVuSans-30" x="190.869141"/>
      </g>
     </g>
    </g>
   </g>
   <g id="patch_296">
    <path d="M 43.09 266.51 
L 43.09 10.8 
" style="fill: none; stroke: #000000; stroke-width: 0.8; stroke-linejoin: miter; stroke-linecap: square"/>
   </g>
   <g id="patch_297">
    <path d="M 450 266.51 
L 450 10.8 
" style="fill: none; stroke: #000000; stroke-width: 0.8; stroke-linejoin: miter; stroke-linecap: square"/>
   </g>
   <g id="patch_298">
    <path d="M 43.09 266.51 
L 450 266.51 
" style="fill: none; stroke: #000000; stroke-width: 0.8; stroke-linejoin: miter; stroke-linecap: square"/>
   </g>
   <g id="patch_299">
    <path d="M 43.09 10.8 
L 450 10.8 
" style="fill: none; stroke: #000000; stroke-width: 0.8; stroke-linejoin: miter; stroke-linecap: square"/>
   </g>
  </g>
 </g>
 <defs>
  <clipPath id="p9ac74151c7">
   <rect x="43.09" y="10.8" width="406.91" height="255.71"/>
  </clipPath>
 </defs>
</svg>
