<?xml version="1.0" encoding="utf-8" standalone="no"?>
<!DOCTYPE svg PUBLIC "-//W3C//DTD SVG 1.1//EN"
  "http://www.w3.org/Graphics/SVG/1.1/DTD/svg11.dtd">
<svg xmlns:xlink="http://www.w3.org/1999/xlink" width="460.8pt" height="345.6pt" viewBox="0 0 460.8 345.6" xmlns="http://www.w3.org/2000/svg" version="1.1">
 <metadata>
  <rdf:RDF xmlns:dc="http://purl.org/dc/elements/1.1/" xmlns:cc="http://creativecommons.org/ns#" xmlns:rdf="http://www.w3.org/1999/02/22-rdf-syntax-ns#">
   <cc:Work>
    <dc:type rdf:resource="http://purl.org/dc/dcmitype/StillImage"/>
    <dc:date>2022-12-20T12:31:05.817442</dc:date>
    <dc:format>image/svg+xml</dc:format>
    <dc:creator>
     <cc:Agent>
      <dc:title>Matplotlib v3.6.0, https://matplotlib.org/</dc:title>
     </cc:Agent>
    </dc:creator>
   </cc:Work>
  </rdf:RDF>
 </metadata>
 <defs>
  <style type="text/css">*{stroke-linejoin: round; stroke-linecap: butt}</style>
 </defs>
 <g id="figure_1">
  <g id="patch_1">
   <path d="M 0 345.6 
L 460.8 345.6 
L 460.8 0 
L 0 0 
z
" style="fill: #ffffff"/>
  </g>
  <g id="axes_1">
   <g id="patch_2">
    <path d="M 43.09 240.86 
L 450 240.86 
L 450 10.8 
L 43.09 10.8 
z
" style="fill: #ffffff"/>
   </g>
   <g id="patch_3">
    <path d="M 93.95375 240.86 
L 195.68125 240.86 
L 195.68125 22.933785 
L 93.95375 22.933785 
z
" clip-path="url(#p06f666a90e)" style="fill: #1f77b4"/>
   </g>
   <g id="patch_4">
    <path d="M 297.40875 240.86 
L 399.13625 240.86 
L 399.13625 74.189814 
L 297.40875 74.189814 
z
" clip-path="url(#p06f666a90e)" style="fill: #1f77b4"/>
   </g>
   <g id="patch_5">
    <path d="M 500.86375 240.86 
L 602.59125 240.86 
L 602.59125 58.941833 
L 500.86375 58.941833 
z
" clip-path="url(#p06f666a90e)" style="fill: #1f77b4"/>
   </g>
   <g id="patch_6">
    <path d="M 704.31875 240.86 
L 806.04625 240.86 
L 806.04625 92.445261 
L 704.31875 92.445261 
z
" clip-path="url(#p06f666a90e)" style="fill: #1f77b4"/>
   </g>
   <g id="patch_7">
    <path d="M 907.77375 240.86 
L 1009.50125 240.86 
L 1009.50125 151.567465 
L 907.77375 151.567465 
z
" clip-path="url(#p06f666a90e)" style="fill: #1f77b4"/>
   </g>
   <g id="patch_8">
    <path d="M 93.95375 240.86 
L 195.68125 240.86 
L 195.68125 240.278532 
L 93.95375 240.278532 
z
" clip-path="url(#p06f666a90e)" style="fill: #1f77b4"/>
   </g>
   <g id="patch_9">
    <path d="M 297.40875 240.86 
L 399.13625 240.86 
L 399.13625 240.666177 
L 297.40875 240.666177 
z
" clip-path="url(#p06f666a90e)" style="fill: #1f77b4"/>
   </g>
   <g id="patch_10">
    <path d="M 500.86375 240.86 
L 602.59125 240.86 
L 602.59125 240.86 
L 500.86375 240.86 
z
" clip-path="url(#p06f666a90e)" style="fill: #1f77b4"/>
   </g>
   <g id="patch_11">
    <path d="M 93.95375 240.86 
L 195.68125 240.86 
L 195.68125 240.795392 
L 93.95375 240.795392 
z
" clip-path="url(#p06f666a90e)" style="fill: #1f77b4"/>
   </g>
   <g id="patch_12">
    <path d="M 297.40875 240.86 
L 399.13625 240.86 
L 399.13625 240.795392 
L 297.40875 240.795392 
z
" clip-path="url(#p06f666a90e)" style="fill: #1f77b4"/>
   </g>
   <g id="patch_13">
    <path d="M 500.86375 240.86 
L 602.59125 240.86 
L 602.59125 240.795392 
L 500.86375 240.795392 
z
" clip-path="url(#p06f666a90e)" style="fill: #1f77b4"/>
   </g>
   <g id="patch_14">
    <path d="M 704.31875 240.86 
L 806.04625 240.86 
L 806.04625 240.666177 
L 704.31875 240.666177 
z
" clip-path="url(#p06f666a90e)" style="fill: #1f77b4"/>
   </g>
   <g id="patch_15">
    <path d="M 907.77375 240.86 
L 1009.50125 240.86 
L 1009.50125 240.86 
L 907.77375 240.86 
z
" clip-path="url(#p06f666a90e)" style="fill: #1f77b4"/>
   </g>
   <g id="patch_16">
    <path d="M 93.95375 240.86 
L 195.68125 240.86 
L 195.68125 204.421354 
L 93.95375 204.421354 
z
" clip-path="url(#p06f666a90e)" style="fill: #1f77b4"/>
   </g>
   <g id="patch_17">
    <path d="M 297.40875 240.86 
L 399.13625 240.86 
L 399.13625 230.587403 
L 297.40875 230.587403 
z
" clip-path="url(#p06f666a90e)" style="fill: #1f77b4"/>
   </g>
   <g id="patch_18">
    <path d="M 500.86375 240.86 
L 602.59125 240.86 
L 602.59125 232.428718 
L 500.86375 232.428718 
z
" clip-path="url(#p06f666a90e)" style="fill: #1f77b4"/>
   </g>
   <g id="patch_19">
    <path d="M 704.31875 240.86 
L 806.04625 240.86 
L 806.04625 205.390467 
L 704.31875 205.390467 
z
" clip-path="url(#p06f666a90e)" style="fill: #1f77b4"/>
   </g>
   <g id="patch_20">
    <path d="M 907.77375 240.86 
L 1009.50125 240.86 
L 1009.50125 236.305169 
L 907.77375 236.305169 
z
" clip-path="url(#p06f666a90e)" style="fill: #1f77b4"/>
   </g>
   <g id="patch_21">
    <path d="M 93.95375 240.86 
L 195.68125 240.86 
L 195.68125 240.666177 
L 93.95375 240.666177 
z
" clip-path="url(#p06f666a90e)" style="fill: #1f77b4"/>
   </g>
   <g id="patch_22">
    <path d="M 297.40875 240.86 
L 399.13625 240.86 
L 399.13625 240.86 
L 297.40875 240.86 
z
" clip-path="url(#p06f666a90e)" style="fill: #1f77b4"/>
   </g>
   <g id="patch_23">
    <path d="M 500.86375 240.86 
L 602.59125 240.86 
L 602.59125 240.86 
L 500.86375 240.86 
z
" clip-path="url(#p06f666a90e)" style="fill: #1f77b4"/>
   </g>
   <g id="patch_24">
    <path d="M 704.31875 240.86 
L 806.04625 240.86 
L 806.04625 240.86 
L 704.31875 240.86 
z
" clip-path="url(#p06f666a90e)" style="fill: #1f77b4"/>
   </g>
   <g id="patch_25">
    <path d="M 93.95375 240.86 
L 195.68125 240.86 
L 195.68125 235.62679 
L 93.95375 235.62679 
z
" clip-path="url(#p06f666a90e)" style="fill: #1f77b4"/>
   </g>
   <g id="patch_26">
    <path d="M 297.40875 240.86 
L 399.13625 240.86 
L 399.13625 240.278532 
L 297.40875 240.278532 
z
" clip-path="url(#p06f666a90e)" style="fill: #1f77b4"/>
   </g>
   <g id="patch_27">
    <path d="M 500.86375 240.86 
L 602.59125 240.86 
L 602.59125 240.666177 
L 500.86375 240.666177 
z
" clip-path="url(#p06f666a90e)" style="fill: #1f77b4"/>
   </g>
   <g id="patch_28">
    <path d="M 704.31875 240.86 
L 806.04625 240.86 
L 806.04625 240.666177 
L 704.31875 240.666177 
z
" clip-path="url(#p06f666a90e)" style="fill: #1f77b4"/>
   </g>
   <g id="patch_29">
    <path d="M 907.77375 240.86 
L 1009.50125 240.86 
L 1009.50125 239.503242 
L 907.77375 239.503242 
z
" clip-path="url(#p06f666a90e)" style="fill: #1f77b4"/>
   </g>
   <g id="patch_30">
    <path d="M 93.95375 240.86 
L 195.68125 240.86 
L 195.68125 240.472355 
L 93.95375 240.472355 
z
" clip-path="url(#p06f666a90e)" style="fill: #1f77b4"/>
   </g>
   <g id="patch_31">
    <path d="M 297.40875 240.86 
L 399.13625 240.86 
L 399.13625 240.472355 
L 297.40875 240.472355 
z
" clip-path="url(#p06f666a90e)" style="fill: #1f77b4"/>
   </g>
   <g id="patch_32">
    <path d="M 500.86375 240.86 
L 602.59125 240.86 
L 602.59125 240.472355 
L 500.86375 240.472355 
z
" clip-path="url(#p06f666a90e)" style="fill: #1f77b4"/>
   </g>
   <g id="patch_33">
    <path d="M 704.31875 240.86 
L 806.04625 240.86 
L 806.04625 240.472355 
L 704.31875 240.472355 
z
" clip-path="url(#p06f666a90e)" style="fill: #1f77b4"/>
   </g>
   <g id="patch_34">
    <path d="M 907.77375 240.86 
L 1009.50125 240.86 
L 1009.50125 240.472355 
L 907.77375 240.472355 
z
" clip-path="url(#p06f666a90e)" style="fill: #1f77b4"/>
   </g>
   <g id="patch_35">
    <path d="M 93.95375 240.86 
L 195.68125 240.86 
L 195.68125 240.278532 
L 93.95375 240.278532 
z
" clip-path="url(#p06f666a90e)" style="fill: #1f77b4"/>
   </g>
   <g id="patch_36">
    <path d="M 297.40875 240.86 
L 399.13625 240.86 
L 399.13625 240.375444 
L 297.40875 240.375444 
z
" clip-path="url(#p06f666a90e)" style="fill: #1f77b4"/>
   </g>
   <g id="patch_37">
    <path d="M 500.86375 240.86 
L 602.59125 240.86 
L 602.59125 240.666177 
L 500.86375 240.666177 
z
" clip-path="url(#p06f666a90e)" style="fill: #1f77b4"/>
   </g>
   <g id="patch_38">
    <path d="M 704.31875 240.86 
L 806.04625 240.86 
L 806.04625 240.763089 
L 704.31875 240.763089 
z
" clip-path="url(#p06f666a90e)" style="fill: #1f77b4"/>
   </g>
   <g id="patch_39">
    <path d="M 907.77375 240.86 
L 1009.50125 240.86 
L 1009.50125 240.763089 
L 907.77375 240.763089 
z
" clip-path="url(#p06f666a90e)" style="fill: #1f77b4"/>
   </g>
   <g id="patch_40">
    <path d="M 93.95375 240.86 
L 195.68125 240.86 
L 195.68125 240.278532 
L 93.95375 240.278532 
z
" clip-path="url(#p06f666a90e)" style="fill: #1f77b4"/>
   </g>
   <g id="patch_41">
    <path d="M 297.40875 240.86 
L 399.13625 240.86 
L 399.13625 240.86 
L 297.40875 240.86 
z
" clip-path="url(#p06f666a90e)" style="fill: #1f77b4"/>
   </g>
   <g id="patch_42">
    <path d="M 500.86375 240.86 
L 602.59125 240.86 
L 602.59125 240.86 
L 500.86375 240.86 
z
" clip-path="url(#p06f666a90e)" style="fill: #1f77b4"/>
   </g>
   <g id="patch_43">
    <path d="M 93.95375 240.86 
L 195.68125 240.86 
L 195.68125 240.278532 
L 93.95375 240.278532 
z
" clip-path="url(#p06f666a90e)" style="fill: #1f77b4"/>
   </g>
   <g id="patch_44">
    <path d="M 297.40875 240.86 
L 399.13625 240.86 
L 399.13625 240.666177 
L 297.40875 240.666177 
z
" clip-path="url(#p06f666a90e)" style="fill: #1f77b4"/>
   </g>
   <g id="patch_45">
    <path d="M 93.95375 240.86 
L 195.68125 240.86 
L 195.68125 27.147524 
L 93.95375 27.147524 
z
" clip-path="url(#p06f666a90e)" style="fill: #1f77b4"/>
   </g>
   <g id="patch_46">
    <path d="M 297.40875 240.86 
L 399.13625 240.86 
L 399.13625 87.299688 
L 297.40875 87.299688 
z
" clip-path="url(#p06f666a90e)" style="fill: #1f77b4"/>
   </g>
   <g id="patch_47">
    <path d="M 500.86375 240.86 
L 602.59125 240.86 
L 602.59125 107.390641 
L 500.86375 107.390641 
z
" clip-path="url(#p06f666a90e)" style="fill: #1f77b4"/>
   </g>
   <g id="patch_48">
    <path d="M 704.31875 240.86 
L 806.04625 240.86 
L 806.04625 87.833061 
L 704.31875 87.833061 
z
" clip-path="url(#p06f666a90e)" style="fill: #1f77b4"/>
   </g>
   <g id="patch_49">
    <path d="M 907.77375 240.86 
L 1009.50125 240.86 
L 1009.50125 128.310204 
L 907.77375 128.310204 
z
" clip-path="url(#p06f666a90e)" style="fill: #1f77b4"/>
   </g>
   <g id="patch_50">
    <path d="M 93.95375 240.86 
L 195.68125 240.86 
L 195.68125 240.86 
L 93.95375 240.86 
z
" clip-path="url(#p06f666a90e)" style="fill: #1f77b4"/>
   </g>
   <g id="patch_51">
    <path d="M 297.40875 240.86 
L 399.13625 240.86 
L 399.13625 240.86 
L 297.40875 240.86 
z
" clip-path="url(#p06f666a90e)" style="fill: #1f77b4"/>
   </g>
   <g id="patch_52">
    <path d="M 500.86375 240.86 
L 602.59125 240.86 
L 602.59125 240.86 
L 500.86375 240.86 
z
" clip-path="url(#p06f666a90e)" style="fill: #1f77b4"/>
   </g>
   <g id="patch_53">
    <path d="M 704.31875 240.86 
L 806.04625 240.86 
L 806.04625 240.86 
L 704.31875 240.86 
z
" clip-path="url(#p06f666a90e)" style="fill: #1f77b4"/>
   </g>
   <g id="patch_54">
    <path d="M 907.77375 240.86 
L 1009.50125 240.86 
L 1009.50125 240.86 
L 907.77375 240.86 
z
" clip-path="url(#p06f666a90e)" style="fill: #1f77b4"/>
   </g>
   <g id="patch_55">
    <path d="M 93.95375 240.86 
L 195.68125 240.86 
L 195.68125 240.666177 
L 93.95375 240.666177 
z
" clip-path="url(#p06f666a90e)" style="fill: #1f77b4"/>
   </g>
   <g id="patch_56">
    <path d="M 297.40875 240.86 
L 399.13625 240.86 
L 399.13625 240.86 
L 297.40875 240.86 
z
" clip-path="url(#p06f666a90e)" style="fill: #1f77b4"/>
   </g>
   <g id="patch_57">
    <path d="M 500.86375 240.86 
L 602.59125 240.86 
L 602.59125 240.86 
L 500.86375 240.86 
z
" clip-path="url(#p06f666a90e)" style="fill: #1f77b4"/>
   </g>
   <g id="patch_58">
    <path d="M 704.31875 240.86 
L 806.04625 240.86 
L 806.04625 240.86 
L 704.31875 240.86 
z
" clip-path="url(#p06f666a90e)" style="fill: #1f77b4"/>
   </g>
   <g id="patch_59">
    <path d="M 907.77375 240.86 
L 1009.50125 240.86 
L 1009.50125 240.86 
L 907.77375 240.86 
z
" clip-path="url(#p06f666a90e)" style="fill: #1f77b4"/>
   </g>
   <g id="patch_60">
    <path d="M 93.95375 240.86 
L 195.68125 240.86 
L 195.68125 239.793976 
L 93.95375 239.793976 
z
" clip-path="url(#p06f666a90e)" style="fill: #1f77b4"/>
   </g>
   <g id="patch_61">
    <path d="M 297.40875 240.86 
L 399.13625 240.86 
L 399.13625 240.278532 
L 297.40875 240.278532 
z
" clip-path="url(#p06f666a90e)" style="fill: #1f77b4"/>
   </g>
   <g id="patch_62">
    <path d="M 500.86375 240.86 
L 602.59125 240.86 
L 602.59125 240.763089 
L 500.86375 240.763089 
z
" clip-path="url(#p06f666a90e)" style="fill: #1f77b4"/>
   </g>
   <g id="patch_63">
    <path d="M 704.31875 240.86 
L 806.04625 240.86 
L 806.04625 240.86 
L 704.31875 240.86 
z
" clip-path="url(#p06f666a90e)" style="fill: #1f77b4"/>
   </g>
   <g id="patch_64">
    <path d="M 907.77375 240.86 
L 1009.50125 240.86 
L 1009.50125 240.86 
L 907.77375 240.86 
z
" clip-path="url(#p06f666a90e)" style="fill: #1f77b4"/>
   </g>
   <g id="patch_65">
    <path d="M 93.95375 240.86 
L 195.68125 240.86 
L 195.68125 219.442605 
L 93.95375 219.442605 
z
" clip-path="url(#p06f666a90e)" style="fill: #1f77b4"/>
   </g>
   <g id="patch_66">
    <path d="M 297.40875 240.86 
L 399.13625 240.86 
L 399.13625 238.921774 
L 297.40875 238.921774 
z
" clip-path="url(#p06f666a90e)" style="fill: #1f77b4"/>
   </g>
   <g id="patch_67">
    <path d="M 500.86375 240.86 
L 602.59125 240.86 
L 602.59125 229.166038 
L 500.86375 229.166038 
z
" clip-path="url(#p06f666a90e)" style="fill: #1f77b4"/>
   </g>
   <g id="patch_68">
    <path d="M 704.31875 240.86 
L 806.04625 240.86 
L 806.04625 226.129484 
L 704.31875 226.129484 
z
" clip-path="url(#p06f666a90e)" style="fill: #1f77b4"/>
   </g>
   <g id="patch_69">
    <path d="M 907.77375 240.86 
L 1009.50125 240.86 
L 1009.50125 228.939911 
L 907.77375 228.939911 
z
" clip-path="url(#p06f666a90e)" style="fill: #1f77b4"/>
   </g>
   <g id="patch_70">
    <path d="M 93.95375 240.86 
L 195.68125 240.86 
L 195.68125 176.357865 
L 93.95375 176.357865 
z
" clip-path="url(#p06f666a90e)" style="fill: #1f77b4"/>
   </g>
   <g id="patch_71">
    <path d="M 297.40875 240.86 
L 399.13625 240.86 
L 399.13625 185.613972 
L 297.40875 185.613972 
z
" clip-path="url(#p06f666a90e)" style="fill: #1f77b4"/>
   </g>
   <g id="patch_72">
    <path d="M 500.86375 240.86 
L 602.59125 240.86 
L 602.59125 106.694197 
L 500.86375 106.694197 
z
" clip-path="url(#p06f666a90e)" style="fill: #1f77b4"/>
   </g>
   <g id="patch_73">
    <path d="M 704.31875 240.86 
L 806.04625 240.86 
L 806.04625 159.955229 
L 704.31875 159.955229 
z
" clip-path="url(#p06f666a90e)" style="fill: #1f77b4"/>
   </g>
   <g id="patch_74">
    <path d="M 907.77375 240.86 
L 1009.50125 240.86 
L 1009.50125 105.810849 
L 907.77375 105.810849 
z
" clip-path="url(#p06f666a90e)" style="fill: #1f77b4"/>
   </g>
   <g id="patch_75">
    <path d="M 93.95375 240.86 
L 195.68125 240.86 
L 195.68125 240.86 
L 93.95375 240.86 
z
" clip-path="url(#p06f666a90e)" style="fill: #1f77b4"/>
   </g>
   <g id="patch_76">
    <path d="M 297.40875 240.86 
L 399.13625 240.86 
L 399.13625 240.86 
L 297.40875 240.86 
z
" clip-path="url(#p06f666a90e)" style="fill: #1f77b4"/>
   </g>
   <g id="patch_77">
    <path d="M 93.95375 240.86 
L 195.68125 240.86 
L 195.68125 238.437218 
L 93.95375 238.437218 
z
" clip-path="url(#p06f666a90e)" style="fill: #1f77b4"/>
   </g>
   <g id="patch_78">
    <path d="M 297.40875 240.86 
L 399.13625 240.86 
L 399.13625 238.921774 
L 297.40875 238.921774 
z
" clip-path="url(#p06f666a90e)" style="fill: #1f77b4"/>
   </g>
   <g id="patch_79">
    <path d="M 500.86375 240.86 
L 602.59125 240.86 
L 602.59125 239.697065 
L 500.86375 239.697065 
z
" clip-path="url(#p06f666a90e)" style="fill: #1f77b4"/>
   </g>
   <g id="patch_80">
    <path d="M 704.31875 240.86 
L 806.04625 240.86 
L 806.04625 240.666177 
L 704.31875 240.666177 
z
" clip-path="url(#p06f666a90e)" style="fill: #1f77b4"/>
   </g>
   <g id="patch_81">
    <path d="M 907.77375 240.86 
L 1009.50125 240.86 
L 1009.50125 240.472355 
L 907.77375 240.472355 
z
" clip-path="url(#p06f666a90e)" style="fill: #1f77b4"/>
   </g>
   <g id="patch_82">
    <path d="M 93.95375 240.86 
L 195.68125 240.86 
L 195.68125 240.278532 
L 93.95375 240.278532 
z
" clip-path="url(#p06f666a90e)" style="fill: #1f77b4"/>
   </g>
   <g id="patch_83">
    <path d="M 297.40875 240.86 
L 399.13625 240.86 
L 399.13625 240.278532 
L 297.40875 240.278532 
z
" clip-path="url(#p06f666a90e)" style="fill: #1f77b4"/>
   </g>
   <g id="patch_84">
    <path d="M 500.86375 240.86 
L 602.59125 240.86 
L 602.59125 240.666177 
L 500.86375 240.666177 
z
" clip-path="url(#p06f666a90e)" style="fill: #1f77b4"/>
   </g>
   <g id="patch_85">
    <path d="M 704.31875 240.86 
L 806.04625 240.86 
L 806.04625 240.86 
L 704.31875 240.86 
z
" clip-path="url(#p06f666a90e)" style="fill: #1f77b4"/>
   </g>
   <g id="patch_86">
    <path d="M 907.77375 240.86 
L 1009.50125 240.86 
L 1009.50125 240.86 
L 907.77375 240.86 
z
" clip-path="url(#p06f666a90e)" style="fill: #1f77b4"/>
   </g>
   <g id="patch_87">
    <path d="M 93.95375 240.86 
L 195.68125 240.86 
L 195.68125 236.789726 
L 93.95375 236.789726 
z
" clip-path="url(#p06f666a90e)" style="fill: #1f77b4"/>
   </g>
   <g id="patch_88">
    <path d="M 297.40875 240.86 
L 399.13625 240.86 
L 399.13625 240.763089 
L 297.40875 240.763089 
z
" clip-path="url(#p06f666a90e)" style="fill: #1f77b4"/>
   </g>
   <g id="patch_89">
    <path d="M 500.86375 240.86 
L 602.59125 240.86 
L 602.59125 240.763089 
L 500.86375 240.763089 
z
" clip-path="url(#p06f666a90e)" style="fill: #1f77b4"/>
   </g>
   <g id="patch_90">
    <path d="M 704.31875 240.86 
L 806.04625 240.86 
L 806.04625 240.763089 
L 704.31875 240.763089 
z
" clip-path="url(#p06f666a90e)" style="fill: #1f77b4"/>
   </g>
   <g id="patch_91">
    <path d="M 907.77375 240.86 
L 1009.50125 240.86 
L 1009.50125 240.763089 
L 907.77375 240.763089 
z
" clip-path="url(#p06f666a90e)" style="fill: #1f77b4"/>
   </g>
   <g id="patch_92">
    <path d="M 93.95375 240.86 
L 195.68125 240.86 
L 195.68125 240.86 
L 93.95375 240.86 
z
" clip-path="url(#p06f666a90e)" style="fill: #1f77b4"/>
   </g>
   <g id="patch_93">
    <path d="M 93.95375 240.86 
L 195.68125 240.86 
L 195.68125 239.890887 
L 93.95375 239.890887 
z
" clip-path="url(#p06f666a90e)" style="fill: #1f77b4"/>
   </g>
   <g id="patch_94">
    <path d="M 297.40875 240.86 
L 399.13625 240.86 
L 399.13625 239.890887 
L 297.40875 239.890887 
z
" clip-path="url(#p06f666a90e)" style="fill: #1f77b4"/>
   </g>
   <g id="patch_95">
    <path d="M 500.86375 240.86 
L 602.59125 240.86 
L 602.59125 240.666177 
L 500.86375 240.666177 
z
" clip-path="url(#p06f666a90e)" style="fill: #1f77b4"/>
   </g>
   <g id="patch_96">
    <path d="M 93.95375 240.86 
L 195.68125 240.86 
L 195.68125 236.789726 
L 93.95375 236.789726 
z
" clip-path="url(#p06f666a90e)" style="fill: #1f77b4"/>
   </g>
   <g id="patch_97">
    <path d="M 297.40875 240.86 
L 399.13625 240.86 
L 399.13625 240.666177 
L 297.40875 240.666177 
z
" clip-path="url(#p06f666a90e)" style="fill: #1f77b4"/>
   </g>
   <g id="patch_98">
    <path d="M 500.86375 240.86 
L 602.59125 240.86 
L 602.59125 240.666177 
L 500.86375 240.666177 
z
" clip-path="url(#p06f666a90e)" style="fill: #1f77b4"/>
   </g>
   <g id="patch_99">
    <path d="M 704.31875 240.86 
L 806.04625 240.86 
L 806.04625 240.86 
L 704.31875 240.86 
z
" clip-path="url(#p06f666a90e)" style="fill: #1f77b4"/>
   </g>
   <g id="patch_100">
    <path d="M 907.77375 240.86 
L 1009.50125 240.86 
L 1009.50125 240.86 
L 907.77375 240.86 
z
" clip-path="url(#p06f666a90e)" style="fill: #1f77b4"/>
   </g>
   <g id="patch_101">
    <path d="M 93.95375 240.86 
L 195.68125 240.86 
L 195.68125 240.86 
L 93.95375 240.86 
z
" clip-path="url(#p06f666a90e)" style="fill: #1f77b4"/>
   </g>
   <g id="patch_102">
    <path d="M 93.95375 240.86 
L 195.68125 240.86 
L 195.68125 21.755238 
L 93.95375 21.755238 
z
" clip-path="url(#p06f666a90e)" style="fill: #1f77b4"/>
   </g>
   <g id="patch_103">
    <path d="M 297.40875 240.86 
L 399.13625 240.86 
L 399.13625 69.965776 
L 297.40875 69.965776 
z
" clip-path="url(#p06f666a90e)" style="fill: #1f77b4"/>
   </g>
   <g id="patch_104">
    <path d="M 500.86375 240.86 
L 602.59125 240.86 
L 602.59125 102.570764 
L 500.86375 102.570764 
z
" clip-path="url(#p06f666a90e)" style="fill: #1f77b4"/>
   </g>
   <g id="patch_105">
    <path d="M 704.31875 240.86 
L 806.04625 240.86 
L 806.04625 127.6985 
L 704.31875 127.6985 
z
" clip-path="url(#p06f666a90e)" style="fill: #1f77b4"/>
   </g>
   <g id="patch_106">
    <path d="M 907.77375 240.86 
L 1009.50125 240.86 
L 1009.50125 145.622492 
L 907.77375 145.622492 
z
" clip-path="url(#p06f666a90e)" style="fill: #1f77b4"/>
   </g>
   <g id="patch_107">
    <path d="M 93.95375 240.86 
L 195.68125 240.86 
L 195.68125 239.890887 
L 93.95375 239.890887 
z
" clip-path="url(#p06f666a90e)" style="fill: #1f77b4"/>
   </g>
   <g id="patch_108">
    <path d="M 297.40875 240.86 
L 399.13625 240.86 
L 399.13625 239.890887 
L 297.40875 239.890887 
z
" clip-path="url(#p06f666a90e)" style="fill: #1f77b4"/>
   </g>
   <g id="patch_109">
    <path d="M 500.86375 240.86 
L 602.59125 240.86 
L 602.59125 239.890887 
L 500.86375 239.890887 
z
" clip-path="url(#p06f666a90e)" style="fill: #1f77b4"/>
   </g>
   <g id="patch_110">
    <path d="M 704.31875 240.86 
L 806.04625 240.86 
L 806.04625 240.763089 
L 704.31875 240.763089 
z
" clip-path="url(#p06f666a90e)" style="fill: #1f77b4"/>
   </g>
   <g id="patch_111">
    <path d="M 907.77375 240.86 
L 1009.50125 240.86 
L 1009.50125 240.763089 
L 907.77375 240.763089 
z
" clip-path="url(#p06f666a90e)" style="fill: #1f77b4"/>
   </g>
   <g id="patch_112">
    <path d="M 93.95375 240.86 
L 195.68125 240.86 
L 195.68125 126.417983 
L 93.95375 126.417983 
z
" clip-path="url(#p06f666a90e)" style="fill: #1f77b4"/>
   </g>
   <g id="patch_113">
    <path d="M 297.40875 240.86 
L 399.13625 240.86 
L 399.13625 126.641081 
L 297.40875 126.641081 
z
" clip-path="url(#p06f666a90e)" style="fill: #1f77b4"/>
   </g>
   <g id="patch_114">
    <path d="M 500.86375 240.86 
L 602.59125 240.86 
L 602.59125 165.66531 
L 500.86375 165.66531 
z
" clip-path="url(#p06f666a90e)" style="fill: #1f77b4"/>
   </g>
   <g id="patch_115">
    <path d="M 704.31875 240.86 
L 806.04625 240.86 
L 806.04625 162.284192 
L 704.31875 162.284192 
z
" clip-path="url(#p06f666a90e)" style="fill: #1f77b4"/>
   </g>
   <g id="patch_116">
    <path d="M 907.77375 240.86 
L 1009.50125 240.86 
L 1009.50125 125.597894 
L 907.77375 125.597894 
z
" clip-path="url(#p06f666a90e)" style="fill: #1f77b4"/>
   </g>
   <g id="patch_117">
    <path d="M 93.95375 240.86 
L 195.68125 240.86 
L 195.68125 239.697065 
L 93.95375 239.697065 
z
" clip-path="url(#p06f666a90e)" style="fill: #1f77b4"/>
   </g>
   <g id="patch_118">
    <path d="M 297.40875 240.86 
L 399.13625 240.86 
L 399.13625 239.890887 
L 297.40875 239.890887 
z
" clip-path="url(#p06f666a90e)" style="fill: #1f77b4"/>
   </g>
   <g id="patch_119">
    <path d="M 500.86375 240.86 
L 602.59125 240.86 
L 602.59125 240.278532 
L 500.86375 240.278532 
z
" clip-path="url(#p06f666a90e)" style="fill: #1f77b4"/>
   </g>
   <g id="patch_120">
    <path d="M 704.31875 240.86 
L 806.04625 240.86 
L 806.04625 240.472355 
L 704.31875 240.472355 
z
" clip-path="url(#p06f666a90e)" style="fill: #1f77b4"/>
   </g>
   <g id="patch_121">
    <path d="M 907.77375 240.86 
L 1009.50125 240.86 
L 1009.50125 240.763089 
L 907.77375 240.763089 
z
" clip-path="url(#p06f666a90e)" style="fill: #1f77b4"/>
   </g>
   <g id="patch_122">
    <path d="M 93.95375 240.86 
L 195.68125 240.86 
L 195.68125 240.278532 
L 93.95375 240.278532 
z
" clip-path="url(#p06f666a90e)" style="fill: #1f77b4"/>
   </g>
   <g id="patch_123">
    <path d="M 297.40875 240.86 
L 399.13625 240.86 
L 399.13625 240.763089 
L 297.40875 240.763089 
z
" clip-path="url(#p06f666a90e)" style="fill: #1f77b4"/>
   </g>
   <g id="patch_124">
    <path d="M 500.86375 240.86 
L 602.59125 240.86 
L 602.59125 240.763089 
L 500.86375 240.763089 
z
" clip-path="url(#p06f666a90e)" style="fill: #1f77b4"/>
   </g>
   <g id="patch_125">
    <path d="M 704.31875 240.86 
L 806.04625 240.86 
L 806.04625 240.666177 
L 704.31875 240.666177 
z
" clip-path="url(#p06f666a90e)" style="fill: #1f77b4"/>
   </g>
   <g id="patch_126">
    <path d="M 907.77375 240.86 
L 1009.50125 240.86 
L 1009.50125 240.86 
L 907.77375 240.86 
z
" clip-path="url(#p06f666a90e)" style="fill: #1f77b4"/>
   </g>
   <g id="patch_127">
    <path d="M 93.95375 240.86 
L 195.68125 240.86 
L 195.68125 240.278532 
L 93.95375 240.278532 
z
" clip-path="url(#p06f666a90e)" style="fill: #1f77b4"/>
   </g>
   <g id="patch_128">
    <path d="M 297.40875 240.86 
L 399.13625 240.86 
L 399.13625 240.666177 
L 297.40875 240.666177 
z
" clip-path="url(#p06f666a90e)" style="fill: #1f77b4"/>
   </g>
   <g id="patch_129">
    <path d="M 500.86375 240.86 
L 602.59125 240.86 
L 602.59125 240.86 
L 500.86375 240.86 
z
" clip-path="url(#p06f666a90e)" style="fill: #1f77b4"/>
   </g>
   <g id="patch_130">
    <path d="M 704.31875 240.86 
L 806.04625 240.86 
L 806.04625 240.86 
L 704.31875 240.86 
z
" clip-path="url(#p06f666a90e)" style="fill: #1f77b4"/>
   </g>
   <g id="patch_131">
    <path d="M 907.77375 240.86 
L 1009.50125 240.86 
L 1009.50125 240.86 
L 907.77375 240.86 
z
" clip-path="url(#p06f666a90e)" style="fill: #1f77b4"/>
   </g>
   <g id="patch_132">
    <path d="M 93.95375 240.86 
L 195.68125 240.86 
L 195.68125 235.746314 
L 93.95375 235.746314 
z
" clip-path="url(#p06f666a90e)" style="fill: #1f77b4"/>
   </g>
   <g id="patch_133">
    <path d="M 297.40875 240.86 
L 399.13625 240.86 
L 399.13625 239.697065 
L 297.40875 239.697065 
z
" clip-path="url(#p06f666a90e)" style="fill: #1f77b4"/>
   </g>
   <g id="patch_134">
    <path d="M 500.86375 240.86 
L 602.59125 240.86 
L 602.59125 238.101259 
L 500.86375 238.101259 
z
" clip-path="url(#p06f666a90e)" style="fill: #1f77b4"/>
   </g>
   <g id="patch_135">
    <path d="M 704.31875 240.86 
L 806.04625 240.86 
L 806.04625 238.101259 
L 704.31875 238.101259 
z
" clip-path="url(#p06f666a90e)" style="fill: #1f77b4"/>
   </g>
   <g id="patch_136">
    <path d="M 907.77375 240.86 
L 1009.50125 240.86 
L 1009.50125 238.101259 
L 907.77375 238.101259 
z
" clip-path="url(#p06f666a90e)" style="fill: #1f77b4"/>
   </g>
   <g id="patch_137">
    <path d="M 93.95375 240.86 
L 195.68125 240.86 
L 195.68125 201.319116 
L 93.95375 201.319116 
z
" clip-path="url(#p06f666a90e)" style="fill: #1f77b4"/>
   </g>
   <g id="patch_138">
    <path d="M 297.40875 240.86 
L 399.13625 240.86 
L 399.13625 208.746828 
L 297.40875 208.746828 
z
" clip-path="url(#p06f666a90e)" style="fill: #1f77b4"/>
   </g>
   <g id="patch_139">
    <path d="M 500.86375 240.86 
L 602.59125 240.86 
L 602.59125 235.400664 
L 500.86375 235.400664 
z
" clip-path="url(#p06f666a90e)" style="fill: #1f77b4"/>
   </g>
   <g id="patch_140">
    <path d="M 704.31875 240.86 
L 806.04625 240.86 
L 806.04625 240.133165 
L 704.31875 240.133165 
z
" clip-path="url(#p06f666a90e)" style="fill: #1f77b4"/>
   </g>
   <g id="patch_141">
    <path d="M 907.77375 240.86 
L 1009.50125 240.86 
L 1009.50125 240.133165 
L 907.77375 240.133165 
z
" clip-path="url(#p06f666a90e)" style="fill: #1f77b4"/>
   </g>
   <g id="patch_142">
    <path d="M 93.95375 240.86 
L 195.68125 240.86 
L 195.68125 236.547448 
L 93.95375 236.547448 
z
" clip-path="url(#p06f666a90e)" style="fill: #1f77b4"/>
   </g>
   <g id="patch_143">
    <path d="M 297.40875 240.86 
L 399.13625 240.86 
L 399.13625 238.049573 
L 297.40875 238.049573 
z
" clip-path="url(#p06f666a90e)" style="fill: #1f77b4"/>
   </g>
   <g id="patch_144">
    <path d="M 500.86375 240.86 
L 602.59125 240.86 
L 602.59125 240.278532 
L 500.86375 240.278532 
z
" clip-path="url(#p06f666a90e)" style="fill: #1f77b4"/>
   </g>
   <g id="patch_145">
    <path d="M 704.31875 240.86 
L 806.04625 240.86 
L 806.04625 240.43359 
L 704.31875 240.43359 
z
" clip-path="url(#p06f666a90e)" style="fill: #1f77b4"/>
   </g>
   <g id="patch_146">
    <path d="M 907.77375 240.86 
L 1009.50125 240.86 
L 1009.50125 239.890887 
L 907.77375 239.890887 
z
" clip-path="url(#p06f666a90e)" style="fill: #1f77b4"/>
   </g>
   <g id="patch_147">
    <path d="M 93.95375 240.86 
L 195.68125 240.86 
L 195.68125 240.450819 
L 93.95375 240.450819 
z
" clip-path="url(#p06f666a90e)" style="fill: #1f77b4"/>
   </g>
   <g id="patch_148">
    <path d="M 297.40875 240.86 
L 399.13625 240.86 
L 399.13625 240.763089 
L 297.40875 240.763089 
z
" clip-path="url(#p06f666a90e)" style="fill: #1f77b4"/>
   </g>
   <g id="patch_149">
    <path d="M 500.86375 240.86 
L 602.59125 240.86 
L 602.59125 240.763089 
L 500.86375 240.763089 
z
" clip-path="url(#p06f666a90e)" style="fill: #1f77b4"/>
   </g>
   <g id="patch_150">
    <path d="M 704.31875 240.86 
L 806.04625 240.86 
L 806.04625 240.838464 
L 704.31875 240.838464 
z
" clip-path="url(#p06f666a90e)" style="fill: #1f77b4"/>
   </g>
   <g id="patch_151">
    <path d="M 907.77375 240.86 
L 1009.50125 240.86 
L 1009.50125 240.838464 
L 907.77375 240.838464 
z
" clip-path="url(#p06f666a90e)" style="fill: #1f77b4"/>
   </g>
   <g id="patch_152">
    <path d="M 93.95375 240.86 
L 195.68125 240.86 
L 195.68125 240.020102 
L 93.95375 240.020102 
z
" clip-path="url(#p06f666a90e)" style="fill: #1f77b4"/>
   </g>
   <g id="patch_153">
    <path d="M 297.40875 240.86 
L 399.13625 240.86 
L 399.13625 240.407747 
L 297.40875 240.407747 
z
" clip-path="url(#p06f666a90e)" style="fill: #1f77b4"/>
   </g>
   <g id="patch_154">
    <path d="M 500.86375 240.86 
L 602.59125 240.86 
L 602.59125 240.278532 
L 500.86375 240.278532 
z
" clip-path="url(#p06f666a90e)" style="fill: #1f77b4"/>
   </g>
   <g id="patch_155">
    <path d="M 704.31875 240.86 
L 806.04625 240.86 
L 806.04625 240.08471 
L 704.31875 240.08471 
z
" clip-path="url(#p06f666a90e)" style="fill: #1f77b4"/>
   </g>
   <g id="patch_156">
    <path d="M 907.77375 240.86 
L 1009.50125 240.86 
L 1009.50125 240.666177 
L 907.77375 240.666177 
z
" clip-path="url(#p06f666a90e)" style="fill: #1f77b4"/>
   </g>
   <g id="patch_157">
    <path d="M 93.95375 240.86 
L 195.68125 240.86 
L 195.68125 240.86 
L 93.95375 240.86 
z
" clip-path="url(#p06f666a90e)" style="fill: #1f77b4"/>
   </g>
   <g id="patch_158">
    <path d="M 297.40875 240.86 
L 399.13625 240.86 
L 399.13625 240.86 
L 297.40875 240.86 
z
" clip-path="url(#p06f666a90e)" style="fill: #1f77b4"/>
   </g>
   <g id="patch_159">
    <path d="M 500.86375 240.86 
L 602.59125 240.86 
L 602.59125 240.86 
L 500.86375 240.86 
z
" clip-path="url(#p06f666a90e)" style="fill: #1f77b4"/>
   </g>
   <g id="patch_160">
    <path d="M 704.31875 240.86 
L 806.04625 240.86 
L 806.04625 240.86 
L 704.31875 240.86 
z
" clip-path="url(#p06f666a90e)" style="fill: #1f77b4"/>
   </g>
   <g id="patch_161">
    <path d="M 93.95375 240.86 
L 195.68125 240.86 
L 195.68125 240.86 
L 93.95375 240.86 
z
" clip-path="url(#p06f666a90e)" style="fill: #1f77b4"/>
   </g>
   <g id="patch_162">
    <path d="M 297.40875 240.86 
L 399.13625 240.86 
L 399.13625 240.86 
L 297.40875 240.86 
z
" clip-path="url(#p06f666a90e)" style="fill: #1f77b4"/>
   </g>
   <g id="patch_163">
    <path d="M 500.86375 240.86 
L 602.59125 240.86 
L 602.59125 240.86 
L 500.86375 240.86 
z
" clip-path="url(#p06f666a90e)" style="fill: #1f77b4"/>
   </g>
   <g id="patch_164">
    <path d="M 93.95375 240.86 
L 195.68125 240.86 
L 195.68125 240.86 
L 93.95375 240.86 
z
" clip-path="url(#p06f666a90e)" style="fill: #1f77b4"/>
   </g>
   <g id="patch_165">
    <path d="M 297.40875 240.86 
L 399.13625 240.86 
L 399.13625 240.86 
L 297.40875 240.86 
z
" clip-path="url(#p06f666a90e)" style="fill: #1f77b4"/>
   </g>
   <g id="patch_166">
    <path d="M 500.86375 240.86 
L 602.59125 240.86 
L 602.59125 240.86 
L 500.86375 240.86 
z
" clip-path="url(#p06f666a90e)" style="fill: #1f77b4"/>
   </g>
   <g id="patch_167">
    <path d="M 704.31875 240.86 
L 806.04625 240.86 
L 806.04625 240.86 
L 704.31875 240.86 
z
" clip-path="url(#p06f666a90e)" style="fill: #1f77b4"/>
   </g>
   <g id="patch_168">
    <path d="M 93.95375 240.86 
L 195.68125 240.86 
L 195.68125 240.86 
L 93.95375 240.86 
z
" clip-path="url(#p06f666a90e)" style="fill: #1f77b4"/>
   </g>
   <g id="patch_169">
    <path d="M 297.40875 240.86 
L 399.13625 240.86 
L 399.13625 240.86 
L 297.40875 240.86 
z
" clip-path="url(#p06f666a90e)" style="fill: #1f77b4"/>
   </g>
   <g id="matplotlib.axis_1">
    <g id="xtick_1">
     <g id="line2d_1">
      <defs>
       <path id="m25972f22c3" d="M 0 0 
L 0 3.5 
" style="stroke: #000000; stroke-width: 0.8"/>
      </defs>
      <g>
       <use xlink:href="#m25972f22c3" x="144.8175" y="240.86" style="stroke: #000000; stroke-width: 0.8"/>
      </g>
     </g>
     <g id="text_1">
      <!-- Mickey Rourke -->
      <g transform="translate(147.576875 320.089687) rotate(-90) scale(0.1 -0.1)">
       <defs>
        <path id="DejaVuSans-4d" d="M 628 4666 
L 1569 4666 
L 2759 1491 
L 3956 4666 
L 4897 4666 
L 4897 0 
L 4281 0 
L 4281 4097 
L 3078 897 
L 2444 897 
L 1241 4097 
L 1241 0 
L 628 0 
L 628 4666 
z
" transform="scale(0.015625)"/>
        <path id="DejaVuSans-69" d="M 603 3500 
L 1178 3500 
L 1178 0 
L 603 0 
L 603 3500 
z
M 603 4863 
L 1178 4863 
L 1178 4134 
L 603 4134 
L 603 4863 
z
" transform="scale(0.015625)"/>
        <path id="DejaVuSans-63" d="M 3122 3366 
L 3122 2828 
Q 2878 2963 2633 3030 
Q 2388 3097 2138 3097 
Q 1578 3097 1268 2742 
Q 959 2388 959 1747 
Q 959 1106 1268 751 
Q 1578 397 2138 397 
Q 2388 397 2633 464 
Q 2878 531 3122 666 
L 3122 134 
Q 2881 22 2623 -34 
Q 2366 -91 2075 -91 
Q 1284 -91 818 406 
Q 353 903 353 1747 
Q 353 2603 823 3093 
Q 1294 3584 2113 3584 
Q 2378 3584 2631 3529 
Q 2884 3475 3122 3366 
z
" transform="scale(0.015625)"/>
        <path id="DejaVuSans-6b" d="M 581 4863 
L 1159 4863 
L 1159 1991 
L 2875 3500 
L 3609 3500 
L 1753 1863 
L 3688 0 
L 2938 0 
L 1159 1709 
L 1159 0 
L 581 0 
L 581 4863 
z
" transform="scale(0.015625)"/>
        <path id="DejaVuSans-65" d="M 3597 1894 
L 3597 1613 
L 953 1613 
Q 991 1019 1311 708 
Q 1631 397 2203 397 
Q 2534 397 2845 478 
Q 3156 559 3463 722 
L 3463 178 
Q 3153 47 2828 -22 
Q 2503 -91 2169 -91 
Q 1331 -91 842 396 
Q 353 884 353 1716 
Q 353 2575 817 3079 
Q 1281 3584 2069 3584 
Q 2775 3584 3186 3129 
Q 3597 2675 3597 1894 
z
M 3022 2063 
Q 3016 2534 2758 2815 
Q 2500 3097 2075 3097 
Q 1594 3097 1305 2825 
Q 1016 2553 972 2059 
L 3022 2063 
z
" transform="scale(0.015625)"/>
        <path id="DejaVuSans-79" d="M 2059 -325 
Q 1816 -950 1584 -1140 
Q 1353 -1331 966 -1331 
L 506 -1331 
L 506 -850 
L 844 -850 
Q 1081 -850 1212 -737 
Q 1344 -625 1503 -206 
L 1606 56 
L 191 3500 
L 800 3500 
L 1894 763 
L 2988 3500 
L 3597 3500 
L 2059 -325 
z
" transform="scale(0.015625)"/>
        <path id="DejaVuSans-20" transform="scale(0.015625)"/>
        <path id="DejaVuSans-52" d="M 2841 2188 
Q 3044 2119 3236 1894 
Q 3428 1669 3622 1275 
L 4263 0 
L 3584 0 
L 2988 1197 
Q 2756 1666 2539 1819 
Q 2322 1972 1947 1972 
L 1259 1972 
L 1259 0 
L 628 0 
L 628 4666 
L 2053 4666 
Q 2853 4666 3247 4331 
Q 3641 3997 3641 3322 
Q 3641 2881 3436 2590 
Q 3231 2300 2841 2188 
z
M 1259 4147 
L 1259 2491 
L 2053 2491 
Q 2509 2491 2742 2702 
Q 2975 2913 2975 3322 
Q 2975 3731 2742 3939 
Q 2509 4147 2053 4147 
L 1259 4147 
z
" transform="scale(0.015625)"/>
        <path id="DejaVuSans-6f" d="M 1959 3097 
Q 1497 3097 1228 2736 
Q 959 2375 959 1747 
Q 959 1119 1226 758 
Q 1494 397 1959 397 
Q 2419 397 2687 759 
Q 2956 1122 2956 1747 
Q 2956 2369 2687 2733 
Q 2419 3097 1959 3097 
z
M 1959 3584 
Q 2709 3584 3137 3096 
Q 3566 2609 3566 1747 
Q 3566 888 3137 398 
Q 2709 -91 1959 -91 
Q 1206 -91 779 398 
Q 353 888 353 1747 
Q 353 2609 779 3096 
Q 1206 3584 1959 3584 
z
" transform="scale(0.015625)"/>
        <path id="DejaVuSans-75" d="M 544 1381 
L 544 3500 
L 1119 3500 
L 1119 1403 
Q 1119 906 1312 657 
Q 1506 409 1894 409 
Q 2359 409 2629 706 
Q 2900 1003 2900 1516 
L 2900 3500 
L 3475 3500 
L 3475 0 
L 2900 0 
L 2900 538 
Q 2691 219 2414 64 
Q 2138 -91 1772 -91 
Q 1169 -91 856 284 
Q 544 659 544 1381 
z
M 1991 3584 
L 1991 3584 
z
" transform="scale(0.015625)"/>
        <path id="DejaVuSans-72" d="M 2631 2963 
Q 2534 3019 2420 3045 
Q 2306 3072 2169 3072 
Q 1681 3072 1420 2755 
Q 1159 2438 1159 1844 
L 1159 0 
L 581 0 
L 581 3500 
L 1159 3500 
L 1159 2956 
Q 1341 3275 1631 3429 
Q 1922 3584 2338 3584 
Q 2397 3584 2469 3576 
Q 2541 3569 2628 3553 
L 2631 2963 
z
" transform="scale(0.015625)"/>
       </defs>
       <use xlink:href="#DejaVuSans-4d"/>
       <use xlink:href="#DejaVuSans-69" x="86.279297"/>
       <use xlink:href="#DejaVuSans-63" x="114.0625"/>
       <use xlink:href="#DejaVuSans-6b" x="169.042969"/>
       <use xlink:href="#DejaVuSans-65" x="223.328125"/>
       <use xlink:href="#DejaVuSans-79" x="284.851562"/>
       <use xlink:href="#DejaVuSans-20" x="344.03125"/>
       <use xlink:href="#DejaVuSans-52" x="375.818359"/>
       <use xlink:href="#DejaVuSans-6f" x="440.800781"/>
       <use xlink:href="#DejaVuSans-75" x="501.982422"/>
       <use xlink:href="#DejaVuSans-72" x="565.361328"/>
       <use xlink:href="#DejaVuSans-6b" x="606.474609"/>
       <use xlink:href="#DejaVuSans-65" x="660.759766"/>
      </g>
     </g>
    </g>
    <g id="xtick_2">
     <g id="line2d_2">
      <g>
       <use xlink:href="#m25972f22c3" x="348.2725" y="240.86" style="stroke: #000000; stroke-width: 0.8"/>
      </g>
     </g>
     <g id="text_2">
      <!-- Dermot Mulroney -->
      <g transform="translate(351.031875 334.764687) rotate(-90) scale(0.1 -0.1)">
       <defs>
        <path id="DejaVuSans-44" d="M 1259 4147 
L 1259 519 
L 2022 519 
Q 2988 519 3436 956 
Q 3884 1394 3884 2338 
Q 3884 3275 3436 3711 
Q 2988 4147 2022 4147 
L 1259 4147 
z
M 628 4666 
L 1925 4666 
Q 3281 4666 3915 4102 
Q 4550 3538 4550 2338 
Q 4550 1131 3912 565 
Q 3275 0 1925 0 
L 628 0 
L 628 4666 
z
" transform="scale(0.015625)"/>
        <path id="DejaVuSans-6d" d="M 3328 2828 
Q 3544 3216 3844 3400 
Q 4144 3584 4550 3584 
Q 5097 3584 5394 3201 
Q 5691 2819 5691 2113 
L 5691 0 
L 5113 0 
L 5113 2094 
Q 5113 2597 4934 2840 
Q 4756 3084 4391 3084 
Q 3944 3084 3684 2787 
Q 3425 2491 3425 1978 
L 3425 0 
L 2847 0 
L 2847 2094 
Q 2847 2600 2669 2842 
Q 2491 3084 2119 3084 
Q 1678 3084 1418 2786 
Q 1159 2488 1159 1978 
L 1159 0 
L 581 0 
L 581 3500 
L 1159 3500 
L 1159 2956 
Q 1356 3278 1631 3431 
Q 1906 3584 2284 3584 
Q 2666 3584 2933 3390 
Q 3200 3197 3328 2828 
z
" transform="scale(0.015625)"/>
        <path id="DejaVuSans-74" d="M 1172 4494 
L 1172 3500 
L 2356 3500 
L 2356 3053 
L 1172 3053 
L 1172 1153 
Q 1172 725 1289 603 
Q 1406 481 1766 481 
L 2356 481 
L 2356 0 
L 1766 0 
Q 1100 0 847 248 
Q 594 497 594 1153 
L 594 3053 
L 172 3053 
L 172 3500 
L 594 3500 
L 594 4494 
L 1172 4494 
z
" transform="scale(0.015625)"/>
        <path id="DejaVuSans-6c" d="M 603 4863 
L 1178 4863 
L 1178 0 
L 603 0 
L 603 4863 
z
" transform="scale(0.015625)"/>
        <path id="DejaVuSans-6e" d="M 3513 2113 
L 3513 0 
L 2938 0 
L 2938 2094 
Q 2938 2591 2744 2837 
Q 2550 3084 2163 3084 
Q 1697 3084 1428 2787 
Q 1159 2491 1159 1978 
L 1159 0 
L 581 0 
L 581 3500 
L 1159 3500 
L 1159 2956 
Q 1366 3272 1645 3428 
Q 1925 3584 2291 3584 
Q 2894 3584 3203 3211 
Q 3513 2838 3513 2113 
z
" transform="scale(0.015625)"/>
       </defs>
       <use xlink:href="#DejaVuSans-44"/>
       <use xlink:href="#DejaVuSans-65" x="77.001953"/>
       <use xlink:href="#DejaVuSans-72" x="138.525391"/>
       <use xlink:href="#DejaVuSans-6d" x="177.888672"/>
       <use xlink:href="#DejaVuSans-6f" x="275.300781"/>
       <use xlink:href="#DejaVuSans-74" x="336.482422"/>
       <use xlink:href="#DejaVuSans-20" x="375.691406"/>
       <use xlink:href="#DejaVuSans-4d" x="407.478516"/>
       <use xlink:href="#DejaVuSans-75" x="493.757812"/>
       <use xlink:href="#DejaVuSans-6c" x="557.136719"/>
       <use xlink:href="#DejaVuSans-72" x="584.919922"/>
       <use xlink:href="#DejaVuSans-6f" x="623.783203"/>
       <use xlink:href="#DejaVuSans-6e" x="684.964844"/>
       <use xlink:href="#DejaVuSans-65" x="748.34375"/>
       <use xlink:href="#DejaVuSans-79" x="809.867188"/>
      </g>
     </g>
    </g>
   </g>
   <g id="matplotlib.axis_2">
    <g id="ytick_1">
     <g id="line2d_3">
      <defs>
       <path id="m973255d3fa" d="M 0 0 
L -3.5 0 
" style="stroke: #000000; stroke-width: 0.8"/>
      </defs>
      <g>
       <use xlink:href="#m973255d3fa" x="43.09" y="240.86" style="stroke: #000000; stroke-width: 0.8"/>
      </g>
     </g>
     <g id="text_3">
      <!-- 0 -->
      <g transform="translate(29.7275 244.659219) scale(0.1 -0.1)">
       <defs>
        <path id="DejaVuSans-30" d="M 2034 4250 
Q 1547 4250 1301 3770 
Q 1056 3291 1056 2328 
Q 1056 1369 1301 889 
Q 1547 409 2034 409 
Q 2525 409 2770 889 
Q 3016 1369 3016 2328 
Q 3016 3291 2770 3770 
Q 2525 4250 2034 4250 
z
M 2034 4750 
Q 2819 4750 3233 4129 
Q 3647 3509 3647 2328 
Q 3647 1150 3233 529 
Q 2819 -91 2034 -91 
Q 1250 -91 836 529 
Q 422 1150 422 2328 
Q 422 3509 836 4129 
Q 1250 4750 2034 4750 
z
" transform="scale(0.015625)"/>
       </defs>
       <use xlink:href="#DejaVuSans-30"/>
      </g>
     </g>
    </g>
    <g id="ytick_2">
     <g id="line2d_4">
      <g>
       <use xlink:href="#m973255d3fa" x="43.09" y="202.095483" style="stroke: #000000; stroke-width: 0.8"/>
      </g>
     </g>
     <g id="text_4">
      <!-- 200 -->
      <g transform="translate(17.0025 205.894702) scale(0.1 -0.1)">
       <defs>
        <path id="DejaVuSans-32" d="M 1228 531 
L 3431 531 
L 3431 0 
L 469 0 
L 469 531 
Q 828 903 1448 1529 
Q 2069 2156 2228 2338 
Q 2531 2678 2651 2914 
Q 2772 3150 2772 3378 
Q 2772 3750 2511 3984 
Q 2250 4219 1831 4219 
Q 1534 4219 1204 4116 
Q 875 4013 500 3803 
L 500 4441 
Q 881 4594 1212 4672 
Q 1544 4750 1819 4750 
Q 2544 4750 2975 4387 
Q 3406 4025 3406 3419 
Q 3406 3131 3298 2873 
Q 3191 2616 2906 2266 
Q 2828 2175 2409 1742 
Q 1991 1309 1228 531 
z
" transform="scale(0.015625)"/>
       </defs>
       <use xlink:href="#DejaVuSans-32"/>
       <use xlink:href="#DejaVuSans-30" x="63.623047"/>
       <use xlink:href="#DejaVuSans-30" x="127.246094"/>
      </g>
     </g>
    </g>
    <g id="ytick_3">
     <g id="line2d_5">
      <g>
       <use xlink:href="#m973255d3fa" x="43.09" y="163.330967" style="stroke: #000000; stroke-width: 0.8"/>
      </g>
     </g>
     <g id="text_5">
      <!-- 400 -->
      <g transform="translate(17.0025 167.130186) scale(0.1 -0.1)">
       <defs>
        <path id="DejaVuSans-34" d="M 2419 4116 
L 825 1625 
L 2419 1625 
L 2419 4116 
z
M 2253 4666 
L 3047 4666 
L 3047 1625 
L 3713 1625 
L 3713 1100 
L 3047 1100 
L 3047 0 
L 2419 0 
L 2419 1100 
L 313 1100 
L 313 1709 
L 2253 4666 
z
" transform="scale(0.015625)"/>
       </defs>
       <use xlink:href="#DejaVuSans-34"/>
       <use xlink:href="#DejaVuSans-30" x="63.623047"/>
       <use xlink:href="#DejaVuSans-30" x="127.246094"/>
      </g>
     </g>
    </g>
    <g id="ytick_4">
     <g id="line2d_6">
      <g>
       <use xlink:href="#m973255d3fa" x="43.09" y="124.56645" style="stroke: #000000; stroke-width: 0.8"/>
      </g>
     </g>
     <g id="text_6">
      <!-- 600 -->
      <g transform="translate(17.0025 128.365669) scale(0.1 -0.1)">
       <defs>
        <path id="DejaVuSans-36" d="M 2113 2584 
Q 1688 2584 1439 2293 
Q 1191 2003 1191 1497 
Q 1191 994 1439 701 
Q 1688 409 2113 409 
Q 2538 409 2786 701 
Q 3034 994 3034 1497 
Q 3034 2003 2786 2293 
Q 2538 2584 2113 2584 
z
M 3366 4563 
L 3366 3988 
Q 3128 4100 2886 4159 
Q 2644 4219 2406 4219 
Q 1781 4219 1451 3797 
Q 1122 3375 1075 2522 
Q 1259 2794 1537 2939 
Q 1816 3084 2150 3084 
Q 2853 3084 3261 2657 
Q 3669 2231 3669 1497 
Q 3669 778 3244 343 
Q 2819 -91 2113 -91 
Q 1303 -91 875 529 
Q 447 1150 447 2328 
Q 447 3434 972 4092 
Q 1497 4750 2381 4750 
Q 2619 4750 2861 4703 
Q 3103 4656 3366 4563 
z
" transform="scale(0.015625)"/>
       </defs>
       <use xlink:href="#DejaVuSans-36"/>
       <use xlink:href="#DejaVuSans-30" x="63.623047"/>
       <use xlink:href="#DejaVuSans-30" x="127.246094"/>
      </g>
     </g>
    </g>
    <g id="ytick_5">
     <g id="line2d_7">
      <g>
       <use xlink:href="#m973255d3fa" x="43.09" y="85.801934" style="stroke: #000000; stroke-width: 0.8"/>
      </g>
     </g>
     <g id="text_7">
      <!-- 800 -->
      <g transform="translate(17.0025 89.601153) scale(0.1 -0.1)">
       <defs>
        <path id="DejaVuSans-38" d="M 2034 2216 
Q 1584 2216 1326 1975 
Q 1069 1734 1069 1313 
Q 1069 891 1326 650 
Q 1584 409 2034 409 
Q 2484 409 2743 651 
Q 3003 894 3003 1313 
Q 3003 1734 2745 1975 
Q 2488 2216 2034 2216 
z
M 1403 2484 
Q 997 2584 770 2862 
Q 544 3141 544 3541 
Q 544 4100 942 4425 
Q 1341 4750 2034 4750 
Q 2731 4750 3128 4425 
Q 3525 4100 3525 3541 
Q 3525 3141 3298 2862 
Q 3072 2584 2669 2484 
Q 3125 2378 3379 2068 
Q 3634 1759 3634 1313 
Q 3634 634 3220 271 
Q 2806 -91 2034 -91 
Q 1263 -91 848 271 
Q 434 634 434 1313 
Q 434 1759 690 2068 
Q 947 2378 1403 2484 
z
M 1172 3481 
Q 1172 3119 1398 2916 
Q 1625 2713 2034 2713 
Q 2441 2713 2670 2916 
Q 2900 3119 2900 3481 
Q 2900 3844 2670 4047 
Q 2441 4250 2034 4250 
Q 1625 4250 1398 4047 
Q 1172 3844 1172 3481 
z
" transform="scale(0.015625)"/>
       </defs>
       <use xlink:href="#DejaVuSans-38"/>
       <use xlink:href="#DejaVuSans-30" x="63.623047"/>
       <use xlink:href="#DejaVuSans-30" x="127.246094"/>
      </g>
     </g>
    </g>
    <g id="ytick_6">
     <g id="line2d_8">
      <g>
       <use xlink:href="#m973255d3fa" x="43.09" y="47.037417" style="stroke: #000000; stroke-width: 0.8"/>
      </g>
     </g>
     <g id="text_8">
      <!-- 1000 -->
      <g transform="translate(10.64 50.836636) scale(0.1 -0.1)">
       <defs>
        <path id="DejaVuSans-31" d="M 794 531 
L 1825 531 
L 1825 4091 
L 703 3866 
L 703 4441 
L 1819 4666 
L 2450 4666 
L 2450 531 
L 3481 531 
L 3481 0 
L 794 0 
L 794 531 
z
" transform="scale(0.015625)"/>
       </defs>
       <use xlink:href="#DejaVuSans-31"/>
       <use xlink:href="#DejaVuSans-30" x="63.623047"/>
       <use xlink:href="#DejaVuSans-30" x="127.246094"/>
       <use xlink:href="#DejaVuSans-30" x="190.869141"/>
      </g>
     </g>
    </g>
   </g>
   <g id="patch_170">
    <path d="M 43.09 240.86 
L 43.09 10.8 
" style="fill: none; stroke: #000000; stroke-width: 0.8; stroke-linejoin: miter; stroke-linecap: square"/>
   </g>
   <g id="patch_171">
    <path d="M 450 240.86 
L 450 10.8 
" style="fill: none; stroke: #000000; stroke-width: 0.8; stroke-linejoin: miter; stroke-linecap: square"/>
   </g>
   <g id="patch_172">
    <path d="M 43.09 240.86 
L 450 240.86 
" style="fill: none; stroke: #000000; stroke-width: 0.8; stroke-linejoin: miter; stroke-linecap: square"/>
   </g>
   <g id="patch_173">
    <path d="M 43.09 10.8 
L 450 10.8 
" style="fill: none; stroke: #000000; stroke-width: 0.8; stroke-linejoin: miter; stroke-linecap: square"/>
   </g>
  </g>
 </g>
 <defs>
  <clipPath id="p06f666a90e">
   <rect x="43.09" y="10.8" width="406.91" height="230.06"/>
  </clipPath>
 </defs>
</svg>
