<?xml version="1.0" encoding="utf-8" standalone="no"?>
<!DOCTYPE svg PUBLIC "-//W3C//DTD SVG 1.1//EN"
  "http://www.w3.org/Graphics/SVG/1.1/DTD/svg11.dtd">
<svg xmlns:xlink="http://www.w3.org/1999/xlink" width="460.8pt" height="345.6pt" viewBox="0 0 460.8 345.6" xmlns="http://www.w3.org/2000/svg" version="1.1">
 <metadata>
  <rdf:RDF xmlns:dc="http://purl.org/dc/elements/1.1/" xmlns:cc="http://creativecommons.org/ns#" xmlns:rdf="http://www.w3.org/1999/02/22-rdf-syntax-ns#">
   <cc:Work>
    <dc:type rdf:resource="http://purl.org/dc/dcmitype/StillImage"/>
    <dc:date>2022-12-20T12:31:06.820906</dc:date>
    <dc:format>image/svg+xml</dc:format>
    <dc:creator>
     <cc:Agent>
      <dc:title>Matplotlib v3.6.0, https://matplotlib.org/</dc:title>
     </cc:Agent>
    </dc:creator>
   </cc:Work>
  </rdf:RDF>
 </metadata>
 <defs>
  <style type="text/css">*{stroke-linejoin: round; stroke-linecap: butt}</style>
 </defs>
 <g id="figure_1">
  <g id="patch_1">
   <path d="M 0 345.6 
L 460.8 345.6 
L 460.8 0 
L 0 0 
z
" style="fill: #ffffff"/>
  </g>
  <g id="axes_1">
   <g id="patch_2">
    <path d="M 43.09 251.12 
L 450 251.12 
L 450 10.8 
L 43.09 10.8 
z
" style="fill: #ffffff"/>
   </g>
   <g id="patch_3">
    <path d="M 63.4355 251.12 
L 104.1265 251.12 
L 104.1265 173.742665 
L 63.4355 173.742665 
z
" clip-path="url(#pd68a071676)" style="fill: #1f77b4"/>
   </g>
   <g id="patch_4">
    <path d="M 144.8175 251.12 
L 185.5085 251.12 
L 185.5085 191.941738 
L 144.8175 191.941738 
z
" clip-path="url(#pd68a071676)" style="fill: #1f77b4"/>
   </g>
   <g id="patch_5">
    <path d="M 226.1995 251.12 
L 266.8905 251.12 
L 266.8905 186.527758 
L 226.1995 186.527758 
z
" clip-path="url(#pd68a071676)" style="fill: #1f77b4"/>
   </g>
   <g id="patch_6">
    <path d="M 307.5815 251.12 
L 348.2725 251.12 
L 348.2725 198.423554 
L 307.5815 198.423554 
z
" clip-path="url(#pd68a071676)" style="fill: #1f77b4"/>
   </g>
   <g id="patch_7">
    <path d="M 388.9635 251.12 
L 429.6545 251.12 
L 429.6545 219.415607 
L 388.9635 219.415607 
z
" clip-path="url(#pd68a071676)" style="fill: #1f77b4"/>
   </g>
   <g id="patch_8">
    <path d="M 63.4355 251.12 
L 104.1265 251.12 
L 104.1265 250.913543 
L 63.4355 250.913543 
z
" clip-path="url(#pd68a071676)" style="fill: #1f77b4"/>
   </g>
   <g id="patch_9">
    <path d="M 144.8175 251.12 
L 185.5085 251.12 
L 185.5085 251.051181 
L 144.8175 251.051181 
z
" clip-path="url(#pd68a071676)" style="fill: #1f77b4"/>
   </g>
   <g id="patch_10">
    <path d="M 226.1995 251.12 
L 266.8905 251.12 
L 266.8905 251.12 
L 226.1995 251.12 
z
" clip-path="url(#pd68a071676)" style="fill: #1f77b4"/>
   </g>
   <g id="patch_11">
    <path d="M 63.4355 251.12 
L 104.1265 251.12 
L 104.1265 251.09706 
L 63.4355 251.09706 
z
" clip-path="url(#pd68a071676)" style="fill: #1f77b4"/>
   </g>
   <g id="patch_12">
    <path d="M 144.8175 251.12 
L 185.5085 251.12 
L 185.5085 251.09706 
L 144.8175 251.09706 
z
" clip-path="url(#pd68a071676)" style="fill: #1f77b4"/>
   </g>
   <g id="patch_13">
    <path d="M 226.1995 251.12 
L 266.8905 251.12 
L 266.8905 251.09706 
L 226.1995 251.09706 
z
" clip-path="url(#pd68a071676)" style="fill: #1f77b4"/>
   </g>
   <g id="patch_14">
    <path d="M 307.5815 251.12 
L 348.2725 251.12 
L 348.2725 251.051181 
L 307.5815 251.051181 
z
" clip-path="url(#pd68a071676)" style="fill: #1f77b4"/>
   </g>
   <g id="patch_15">
    <path d="M 388.9635 251.12 
L 429.6545 251.12 
L 429.6545 251.12 
L 388.9635 251.12 
z
" clip-path="url(#pd68a071676)" style="fill: #1f77b4"/>
   </g>
   <g id="patch_16">
    <path d="M 63.4355 251.12 
L 104.1265 251.12 
L 104.1265 238.182019 
L 63.4355 238.182019 
z
" clip-path="url(#pd68a071676)" style="fill: #1f77b4"/>
   </g>
   <g id="patch_17">
    <path d="M 144.8175 251.12 
L 185.5085 251.12 
L 185.5085 247.47259 
L 144.8175 247.47259 
z
" clip-path="url(#pd68a071676)" style="fill: #1f77b4"/>
   </g>
   <g id="patch_18">
    <path d="M 226.1995 251.12 
L 266.8905 251.12 
L 266.8905 248.126371 
L 226.1995 248.126371 
z
" clip-path="url(#pd68a071676)" style="fill: #1f77b4"/>
   </g>
   <g id="patch_19">
    <path d="M 307.5815 251.12 
L 348.2725 251.12 
L 348.2725 238.526114 
L 307.5815 238.526114 
z
" clip-path="url(#pd68a071676)" style="fill: #1f77b4"/>
   </g>
   <g id="patch_20">
    <path d="M 388.9635 251.12 
L 429.6545 251.12 
L 429.6545 249.502752 
L 388.9635 249.502752 
z
" clip-path="url(#pd68a071676)" style="fill: #1f77b4"/>
   </g>
   <g id="patch_21">
    <path d="M 63.4355 251.12 
L 104.1265 251.12 
L 104.1265 251.051181 
L 63.4355 251.051181 
z
" clip-path="url(#pd68a071676)" style="fill: #1f77b4"/>
   </g>
   <g id="patch_22">
    <path d="M 144.8175 251.12 
L 185.5085 251.12 
L 185.5085 251.12 
L 144.8175 251.12 
z
" clip-path="url(#pd68a071676)" style="fill: #1f77b4"/>
   </g>
   <g id="patch_23">
    <path d="M 226.1995 251.12 
L 266.8905 251.12 
L 266.8905 251.12 
L 226.1995 251.12 
z
" clip-path="url(#pd68a071676)" style="fill: #1f77b4"/>
   </g>
   <g id="patch_24">
    <path d="M 307.5815 251.12 
L 348.2725 251.12 
L 348.2725 251.12 
L 307.5815 251.12 
z
" clip-path="url(#pd68a071676)" style="fill: #1f77b4"/>
   </g>
   <g id="patch_25">
    <path d="M 63.4355 251.12 
L 104.1265 251.12 
L 104.1265 249.261886 
L 63.4355 249.261886 
z
" clip-path="url(#pd68a071676)" style="fill: #1f77b4"/>
   </g>
   <g id="patch_26">
    <path d="M 144.8175 251.12 
L 185.5085 251.12 
L 185.5085 250.913543 
L 144.8175 250.913543 
z
" clip-path="url(#pd68a071676)" style="fill: #1f77b4"/>
   </g>
   <g id="patch_27">
    <path d="M 226.1995 251.12 
L 266.8905 251.12 
L 266.8905 251.051181 
L 226.1995 251.051181 
z
" clip-path="url(#pd68a071676)" style="fill: #1f77b4"/>
   </g>
   <g id="patch_28">
    <path d="M 307.5815 251.12 
L 348.2725 251.12 
L 348.2725 251.051181 
L 307.5815 251.051181 
z
" clip-path="url(#pd68a071676)" style="fill: #1f77b4"/>
   </g>
   <g id="patch_29">
    <path d="M 388.9635 251.12 
L 429.6545 251.12 
L 429.6545 250.638267 
L 388.9635 250.638267 
z
" clip-path="url(#pd68a071676)" style="fill: #1f77b4"/>
   </g>
   <g id="patch_30">
    <path d="M 63.4355 251.12 
L 104.1265 251.12 
L 104.1265 250.982362 
L 63.4355 250.982362 
z
" clip-path="url(#pd68a071676)" style="fill: #1f77b4"/>
   </g>
   <g id="patch_31">
    <path d="M 144.8175 251.12 
L 185.5085 251.12 
L 185.5085 250.982362 
L 144.8175 250.982362 
z
" clip-path="url(#pd68a071676)" style="fill: #1f77b4"/>
   </g>
   <g id="patch_32">
    <path d="M 226.1995 251.12 
L 266.8905 251.12 
L 266.8905 250.982362 
L 226.1995 250.982362 
z
" clip-path="url(#pd68a071676)" style="fill: #1f77b4"/>
   </g>
   <g id="patch_33">
    <path d="M 307.5815 251.12 
L 348.2725 251.12 
L 348.2725 250.982362 
L 307.5815 250.982362 
z
" clip-path="url(#pd68a071676)" style="fill: #1f77b4"/>
   </g>
   <g id="patch_34">
    <path d="M 388.9635 251.12 
L 429.6545 251.12 
L 429.6545 250.982362 
L 388.9635 250.982362 
z
" clip-path="url(#pd68a071676)" style="fill: #1f77b4"/>
   </g>
   <g id="patch_35">
    <path d="M 63.4355 251.12 
L 104.1265 251.12 
L 104.1265 250.913543 
L 63.4355 250.913543 
z
" clip-path="url(#pd68a071676)" style="fill: #1f77b4"/>
   </g>
   <g id="patch_36">
    <path d="M 144.8175 251.12 
L 185.5085 251.12 
L 185.5085 250.947952 
L 144.8175 250.947952 
z
" clip-path="url(#pd68a071676)" style="fill: #1f77b4"/>
   </g>
   <g id="patch_37">
    <path d="M 226.1995 251.12 
L 266.8905 251.12 
L 266.8905 251.051181 
L 226.1995 251.051181 
z
" clip-path="url(#pd68a071676)" style="fill: #1f77b4"/>
   </g>
   <g id="patch_38">
    <path d="M 307.5815 251.12 
L 348.2725 251.12 
L 348.2725 251.08559 
L 307.5815 251.08559 
z
" clip-path="url(#pd68a071676)" style="fill: #1f77b4"/>
   </g>
   <g id="patch_39">
    <path d="M 388.9635 251.12 
L 429.6545 251.12 
L 429.6545 251.08559 
L 388.9635 251.08559 
z
" clip-path="url(#pd68a071676)" style="fill: #1f77b4"/>
   </g>
   <g id="patch_40">
    <path d="M 63.4355 251.12 
L 104.1265 251.12 
L 104.1265 250.913543 
L 63.4355 250.913543 
z
" clip-path="url(#pd68a071676)" style="fill: #1f77b4"/>
   </g>
   <g id="patch_41">
    <path d="M 144.8175 251.12 
L 185.5085 251.12 
L 185.5085 251.12 
L 144.8175 251.12 
z
" clip-path="url(#pd68a071676)" style="fill: #1f77b4"/>
   </g>
   <g id="patch_42">
    <path d="M 226.1995 251.12 
L 266.8905 251.12 
L 266.8905 251.12 
L 226.1995 251.12 
z
" clip-path="url(#pd68a071676)" style="fill: #1f77b4"/>
   </g>
   <g id="patch_43">
    <path d="M 63.4355 251.12 
L 104.1265 251.12 
L 104.1265 250.913543 
L 63.4355 250.913543 
z
" clip-path="url(#pd68a071676)" style="fill: #1f77b4"/>
   </g>
   <g id="patch_44">
    <path d="M 144.8175 251.12 
L 185.5085 251.12 
L 185.5085 251.051181 
L 144.8175 251.051181 
z
" clip-path="url(#pd68a071676)" style="fill: #1f77b4"/>
   </g>
   <g id="patch_45">
    <path d="M 63.4355 251.12 
L 104.1265 251.12 
L 104.1265 175.238804 
L 63.4355 175.238804 
z
" clip-path="url(#pd68a071676)" style="fill: #1f77b4"/>
   </g>
   <g id="patch_46">
    <path d="M 144.8175 251.12 
L 185.5085 251.12 
L 185.5085 196.596557 
L 144.8175 196.596557 
z
" clip-path="url(#pd68a071676)" style="fill: #1f77b4"/>
   </g>
   <g id="patch_47">
    <path d="M 226.1995 251.12 
L 266.8905 251.12 
L 266.8905 203.730092 
L 226.1995 203.730092 
z
" clip-path="url(#pd68a071676)" style="fill: #1f77b4"/>
   </g>
   <g id="patch_48">
    <path d="M 307.5815 251.12 
L 348.2725 251.12 
L 348.2725 196.785937 
L 307.5815 196.785937 
z
" clip-path="url(#pd68a071676)" style="fill: #1f77b4"/>
   </g>
   <g id="patch_49">
    <path d="M 388.9635 251.12 
L 429.6545 251.12 
L 429.6545 211.157836 
L 388.9635 211.157836 
z
" clip-path="url(#pd68a071676)" style="fill: #1f77b4"/>
   </g>
   <g id="patch_50">
    <path d="M 63.4355 251.12 
L 104.1265 251.12 
L 104.1265 251.12 
L 63.4355 251.12 
z
" clip-path="url(#pd68a071676)" style="fill: #1f77b4"/>
   </g>
   <g id="patch_51">
    <path d="M 144.8175 251.12 
L 185.5085 251.12 
L 185.5085 251.12 
L 144.8175 251.12 
z
" clip-path="url(#pd68a071676)" style="fill: #1f77b4"/>
   </g>
   <g id="patch_52">
    <path d="M 226.1995 251.12 
L 266.8905 251.12 
L 266.8905 251.12 
L 226.1995 251.12 
z
" clip-path="url(#pd68a071676)" style="fill: #1f77b4"/>
   </g>
   <g id="patch_53">
    <path d="M 307.5815 251.12 
L 348.2725 251.12 
L 348.2725 251.12 
L 307.5815 251.12 
z
" clip-path="url(#pd68a071676)" style="fill: #1f77b4"/>
   </g>
   <g id="patch_54">
    <path d="M 388.9635 251.12 
L 429.6545 251.12 
L 429.6545 251.12 
L 388.9635 251.12 
z
" clip-path="url(#pd68a071676)" style="fill: #1f77b4"/>
   </g>
   <g id="patch_55">
    <path d="M 63.4355 251.12 
L 104.1265 251.12 
L 104.1265 251.051181 
L 63.4355 251.051181 
z
" clip-path="url(#pd68a071676)" style="fill: #1f77b4"/>
   </g>
   <g id="patch_56">
    <path d="M 144.8175 251.12 
L 185.5085 251.12 
L 185.5085 251.12 
L 144.8175 251.12 
z
" clip-path="url(#pd68a071676)" style="fill: #1f77b4"/>
   </g>
   <g id="patch_57">
    <path d="M 226.1995 251.12 
L 266.8905 251.12 
L 266.8905 251.12 
L 226.1995 251.12 
z
" clip-path="url(#pd68a071676)" style="fill: #1f77b4"/>
   </g>
   <g id="patch_58">
    <path d="M 307.5815 251.12 
L 348.2725 251.12 
L 348.2725 251.12 
L 307.5815 251.12 
z
" clip-path="url(#pd68a071676)" style="fill: #1f77b4"/>
   </g>
   <g id="patch_59">
    <path d="M 388.9635 251.12 
L 429.6545 251.12 
L 429.6545 251.12 
L 388.9635 251.12 
z
" clip-path="url(#pd68a071676)" style="fill: #1f77b4"/>
   </g>
   <g id="patch_60">
    <path d="M 63.4355 251.12 
L 104.1265 251.12 
L 104.1265 250.741495 
L 63.4355 250.741495 
z
" clip-path="url(#pd68a071676)" style="fill: #1f77b4"/>
   </g>
   <g id="patch_61">
    <path d="M 144.8175 251.12 
L 185.5085 251.12 
L 185.5085 250.913543 
L 144.8175 250.913543 
z
" clip-path="url(#pd68a071676)" style="fill: #1f77b4"/>
   </g>
   <g id="patch_62">
    <path d="M 226.1995 251.12 
L 266.8905 251.12 
L 266.8905 251.08559 
L 226.1995 251.08559 
z
" clip-path="url(#pd68a071676)" style="fill: #1f77b4"/>
   </g>
   <g id="patch_63">
    <path d="M 307.5815 251.12 
L 348.2725 251.12 
L 348.2725 251.12 
L 307.5815 251.12 
z
" clip-path="url(#pd68a071676)" style="fill: #1f77b4"/>
   </g>
   <g id="patch_64">
    <path d="M 388.9635 251.12 
L 429.6545 251.12 
L 429.6545 251.12 
L 388.9635 251.12 
z
" clip-path="url(#pd68a071676)" style="fill: #1f77b4"/>
   </g>
   <g id="patch_65">
    <path d="M 63.4355 251.12 
L 104.1265 251.12 
L 104.1265 243.515495 
L 63.4355 243.515495 
z
" clip-path="url(#pd68a071676)" style="fill: #1f77b4"/>
   </g>
   <g id="patch_66">
    <path d="M 144.8175 251.12 
L 185.5085 251.12 
L 185.5085 250.43181 
L 144.8175 250.43181 
z
" clip-path="url(#pd68a071676)" style="fill: #1f77b4"/>
   </g>
   <g id="patch_67">
    <path d="M 226.1995 251.12 
L 266.8905 251.12 
L 266.8905 246.967917 
L 226.1995 246.967917 
z
" clip-path="url(#pd68a071676)" style="fill: #1f77b4"/>
   </g>
   <g id="patch_68">
    <path d="M 307.5815 251.12 
L 348.2725 251.12 
L 348.2725 245.889752 
L 307.5815 245.889752 
z
" clip-path="url(#pd68a071676)" style="fill: #1f77b4"/>
   </g>
   <g id="patch_69">
    <path d="M 388.9635 251.12 
L 429.6545 251.12 
L 429.6545 246.887628 
L 388.9635 246.887628 
z
" clip-path="url(#pd68a071676)" style="fill: #1f77b4"/>
   </g>
   <g id="patch_70">
    <path d="M 63.4355 251.12 
L 104.1265 251.12 
L 104.1265 228.217738 
L 63.4355 228.217738 
z
" clip-path="url(#pd68a071676)" style="fill: #1f77b4"/>
   </g>
   <g id="patch_71">
    <path d="M 144.8175 251.12 
L 185.5085 251.12 
L 185.5085 231.504231 
L 144.8175 231.504231 
z
" clip-path="url(#pd68a071676)" style="fill: #1f77b4"/>
   </g>
   <g id="patch_72">
    <path d="M 226.1995 251.12 
L 266.8905 251.12 
L 266.8905 203.482811 
L 226.1995 203.482811 
z
" clip-path="url(#pd68a071676)" style="fill: #1f77b4"/>
   </g>
   <g id="patch_73">
    <path d="M 307.5815 251.12 
L 348.2725 251.12 
L 348.2725 222.393784 
L 307.5815 222.393784 
z
" clip-path="url(#pd68a071676)" style="fill: #1f77b4"/>
   </g>
   <g id="patch_74">
    <path d="M 388.9635 251.12 
L 429.6545 251.12 
L 429.6545 203.169168 
L 388.9635 203.169168 
z
" clip-path="url(#pd68a071676)" style="fill: #1f77b4"/>
   </g>
   <g id="patch_75">
    <path d="M 63.4355 251.12 
L 104.1265 251.12 
L 104.1265 251.12 
L 63.4355 251.12 
z
" clip-path="url(#pd68a071676)" style="fill: #1f77b4"/>
   </g>
   <g id="patch_76">
    <path d="M 144.8175 251.12 
L 185.5085 251.12 
L 185.5085 251.12 
L 144.8175 251.12 
z
" clip-path="url(#pd68a071676)" style="fill: #1f77b4"/>
   </g>
   <g id="patch_77">
    <path d="M 63.4355 251.12 
L 104.1265 251.12 
L 104.1265 250.259762 
L 63.4355 250.259762 
z
" clip-path="url(#pd68a071676)" style="fill: #1f77b4"/>
   </g>
   <g id="patch_78">
    <path d="M 144.8175 251.12 
L 185.5085 251.12 
L 185.5085 250.43181 
L 144.8175 250.43181 
z
" clip-path="url(#pd68a071676)" style="fill: #1f77b4"/>
   </g>
   <g id="patch_79">
    <path d="M 226.1995 251.12 
L 266.8905 251.12 
L 266.8905 250.707086 
L 226.1995 250.707086 
z
" clip-path="url(#pd68a071676)" style="fill: #1f77b4"/>
   </g>
   <g id="patch_80">
    <path d="M 307.5815 251.12 
L 348.2725 251.12 
L 348.2725 251.051181 
L 307.5815 251.051181 
z
" clip-path="url(#pd68a071676)" style="fill: #1f77b4"/>
   </g>
   <g id="patch_81">
    <path d="M 388.9635 251.12 
L 429.6545 251.12 
L 429.6545 250.982362 
L 388.9635 250.982362 
z
" clip-path="url(#pd68a071676)" style="fill: #1f77b4"/>
   </g>
   <g id="patch_82">
    <path d="M 63.4355 251.12 
L 104.1265 251.12 
L 104.1265 250.913543 
L 63.4355 250.913543 
z
" clip-path="url(#pd68a071676)" style="fill: #1f77b4"/>
   </g>
   <g id="patch_83">
    <path d="M 144.8175 251.12 
L 185.5085 251.12 
L 185.5085 250.913543 
L 144.8175 250.913543 
z
" clip-path="url(#pd68a071676)" style="fill: #1f77b4"/>
   </g>
   <g id="patch_84">
    <path d="M 226.1995 251.12 
L 266.8905 251.12 
L 266.8905 251.051181 
L 226.1995 251.051181 
z
" clip-path="url(#pd68a071676)" style="fill: #1f77b4"/>
   </g>
   <g id="patch_85">
    <path d="M 307.5815 251.12 
L 348.2725 251.12 
L 348.2725 251.12 
L 307.5815 251.12 
z
" clip-path="url(#pd68a071676)" style="fill: #1f77b4"/>
   </g>
   <g id="patch_86">
    <path d="M 388.9635 251.12 
L 429.6545 251.12 
L 429.6545 251.12 
L 388.9635 251.12 
z
" clip-path="url(#pd68a071676)" style="fill: #1f77b4"/>
   </g>
   <g id="patch_87">
    <path d="M 63.4355 251.12 
L 104.1265 251.12 
L 104.1265 249.6748 
L 63.4355 249.6748 
z
" clip-path="url(#pd68a071676)" style="fill: #1f77b4"/>
   </g>
   <g id="patch_88">
    <path d="M 144.8175 251.12 
L 185.5085 251.12 
L 185.5085 251.08559 
L 144.8175 251.08559 
z
" clip-path="url(#pd68a071676)" style="fill: #1f77b4"/>
   </g>
   <g id="patch_89">
    <path d="M 226.1995 251.12 
L 266.8905 251.12 
L 266.8905 251.08559 
L 226.1995 251.08559 
z
" clip-path="url(#pd68a071676)" style="fill: #1f77b4"/>
   </g>
   <g id="patch_90">
    <path d="M 307.5815 251.12 
L 348.2725 251.12 
L 348.2725 251.08559 
L 307.5815 251.08559 
z
" clip-path="url(#pd68a071676)" style="fill: #1f77b4"/>
   </g>
   <g id="patch_91">
    <path d="M 388.9635 251.12 
L 429.6545 251.12 
L 429.6545 251.08559 
L 388.9635 251.08559 
z
" clip-path="url(#pd68a071676)" style="fill: #1f77b4"/>
   </g>
   <g id="patch_92">
    <path d="M 63.4355 251.12 
L 104.1265 251.12 
L 104.1265 251.12 
L 63.4355 251.12 
z
" clip-path="url(#pd68a071676)" style="fill: #1f77b4"/>
   </g>
   <g id="patch_93">
    <path d="M 63.4355 251.12 
L 104.1265 251.12 
L 104.1265 250.775905 
L 63.4355 250.775905 
z
" clip-path="url(#pd68a071676)" style="fill: #1f77b4"/>
   </g>
   <g id="patch_94">
    <path d="M 144.8175 251.12 
L 185.5085 251.12 
L 185.5085 250.775905 
L 144.8175 250.775905 
z
" clip-path="url(#pd68a071676)" style="fill: #1f77b4"/>
   </g>
   <g id="patch_95">
    <path d="M 226.1995 251.12 
L 266.8905 251.12 
L 266.8905 251.051181 
L 226.1995 251.051181 
z
" clip-path="url(#pd68a071676)" style="fill: #1f77b4"/>
   </g>
   <g id="patch_96">
    <path d="M 63.4355 251.12 
L 104.1265 251.12 
L 104.1265 249.6748 
L 63.4355 249.6748 
z
" clip-path="url(#pd68a071676)" style="fill: #1f77b4"/>
   </g>
   <g id="patch_97">
    <path d="M 144.8175 251.12 
L 185.5085 251.12 
L 185.5085 251.051181 
L 144.8175 251.051181 
z
" clip-path="url(#pd68a071676)" style="fill: #1f77b4"/>
   </g>
   <g id="patch_98">
    <path d="M 226.1995 251.12 
L 266.8905 251.12 
L 266.8905 251.051181 
L 226.1995 251.051181 
z
" clip-path="url(#pd68a071676)" style="fill: #1f77b4"/>
   </g>
   <g id="patch_99">
    <path d="M 307.5815 251.12 
L 348.2725 251.12 
L 348.2725 251.12 
L 307.5815 251.12 
z
" clip-path="url(#pd68a071676)" style="fill: #1f77b4"/>
   </g>
   <g id="patch_100">
    <path d="M 388.9635 251.12 
L 429.6545 251.12 
L 429.6545 251.12 
L 388.9635 251.12 
z
" clip-path="url(#pd68a071676)" style="fill: #1f77b4"/>
   </g>
   <g id="patch_101">
    <path d="M 63.4355 251.12 
L 104.1265 251.12 
L 104.1265 251.12 
L 63.4355 251.12 
z
" clip-path="url(#pd68a071676)" style="fill: #1f77b4"/>
   </g>
   <g id="patch_102">
    <path d="M 63.4355 251.12 
L 104.1265 251.12 
L 104.1265 173.324208 
L 63.4355 173.324208 
z
" clip-path="url(#pd68a071676)" style="fill: #1f77b4"/>
   </g>
   <g id="patch_103">
    <path d="M 144.8175 251.12 
L 185.5085 251.12 
L 185.5085 190.441942 
L 144.8175 190.441942 
z
" clip-path="url(#pd68a071676)" style="fill: #1f77b4"/>
   </g>
   <g id="patch_104">
    <path d="M 226.1995 251.12 
L 266.8905 251.12 
L 266.8905 202.018736 
L 226.1995 202.018736 
z
" clip-path="url(#pd68a071676)" style="fill: #1f77b4"/>
   </g>
   <g id="patch_105">
    <path d="M 307.5815 251.12 
L 348.2725 251.12 
L 348.2725 210.940643 
L 307.5815 210.940643 
z
" clip-path="url(#pd68a071676)" style="fill: #1f77b4"/>
   </g>
   <g id="patch_106">
    <path d="M 388.9635 251.12 
L 429.6545 251.12 
L 429.6545 217.304773 
L 388.9635 217.304773 
z
" clip-path="url(#pd68a071676)" style="fill: #1f77b4"/>
   </g>
   <g id="patch_107">
    <path d="M 63.4355 251.12 
L 104.1265 251.12 
L 104.1265 250.775905 
L 63.4355 250.775905 
z
" clip-path="url(#pd68a071676)" style="fill: #1f77b4"/>
   </g>
   <g id="patch_108">
    <path d="M 144.8175 251.12 
L 185.5085 251.12 
L 185.5085 250.775905 
L 144.8175 250.775905 
z
" clip-path="url(#pd68a071676)" style="fill: #1f77b4"/>
   </g>
   <g id="patch_109">
    <path d="M 226.1995 251.12 
L 266.8905 251.12 
L 266.8905 250.775905 
L 226.1995 250.775905 
z
" clip-path="url(#pd68a071676)" style="fill: #1f77b4"/>
   </g>
   <g id="patch_110">
    <path d="M 307.5815 251.12 
L 348.2725 251.12 
L 348.2725 251.08559 
L 307.5815 251.08559 
z
" clip-path="url(#pd68a071676)" style="fill: #1f77b4"/>
   </g>
   <g id="patch_111">
    <path d="M 388.9635 251.12 
L 429.6545 251.12 
L 429.6545 251.08559 
L 388.9635 251.08559 
z
" clip-path="url(#pd68a071676)" style="fill: #1f77b4"/>
   </g>
   <g id="patch_112">
    <path d="M 63.4355 251.12 
L 104.1265 251.12 
L 104.1265 210.48598 
L 63.4355 210.48598 
z
" clip-path="url(#pd68a071676)" style="fill: #1f77b4"/>
   </g>
   <g id="patch_113">
    <path d="M 144.8175 251.12 
L 185.5085 251.12 
L 185.5085 210.565193 
L 144.8175 210.565193 
z
" clip-path="url(#pd68a071676)" style="fill: #1f77b4"/>
   </g>
   <g id="patch_114">
    <path d="M 226.1995 251.12 
L 266.8905 251.12 
L 266.8905 224.421217 
L 226.1995 224.421217 
z
" clip-path="url(#pd68a071676)" style="fill: #1f77b4"/>
   </g>
   <g id="patch_115">
    <path d="M 307.5815 251.12 
L 348.2725 251.12 
L 348.2725 223.22071 
L 307.5815 223.22071 
z
" clip-path="url(#pd68a071676)" style="fill: #1f77b4"/>
   </g>
   <g id="patch_116">
    <path d="M 388.9635 251.12 
L 429.6545 251.12 
L 429.6545 210.194797 
L 388.9635 210.194797 
z
" clip-path="url(#pd68a071676)" style="fill: #1f77b4"/>
   </g>
   <g id="patch_117">
    <path d="M 63.4355 251.12 
L 104.1265 251.12 
L 104.1265 250.707086 
L 63.4355 250.707086 
z
" clip-path="url(#pd68a071676)" style="fill: #1f77b4"/>
   </g>
   <g id="patch_118">
    <path d="M 144.8175 251.12 
L 185.5085 251.12 
L 185.5085 250.775905 
L 144.8175 250.775905 
z
" clip-path="url(#pd68a071676)" style="fill: #1f77b4"/>
   </g>
   <g id="patch_119">
    <path d="M 226.1995 251.12 
L 266.8905 251.12 
L 266.8905 250.913543 
L 226.1995 250.913543 
z
" clip-path="url(#pd68a071676)" style="fill: #1f77b4"/>
   </g>
   <g id="patch_120">
    <path d="M 307.5815 251.12 
L 348.2725 251.12 
L 348.2725 250.982362 
L 307.5815 250.982362 
z
" clip-path="url(#pd68a071676)" style="fill: #1f77b4"/>
   </g>
   <g id="patch_121">
    <path d="M 388.9635 251.12 
L 429.6545 251.12 
L 429.6545 251.08559 
L 388.9635 251.08559 
z
" clip-path="url(#pd68a071676)" style="fill: #1f77b4"/>
   </g>
   <g id="patch_122">
    <path d="M 63.4355 251.12 
L 104.1265 251.12 
L 104.1265 250.913543 
L 63.4355 250.913543 
z
" clip-path="url(#pd68a071676)" style="fill: #1f77b4"/>
   </g>
   <g id="patch_123">
    <path d="M 144.8175 251.12 
L 185.5085 251.12 
L 185.5085 251.08559 
L 144.8175 251.08559 
z
" clip-path="url(#pd68a071676)" style="fill: #1f77b4"/>
   </g>
   <g id="patch_124">
    <path d="M 226.1995 251.12 
L 266.8905 251.12 
L 266.8905 251.08559 
L 226.1995 251.08559 
z
" clip-path="url(#pd68a071676)" style="fill: #1f77b4"/>
   </g>
   <g id="patch_125">
    <path d="M 307.5815 251.12 
L 348.2725 251.12 
L 348.2725 251.051181 
L 307.5815 251.051181 
z
" clip-path="url(#pd68a071676)" style="fill: #1f77b4"/>
   </g>
   <g id="patch_126">
    <path d="M 388.9635 251.12 
L 429.6545 251.12 
L 429.6545 251.12 
L 388.9635 251.12 
z
" clip-path="url(#pd68a071676)" style="fill: #1f77b4"/>
   </g>
   <g id="patch_127">
    <path d="M 63.4355 251.12 
L 104.1265 251.12 
L 104.1265 250.913543 
L 63.4355 250.913543 
z
" clip-path="url(#pd68a071676)" style="fill: #1f77b4"/>
   </g>
   <g id="patch_128">
    <path d="M 144.8175 251.12 
L 185.5085 251.12 
L 185.5085 251.051181 
L 144.8175 251.051181 
z
" clip-path="url(#pd68a071676)" style="fill: #1f77b4"/>
   </g>
   <g id="patch_129">
    <path d="M 226.1995 251.12 
L 266.8905 251.12 
L 266.8905 251.12 
L 226.1995 251.12 
z
" clip-path="url(#pd68a071676)" style="fill: #1f77b4"/>
   </g>
   <g id="patch_130">
    <path d="M 307.5815 251.12 
L 348.2725 251.12 
L 348.2725 251.12 
L 307.5815 251.12 
z
" clip-path="url(#pd68a071676)" style="fill: #1f77b4"/>
   </g>
   <g id="patch_131">
    <path d="M 388.9635 251.12 
L 429.6545 251.12 
L 429.6545 251.12 
L 388.9635 251.12 
z
" clip-path="url(#pd68a071676)" style="fill: #1f77b4"/>
   </g>
   <g id="patch_132">
    <path d="M 63.4355 251.12 
L 104.1265 251.12 
L 104.1265 249.304324 
L 63.4355 249.304324 
z
" clip-path="url(#pd68a071676)" style="fill: #1f77b4"/>
   </g>
   <g id="patch_133">
    <path d="M 144.8175 251.12 
L 185.5085 251.12 
L 185.5085 250.707086 
L 144.8175 250.707086 
z
" clip-path="url(#pd68a071676)" style="fill: #1f77b4"/>
   </g>
   <g id="patch_134">
    <path d="M 226.1995 251.12 
L 266.8905 251.12 
L 266.8905 250.140476 
L 226.1995 250.140476 
z
" clip-path="url(#pd68a071676)" style="fill: #1f77b4"/>
   </g>
   <g id="patch_135">
    <path d="M 307.5815 251.12 
L 348.2725 251.12 
L 348.2725 250.140476 
L 307.5815 250.140476 
z
" clip-path="url(#pd68a071676)" style="fill: #1f77b4"/>
   </g>
   <g id="patch_136">
    <path d="M 388.9635 251.12 
L 429.6545 251.12 
L 429.6545 250.140476 
L 388.9635 250.140476 
z
" clip-path="url(#pd68a071676)" style="fill: #1f77b4"/>
   </g>
   <g id="patch_137">
    <path d="M 63.4355 251.12 
L 104.1265 251.12 
L 104.1265 237.080532 
L 63.4355 237.080532 
z
" clip-path="url(#pd68a071676)" style="fill: #1f77b4"/>
   </g>
   <g id="patch_138">
    <path d="M 144.8175 251.12 
L 185.5085 251.12 
L 185.5085 239.717831 
L 144.8175 239.717831 
z
" clip-path="url(#pd68a071676)" style="fill: #1f77b4"/>
   </g>
   <g id="patch_139">
    <path d="M 226.1995 251.12 
L 266.8905 251.12 
L 266.8905 249.181597 
L 226.1995 249.181597 
z
" clip-path="url(#pd68a071676)" style="fill: #1f77b4"/>
   </g>
   <g id="patch_140">
    <path d="M 307.5815 251.12 
L 348.2725 251.12 
L 348.2725 250.861929 
L 307.5815 250.861929 
z
" clip-path="url(#pd68a071676)" style="fill: #1f77b4"/>
   </g>
   <g id="patch_141">
    <path d="M 388.9635 251.12 
L 429.6545 251.12 
L 429.6545 250.861929 
L 388.9635 250.861929 
z
" clip-path="url(#pd68a071676)" style="fill: #1f77b4"/>
   </g>
   <g id="patch_142">
    <path d="M 63.4355 251.12 
L 104.1265 251.12 
L 104.1265 249.588776 
L 63.4355 249.588776 
z
" clip-path="url(#pd68a071676)" style="fill: #1f77b4"/>
   </g>
   <g id="patch_143">
    <path d="M 144.8175 251.12 
L 185.5085 251.12 
L 185.5085 250.122124 
L 144.8175 250.122124 
z
" clip-path="url(#pd68a071676)" style="fill: #1f77b4"/>
   </g>
   <g id="patch_144">
    <path d="M 226.1995 251.12 
L 266.8905 251.12 
L 266.8905 250.913543 
L 226.1995 250.913543 
z
" clip-path="url(#pd68a071676)" style="fill: #1f77b4"/>
   </g>
   <g id="patch_145">
    <path d="M 307.5815 251.12 
L 348.2725 251.12 
L 348.2725 250.968598 
L 307.5815 250.968598 
z
" clip-path="url(#pd68a071676)" style="fill: #1f77b4"/>
   </g>
   <g id="patch_146">
    <path d="M 388.9635 251.12 
L 429.6545 251.12 
L 429.6545 250.775905 
L 388.9635 250.775905 
z
" clip-path="url(#pd68a071676)" style="fill: #1f77b4"/>
   </g>
   <g id="patch_147">
    <path d="M 63.4355 251.12 
L 104.1265 251.12 
L 104.1265 250.974715 
L 63.4355 250.974715 
z
" clip-path="url(#pd68a071676)" style="fill: #1f77b4"/>
   </g>
   <g id="patch_148">
    <path d="M 144.8175 251.12 
L 185.5085 251.12 
L 185.5085 251.08559 
L 144.8175 251.08559 
z
" clip-path="url(#pd68a071676)" style="fill: #1f77b4"/>
   </g>
   <g id="patch_149">
    <path d="M 226.1995 251.12 
L 266.8905 251.12 
L 266.8905 251.08559 
L 226.1995 251.08559 
z
" clip-path="url(#pd68a071676)" style="fill: #1f77b4"/>
   </g>
   <g id="patch_150">
    <path d="M 307.5815 251.12 
L 348.2725 251.12 
L 348.2725 251.112353 
L 307.5815 251.112353 
z
" clip-path="url(#pd68a071676)" style="fill: #1f77b4"/>
   </g>
   <g id="patch_151">
    <path d="M 388.9635 251.12 
L 429.6545 251.12 
L 429.6545 251.112353 
L 388.9635 251.112353 
z
" clip-path="url(#pd68a071676)" style="fill: #1f77b4"/>
   </g>
   <g id="patch_152">
    <path d="M 63.4355 251.12 
L 104.1265 251.12 
L 104.1265 250.821784 
L 63.4355 250.821784 
z
" clip-path="url(#pd68a071676)" style="fill: #1f77b4"/>
   </g>
   <g id="patch_153">
    <path d="M 144.8175 251.12 
L 185.5085 251.12 
L 185.5085 250.959422 
L 144.8175 250.959422 
z
" clip-path="url(#pd68a071676)" style="fill: #1f77b4"/>
   </g>
   <g id="patch_154">
    <path d="M 226.1995 251.12 
L 266.8905 251.12 
L 266.8905 250.913543 
L 226.1995 250.913543 
z
" clip-path="url(#pd68a071676)" style="fill: #1f77b4"/>
   </g>
   <g id="patch_155">
    <path d="M 307.5815 251.12 
L 348.2725 251.12 
L 348.2725 250.844724 
L 307.5815 250.844724 
z
" clip-path="url(#pd68a071676)" style="fill: #1f77b4"/>
   </g>
   <g id="patch_156">
    <path d="M 388.9635 251.12 
L 429.6545 251.12 
L 429.6545 251.051181 
L 388.9635 251.051181 
z
" clip-path="url(#pd68a071676)" style="fill: #1f77b4"/>
   </g>
   <g id="patch_157">
    <path d="M 63.4355 251.12 
L 104.1265 251.12 
L 104.1265 251.12 
L 63.4355 251.12 
z
" clip-path="url(#pd68a071676)" style="fill: #1f77b4"/>
   </g>
   <g id="patch_158">
    <path d="M 144.8175 251.12 
L 185.5085 251.12 
L 185.5085 251.12 
L 144.8175 251.12 
z
" clip-path="url(#pd68a071676)" style="fill: #1f77b4"/>
   </g>
   <g id="patch_159">
    <path d="M 226.1995 251.12 
L 266.8905 251.12 
L 266.8905 251.12 
L 226.1995 251.12 
z
" clip-path="url(#pd68a071676)" style="fill: #1f77b4"/>
   </g>
   <g id="patch_160">
    <path d="M 307.5815 251.12 
L 348.2725 251.12 
L 348.2725 251.12 
L 307.5815 251.12 
z
" clip-path="url(#pd68a071676)" style="fill: #1f77b4"/>
   </g>
   <g id="patch_161">
    <path d="M 63.4355 251.12 
L 104.1265 251.12 
L 104.1265 251.12 
L 63.4355 251.12 
z
" clip-path="url(#pd68a071676)" style="fill: #1f77b4"/>
   </g>
   <g id="patch_162">
    <path d="M 144.8175 251.12 
L 185.5085 251.12 
L 185.5085 251.12 
L 144.8175 251.12 
z
" clip-path="url(#pd68a071676)" style="fill: #1f77b4"/>
   </g>
   <g id="patch_163">
    <path d="M 226.1995 251.12 
L 266.8905 251.12 
L 266.8905 251.12 
L 226.1995 251.12 
z
" clip-path="url(#pd68a071676)" style="fill: #1f77b4"/>
   </g>
   <g id="patch_164">
    <path d="M 63.4355 251.12 
L 104.1265 251.12 
L 104.1265 251.12 
L 63.4355 251.12 
z
" clip-path="url(#pd68a071676)" style="fill: #1f77b4"/>
   </g>
   <g id="patch_165">
    <path d="M 144.8175 251.12 
L 185.5085 251.12 
L 185.5085 251.12 
L 144.8175 251.12 
z
" clip-path="url(#pd68a071676)" style="fill: #1f77b4"/>
   </g>
   <g id="patch_166">
    <path d="M 226.1995 251.12 
L 266.8905 251.12 
L 266.8905 251.12 
L 226.1995 251.12 
z
" clip-path="url(#pd68a071676)" style="fill: #1f77b4"/>
   </g>
   <g id="patch_167">
    <path d="M 307.5815 251.12 
L 348.2725 251.12 
L 348.2725 251.12 
L 307.5815 251.12 
z
" clip-path="url(#pd68a071676)" style="fill: #1f77b4"/>
   </g>
   <g id="patch_168">
    <path d="M 63.4355 251.12 
L 104.1265 251.12 
L 104.1265 251.12 
L 63.4355 251.12 
z
" clip-path="url(#pd68a071676)" style="fill: #1f77b4"/>
   </g>
   <g id="patch_169">
    <path d="M 144.8175 251.12 
L 185.5085 251.12 
L 185.5085 251.12 
L 144.8175 251.12 
z
" clip-path="url(#pd68a071676)" style="fill: #1f77b4"/>
   </g>
   <g id="patch_170">
    <path d="M 63.4355 251.12 
L 104.1265 251.12 
L 104.1265 22.24381 
L 63.4355 22.24381 
z
" clip-path="url(#pd68a071676)" style="fill: #1f77b4"/>
   </g>
   <g id="patch_171">
    <path d="M 144.8175 251.12 
L 185.5085 251.12 
L 185.5085 105.307291 
L 144.8175 105.307291 
z
" clip-path="url(#pd68a071676)" style="fill: #1f77b4"/>
   </g>
   <g id="patch_172">
    <path d="M 226.1995 251.12 
L 266.8905 251.12 
L 266.8905 142.673897 
L 226.1995 142.673897 
z
" clip-path="url(#pd68a071676)" style="fill: #1f77b4"/>
   </g>
   <g id="patch_173">
    <path d="M 307.5815 251.12 
L 348.2725 251.12 
L 348.2725 133.824545 
L 307.5815 133.824545 
z
" clip-path="url(#pd68a071676)" style="fill: #1f77b4"/>
   </g>
   <g id="patch_174">
    <path d="M 388.9635 251.12 
L 429.6545 251.12 
L 429.6545 157.091139 
L 388.9635 157.091139 
z
" clip-path="url(#pd68a071676)" style="fill: #1f77b4"/>
   </g>
   <g id="patch_175">
    <path d="M 63.4355 251.12 
L 104.1265 251.12 
L 104.1265 250.7587 
L 63.4355 250.7587 
z
" clip-path="url(#pd68a071676)" style="fill: #1f77b4"/>
   </g>
   <g id="patch_176">
    <path d="M 144.8175 251.12 
L 185.5085 251.12 
L 185.5085 251.051181 
L 144.8175 251.051181 
z
" clip-path="url(#pd68a071676)" style="fill: #1f77b4"/>
   </g>
   <g id="patch_177">
    <path d="M 226.1995 251.12 
L 266.8905 251.12 
L 266.8905 251.051181 
L 226.1995 251.051181 
z
" clip-path="url(#pd68a071676)" style="fill: #1f77b4"/>
   </g>
   <g id="patch_178">
    <path d="M 307.5815 251.12 
L 348.2725 251.12 
L 348.2725 251.051181 
L 307.5815 251.051181 
z
" clip-path="url(#pd68a071676)" style="fill: #1f77b4"/>
   </g>
   <g id="patch_179">
    <path d="M 388.9635 251.12 
L 429.6545 251.12 
L 429.6545 251.016771 
L 388.9635 251.016771 
z
" clip-path="url(#pd68a071676)" style="fill: #1f77b4"/>
   </g>
   <g id="patch_180">
    <path d="M 63.4355 251.12 
L 104.1265 251.12 
L 104.1265 44.343512 
L 63.4355 44.343512 
z
" clip-path="url(#pd68a071676)" style="fill: #1f77b4"/>
   </g>
   <g id="patch_181">
    <path d="M 144.8175 251.12 
L 185.5085 251.12 
L 185.5085 144.606202 
L 144.8175 144.606202 
z
" clip-path="url(#pd68a071676)" style="fill: #1f77b4"/>
   </g>
   <g id="patch_182">
    <path d="M 226.1995 251.12 
L 266.8905 251.12 
L 266.8905 175.471748 
L 226.1995 175.471748 
z
" clip-path="url(#pd68a071676)" style="fill: #1f77b4"/>
   </g>
   <g id="patch_183">
    <path d="M 307.5815 251.12 
L 348.2725 251.12 
L 348.2725 164.345877 
L 307.5815 164.345877 
z
" clip-path="url(#pd68a071676)" style="fill: #1f77b4"/>
   </g>
   <g id="patch_184">
    <path d="M 388.9635 251.12 
L 429.6545 251.12 
L 429.6545 192.177114 
L 388.9635 192.177114 
z
" clip-path="url(#pd68a071676)" style="fill: #1f77b4"/>
   </g>
   <g id="patch_185">
    <path d="M 63.4355 251.12 
L 104.1265 251.12 
L 104.1265 247.185844 
L 63.4355 247.185844 
z
" clip-path="url(#pd68a071676)" style="fill: #1f77b4"/>
   </g>
   <g id="patch_186">
    <path d="M 144.8175 251.12 
L 185.5085 251.12 
L 185.5085 247.851095 
L 144.8175 247.851095 
z
" clip-path="url(#pd68a071676)" style="fill: #1f77b4"/>
   </g>
   <g id="patch_187">
    <path d="M 226.1995 251.12 
L 266.8905 251.12 
L 266.8905 250.661206 
L 226.1995 250.661206 
z
" clip-path="url(#pd68a071676)" style="fill: #1f77b4"/>
   </g>
   <g id="patch_188">
    <path d="M 307.5815 251.12 
L 348.2725 251.12 
L 348.2725 250.661206 
L 307.5815 250.661206 
z
" clip-path="url(#pd68a071676)" style="fill: #1f77b4"/>
   </g>
   <g id="patch_189">
    <path d="M 388.9635 251.12 
L 429.6545 251.12 
L 429.6545 250.803432 
L 388.9635 250.803432 
z
" clip-path="url(#pd68a071676)" style="fill: #1f77b4"/>
   </g>
   <g id="patch_190">
    <path d="M 63.4355 251.12 
L 104.1265 251.12 
L 104.1265 218.666084 
L 63.4355 218.666084 
z
" clip-path="url(#pd68a071676)" style="fill: #1f77b4"/>
   </g>
   <g id="patch_191">
    <path d="M 144.8175 251.12 
L 185.5085 251.12 
L 185.5085 240.24659 
L 144.8175 240.24659 
z
" clip-path="url(#pd68a071676)" style="fill: #1f77b4"/>
   </g>
   <g id="patch_192">
    <path d="M 226.1995 251.12 
L 266.8905 251.12 
L 266.8905 245.683295 
L 226.1995 245.683295 
z
" clip-path="url(#pd68a071676)" style="fill: #1f77b4"/>
   </g>
   <g id="patch_193">
    <path d="M 307.5815 251.12 
L 348.2725 251.12 
L 348.2725 245.683295 
L 307.5815 245.683295 
z
" clip-path="url(#pd68a071676)" style="fill: #1f77b4"/>
   </g>
   <g id="patch_194">
    <path d="M 388.9635 251.12 
L 429.6545 251.12 
L 429.6545 243.969701 
L 388.9635 243.969701 
z
" clip-path="url(#pd68a071676)" style="fill: #1f77b4"/>
   </g>
   <g id="patch_195">
    <path d="M 63.4355 251.12 
L 104.1265 251.12 
L 104.1265 250.947952 
L 63.4355 250.947952 
z
" clip-path="url(#pd68a071676)" style="fill: #1f77b4"/>
   </g>
   <g id="patch_196">
    <path d="M 144.8175 251.12 
L 185.5085 251.12 
L 185.5085 250.947952 
L 144.8175 250.947952 
z
" clip-path="url(#pd68a071676)" style="fill: #1f77b4"/>
   </g>
   <g id="patch_197">
    <path d="M 226.1995 251.12 
L 266.8905 251.12 
L 266.8905 250.947952 
L 226.1995 250.947952 
z
" clip-path="url(#pd68a071676)" style="fill: #1f77b4"/>
   </g>
   <g id="patch_198">
    <path d="M 307.5815 251.12 
L 348.2725 251.12 
L 348.2725 250.947952 
L 307.5815 250.947952 
z
" clip-path="url(#pd68a071676)" style="fill: #1f77b4"/>
   </g>
   <g id="patch_199">
    <path d="M 388.9635 251.12 
L 429.6545 251.12 
L 429.6545 250.947952 
L 388.9635 250.947952 
z
" clip-path="url(#pd68a071676)" style="fill: #1f77b4"/>
   </g>
   <g id="patch_200">
    <path d="M 63.4355 251.12 
L 104.1265 251.12 
L 104.1265 250.982362 
L 63.4355 250.982362 
z
" clip-path="url(#pd68a071676)" style="fill: #1f77b4"/>
   </g>
   <g id="patch_201">
    <path d="M 144.8175 251.12 
L 185.5085 251.12 
L 185.5085 250.982362 
L 144.8175 250.982362 
z
" clip-path="url(#pd68a071676)" style="fill: #1f77b4"/>
   </g>
   <g id="patch_202">
    <path d="M 226.1995 251.12 
L 266.8905 251.12 
L 266.8905 250.982362 
L 226.1995 250.982362 
z
" clip-path="url(#pd68a071676)" style="fill: #1f77b4"/>
   </g>
   <g id="patch_203">
    <path d="M 307.5815 251.12 
L 348.2725 251.12 
L 348.2725 251.102795 
L 307.5815 251.102795 
z
" clip-path="url(#pd68a071676)" style="fill: #1f77b4"/>
   </g>
   <g id="patch_204">
    <path d="M 388.9635 251.12 
L 429.6545 251.12 
L 429.6545 251.102795 
L 388.9635 251.102795 
z
" clip-path="url(#pd68a071676)" style="fill: #1f77b4"/>
   </g>
   <g id="patch_205">
    <path d="M 63.4355 251.12 
L 104.1265 251.12 
L 104.1265 212.82063 
L 63.4355 212.82063 
z
" clip-path="url(#pd68a071676)" style="fill: #1f77b4"/>
   </g>
   <g id="patch_206">
    <path d="M 144.8175 251.12 
L 185.5085 251.12 
L 185.5085 211.419172 
L 144.8175 211.419172 
z
" clip-path="url(#pd68a071676)" style="fill: #1f77b4"/>
   </g>
   <g id="patch_207">
    <path d="M 226.1995 251.12 
L 266.8905 251.12 
L 266.8905 236.788433 
L 226.1995 236.788433 
z
" clip-path="url(#pd68a071676)" style="fill: #1f77b4"/>
   </g>
   <g id="patch_208">
    <path d="M 307.5815 251.12 
L 348.2725 251.12 
L 348.2725 236.788433 
L 307.5815 236.788433 
z
" clip-path="url(#pd68a071676)" style="fill: #1f77b4"/>
   </g>
   <g id="patch_209">
    <path d="M 388.9635 251.12 
L 429.6545 251.12 
L 429.6545 212.344639 
L 388.9635 212.344639 
z
" clip-path="url(#pd68a071676)" style="fill: #1f77b4"/>
   </g>
   <g id="patch_210">
    <path d="M 63.4355 251.12 
L 104.1265 251.12 
L 104.1265 251.016771 
L 63.4355 251.016771 
z
" clip-path="url(#pd68a071676)" style="fill: #1f77b4"/>
   </g>
   <g id="patch_211">
    <path d="M 144.8175 251.12 
L 185.5085 251.12 
L 185.5085 251.016771 
L 144.8175 251.016771 
z
" clip-path="url(#pd68a071676)" style="fill: #1f77b4"/>
   </g>
   <g id="patch_212">
    <path d="M 226.1995 251.12 
L 266.8905 251.12 
L 266.8905 251.12 
L 226.1995 251.12 
z
" clip-path="url(#pd68a071676)" style="fill: #1f77b4"/>
   </g>
   <g id="patch_213">
    <path d="M 307.5815 251.12 
L 348.2725 251.12 
L 348.2725 251.12 
L 307.5815 251.12 
z
" clip-path="url(#pd68a071676)" style="fill: #1f77b4"/>
   </g>
   <g id="patch_214">
    <path d="M 388.9635 251.12 
L 429.6545 251.12 
L 429.6545 251.12 
L 388.9635 251.12 
z
" clip-path="url(#pd68a071676)" style="fill: #1f77b4"/>
   </g>
   <g id="patch_215">
    <path d="M 63.4355 251.12 
L 104.1265 251.12 
L 104.1265 228.33292 
L 63.4355 228.33292 
z
" clip-path="url(#pd68a071676)" style="fill: #1f77b4"/>
   </g>
   <g id="patch_216">
    <path d="M 144.8175 251.12 
L 185.5085 251.12 
L 185.5085 234.144342 
L 144.8175 234.144342 
z
" clip-path="url(#pd68a071676)" style="fill: #1f77b4"/>
   </g>
   <g id="patch_217">
    <path d="M 226.1995 251.12 
L 266.8905 251.12 
L 266.8905 238.506129 
L 226.1995 238.506129 
z
" clip-path="url(#pd68a071676)" style="fill: #1f77b4"/>
   </g>
   <g id="patch_218">
    <path d="M 307.5815 251.12 
L 348.2725 251.12 
L 348.2725 232.004367 
L 307.5815 232.004367 
z
" clip-path="url(#pd68a071676)" style="fill: #1f77b4"/>
   </g>
   <g id="patch_219">
    <path d="M 388.9635 251.12 
L 429.6545 251.12 
L 429.6545 246.328834 
L 388.9635 246.328834 
z
" clip-path="url(#pd68a071676)" style="fill: #1f77b4"/>
   </g>
   <g id="patch_220">
    <path d="M 63.4355 251.12 
L 104.1265 251.12 
L 104.1265 250.603857 
L 63.4355 250.603857 
z
" clip-path="url(#pd68a071676)" style="fill: #1f77b4"/>
   </g>
   <g id="patch_221">
    <path d="M 144.8175 251.12 
L 185.5085 251.12 
L 185.5085 250.638267 
L 144.8175 250.638267 
z
" clip-path="url(#pd68a071676)" style="fill: #1f77b4"/>
   </g>
   <g id="patch_222">
    <path d="M 226.1995 251.12 
L 266.8905 251.12 
L 266.8905 250.43181 
L 226.1995 250.43181 
z
" clip-path="url(#pd68a071676)" style="fill: #1f77b4"/>
   </g>
   <g id="patch_223">
    <path d="M 307.5815 251.12 
L 348.2725 251.12 
L 348.2725 250.947952 
L 307.5815 250.947952 
z
" clip-path="url(#pd68a071676)" style="fill: #1f77b4"/>
   </g>
   <g id="patch_224">
    <path d="M 388.9635 251.12 
L 429.6545 251.12 
L 429.6545 250.947952 
L 388.9635 250.947952 
z
" clip-path="url(#pd68a071676)" style="fill: #1f77b4"/>
   </g>
   <g id="matplotlib.axis_1">
    <g id="xtick_1">
     <g id="line2d_1">
      <defs>
       <path id="m7d3febda9d" d="M 0 0 
L 0 3.5 
" style="stroke: #000000; stroke-width: 0.8"/>
      </defs>
      <g>
       <use xlink:href="#m7d3febda9d" x="83.781" y="251.12" style="stroke: #000000; stroke-width: 0.8"/>
      </g>
     </g>
     <g id="text_1">
      <!-- Tom Sizemore -->
      <g transform="translate(86.540375 327.991875) rotate(-90) scale(0.1 -0.1)">
       <defs>
        <path id="DejaVuSans-54" d="M -19 4666 
L 3928 4666 
L 3928 4134 
L 2272 4134 
L 2272 0 
L 1638 0 
L 1638 4134 
L -19 4134 
L -19 4666 
z
" transform="scale(0.015625)"/>
        <path id="DejaVuSans-6f" d="M 1959 3097 
Q 1497 3097 1228 2736 
Q 959 2375 959 1747 
Q 959 1119 1226 758 
Q 1494 397 1959 397 
Q 2419 397 2687 759 
Q 2956 1122 2956 1747 
Q 2956 2369 2687 2733 
Q 2419 3097 1959 3097 
z
M 1959 3584 
Q 2709 3584 3137 3096 
Q 3566 2609 3566 1747 
Q 3566 888 3137 398 
Q 2709 -91 1959 -91 
Q 1206 -91 779 398 
Q 353 888 353 1747 
Q 353 2609 779 3096 
Q 1206 3584 1959 3584 
z
" transform="scale(0.015625)"/>
        <path id="DejaVuSans-6d" d="M 3328 2828 
Q 3544 3216 3844 3400 
Q 4144 3584 4550 3584 
Q 5097 3584 5394 3201 
Q 5691 2819 5691 2113 
L 5691 0 
L 5113 0 
L 5113 2094 
Q 5113 2597 4934 2840 
Q 4756 3084 4391 3084 
Q 3944 3084 3684 2787 
Q 3425 2491 3425 1978 
L 3425 0 
L 2847 0 
L 2847 2094 
Q 2847 2600 2669 2842 
Q 2491 3084 2119 3084 
Q 1678 3084 1418 2786 
Q 1159 2488 1159 1978 
L 1159 0 
L 581 0 
L 581 3500 
L 1159 3500 
L 1159 2956 
Q 1356 3278 1631 3431 
Q 1906 3584 2284 3584 
Q 2666 3584 2933 3390 
Q 3200 3197 3328 2828 
z
" transform="scale(0.015625)"/>
        <path id="DejaVuSans-20" transform="scale(0.015625)"/>
        <path id="DejaVuSans-53" d="M 3425 4513 
L 3425 3897 
Q 3066 4069 2747 4153 
Q 2428 4238 2131 4238 
Q 1616 4238 1336 4038 
Q 1056 3838 1056 3469 
Q 1056 3159 1242 3001 
Q 1428 2844 1947 2747 
L 2328 2669 
Q 3034 2534 3370 2195 
Q 3706 1856 3706 1288 
Q 3706 609 3251 259 
Q 2797 -91 1919 -91 
Q 1588 -91 1214 -16 
Q 841 59 441 206 
L 441 856 
Q 825 641 1194 531 
Q 1563 422 1919 422 
Q 2459 422 2753 634 
Q 3047 847 3047 1241 
Q 3047 1584 2836 1778 
Q 2625 1972 2144 2069 
L 1759 2144 
Q 1053 2284 737 2584 
Q 422 2884 422 3419 
Q 422 4038 858 4394 
Q 1294 4750 2059 4750 
Q 2388 4750 2728 4690 
Q 3069 4631 3425 4513 
z
" transform="scale(0.015625)"/>
        <path id="DejaVuSans-69" d="M 603 3500 
L 1178 3500 
L 1178 0 
L 603 0 
L 603 3500 
z
M 603 4863 
L 1178 4863 
L 1178 4134 
L 603 4134 
L 603 4863 
z
" transform="scale(0.015625)"/>
        <path id="DejaVuSans-7a" d="M 353 3500 
L 3084 3500 
L 3084 2975 
L 922 459 
L 3084 459 
L 3084 0 
L 275 0 
L 275 525 
L 2438 3041 
L 353 3041 
L 353 3500 
z
" transform="scale(0.015625)"/>
        <path id="DejaVuSans-65" d="M 3597 1894 
L 3597 1613 
L 953 1613 
Q 991 1019 1311 708 
Q 1631 397 2203 397 
Q 2534 397 2845 478 
Q 3156 559 3463 722 
L 3463 178 
Q 3153 47 2828 -22 
Q 2503 -91 2169 -91 
Q 1331 -91 842 396 
Q 353 884 353 1716 
Q 353 2575 817 3079 
Q 1281 3584 2069 3584 
Q 2775 3584 3186 3129 
Q 3597 2675 3597 1894 
z
M 3022 2063 
Q 3016 2534 2758 2815 
Q 2500 3097 2075 3097 
Q 1594 3097 1305 2825 
Q 1016 2553 972 2059 
L 3022 2063 
z
" transform="scale(0.015625)"/>
        <path id="DejaVuSans-72" d="M 2631 2963 
Q 2534 3019 2420 3045 
Q 2306 3072 2169 3072 
Q 1681 3072 1420 2755 
Q 1159 2438 1159 1844 
L 1159 0 
L 581 0 
L 581 3500 
L 1159 3500 
L 1159 2956 
Q 1341 3275 1631 3429 
Q 1922 3584 2338 3584 
Q 2397 3584 2469 3576 
Q 2541 3569 2628 3553 
L 2631 2963 
z
" transform="scale(0.015625)"/>
       </defs>
       <use xlink:href="#DejaVuSans-54"/>
       <use xlink:href="#DejaVuSans-6f" x="44.083984"/>
       <use xlink:href="#DejaVuSans-6d" x="105.265625"/>
       <use xlink:href="#DejaVuSans-20" x="202.677734"/>
       <use xlink:href="#DejaVuSans-53" x="234.464844"/>
       <use xlink:href="#DejaVuSans-69" x="297.941406"/>
       <use xlink:href="#DejaVuSans-7a" x="325.724609"/>
       <use xlink:href="#DejaVuSans-65" x="378.214844"/>
       <use xlink:href="#DejaVuSans-6d" x="439.738281"/>
       <use xlink:href="#DejaVuSans-6f" x="537.150391"/>
       <use xlink:href="#DejaVuSans-72" x="598.332031"/>
       <use xlink:href="#DejaVuSans-65" x="637.195312"/>
      </g>
     </g>
    </g>
    <g id="xtick_2">
     <g id="line2d_2">
      <g>
       <use xlink:href="#m7d3febda9d" x="165.163" y="251.12" style="stroke: #000000; stroke-width: 0.8"/>
      </g>
     </g>
     <g id="text_2">
      <!-- Jonathan Pryce -->
      <g transform="translate(167.922375 333.091875) rotate(-90) scale(0.1 -0.1)">
       <defs>
        <path id="DejaVuSans-4a" d="M 628 4666 
L 1259 4666 
L 1259 325 
Q 1259 -519 939 -900 
Q 619 -1281 -91 -1281 
L -331 -1281 
L -331 -750 
L -134 -750 
Q 284 -750 456 -515 
Q 628 -281 628 325 
L 628 4666 
z
" transform="scale(0.015625)"/>
        <path id="DejaVuSans-6e" d="M 3513 2113 
L 3513 0 
L 2938 0 
L 2938 2094 
Q 2938 2591 2744 2837 
Q 2550 3084 2163 3084 
Q 1697 3084 1428 2787 
Q 1159 2491 1159 1978 
L 1159 0 
L 581 0 
L 581 3500 
L 1159 3500 
L 1159 2956 
Q 1366 3272 1645 3428 
Q 1925 3584 2291 3584 
Q 2894 3584 3203 3211 
Q 3513 2838 3513 2113 
z
" transform="scale(0.015625)"/>
        <path id="DejaVuSans-61" d="M 2194 1759 
Q 1497 1759 1228 1600 
Q 959 1441 959 1056 
Q 959 750 1161 570 
Q 1363 391 1709 391 
Q 2188 391 2477 730 
Q 2766 1069 2766 1631 
L 2766 1759 
L 2194 1759 
z
M 3341 1997 
L 3341 0 
L 2766 0 
L 2766 531 
Q 2569 213 2275 61 
Q 1981 -91 1556 -91 
Q 1019 -91 701 211 
Q 384 513 384 1019 
Q 384 1609 779 1909 
Q 1175 2209 1959 2209 
L 2766 2209 
L 2766 2266 
Q 2766 2663 2505 2880 
Q 2244 3097 1772 3097 
Q 1472 3097 1187 3025 
Q 903 2953 641 2809 
L 641 3341 
Q 956 3463 1253 3523 
Q 1550 3584 1831 3584 
Q 2591 3584 2966 3190 
Q 3341 2797 3341 1997 
z
" transform="scale(0.015625)"/>
        <path id="DejaVuSans-74" d="M 1172 4494 
L 1172 3500 
L 2356 3500 
L 2356 3053 
L 1172 3053 
L 1172 1153 
Q 1172 725 1289 603 
Q 1406 481 1766 481 
L 2356 481 
L 2356 0 
L 1766 0 
Q 1100 0 847 248 
Q 594 497 594 1153 
L 594 3053 
L 172 3053 
L 172 3500 
L 594 3500 
L 594 4494 
L 1172 4494 
z
" transform="scale(0.015625)"/>
        <path id="DejaVuSans-68" d="M 3513 2113 
L 3513 0 
L 2938 0 
L 2938 2094 
Q 2938 2591 2744 2837 
Q 2550 3084 2163 3084 
Q 1697 3084 1428 2787 
Q 1159 2491 1159 1978 
L 1159 0 
L 581 0 
L 581 4863 
L 1159 4863 
L 1159 2956 
Q 1366 3272 1645 3428 
Q 1925 3584 2291 3584 
Q 2894 3584 3203 3211 
Q 3513 2838 3513 2113 
z
" transform="scale(0.015625)"/>
        <path id="DejaVuSans-50" d="M 1259 4147 
L 1259 2394 
L 2053 2394 
Q 2494 2394 2734 2622 
Q 2975 2850 2975 3272 
Q 2975 3691 2734 3919 
Q 2494 4147 2053 4147 
L 1259 4147 
z
M 628 4666 
L 2053 4666 
Q 2838 4666 3239 4311 
Q 3641 3956 3641 3272 
Q 3641 2581 3239 2228 
Q 2838 1875 2053 1875 
L 1259 1875 
L 1259 0 
L 628 0 
L 628 4666 
z
" transform="scale(0.015625)"/>
        <path id="DejaVuSans-79" d="M 2059 -325 
Q 1816 -950 1584 -1140 
Q 1353 -1331 966 -1331 
L 506 -1331 
L 506 -850 
L 844 -850 
Q 1081 -850 1212 -737 
Q 1344 -625 1503 -206 
L 1606 56 
L 191 3500 
L 800 3500 
L 1894 763 
L 2988 3500 
L 3597 3500 
L 2059 -325 
z
" transform="scale(0.015625)"/>
        <path id="DejaVuSans-63" d="M 3122 3366 
L 3122 2828 
Q 2878 2963 2633 3030 
Q 2388 3097 2138 3097 
Q 1578 3097 1268 2742 
Q 959 2388 959 1747 
Q 959 1106 1268 751 
Q 1578 397 2138 397 
Q 2388 397 2633 464 
Q 2878 531 3122 666 
L 3122 134 
Q 2881 22 2623 -34 
Q 2366 -91 2075 -91 
Q 1284 -91 818 406 
Q 353 903 353 1747 
Q 353 2603 823 3093 
Q 1294 3584 2113 3584 
Q 2378 3584 2631 3529 
Q 2884 3475 3122 3366 
z
" transform="scale(0.015625)"/>
       </defs>
       <use xlink:href="#DejaVuSans-4a"/>
       <use xlink:href="#DejaVuSans-6f" x="29.492188"/>
       <use xlink:href="#DejaVuSans-6e" x="90.673828"/>
       <use xlink:href="#DejaVuSans-61" x="154.052734"/>
       <use xlink:href="#DejaVuSans-74" x="215.332031"/>
       <use xlink:href="#DejaVuSans-68" x="254.541016"/>
       <use xlink:href="#DejaVuSans-61" x="317.919922"/>
       <use xlink:href="#DejaVuSans-6e" x="379.199219"/>
       <use xlink:href="#DejaVuSans-20" x="442.578125"/>
       <use xlink:href="#DejaVuSans-50" x="474.365234"/>
       <use xlink:href="#DejaVuSans-72" x="532.917969"/>
       <use xlink:href="#DejaVuSans-79" x="574.03125"/>
       <use xlink:href="#DejaVuSans-63" x="633.210938"/>
       <use xlink:href="#DejaVuSans-65" x="688.191406"/>
      </g>
     </g>
    </g>
    <g id="xtick_3">
     <g id="line2d_3">
      <g>
       <use xlink:href="#m7d3febda9d" x="246.545" y="251.12" style="stroke: #000000; stroke-width: 0.8"/>
      </g>
     </g>
     <g id="text_3">
      <!-- Nicolas Cage -->
      <g transform="translate(249.304375 322.902812) rotate(-90) scale(0.1 -0.1)">
       <defs>
        <path id="DejaVuSans-4e" d="M 628 4666 
L 1478 4666 
L 3547 763 
L 3547 4666 
L 4159 4666 
L 4159 0 
L 3309 0 
L 1241 3903 
L 1241 0 
L 628 0 
L 628 4666 
z
" transform="scale(0.015625)"/>
        <path id="DejaVuSans-6c" d="M 603 4863 
L 1178 4863 
L 1178 0 
L 603 0 
L 603 4863 
z
" transform="scale(0.015625)"/>
        <path id="DejaVuSans-73" d="M 2834 3397 
L 2834 2853 
Q 2591 2978 2328 3040 
Q 2066 3103 1784 3103 
Q 1356 3103 1142 2972 
Q 928 2841 928 2578 
Q 928 2378 1081 2264 
Q 1234 2150 1697 2047 
L 1894 2003 
Q 2506 1872 2764 1633 
Q 3022 1394 3022 966 
Q 3022 478 2636 193 
Q 2250 -91 1575 -91 
Q 1294 -91 989 -36 
Q 684 19 347 128 
L 347 722 
Q 666 556 975 473 
Q 1284 391 1588 391 
Q 1994 391 2212 530 
Q 2431 669 2431 922 
Q 2431 1156 2273 1281 
Q 2116 1406 1581 1522 
L 1381 1569 
Q 847 1681 609 1914 
Q 372 2147 372 2553 
Q 372 3047 722 3315 
Q 1072 3584 1716 3584 
Q 2034 3584 2315 3537 
Q 2597 3491 2834 3397 
z
" transform="scale(0.015625)"/>
        <path id="DejaVuSans-43" d="M 4122 4306 
L 4122 3641 
Q 3803 3938 3442 4084 
Q 3081 4231 2675 4231 
Q 1875 4231 1450 3742 
Q 1025 3253 1025 2328 
Q 1025 1406 1450 917 
Q 1875 428 2675 428 
Q 3081 428 3442 575 
Q 3803 722 4122 1019 
L 4122 359 
Q 3791 134 3420 21 
Q 3050 -91 2638 -91 
Q 1578 -91 968 557 
Q 359 1206 359 2328 
Q 359 3453 968 4101 
Q 1578 4750 2638 4750 
Q 3056 4750 3426 4639 
Q 3797 4528 4122 4306 
z
" transform="scale(0.015625)"/>
        <path id="DejaVuSans-67" d="M 2906 1791 
Q 2906 2416 2648 2759 
Q 2391 3103 1925 3103 
Q 1463 3103 1205 2759 
Q 947 2416 947 1791 
Q 947 1169 1205 825 
Q 1463 481 1925 481 
Q 2391 481 2648 825 
Q 2906 1169 2906 1791 
z
M 3481 434 
Q 3481 -459 3084 -895 
Q 2688 -1331 1869 -1331 
Q 1566 -1331 1297 -1286 
Q 1028 -1241 775 -1147 
L 775 -588 
Q 1028 -725 1275 -790 
Q 1522 -856 1778 -856 
Q 2344 -856 2625 -561 
Q 2906 -266 2906 331 
L 2906 616 
Q 2728 306 2450 153 
Q 2172 0 1784 0 
Q 1141 0 747 490 
Q 353 981 353 1791 
Q 353 2603 747 3093 
Q 1141 3584 1784 3584 
Q 2172 3584 2450 3431 
Q 2728 3278 2906 2969 
L 2906 3500 
L 3481 3500 
L 3481 434 
z
" transform="scale(0.015625)"/>
       </defs>
       <use xlink:href="#DejaVuSans-4e"/>
       <use xlink:href="#DejaVuSans-69" x="74.804688"/>
       <use xlink:href="#DejaVuSans-63" x="102.587891"/>
       <use xlink:href="#DejaVuSans-6f" x="157.568359"/>
       <use xlink:href="#DejaVuSans-6c" x="218.75"/>
       <use xlink:href="#DejaVuSans-61" x="246.533203"/>
       <use xlink:href="#DejaVuSans-73" x="307.8125"/>
       <use xlink:href="#DejaVuSans-20" x="359.912109"/>
       <use xlink:href="#DejaVuSans-43" x="391.699219"/>
       <use xlink:href="#DejaVuSans-61" x="461.523438"/>
       <use xlink:href="#DejaVuSans-67" x="522.802734"/>
       <use xlink:href="#DejaVuSans-65" x="586.279297"/>
      </g>
     </g>
    </g>
    <g id="xtick_4">
     <g id="line2d_4">
      <g>
       <use xlink:href="#m7d3febda9d" x="327.927" y="251.12" style="stroke: #000000; stroke-width: 0.8"/>
      </g>
     </g>
     <g id="text_4">
      <!-- Will Smith -->
      <g transform="translate(330.686375 308.42) rotate(-90) scale(0.1 -0.1)">
       <defs>
        <path id="DejaVuSans-57" d="M 213 4666 
L 850 4666 
L 1831 722 
L 2809 4666 
L 3519 4666 
L 4500 722 
L 5478 4666 
L 6119 4666 
L 4947 0 
L 4153 0 
L 3169 4050 
L 2175 0 
L 1381 0 
L 213 4666 
z
" transform="scale(0.015625)"/>
       </defs>
       <use xlink:href="#DejaVuSans-57"/>
       <use xlink:href="#DejaVuSans-69" x="96.626953"/>
       <use xlink:href="#DejaVuSans-6c" x="124.410156"/>
       <use xlink:href="#DejaVuSans-6c" x="152.193359"/>
       <use xlink:href="#DejaVuSans-20" x="179.976562"/>
       <use xlink:href="#DejaVuSans-53" x="211.763672"/>
       <use xlink:href="#DejaVuSans-6d" x="275.240234"/>
       <use xlink:href="#DejaVuSans-69" x="372.652344"/>
       <use xlink:href="#DejaVuSans-74" x="400.435547"/>
       <use xlink:href="#DejaVuSans-68" x="439.644531"/>
      </g>
     </g>
    </g>
    <g id="xtick_5">
     <g id="line2d_5">
      <g>
       <use xlink:href="#m7d3febda9d" x="409.309" y="251.12" style="stroke: #000000; stroke-width: 0.8"/>
      </g>
     </g>
     <g id="text_5">
      <!-- Gene Hackman -->
      <g transform="translate(412.068375 334.834062) rotate(-90) scale(0.1 -0.1)">
       <defs>
        <path id="DejaVuSans-47" d="M 3809 666 
L 3809 1919 
L 2778 1919 
L 2778 2438 
L 4434 2438 
L 4434 434 
Q 4069 175 3628 42 
Q 3188 -91 2688 -91 
Q 1594 -91 976 548 
Q 359 1188 359 2328 
Q 359 3472 976 4111 
Q 1594 4750 2688 4750 
Q 3144 4750 3555 4637 
Q 3966 4525 4313 4306 
L 4313 3634 
Q 3963 3931 3569 4081 
Q 3175 4231 2741 4231 
Q 1884 4231 1454 3753 
Q 1025 3275 1025 2328 
Q 1025 1384 1454 906 
Q 1884 428 2741 428 
Q 3075 428 3337 486 
Q 3600 544 3809 666 
z
" transform="scale(0.015625)"/>
        <path id="DejaVuSans-48" d="M 628 4666 
L 1259 4666 
L 1259 2753 
L 3553 2753 
L 3553 4666 
L 4184 4666 
L 4184 0 
L 3553 0 
L 3553 2222 
L 1259 2222 
L 1259 0 
L 628 0 
L 628 4666 
z
" transform="scale(0.015625)"/>
        <path id="DejaVuSans-6b" d="M 581 4863 
L 1159 4863 
L 1159 1991 
L 2875 3500 
L 3609 3500 
L 1753 1863 
L 3688 0 
L 2938 0 
L 1159 1709 
L 1159 0 
L 581 0 
L 581 4863 
z
" transform="scale(0.015625)"/>
       </defs>
       <use xlink:href="#DejaVuSans-47"/>
       <use xlink:href="#DejaVuSans-65" x="77.490234"/>
       <use xlink:href="#DejaVuSans-6e" x="139.013672"/>
       <use xlink:href="#DejaVuSans-65" x="202.392578"/>
       <use xlink:href="#DejaVuSans-20" x="263.916016"/>
       <use xlink:href="#DejaVuSans-48" x="295.703125"/>
       <use xlink:href="#DejaVuSans-61" x="370.898438"/>
       <use xlink:href="#DejaVuSans-63" x="432.177734"/>
       <use xlink:href="#DejaVuSans-6b" x="487.158203"/>
       <use xlink:href="#DejaVuSans-6d" x="545.068359"/>
       <use xlink:href="#DejaVuSans-61" x="642.480469"/>
       <use xlink:href="#DejaVuSans-6e" x="703.759766"/>
      </g>
     </g>
    </g>
   </g>
   <g id="matplotlib.axis_2">
    <g id="ytick_1">
     <g id="line2d_6">
      <defs>
       <path id="m7ae7356fbb" d="M 0 0 
L -3.5 0 
" style="stroke: #000000; stroke-width: 0.8"/>
      </defs>
      <g>
       <use xlink:href="#m7ae7356fbb" x="43.09" y="251.12" style="stroke: #000000; stroke-width: 0.8"/>
      </g>
     </g>
     <g id="text_6">
      <!-- 0 -->
      <g transform="translate(29.7275 254.919219) scale(0.1 -0.1)">
       <defs>
        <path id="DejaVuSans-30" d="M 2034 4250 
Q 1547 4250 1301 3770 
Q 1056 3291 1056 2328 
Q 1056 1369 1301 889 
Q 1547 409 2034 409 
Q 2525 409 2770 889 
Q 3016 1369 3016 2328 
Q 3016 3291 2770 3770 
Q 2525 4250 2034 4250 
z
M 2034 4750 
Q 2819 4750 3233 4129 
Q 3647 3509 3647 2328 
Q 3647 1150 3233 529 
Q 2819 -91 2034 -91 
Q 1250 -91 836 529 
Q 422 1150 422 2328 
Q 422 3509 836 4129 
Q 1250 4750 2034 4750 
z
" transform="scale(0.015625)"/>
       </defs>
       <use xlink:href="#DejaVuSans-30"/>
      </g>
     </g>
    </g>
    <g id="ytick_2">
     <g id="line2d_7">
      <g>
       <use xlink:href="#m7ae7356fbb" x="43.09" y="216.710476" style="stroke: #000000; stroke-width: 0.8"/>
      </g>
     </g>
     <g id="text_7">
      <!-- 500 -->
      <g transform="translate(17.0025 220.509694) scale(0.1 -0.1)">
       <defs>
        <path id="DejaVuSans-35" d="M 691 4666 
L 3169 4666 
L 3169 4134 
L 1269 4134 
L 1269 2991 
Q 1406 3038 1543 3061 
Q 1681 3084 1819 3084 
Q 2600 3084 3056 2656 
Q 3513 2228 3513 1497 
Q 3513 744 3044 326 
Q 2575 -91 1722 -91 
Q 1428 -91 1123 -41 
Q 819 9 494 109 
L 494 744 
Q 775 591 1075 516 
Q 1375 441 1709 441 
Q 2250 441 2565 725 
Q 2881 1009 2881 1497 
Q 2881 1984 2565 2268 
Q 2250 2553 1709 2553 
Q 1456 2553 1204 2497 
Q 953 2441 691 2322 
L 691 4666 
z
" transform="scale(0.015625)"/>
       </defs>
       <use xlink:href="#DejaVuSans-35"/>
       <use xlink:href="#DejaVuSans-30" x="63.623047"/>
       <use xlink:href="#DejaVuSans-30" x="127.246094"/>
      </g>
     </g>
    </g>
    <g id="ytick_3">
     <g id="line2d_8">
      <g>
       <use xlink:href="#m7ae7356fbb" x="43.09" y="182.300951" style="stroke: #000000; stroke-width: 0.8"/>
      </g>
     </g>
     <g id="text_8">
      <!-- 1000 -->
      <g transform="translate(10.64 186.10017) scale(0.1 -0.1)">
       <defs>
        <path id="DejaVuSans-31" d="M 794 531 
L 1825 531 
L 1825 4091 
L 703 3866 
L 703 4441 
L 1819 4666 
L 2450 4666 
L 2450 531 
L 3481 531 
L 3481 0 
L 794 0 
L 794 531 
z
" transform="scale(0.015625)"/>
       </defs>
       <use xlink:href="#DejaVuSans-31"/>
       <use xlink:href="#DejaVuSans-30" x="63.623047"/>
       <use xlink:href="#DejaVuSans-30" x="127.246094"/>
       <use xlink:href="#DejaVuSans-30" x="190.869141"/>
      </g>
     </g>
    </g>
    <g id="ytick_4">
     <g id="line2d_9">
      <g>
       <use xlink:href="#m7ae7356fbb" x="43.09" y="147.891427" style="stroke: #000000; stroke-width: 0.8"/>
      </g>
     </g>
     <g id="text_9">
      <!-- 1500 -->
      <g transform="translate(10.64 151.690646) scale(0.1 -0.1)">
       <use xlink:href="#DejaVuSans-31"/>
       <use xlink:href="#DejaVuSans-35" x="63.623047"/>
       <use xlink:href="#DejaVuSans-30" x="127.246094"/>
       <use xlink:href="#DejaVuSans-30" x="190.869141"/>
      </g>
     </g>
    </g>
    <g id="ytick_5">
     <g id="line2d_10">
      <g>
       <use xlink:href="#m7ae7356fbb" x="43.09" y="113.481902" style="stroke: #000000; stroke-width: 0.8"/>
      </g>
     </g>
     <g id="text_10">
      <!-- 2000 -->
      <g transform="translate(10.64 117.281121) scale(0.1 -0.1)">
       <defs>
        <path id="DejaVuSans-32" d="M 1228 531 
L 3431 531 
L 3431 0 
L 469 0 
L 469 531 
Q 828 903 1448 1529 
Q 2069 2156 2228 2338 
Q 2531 2678 2651 2914 
Q 2772 3150 2772 3378 
Q 2772 3750 2511 3984 
Q 2250 4219 1831 4219 
Q 1534 4219 1204 4116 
Q 875 4013 500 3803 
L 500 4441 
Q 881 4594 1212 4672 
Q 1544 4750 1819 4750 
Q 2544 4750 2975 4387 
Q 3406 4025 3406 3419 
Q 3406 3131 3298 2873 
Q 3191 2616 2906 2266 
Q 2828 2175 2409 1742 
Q 1991 1309 1228 531 
z
" transform="scale(0.015625)"/>
       </defs>
       <use xlink:href="#DejaVuSans-32"/>
       <use xlink:href="#DejaVuSans-30" x="63.623047"/>
       <use xlink:href="#DejaVuSans-30" x="127.246094"/>
       <use xlink:href="#DejaVuSans-30" x="190.869141"/>
      </g>
     </g>
    </g>
    <g id="ytick_6">
     <g id="line2d_11">
      <g>
       <use xlink:href="#m7ae7356fbb" x="43.09" y="79.072378" style="stroke: #000000; stroke-width: 0.8"/>
      </g>
     </g>
     <g id="text_11">
      <!-- 2500 -->
      <g transform="translate(10.64 82.871597) scale(0.1 -0.1)">
       <use xlink:href="#DejaVuSans-32"/>
       <use xlink:href="#DejaVuSans-35" x="63.623047"/>
       <use xlink:href="#DejaVuSans-30" x="127.246094"/>
       <use xlink:href="#DejaVuSans-30" x="190.869141"/>
      </g>
     </g>
    </g>
    <g id="ytick_7">
     <g id="line2d_12">
      <g>
       <use xlink:href="#m7ae7356fbb" x="43.09" y="44.662854" style="stroke: #000000; stroke-width: 0.8"/>
      </g>
     </g>
     <g id="text_12">
      <!-- 3000 -->
      <g transform="translate(10.64 48.462072) scale(0.1 -0.1)">
       <defs>
        <path id="DejaVuSans-33" d="M 2597 2516 
Q 3050 2419 3304 2112 
Q 3559 1806 3559 1356 
Q 3559 666 3084 287 
Q 2609 -91 1734 -91 
Q 1441 -91 1130 -33 
Q 819 25 488 141 
L 488 750 
Q 750 597 1062 519 
Q 1375 441 1716 441 
Q 2309 441 2620 675 
Q 2931 909 2931 1356 
Q 2931 1769 2642 2001 
Q 2353 2234 1838 2234 
L 1294 2234 
L 1294 2753 
L 1863 2753 
Q 2328 2753 2575 2939 
Q 2822 3125 2822 3475 
Q 2822 3834 2567 4026 
Q 2313 4219 1838 4219 
Q 1578 4219 1281 4162 
Q 984 4106 628 3988 
L 628 4550 
Q 988 4650 1302 4700 
Q 1616 4750 1894 4750 
Q 2613 4750 3031 4423 
Q 3450 4097 3450 3541 
Q 3450 3153 3228 2886 
Q 3006 2619 2597 2516 
z
" transform="scale(0.015625)"/>
       </defs>
       <use xlink:href="#DejaVuSans-33"/>
       <use xlink:href="#DejaVuSans-30" x="63.623047"/>
       <use xlink:href="#DejaVuSans-30" x="127.246094"/>
       <use xlink:href="#DejaVuSans-30" x="190.869141"/>
      </g>
     </g>
    </g>
   </g>
   <g id="patch_225">
    <path d="M 43.09 251.12 
L 43.09 10.8 
" style="fill: none; stroke: #000000; stroke-width: 0.8; stroke-linejoin: miter; stroke-linecap: square"/>
   </g>
   <g id="patch_226">
    <path d="M 450 251.12 
L 450 10.8 
" style="fill: none; stroke: #000000; stroke-width: 0.8; stroke-linejoin: miter; stroke-linecap: square"/>
   </g>
   <g id="patch_227">
    <path d="M 43.09 251.12 
L 450 251.12 
" style="fill: none; stroke: #000000; stroke-width: 0.8; stroke-linejoin: miter; stroke-linecap: square"/>
   </g>
   <g id="patch_228">
    <path d="M 43.09 10.8 
L 450 10.8 
" style="fill: none; stroke: #000000; stroke-width: 0.8; stroke-linejoin: miter; stroke-linecap: square"/>
   </g>
  </g>
 </g>
 <defs>
  <clipPath id="pd68a071676">
   <rect x="43.09" y="10.8" width="406.91" height="240.32"/>
  </clipPath>
 </defs>
</svg>
