<?xml version="1.0" encoding="utf-8" standalone="no"?>
<!DOCTYPE svg PUBLIC "-//W3C//DTD SVG 1.1//EN"
  "http://www.w3.org/Graphics/SVG/1.1/DTD/svg11.dtd">
<svg xmlns:xlink="http://www.w3.org/1999/xlink" width="460.8pt" height="345.6pt" viewBox="0 0 460.8 345.6" xmlns="http://www.w3.org/2000/svg" version="1.1">
 <metadata>
  <rdf:RDF xmlns:dc="http://purl.org/dc/elements/1.1/" xmlns:cc="http://creativecommons.org/ns#" xmlns:rdf="http://www.w3.org/1999/02/22-rdf-syntax-ns#">
   <cc:Work>
    <dc:type rdf:resource="http://purl.org/dc/dcmitype/StillImage"/>
    <dc:date>2022-12-20T12:31:10.957203</dc:date>
    <dc:format>image/svg+xml</dc:format>
    <dc:creator>
     <cc:Agent>
      <dc:title>Matplotlib v3.6.0, https://matplotlib.org/</dc:title>
     </cc:Agent>
    </dc:creator>
   </cc:Work>
  </rdf:RDF>
 </metadata>
 <defs>
  <style type="text/css">*{stroke-linejoin: round; stroke-linecap: butt}</style>
 </defs>
 <g id="figure_1">
  <g id="patch_1">
   <path d="M 0 345.6 
L 460.8 345.6 
L 460.8 0 
L 0 0 
z
" style="fill: #ffffff"/>
  </g>
  <g id="axes_1">
   <g id="patch_2">
    <path d="M 43.09 231.5 
L 450 231.5 
L 450 10.8 
L 43.09 10.8 
z
" style="fill: #ffffff"/>
   </g>
   <g id="patch_3">
    <path d="M 68.521875 231.5 
L 119.385625 231.5 
L 119.385625 160.43984 
L 68.521875 160.43984 
z
" clip-path="url(#p3d4e7d8c72)" style="fill: #1f77b4"/>
   </g>
   <g id="patch_4">
    <path d="M 170.249375 231.5 
L 221.113125 231.5 
L 221.113125 177.153119 
L 170.249375 177.153119 
z
" clip-path="url(#p3d4e7d8c72)" style="fill: #1f77b4"/>
   </g>
   <g id="patch_5">
    <path d="M 271.976875 231.5 
L 322.840625 231.5 
L 322.840625 172.181142 
L 271.976875 172.181142 
z
" clip-path="url(#p3d4e7d8c72)" style="fill: #1f77b4"/>
   </g>
   <g id="patch_6">
    <path d="M 373.704375 231.5 
L 424.568125 231.5 
L 424.568125 183.105753 
L 373.704375 183.105753 
z
" clip-path="url(#p3d4e7d8c72)" style="fill: #1f77b4"/>
   </g>
   <g id="patch_7">
    <path d="M 475.431875 231.5 
L 526.295625 231.5 
L 526.295625 202.38399 
L 475.431875 202.38399 
z
" clip-path="url(#p3d4e7d8c72)" style="fill: #1f77b4"/>
   </g>
   <g id="patch_8">
    <path d="M 68.521875 231.5 
L 119.385625 231.5 
L 119.385625 231.310398 
L 68.521875 231.310398 
z
" clip-path="url(#p3d4e7d8c72)" style="fill: #1f77b4"/>
   </g>
   <g id="patch_9">
    <path d="M 170.249375 231.5 
L 221.113125 231.5 
L 221.113125 231.436799 
L 170.249375 231.436799 
z
" clip-path="url(#p3d4e7d8c72)" style="fill: #1f77b4"/>
   </g>
   <g id="patch_10">
    <path d="M 271.976875 231.5 
L 322.840625 231.5 
L 322.840625 231.5 
L 271.976875 231.5 
z
" clip-path="url(#p3d4e7d8c72)" style="fill: #1f77b4"/>
   </g>
   <g id="patch_11">
    <path d="M 68.521875 231.5 
L 119.385625 231.5 
L 119.385625 231.478933 
L 68.521875 231.478933 
z
" clip-path="url(#p3d4e7d8c72)" style="fill: #1f77b4"/>
   </g>
   <g id="patch_12">
    <path d="M 170.249375 231.5 
L 221.113125 231.5 
L 221.113125 231.478933 
L 170.249375 231.478933 
z
" clip-path="url(#p3d4e7d8c72)" style="fill: #1f77b4"/>
   </g>
   <g id="patch_13">
    <path d="M 271.976875 231.5 
L 322.840625 231.5 
L 322.840625 231.478933 
L 271.976875 231.478933 
z
" clip-path="url(#p3d4e7d8c72)" style="fill: #1f77b4"/>
   </g>
   <g id="patch_14">
    <path d="M 373.704375 231.5 
L 424.568125 231.5 
L 424.568125 231.436799 
L 373.704375 231.436799 
z
" clip-path="url(#p3d4e7d8c72)" style="fill: #1f77b4"/>
   </g>
   <g id="patch_15">
    <path d="M 475.431875 231.5 
L 526.295625 231.5 
L 526.295625 231.5 
L 475.431875 231.5 
z
" clip-path="url(#p3d4e7d8c72)" style="fill: #1f77b4"/>
   </g>
   <g id="patch_16">
    <path d="M 68.521875 231.5 
L 119.385625 231.5 
L 119.385625 219.61829 
L 68.521875 219.61829 
z
" clip-path="url(#p3d4e7d8c72)" style="fill: #1f77b4"/>
   </g>
   <g id="patch_17">
    <path d="M 170.249375 231.5 
L 221.113125 231.5 
L 221.113125 228.150369 
L 170.249375 228.150369 
z
" clip-path="url(#p3d4e7d8c72)" style="fill: #1f77b4"/>
   </g>
   <g id="patch_18">
    <path d="M 271.976875 231.5 
L 322.840625 231.5 
L 322.840625 228.750775 
L 271.976875 228.750775 
z
" clip-path="url(#p3d4e7d8c72)" style="fill: #1f77b4"/>
   </g>
   <g id="patch_19">
    <path d="M 373.704375 231.5 
L 424.568125 231.5 
L 424.568125 219.934293 
L 373.704375 219.934293 
z
" clip-path="url(#p3d4e7d8c72)" style="fill: #1f77b4"/>
   </g>
   <g id="patch_20">
    <path d="M 475.431875 231.5 
L 526.295625 231.5 
L 526.295625 230.014786 
L 475.431875 230.014786 
z
" clip-path="url(#p3d4e7d8c72)" style="fill: #1f77b4"/>
   </g>
   <g id="patch_21">
    <path d="M 68.521875 231.5 
L 119.385625 231.5 
L 119.385625 231.436799 
L 68.521875 231.436799 
z
" clip-path="url(#p3d4e7d8c72)" style="fill: #1f77b4"/>
   </g>
   <g id="patch_22">
    <path d="M 170.249375 231.5 
L 221.113125 231.5 
L 221.113125 231.5 
L 170.249375 231.5 
z
" clip-path="url(#p3d4e7d8c72)" style="fill: #1f77b4"/>
   </g>
   <g id="patch_23">
    <path d="M 271.976875 231.5 
L 322.840625 231.5 
L 322.840625 231.5 
L 271.976875 231.5 
z
" clip-path="url(#p3d4e7d8c72)" style="fill: #1f77b4"/>
   </g>
   <g id="patch_24">
    <path d="M 373.704375 231.5 
L 424.568125 231.5 
L 424.568125 231.5 
L 373.704375 231.5 
z
" clip-path="url(#p3d4e7d8c72)" style="fill: #1f77b4"/>
   </g>
   <g id="patch_25">
    <path d="M 68.521875 231.5 
L 119.385625 231.5 
L 119.385625 229.793584 
L 68.521875 229.793584 
z
" clip-path="url(#p3d4e7d8c72)" style="fill: #1f77b4"/>
   </g>
   <g id="patch_26">
    <path d="M 170.249375 231.5 
L 221.113125 231.5 
L 221.113125 231.310398 
L 170.249375 231.310398 
z
" clip-path="url(#p3d4e7d8c72)" style="fill: #1f77b4"/>
   </g>
   <g id="patch_27">
    <path d="M 271.976875 231.5 
L 322.840625 231.5 
L 322.840625 231.436799 
L 271.976875 231.436799 
z
" clip-path="url(#p3d4e7d8c72)" style="fill: #1f77b4"/>
   </g>
   <g id="patch_28">
    <path d="M 373.704375 231.5 
L 424.568125 231.5 
L 424.568125 231.436799 
L 373.704375 231.436799 
z
" clip-path="url(#p3d4e7d8c72)" style="fill: #1f77b4"/>
   </g>
   <g id="patch_29">
    <path d="M 475.431875 231.5 
L 526.295625 231.5 
L 526.295625 231.057596 
L 475.431875 231.057596 
z
" clip-path="url(#p3d4e7d8c72)" style="fill: #1f77b4"/>
   </g>
   <g id="patch_30">
    <path d="M 68.521875 231.5 
L 119.385625 231.5 
L 119.385625 231.373599 
L 68.521875 231.373599 
z
" clip-path="url(#p3d4e7d8c72)" style="fill: #1f77b4"/>
   </g>
   <g id="patch_31">
    <path d="M 170.249375 231.5 
L 221.113125 231.5 
L 221.113125 231.373599 
L 170.249375 231.373599 
z
" clip-path="url(#p3d4e7d8c72)" style="fill: #1f77b4"/>
   </g>
   <g id="patch_32">
    <path d="M 271.976875 231.5 
L 322.840625 231.5 
L 322.840625 231.373599 
L 271.976875 231.373599 
z
" clip-path="url(#p3d4e7d8c72)" style="fill: #1f77b4"/>
   </g>
   <g id="patch_33">
    <path d="M 373.704375 231.5 
L 424.568125 231.5 
L 424.568125 231.373599 
L 373.704375 231.373599 
z
" clip-path="url(#p3d4e7d8c72)" style="fill: #1f77b4"/>
   </g>
   <g id="patch_34">
    <path d="M 475.431875 231.5 
L 526.295625 231.5 
L 526.295625 231.373599 
L 475.431875 231.373599 
z
" clip-path="url(#p3d4e7d8c72)" style="fill: #1f77b4"/>
   </g>
   <g id="patch_35">
    <path d="M 68.521875 231.5 
L 119.385625 231.5 
L 119.385625 231.310398 
L 68.521875 231.310398 
z
" clip-path="url(#p3d4e7d8c72)" style="fill: #1f77b4"/>
   </g>
   <g id="patch_36">
    <path d="M 170.249375 231.5 
L 221.113125 231.5 
L 221.113125 231.341999 
L 170.249375 231.341999 
z
" clip-path="url(#p3d4e7d8c72)" style="fill: #1f77b4"/>
   </g>
   <g id="patch_37">
    <path d="M 271.976875 231.5 
L 322.840625 231.5 
L 322.840625 231.436799 
L 271.976875 231.436799 
z
" clip-path="url(#p3d4e7d8c72)" style="fill: #1f77b4"/>
   </g>
   <g id="patch_38">
    <path d="M 373.704375 231.5 
L 424.568125 231.5 
L 424.568125 231.4684 
L 373.704375 231.4684 
z
" clip-path="url(#p3d4e7d8c72)" style="fill: #1f77b4"/>
   </g>
   <g id="patch_39">
    <path d="M 475.431875 231.5 
L 526.295625 231.5 
L 526.295625 231.4684 
L 475.431875 231.4684 
z
" clip-path="url(#p3d4e7d8c72)" style="fill: #1f77b4"/>
   </g>
   <g id="patch_40">
    <path d="M 68.521875 231.5 
L 119.385625 231.5 
L 119.385625 231.310398 
L 68.521875 231.310398 
z
" clip-path="url(#p3d4e7d8c72)" style="fill: #1f77b4"/>
   </g>
   <g id="patch_41">
    <path d="M 170.249375 231.5 
L 221.113125 231.5 
L 221.113125 231.5 
L 170.249375 231.5 
z
" clip-path="url(#p3d4e7d8c72)" style="fill: #1f77b4"/>
   </g>
   <g id="patch_42">
    <path d="M 271.976875 231.5 
L 322.840625 231.5 
L 322.840625 231.5 
L 271.976875 231.5 
z
" clip-path="url(#p3d4e7d8c72)" style="fill: #1f77b4"/>
   </g>
   <g id="patch_43">
    <path d="M 68.521875 231.5 
L 119.385625 231.5 
L 119.385625 231.310398 
L 68.521875 231.310398 
z
" clip-path="url(#p3d4e7d8c72)" style="fill: #1f77b4"/>
   </g>
   <g id="patch_44">
    <path d="M 170.249375 231.5 
L 221.113125 231.5 
L 221.113125 231.436799 
L 170.249375 231.436799 
z
" clip-path="url(#p3d4e7d8c72)" style="fill: #1f77b4"/>
   </g>
   <g id="patch_45">
    <path d="M 68.521875 231.5 
L 119.385625 231.5 
L 119.385625 161.813832 
L 68.521875 161.813832 
z
" clip-path="url(#p3d4e7d8c72)" style="fill: #1f77b4"/>
   </g>
   <g id="patch_46">
    <path d="M 170.249375 231.5 
L 221.113125 231.5 
L 221.113125 181.427913 
L 170.249375 181.427913 
z
" clip-path="url(#p3d4e7d8c72)" style="fill: #1f77b4"/>
   </g>
   <g id="patch_47">
    <path d="M 271.976875 231.5 
L 322.840625 231.5 
L 322.840625 187.979058 
L 271.976875 187.979058 
z
" clip-path="url(#p3d4e7d8c72)" style="fill: #1f77b4"/>
   </g>
   <g id="patch_48">
    <path d="M 373.704375 231.5 
L 424.568125 231.5 
L 424.568125 181.601832 
L 373.704375 181.601832 
z
" clip-path="url(#p3d4e7d8c72)" style="fill: #1f77b4"/>
   </g>
   <g id="patch_49">
    <path d="M 475.431875 231.5 
L 526.295625 231.5 
L 526.295625 194.800393 
L 475.431875 194.800393 
z
" clip-path="url(#p3d4e7d8c72)" style="fill: #1f77b4"/>
   </g>
   <g id="patch_50">
    <path d="M 68.521875 231.5 
L 119.385625 231.5 
L 119.385625 231.5 
L 68.521875 231.5 
z
" clip-path="url(#p3d4e7d8c72)" style="fill: #1f77b4"/>
   </g>
   <g id="patch_51">
    <path d="M 170.249375 231.5 
L 221.113125 231.5 
L 221.113125 231.5 
L 170.249375 231.5 
z
" clip-path="url(#p3d4e7d8c72)" style="fill: #1f77b4"/>
   </g>
   <g id="patch_52">
    <path d="M 271.976875 231.5 
L 322.840625 231.5 
L 322.840625 231.5 
L 271.976875 231.5 
z
" clip-path="url(#p3d4e7d8c72)" style="fill: #1f77b4"/>
   </g>
   <g id="patch_53">
    <path d="M 373.704375 231.5 
L 424.568125 231.5 
L 424.568125 231.5 
L 373.704375 231.5 
z
" clip-path="url(#p3d4e7d8c72)" style="fill: #1f77b4"/>
   </g>
   <g id="patch_54">
    <path d="M 475.431875 231.5 
L 526.295625 231.5 
L 526.295625 231.5 
L 475.431875 231.5 
z
" clip-path="url(#p3d4e7d8c72)" style="fill: #1f77b4"/>
   </g>
   <g id="patch_55">
    <path d="M 68.521875 231.5 
L 119.385625 231.5 
L 119.385625 231.436799 
L 68.521875 231.436799 
z
" clip-path="url(#p3d4e7d8c72)" style="fill: #1f77b4"/>
   </g>
   <g id="patch_56">
    <path d="M 170.249375 231.5 
L 221.113125 231.5 
L 221.113125 231.5 
L 170.249375 231.5 
z
" clip-path="url(#p3d4e7d8c72)" style="fill: #1f77b4"/>
   </g>
   <g id="patch_57">
    <path d="M 271.976875 231.5 
L 322.840625 231.5 
L 322.840625 231.5 
L 271.976875 231.5 
z
" clip-path="url(#p3d4e7d8c72)" style="fill: #1f77b4"/>
   </g>
   <g id="patch_58">
    <path d="M 373.704375 231.5 
L 424.568125 231.5 
L 424.568125 231.5 
L 373.704375 231.5 
z
" clip-path="url(#p3d4e7d8c72)" style="fill: #1f77b4"/>
   </g>
   <g id="patch_59">
    <path d="M 475.431875 231.5 
L 526.295625 231.5 
L 526.295625 231.5 
L 475.431875 231.5 
z
" clip-path="url(#p3d4e7d8c72)" style="fill: #1f77b4"/>
   </g>
   <g id="patch_60">
    <path d="M 68.521875 231.5 
L 119.385625 231.5 
L 119.385625 231.152397 
L 68.521875 231.152397 
z
" clip-path="url(#p3d4e7d8c72)" style="fill: #1f77b4"/>
   </g>
   <g id="patch_61">
    <path d="M 170.249375 231.5 
L 221.113125 231.5 
L 221.113125 231.310398 
L 170.249375 231.310398 
z
" clip-path="url(#p3d4e7d8c72)" style="fill: #1f77b4"/>
   </g>
   <g id="patch_62">
    <path d="M 271.976875 231.5 
L 322.840625 231.5 
L 322.840625 231.4684 
L 271.976875 231.4684 
z
" clip-path="url(#p3d4e7d8c72)" style="fill: #1f77b4"/>
   </g>
   <g id="patch_63">
    <path d="M 373.704375 231.5 
L 424.568125 231.5 
L 424.568125 231.5 
L 373.704375 231.5 
z
" clip-path="url(#p3d4e7d8c72)" style="fill: #1f77b4"/>
   </g>
   <g id="patch_64">
    <path d="M 475.431875 231.5 
L 526.295625 231.5 
L 526.295625 231.5 
L 475.431875 231.5 
z
" clip-path="url(#p3d4e7d8c72)" style="fill: #1f77b4"/>
   </g>
   <g id="patch_65">
    <path d="M 68.521875 231.5 
L 119.385625 231.5 
L 119.385625 224.516336 
L 68.521875 224.516336 
z
" clip-path="url(#p3d4e7d8c72)" style="fill: #1f77b4"/>
   </g>
   <g id="patch_66">
    <path d="M 170.249375 231.5 
L 221.113125 231.5 
L 221.113125 230.867994 
L 170.249375 230.867994 
z
" clip-path="url(#p3d4e7d8c72)" style="fill: #1f77b4"/>
   </g>
   <g id="patch_67">
    <path d="M 271.976875 231.5 
L 322.840625 231.5 
L 322.840625 227.686898 
L 271.976875 227.686898 
z
" clip-path="url(#p3d4e7d8c72)" style="fill: #1f77b4"/>
   </g>
   <g id="patch_68">
    <path d="M 373.704375 231.5 
L 424.568125 231.5 
L 424.568125 226.696756 
L 373.704375 226.696756 
z
" clip-path="url(#p3d4e7d8c72)" style="fill: #1f77b4"/>
   </g>
   <g id="patch_69">
    <path d="M 475.431875 231.5 
L 526.295625 231.5 
L 526.295625 227.613164 
L 475.431875 227.613164 
z
" clip-path="url(#p3d4e7d8c72)" style="fill: #1f77b4"/>
   </g>
   <g id="patch_70">
    <path d="M 68.521875 231.5 
L 119.385625 231.5 
L 119.385625 210.467505 
L 68.521875 210.467505 
z
" clip-path="url(#p3d4e7d8c72)" style="fill: #1f77b4"/>
   </g>
   <g id="patch_71">
    <path d="M 170.249375 231.5 
L 221.113125 231.5 
L 221.113125 213.485685 
L 170.249375 213.485685 
z
" clip-path="url(#p3d4e7d8c72)" style="fill: #1f77b4"/>
   </g>
   <g id="patch_72">
    <path d="M 271.976875 231.5 
L 322.840625 231.5 
L 322.840625 187.751966 
L 271.976875 187.751966 
z
" clip-path="url(#p3d4e7d8c72)" style="fill: #1f77b4"/>
   </g>
   <g id="patch_73">
    <path d="M 373.704375 231.5 
L 424.568125 231.5 
L 424.568125 205.119025 
L 373.704375 205.119025 
z
" clip-path="url(#p3d4e7d8c72)" style="fill: #1f77b4"/>
   </g>
   <g id="patch_74">
    <path d="M 475.431875 231.5 
L 526.295625 231.5 
L 526.295625 187.463929 
L 475.431875 187.463929 
z
" clip-path="url(#p3d4e7d8c72)" style="fill: #1f77b4"/>
   </g>
   <g id="patch_75">
    <path d="M 68.521875 231.5 
L 119.385625 231.5 
L 119.385625 231.5 
L 68.521875 231.5 
z
" clip-path="url(#p3d4e7d8c72)" style="fill: #1f77b4"/>
   </g>
   <g id="patch_76">
    <path d="M 170.249375 231.5 
L 221.113125 231.5 
L 221.113125 231.5 
L 170.249375 231.5 
z
" clip-path="url(#p3d4e7d8c72)" style="fill: #1f77b4"/>
   </g>
   <g id="patch_77">
    <path d="M 68.521875 231.5 
L 119.385625 231.5 
L 119.385625 230.709993 
L 68.521875 230.709993 
z
" clip-path="url(#p3d4e7d8c72)" style="fill: #1f77b4"/>
   </g>
   <g id="patch_78">
    <path d="M 170.249375 231.5 
L 221.113125 231.5 
L 221.113125 230.867994 
L 170.249375 230.867994 
z
" clip-path="url(#p3d4e7d8c72)" style="fill: #1f77b4"/>
   </g>
   <g id="patch_79">
    <path d="M 271.976875 231.5 
L 322.840625 231.5 
L 322.840625 231.120797 
L 271.976875 231.120797 
z
" clip-path="url(#p3d4e7d8c72)" style="fill: #1f77b4"/>
   </g>
   <g id="patch_80">
    <path d="M 373.704375 231.5 
L 424.568125 231.5 
L 424.568125 231.436799 
L 373.704375 231.436799 
z
" clip-path="url(#p3d4e7d8c72)" style="fill: #1f77b4"/>
   </g>
   <g id="patch_81">
    <path d="M 475.431875 231.5 
L 526.295625 231.5 
L 526.295625 231.373599 
L 475.431875 231.373599 
z
" clip-path="url(#p3d4e7d8c72)" style="fill: #1f77b4"/>
   </g>
   <g id="patch_82">
    <path d="M 68.521875 231.5 
L 119.385625 231.5 
L 119.385625 231.310398 
L 68.521875 231.310398 
z
" clip-path="url(#p3d4e7d8c72)" style="fill: #1f77b4"/>
   </g>
   <g id="patch_83">
    <path d="M 170.249375 231.5 
L 221.113125 231.5 
L 221.113125 231.310398 
L 170.249375 231.310398 
z
" clip-path="url(#p3d4e7d8c72)" style="fill: #1f77b4"/>
   </g>
   <g id="patch_84">
    <path d="M 271.976875 231.5 
L 322.840625 231.5 
L 322.840625 231.436799 
L 271.976875 231.436799 
z
" clip-path="url(#p3d4e7d8c72)" style="fill: #1f77b4"/>
   </g>
   <g id="patch_85">
    <path d="M 373.704375 231.5 
L 424.568125 231.5 
L 424.568125 231.5 
L 373.704375 231.5 
z
" clip-path="url(#p3d4e7d8c72)" style="fill: #1f77b4"/>
   </g>
   <g id="patch_86">
    <path d="M 475.431875 231.5 
L 526.295625 231.5 
L 526.295625 231.5 
L 475.431875 231.5 
z
" clip-path="url(#p3d4e7d8c72)" style="fill: #1f77b4"/>
   </g>
   <g id="patch_87">
    <path d="M 68.521875 231.5 
L 119.385625 231.5 
L 119.385625 230.172788 
L 68.521875 230.172788 
z
" clip-path="url(#p3d4e7d8c72)" style="fill: #1f77b4"/>
   </g>
   <g id="patch_88">
    <path d="M 170.249375 231.5 
L 221.113125 231.5 
L 221.113125 231.4684 
L 170.249375 231.4684 
z
" clip-path="url(#p3d4e7d8c72)" style="fill: #1f77b4"/>
   </g>
   <g id="patch_89">
    <path d="M 271.976875 231.5 
L 322.840625 231.5 
L 322.840625 231.4684 
L 271.976875 231.4684 
z
" clip-path="url(#p3d4e7d8c72)" style="fill: #1f77b4"/>
   </g>
   <g id="patch_90">
    <path d="M 373.704375 231.5 
L 424.568125 231.5 
L 424.568125 231.4684 
L 373.704375 231.4684 
z
" clip-path="url(#p3d4e7d8c72)" style="fill: #1f77b4"/>
   </g>
   <g id="patch_91">
    <path d="M 475.431875 231.5 
L 526.295625 231.5 
L 526.295625 231.4684 
L 475.431875 231.4684 
z
" clip-path="url(#p3d4e7d8c72)" style="fill: #1f77b4"/>
   </g>
   <g id="patch_92">
    <path d="M 68.521875 231.5 
L 119.385625 231.5 
L 119.385625 231.5 
L 68.521875 231.5 
z
" clip-path="url(#p3d4e7d8c72)" style="fill: #1f77b4"/>
   </g>
   <g id="patch_93">
    <path d="M 68.521875 231.5 
L 119.385625 231.5 
L 119.385625 231.183997 
L 68.521875 231.183997 
z
" clip-path="url(#p3d4e7d8c72)" style="fill: #1f77b4"/>
   </g>
   <g id="patch_94">
    <path d="M 170.249375 231.5 
L 221.113125 231.5 
L 221.113125 231.183997 
L 170.249375 231.183997 
z
" clip-path="url(#p3d4e7d8c72)" style="fill: #1f77b4"/>
   </g>
   <g id="patch_95">
    <path d="M 271.976875 231.5 
L 322.840625 231.5 
L 322.840625 231.436799 
L 271.976875 231.436799 
z
" clip-path="url(#p3d4e7d8c72)" style="fill: #1f77b4"/>
   </g>
   <g id="patch_96">
    <path d="M 68.521875 231.5 
L 119.385625 231.5 
L 119.385625 230.172788 
L 68.521875 230.172788 
z
" clip-path="url(#p3d4e7d8c72)" style="fill: #1f77b4"/>
   </g>
   <g id="patch_97">
    <path d="M 170.249375 231.5 
L 221.113125 231.5 
L 221.113125 231.436799 
L 170.249375 231.436799 
z
" clip-path="url(#p3d4e7d8c72)" style="fill: #1f77b4"/>
   </g>
   <g id="patch_98">
    <path d="M 271.976875 231.5 
L 322.840625 231.5 
L 322.840625 231.436799 
L 271.976875 231.436799 
z
" clip-path="url(#p3d4e7d8c72)" style="fill: #1f77b4"/>
   </g>
   <g id="patch_99">
    <path d="M 373.704375 231.5 
L 424.568125 231.5 
L 424.568125 231.5 
L 373.704375 231.5 
z
" clip-path="url(#p3d4e7d8c72)" style="fill: #1f77b4"/>
   </g>
   <g id="patch_100">
    <path d="M 475.431875 231.5 
L 526.295625 231.5 
L 526.295625 231.5 
L 475.431875 231.5 
z
" clip-path="url(#p3d4e7d8c72)" style="fill: #1f77b4"/>
   </g>
   <g id="patch_101">
    <path d="M 68.521875 231.5 
L 119.385625 231.5 
L 119.385625 231.5 
L 68.521875 231.5 
z
" clip-path="url(#p3d4e7d8c72)" style="fill: #1f77b4"/>
   </g>
   <g id="patch_102">
    <path d="M 68.521875 231.5 
L 119.385625 231.5 
L 119.385625 160.055546 
L 68.521875 160.055546 
z
" clip-path="url(#p3d4e7d8c72)" style="fill: #1f77b4"/>
   </g>
   <g id="patch_103">
    <path d="M 170.249375 231.5 
L 221.113125 231.5 
L 221.113125 175.775768 
L 170.249375 175.775768 
z
" clip-path="url(#p3d4e7d8c72)" style="fill: #1f77b4"/>
   </g>
   <g id="patch_104">
    <path d="M 271.976875 231.5 
L 322.840625 231.5 
L 322.840625 186.40742 
L 271.976875 186.40742 
z
" clip-path="url(#p3d4e7d8c72)" style="fill: #1f77b4"/>
   </g>
   <g id="patch_105">
    <path d="M 373.704375 231.5 
L 424.568125 231.5 
L 424.568125 194.600931 
L 373.704375 194.600931 
z
" clip-path="url(#p3d4e7d8c72)" style="fill: #1f77b4"/>
   </g>
   <g id="patch_106">
    <path d="M 475.431875 231.5 
L 526.295625 231.5 
L 526.295625 200.445486 
L 475.431875 200.445486 
z
" clip-path="url(#p3d4e7d8c72)" style="fill: #1f77b4"/>
   </g>
   <g id="patch_107">
    <path d="M 68.521875 231.5 
L 119.385625 231.5 
L 119.385625 231.183997 
L 68.521875 231.183997 
z
" clip-path="url(#p3d4e7d8c72)" style="fill: #1f77b4"/>
   </g>
   <g id="patch_108">
    <path d="M 170.249375 231.5 
L 221.113125 231.5 
L 221.113125 231.183997 
L 170.249375 231.183997 
z
" clip-path="url(#p3d4e7d8c72)" style="fill: #1f77b4"/>
   </g>
   <g id="patch_109">
    <path d="M 271.976875 231.5 
L 322.840625 231.5 
L 322.840625 231.183997 
L 271.976875 231.183997 
z
" clip-path="url(#p3d4e7d8c72)" style="fill: #1f77b4"/>
   </g>
   <g id="patch_110">
    <path d="M 373.704375 231.5 
L 424.568125 231.5 
L 424.568125 231.4684 
L 373.704375 231.4684 
z
" clip-path="url(#p3d4e7d8c72)" style="fill: #1f77b4"/>
   </g>
   <g id="patch_111">
    <path d="M 475.431875 231.5 
L 526.295625 231.5 
L 526.295625 231.4684 
L 475.431875 231.4684 
z
" clip-path="url(#p3d4e7d8c72)" style="fill: #1f77b4"/>
   </g>
   <g id="patch_112">
    <path d="M 68.521875 231.5 
L 119.385625 231.5 
L 119.385625 194.183388 
L 68.521875 194.183388 
z
" clip-path="url(#p3d4e7d8c72)" style="fill: #1f77b4"/>
   </g>
   <g id="patch_113">
    <path d="M 170.249375 231.5 
L 221.113125 231.5 
L 221.113125 194.256134 
L 170.249375 194.256134 
z
" clip-path="url(#p3d4e7d8c72)" style="fill: #1f77b4"/>
   </g>
   <g id="patch_114">
    <path d="M 271.976875 231.5 
L 322.840625 231.5 
L 322.840625 206.980936 
L 271.976875 206.980936 
z
" clip-path="url(#p3d4e7d8c72)" style="fill: #1f77b4"/>
   </g>
   <g id="patch_115">
    <path d="M 373.704375 231.5 
L 424.568125 231.5 
L 424.568125 205.87844 
L 373.704375 205.87844 
z
" clip-path="url(#p3d4e7d8c72)" style="fill: #1f77b4"/>
   </g>
   <g id="patch_116">
    <path d="M 475.431875 231.5 
L 526.295625 231.5 
L 526.295625 193.915978 
L 475.431875 193.915978 
z
" clip-path="url(#p3d4e7d8c72)" style="fill: #1f77b4"/>
   </g>
   <g id="patch_117">
    <path d="M 68.521875 231.5 
L 119.385625 231.5 
L 119.385625 231.120797 
L 68.521875 231.120797 
z
" clip-path="url(#p3d4e7d8c72)" style="fill: #1f77b4"/>
   </g>
   <g id="patch_118">
    <path d="M 170.249375 231.5 
L 221.113125 231.5 
L 221.113125 231.183997 
L 170.249375 231.183997 
z
" clip-path="url(#p3d4e7d8c72)" style="fill: #1f77b4"/>
   </g>
   <g id="patch_119">
    <path d="M 271.976875 231.5 
L 322.840625 231.5 
L 322.840625 231.310398 
L 271.976875 231.310398 
z
" clip-path="url(#p3d4e7d8c72)" style="fill: #1f77b4"/>
   </g>
   <g id="patch_120">
    <path d="M 373.704375 231.5 
L 424.568125 231.5 
L 424.568125 231.373599 
L 373.704375 231.373599 
z
" clip-path="url(#p3d4e7d8c72)" style="fill: #1f77b4"/>
   </g>
   <g id="patch_121">
    <path d="M 475.431875 231.5 
L 526.295625 231.5 
L 526.295625 231.4684 
L 475.431875 231.4684 
z
" clip-path="url(#p3d4e7d8c72)" style="fill: #1f77b4"/>
   </g>
   <g id="patch_122">
    <path d="M 68.521875 231.5 
L 119.385625 231.5 
L 119.385625 231.310398 
L 68.521875 231.310398 
z
" clip-path="url(#p3d4e7d8c72)" style="fill: #1f77b4"/>
   </g>
   <g id="patch_123">
    <path d="M 170.249375 231.5 
L 221.113125 231.5 
L 221.113125 231.4684 
L 170.249375 231.4684 
z
" clip-path="url(#p3d4e7d8c72)" style="fill: #1f77b4"/>
   </g>
   <g id="patch_124">
    <path d="M 271.976875 231.5 
L 322.840625 231.5 
L 322.840625 231.4684 
L 271.976875 231.4684 
z
" clip-path="url(#p3d4e7d8c72)" style="fill: #1f77b4"/>
   </g>
   <g id="patch_125">
    <path d="M 373.704375 231.5 
L 424.568125 231.5 
L 424.568125 231.436799 
L 373.704375 231.436799 
z
" clip-path="url(#p3d4e7d8c72)" style="fill: #1f77b4"/>
   </g>
   <g id="patch_126">
    <path d="M 475.431875 231.5 
L 526.295625 231.5 
L 526.295625 231.5 
L 475.431875 231.5 
z
" clip-path="url(#p3d4e7d8c72)" style="fill: #1f77b4"/>
   </g>
   <g id="patch_127">
    <path d="M 68.521875 231.5 
L 119.385625 231.5 
L 119.385625 231.310398 
L 68.521875 231.310398 
z
" clip-path="url(#p3d4e7d8c72)" style="fill: #1f77b4"/>
   </g>
   <g id="patch_128">
    <path d="M 170.249375 231.5 
L 221.113125 231.5 
L 221.113125 231.436799 
L 170.249375 231.436799 
z
" clip-path="url(#p3d4e7d8c72)" style="fill: #1f77b4"/>
   </g>
   <g id="patch_129">
    <path d="M 271.976875 231.5 
L 322.840625 231.5 
L 322.840625 231.5 
L 271.976875 231.5 
z
" clip-path="url(#p3d4e7d8c72)" style="fill: #1f77b4"/>
   </g>
   <g id="patch_130">
    <path d="M 373.704375 231.5 
L 424.568125 231.5 
L 424.568125 231.5 
L 373.704375 231.5 
z
" clip-path="url(#p3d4e7d8c72)" style="fill: #1f77b4"/>
   </g>
   <g id="patch_131">
    <path d="M 475.431875 231.5 
L 526.295625 231.5 
L 526.295625 231.5 
L 475.431875 231.5 
z
" clip-path="url(#p3d4e7d8c72)" style="fill: #1f77b4"/>
   </g>
   <g id="patch_132">
    <path d="M 68.521875 231.5 
L 119.385625 231.5 
L 119.385625 229.832558 
L 68.521875 229.832558 
z
" clip-path="url(#p3d4e7d8c72)" style="fill: #1f77b4"/>
   </g>
   <g id="patch_133">
    <path d="M 170.249375 231.5 
L 221.113125 231.5 
L 221.113125 231.120797 
L 170.249375 231.120797 
z
" clip-path="url(#p3d4e7d8c72)" style="fill: #1f77b4"/>
   </g>
   <g id="patch_134">
    <path d="M 271.976875 231.5 
L 322.840625 231.5 
L 322.840625 230.600445 
L 271.976875 230.600445 
z
" clip-path="url(#p3d4e7d8c72)" style="fill: #1f77b4"/>
   </g>
   <g id="patch_135">
    <path d="M 373.704375 231.5 
L 424.568125 231.5 
L 424.568125 230.600445 
L 373.704375 230.600445 
z
" clip-path="url(#p3d4e7d8c72)" style="fill: #1f77b4"/>
   </g>
   <g id="patch_136">
    <path d="M 475.431875 231.5 
L 526.295625 231.5 
L 526.295625 230.600445 
L 475.431875 230.600445 
z
" clip-path="url(#p3d4e7d8c72)" style="fill: #1f77b4"/>
   </g>
   <g id="patch_137">
    <path d="M 68.521875 231.5 
L 119.385625 231.5 
L 119.385625 218.60673 
L 68.521875 218.60673 
z
" clip-path="url(#p3d4e7d8c72)" style="fill: #1f77b4"/>
   </g>
   <g id="patch_138">
    <path d="M 170.249375 231.5 
L 221.113125 231.5 
L 221.113125 221.028717 
L 170.249375 221.028717 
z
" clip-path="url(#p3d4e7d8c72)" style="fill: #1f77b4"/>
   </g>
   <g id="patch_139">
    <path d="M 271.976875 231.5 
L 322.840625 231.5 
L 322.840625 229.71985 
L 271.976875 229.71985 
z
" clip-path="url(#p3d4e7d8c72)" style="fill: #1f77b4"/>
   </g>
   <g id="patch_140">
    <path d="M 373.704375 231.5 
L 424.568125 231.5 
L 424.568125 231.262998 
L 373.704375 231.262998 
z
" clip-path="url(#p3d4e7d8c72)" style="fill: #1f77b4"/>
   </g>
   <g id="patch_141">
    <path d="M 475.431875 231.5 
L 526.295625 231.5 
L 526.295625 231.262998 
L 475.431875 231.262998 
z
" clip-path="url(#p3d4e7d8c72)" style="fill: #1f77b4"/>
   </g>
   <g id="patch_142">
    <path d="M 68.521875 231.5 
L 119.385625 231.5 
L 119.385625 230.093787 
L 68.521875 230.093787 
z
" clip-path="url(#p3d4e7d8c72)" style="fill: #1f77b4"/>
   </g>
   <g id="patch_143">
    <path d="M 170.249375 231.5 
L 221.113125 231.5 
L 221.113125 230.583592 
L 170.249375 230.583592 
z
" clip-path="url(#p3d4e7d8c72)" style="fill: #1f77b4"/>
   </g>
   <g id="patch_144">
    <path d="M 271.976875 231.5 
L 322.840625 231.5 
L 322.840625 231.310398 
L 271.976875 231.310398 
z
" clip-path="url(#p3d4e7d8c72)" style="fill: #1f77b4"/>
   </g>
   <g id="patch_145">
    <path d="M 373.704375 231.5 
L 424.568125 231.5 
L 424.568125 231.360959 
L 373.704375 231.360959 
z
" clip-path="url(#p3d4e7d8c72)" style="fill: #1f77b4"/>
   </g>
   <g id="patch_146">
    <path d="M 475.431875 231.5 
L 526.295625 231.5 
L 526.295625 231.183997 
L 475.431875 231.183997 
z
" clip-path="url(#p3d4e7d8c72)" style="fill: #1f77b4"/>
   </g>
   <g id="patch_147">
    <path d="M 68.521875 231.5 
L 119.385625 231.5 
L 119.385625 231.366577 
L 68.521875 231.366577 
z
" clip-path="url(#p3d4e7d8c72)" style="fill: #1f77b4"/>
   </g>
   <g id="patch_148">
    <path d="M 170.249375 231.5 
L 221.113125 231.5 
L 221.113125 231.4684 
L 170.249375 231.4684 
z
" clip-path="url(#p3d4e7d8c72)" style="fill: #1f77b4"/>
   </g>
   <g id="patch_149">
    <path d="M 271.976875 231.5 
L 322.840625 231.5 
L 322.840625 231.4684 
L 271.976875 231.4684 
z
" clip-path="url(#p3d4e7d8c72)" style="fill: #1f77b4"/>
   </g>
   <g id="patch_150">
    <path d="M 373.704375 231.5 
L 424.568125 231.5 
L 424.568125 231.492978 
L 373.704375 231.492978 
z
" clip-path="url(#p3d4e7d8c72)" style="fill: #1f77b4"/>
   </g>
   <g id="patch_151">
    <path d="M 475.431875 231.5 
L 526.295625 231.5 
L 526.295625 231.492978 
L 475.431875 231.492978 
z
" clip-path="url(#p3d4e7d8c72)" style="fill: #1f77b4"/>
   </g>
   <g id="patch_152">
    <path d="M 68.521875 231.5 
L 119.385625 231.5 
L 119.385625 231.226131 
L 68.521875 231.226131 
z
" clip-path="url(#p3d4e7d8c72)" style="fill: #1f77b4"/>
   </g>
   <g id="patch_153">
    <path d="M 170.249375 231.5 
L 221.113125 231.5 
L 221.113125 231.352532 
L 170.249375 231.352532 
z
" clip-path="url(#p3d4e7d8c72)" style="fill: #1f77b4"/>
   </g>
   <g id="patch_154">
    <path d="M 271.976875 231.5 
L 322.840625 231.5 
L 322.840625 231.310398 
L 271.976875 231.310398 
z
" clip-path="url(#p3d4e7d8c72)" style="fill: #1f77b4"/>
   </g>
   <g id="patch_155">
    <path d="M 373.704375 231.5 
L 424.568125 231.5 
L 424.568125 231.247198 
L 373.704375 231.247198 
z
" clip-path="url(#p3d4e7d8c72)" style="fill: #1f77b4"/>
   </g>
   <g id="patch_156">
    <path d="M 475.431875 231.5 
L 526.295625 231.5 
L 526.295625 231.436799 
L 475.431875 231.436799 
z
" clip-path="url(#p3d4e7d8c72)" style="fill: #1f77b4"/>
   </g>
   <g id="patch_157">
    <path d="M 68.521875 231.5 
L 119.385625 231.5 
L 119.385625 231.5 
L 68.521875 231.5 
z
" clip-path="url(#p3d4e7d8c72)" style="fill: #1f77b4"/>
   </g>
   <g id="patch_158">
    <path d="M 170.249375 231.5 
L 221.113125 231.5 
L 221.113125 231.5 
L 170.249375 231.5 
z
" clip-path="url(#p3d4e7d8c72)" style="fill: #1f77b4"/>
   </g>
   <g id="patch_159">
    <path d="M 271.976875 231.5 
L 322.840625 231.5 
L 322.840625 231.5 
L 271.976875 231.5 
z
" clip-path="url(#p3d4e7d8c72)" style="fill: #1f77b4"/>
   </g>
   <g id="patch_160">
    <path d="M 373.704375 231.5 
L 424.568125 231.5 
L 424.568125 231.5 
L 373.704375 231.5 
z
" clip-path="url(#p3d4e7d8c72)" style="fill: #1f77b4"/>
   </g>
   <g id="patch_161">
    <path d="M 68.521875 231.5 
L 119.385625 231.5 
L 119.385625 231.5 
L 68.521875 231.5 
z
" clip-path="url(#p3d4e7d8c72)" style="fill: #1f77b4"/>
   </g>
   <g id="patch_162">
    <path d="M 170.249375 231.5 
L 221.113125 231.5 
L 221.113125 231.5 
L 170.249375 231.5 
z
" clip-path="url(#p3d4e7d8c72)" style="fill: #1f77b4"/>
   </g>
   <g id="patch_163">
    <path d="M 271.976875 231.5 
L 322.840625 231.5 
L 322.840625 231.5 
L 271.976875 231.5 
z
" clip-path="url(#p3d4e7d8c72)" style="fill: #1f77b4"/>
   </g>
   <g id="patch_164">
    <path d="M 68.521875 231.5 
L 119.385625 231.5 
L 119.385625 231.5 
L 68.521875 231.5 
z
" clip-path="url(#p3d4e7d8c72)" style="fill: #1f77b4"/>
   </g>
   <g id="patch_165">
    <path d="M 170.249375 231.5 
L 221.113125 231.5 
L 221.113125 231.5 
L 170.249375 231.5 
z
" clip-path="url(#p3d4e7d8c72)" style="fill: #1f77b4"/>
   </g>
   <g id="patch_166">
    <path d="M 271.976875 231.5 
L 322.840625 231.5 
L 322.840625 231.5 
L 271.976875 231.5 
z
" clip-path="url(#p3d4e7d8c72)" style="fill: #1f77b4"/>
   </g>
   <g id="patch_167">
    <path d="M 373.704375 231.5 
L 424.568125 231.5 
L 424.568125 231.5 
L 373.704375 231.5 
z
" clip-path="url(#p3d4e7d8c72)" style="fill: #1f77b4"/>
   </g>
   <g id="patch_168">
    <path d="M 68.521875 231.5 
L 119.385625 231.5 
L 119.385625 231.5 
L 68.521875 231.5 
z
" clip-path="url(#p3d4e7d8c72)" style="fill: #1f77b4"/>
   </g>
   <g id="patch_169">
    <path d="M 170.249375 231.5 
L 221.113125 231.5 
L 221.113125 231.5 
L 170.249375 231.5 
z
" clip-path="url(#p3d4e7d8c72)" style="fill: #1f77b4"/>
   </g>
   <g id="patch_170">
    <path d="M 68.521875 231.5 
L 119.385625 231.5 
L 119.385625 21.309524 
L 68.521875 21.309524 
z
" clip-path="url(#p3d4e7d8c72)" style="fill: #1f77b4"/>
   </g>
   <g id="patch_171">
    <path d="M 170.249375 231.5 
L 221.113125 231.5 
L 221.113125 97.591608 
L 170.249375 97.591608 
z
" clip-path="url(#p3d4e7d8c72)" style="fill: #1f77b4"/>
   </g>
   <g id="patch_172">
    <path d="M 271.976875 231.5 
L 322.840625 231.5 
L 322.840625 131.907561 
L 271.976875 131.907561 
z
" clip-path="url(#p3d4e7d8c72)" style="fill: #1f77b4"/>
   </g>
   <g id="patch_173">
    <path d="M 373.704375 231.5 
L 424.568125 231.5 
L 424.568125 123.78068 
L 373.704375 123.78068 
z
" clip-path="url(#p3d4e7d8c72)" style="fill: #1f77b4"/>
   </g>
   <g id="patch_174">
    <path d="M 475.431875 231.5 
L 526.295625 231.5 
L 526.295625 145.147763 
L 475.431875 145.147763 
z
" clip-path="url(#p3d4e7d8c72)" style="fill: #1f77b4"/>
   </g>
   <g id="patch_175">
    <path d="M 68.521875 231.5 
L 119.385625 231.5 
L 119.385625 231.168197 
L 68.521875 231.168197 
z
" clip-path="url(#p3d4e7d8c72)" style="fill: #1f77b4"/>
   </g>
   <g id="patch_176">
    <path d="M 170.249375 231.5 
L 221.113125 231.5 
L 221.113125 231.436799 
L 170.249375 231.436799 
z
" clip-path="url(#p3d4e7d8c72)" style="fill: #1f77b4"/>
   </g>
   <g id="patch_177">
    <path d="M 271.976875 231.5 
L 322.840625 231.5 
L 322.840625 231.436799 
L 271.976875 231.436799 
z
" clip-path="url(#p3d4e7d8c72)" style="fill: #1f77b4"/>
   </g>
   <g id="patch_178">
    <path d="M 373.704375 231.5 
L 424.568125 231.5 
L 424.568125 231.436799 
L 373.704375 231.436799 
z
" clip-path="url(#p3d4e7d8c72)" style="fill: #1f77b4"/>
   </g>
   <g id="patch_179">
    <path d="M 475.431875 231.5 
L 526.295625 231.5 
L 526.295625 231.405199 
L 475.431875 231.405199 
z
" clip-path="url(#p3d4e7d8c72)" style="fill: #1f77b4"/>
   </g>
   <g id="patch_180">
    <path d="M 68.521875 231.5 
L 119.385625 231.5 
L 119.385625 41.604981 
L 68.521875 41.604981 
z
" clip-path="url(#p3d4e7d8c72)" style="fill: #1f77b4"/>
   </g>
   <g id="patch_181">
    <path d="M 170.249375 231.5 
L 221.113125 231.5 
L 221.113125 133.682111 
L 170.249375 133.682111 
z
" clip-path="url(#p3d4e7d8c72)" style="fill: #1f77b4"/>
   </g>
   <g id="patch_182">
    <path d="M 271.976875 231.5 
L 322.840625 231.5 
L 322.840625 162.027758 
L 271.976875 162.027758 
z
" clip-path="url(#p3d4e7d8c72)" style="fill: #1f77b4"/>
   </g>
   <g id="patch_183">
    <path d="M 373.704375 231.5 
L 424.568125 231.5 
L 424.568125 151.810216 
L 373.704375 151.810216 
z
" clip-path="url(#p3d4e7d8c72)" style="fill: #1f77b4"/>
   </g>
   <g id="patch_184">
    <path d="M 475.431875 231.5 
L 526.295625 231.5 
L 526.295625 177.369279 
L 475.431875 177.369279 
z
" clip-path="url(#p3d4e7d8c72)" style="fill: #1f77b4"/>
   </g>
   <g id="patch_185">
    <path d="M 68.521875 231.5 
L 119.385625 231.5 
L 119.385625 227.887033 
L 68.521875 227.887033 
z
" clip-path="url(#p3d4e7d8c72)" style="fill: #1f77b4"/>
   </g>
   <g id="patch_186">
    <path d="M 170.249375 231.5 
L 221.113125 231.5 
L 221.113125 228.497972 
L 170.249375 228.497972 
z
" clip-path="url(#p3d4e7d8c72)" style="fill: #1f77b4"/>
   </g>
   <g id="patch_187">
    <path d="M 271.976875 231.5 
L 322.840625 231.5 
L 322.840625 231.078663 
L 271.976875 231.078663 
z
" clip-path="url(#p3d4e7d8c72)" style="fill: #1f77b4"/>
   </g>
   <g id="patch_188">
    <path d="M 373.704375 231.5 
L 424.568125 231.5 
L 424.568125 231.078663 
L 373.704375 231.078663 
z
" clip-path="url(#p3d4e7d8c72)" style="fill: #1f77b4"/>
   </g>
   <g id="patch_189">
    <path d="M 475.431875 231.5 
L 526.295625 231.5 
L 526.295625 231.209277 
L 475.431875 231.209277 
z
" clip-path="url(#p3d4e7d8c72)" style="fill: #1f77b4"/>
   </g>
   <g id="patch_190">
    <path d="M 68.521875 231.5 
L 119.385625 231.5 
L 119.385625 201.695658 
L 68.521875 201.695658 
z
" clip-path="url(#p3d4e7d8c72)" style="fill: #1f77b4"/>
   </g>
   <g id="patch_191">
    <path d="M 170.249375 231.5 
L 221.113125 231.5 
L 221.113125 221.514308 
L 170.249375 221.514308 
z
" clip-path="url(#p3d4e7d8c72)" style="fill: #1f77b4"/>
   </g>
   <g id="patch_192">
    <path d="M 271.976875 231.5 
L 322.840625 231.5 
L 322.840625 226.507154 
L 271.976875 226.507154 
z
" clip-path="url(#p3d4e7d8c72)" style="fill: #1f77b4"/>
   </g>
   <g id="patch_193">
    <path d="M 373.704375 231.5 
L 424.568125 231.5 
L 424.568125 226.507154 
L 373.704375 226.507154 
z
" clip-path="url(#p3d4e7d8c72)" style="fill: #1f77b4"/>
   </g>
   <g id="patch_194">
    <path d="M 475.431875 231.5 
L 526.295625 231.5 
L 526.295625 224.933459 
L 475.431875 224.933459 
z
" clip-path="url(#p3d4e7d8c72)" style="fill: #1f77b4"/>
   </g>
   <g id="patch_195">
    <path d="M 68.521875 231.5 
L 119.385625 231.5 
L 119.385625 231.341999 
L 68.521875 231.341999 
z
" clip-path="url(#p3d4e7d8c72)" style="fill: #1f77b4"/>
   </g>
   <g id="patch_196">
    <path d="M 170.249375 231.5 
L 221.113125 231.5 
L 221.113125 231.341999 
L 170.249375 231.341999 
z
" clip-path="url(#p3d4e7d8c72)" style="fill: #1f77b4"/>
   </g>
   <g id="patch_197">
    <path d="M 271.976875 231.5 
L 322.840625 231.5 
L 322.840625 231.341999 
L 271.976875 231.341999 
z
" clip-path="url(#p3d4e7d8c72)" style="fill: #1f77b4"/>
   </g>
   <g id="patch_198">
    <path d="M 373.704375 231.5 
L 424.568125 231.5 
L 424.568125 231.341999 
L 373.704375 231.341999 
z
" clip-path="url(#p3d4e7d8c72)" style="fill: #1f77b4"/>
   </g>
   <g id="patch_199">
    <path d="M 475.431875 231.5 
L 526.295625 231.5 
L 526.295625 231.341999 
L 475.431875 231.341999 
z
" clip-path="url(#p3d4e7d8c72)" style="fill: #1f77b4"/>
   </g>
   <g id="patch_200">
    <path d="M 68.521875 231.5 
L 119.385625 231.5 
L 119.385625 231.373599 
L 68.521875 231.373599 
z
" clip-path="url(#p3d4e7d8c72)" style="fill: #1f77b4"/>
   </g>
   <g id="patch_201">
    <path d="M 170.249375 231.5 
L 221.113125 231.5 
L 221.113125 231.373599 
L 170.249375 231.373599 
z
" clip-path="url(#p3d4e7d8c72)" style="fill: #1f77b4"/>
   </g>
   <g id="patch_202">
    <path d="M 271.976875 231.5 
L 322.840625 231.5 
L 322.840625 231.373599 
L 271.976875 231.373599 
z
" clip-path="url(#p3d4e7d8c72)" style="fill: #1f77b4"/>
   </g>
   <g id="patch_203">
    <path d="M 373.704375 231.5 
L 424.568125 231.5 
L 424.568125 231.4842 
L 373.704375 231.4842 
z
" clip-path="url(#p3d4e7d8c72)" style="fill: #1f77b4"/>
   </g>
   <g id="patch_204">
    <path d="M 475.431875 231.5 
L 526.295625 231.5 
L 526.295625 231.4842 
L 475.431875 231.4842 
z
" clip-path="url(#p3d4e7d8c72)" style="fill: #1f77b4"/>
   </g>
   <g id="patch_205">
    <path d="M 68.521875 231.5 
L 119.385625 231.5 
L 119.385625 196.327435 
L 68.521875 196.327435 
z
" clip-path="url(#p3d4e7d8c72)" style="fill: #1f77b4"/>
   </g>
   <g id="patch_206">
    <path d="M 170.249375 231.5 
L 221.113125 231.5 
L 221.113125 195.040393 
L 170.249375 195.040393 
z
" clip-path="url(#p3d4e7d8c72)" style="fill: #1f77b4"/>
   </g>
   <g id="patch_207">
    <path d="M 271.976875 231.5 
L 322.840625 231.5 
L 322.840625 218.338479 
L 271.976875 218.338479 
z
" clip-path="url(#p3d4e7d8c72)" style="fill: #1f77b4"/>
   </g>
   <g id="patch_208">
    <path d="M 373.704375 231.5 
L 424.568125 231.5 
L 424.568125 218.338479 
L 373.704375 218.338479 
z
" clip-path="url(#p3d4e7d8c72)" style="fill: #1f77b4"/>
   </g>
   <g id="patch_209">
    <path d="M 475.431875 231.5 
L 526.295625 231.5 
L 526.295625 195.890304 
L 475.431875 195.890304 
z
" clip-path="url(#p3d4e7d8c72)" style="fill: #1f77b4"/>
   </g>
   <g id="patch_210">
    <path d="M 68.521875 231.5 
L 119.385625 231.5 
L 119.385625 231.405199 
L 68.521875 231.405199 
z
" clip-path="url(#p3d4e7d8c72)" style="fill: #1f77b4"/>
   </g>
   <g id="patch_211">
    <path d="M 170.249375 231.5 
L 221.113125 231.5 
L 221.113125 231.405199 
L 170.249375 231.405199 
z
" clip-path="url(#p3d4e7d8c72)" style="fill: #1f77b4"/>
   </g>
   <g id="patch_212">
    <path d="M 271.976875 231.5 
L 322.840625 231.5 
L 322.840625 231.5 
L 271.976875 231.5 
z
" clip-path="url(#p3d4e7d8c72)" style="fill: #1f77b4"/>
   </g>
   <g id="patch_213">
    <path d="M 373.704375 231.5 
L 424.568125 231.5 
L 424.568125 231.5 
L 373.704375 231.5 
z
" clip-path="url(#p3d4e7d8c72)" style="fill: #1f77b4"/>
   </g>
   <g id="patch_214">
    <path d="M 475.431875 231.5 
L 526.295625 231.5 
L 526.295625 231.5 
L 475.431875 231.5 
z
" clip-path="url(#p3d4e7d8c72)" style="fill: #1f77b4"/>
   </g>
   <g id="patch_215">
    <path d="M 68.521875 231.5 
L 119.385625 231.5 
L 119.385625 210.573283 
L 68.521875 210.573283 
z
" clip-path="url(#p3d4e7d8c72)" style="fill: #1f77b4"/>
   </g>
   <g id="patch_216">
    <path d="M 170.249375 231.5 
L 221.113125 231.5 
L 221.113125 215.910254 
L 170.249375 215.910254 
z
" clip-path="url(#p3d4e7d8c72)" style="fill: #1f77b4"/>
   </g>
   <g id="patch_217">
    <path d="M 271.976875 231.5 
L 322.840625 231.5 
L 322.840625 219.91594 
L 271.976875 219.91594 
z
" clip-path="url(#p3d4e7d8c72)" style="fill: #1f77b4"/>
   </g>
   <g id="patch_218">
    <path d="M 373.704375 231.5 
L 424.568125 231.5 
L 424.568125 213.944989 
L 373.704375 213.944989 
z
" clip-path="url(#p3d4e7d8c72)" style="fill: #1f77b4"/>
   </g>
   <g id="patch_219">
    <path d="M 475.431875 231.5 
L 526.295625 231.5 
L 526.295625 227.09999 
L 475.431875 227.09999 
z
" clip-path="url(#p3d4e7d8c72)" style="fill: #1f77b4"/>
   </g>
   <g id="patch_220">
    <path d="M 68.521875 231.5 
L 119.385625 231.5 
L 119.385625 231.025996 
L 68.521875 231.025996 
z
" clip-path="url(#p3d4e7d8c72)" style="fill: #1f77b4"/>
   </g>
   <g id="patch_221">
    <path d="M 170.249375 231.5 
L 221.113125 231.5 
L 221.113125 231.057596 
L 170.249375 231.057596 
z
" clip-path="url(#p3d4e7d8c72)" style="fill: #1f77b4"/>
   </g>
   <g id="patch_222">
    <path d="M 271.976875 231.5 
L 322.840625 231.5 
L 322.840625 230.867994 
L 271.976875 230.867994 
z
" clip-path="url(#p3d4e7d8c72)" style="fill: #1f77b4"/>
   </g>
   <g id="patch_223">
    <path d="M 373.704375 231.5 
L 424.568125 231.5 
L 424.568125 231.341999 
L 373.704375 231.341999 
z
" clip-path="url(#p3d4e7d8c72)" style="fill: #1f77b4"/>
   </g>
   <g id="patch_224">
    <path d="M 475.431875 231.5 
L 526.295625 231.5 
L 526.295625 231.341999 
L 475.431875 231.341999 
z
" clip-path="url(#p3d4e7d8c72)" style="fill: #1f77b4"/>
   </g>
   <g id="patch_225">
    <path d="M 68.521875 231.5 
L 119.385625 231.5 
L 119.385625 231.057596 
L 68.521875 231.057596 
z
" clip-path="url(#p3d4e7d8c72)" style="fill: #1f77b4"/>
   </g>
   <g id="patch_226">
    <path d="M 170.249375 231.5 
L 221.113125 231.5 
L 221.113125 231.057596 
L 170.249375 231.057596 
z
" clip-path="url(#p3d4e7d8c72)" style="fill: #1f77b4"/>
   </g>
   <g id="patch_227">
    <path d="M 271.976875 231.5 
L 322.840625 231.5 
L 322.840625 231.057596 
L 271.976875 231.057596 
z
" clip-path="url(#p3d4e7d8c72)" style="fill: #1f77b4"/>
   </g>
   <g id="patch_228">
    <path d="M 373.704375 231.5 
L 424.568125 231.5 
L 424.568125 231.478933 
L 373.704375 231.478933 
z
" clip-path="url(#p3d4e7d8c72)" style="fill: #1f77b4"/>
   </g>
   <g id="patch_229">
    <path d="M 475.431875 231.5 
L 526.295625 231.5 
L 526.295625 231.478933 
L 475.431875 231.478933 
z
" clip-path="url(#p3d4e7d8c72)" style="fill: #1f77b4"/>
   </g>
   <g id="patch_230">
    <path d="M 68.521875 231.5 
L 119.385625 231.5 
L 119.385625 231.120797 
L 68.521875 231.120797 
z
" clip-path="url(#p3d4e7d8c72)" style="fill: #1f77b4"/>
   </g>
   <g id="patch_231">
    <path d="M 170.249375 231.5 
L 221.113125 231.5 
L 221.113125 231.436799 
L 170.249375 231.436799 
z
" clip-path="url(#p3d4e7d8c72)" style="fill: #1f77b4"/>
   </g>
   <g id="patch_232">
    <path d="M 271.976875 231.5 
L 322.840625 231.5 
L 322.840625 231.436799 
L 271.976875 231.436799 
z
" clip-path="url(#p3d4e7d8c72)" style="fill: #1f77b4"/>
   </g>
   <g id="patch_233">
    <path d="M 373.704375 231.5 
L 424.568125 231.5 
L 424.568125 231.5 
L 373.704375 231.5 
z
" clip-path="url(#p3d4e7d8c72)" style="fill: #1f77b4"/>
   </g>
   <g id="patch_234">
    <path d="M 475.431875 231.5 
L 526.295625 231.5 
L 526.295625 231.5 
L 475.431875 231.5 
z
" clip-path="url(#p3d4e7d8c72)" style="fill: #1f77b4"/>
   </g>
   <g id="patch_235">
    <path d="M 68.521875 231.5 
L 119.385625 231.5 
L 119.385625 225.739718 
L 68.521875 225.739718 
z
" clip-path="url(#p3d4e7d8c72)" style="fill: #1f77b4"/>
   </g>
   <g id="patch_236">
    <path d="M 170.249375 231.5 
L 221.113125 231.5 
L 221.113125 229.21575 
L 170.249375 229.21575 
z
" clip-path="url(#p3d4e7d8c72)" style="fill: #1f77b4"/>
   </g>
   <g id="patch_237">
    <path d="M 271.976875 231.5 
L 322.840625 231.5 
L 322.840625 229.21575 
L 271.976875 229.21575 
z
" clip-path="url(#p3d4e7d8c72)" style="fill: #1f77b4"/>
   </g>
   <g id="patch_238">
    <path d="M 373.704375 231.5 
L 424.568125 231.5 
L 424.568125 228.10974 
L 373.704375 228.10974 
z
" clip-path="url(#p3d4e7d8c72)" style="fill: #1f77b4"/>
   </g>
   <g id="patch_239">
    <path d="M 475.431875 231.5 
L 526.295625 231.5 
L 526.295625 229.310551 
L 475.431875 229.310551 
z
" clip-path="url(#p3d4e7d8c72)" style="fill: #1f77b4"/>
   </g>
   <g id="patch_240">
    <path d="M 68.521875 231.5 
L 119.385625 231.5 
L 119.385625 231.5 
L 68.521875 231.5 
z
" clip-path="url(#p3d4e7d8c72)" style="fill: #1f77b4"/>
   </g>
   <g id="patch_241">
    <path d="M 68.521875 231.5 
L 119.385625 231.5 
L 119.385625 136.19889 
L 68.521875 136.19889 
z
" clip-path="url(#p3d4e7d8c72)" style="fill: #1f77b4"/>
   </g>
   <g id="patch_242">
    <path d="M 170.249375 231.5 
L 221.113125 231.5 
L 221.113125 153.575521 
L 170.249375 153.575521 
z
" clip-path="url(#p3d4e7d8c72)" style="fill: #1f77b4"/>
   </g>
   <g id="patch_243">
    <path d="M 271.976875 231.5 
L 322.840625 231.5 
L 322.840625 151.43166 
L 271.976875 151.43166 
z
" clip-path="url(#p3d4e7d8c72)" style="fill: #1f77b4"/>
   </g>
   <g id="patch_244">
    <path d="M 373.704375 231.5 
L 424.568125 231.5 
L 424.568125 162.856564 
L 373.704375 162.856564 
z
" clip-path="url(#p3d4e7d8c72)" style="fill: #1f77b4"/>
   </g>
   <g id="patch_245">
    <path d="M 475.431875 231.5 
L 526.295625 231.5 
L 526.295625 200.66206 
L 475.431875 200.66206 
z
" clip-path="url(#p3d4e7d8c72)" style="fill: #1f77b4"/>
   </g>
   <g id="patch_246">
    <path d="M 68.521875 231.5 
L 119.385625 231.5 
L 119.385625 176.791945 
L 68.521875 176.791945 
z
" clip-path="url(#p3d4e7d8c72)" style="fill: #1f77b4"/>
   </g>
   <g id="patch_247">
    <path d="M 170.249375 231.5 
L 221.113125 231.5 
L 221.113125 153.989014 
L 170.249375 153.989014 
z
" clip-path="url(#p3d4e7d8c72)" style="fill: #1f77b4"/>
   </g>
   <g id="patch_248">
    <path d="M 271.976875 231.5 
L 322.840625 231.5 
L 322.840625 191.239865 
L 271.976875 191.239865 
z
" clip-path="url(#p3d4e7d8c72)" style="fill: #1f77b4"/>
   </g>
   <g id="patch_249">
    <path d="M 373.704375 231.5 
L 424.568125 231.5 
L 424.568125 193.168278 
L 373.704375 193.168278 
z
" clip-path="url(#p3d4e7d8c72)" style="fill: #1f77b4"/>
   </g>
   <g id="patch_250">
    <path d="M 475.431875 231.5 
L 526.295625 231.5 
L 526.295625 205.612563 
L 475.431875 205.612563 
z
" clip-path="url(#p3d4e7d8c72)" style="fill: #1f77b4"/>
   </g>
   <g id="patch_251">
    <path d="M 68.521875 231.5 
L 119.385625 231.5 
L 119.385625 231.478933 
L 68.521875 231.478933 
z
" clip-path="url(#p3d4e7d8c72)" style="fill: #1f77b4"/>
   </g>
   <g id="patch_252">
    <path d="M 170.249375 231.5 
L 221.113125 231.5 
L 221.113125 231.478933 
L 170.249375 231.478933 
z
" clip-path="url(#p3d4e7d8c72)" style="fill: #1f77b4"/>
   </g>
   <g id="patch_253">
    <path d="M 271.976875 231.5 
L 322.840625 231.5 
L 322.840625 231.478933 
L 271.976875 231.478933 
z
" clip-path="url(#p3d4e7d8c72)" style="fill: #1f77b4"/>
   </g>
   <g id="patch_254">
    <path d="M 373.704375 231.5 
L 424.568125 231.5 
L 424.568125 231.5 
L 373.704375 231.5 
z
" clip-path="url(#p3d4e7d8c72)" style="fill: #1f77b4"/>
   </g>
   <g id="patch_255">
    <path d="M 475.431875 231.5 
L 526.295625 231.5 
L 526.295625 231.5 
L 475.431875 231.5 
z
" clip-path="url(#p3d4e7d8c72)" style="fill: #1f77b4"/>
   </g>
   <g id="patch_256">
    <path d="M 68.521875 231.5 
L 119.385625 231.5 
L 119.385625 229.730384 
L 68.521875 229.730384 
z
" clip-path="url(#p3d4e7d8c72)" style="fill: #1f77b4"/>
   </g>
   <g id="patch_257">
    <path d="M 170.249375 231.5 
L 221.113125 231.5 
L 221.113125 229.582916 
L 170.249375 229.582916 
z
" clip-path="url(#p3d4e7d8c72)" style="fill: #1f77b4"/>
   </g>
   <g id="patch_258">
    <path d="M 271.976875 231.5 
L 322.840625 231.5 
L 322.840625 231.341999 
L 271.976875 231.341999 
z
" clip-path="url(#p3d4e7d8c72)" style="fill: #1f77b4"/>
   </g>
   <g id="patch_259">
    <path d="M 373.704375 231.5 
L 424.568125 231.5 
L 424.568125 231.4526 
L 373.704375 231.4526 
z
" clip-path="url(#p3d4e7d8c72)" style="fill: #1f77b4"/>
   </g>
   <g id="patch_260">
    <path d="M 475.431875 231.5 
L 526.295625 231.5 
L 526.295625 231.4526 
L 475.431875 231.4526 
z
" clip-path="url(#p3d4e7d8c72)" style="fill: #1f77b4"/>
   </g>
   <g id="patch_261">
    <path d="M 68.521875 231.5 
L 119.385625 231.5 
L 119.385625 231.120797 
L 68.521875 231.120797 
z
" clip-path="url(#p3d4e7d8c72)" style="fill: #1f77b4"/>
   </g>
   <g id="patch_262">
    <path d="M 170.249375 231.5 
L 221.113125 231.5 
L 221.113125 231.247198 
L 170.249375 231.247198 
z
" clip-path="url(#p3d4e7d8c72)" style="fill: #1f77b4"/>
   </g>
   <g id="patch_263">
    <path d="M 271.976875 231.5 
L 322.840625 231.5 
L 322.840625 231.373599 
L 271.976875 231.373599 
z
" clip-path="url(#p3d4e7d8c72)" style="fill: #1f77b4"/>
   </g>
   <g id="patch_264">
    <path d="M 373.704375 231.5 
L 424.568125 231.5 
L 424.568125 231.373599 
L 373.704375 231.373599 
z
" clip-path="url(#p3d4e7d8c72)" style="fill: #1f77b4"/>
   </g>
   <g id="patch_265">
    <path d="M 475.431875 231.5 
L 526.295625 231.5 
L 526.295625 231.205064 
L 475.431875 231.205064 
z
" clip-path="url(#p3d4e7d8c72)" style="fill: #1f77b4"/>
   </g>
   <g id="patch_266">
    <path d="M 68.521875 231.5 
L 119.385625 231.5 
L 119.385625 231.278798 
L 68.521875 231.278798 
z
" clip-path="url(#p3d4e7d8c72)" style="fill: #1f77b4"/>
   </g>
   <g id="patch_267">
    <path d="M 170.249375 231.5 
L 221.113125 231.5 
L 221.113125 231.278798 
L 170.249375 231.278798 
z
" clip-path="url(#p3d4e7d8c72)" style="fill: #1f77b4"/>
   </g>
   <g id="patch_268">
    <path d="M 271.976875 231.5 
L 322.840625 231.5 
L 322.840625 231.4842 
L 271.976875 231.4842 
z
" clip-path="url(#p3d4e7d8c72)" style="fill: #1f77b4"/>
   </g>
   <g id="patch_269">
    <path d="M 373.704375 231.5 
L 424.568125 231.5 
L 424.568125 231.4842 
L 373.704375 231.4842 
z
" clip-path="url(#p3d4e7d8c72)" style="fill: #1f77b4"/>
   </g>
   <g id="patch_270">
    <path d="M 475.431875 231.5 
L 526.295625 231.5 
L 526.295625 231.4842 
L 475.431875 231.4842 
z
" clip-path="url(#p3d4e7d8c72)" style="fill: #1f77b4"/>
   </g>
   <g id="patch_271">
    <path d="M 68.521875 231.5 
L 119.385625 231.5 
L 119.385625 230.803038 
L 68.521875 230.803038 
z
" clip-path="url(#p3d4e7d8c72)" style="fill: #1f77b4"/>
   </g>
   <g id="patch_272">
    <path d="M 170.249375 231.5 
L 221.113125 231.5 
L 221.113125 231.450844 
L 170.249375 231.450844 
z
" clip-path="url(#p3d4e7d8c72)" style="fill: #1f77b4"/>
   </g>
   <g id="patch_273">
    <path d="M 271.976875 231.5 
L 322.840625 231.5 
L 322.840625 231.450844 
L 271.976875 231.450844 
z
" clip-path="url(#p3d4e7d8c72)" style="fill: #1f77b4"/>
   </g>
   <g id="patch_274">
    <path d="M 373.704375 231.5 
L 424.568125 231.5 
L 424.568125 231.450844 
L 373.704375 231.450844 
z
" clip-path="url(#p3d4e7d8c72)" style="fill: #1f77b4"/>
   </g>
   <g id="patch_275">
    <path d="M 475.431875 231.5 
L 526.295625 231.5 
L 526.295625 231.450844 
L 475.431875 231.450844 
z
" clip-path="url(#p3d4e7d8c72)" style="fill: #1f77b4"/>
   </g>
   <g id="patch_276">
    <path d="M 68.521875 231.5 
L 119.385625 231.5 
L 119.385625 196.939413 
L 68.521875 196.939413 
z
" clip-path="url(#p3d4e7d8c72)" style="fill: #1f77b4"/>
   </g>
   <g id="patch_277">
    <path d="M 170.249375 231.5 
L 221.113125 231.5 
L 221.113125 221.005297 
L 170.249375 221.005297 
z
" clip-path="url(#p3d4e7d8c72)" style="fill: #1f77b4"/>
   </g>
   <g id="patch_278">
    <path d="M 271.976875 231.5 
L 322.840625 231.5 
L 322.840625 219.960301 
L 271.976875 219.960301 
z
" clip-path="url(#p3d4e7d8c72)" style="fill: #1f77b4"/>
   </g>
   <g id="patch_279">
    <path d="M 373.704375 231.5 
L 424.568125 231.5 
L 424.568125 220.155495 
L 373.704375 220.155495 
z
" clip-path="url(#p3d4e7d8c72)" style="fill: #1f77b4"/>
   </g>
   <g id="patch_280">
    <path d="M 475.431875 231.5 
L 526.295625 231.5 
L 526.295625 196.448361 
L 475.431875 196.448361 
z
" clip-path="url(#p3d4e7d8c72)" style="fill: #1f77b4"/>
   </g>
   <g id="patch_281">
    <path d="M 68.521875 231.5 
L 119.385625 231.5 
L 119.385625 224.587963 
L 68.521875 224.587963 
z
" clip-path="url(#p3d4e7d8c72)" style="fill: #1f77b4"/>
   </g>
   <g id="patch_282">
    <path d="M 170.249375 231.5 
L 221.113125 231.5 
L 221.113125 230.536191 
L 170.249375 230.536191 
z
" clip-path="url(#p3d4e7d8c72)" style="fill: #1f77b4"/>
   </g>
   <g id="patch_283">
    <path d="M 271.976875 231.5 
L 322.840625 231.5 
L 322.840625 230.536191 
L 271.976875 230.536191 
z
" clip-path="url(#p3d4e7d8c72)" style="fill: #1f77b4"/>
   </g>
   <g id="patch_284">
    <path d="M 373.704375 231.5 
L 424.568125 231.5 
L 424.568125 230.536191 
L 373.704375 230.536191 
z
" clip-path="url(#p3d4e7d8c72)" style="fill: #1f77b4"/>
   </g>
   <g id="patch_285">
    <path d="M 475.431875 231.5 
L 526.295625 231.5 
L 526.295625 230.536191 
L 475.431875 230.536191 
z
" clip-path="url(#p3d4e7d8c72)" style="fill: #1f77b4"/>
   </g>
   <g id="patch_286">
    <path d="M 68.521875 231.5 
L 119.385625 231.5 
L 119.385625 231.436799 
L 68.521875 231.436799 
z
" clip-path="url(#p3d4e7d8c72)" style="fill: #1f77b4"/>
   </g>
   <g id="patch_287">
    <path d="M 170.249375 231.5 
L 221.113125 231.5 
L 221.113125 231.478933 
L 170.249375 231.478933 
z
" clip-path="url(#p3d4e7d8c72)" style="fill: #1f77b4"/>
   </g>
   <g id="patch_288">
    <path d="M 271.976875 231.5 
L 322.840625 231.5 
L 322.840625 231.478933 
L 271.976875 231.478933 
z
" clip-path="url(#p3d4e7d8c72)" style="fill: #1f77b4"/>
   </g>
   <g id="patch_289">
    <path d="M 373.704375 231.5 
L 424.568125 231.5 
L 424.568125 231.478933 
L 373.704375 231.478933 
z
" clip-path="url(#p3d4e7d8c72)" style="fill: #1f77b4"/>
   </g>
   <g id="patch_290">
    <path d="M 475.431875 231.5 
L 526.295625 231.5 
L 526.295625 231.4684 
L 475.431875 231.4684 
z
" clip-path="url(#p3d4e7d8c72)" style="fill: #1f77b4"/>
   </g>
   <g id="patch_291">
    <path d="M 68.521875 231.5 
L 119.385625 231.5 
L 119.385625 230.324469 
L 68.521875 230.324469 
z
" clip-path="url(#p3d4e7d8c72)" style="fill: #1f77b4"/>
   </g>
   <g id="patch_292">
    <path d="M 170.249375 231.5 
L 221.113125 231.5 
L 221.113125 230.172788 
L 170.249375 230.172788 
z
" clip-path="url(#p3d4e7d8c72)" style="fill: #1f77b4"/>
   </g>
   <g id="patch_293">
    <path d="M 271.976875 231.5 
L 322.840625 231.5 
L 322.840625 230.931195 
L 271.976875 230.931195 
z
" clip-path="url(#p3d4e7d8c72)" style="fill: #1f77b4"/>
   </g>
   <g id="patch_294">
    <path d="M 373.704375 231.5 
L 424.568125 231.5 
L 424.568125 231.46208 
L 373.704375 231.46208 
z
" clip-path="url(#p3d4e7d8c72)" style="fill: #1f77b4"/>
   </g>
   <g id="patch_295">
    <path d="M 475.431875 231.5 
L 526.295625 231.5 
L 526.295625 231.46208 
L 475.431875 231.46208 
z
" clip-path="url(#p3d4e7d8c72)" style="fill: #1f77b4"/>
   </g>
   <g id="patch_296">
    <path d="M 68.521875 231.5 
L 119.385625 231.5 
L 119.385625 230.792153 
L 68.521875 230.792153 
z
" clip-path="url(#p3d4e7d8c72)" style="fill: #1f77b4"/>
   </g>
   <g id="patch_297">
    <path d="M 170.249375 231.5 
L 221.113125 231.5 
L 221.113125 231.436799 
L 170.249375 231.436799 
z
" clip-path="url(#p3d4e7d8c72)" style="fill: #1f77b4"/>
   </g>
   <g id="patch_298">
    <path d="M 271.976875 231.5 
L 322.840625 231.5 
L 322.840625 231.436799 
L 271.976875 231.436799 
z
" clip-path="url(#p3d4e7d8c72)" style="fill: #1f77b4"/>
   </g>
   <g id="patch_299">
    <path d="M 373.704375 231.5 
L 424.568125 231.5 
L 424.568125 231.436799 
L 373.704375 231.436799 
z
" clip-path="url(#p3d4e7d8c72)" style="fill: #1f77b4"/>
   </g>
   <g id="patch_300">
    <path d="M 475.431875 231.5 
L 526.295625 231.5 
L 526.295625 231.436799 
L 475.431875 231.436799 
z
" clip-path="url(#p3d4e7d8c72)" style="fill: #1f77b4"/>
   </g>
   <g id="patch_301">
    <path d="M 68.521875 231.5 
L 119.385625 231.5 
L 119.385625 231.120797 
L 68.521875 231.120797 
z
" clip-path="url(#p3d4e7d8c72)" style="fill: #1f77b4"/>
   </g>
   <g id="patch_302">
    <path d="M 170.249375 231.5 
L 221.113125 231.5 
L 221.113125 231.436799 
L 170.249375 231.436799 
z
" clip-path="url(#p3d4e7d8c72)" style="fill: #1f77b4"/>
   </g>
   <g id="patch_303">
    <path d="M 271.976875 231.5 
L 322.840625 231.5 
L 322.840625 231.436799 
L 271.976875 231.436799 
z
" clip-path="url(#p3d4e7d8c72)" style="fill: #1f77b4"/>
   </g>
   <g id="patch_304">
    <path d="M 373.704375 231.5 
L 424.568125 231.5 
L 424.568125 231.436799 
L 373.704375 231.436799 
z
" clip-path="url(#p3d4e7d8c72)" style="fill: #1f77b4"/>
   </g>
   <g id="patch_305">
    <path d="M 475.431875 231.5 
L 526.295625 231.5 
L 526.295625 231.48736 
L 475.431875 231.48736 
z
" clip-path="url(#p3d4e7d8c72)" style="fill: #1f77b4"/>
   </g>
   <g id="patch_306">
    <path d="M 68.521875 231.5 
L 119.385625 231.5 
L 119.385625 231.436799 
L 68.521875 231.436799 
z
" clip-path="url(#p3d4e7d8c72)" style="fill: #1f77b4"/>
   </g>
   <g id="patch_307">
    <path d="M 170.249375 231.5 
L 221.113125 231.5 
L 221.113125 231.5 
L 170.249375 231.5 
z
" clip-path="url(#p3d4e7d8c72)" style="fill: #1f77b4"/>
   </g>
   <g id="patch_308">
    <path d="M 271.976875 231.5 
L 322.840625 231.5 
L 322.840625 231.5 
L 271.976875 231.5 
z
" clip-path="url(#p3d4e7d8c72)" style="fill: #1f77b4"/>
   </g>
   <g id="patch_309">
    <path d="M 373.704375 231.5 
L 424.568125 231.5 
L 424.568125 231.5 
L 373.704375 231.5 
z
" clip-path="url(#p3d4e7d8c72)" style="fill: #1f77b4"/>
   </g>
   <g id="patch_310">
    <path d="M 475.431875 231.5 
L 526.295625 231.5 
L 526.295625 231.5 
L 475.431875 231.5 
z
" clip-path="url(#p3d4e7d8c72)" style="fill: #1f77b4"/>
   </g>
   <g id="patch_311">
    <path d="M 68.521875 231.5 
L 119.385625 231.5 
L 119.385625 231.5 
L 68.521875 231.5 
z
" clip-path="url(#p3d4e7d8c72)" style="fill: #1f77b4"/>
   </g>
   <g id="patch_312">
    <path d="M 170.249375 231.5 
L 221.113125 231.5 
L 221.113125 231.5 
L 170.249375 231.5 
z
" clip-path="url(#p3d4e7d8c72)" style="fill: #1f77b4"/>
   </g>
   <g id="patch_313">
    <path d="M 68.521875 231.5 
L 119.385625 231.5 
L 119.385625 135.018773 
L 68.521875 135.018773 
z
" clip-path="url(#p3d4e7d8c72)" style="fill: #1f77b4"/>
   </g>
   <g id="patch_314">
    <path d="M 170.249375 231.5 
L 221.113125 231.5 
L 221.113125 135.729014 
L 170.249375 135.729014 
z
" clip-path="url(#p3d4e7d8c72)" style="fill: #1f77b4"/>
   </g>
   <g id="patch_315">
    <path d="M 271.976875 231.5 
L 322.840625 231.5 
L 322.840625 118.87044 
L 271.976875 118.87044 
z
" clip-path="url(#p3d4e7d8c72)" style="fill: #1f77b4"/>
   </g>
   <g id="patch_316">
    <path d="M 373.704375 231.5 
L 424.568125 231.5 
L 424.568125 181.142537 
L 373.704375 181.142537 
z
" clip-path="url(#p3d4e7d8c72)" style="fill: #1f77b4"/>
   </g>
   <g id="patch_317">
    <path d="M 475.431875 231.5 
L 526.295625 231.5 
L 526.295625 127.818438 
L 475.431875 127.818438 
z
" clip-path="url(#p3d4e7d8c72)" style="fill: #1f77b4"/>
   </g>
   <g id="patch_318">
    <path d="M 68.521875 231.5 
L 119.385625 231.5 
L 119.385625 149.966528 
L 68.521875 149.966528 
z
" clip-path="url(#p3d4e7d8c72)" style="fill: #1f77b4"/>
   </g>
   <g id="patch_319">
    <path d="M 170.249375 231.5 
L 221.113125 231.5 
L 221.113125 91.270584 
L 170.249375 91.270584 
z
" clip-path="url(#p3d4e7d8c72)" style="fill: #1f77b4"/>
   </g>
   <g id="patch_320">
    <path d="M 271.976875 231.5 
L 322.840625 231.5 
L 322.840625 161.502036 
L 271.976875 161.502036 
z
" clip-path="url(#p3d4e7d8c72)" style="fill: #1f77b4"/>
   </g>
   <g id="patch_321">
    <path d="M 373.704375 231.5 
L 424.568125 231.5 
L 424.568125 175.884562 
L 373.704375 175.884562 
z
" clip-path="url(#p3d4e7d8c72)" style="fill: #1f77b4"/>
   </g>
   <g id="patch_322">
    <path d="M 475.431875 231.5 
L 526.295625 231.5 
L 526.295625 179.163711 
L 475.431875 179.163711 
z
" clip-path="url(#p3d4e7d8c72)" style="fill: #1f77b4"/>
   </g>
   <g id="patch_323">
    <path d="M 68.521875 231.5 
L 119.385625 231.5 
L 119.385625 231.173464 
L 68.521875 231.173464 
z
" clip-path="url(#p3d4e7d8c72)" style="fill: #1f77b4"/>
   </g>
   <g id="patch_324">
    <path d="M 170.249375 231.5 
L 221.113125 231.5 
L 221.113125 231.215597 
L 170.249375 231.215597 
z
" clip-path="url(#p3d4e7d8c72)" style="fill: #1f77b4"/>
   </g>
   <g id="patch_325">
    <path d="M 271.976875 231.5 
L 322.840625 231.5 
L 322.840625 231.296354 
L 271.976875 231.296354 
z
" clip-path="url(#p3d4e7d8c72)" style="fill: #1f77b4"/>
   </g>
   <g id="patch_326">
    <path d="M 373.704375 231.5 
L 424.568125 231.5 
L 424.568125 231.405199 
L 373.704375 231.405199 
z
" clip-path="url(#p3d4e7d8c72)" style="fill: #1f77b4"/>
   </g>
   <g id="patch_327">
    <path d="M 475.431875 231.5 
L 526.295625 231.5 
L 526.295625 231.310398 
L 475.431875 231.310398 
z
" clip-path="url(#p3d4e7d8c72)" style="fill: #1f77b4"/>
   </g>
   <g id="patch_328">
    <path d="M 68.521875 231.5 
L 119.385625 231.5 
L 119.385625 180.528713 
L 68.521875 180.528713 
z
" clip-path="url(#p3d4e7d8c72)" style="fill: #1f77b4"/>
   </g>
   <g id="patch_329">
    <path d="M 170.249375 231.5 
L 221.113125 231.5 
L 221.113125 194.696735 
L 170.249375 194.696735 
z
" clip-path="url(#p3d4e7d8c72)" style="fill: #1f77b4"/>
   </g>
   <g id="patch_330">
    <path d="M 271.976875 231.5 
L 322.840625 231.5 
L 322.840625 222.857534 
L 271.976875 222.857534 
z
" clip-path="url(#p3d4e7d8c72)" style="fill: #1f77b4"/>
   </g>
   <g id="patch_331">
    <path d="M 373.704375 231.5 
L 424.568125 231.5 
L 424.568125 220.154403 
L 373.704375 220.154403 
z
" clip-path="url(#p3d4e7d8c72)" style="fill: #1f77b4"/>
   </g>
   <g id="patch_332">
    <path d="M 475.431875 231.5 
L 526.295625 231.5 
L 526.295625 228.039981 
L 475.431875 228.039981 
z
" clip-path="url(#p3d4e7d8c72)" style="fill: #1f77b4"/>
   </g>
   <g id="patch_333">
    <path d="M 68.521875 231.5 
L 119.385625 231.5 
L 119.385625 231.108156 
L 68.521875 231.108156 
z
" clip-path="url(#p3d4e7d8c72)" style="fill: #1f77b4"/>
   </g>
   <g id="patch_334">
    <path d="M 170.249375 231.5 
L 221.113125 231.5 
L 221.113125 231.463885 
L 170.249375 231.463885 
z
" clip-path="url(#p3d4e7d8c72)" style="fill: #1f77b4"/>
   </g>
   <g id="patch_335">
    <path d="M 271.976875 231.5 
L 322.840625 231.5 
L 322.840625 231.463885 
L 271.976875 231.463885 
z
" clip-path="url(#p3d4e7d8c72)" style="fill: #1f77b4"/>
   </g>
   <g id="patch_336">
    <path d="M 373.704375 231.5 
L 424.568125 231.5 
L 424.568125 231.463885 
L 373.704375 231.463885 
z
" clip-path="url(#p3d4e7d8c72)" style="fill: #1f77b4"/>
   </g>
   <g id="patch_337">
    <path d="M 475.431875 231.5 
L 526.295625 231.5 
L 526.295625 231.463885 
L 475.431875 231.463885 
z
" clip-path="url(#p3d4e7d8c72)" style="fill: #1f77b4"/>
   </g>
   <g id="patch_338">
    <path d="M 68.521875 231.5 
L 119.385625 231.5 
L 119.385625 221.300676 
L 68.521875 221.300676 
z
" clip-path="url(#p3d4e7d8c72)" style="fill: #1f77b4"/>
   </g>
   <g id="patch_339">
    <path d="M 170.249375 231.5 
L 221.113125 231.5 
L 221.113125 230.665773 
L 170.249375 230.665773 
z
" clip-path="url(#p3d4e7d8c72)" style="fill: #1f77b4"/>
   </g>
   <g id="patch_340">
    <path d="M 271.976875 231.5 
L 322.840625 231.5 
L 322.840625 230.665773 
L 271.976875 230.665773 
z
" clip-path="url(#p3d4e7d8c72)" style="fill: #1f77b4"/>
   </g>
   <g id="patch_341">
    <path d="M 373.704375 231.5 
L 424.568125 231.5 
L 424.568125 230.665773 
L 373.704375 230.665773 
z
" clip-path="url(#p3d4e7d8c72)" style="fill: #1f77b4"/>
   </g>
   <g id="patch_342">
    <path d="M 475.431875 231.5 
L 526.295625 231.5 
L 526.295625 230.665773 
L 475.431875 230.665773 
z
" clip-path="url(#p3d4e7d8c72)" style="fill: #1f77b4"/>
   </g>
   <g id="patch_343">
    <path d="M 68.521875 231.5 
L 119.385625 231.5 
L 119.385625 224.532136 
L 68.521875 224.532136 
z
" clip-path="url(#p3d4e7d8c72)" style="fill: #1f77b4"/>
   </g>
   <g id="patch_344">
    <path d="M 170.249375 231.5 
L 221.113125 231.5 
L 221.113125 226.285952 
L 170.249375 226.285952 
z
" clip-path="url(#p3d4e7d8c72)" style="fill: #1f77b4"/>
   </g>
   <g id="patch_345">
    <path d="M 271.976875 231.5 
L 322.840625 231.5 
L 322.840625 225.135701 
L 271.976875 225.135701 
z
" clip-path="url(#p3d4e7d8c72)" style="fill: #1f77b4"/>
   </g>
   <g id="patch_346">
    <path d="M 373.704375 231.5 
L 424.568125 231.5 
L 424.568125 230.36239 
L 373.704375 230.36239 
z
" clip-path="url(#p3d4e7d8c72)" style="fill: #1f77b4"/>
   </g>
   <g id="patch_347">
    <path d="M 475.431875 231.5 
L 526.295625 231.5 
L 526.295625 214.987443 
L 475.431875 214.987443 
z
" clip-path="url(#p3d4e7d8c72)" style="fill: #1f77b4"/>
   </g>
   <g id="patch_348">
    <path d="M 68.521875 231.5 
L 119.385625 231.5 
L 119.385625 231.089196 
L 68.521875 231.089196 
z
" clip-path="url(#p3d4e7d8c72)" style="fill: #1f77b4"/>
   </g>
   <g id="patch_349">
    <path d="M 170.249375 231.5 
L 221.113125 231.5 
L 221.113125 231.357799 
L 170.249375 231.357799 
z
" clip-path="url(#p3d4e7d8c72)" style="fill: #1f77b4"/>
   </g>
   <g id="patch_350">
    <path d="M 271.976875 231.5 
L 322.840625 231.5 
L 322.840625 231.4684 
L 271.976875 231.4684 
z
" clip-path="url(#p3d4e7d8c72)" style="fill: #1f77b4"/>
   </g>
   <g id="patch_351">
    <path d="M 373.704375 231.5 
L 424.568125 231.5 
L 424.568125 231.4684 
L 373.704375 231.4684 
z
" clip-path="url(#p3d4e7d8c72)" style="fill: #1f77b4"/>
   </g>
   <g id="patch_352">
    <path d="M 475.431875 231.5 
L 526.295625 231.5 
L 526.295625 231.4684 
L 475.431875 231.4684 
z
" clip-path="url(#p3d4e7d8c72)" style="fill: #1f77b4"/>
   </g>
   <g id="patch_353">
    <path d="M 68.521875 231.5 
L 119.385625 231.5 
L 119.385625 227.581564 
L 68.521875 227.581564 
z
" clip-path="url(#p3d4e7d8c72)" style="fill: #1f77b4"/>
   </g>
   <g id="patch_354">
    <path d="M 170.249375 231.5 
L 221.113125 231.5 
L 221.113125 231.341999 
L 170.249375 231.341999 
z
" clip-path="url(#p3d4e7d8c72)" style="fill: #1f77b4"/>
   </g>
   <g id="patch_355">
    <path d="M 271.976875 231.5 
L 322.840625 231.5 
L 322.840625 231.341999 
L 271.976875 231.341999 
z
" clip-path="url(#p3d4e7d8c72)" style="fill: #1f77b4"/>
   </g>
   <g id="patch_356">
    <path d="M 373.704375 231.5 
L 424.568125 231.5 
L 424.568125 231.341999 
L 373.704375 231.341999 
z
" clip-path="url(#p3d4e7d8c72)" style="fill: #1f77b4"/>
   </g>
   <g id="patch_357">
    <path d="M 475.431875 231.5 
L 526.295625 231.5 
L 526.295625 231.341999 
L 475.431875 231.341999 
z
" clip-path="url(#p3d4e7d8c72)" style="fill: #1f77b4"/>
   </g>
   <g id="patch_358">
    <path d="M 68.521875 231.5 
L 119.385625 231.5 
L 119.385625 231.262998 
L 68.521875 231.262998 
z
" clip-path="url(#p3d4e7d8c72)" style="fill: #1f77b4"/>
   </g>
   <g id="patch_359">
    <path d="M 170.249375 231.5 
L 221.113125 231.5 
L 221.113125 231.4526 
L 170.249375 231.4526 
z
" clip-path="url(#p3d4e7d8c72)" style="fill: #1f77b4"/>
   </g>
   <g id="patch_360">
    <path d="M 271.976875 231.5 
L 322.840625 231.5 
L 322.840625 231.4526 
L 271.976875 231.4526 
z
" clip-path="url(#p3d4e7d8c72)" style="fill: #1f77b4"/>
   </g>
   <g id="patch_361">
    <path d="M 373.704375 231.5 
L 424.568125 231.5 
L 424.568125 231.4526 
L 373.704375 231.4526 
z
" clip-path="url(#p3d4e7d8c72)" style="fill: #1f77b4"/>
   </g>
   <g id="patch_362">
    <path d="M 475.431875 231.5 
L 526.295625 231.5 
L 526.295625 231.492978 
L 475.431875 231.492978 
z
" clip-path="url(#p3d4e7d8c72)" style="fill: #1f77b4"/>
   </g>
   <g id="patch_363">
    <path d="M 68.521875 231.5 
L 119.385625 231.5 
L 119.385625 231.436799 
L 68.521875 231.436799 
z
" clip-path="url(#p3d4e7d8c72)" style="fill: #1f77b4"/>
   </g>
   <g id="patch_364">
    <path d="M 170.249375 231.5 
L 221.113125 231.5 
L 221.113125 231.436799 
L 170.249375 231.436799 
z
" clip-path="url(#p3d4e7d8c72)" style="fill: #1f77b4"/>
   </g>
   <g id="patch_365">
    <path d="M 271.976875 231.5 
L 322.840625 231.5 
L 322.840625 231.436799 
L 271.976875 231.436799 
z
" clip-path="url(#p3d4e7d8c72)" style="fill: #1f77b4"/>
   </g>
   <g id="patch_366">
    <path d="M 373.704375 231.5 
L 424.568125 231.5 
L 424.568125 231.5 
L 373.704375 231.5 
z
" clip-path="url(#p3d4e7d8c72)" style="fill: #1f77b4"/>
   </g>
   <g id="patch_367">
    <path d="M 475.431875 231.5 
L 526.295625 231.5 
L 526.295625 231.5 
L 475.431875 231.5 
z
" clip-path="url(#p3d4e7d8c72)" style="fill: #1f77b4"/>
   </g>
   <g id="patch_368">
    <path d="M 68.521875 231.5 
L 119.385625 231.5 
L 119.385625 231.317421 
L 68.521875 231.317421 
z
" clip-path="url(#p3d4e7d8c72)" style="fill: #1f77b4"/>
   </g>
   <g id="patch_369">
    <path d="M 170.249375 231.5 
L 221.113125 231.5 
L 221.113125 231.317421 
L 170.249375 231.317421 
z
" clip-path="url(#p3d4e7d8c72)" style="fill: #1f77b4"/>
   </g>
   <g id="patch_370">
    <path d="M 271.976875 231.5 
L 322.840625 231.5 
L 322.840625 231.317421 
L 271.976875 231.317421 
z
" clip-path="url(#p3d4e7d8c72)" style="fill: #1f77b4"/>
   </g>
   <g id="patch_371">
    <path d="M 373.704375 231.5 
L 424.568125 231.5 
L 424.568125 231.317421 
L 373.704375 231.317421 
z
" clip-path="url(#p3d4e7d8c72)" style="fill: #1f77b4"/>
   </g>
   <g id="patch_372">
    <path d="M 475.431875 231.5 
L 526.295625 231.5 
L 526.295625 231.317421 
L 475.431875 231.317421 
z
" clip-path="url(#p3d4e7d8c72)" style="fill: #1f77b4"/>
   </g>
   <g id="patch_373">
    <path d="M 68.521875 231.5 
L 119.385625 231.5 
L 119.385625 231.5 
L 68.521875 231.5 
z
" clip-path="url(#p3d4e7d8c72)" style="fill: #1f77b4"/>
   </g>
   <g id="patch_374">
    <path d="M 170.249375 231.5 
L 221.113125 231.5 
L 221.113125 231.5 
L 170.249375 231.5 
z
" clip-path="url(#p3d4e7d8c72)" style="fill: #1f77b4"/>
   </g>
   <g id="patch_375">
    <path d="M 271.976875 231.5 
L 322.840625 231.5 
L 322.840625 231.5 
L 271.976875 231.5 
z
" clip-path="url(#p3d4e7d8c72)" style="fill: #1f77b4"/>
   </g>
   <g id="patch_376">
    <path d="M 373.704375 231.5 
L 424.568125 231.5 
L 424.568125 231.5 
L 373.704375 231.5 
z
" clip-path="url(#p3d4e7d8c72)" style="fill: #1f77b4"/>
   </g>
   <g id="patch_377">
    <path d="M 475.431875 231.5 
L 526.295625 231.5 
L 526.295625 231.5 
L 475.431875 231.5 
z
" clip-path="url(#p3d4e7d8c72)" style="fill: #1f77b4"/>
   </g>
   <g id="patch_378">
    <path d="M 68.521875 231.5 
L 119.385625 231.5 
L 119.385625 231.4526 
L 68.521875 231.4526 
z
" clip-path="url(#p3d4e7d8c72)" style="fill: #1f77b4"/>
   </g>
   <g id="patch_379">
    <path d="M 170.249375 231.5 
L 221.113125 231.5 
L 221.113125 231.4526 
L 170.249375 231.4526 
z
" clip-path="url(#p3d4e7d8c72)" style="fill: #1f77b4"/>
   </g>
   <g id="patch_380">
    <path d="M 271.976875 231.5 
L 322.840625 231.5 
L 322.840625 231.4526 
L 271.976875 231.4526 
z
" clip-path="url(#p3d4e7d8c72)" style="fill: #1f77b4"/>
   </g>
   <g id="patch_381">
    <path d="M 373.704375 231.5 
L 424.568125 231.5 
L 424.568125 231.4526 
L 373.704375 231.4526 
z
" clip-path="url(#p3d4e7d8c72)" style="fill: #1f77b4"/>
   </g>
   <g id="patch_382">
    <path d="M 475.431875 231.5 
L 526.295625 231.5 
L 526.295625 231.4526 
L 475.431875 231.4526 
z
" clip-path="url(#p3d4e7d8c72)" style="fill: #1f77b4"/>
   </g>
   <g id="patch_383">
    <path d="M 68.521875 231.5 
L 119.385625 231.5 
L 119.385625 231.5 
L 68.521875 231.5 
z
" clip-path="url(#p3d4e7d8c72)" style="fill: #1f77b4"/>
   </g>
   <g id="patch_384">
    <path d="M 170.249375 231.5 
L 221.113125 231.5 
L 221.113125 231.5 
L 170.249375 231.5 
z
" clip-path="url(#p3d4e7d8c72)" style="fill: #1f77b4"/>
   </g>
   <g id="patch_385">
    <path d="M 271.976875 231.5 
L 322.840625 231.5 
L 322.840625 231.5 
L 271.976875 231.5 
z
" clip-path="url(#p3d4e7d8c72)" style="fill: #1f77b4"/>
   </g>
   <g id="patch_386">
    <path d="M 373.704375 231.5 
L 424.568125 231.5 
L 424.568125 231.5 
L 373.704375 231.5 
z
" clip-path="url(#p3d4e7d8c72)" style="fill: #1f77b4"/>
   </g>
   <g id="matplotlib.axis_1">
    <g id="xtick_1">
     <g id="line2d_1">
      <defs>
       <path id="m5611085d24" d="M 0 0 
L 0 3.5 
" style="stroke: #000000; stroke-width: 0.8"/>
      </defs>
      <g>
       <use xlink:href="#m5611085d24" x="93.95375" y="231.5" style="stroke: #000000; stroke-width: 0.8"/>
      </g>
     </g>
     <g id="text_1">
      <!-- Denzel Washington -->
      <g transform="translate(96.713125 334.814062) rotate(-90) scale(0.1 -0.1)">
       <defs>
        <path id="DejaVuSans-44" d="M 1259 4147 
L 1259 519 
L 2022 519 
Q 2988 519 3436 956 
Q 3884 1394 3884 2338 
Q 3884 3275 3436 3711 
Q 2988 4147 2022 4147 
L 1259 4147 
z
M 628 4666 
L 1925 4666 
Q 3281 4666 3915 4102 
Q 4550 3538 4550 2338 
Q 4550 1131 3912 565 
Q 3275 0 1925 0 
L 628 0 
L 628 4666 
z
" transform="scale(0.015625)"/>
        <path id="DejaVuSans-65" d="M 3597 1894 
L 3597 1613 
L 953 1613 
Q 991 1019 1311 708 
Q 1631 397 2203 397 
Q 2534 397 2845 478 
Q 3156 559 3463 722 
L 3463 178 
Q 3153 47 2828 -22 
Q 2503 -91 2169 -91 
Q 1331 -91 842 396 
Q 353 884 353 1716 
Q 353 2575 817 3079 
Q 1281 3584 2069 3584 
Q 2775 3584 3186 3129 
Q 3597 2675 3597 1894 
z
M 3022 2063 
Q 3016 2534 2758 2815 
Q 2500 3097 2075 3097 
Q 1594 3097 1305 2825 
Q 1016 2553 972 2059 
L 3022 2063 
z
" transform="scale(0.015625)"/>
        <path id="DejaVuSans-6e" d="M 3513 2113 
L 3513 0 
L 2938 0 
L 2938 2094 
Q 2938 2591 2744 2837 
Q 2550 3084 2163 3084 
Q 1697 3084 1428 2787 
Q 1159 2491 1159 1978 
L 1159 0 
L 581 0 
L 581 3500 
L 1159 3500 
L 1159 2956 
Q 1366 3272 1645 3428 
Q 1925 3584 2291 3584 
Q 2894 3584 3203 3211 
Q 3513 2838 3513 2113 
z
" transform="scale(0.015625)"/>
        <path id="DejaVuSans-7a" d="M 353 3500 
L 3084 3500 
L 3084 2975 
L 922 459 
L 3084 459 
L 3084 0 
L 275 0 
L 275 525 
L 2438 3041 
L 353 3041 
L 353 3500 
z
" transform="scale(0.015625)"/>
        <path id="DejaVuSans-6c" d="M 603 4863 
L 1178 4863 
L 1178 0 
L 603 0 
L 603 4863 
z
" transform="scale(0.015625)"/>
        <path id="DejaVuSans-20" transform="scale(0.015625)"/>
        <path id="DejaVuSans-57" d="M 213 4666 
L 850 4666 
L 1831 722 
L 2809 4666 
L 3519 4666 
L 4500 722 
L 5478 4666 
L 6119 4666 
L 4947 0 
L 4153 0 
L 3169 4050 
L 2175 0 
L 1381 0 
L 213 4666 
z
" transform="scale(0.015625)"/>
        <path id="DejaVuSans-61" d="M 2194 1759 
Q 1497 1759 1228 1600 
Q 959 1441 959 1056 
Q 959 750 1161 570 
Q 1363 391 1709 391 
Q 2188 391 2477 730 
Q 2766 1069 2766 1631 
L 2766 1759 
L 2194 1759 
z
M 3341 1997 
L 3341 0 
L 2766 0 
L 2766 531 
Q 2569 213 2275 61 
Q 1981 -91 1556 -91 
Q 1019 -91 701 211 
Q 384 513 384 1019 
Q 384 1609 779 1909 
Q 1175 2209 1959 2209 
L 2766 2209 
L 2766 2266 
Q 2766 2663 2505 2880 
Q 2244 3097 1772 3097 
Q 1472 3097 1187 3025 
Q 903 2953 641 2809 
L 641 3341 
Q 956 3463 1253 3523 
Q 1550 3584 1831 3584 
Q 2591 3584 2966 3190 
Q 3341 2797 3341 1997 
z
" transform="scale(0.015625)"/>
        <path id="DejaVuSans-73" d="M 2834 3397 
L 2834 2853 
Q 2591 2978 2328 3040 
Q 2066 3103 1784 3103 
Q 1356 3103 1142 2972 
Q 928 2841 928 2578 
Q 928 2378 1081 2264 
Q 1234 2150 1697 2047 
L 1894 2003 
Q 2506 1872 2764 1633 
Q 3022 1394 3022 966 
Q 3022 478 2636 193 
Q 2250 -91 1575 -91 
Q 1294 -91 989 -36 
Q 684 19 347 128 
L 347 722 
Q 666 556 975 473 
Q 1284 391 1588 391 
Q 1994 391 2212 530 
Q 2431 669 2431 922 
Q 2431 1156 2273 1281 
Q 2116 1406 1581 1522 
L 1381 1569 
Q 847 1681 609 1914 
Q 372 2147 372 2553 
Q 372 3047 722 3315 
Q 1072 3584 1716 3584 
Q 2034 3584 2315 3537 
Q 2597 3491 2834 3397 
z
" transform="scale(0.015625)"/>
        <path id="DejaVuSans-68" d="M 3513 2113 
L 3513 0 
L 2938 0 
L 2938 2094 
Q 2938 2591 2744 2837 
Q 2550 3084 2163 3084 
Q 1697 3084 1428 2787 
Q 1159 2491 1159 1978 
L 1159 0 
L 581 0 
L 581 4863 
L 1159 4863 
L 1159 2956 
Q 1366 3272 1645 3428 
Q 1925 3584 2291 3584 
Q 2894 3584 3203 3211 
Q 3513 2838 3513 2113 
z
" transform="scale(0.015625)"/>
        <path id="DejaVuSans-69" d="M 603 3500 
L 1178 3500 
L 1178 0 
L 603 0 
L 603 3500 
z
M 603 4863 
L 1178 4863 
L 1178 4134 
L 603 4134 
L 603 4863 
z
" transform="scale(0.015625)"/>
        <path id="DejaVuSans-67" d="M 2906 1791 
Q 2906 2416 2648 2759 
Q 2391 3103 1925 3103 
Q 1463 3103 1205 2759 
Q 947 2416 947 1791 
Q 947 1169 1205 825 
Q 1463 481 1925 481 
Q 2391 481 2648 825 
Q 2906 1169 2906 1791 
z
M 3481 434 
Q 3481 -459 3084 -895 
Q 2688 -1331 1869 -1331 
Q 1566 -1331 1297 -1286 
Q 1028 -1241 775 -1147 
L 775 -588 
Q 1028 -725 1275 -790 
Q 1522 -856 1778 -856 
Q 2344 -856 2625 -561 
Q 2906 -266 2906 331 
L 2906 616 
Q 2728 306 2450 153 
Q 2172 0 1784 0 
Q 1141 0 747 490 
Q 353 981 353 1791 
Q 353 2603 747 3093 
Q 1141 3584 1784 3584 
Q 2172 3584 2450 3431 
Q 2728 3278 2906 2969 
L 2906 3500 
L 3481 3500 
L 3481 434 
z
" transform="scale(0.015625)"/>
        <path id="DejaVuSans-74" d="M 1172 4494 
L 1172 3500 
L 2356 3500 
L 2356 3053 
L 1172 3053 
L 1172 1153 
Q 1172 725 1289 603 
Q 1406 481 1766 481 
L 2356 481 
L 2356 0 
L 1766 0 
Q 1100 0 847 248 
Q 594 497 594 1153 
L 594 3053 
L 172 3053 
L 172 3500 
L 594 3500 
L 594 4494 
L 1172 4494 
z
" transform="scale(0.015625)"/>
        <path id="DejaVuSans-6f" d="M 1959 3097 
Q 1497 3097 1228 2736 
Q 959 2375 959 1747 
Q 959 1119 1226 758 
Q 1494 397 1959 397 
Q 2419 397 2687 759 
Q 2956 1122 2956 1747 
Q 2956 2369 2687 2733 
Q 2419 3097 1959 3097 
z
M 1959 3584 
Q 2709 3584 3137 3096 
Q 3566 2609 3566 1747 
Q 3566 888 3137 398 
Q 2709 -91 1959 -91 
Q 1206 -91 779 398 
Q 353 888 353 1747 
Q 353 2609 779 3096 
Q 1206 3584 1959 3584 
z
" transform="scale(0.015625)"/>
       </defs>
       <use xlink:href="#DejaVuSans-44"/>
       <use xlink:href="#DejaVuSans-65" x="77.001953"/>
       <use xlink:href="#DejaVuSans-6e" x="138.525391"/>
       <use xlink:href="#DejaVuSans-7a" x="201.904297"/>
       <use xlink:href="#DejaVuSans-65" x="254.394531"/>
       <use xlink:href="#DejaVuSans-6c" x="315.917969"/>
       <use xlink:href="#DejaVuSans-20" x="343.701172"/>
       <use xlink:href="#DejaVuSans-57" x="375.488281"/>
       <use xlink:href="#DejaVuSans-61" x="467.990234"/>
       <use xlink:href="#DejaVuSans-73" x="529.269531"/>
       <use xlink:href="#DejaVuSans-68" x="581.369141"/>
       <use xlink:href="#DejaVuSans-69" x="644.748047"/>
       <use xlink:href="#DejaVuSans-6e" x="672.53125"/>
       <use xlink:href="#DejaVuSans-67" x="735.910156"/>
       <use xlink:href="#DejaVuSans-74" x="799.386719"/>
       <use xlink:href="#DejaVuSans-6f" x="838.595703"/>
       <use xlink:href="#DejaVuSans-6e" x="899.777344"/>
      </g>
     </g>
    </g>
    <g id="xtick_2">
     <g id="line2d_2">
      <g>
       <use xlink:href="#m5611085d24" x="195.68125" y="231.5" style="stroke: #000000; stroke-width: 0.8"/>
      </g>
     </g>
     <g id="text_2">
      <!-- Gary Oldman -->
      <g transform="translate(198.440625 304.789062) rotate(-90) scale(0.1 -0.1)">
       <defs>
        <path id="DejaVuSans-47" d="M 3809 666 
L 3809 1919 
L 2778 1919 
L 2778 2438 
L 4434 2438 
L 4434 434 
Q 4069 175 3628 42 
Q 3188 -91 2688 -91 
Q 1594 -91 976 548 
Q 359 1188 359 2328 
Q 359 3472 976 4111 
Q 1594 4750 2688 4750 
Q 3144 4750 3555 4637 
Q 3966 4525 4313 4306 
L 4313 3634 
Q 3963 3931 3569 4081 
Q 3175 4231 2741 4231 
Q 1884 4231 1454 3753 
Q 1025 3275 1025 2328 
Q 1025 1384 1454 906 
Q 1884 428 2741 428 
Q 3075 428 3337 486 
Q 3600 544 3809 666 
z
" transform="scale(0.015625)"/>
        <path id="DejaVuSans-72" d="M 2631 2963 
Q 2534 3019 2420 3045 
Q 2306 3072 2169 3072 
Q 1681 3072 1420 2755 
Q 1159 2438 1159 1844 
L 1159 0 
L 581 0 
L 581 3500 
L 1159 3500 
L 1159 2956 
Q 1341 3275 1631 3429 
Q 1922 3584 2338 3584 
Q 2397 3584 2469 3576 
Q 2541 3569 2628 3553 
L 2631 2963 
z
" transform="scale(0.015625)"/>
        <path id="DejaVuSans-79" d="M 2059 -325 
Q 1816 -950 1584 -1140 
Q 1353 -1331 966 -1331 
L 506 -1331 
L 506 -850 
L 844 -850 
Q 1081 -850 1212 -737 
Q 1344 -625 1503 -206 
L 1606 56 
L 191 3500 
L 800 3500 
L 1894 763 
L 2988 3500 
L 3597 3500 
L 2059 -325 
z
" transform="scale(0.015625)"/>
        <path id="DejaVuSans-4f" d="M 2522 4238 
Q 1834 4238 1429 3725 
Q 1025 3213 1025 2328 
Q 1025 1447 1429 934 
Q 1834 422 2522 422 
Q 3209 422 3611 934 
Q 4013 1447 4013 2328 
Q 4013 3213 3611 3725 
Q 3209 4238 2522 4238 
z
M 2522 4750 
Q 3503 4750 4090 4092 
Q 4678 3434 4678 2328 
Q 4678 1225 4090 567 
Q 3503 -91 2522 -91 
Q 1538 -91 948 565 
Q 359 1222 359 2328 
Q 359 3434 948 4092 
Q 1538 4750 2522 4750 
z
" transform="scale(0.015625)"/>
        <path id="DejaVuSans-64" d="M 2906 2969 
L 2906 4863 
L 3481 4863 
L 3481 0 
L 2906 0 
L 2906 525 
Q 2725 213 2448 61 
Q 2172 -91 1784 -91 
Q 1150 -91 751 415 
Q 353 922 353 1747 
Q 353 2572 751 3078 
Q 1150 3584 1784 3584 
Q 2172 3584 2448 3432 
Q 2725 3281 2906 2969 
z
M 947 1747 
Q 947 1113 1208 752 
Q 1469 391 1925 391 
Q 2381 391 2643 752 
Q 2906 1113 2906 1747 
Q 2906 2381 2643 2742 
Q 2381 3103 1925 3103 
Q 1469 3103 1208 2742 
Q 947 2381 947 1747 
z
" transform="scale(0.015625)"/>
        <path id="DejaVuSans-6d" d="M 3328 2828 
Q 3544 3216 3844 3400 
Q 4144 3584 4550 3584 
Q 5097 3584 5394 3201 
Q 5691 2819 5691 2113 
L 5691 0 
L 5113 0 
L 5113 2094 
Q 5113 2597 4934 2840 
Q 4756 3084 4391 3084 
Q 3944 3084 3684 2787 
Q 3425 2491 3425 1978 
L 3425 0 
L 2847 0 
L 2847 2094 
Q 2847 2600 2669 2842 
Q 2491 3084 2119 3084 
Q 1678 3084 1418 2786 
Q 1159 2488 1159 1978 
L 1159 0 
L 581 0 
L 581 3500 
L 1159 3500 
L 1159 2956 
Q 1356 3278 1631 3431 
Q 1906 3584 2284 3584 
Q 2666 3584 2933 3390 
Q 3200 3197 3328 2828 
z
" transform="scale(0.015625)"/>
       </defs>
       <use xlink:href="#DejaVuSans-47"/>
       <use xlink:href="#DejaVuSans-61" x="77.490234"/>
       <use xlink:href="#DejaVuSans-72" x="138.769531"/>
       <use xlink:href="#DejaVuSans-79" x="179.882812"/>
       <use xlink:href="#DejaVuSans-20" x="239.0625"/>
       <use xlink:href="#DejaVuSans-4f" x="270.849609"/>
       <use xlink:href="#DejaVuSans-6c" x="349.560547"/>
       <use xlink:href="#DejaVuSans-64" x="377.34375"/>
       <use xlink:href="#DejaVuSans-6d" x="440.820312"/>
       <use xlink:href="#DejaVuSans-61" x="538.232422"/>
       <use xlink:href="#DejaVuSans-6e" x="599.511719"/>
      </g>
     </g>
    </g>
    <g id="xtick_3">
     <g id="line2d_3">
      <g>
       <use xlink:href="#m5611085d24" x="297.40875" y="231.5" style="stroke: #000000; stroke-width: 0.8"/>
      </g>
     </g>
     <g id="text_3">
      <!-- Michael Gambon -->
      <g transform="translate(300.168125 322.401562) rotate(-90) scale(0.1 -0.1)">
       <defs>
        <path id="DejaVuSans-4d" d="M 628 4666 
L 1569 4666 
L 2759 1491 
L 3956 4666 
L 4897 4666 
L 4897 0 
L 4281 0 
L 4281 4097 
L 3078 897 
L 2444 897 
L 1241 4097 
L 1241 0 
L 628 0 
L 628 4666 
z
" transform="scale(0.015625)"/>
        <path id="DejaVuSans-63" d="M 3122 3366 
L 3122 2828 
Q 2878 2963 2633 3030 
Q 2388 3097 2138 3097 
Q 1578 3097 1268 2742 
Q 959 2388 959 1747 
Q 959 1106 1268 751 
Q 1578 397 2138 397 
Q 2388 397 2633 464 
Q 2878 531 3122 666 
L 3122 134 
Q 2881 22 2623 -34 
Q 2366 -91 2075 -91 
Q 1284 -91 818 406 
Q 353 903 353 1747 
Q 353 2603 823 3093 
Q 1294 3584 2113 3584 
Q 2378 3584 2631 3529 
Q 2884 3475 3122 3366 
z
" transform="scale(0.015625)"/>
        <path id="DejaVuSans-62" d="M 3116 1747 
Q 3116 2381 2855 2742 
Q 2594 3103 2138 3103 
Q 1681 3103 1420 2742 
Q 1159 2381 1159 1747 
Q 1159 1113 1420 752 
Q 1681 391 2138 391 
Q 2594 391 2855 752 
Q 3116 1113 3116 1747 
z
M 1159 2969 
Q 1341 3281 1617 3432 
Q 1894 3584 2278 3584 
Q 2916 3584 3314 3078 
Q 3713 2572 3713 1747 
Q 3713 922 3314 415 
Q 2916 -91 2278 -91 
Q 1894 -91 1617 61 
Q 1341 213 1159 525 
L 1159 0 
L 581 0 
L 581 4863 
L 1159 4863 
L 1159 2969 
z
" transform="scale(0.015625)"/>
       </defs>
       <use xlink:href="#DejaVuSans-4d"/>
       <use xlink:href="#DejaVuSans-69" x="86.279297"/>
       <use xlink:href="#DejaVuSans-63" x="114.0625"/>
       <use xlink:href="#DejaVuSans-68" x="169.042969"/>
       <use xlink:href="#DejaVuSans-61" x="232.421875"/>
       <use xlink:href="#DejaVuSans-65" x="293.701172"/>
       <use xlink:href="#DejaVuSans-6c" x="355.224609"/>
       <use xlink:href="#DejaVuSans-20" x="383.007812"/>
       <use xlink:href="#DejaVuSans-47" x="414.794922"/>
       <use xlink:href="#DejaVuSans-61" x="492.285156"/>
       <use xlink:href="#DejaVuSans-6d" x="553.564453"/>
       <use xlink:href="#DejaVuSans-62" x="650.976562"/>
       <use xlink:href="#DejaVuSans-6f" x="714.453125"/>
       <use xlink:href="#DejaVuSans-6e" x="775.634766"/>
      </g>
     </g>
    </g>
    <g id="xtick_4">
     <g id="line2d_4">
      <g>
       <use xlink:href="#m5611085d24" x="399.13625" y="231.5" style="stroke: #000000; stroke-width: 0.8"/>
      </g>
     </g>
     <g id="text_4">
      <!-- Jennifer Beals -->
      <g transform="translate(401.895625 307.148437) rotate(-90) scale(0.1 -0.1)">
       <defs>
        <path id="DejaVuSans-4a" d="M 628 4666 
L 1259 4666 
L 1259 325 
Q 1259 -519 939 -900 
Q 619 -1281 -91 -1281 
L -331 -1281 
L -331 -750 
L -134 -750 
Q 284 -750 456 -515 
Q 628 -281 628 325 
L 628 4666 
z
" transform="scale(0.015625)"/>
        <path id="DejaVuSans-66" d="M 2375 4863 
L 2375 4384 
L 1825 4384 
Q 1516 4384 1395 4259 
Q 1275 4134 1275 3809 
L 1275 3500 
L 2222 3500 
L 2222 3053 
L 1275 3053 
L 1275 0 
L 697 0 
L 697 3053 
L 147 3053 
L 147 3500 
L 697 3500 
L 697 3744 
Q 697 4328 969 4595 
Q 1241 4863 1831 4863 
L 2375 4863 
z
" transform="scale(0.015625)"/>
        <path id="DejaVuSans-42" d="M 1259 2228 
L 1259 519 
L 2272 519 
Q 2781 519 3026 730 
Q 3272 941 3272 1375 
Q 3272 1813 3026 2020 
Q 2781 2228 2272 2228 
L 1259 2228 
z
M 1259 4147 
L 1259 2741 
L 2194 2741 
Q 2656 2741 2882 2914 
Q 3109 3088 3109 3444 
Q 3109 3797 2882 3972 
Q 2656 4147 2194 4147 
L 1259 4147 
z
M 628 4666 
L 2241 4666 
Q 2963 4666 3353 4366 
Q 3744 4066 3744 3513 
Q 3744 3084 3544 2831 
Q 3344 2578 2956 2516 
Q 3422 2416 3680 2098 
Q 3938 1781 3938 1306 
Q 3938 681 3513 340 
Q 3088 0 2303 0 
L 628 0 
L 628 4666 
z
" transform="scale(0.015625)"/>
       </defs>
       <use xlink:href="#DejaVuSans-4a"/>
       <use xlink:href="#DejaVuSans-65" x="29.492188"/>
       <use xlink:href="#DejaVuSans-6e" x="91.015625"/>
       <use xlink:href="#DejaVuSans-6e" x="154.394531"/>
       <use xlink:href="#DejaVuSans-69" x="217.773438"/>
       <use xlink:href="#DejaVuSans-66" x="245.556641"/>
       <use xlink:href="#DejaVuSans-65" x="280.761719"/>
       <use xlink:href="#DejaVuSans-72" x="342.285156"/>
       <use xlink:href="#DejaVuSans-20" x="383.398438"/>
       <use xlink:href="#DejaVuSans-42" x="415.185547"/>
       <use xlink:href="#DejaVuSans-65" x="483.789062"/>
       <use xlink:href="#DejaVuSans-61" x="545.3125"/>
       <use xlink:href="#DejaVuSans-6c" x="606.591797"/>
       <use xlink:href="#DejaVuSans-73" x="634.375"/>
      </g>
     </g>
    </g>
   </g>
   <g id="matplotlib.axis_2">
    <g id="ytick_1">
     <g id="line2d_5">
      <defs>
       <path id="m10899ea73a" d="M 0 0 
L -3.5 0 
" style="stroke: #000000; stroke-width: 0.8"/>
      </defs>
      <g>
       <use xlink:href="#m10899ea73a" x="43.09" y="231.5" style="stroke: #000000; stroke-width: 0.8"/>
      </g>
     </g>
     <g id="text_5">
      <!-- 0 -->
      <g transform="translate(29.7275 235.299219) scale(0.1 -0.1)">
       <defs>
        <path id="DejaVuSans-30" d="M 2034 4250 
Q 1547 4250 1301 3770 
Q 1056 3291 1056 2328 
Q 1056 1369 1301 889 
Q 1547 409 2034 409 
Q 2525 409 2770 889 
Q 3016 1369 3016 2328 
Q 3016 3291 2770 3770 
Q 2525 4250 2034 4250 
z
M 2034 4750 
Q 2819 4750 3233 4129 
Q 3647 3509 3647 2328 
Q 3647 1150 3233 529 
Q 2819 -91 2034 -91 
Q 1250 -91 836 529 
Q 422 1150 422 2328 
Q 422 3509 836 4129 
Q 1250 4750 2034 4750 
z
" transform="scale(0.015625)"/>
       </defs>
       <use xlink:href="#DejaVuSans-30"/>
      </g>
     </g>
    </g>
    <g id="ytick_2">
     <g id="line2d_6">
      <g>
       <use xlink:href="#m10899ea73a" x="43.09" y="199.899709" style="stroke: #000000; stroke-width: 0.8"/>
      </g>
     </g>
     <g id="text_6">
      <!-- 500 -->
      <g transform="translate(17.0025 203.698927) scale(0.1 -0.1)">
       <defs>
        <path id="DejaVuSans-35" d="M 691 4666 
L 3169 4666 
L 3169 4134 
L 1269 4134 
L 1269 2991 
Q 1406 3038 1543 3061 
Q 1681 3084 1819 3084 
Q 2600 3084 3056 2656 
Q 3513 2228 3513 1497 
Q 3513 744 3044 326 
Q 2575 -91 1722 -91 
Q 1428 -91 1123 -41 
Q 819 9 494 109 
L 494 744 
Q 775 591 1075 516 
Q 1375 441 1709 441 
Q 2250 441 2565 725 
Q 2881 1009 2881 1497 
Q 2881 1984 2565 2268 
Q 2250 2553 1709 2553 
Q 1456 2553 1204 2497 
Q 953 2441 691 2322 
L 691 4666 
z
" transform="scale(0.015625)"/>
       </defs>
       <use xlink:href="#DejaVuSans-35"/>
       <use xlink:href="#DejaVuSans-30" x="63.623047"/>
       <use xlink:href="#DejaVuSans-30" x="127.246094"/>
      </g>
     </g>
    </g>
    <g id="ytick_3">
     <g id="line2d_7">
      <g>
       <use xlink:href="#m10899ea73a" x="43.09" y="168.299417" style="stroke: #000000; stroke-width: 0.8"/>
      </g>
     </g>
     <g id="text_7">
      <!-- 1000 -->
      <g transform="translate(10.64 172.098636) scale(0.1 -0.1)">
       <defs>
        <path id="DejaVuSans-31" d="M 794 531 
L 1825 531 
L 1825 4091 
L 703 3866 
L 703 4441 
L 1819 4666 
L 2450 4666 
L 2450 531 
L 3481 531 
L 3481 0 
L 794 0 
L 794 531 
z
" transform="scale(0.015625)"/>
       </defs>
       <use xlink:href="#DejaVuSans-31"/>
       <use xlink:href="#DejaVuSans-30" x="63.623047"/>
       <use xlink:href="#DejaVuSans-30" x="127.246094"/>
       <use xlink:href="#DejaVuSans-30" x="190.869141"/>
      </g>
     </g>
    </g>
    <g id="ytick_4">
     <g id="line2d_8">
      <g>
       <use xlink:href="#m10899ea73a" x="43.09" y="136.699126" style="stroke: #000000; stroke-width: 0.8"/>
      </g>
     </g>
     <g id="text_8">
      <!-- 1500 -->
      <g transform="translate(10.64 140.498344) scale(0.1 -0.1)">
       <use xlink:href="#DejaVuSans-31"/>
       <use xlink:href="#DejaVuSans-35" x="63.623047"/>
       <use xlink:href="#DejaVuSans-30" x="127.246094"/>
       <use xlink:href="#DejaVuSans-30" x="190.869141"/>
      </g>
     </g>
    </g>
    <g id="ytick_5">
     <g id="line2d_9">
      <g>
       <use xlink:href="#m10899ea73a" x="43.09" y="105.098834" style="stroke: #000000; stroke-width: 0.8"/>
      </g>
     </g>
     <g id="text_9">
      <!-- 2000 -->
      <g transform="translate(10.64 108.898053) scale(0.1 -0.1)">
       <defs>
        <path id="DejaVuSans-32" d="M 1228 531 
L 3431 531 
L 3431 0 
L 469 0 
L 469 531 
Q 828 903 1448 1529 
Q 2069 2156 2228 2338 
Q 2531 2678 2651 2914 
Q 2772 3150 2772 3378 
Q 2772 3750 2511 3984 
Q 2250 4219 1831 4219 
Q 1534 4219 1204 4116 
Q 875 4013 500 3803 
L 500 4441 
Q 881 4594 1212 4672 
Q 1544 4750 1819 4750 
Q 2544 4750 2975 4387 
Q 3406 4025 3406 3419 
Q 3406 3131 3298 2873 
Q 3191 2616 2906 2266 
Q 2828 2175 2409 1742 
Q 1991 1309 1228 531 
z
" transform="scale(0.015625)"/>
       </defs>
       <use xlink:href="#DejaVuSans-32"/>
       <use xlink:href="#DejaVuSans-30" x="63.623047"/>
       <use xlink:href="#DejaVuSans-30" x="127.246094"/>
       <use xlink:href="#DejaVuSans-30" x="190.869141"/>
      </g>
     </g>
    </g>
    <g id="ytick_6">
     <g id="line2d_10">
      <g>
       <use xlink:href="#m10899ea73a" x="43.09" y="73.498543" style="stroke: #000000; stroke-width: 0.8"/>
      </g>
     </g>
     <g id="text_10">
      <!-- 2500 -->
      <g transform="translate(10.64 77.297762) scale(0.1 -0.1)">
       <use xlink:href="#DejaVuSans-32"/>
       <use xlink:href="#DejaVuSans-35" x="63.623047"/>
       <use xlink:href="#DejaVuSans-30" x="127.246094"/>
       <use xlink:href="#DejaVuSans-30" x="190.869141"/>
      </g>
     </g>
    </g>
    <g id="ytick_7">
     <g id="line2d_11">
      <g>
       <use xlink:href="#m10899ea73a" x="43.09" y="41.898251" style="stroke: #000000; stroke-width: 0.8"/>
      </g>
     </g>
     <g id="text_11">
      <!-- 3000 -->
      <g transform="translate(10.64 45.69747) scale(0.1 -0.1)">
       <defs>
        <path id="DejaVuSans-33" d="M 2597 2516 
Q 3050 2419 3304 2112 
Q 3559 1806 3559 1356 
Q 3559 666 3084 287 
Q 2609 -91 1734 -91 
Q 1441 -91 1130 -33 
Q 819 25 488 141 
L 488 750 
Q 750 597 1062 519 
Q 1375 441 1716 441 
Q 2309 441 2620 675 
Q 2931 909 2931 1356 
Q 2931 1769 2642 2001 
Q 2353 2234 1838 2234 
L 1294 2234 
L 1294 2753 
L 1863 2753 
Q 2328 2753 2575 2939 
Q 2822 3125 2822 3475 
Q 2822 3834 2567 4026 
Q 2313 4219 1838 4219 
Q 1578 4219 1281 4162 
Q 984 4106 628 3988 
L 628 4550 
Q 988 4650 1302 4700 
Q 1616 4750 1894 4750 
Q 2613 4750 3031 4423 
Q 3450 4097 3450 3541 
Q 3450 3153 3228 2886 
Q 3006 2619 2597 2516 
z
" transform="scale(0.015625)"/>
       </defs>
       <use xlink:href="#DejaVuSans-33"/>
       <use xlink:href="#DejaVuSans-30" x="63.623047"/>
       <use xlink:href="#DejaVuSans-30" x="127.246094"/>
       <use xlink:href="#DejaVuSans-30" x="190.869141"/>
      </g>
     </g>
    </g>
   </g>
   <g id="patch_387">
    <path d="M 43.09 231.5 
L 43.09 10.8 
" style="fill: none; stroke: #000000; stroke-width: 0.8; stroke-linejoin: miter; stroke-linecap: square"/>
   </g>
   <g id="patch_388">
    <path d="M 450 231.5 
L 450 10.8 
" style="fill: none; stroke: #000000; stroke-width: 0.8; stroke-linejoin: miter; stroke-linecap: square"/>
   </g>
   <g id="patch_389">
    <path d="M 43.09 231.5 
L 450 231.5 
" style="fill: none; stroke: #000000; stroke-width: 0.8; stroke-linejoin: miter; stroke-linecap: square"/>
   </g>
   <g id="patch_390">
    <path d="M 43.09 10.8 
L 450 10.8 
" style="fill: none; stroke: #000000; stroke-width: 0.8; stroke-linejoin: miter; stroke-linecap: square"/>
   </g>
  </g>
 </g>
 <defs>
  <clipPath id="p3d4e7d8c72">
   <rect x="43.09" y="10.8" width="406.91" height="220.7"/>
  </clipPath>
 </defs>
</svg>
