<?xml version="1.0" encoding="utf-8" standalone="no"?>
<!DOCTYPE svg PUBLIC "-//W3C//DTD SVG 1.1//EN"
  "http://www.w3.org/Graphics/SVG/1.1/DTD/svg11.dtd">
<svg xmlns:xlink="http://www.w3.org/1999/xlink" width="460.8pt" height="345.6pt" viewBox="0 0 460.8 345.6" xmlns="http://www.w3.org/2000/svg" version="1.1">
 <metadata>
  <rdf:RDF xmlns:dc="http://purl.org/dc/elements/1.1/" xmlns:cc="http://creativecommons.org/ns#" xmlns:rdf="http://www.w3.org/1999/02/22-rdf-syntax-ns#">
   <cc:Work>
    <dc:type rdf:resource="http://purl.org/dc/dcmitype/StillImage"/>
    <dc:date>2022-12-20T12:31:07.225024</dc:date>
    <dc:format>image/svg+xml</dc:format>
    <dc:creator>
     <cc:Agent>
      <dc:title>Matplotlib v3.6.0, https://matplotlib.org/</dc:title>
     </cc:Agent>
    </dc:creator>
   </cc:Work>
  </rdf:RDF>
 </metadata>
 <defs>
  <style type="text/css">*{stroke-linejoin: round; stroke-linecap: butt}</style>
 </defs>
 <g id="figure_1">
  <g id="patch_1">
   <path d="M 0 345.6 
L 460.8 345.6 
L 460.8 0 
L 0 0 
z
" style="fill: #ffffff"/>
  </g>
  <g id="axes_1">
   <g id="patch_2">
    <path d="M 43.09 255.71 
L 450 255.71 
L 450 10.8 
L 43.09 10.8 
z
" style="fill: #ffffff"/>
   </g>
   <g id="patch_3">
    <path d="M 144.8175 255.71 
L 348.2725 255.71 
L 348.2725 176.854794 
L 144.8175 176.854794 
z
" clip-path="url(#p36eaa94389)" style="fill: #1f77b4"/>
   </g>
   <g id="patch_4">
    <path d="M 551.7275 255.71 
L 755.1825 255.71 
L 755.1825 195.40146 
L 551.7275 195.40146 
z
" clip-path="url(#p36eaa94389)" style="fill: #1f77b4"/>
   </g>
   <g id="patch_5">
    <path d="M 958.6375 255.71 
L 1162.0925 255.71 
L 1162.0925 189.884076 
L 958.6375 189.884076 
z
" clip-path="url(#p36eaa94389)" style="fill: #1f77b4"/>
   </g>
   <g id="patch_6">
    <path d="M 1365.5475 255.71 
L 1569.0025 255.71 
L 1569.0025 202.007077 
L 1365.5475 202.007077 
z
" clip-path="url(#p36eaa94389)" style="fill: #1f77b4"/>
   </g>
   <g id="patch_7">
    <path d="M 1772.4575 255.71 
L 1975.9125 255.71 
L 1975.9125 223.400068 
L 1772.4575 223.400068 
z
" clip-path="url(#p36eaa94389)" style="fill: #1f77b4"/>
   </g>
   <g id="patch_8">
    <path d="M 144.8175 255.71 
L 348.2725 255.71 
L 348.2725 255.4996 
L 144.8175 255.4996 
z
" clip-path="url(#p36eaa94389)" style="fill: #1f77b4"/>
   </g>
   <g id="patch_9">
    <path d="M 551.7275 255.71 
L 755.1825 255.71 
L 755.1825 255.639867 
L 551.7275 255.639867 
z
" clip-path="url(#p36eaa94389)" style="fill: #1f77b4"/>
   </g>
   <g id="patch_10">
    <path d="M 958.6375 255.71 
L 1162.0925 255.71 
L 1162.0925 255.71 
L 958.6375 255.71 
z
" clip-path="url(#p36eaa94389)" style="fill: #1f77b4"/>
   </g>
   <g id="patch_11">
    <path d="M 144.8175 255.71 
L 348.2725 255.71 
L 348.2725 255.686622 
L 144.8175 255.686622 
z
" clip-path="url(#p36eaa94389)" style="fill: #1f77b4"/>
   </g>
   <g id="patch_12">
    <path d="M 551.7275 255.71 
L 755.1825 255.71 
L 755.1825 255.686622 
L 551.7275 255.686622 
z
" clip-path="url(#p36eaa94389)" style="fill: #1f77b4"/>
   </g>
   <g id="patch_13">
    <path d="M 958.6375 255.71 
L 1162.0925 255.71 
L 1162.0925 255.686622 
L 958.6375 255.686622 
z
" clip-path="url(#p36eaa94389)" style="fill: #1f77b4"/>
   </g>
   <g id="patch_14">
    <path d="M 1365.5475 255.71 
L 1569.0025 255.71 
L 1569.0025 255.639867 
L 1365.5475 255.639867 
z
" clip-path="url(#p36eaa94389)" style="fill: #1f77b4"/>
   </g>
   <g id="patch_15">
    <path d="M 1772.4575 255.71 
L 1975.9125 255.71 
L 1975.9125 255.71 
L 1772.4575 255.71 
z
" clip-path="url(#p36eaa94389)" style="fill: #1f77b4"/>
   </g>
   <g id="patch_16">
    <path d="M 144.8175 255.71 
L 348.2725 255.71 
L 348.2725 242.524909 
L 144.8175 242.524909 
z
" clip-path="url(#p36eaa94389)" style="fill: #1f77b4"/>
   </g>
   <g id="patch_17">
    <path d="M 551.7275 255.71 
L 755.1825 255.71 
L 755.1825 251.992927 
L 551.7275 251.992927 
z
" clip-path="url(#p36eaa94389)" style="fill: #1f77b4"/>
   </g>
   <g id="patch_18">
    <path d="M 958.6375 255.71 
L 1162.0925 255.71 
L 1162.0925 252.659194 
L 958.6375 252.659194 
z
" clip-path="url(#p36eaa94389)" style="fill: #1f77b4"/>
   </g>
   <g id="patch_19">
    <path d="M 1365.5475 255.71 
L 1569.0025 255.71 
L 1569.0025 242.875577 
L 1365.5475 242.875577 
z
" clip-path="url(#p36eaa94389)" style="fill: #1f77b4"/>
   </g>
   <g id="patch_20">
    <path d="M 1772.4575 255.71 
L 1975.9125 255.71 
L 1975.9125 254.061864 
L 1772.4575 254.061864 
z
" clip-path="url(#p36eaa94389)" style="fill: #1f77b4"/>
   </g>
   <g id="patch_21">
    <path d="M 144.8175 255.71 
L 348.2725 255.71 
L 348.2725 255.639867 
L 144.8175 255.639867 
z
" clip-path="url(#p36eaa94389)" style="fill: #1f77b4"/>
   </g>
   <g id="patch_22">
    <path d="M 551.7275 255.71 
L 755.1825 255.71 
L 755.1825 255.71 
L 551.7275 255.71 
z
" clip-path="url(#p36eaa94389)" style="fill: #1f77b4"/>
   </g>
   <g id="patch_23">
    <path d="M 958.6375 255.71 
L 1162.0925 255.71 
L 1162.0925 255.71 
L 958.6375 255.71 
z
" clip-path="url(#p36eaa94389)" style="fill: #1f77b4"/>
   </g>
   <g id="patch_24">
    <path d="M 1365.5475 255.71 
L 1569.0025 255.71 
L 1569.0025 255.71 
L 1365.5475 255.71 
z
" clip-path="url(#p36eaa94389)" style="fill: #1f77b4"/>
   </g>
   <g id="patch_25">
    <path d="M 144.8175 255.71 
L 348.2725 255.71 
L 348.2725 253.816397 
L 144.8175 253.816397 
z
" clip-path="url(#p36eaa94389)" style="fill: #1f77b4"/>
   </g>
   <g id="patch_26">
    <path d="M 551.7275 255.71 
L 755.1825 255.71 
L 755.1825 255.4996 
L 551.7275 255.4996 
z
" clip-path="url(#p36eaa94389)" style="fill: #1f77b4"/>
   </g>
   <g id="patch_27">
    <path d="M 958.6375 255.71 
L 1162.0925 255.71 
L 1162.0925 255.639867 
L 958.6375 255.639867 
z
" clip-path="url(#p36eaa94389)" style="fill: #1f77b4"/>
   </g>
   <g id="patch_28">
    <path d="M 1365.5475 255.71 
L 1569.0025 255.71 
L 1569.0025 255.639867 
L 1365.5475 255.639867 
z
" clip-path="url(#p36eaa94389)" style="fill: #1f77b4"/>
   </g>
   <g id="patch_29">
    <path d="M 1772.4575 255.71 
L 1975.9125 255.71 
L 1975.9125 255.219066 
L 1772.4575 255.219066 
z
" clip-path="url(#p36eaa94389)" style="fill: #1f77b4"/>
   </g>
   <g id="patch_30">
    <path d="M 144.8175 255.71 
L 348.2725 255.71 
L 348.2725 255.569733 
L 144.8175 255.569733 
z
" clip-path="url(#p36eaa94389)" style="fill: #1f77b4"/>
   </g>
   <g id="patch_31">
    <path d="M 551.7275 255.71 
L 755.1825 255.71 
L 755.1825 255.569733 
L 551.7275 255.569733 
z
" clip-path="url(#p36eaa94389)" style="fill: #1f77b4"/>
   </g>
   <g id="patch_32">
    <path d="M 958.6375 255.71 
L 1162.0925 255.71 
L 1162.0925 255.569733 
L 958.6375 255.569733 
z
" clip-path="url(#p36eaa94389)" style="fill: #1f77b4"/>
   </g>
   <g id="patch_33">
    <path d="M 1365.5475 255.71 
L 1569.0025 255.71 
L 1569.0025 255.569733 
L 1365.5475 255.569733 
z
" clip-path="url(#p36eaa94389)" style="fill: #1f77b4"/>
   </g>
   <g id="patch_34">
    <path d="M 1772.4575 255.71 
L 1975.9125 255.71 
L 1975.9125 255.569733 
L 1772.4575 255.569733 
z
" clip-path="url(#p36eaa94389)" style="fill: #1f77b4"/>
   </g>
   <g id="patch_35">
    <path d="M 144.8175 255.71 
L 348.2725 255.71 
L 348.2725 255.4996 
L 144.8175 255.4996 
z
" clip-path="url(#p36eaa94389)" style="fill: #1f77b4"/>
   </g>
   <g id="patch_36">
    <path d="M 551.7275 255.71 
L 755.1825 255.71 
L 755.1825 255.534666 
L 551.7275 255.534666 
z
" clip-path="url(#p36eaa94389)" style="fill: #1f77b4"/>
   </g>
   <g id="patch_37">
    <path d="M 958.6375 255.71 
L 1162.0925 255.71 
L 1162.0925 255.639867 
L 958.6375 255.639867 
z
" clip-path="url(#p36eaa94389)" style="fill: #1f77b4"/>
   </g>
   <g id="patch_38">
    <path d="M 1365.5475 255.71 
L 1569.0025 255.71 
L 1569.0025 255.674933 
L 1365.5475 255.674933 
z
" clip-path="url(#p36eaa94389)" style="fill: #1f77b4"/>
   </g>
   <g id="patch_39">
    <path d="M 1772.4575 255.71 
L 1975.9125 255.71 
L 1975.9125 255.674933 
L 1772.4575 255.674933 
z
" clip-path="url(#p36eaa94389)" style="fill: #1f77b4"/>
   </g>
   <g id="patch_40">
    <path d="M 144.8175 255.71 
L 348.2725 255.71 
L 348.2725 255.4996 
L 144.8175 255.4996 
z
" clip-path="url(#p36eaa94389)" style="fill: #1f77b4"/>
   </g>
   <g id="patch_41">
    <path d="M 551.7275 255.71 
L 755.1825 255.71 
L 755.1825 255.71 
L 551.7275 255.71 
z
" clip-path="url(#p36eaa94389)" style="fill: #1f77b4"/>
   </g>
   <g id="patch_42">
    <path d="M 958.6375 255.71 
L 1162.0925 255.71 
L 1162.0925 255.71 
L 958.6375 255.71 
z
" clip-path="url(#p36eaa94389)" style="fill: #1f77b4"/>
   </g>
   <g id="patch_43">
    <path d="M 144.8175 255.71 
L 348.2725 255.71 
L 348.2725 255.4996 
L 144.8175 255.4996 
z
" clip-path="url(#p36eaa94389)" style="fill: #1f77b4"/>
   </g>
   <g id="patch_44">
    <path d="M 551.7275 255.71 
L 755.1825 255.71 
L 755.1825 255.639867 
L 551.7275 255.639867 
z
" clip-path="url(#p36eaa94389)" style="fill: #1f77b4"/>
   </g>
   <g id="patch_45">
    <path d="M 144.8175 255.71 
L 348.2725 255.71 
L 348.2725 178.379509 
L 144.8175 178.379509 
z
" clip-path="url(#p36eaa94389)" style="fill: #1f77b4"/>
   </g>
   <g id="patch_46">
    <path d="M 551.7275 255.71 
L 755.1825 255.71 
L 755.1825 200.145184 
L 551.7275 200.145184 
z
" clip-path="url(#p36eaa94389)" style="fill: #1f77b4"/>
   </g>
   <g id="patch_47">
    <path d="M 958.6375 255.71 
L 1162.0925 255.71 
L 1162.0925 207.414967 
L 958.6375 207.414967 
z
" clip-path="url(#p36eaa94389)" style="fill: #1f77b4"/>
   </g>
   <g id="patch_48">
    <path d="M 1365.5475 255.71 
L 1569.0025 255.71 
L 1569.0025 200.338182 
L 1365.5475 200.338182 
z
" clip-path="url(#p36eaa94389)" style="fill: #1f77b4"/>
   </g>
   <g id="patch_49">
    <path d="M 1772.4575 255.71 
L 1975.9125 255.71 
L 1975.9125 214.984577 
L 1772.4575 214.984577 
z
" clip-path="url(#p36eaa94389)" style="fill: #1f77b4"/>
   </g>
   <g id="patch_50">
    <path d="M 144.8175 255.71 
L 348.2725 255.71 
L 348.2725 255.71 
L 144.8175 255.71 
z
" clip-path="url(#p36eaa94389)" style="fill: #1f77b4"/>
   </g>
   <g id="patch_51">
    <path d="M 551.7275 255.71 
L 755.1825 255.71 
L 755.1825 255.71 
L 551.7275 255.71 
z
" clip-path="url(#p36eaa94389)" style="fill: #1f77b4"/>
   </g>
   <g id="patch_52">
    <path d="M 958.6375 255.71 
L 1162.0925 255.71 
L 1162.0925 255.71 
L 958.6375 255.71 
z
" clip-path="url(#p36eaa94389)" style="fill: #1f77b4"/>
   </g>
   <g id="patch_53">
    <path d="M 1365.5475 255.71 
L 1569.0025 255.71 
L 1569.0025 255.71 
L 1365.5475 255.71 
z
" clip-path="url(#p36eaa94389)" style="fill: #1f77b4"/>
   </g>
   <g id="patch_54">
    <path d="M 1772.4575 255.71 
L 1975.9125 255.71 
L 1975.9125 255.71 
L 1772.4575 255.71 
z
" clip-path="url(#p36eaa94389)" style="fill: #1f77b4"/>
   </g>
   <g id="patch_55">
    <path d="M 144.8175 255.71 
L 348.2725 255.71 
L 348.2725 255.639867 
L 144.8175 255.639867 
z
" clip-path="url(#p36eaa94389)" style="fill: #1f77b4"/>
   </g>
   <g id="patch_56">
    <path d="M 551.7275 255.71 
L 755.1825 255.71 
L 755.1825 255.71 
L 551.7275 255.71 
z
" clip-path="url(#p36eaa94389)" style="fill: #1f77b4"/>
   </g>
   <g id="patch_57">
    <path d="M 958.6375 255.71 
L 1162.0925 255.71 
L 1162.0925 255.71 
L 958.6375 255.71 
z
" clip-path="url(#p36eaa94389)" style="fill: #1f77b4"/>
   </g>
   <g id="patch_58">
    <path d="M 1365.5475 255.71 
L 1569.0025 255.71 
L 1569.0025 255.71 
L 1365.5475 255.71 
z
" clip-path="url(#p36eaa94389)" style="fill: #1f77b4"/>
   </g>
   <g id="patch_59">
    <path d="M 1772.4575 255.71 
L 1975.9125 255.71 
L 1975.9125 255.71 
L 1772.4575 255.71 
z
" clip-path="url(#p36eaa94389)" style="fill: #1f77b4"/>
   </g>
   <g id="patch_60">
    <path d="M 144.8175 255.71 
L 348.2725 255.71 
L 348.2725 255.324266 
L 144.8175 255.324266 
z
" clip-path="url(#p36eaa94389)" style="fill: #1f77b4"/>
   </g>
   <g id="patch_61">
    <path d="M 551.7275 255.71 
L 755.1825 255.71 
L 755.1825 255.4996 
L 551.7275 255.4996 
z
" clip-path="url(#p36eaa94389)" style="fill: #1f77b4"/>
   </g>
   <g id="patch_62">
    <path d="M 958.6375 255.71 
L 1162.0925 255.71 
L 1162.0925 255.674933 
L 958.6375 255.674933 
z
" clip-path="url(#p36eaa94389)" style="fill: #1f77b4"/>
   </g>
   <g id="patch_63">
    <path d="M 1365.5475 255.71 
L 1569.0025 255.71 
L 1569.0025 255.71 
L 1365.5475 255.71 
z
" clip-path="url(#p36eaa94389)" style="fill: #1f77b4"/>
   </g>
   <g id="patch_64">
    <path d="M 1772.4575 255.71 
L 1975.9125 255.71 
L 1975.9125 255.71 
L 1772.4575 255.71 
z
" clip-path="url(#p36eaa94389)" style="fill: #1f77b4"/>
   </g>
   <g id="patch_65">
    <path d="M 144.8175 255.71 
L 348.2725 255.71 
L 348.2725 247.960253 
L 144.8175 247.960253 
z
" clip-path="url(#p36eaa94389)" style="fill: #1f77b4"/>
   </g>
   <g id="patch_66">
    <path d="M 551.7275 255.71 
L 755.1825 255.71 
L 755.1825 255.008665 
L 551.7275 255.008665 
z
" clip-path="url(#p36eaa94389)" style="fill: #1f77b4"/>
   </g>
   <g id="patch_67">
    <path d="M 958.6375 255.71 
L 1162.0925 255.71 
L 1162.0925 251.478615 
L 958.6375 251.478615 
z
" clip-path="url(#p36eaa94389)" style="fill: #1f77b4"/>
   </g>
   <g id="patch_68">
    <path d="M 1365.5475 255.71 
L 1569.0025 255.71 
L 1569.0025 250.379857 
L 1365.5475 250.379857 
z
" clip-path="url(#p36eaa94389)" style="fill: #1f77b4"/>
   </g>
   <g id="patch_69">
    <path d="M 1772.4575 255.71 
L 1975.9125 255.71 
L 1975.9125 251.396792 
L 1772.4575 251.396792 
z
" clip-path="url(#p36eaa94389)" style="fill: #1f77b4"/>
   </g>
   <g id="patch_70">
    <path d="M 144.8175 255.71 
L 348.2725 255.71 
L 348.2725 232.370315 
L 144.8175 232.370315 
z
" clip-path="url(#p36eaa94389)" style="fill: #1f77b4"/>
   </g>
   <g id="patch_71">
    <path d="M 551.7275 255.71 
L 755.1825 255.71 
L 755.1825 235.719579 
L 551.7275 235.719579 
z
" clip-path="url(#p36eaa94389)" style="fill: #1f77b4"/>
   </g>
   <g id="patch_72">
    <path d="M 958.6375 255.71 
L 1162.0925 255.71 
L 1162.0925 207.162963 
L 958.6375 207.162963 
z
" clip-path="url(#p36eaa94389)" style="fill: #1f77b4"/>
   </g>
   <g id="patch_73">
    <path d="M 1365.5475 255.71 
L 1569.0025 255.71 
L 1569.0025 226.435127 
L 1365.5475 226.435127 
z
" clip-path="url(#p36eaa94389)" style="fill: #1f77b4"/>
   </g>
   <g id="patch_74">
    <path d="M 1772.4575 255.71 
L 1975.9125 255.71 
L 1975.9125 206.843329 
L 1772.4575 206.843329 
z
" clip-path="url(#p36eaa94389)" style="fill: #1f77b4"/>
   </g>
   <g id="patch_75">
    <path d="M 144.8175 255.71 
L 348.2725 255.71 
L 348.2725 255.71 
L 144.8175 255.71 
z
" clip-path="url(#p36eaa94389)" style="fill: #1f77b4"/>
   </g>
   <g id="patch_76">
    <path d="M 551.7275 255.71 
L 755.1825 255.71 
L 755.1825 255.71 
L 551.7275 255.71 
z
" clip-path="url(#p36eaa94389)" style="fill: #1f77b4"/>
   </g>
   <g id="patch_77">
    <path d="M 144.8175 255.71 
L 348.2725 255.71 
L 348.2725 254.833332 
L 144.8175 254.833332 
z
" clip-path="url(#p36eaa94389)" style="fill: #1f77b4"/>
   </g>
   <g id="patch_78">
    <path d="M 551.7275 255.71 
L 755.1825 255.71 
L 755.1825 255.008665 
L 551.7275 255.008665 
z
" clip-path="url(#p36eaa94389)" style="fill: #1f77b4"/>
   </g>
   <g id="patch_79">
    <path d="M 958.6375 255.71 
L 1162.0925 255.71 
L 1162.0925 255.289199 
L 958.6375 255.289199 
z
" clip-path="url(#p36eaa94389)" style="fill: #1f77b4"/>
   </g>
   <g id="patch_80">
    <path d="M 1365.5475 255.71 
L 1569.0025 255.71 
L 1569.0025 255.639867 
L 1365.5475 255.639867 
z
" clip-path="url(#p36eaa94389)" style="fill: #1f77b4"/>
   </g>
   <g id="patch_81">
    <path d="M 1772.4575 255.71 
L 1975.9125 255.71 
L 1975.9125 255.569733 
L 1772.4575 255.569733 
z
" clip-path="url(#p36eaa94389)" style="fill: #1f77b4"/>
   </g>
   <g id="patch_82">
    <path d="M 144.8175 255.71 
L 348.2725 255.71 
L 348.2725 255.4996 
L 144.8175 255.4996 
z
" clip-path="url(#p36eaa94389)" style="fill: #1f77b4"/>
   </g>
   <g id="patch_83">
    <path d="M 551.7275 255.71 
L 755.1825 255.71 
L 755.1825 255.4996 
L 551.7275 255.4996 
z
" clip-path="url(#p36eaa94389)" style="fill: #1f77b4"/>
   </g>
   <g id="patch_84">
    <path d="M 958.6375 255.71 
L 1162.0925 255.71 
L 1162.0925 255.639867 
L 958.6375 255.639867 
z
" clip-path="url(#p36eaa94389)" style="fill: #1f77b4"/>
   </g>
   <g id="patch_85">
    <path d="M 1365.5475 255.71 
L 1569.0025 255.71 
L 1569.0025 255.71 
L 1365.5475 255.71 
z
" clip-path="url(#p36eaa94389)" style="fill: #1f77b4"/>
   </g>
   <g id="patch_86">
    <path d="M 1772.4575 255.71 
L 1975.9125 255.71 
L 1975.9125 255.71 
L 1772.4575 255.71 
z
" clip-path="url(#p36eaa94389)" style="fill: #1f77b4"/>
   </g>
   <g id="patch_87">
    <path d="M 144.8175 255.71 
L 348.2725 255.71 
L 348.2725 254.237197 
L 144.8175 254.237197 
z
" clip-path="url(#p36eaa94389)" style="fill: #1f77b4"/>
   </g>
   <g id="patch_88">
    <path d="M 551.7275 255.71 
L 755.1825 255.71 
L 755.1825 255.674933 
L 551.7275 255.674933 
z
" clip-path="url(#p36eaa94389)" style="fill: #1f77b4"/>
   </g>
   <g id="patch_89">
    <path d="M 958.6375 255.71 
L 1162.0925 255.71 
L 1162.0925 255.674933 
L 958.6375 255.674933 
z
" clip-path="url(#p36eaa94389)" style="fill: #1f77b4"/>
   </g>
   <g id="patch_90">
    <path d="M 1365.5475 255.71 
L 1569.0025 255.71 
L 1569.0025 255.674933 
L 1365.5475 255.674933 
z
" clip-path="url(#p36eaa94389)" style="fill: #1f77b4"/>
   </g>
   <g id="patch_91">
    <path d="M 1772.4575 255.71 
L 1975.9125 255.71 
L 1975.9125 255.674933 
L 1772.4575 255.674933 
z
" clip-path="url(#p36eaa94389)" style="fill: #1f77b4"/>
   </g>
   <g id="patch_92">
    <path d="M 144.8175 255.71 
L 348.2725 255.71 
L 348.2725 255.71 
L 144.8175 255.71 
z
" clip-path="url(#p36eaa94389)" style="fill: #1f77b4"/>
   </g>
   <g id="patch_93">
    <path d="M 144.8175 255.71 
L 348.2725 255.71 
L 348.2725 255.359333 
L 144.8175 255.359333 
z
" clip-path="url(#p36eaa94389)" style="fill: #1f77b4"/>
   </g>
   <g id="patch_94">
    <path d="M 551.7275 255.71 
L 755.1825 255.71 
L 755.1825 255.359333 
L 551.7275 255.359333 
z
" clip-path="url(#p36eaa94389)" style="fill: #1f77b4"/>
   </g>
   <g id="patch_95">
    <path d="M 958.6375 255.71 
L 1162.0925 255.71 
L 1162.0925 255.639867 
L 958.6375 255.639867 
z
" clip-path="url(#p36eaa94389)" style="fill: #1f77b4"/>
   </g>
   <g id="patch_96">
    <path d="M 144.8175 255.71 
L 348.2725 255.71 
L 348.2725 254.237197 
L 144.8175 254.237197 
z
" clip-path="url(#p36eaa94389)" style="fill: #1f77b4"/>
   </g>
   <g id="patch_97">
    <path d="M 551.7275 255.71 
L 755.1825 255.71 
L 755.1825 255.639867 
L 551.7275 255.639867 
z
" clip-path="url(#p36eaa94389)" style="fill: #1f77b4"/>
   </g>
   <g id="patch_98">
    <path d="M 958.6375 255.71 
L 1162.0925 255.71 
L 1162.0925 255.639867 
L 958.6375 255.639867 
z
" clip-path="url(#p36eaa94389)" style="fill: #1f77b4"/>
   </g>
   <g id="patch_99">
    <path d="M 1365.5475 255.71 
L 1569.0025 255.71 
L 1569.0025 255.71 
L 1365.5475 255.71 
z
" clip-path="url(#p36eaa94389)" style="fill: #1f77b4"/>
   </g>
   <g id="patch_100">
    <path d="M 1772.4575 255.71 
L 1975.9125 255.71 
L 1975.9125 255.71 
L 1772.4575 255.71 
z
" clip-path="url(#p36eaa94389)" style="fill: #1f77b4"/>
   </g>
   <g id="patch_101">
    <path d="M 144.8175 255.71 
L 348.2725 255.71 
L 348.2725 255.71 
L 144.8175 255.71 
z
" clip-path="url(#p36eaa94389)" style="fill: #1f77b4"/>
   </g>
   <g id="patch_102">
    <path d="M 144.8175 255.71 
L 348.2725 255.71 
L 348.2725 176.428345 
L 144.8175 176.428345 
z
" clip-path="url(#p36eaa94389)" style="fill: #1f77b4"/>
   </g>
   <g id="patch_103">
    <path d="M 551.7275 255.71 
L 755.1825 255.71 
L 755.1825 193.873019 
L 551.7275 193.873019 
z
" clip-path="url(#p36eaa94389)" style="fill: #1f77b4"/>
   </g>
   <g id="patch_104">
    <path d="M 958.6375 255.71 
L 1162.0925 255.71 
L 1162.0925 205.670925 
L 958.6375 205.670925 
z
" clip-path="url(#p36eaa94389)" style="fill: #1f77b4"/>
   </g>
   <g id="patch_105">
    <path d="M 1365.5475 255.71 
L 1569.0025 255.71 
L 1569.0025 214.763236 
L 1365.5475 214.763236 
z
" clip-path="url(#p36eaa94389)" style="fill: #1f77b4"/>
   </g>
   <g id="patch_106">
    <path d="M 1772.4575 255.71 
L 1975.9125 255.71 
L 1975.9125 221.248917 
L 1772.4575 221.248917 
z
" clip-path="url(#p36eaa94389)" style="fill: #1f77b4"/>
   </g>
   <g id="patch_107">
    <path d="M 144.8175 255.71 
L 348.2725 255.71 
L 348.2725 255.359333 
L 144.8175 255.359333 
z
" clip-path="url(#p36eaa94389)" style="fill: #1f77b4"/>
   </g>
   <g id="patch_108">
    <path d="M 551.7275 255.71 
L 755.1825 255.71 
L 755.1825 255.359333 
L 551.7275 255.359333 
z
" clip-path="url(#p36eaa94389)" style="fill: #1f77b4"/>
   </g>
   <g id="patch_109">
    <path d="M 958.6375 255.71 
L 1162.0925 255.71 
L 1162.0925 255.359333 
L 958.6375 255.359333 
z
" clip-path="url(#p36eaa94389)" style="fill: #1f77b4"/>
   </g>
   <g id="patch_110">
    <path d="M 1365.5475 255.71 
L 1569.0025 255.71 
L 1569.0025 255.674933 
L 1365.5475 255.674933 
z
" clip-path="url(#p36eaa94389)" style="fill: #1f77b4"/>
   </g>
   <g id="patch_111">
    <path d="M 1772.4575 255.71 
L 1975.9125 255.71 
L 1975.9125 255.674933 
L 1772.4575 255.674933 
z
" clip-path="url(#p36eaa94389)" style="fill: #1f77b4"/>
   </g>
   <g id="patch_112">
    <path d="M 144.8175 255.71 
L 348.2725 255.71 
L 348.2725 214.299889 
L 144.8175 214.299889 
z
" clip-path="url(#p36eaa94389)" style="fill: #1f77b4"/>
   </g>
   <g id="patch_113">
    <path d="M 551.7275 255.71 
L 755.1825 255.71 
L 755.1825 214.380616 
L 551.7275 214.380616 
z
" clip-path="url(#p36eaa94389)" style="fill: #1f77b4"/>
   </g>
   <g id="patch_114">
    <path d="M 958.6375 255.71 
L 1162.0925 255.71 
L 1162.0925 228.501283 
L 958.6375 228.501283 
z
" clip-path="url(#p36eaa94389)" style="fill: #1f77b4"/>
   </g>
   <g id="patch_115">
    <path d="M 1365.5475 255.71 
L 1569.0025 255.71 
L 1569.0025 227.277847 
L 1365.5475 227.277847 
z
" clip-path="url(#p36eaa94389)" style="fill: #1f77b4"/>
   </g>
   <g id="patch_116">
    <path d="M 1772.4575 255.71 
L 1975.9125 255.71 
L 1975.9125 214.003145 
L 1772.4575 214.003145 
z
" clip-path="url(#p36eaa94389)" style="fill: #1f77b4"/>
   </g>
   <g id="patch_117">
    <path d="M 144.8175 255.71 
L 348.2725 255.71 
L 348.2725 255.289199 
L 144.8175 255.289199 
z
" clip-path="url(#p36eaa94389)" style="fill: #1f77b4"/>
   </g>
   <g id="patch_118">
    <path d="M 551.7275 255.71 
L 755.1825 255.71 
L 755.1825 255.359333 
L 551.7275 255.359333 
z
" clip-path="url(#p36eaa94389)" style="fill: #1f77b4"/>
   </g>
   <g id="patch_119">
    <path d="M 958.6375 255.71 
L 1162.0925 255.71 
L 1162.0925 255.4996 
L 958.6375 255.4996 
z
" clip-path="url(#p36eaa94389)" style="fill: #1f77b4"/>
   </g>
   <g id="patch_120">
    <path d="M 1365.5475 255.71 
L 1569.0025 255.71 
L 1569.0025 255.569733 
L 1365.5475 255.569733 
z
" clip-path="url(#p36eaa94389)" style="fill: #1f77b4"/>
   </g>
   <g id="patch_121">
    <path d="M 1772.4575 255.71 
L 1975.9125 255.71 
L 1975.9125 255.674933 
L 1772.4575 255.674933 
z
" clip-path="url(#p36eaa94389)" style="fill: #1f77b4"/>
   </g>
   <g id="patch_122">
    <path d="M 144.8175 255.71 
L 348.2725 255.71 
L 348.2725 255.4996 
L 144.8175 255.4996 
z
" clip-path="url(#p36eaa94389)" style="fill: #1f77b4"/>
   </g>
   <g id="patch_123">
    <path d="M 551.7275 255.71 
L 755.1825 255.71 
L 755.1825 255.674933 
L 551.7275 255.674933 
z
" clip-path="url(#p36eaa94389)" style="fill: #1f77b4"/>
   </g>
   <g id="patch_124">
    <path d="M 958.6375 255.71 
L 1162.0925 255.71 
L 1162.0925 255.674933 
L 958.6375 255.674933 
z
" clip-path="url(#p36eaa94389)" style="fill: #1f77b4"/>
   </g>
   <g id="patch_125">
    <path d="M 1365.5475 255.71 
L 1569.0025 255.71 
L 1569.0025 255.639867 
L 1365.5475 255.639867 
z
" clip-path="url(#p36eaa94389)" style="fill: #1f77b4"/>
   </g>
   <g id="patch_126">
    <path d="M 1772.4575 255.71 
L 1975.9125 255.71 
L 1975.9125 255.71 
L 1772.4575 255.71 
z
" clip-path="url(#p36eaa94389)" style="fill: #1f77b4"/>
   </g>
   <g id="patch_127">
    <path d="M 144.8175 255.71 
L 348.2725 255.71 
L 348.2725 255.4996 
L 144.8175 255.4996 
z
" clip-path="url(#p36eaa94389)" style="fill: #1f77b4"/>
   </g>
   <g id="patch_128">
    <path d="M 551.7275 255.71 
L 755.1825 255.71 
L 755.1825 255.639867 
L 551.7275 255.639867 
z
" clip-path="url(#p36eaa94389)" style="fill: #1f77b4"/>
   </g>
   <g id="patch_129">
    <path d="M 958.6375 255.71 
L 1162.0925 255.71 
L 1162.0925 255.71 
L 958.6375 255.71 
z
" clip-path="url(#p36eaa94389)" style="fill: #1f77b4"/>
   </g>
   <g id="patch_130">
    <path d="M 1365.5475 255.71 
L 1569.0025 255.71 
L 1569.0025 255.71 
L 1365.5475 255.71 
z
" clip-path="url(#p36eaa94389)" style="fill: #1f77b4"/>
   </g>
   <g id="patch_131">
    <path d="M 1772.4575 255.71 
L 1975.9125 255.71 
L 1975.9125 255.71 
L 1772.4575 255.71 
z
" clip-path="url(#p36eaa94389)" style="fill: #1f77b4"/>
   </g>
   <g id="patch_132">
    <path d="M 144.8175 255.71 
L 348.2725 255.71 
L 348.2725 253.859646 
L 144.8175 253.859646 
z
" clip-path="url(#p36eaa94389)" style="fill: #1f77b4"/>
   </g>
   <g id="patch_133">
    <path d="M 551.7275 255.71 
L 755.1825 255.71 
L 755.1825 255.289199 
L 551.7275 255.289199 
z
" clip-path="url(#p36eaa94389)" style="fill: #1f77b4"/>
   </g>
   <g id="patch_134">
    <path d="M 958.6375 255.71 
L 1162.0925 255.71 
L 1162.0925 254.711767 
L 958.6375 254.711767 
z
" clip-path="url(#p36eaa94389)" style="fill: #1f77b4"/>
   </g>
   <g id="patch_135">
    <path d="M 1365.5475 255.71 
L 1569.0025 255.71 
L 1569.0025 254.711767 
L 1365.5475 254.711767 
z
" clip-path="url(#p36eaa94389)" style="fill: #1f77b4"/>
   </g>
   <g id="patch_136">
    <path d="M 1772.4575 255.71 
L 1975.9125 255.71 
L 1975.9125 254.711767 
L 1772.4575 254.711767 
z
" clip-path="url(#p36eaa94389)" style="fill: #1f77b4"/>
   </g>
   <g id="patch_137">
    <path d="M 144.8175 255.71 
L 348.2725 255.71 
L 348.2725 241.402384 
L 144.8175 241.402384 
z
" clip-path="url(#p36eaa94389)" style="fill: #1f77b4"/>
   </g>
   <g id="patch_138">
    <path d="M 551.7275 255.71 
L 755.1825 255.71 
L 755.1825 244.090054 
L 551.7275 244.090054 
z
" clip-path="url(#p36eaa94389)" style="fill: #1f77b4"/>
   </g>
   <g id="patch_139">
    <path d="M 958.6375 255.71 
L 1162.0925 255.71 
L 1162.0925 253.734574 
L 958.6375 253.734574 
z
" clip-path="url(#p36eaa94389)" style="fill: #1f77b4"/>
   </g>
   <g id="patch_140">
    <path d="M 1365.5475 255.71 
L 1569.0025 255.71 
L 1569.0025 255.447 
L 1365.5475 255.447 
z
" clip-path="url(#p36eaa94389)" style="fill: #1f77b4"/>
   </g>
   <g id="patch_141">
    <path d="M 1772.4575 255.71 
L 1975.9125 255.71 
L 1975.9125 255.447 
L 1772.4575 255.447 
z
" clip-path="url(#p36eaa94389)" style="fill: #1f77b4"/>
   </g>
   <g id="patch_142">
    <path d="M 144.8175 255.71 
L 348.2725 255.71 
L 348.2725 254.149531 
L 144.8175 254.149531 
z
" clip-path="url(#p36eaa94389)" style="fill: #1f77b4"/>
   </g>
   <g id="patch_143">
    <path d="M 551.7275 255.71 
L 755.1825 255.71 
L 755.1825 254.693065 
L 551.7275 254.693065 
z
" clip-path="url(#p36eaa94389)" style="fill: #1f77b4"/>
   </g>
   <g id="patch_144">
    <path d="M 958.6375 255.71 
L 1162.0925 255.71 
L 1162.0925 255.4996 
L 958.6375 255.4996 
z
" clip-path="url(#p36eaa94389)" style="fill: #1f77b4"/>
   </g>
   <g id="patch_145">
    <path d="M 1365.5475 255.71 
L 1569.0025 255.71 
L 1569.0025 255.555706 
L 1365.5475 255.555706 
z
" clip-path="url(#p36eaa94389)" style="fill: #1f77b4"/>
   </g>
   <g id="patch_146">
    <path d="M 1772.4575 255.71 
L 1975.9125 255.71 
L 1975.9125 255.359333 
L 1772.4575 255.359333 
z
" clip-path="url(#p36eaa94389)" style="fill: #1f77b4"/>
   </g>
   <g id="patch_147">
    <path d="M 144.8175 255.71 
L 348.2725 255.71 
L 348.2725 255.56194 
L 144.8175 255.56194 
z
" clip-path="url(#p36eaa94389)" style="fill: #1f77b4"/>
   </g>
   <g id="patch_148">
    <path d="M 551.7275 255.71 
L 755.1825 255.71 
L 755.1825 255.674933 
L 551.7275 255.674933 
z
" clip-path="url(#p36eaa94389)" style="fill: #1f77b4"/>
   </g>
   <g id="patch_149">
    <path d="M 958.6375 255.71 
L 1162.0925 255.71 
L 1162.0925 255.674933 
L 958.6375 255.674933 
z
" clip-path="url(#p36eaa94389)" style="fill: #1f77b4"/>
   </g>
   <g id="patch_150">
    <path d="M 1365.5475 255.71 
L 1569.0025 255.71 
L 1569.0025 255.702207 
L 1365.5475 255.702207 
z
" clip-path="url(#p36eaa94389)" style="fill: #1f77b4"/>
   </g>
   <g id="patch_151">
    <path d="M 1772.4575 255.71 
L 1975.9125 255.71 
L 1975.9125 255.702207 
L 1772.4575 255.702207 
z
" clip-path="url(#p36eaa94389)" style="fill: #1f77b4"/>
   </g>
   <g id="patch_152">
    <path d="M 144.8175 255.71 
L 348.2725 255.71 
L 348.2725 255.406088 
L 144.8175 255.406088 
z
" clip-path="url(#p36eaa94389)" style="fill: #1f77b4"/>
   </g>
   <g id="patch_153">
    <path d="M 551.7275 255.71 
L 755.1825 255.71 
L 755.1825 255.546355 
L 551.7275 255.546355 
z
" clip-path="url(#p36eaa94389)" style="fill: #1f77b4"/>
   </g>
   <g id="patch_154">
    <path d="M 958.6375 255.71 
L 1162.0925 255.71 
L 1162.0925 255.4996 
L 958.6375 255.4996 
z
" clip-path="url(#p36eaa94389)" style="fill: #1f77b4"/>
   </g>
   <g id="patch_155">
    <path d="M 1365.5475 255.71 
L 1569.0025 255.71 
L 1569.0025 255.429466 
L 1365.5475 255.429466 
z
" clip-path="url(#p36eaa94389)" style="fill: #1f77b4"/>
   </g>
   <g id="patch_156">
    <path d="M 1772.4575 255.71 
L 1975.9125 255.71 
L 1975.9125 255.639867 
L 1772.4575 255.639867 
z
" clip-path="url(#p36eaa94389)" style="fill: #1f77b4"/>
   </g>
   <g id="patch_157">
    <path d="M 144.8175 255.71 
L 348.2725 255.71 
L 348.2725 255.71 
L 144.8175 255.71 
z
" clip-path="url(#p36eaa94389)" style="fill: #1f77b4"/>
   </g>
   <g id="patch_158">
    <path d="M 551.7275 255.71 
L 755.1825 255.71 
L 755.1825 255.71 
L 551.7275 255.71 
z
" clip-path="url(#p36eaa94389)" style="fill: #1f77b4"/>
   </g>
   <g id="patch_159">
    <path d="M 958.6375 255.71 
L 1162.0925 255.71 
L 1162.0925 255.71 
L 958.6375 255.71 
z
" clip-path="url(#p36eaa94389)" style="fill: #1f77b4"/>
   </g>
   <g id="patch_160">
    <path d="M 1365.5475 255.71 
L 1569.0025 255.71 
L 1569.0025 255.71 
L 1365.5475 255.71 
z
" clip-path="url(#p36eaa94389)" style="fill: #1f77b4"/>
   </g>
   <g id="patch_161">
    <path d="M 144.8175 255.71 
L 348.2725 255.71 
L 348.2725 255.71 
L 144.8175 255.71 
z
" clip-path="url(#p36eaa94389)" style="fill: #1f77b4"/>
   </g>
   <g id="patch_162">
    <path d="M 551.7275 255.71 
L 755.1825 255.71 
L 755.1825 255.71 
L 551.7275 255.71 
z
" clip-path="url(#p36eaa94389)" style="fill: #1f77b4"/>
   </g>
   <g id="patch_163">
    <path d="M 958.6375 255.71 
L 1162.0925 255.71 
L 1162.0925 255.71 
L 958.6375 255.71 
z
" clip-path="url(#p36eaa94389)" style="fill: #1f77b4"/>
   </g>
   <g id="patch_164">
    <path d="M 144.8175 255.71 
L 348.2725 255.71 
L 348.2725 255.71 
L 144.8175 255.71 
z
" clip-path="url(#p36eaa94389)" style="fill: #1f77b4"/>
   </g>
   <g id="patch_165">
    <path d="M 551.7275 255.71 
L 755.1825 255.71 
L 755.1825 255.71 
L 551.7275 255.71 
z
" clip-path="url(#p36eaa94389)" style="fill: #1f77b4"/>
   </g>
   <g id="patch_166">
    <path d="M 958.6375 255.71 
L 1162.0925 255.71 
L 1162.0925 255.71 
L 958.6375 255.71 
z
" clip-path="url(#p36eaa94389)" style="fill: #1f77b4"/>
   </g>
   <g id="patch_167">
    <path d="M 1365.5475 255.71 
L 1569.0025 255.71 
L 1569.0025 255.71 
L 1365.5475 255.71 
z
" clip-path="url(#p36eaa94389)" style="fill: #1f77b4"/>
   </g>
   <g id="patch_168">
    <path d="M 144.8175 255.71 
L 348.2725 255.71 
L 348.2725 255.71 
L 144.8175 255.71 
z
" clip-path="url(#p36eaa94389)" style="fill: #1f77b4"/>
   </g>
   <g id="patch_169">
    <path d="M 551.7275 255.71 
L 755.1825 255.71 
L 755.1825 255.71 
L 551.7275 255.71 
z
" clip-path="url(#p36eaa94389)" style="fill: #1f77b4"/>
   </g>
   <g id="patch_170">
    <path d="M 144.8175 255.71 
L 348.2725 255.71 
L 348.2725 22.462381 
L 144.8175 22.462381 
z
" clip-path="url(#p36eaa94389)" style="fill: #1f77b4"/>
   </g>
   <g id="patch_171">
    <path d="M 551.7275 255.71 
L 755.1825 255.71 
L 755.1825 107.112336 
L 551.7275 107.112336 
z
" clip-path="url(#p36eaa94389)" style="fill: #1f77b4"/>
   </g>
   <g id="patch_172">
    <path d="M 958.6375 255.71 
L 1162.0925 255.71 
L 1162.0925 145.192627 
L 958.6375 145.192627 
z
" clip-path="url(#p36eaa94389)" style="fill: #1f77b4"/>
   </g>
   <g id="patch_173">
    <path d="M 1365.5475 255.71 
L 1569.0025 255.71 
L 1569.0025 136.174256 
L 1365.5475 136.174256 
z
" clip-path="url(#p36eaa94389)" style="fill: #1f77b4"/>
   </g>
   <g id="patch_174">
    <path d="M 1772.4575 255.71 
L 1975.9125 255.71 
L 1975.9125 159.885231 
L 1772.4575 159.885231 
z
" clip-path="url(#p36eaa94389)" style="fill: #1f77b4"/>
   </g>
   <g id="patch_175">
    <path d="M 144.8175 255.71 
L 348.2725 255.71 
L 348.2725 255.341799 
L 144.8175 255.341799 
z
" clip-path="url(#p36eaa94389)" style="fill: #1f77b4"/>
   </g>
   <g id="patch_176">
    <path d="M 551.7275 255.71 
L 755.1825 255.71 
L 755.1825 255.639867 
L 551.7275 255.639867 
z
" clip-path="url(#p36eaa94389)" style="fill: #1f77b4"/>
   </g>
   <g id="patch_177">
    <path d="M 958.6375 255.71 
L 1162.0925 255.71 
L 1162.0925 255.639867 
L 958.6375 255.639867 
z
" clip-path="url(#p36eaa94389)" style="fill: #1f77b4"/>
   </g>
   <g id="patch_178">
    <path d="M 1365.5475 255.71 
L 1569.0025 255.71 
L 1569.0025 255.639867 
L 1365.5475 255.639867 
z
" clip-path="url(#p36eaa94389)" style="fill: #1f77b4"/>
   </g>
   <g id="patch_179">
    <path d="M 1772.4575 255.71 
L 1975.9125 255.71 
L 1975.9125 255.6048 
L 1772.4575 255.6048 
z
" clip-path="url(#p36eaa94389)" style="fill: #1f77b4"/>
   </g>
   <g id="patch_180">
    <path d="M 144.8175 255.71 
L 348.2725 255.71 
L 348.2725 44.984177 
L 144.8175 44.984177 
z
" clip-path="url(#p36eaa94389)" style="fill: #1f77b4"/>
   </g>
   <g id="patch_181">
    <path d="M 551.7275 255.71 
L 755.1825 255.71 
L 755.1825 147.161838 
L 551.7275 147.161838 
z
" clip-path="url(#p36eaa94389)" style="fill: #1f77b4"/>
   </g>
   <g id="patch_182">
    <path d="M 958.6375 255.71 
L 1162.0925 255.71 
L 1162.0925 178.616901 
L 958.6375 178.616901 
z
" clip-path="url(#p36eaa94389)" style="fill: #1f77b4"/>
   </g>
   <g id="patch_183">
    <path d="M 1365.5475 255.71 
L 1569.0025 255.71 
L 1569.0025 167.278532 
L 1365.5475 167.278532 
z
" clip-path="url(#p36eaa94389)" style="fill: #1f77b4"/>
   </g>
   <g id="patch_184">
    <path d="M 1772.4575 255.71 
L 1975.9125 255.71 
L 1975.9125 195.641332 
L 1772.4575 195.641332 
z
" clip-path="url(#p36eaa94389)" style="fill: #1f77b4"/>
   </g>
   <g id="patch_185">
    <path d="M 144.8175 255.71 
L 348.2725 255.71 
L 348.2725 251.700704 
L 144.8175 251.700704 
z
" clip-path="url(#p36eaa94389)" style="fill: #1f77b4"/>
   </g>
   <g id="patch_186">
    <path d="M 551.7275 255.71 
L 755.1825 255.71 
L 755.1825 252.378661 
L 551.7275 252.378661 
z
" clip-path="url(#p36eaa94389)" style="fill: #1f77b4"/>
   </g>
   <g id="patch_187">
    <path d="M 958.6375 255.71 
L 1162.0925 255.71 
L 1162.0925 255.242444 
L 958.6375 255.242444 
z
" clip-path="url(#p36eaa94389)" style="fill: #1f77b4"/>
   </g>
   <g id="patch_188">
    <path d="M 1365.5475 255.71 
L 1569.0025 255.71 
L 1569.0025 255.242444 
L 1365.5475 255.242444 
z
" clip-path="url(#p36eaa94389)" style="fill: #1f77b4"/>
   </g>
   <g id="patch_189">
    <path d="M 1772.4575 255.71 
L 1975.9125 255.71 
L 1975.9125 255.387386 
L 1772.4575 255.387386 
z
" clip-path="url(#p36eaa94389)" style="fill: #1f77b4"/>
   </g>
   <g id="patch_190">
    <path d="M 144.8175 255.71 
L 348.2725 255.71 
L 348.2725 222.636229 
L 144.8175 222.636229 
z
" clip-path="url(#p36eaa94389)" style="fill: #1f77b4"/>
   </g>
   <g id="patch_191">
    <path d="M 551.7275 255.71 
L 755.1825 255.71 
L 755.1825 244.628913 
L 551.7275 244.628913 
z
" clip-path="url(#p36eaa94389)" style="fill: #1f77b4"/>
   </g>
   <g id="patch_192">
    <path d="M 958.6375 255.71 
L 1162.0925 255.71 
L 1162.0925 250.169457 
L 958.6375 250.169457 
z
" clip-path="url(#p36eaa94389)" style="fill: #1f77b4"/>
   </g>
   <g id="patch_193">
    <path d="M 1365.5475 255.71 
L 1569.0025 255.71 
L 1569.0025 250.169457 
L 1365.5475 250.169457 
z
" clip-path="url(#p36eaa94389)" style="fill: #1f77b4"/>
   </g>
   <g id="patch_194">
    <path d="M 1772.4575 255.71 
L 1975.9125 255.71 
L 1975.9125 248.423133 
L 1772.4575 248.423133 
z
" clip-path="url(#p36eaa94389)" style="fill: #1f77b4"/>
   </g>
   <g id="patch_195">
    <path d="M 144.8175 255.71 
L 348.2725 255.71 
L 348.2725 255.534666 
L 144.8175 255.534666 
z
" clip-path="url(#p36eaa94389)" style="fill: #1f77b4"/>
   </g>
   <g id="patch_196">
    <path d="M 551.7275 255.71 
L 755.1825 255.71 
L 755.1825 255.534666 
L 551.7275 255.534666 
z
" clip-path="url(#p36eaa94389)" style="fill: #1f77b4"/>
   </g>
   <g id="patch_197">
    <path d="M 958.6375 255.71 
L 1162.0925 255.71 
L 1162.0925 255.534666 
L 958.6375 255.534666 
z
" clip-path="url(#p36eaa94389)" style="fill: #1f77b4"/>
   </g>
   <g id="patch_198">
    <path d="M 1365.5475 255.71 
L 1569.0025 255.71 
L 1569.0025 255.534666 
L 1365.5475 255.534666 
z
" clip-path="url(#p36eaa94389)" style="fill: #1f77b4"/>
   </g>
   <g id="patch_199">
    <path d="M 1772.4575 255.71 
L 1975.9125 255.71 
L 1975.9125 255.534666 
L 1772.4575 255.534666 
z
" clip-path="url(#p36eaa94389)" style="fill: #1f77b4"/>
   </g>
   <g id="patch_200">
    <path d="M 144.8175 255.71 
L 348.2725 255.71 
L 348.2725 255.569733 
L 144.8175 255.569733 
z
" clip-path="url(#p36eaa94389)" style="fill: #1f77b4"/>
   </g>
   <g id="patch_201">
    <path d="M 551.7275 255.71 
L 755.1825 255.71 
L 755.1825 255.569733 
L 551.7275 255.569733 
z
" clip-path="url(#p36eaa94389)" style="fill: #1f77b4"/>
   </g>
   <g id="patch_202">
    <path d="M 958.6375 255.71 
L 1162.0925 255.71 
L 1162.0925 255.569733 
L 958.6375 255.569733 
z
" clip-path="url(#p36eaa94389)" style="fill: #1f77b4"/>
   </g>
   <g id="patch_203">
    <path d="M 1365.5475 255.71 
L 1569.0025 255.71 
L 1569.0025 255.692467 
L 1365.5475 255.692467 
z
" clip-path="url(#p36eaa94389)" style="fill: #1f77b4"/>
   </g>
   <g id="patch_204">
    <path d="M 1772.4575 255.71 
L 1975.9125 255.71 
L 1975.9125 255.692467 
L 1772.4575 255.692467 
z
" clip-path="url(#p36eaa94389)" style="fill: #1f77b4"/>
   </g>
   <g id="patch_205">
    <path d="M 144.8175 255.71 
L 348.2725 255.71 
L 348.2725 216.67913 
L 144.8175 216.67913 
z
" clip-path="url(#p36eaa94389)" style="fill: #1f77b4"/>
   </g>
   <g id="patch_206">
    <path d="M 551.7275 255.71 
L 755.1825 255.71 
L 755.1825 215.250905 
L 551.7275 215.250905 
z
" clip-path="url(#p36eaa94389)" style="fill: #1f77b4"/>
   </g>
   <g id="patch_207">
    <path d="M 958.6375 255.71 
L 1162.0925 255.71 
L 1162.0925 241.104707 
L 958.6375 241.104707 
z
" clip-path="url(#p36eaa94389)" style="fill: #1f77b4"/>
   </g>
   <g id="patch_208">
    <path d="M 1365.5475 255.71 
L 1569.0025 255.71 
L 1569.0025 241.104707 
L 1365.5475 241.104707 
z
" clip-path="url(#p36eaa94389)" style="fill: #1f77b4"/>
   </g>
   <g id="patch_209">
    <path d="M 1772.4575 255.71 
L 1975.9125 255.71 
L 1975.9125 216.194048 
L 1772.4575 216.194048 
z
" clip-path="url(#p36eaa94389)" style="fill: #1f77b4"/>
   </g>
   <g id="patch_210">
    <path d="M 144.8175 255.71 
L 348.2725 255.71 
L 348.2725 255.6048 
L 144.8175 255.6048 
z
" clip-path="url(#p36eaa94389)" style="fill: #1f77b4"/>
   </g>
   <g id="patch_211">
    <path d="M 551.7275 255.71 
L 755.1825 255.71 
L 755.1825 255.6048 
L 551.7275 255.6048 
z
" clip-path="url(#p36eaa94389)" style="fill: #1f77b4"/>
   </g>
   <g id="patch_212">
    <path d="M 958.6375 255.71 
L 1162.0925 255.71 
L 1162.0925 255.71 
L 958.6375 255.71 
z
" clip-path="url(#p36eaa94389)" style="fill: #1f77b4"/>
   </g>
   <g id="patch_213">
    <path d="M 1365.5475 255.71 
L 1569.0025 255.71 
L 1569.0025 255.71 
L 1365.5475 255.71 
z
" clip-path="url(#p36eaa94389)" style="fill: #1f77b4"/>
   </g>
   <g id="patch_214">
    <path d="M 1772.4575 255.71 
L 1975.9125 255.71 
L 1975.9125 255.71 
L 1772.4575 255.71 
z
" clip-path="url(#p36eaa94389)" style="fill: #1f77b4"/>
   </g>
   <g id="patch_215">
    <path d="M 144.8175 255.71 
L 348.2725 255.71 
L 348.2725 232.487698 
L 144.8175 232.487698 
z
" clip-path="url(#p36eaa94389)" style="fill: #1f77b4"/>
   </g>
   <g id="patch_216">
    <path d="M 551.7275 255.71 
L 755.1825 255.71 
L 755.1825 238.410115 
L 551.7275 238.410115 
z
" clip-path="url(#p36eaa94389)" style="fill: #1f77b4"/>
   </g>
   <g id="patch_217">
    <path d="M 958.6375 255.71 
L 1162.0925 255.71 
L 1162.0925 242.85521 
L 958.6375 242.85521 
z
" clip-path="url(#p36eaa94389)" style="fill: #1f77b4"/>
   </g>
   <g id="patch_218">
    <path d="M 1365.5475 255.71 
L 1569.0025 255.71 
L 1569.0025 236.229268 
L 1365.5475 236.229268 
z
" clip-path="url(#p36eaa94389)" style="fill: #1f77b4"/>
   </g>
   <g id="patch_219">
    <path d="M 1772.4575 255.71 
L 1975.9125 255.71 
L 1975.9125 250.827325 
L 1772.4575 250.827325 
z
" clip-path="url(#p36eaa94389)" style="fill: #1f77b4"/>
   </g>
   <g id="patch_220">
    <path d="M 144.8175 255.71 
L 348.2725 255.71 
L 348.2725 255.183999 
L 144.8175 255.183999 
z
" clip-path="url(#p36eaa94389)" style="fill: #1f77b4"/>
   </g>
   <g id="patch_221">
    <path d="M 551.7275 255.71 
L 755.1825 255.71 
L 755.1825 255.219066 
L 551.7275 255.219066 
z
" clip-path="url(#p36eaa94389)" style="fill: #1f77b4"/>
   </g>
   <g id="patch_222">
    <path d="M 958.6375 255.71 
L 1162.0925 255.71 
L 1162.0925 255.008665 
L 958.6375 255.008665 
z
" clip-path="url(#p36eaa94389)" style="fill: #1f77b4"/>
   </g>
   <g id="patch_223">
    <path d="M 1365.5475 255.71 
L 1569.0025 255.71 
L 1569.0025 255.534666 
L 1365.5475 255.534666 
z
" clip-path="url(#p36eaa94389)" style="fill: #1f77b4"/>
   </g>
   <g id="patch_224">
    <path d="M 1772.4575 255.71 
L 1975.9125 255.71 
L 1975.9125 255.534666 
L 1772.4575 255.534666 
z
" clip-path="url(#p36eaa94389)" style="fill: #1f77b4"/>
   </g>
   <g id="patch_225">
    <path d="M 144.8175 255.71 
L 348.2725 255.71 
L 348.2725 255.219066 
L 144.8175 255.219066 
z
" clip-path="url(#p36eaa94389)" style="fill: #1f77b4"/>
   </g>
   <g id="patch_226">
    <path d="M 551.7275 255.71 
L 755.1825 255.71 
L 755.1825 255.219066 
L 551.7275 255.219066 
z
" clip-path="url(#p36eaa94389)" style="fill: #1f77b4"/>
   </g>
   <g id="patch_227">
    <path d="M 958.6375 255.71 
L 1162.0925 255.71 
L 1162.0925 255.219066 
L 958.6375 255.219066 
z
" clip-path="url(#p36eaa94389)" style="fill: #1f77b4"/>
   </g>
   <g id="patch_228">
    <path d="M 1365.5475 255.71 
L 1569.0025 255.71 
L 1569.0025 255.686622 
L 1365.5475 255.686622 
z
" clip-path="url(#p36eaa94389)" style="fill: #1f77b4"/>
   </g>
   <g id="patch_229">
    <path d="M 1772.4575 255.71 
L 1975.9125 255.71 
L 1975.9125 255.686622 
L 1772.4575 255.686622 
z
" clip-path="url(#p36eaa94389)" style="fill: #1f77b4"/>
   </g>
   <g id="patch_230">
    <path d="M 144.8175 255.71 
L 348.2725 255.71 
L 348.2725 255.289199 
L 144.8175 255.289199 
z
" clip-path="url(#p36eaa94389)" style="fill: #1f77b4"/>
   </g>
   <g id="patch_231">
    <path d="M 551.7275 255.71 
L 755.1825 255.71 
L 755.1825 255.639867 
L 551.7275 255.639867 
z
" clip-path="url(#p36eaa94389)" style="fill: #1f77b4"/>
   </g>
   <g id="patch_232">
    <path d="M 958.6375 255.71 
L 1162.0925 255.71 
L 1162.0925 255.639867 
L 958.6375 255.639867 
z
" clip-path="url(#p36eaa94389)" style="fill: #1f77b4"/>
   </g>
   <g id="patch_233">
    <path d="M 1365.5475 255.71 
L 1569.0025 255.71 
L 1569.0025 255.71 
L 1365.5475 255.71 
z
" clip-path="url(#p36eaa94389)" style="fill: #1f77b4"/>
   </g>
   <g id="patch_234">
    <path d="M 1772.4575 255.71 
L 1975.9125 255.71 
L 1975.9125 255.71 
L 1772.4575 255.71 
z
" clip-path="url(#p36eaa94389)" style="fill: #1f77b4"/>
   </g>
   <g id="patch_235">
    <path d="M 144.8175 255.71 
L 348.2725 255.71 
L 348.2725 249.317836 
L 144.8175 249.317836 
z
" clip-path="url(#p36eaa94389)" style="fill: #1f77b4"/>
   </g>
   <g id="patch_236">
    <path d="M 551.7275 255.71 
L 755.1825 255.71 
L 755.1825 253.175176 
L 551.7275 253.175176 
z
" clip-path="url(#p36eaa94389)" style="fill: #1f77b4"/>
   </g>
   <g id="patch_237">
    <path d="M 958.6375 255.71 
L 1162.0925 255.71 
L 1162.0925 253.175176 
L 958.6375 253.175176 
z
" clip-path="url(#p36eaa94389)" style="fill: #1f77b4"/>
   </g>
   <g id="patch_238">
    <path d="M 1365.5475 255.71 
L 1569.0025 255.71 
L 1569.0025 251.947841 
L 1365.5475 251.947841 
z
" clip-path="url(#p36eaa94389)" style="fill: #1f77b4"/>
   </g>
   <g id="patch_239">
    <path d="M 1772.4575 255.71 
L 1975.9125 255.71 
L 1975.9125 253.280377 
L 1772.4575 253.280377 
z
" clip-path="url(#p36eaa94389)" style="fill: #1f77b4"/>
   </g>
   <g id="patch_240">
    <path d="M 144.8175 255.71 
L 348.2725 255.71 
L 348.2725 255.71 
L 144.8175 255.71 
z
" clip-path="url(#p36eaa94389)" style="fill: #1f77b4"/>
   </g>
   <g id="matplotlib.axis_1">
    <g id="xtick_1">
     <g id="line2d_1">
      <defs>
       <path id="m18a4321c98" d="M 0 0 
L 0 3.5 
" style="stroke: #000000; stroke-width: 0.8"/>
      </defs>
      <g>
       <use xlink:href="#m18a4321c98" x="246.545" y="255.71" style="stroke: #000000; stroke-width: 0.8"/>
      </g>
     </g>
     <g id="text_1">
      <!-- Vincent Spano -->
      <g transform="translate(249.304375 334.81) rotate(-90) scale(0.1 -0.1)">
       <defs>
        <path id="DejaVuSans-56" d="M 1831 0 
L 50 4666 
L 709 4666 
L 2188 738 
L 3669 4666 
L 4325 4666 
L 2547 0 
L 1831 0 
z
" transform="scale(0.015625)"/>
        <path id="DejaVuSans-69" d="M 603 3500 
L 1178 3500 
L 1178 0 
L 603 0 
L 603 3500 
z
M 603 4863 
L 1178 4863 
L 1178 4134 
L 603 4134 
L 603 4863 
z
" transform="scale(0.015625)"/>
        <path id="DejaVuSans-6e" d="M 3513 2113 
L 3513 0 
L 2938 0 
L 2938 2094 
Q 2938 2591 2744 2837 
Q 2550 3084 2163 3084 
Q 1697 3084 1428 2787 
Q 1159 2491 1159 1978 
L 1159 0 
L 581 0 
L 581 3500 
L 1159 3500 
L 1159 2956 
Q 1366 3272 1645 3428 
Q 1925 3584 2291 3584 
Q 2894 3584 3203 3211 
Q 3513 2838 3513 2113 
z
" transform="scale(0.015625)"/>
        <path id="DejaVuSans-63" d="M 3122 3366 
L 3122 2828 
Q 2878 2963 2633 3030 
Q 2388 3097 2138 3097 
Q 1578 3097 1268 2742 
Q 959 2388 959 1747 
Q 959 1106 1268 751 
Q 1578 397 2138 397 
Q 2388 397 2633 464 
Q 2878 531 3122 666 
L 3122 134 
Q 2881 22 2623 -34 
Q 2366 -91 2075 -91 
Q 1284 -91 818 406 
Q 353 903 353 1747 
Q 353 2603 823 3093 
Q 1294 3584 2113 3584 
Q 2378 3584 2631 3529 
Q 2884 3475 3122 3366 
z
" transform="scale(0.015625)"/>
        <path id="DejaVuSans-65" d="M 3597 1894 
L 3597 1613 
L 953 1613 
Q 991 1019 1311 708 
Q 1631 397 2203 397 
Q 2534 397 2845 478 
Q 3156 559 3463 722 
L 3463 178 
Q 3153 47 2828 -22 
Q 2503 -91 2169 -91 
Q 1331 -91 842 396 
Q 353 884 353 1716 
Q 353 2575 817 3079 
Q 1281 3584 2069 3584 
Q 2775 3584 3186 3129 
Q 3597 2675 3597 1894 
z
M 3022 2063 
Q 3016 2534 2758 2815 
Q 2500 3097 2075 3097 
Q 1594 3097 1305 2825 
Q 1016 2553 972 2059 
L 3022 2063 
z
" transform="scale(0.015625)"/>
        <path id="DejaVuSans-74" d="M 1172 4494 
L 1172 3500 
L 2356 3500 
L 2356 3053 
L 1172 3053 
L 1172 1153 
Q 1172 725 1289 603 
Q 1406 481 1766 481 
L 2356 481 
L 2356 0 
L 1766 0 
Q 1100 0 847 248 
Q 594 497 594 1153 
L 594 3053 
L 172 3053 
L 172 3500 
L 594 3500 
L 594 4494 
L 1172 4494 
z
" transform="scale(0.015625)"/>
        <path id="DejaVuSans-20" transform="scale(0.015625)"/>
        <path id="DejaVuSans-53" d="M 3425 4513 
L 3425 3897 
Q 3066 4069 2747 4153 
Q 2428 4238 2131 4238 
Q 1616 4238 1336 4038 
Q 1056 3838 1056 3469 
Q 1056 3159 1242 3001 
Q 1428 2844 1947 2747 
L 2328 2669 
Q 3034 2534 3370 2195 
Q 3706 1856 3706 1288 
Q 3706 609 3251 259 
Q 2797 -91 1919 -91 
Q 1588 -91 1214 -16 
Q 841 59 441 206 
L 441 856 
Q 825 641 1194 531 
Q 1563 422 1919 422 
Q 2459 422 2753 634 
Q 3047 847 3047 1241 
Q 3047 1584 2836 1778 
Q 2625 1972 2144 2069 
L 1759 2144 
Q 1053 2284 737 2584 
Q 422 2884 422 3419 
Q 422 4038 858 4394 
Q 1294 4750 2059 4750 
Q 2388 4750 2728 4690 
Q 3069 4631 3425 4513 
z
" transform="scale(0.015625)"/>
        <path id="DejaVuSans-70" d="M 1159 525 
L 1159 -1331 
L 581 -1331 
L 581 3500 
L 1159 3500 
L 1159 2969 
Q 1341 3281 1617 3432 
Q 1894 3584 2278 3584 
Q 2916 3584 3314 3078 
Q 3713 2572 3713 1747 
Q 3713 922 3314 415 
Q 2916 -91 2278 -91 
Q 1894 -91 1617 61 
Q 1341 213 1159 525 
z
M 3116 1747 
Q 3116 2381 2855 2742 
Q 2594 3103 2138 3103 
Q 1681 3103 1420 2742 
Q 1159 2381 1159 1747 
Q 1159 1113 1420 752 
Q 1681 391 2138 391 
Q 2594 391 2855 752 
Q 3116 1113 3116 1747 
z
" transform="scale(0.015625)"/>
        <path id="DejaVuSans-61" d="M 2194 1759 
Q 1497 1759 1228 1600 
Q 959 1441 959 1056 
Q 959 750 1161 570 
Q 1363 391 1709 391 
Q 2188 391 2477 730 
Q 2766 1069 2766 1631 
L 2766 1759 
L 2194 1759 
z
M 3341 1997 
L 3341 0 
L 2766 0 
L 2766 531 
Q 2569 213 2275 61 
Q 1981 -91 1556 -91 
Q 1019 -91 701 211 
Q 384 513 384 1019 
Q 384 1609 779 1909 
Q 1175 2209 1959 2209 
L 2766 2209 
L 2766 2266 
Q 2766 2663 2505 2880 
Q 2244 3097 1772 3097 
Q 1472 3097 1187 3025 
Q 903 2953 641 2809 
L 641 3341 
Q 956 3463 1253 3523 
Q 1550 3584 1831 3584 
Q 2591 3584 2966 3190 
Q 3341 2797 3341 1997 
z
" transform="scale(0.015625)"/>
        <path id="DejaVuSans-6f" d="M 1959 3097 
Q 1497 3097 1228 2736 
Q 959 2375 959 1747 
Q 959 1119 1226 758 
Q 1494 397 1959 397 
Q 2419 397 2687 759 
Q 2956 1122 2956 1747 
Q 2956 2369 2687 2733 
Q 2419 3097 1959 3097 
z
M 1959 3584 
Q 2709 3584 3137 3096 
Q 3566 2609 3566 1747 
Q 3566 888 3137 398 
Q 2709 -91 1959 -91 
Q 1206 -91 779 398 
Q 353 888 353 1747 
Q 353 2609 779 3096 
Q 1206 3584 1959 3584 
z
" transform="scale(0.015625)"/>
       </defs>
       <use xlink:href="#DejaVuSans-56"/>
       <use xlink:href="#DejaVuSans-69" x="66.158203"/>
       <use xlink:href="#DejaVuSans-6e" x="93.941406"/>
       <use xlink:href="#DejaVuSans-63" x="157.320312"/>
       <use xlink:href="#DejaVuSans-65" x="212.300781"/>
       <use xlink:href="#DejaVuSans-6e" x="273.824219"/>
       <use xlink:href="#DejaVuSans-74" x="337.203125"/>
       <use xlink:href="#DejaVuSans-20" x="376.412109"/>
       <use xlink:href="#DejaVuSans-53" x="408.199219"/>
       <use xlink:href="#DejaVuSans-70" x="471.675781"/>
       <use xlink:href="#DejaVuSans-61" x="535.152344"/>
       <use xlink:href="#DejaVuSans-6e" x="596.431641"/>
       <use xlink:href="#DejaVuSans-6f" x="659.810547"/>
      </g>
     </g>
    </g>
   </g>
   <g id="matplotlib.axis_2">
    <g id="ytick_1">
     <g id="line2d_2">
      <defs>
       <path id="m961be2a9de" d="M 0 0 
L -3.5 0 
" style="stroke: #000000; stroke-width: 0.8"/>
      </defs>
      <g>
       <use xlink:href="#m961be2a9de" x="43.09" y="255.71" style="stroke: #000000; stroke-width: 0.8"/>
      </g>
     </g>
     <g id="text_2">
      <!-- 0 -->
      <g transform="translate(29.7275 259.509219) scale(0.1 -0.1)">
       <defs>
        <path id="DejaVuSans-30" d="M 2034 4250 
Q 1547 4250 1301 3770 
Q 1056 3291 1056 2328 
Q 1056 1369 1301 889 
Q 1547 409 2034 409 
Q 2525 409 2770 889 
Q 3016 1369 3016 2328 
Q 3016 3291 2770 3770 
Q 2525 4250 2034 4250 
z
M 2034 4750 
Q 2819 4750 3233 4129 
Q 3647 3509 3647 2328 
Q 3647 1150 3233 529 
Q 2819 -91 2034 -91 
Q 1250 -91 836 529 
Q 422 1150 422 2328 
Q 422 3509 836 4129 
Q 1250 4750 2034 4750 
z
" transform="scale(0.015625)"/>
       </defs>
       <use xlink:href="#DejaVuSans-30"/>
      </g>
     </g>
    </g>
    <g id="ytick_2">
     <g id="line2d_3">
      <g>
       <use xlink:href="#m961be2a9de" x="43.09" y="220.64327" style="stroke: #000000; stroke-width: 0.8"/>
      </g>
     </g>
     <g id="text_3">
      <!-- 500 -->
      <g transform="translate(17.0025 224.442488) scale(0.1 -0.1)">
       <defs>
        <path id="DejaVuSans-35" d="M 691 4666 
L 3169 4666 
L 3169 4134 
L 1269 4134 
L 1269 2991 
Q 1406 3038 1543 3061 
Q 1681 3084 1819 3084 
Q 2600 3084 3056 2656 
Q 3513 2228 3513 1497 
Q 3513 744 3044 326 
Q 2575 -91 1722 -91 
Q 1428 -91 1123 -41 
Q 819 9 494 109 
L 494 744 
Q 775 591 1075 516 
Q 1375 441 1709 441 
Q 2250 441 2565 725 
Q 2881 1009 2881 1497 
Q 2881 1984 2565 2268 
Q 2250 2553 1709 2553 
Q 1456 2553 1204 2497 
Q 953 2441 691 2322 
L 691 4666 
z
" transform="scale(0.015625)"/>
       </defs>
       <use xlink:href="#DejaVuSans-35"/>
       <use xlink:href="#DejaVuSans-30" x="63.623047"/>
       <use xlink:href="#DejaVuSans-30" x="127.246094"/>
      </g>
     </g>
    </g>
    <g id="ytick_3">
     <g id="line2d_4">
      <g>
       <use xlink:href="#m961be2a9de" x="43.09" y="185.576539" style="stroke: #000000; stroke-width: 0.8"/>
      </g>
     </g>
     <g id="text_4">
      <!-- 1000 -->
      <g transform="translate(10.64 189.375758) scale(0.1 -0.1)">
       <defs>
        <path id="DejaVuSans-31" d="M 794 531 
L 1825 531 
L 1825 4091 
L 703 3866 
L 703 4441 
L 1819 4666 
L 2450 4666 
L 2450 531 
L 3481 531 
L 3481 0 
L 794 0 
L 794 531 
z
" transform="scale(0.015625)"/>
       </defs>
       <use xlink:href="#DejaVuSans-31"/>
       <use xlink:href="#DejaVuSans-30" x="63.623047"/>
       <use xlink:href="#DejaVuSans-30" x="127.246094"/>
       <use xlink:href="#DejaVuSans-30" x="190.869141"/>
      </g>
     </g>
    </g>
    <g id="ytick_4">
     <g id="line2d_5">
      <g>
       <use xlink:href="#m961be2a9de" x="43.09" y="150.509809" style="stroke: #000000; stroke-width: 0.8"/>
      </g>
     </g>
     <g id="text_5">
      <!-- 1500 -->
      <g transform="translate(10.64 154.309028) scale(0.1 -0.1)">
       <use xlink:href="#DejaVuSans-31"/>
       <use xlink:href="#DejaVuSans-35" x="63.623047"/>
       <use xlink:href="#DejaVuSans-30" x="127.246094"/>
       <use xlink:href="#DejaVuSans-30" x="190.869141"/>
      </g>
     </g>
    </g>
    <g id="ytick_5">
     <g id="line2d_6">
      <g>
       <use xlink:href="#m961be2a9de" x="43.09" y="115.443079" style="stroke: #000000; stroke-width: 0.8"/>
      </g>
     </g>
     <g id="text_6">
      <!-- 2000 -->
      <g transform="translate(10.64 119.242298) scale(0.1 -0.1)">
       <defs>
        <path id="DejaVuSans-32" d="M 1228 531 
L 3431 531 
L 3431 0 
L 469 0 
L 469 531 
Q 828 903 1448 1529 
Q 2069 2156 2228 2338 
Q 2531 2678 2651 2914 
Q 2772 3150 2772 3378 
Q 2772 3750 2511 3984 
Q 2250 4219 1831 4219 
Q 1534 4219 1204 4116 
Q 875 4013 500 3803 
L 500 4441 
Q 881 4594 1212 4672 
Q 1544 4750 1819 4750 
Q 2544 4750 2975 4387 
Q 3406 4025 3406 3419 
Q 3406 3131 3298 2873 
Q 3191 2616 2906 2266 
Q 2828 2175 2409 1742 
Q 1991 1309 1228 531 
z
" transform="scale(0.015625)"/>
       </defs>
       <use xlink:href="#DejaVuSans-32"/>
       <use xlink:href="#DejaVuSans-30" x="63.623047"/>
       <use xlink:href="#DejaVuSans-30" x="127.246094"/>
       <use xlink:href="#DejaVuSans-30" x="190.869141"/>
      </g>
     </g>
    </g>
    <g id="ytick_6">
     <g id="line2d_7">
      <g>
       <use xlink:href="#m961be2a9de" x="43.09" y="80.376349" style="stroke: #000000; stroke-width: 0.8"/>
      </g>
     </g>
     <g id="text_7">
      <!-- 2500 -->
      <g transform="translate(10.64 84.175567) scale(0.1 -0.1)">
       <use xlink:href="#DejaVuSans-32"/>
       <use xlink:href="#DejaVuSans-35" x="63.623047"/>
       <use xlink:href="#DejaVuSans-30" x="127.246094"/>
       <use xlink:href="#DejaVuSans-30" x="190.869141"/>
      </g>
     </g>
    </g>
    <g id="ytick_7">
     <g id="line2d_8">
      <g>
       <use xlink:href="#m961be2a9de" x="43.09" y="45.309618" style="stroke: #000000; stroke-width: 0.8"/>
      </g>
     </g>
     <g id="text_8">
      <!-- 3000 -->
      <g transform="translate(10.64 49.108837) scale(0.1 -0.1)">
       <defs>
        <path id="DejaVuSans-33" d="M 2597 2516 
Q 3050 2419 3304 2112 
Q 3559 1806 3559 1356 
Q 3559 666 3084 287 
Q 2609 -91 1734 -91 
Q 1441 -91 1130 -33 
Q 819 25 488 141 
L 488 750 
Q 750 597 1062 519 
Q 1375 441 1716 441 
Q 2309 441 2620 675 
Q 2931 909 2931 1356 
Q 2931 1769 2642 2001 
Q 2353 2234 1838 2234 
L 1294 2234 
L 1294 2753 
L 1863 2753 
Q 2328 2753 2575 2939 
Q 2822 3125 2822 3475 
Q 2822 3834 2567 4026 
Q 2313 4219 1838 4219 
Q 1578 4219 1281 4162 
Q 984 4106 628 3988 
L 628 4550 
Q 988 4650 1302 4700 
Q 1616 4750 1894 4750 
Q 2613 4750 3031 4423 
Q 3450 4097 3450 3541 
Q 3450 3153 3228 2886 
Q 3006 2619 2597 2516 
z
" transform="scale(0.015625)"/>
       </defs>
       <use xlink:href="#DejaVuSans-33"/>
       <use xlink:href="#DejaVuSans-30" x="63.623047"/>
       <use xlink:href="#DejaVuSans-30" x="127.246094"/>
       <use xlink:href="#DejaVuSans-30" x="190.869141"/>
      </g>
     </g>
    </g>
   </g>
   <g id="patch_241">
    <path d="M 43.09 255.71 
L 43.09 10.8 
" style="fill: none; stroke: #000000; stroke-width: 0.8; stroke-linejoin: miter; stroke-linecap: square"/>
   </g>
   <g id="patch_242">
    <path d="M 450 255.71 
L 450 10.8 
" style="fill: none; stroke: #000000; stroke-width: 0.8; stroke-linejoin: miter; stroke-linecap: square"/>
   </g>
   <g id="patch_243">
    <path d="M 43.09 255.71 
L 450 255.71 
" style="fill: none; stroke: #000000; stroke-width: 0.8; stroke-linejoin: miter; stroke-linecap: square"/>
   </g>
   <g id="patch_244">
    <path d="M 43.09 10.8 
L 450 10.8 
" style="fill: none; stroke: #000000; stroke-width: 0.8; stroke-linejoin: miter; stroke-linecap: square"/>
   </g>
  </g>
 </g>
 <defs>
  <clipPath id="p36eaa94389">
   <rect x="43.09" y="10.8" width="406.91" height="244.91"/>
  </clipPath>
 </defs>
</svg>
