<?xml version="1.0" encoding="utf-8" standalone="no"?>
<!DOCTYPE svg PUBLIC "-//W3C//DTD SVG 1.1//EN"
  "http://www.w3.org/Graphics/SVG/1.1/DTD/svg11.dtd">
<svg xmlns:xlink="http://www.w3.org/1999/xlink" width="460.8pt" height="345.6pt" viewBox="0 0 460.8 345.6" xmlns="http://www.w3.org/2000/svg" version="1.1">
 <metadata>
  <rdf:RDF xmlns:dc="http://purl.org/dc/elements/1.1/" xmlns:cc="http://creativecommons.org/ns#" xmlns:rdf="http://www.w3.org/1999/02/22-rdf-syntax-ns#">
   <cc:Work>
    <dc:type rdf:resource="http://purl.org/dc/dcmitype/StillImage"/>
    <dc:date>2022-12-20T12:31:05.986447</dc:date>
    <dc:format>image/svg+xml</dc:format>
    <dc:creator>
     <cc:Agent>
      <dc:title>Matplotlib v3.6.0, https://matplotlib.org/</dc:title>
     </cc:Agent>
    </dc:creator>
   </cc:Work>
  </rdf:RDF>
 </metadata>
 <defs>
  <style type="text/css">*{stroke-linejoin: round; stroke-linecap: butt}</style>
 </defs>
 <g id="figure_1">
  <g id="patch_1">
   <path d="M 0 345.6 
L 460.8 345.6 
L 460.8 0 
L 0 0 
z
" style="fill: #ffffff"/>
  </g>
  <g id="axes_1">
   <g id="patch_2">
    <path d="M 43.09 237.35 
L 450 237.35 
L 450 10.8 
L 43.09 10.8 
z
" style="fill: #ffffff"/>
   </g>
   <g id="patch_3">
    <path d="M 63.4355 237.35 
L 104.1265 237.35 
L 104.1265 164.406278 
L 63.4355 164.406278 
z
" clip-path="url(#pa81c3c0dd7)" style="fill: #1f77b4"/>
   </g>
   <g id="patch_4">
    <path d="M 144.8175 237.35 
L 185.5085 237.35 
L 185.5085 181.562569 
L 144.8175 181.562569 
z
" clip-path="url(#pa81c3c0dd7)" style="fill: #1f77b4"/>
   </g>
   <g id="patch_5">
    <path d="M 226.1995 237.35 
L 266.8905 237.35 
L 266.8905 176.458803 
L 226.1995 176.458803 
z
" clip-path="url(#pa81c3c0dd7)" style="fill: #1f77b4"/>
   </g>
   <g id="patch_6">
    <path d="M 307.5815 237.35 
L 348.2725 237.35 
L 348.2725 187.672987 
L 307.5815 187.672987 
z
" clip-path="url(#pa81c3c0dd7)" style="fill: #1f77b4"/>
   </g>
   <g id="patch_7">
    <path d="M 388.9635 237.35 
L 429.6545 237.35 
L 429.6545 207.462225 
L 388.9635 207.462225 
z
" clip-path="url(#pa81c3c0dd7)" style="fill: #1f77b4"/>
   </g>
   <g id="patch_8">
    <path d="M 63.4355 237.35 
L 104.1265 237.35 
L 104.1265 237.155373 
L 63.4355 237.155373 
z
" clip-path="url(#pa81c3c0dd7)" style="fill: #1f77b4"/>
   </g>
   <g id="patch_9">
    <path d="M 144.8175 237.35 
L 185.5085 237.35 
L 185.5085 237.285124 
L 144.8175 237.285124 
z
" clip-path="url(#pa81c3c0dd7)" style="fill: #1f77b4"/>
   </g>
   <g id="patch_10">
    <path d="M 226.1995 237.35 
L 266.8905 237.35 
L 266.8905 237.35 
L 226.1995 237.35 
z
" clip-path="url(#pa81c3c0dd7)" style="fill: #1f77b4"/>
   </g>
   <g id="patch_11">
    <path d="M 63.4355 237.35 
L 104.1265 237.35 
L 104.1265 237.328375 
L 63.4355 237.328375 
z
" clip-path="url(#pa81c3c0dd7)" style="fill: #1f77b4"/>
   </g>
   <g id="patch_12">
    <path d="M 144.8175 237.35 
L 185.5085 237.35 
L 185.5085 237.328375 
L 144.8175 237.328375 
z
" clip-path="url(#pa81c3c0dd7)" style="fill: #1f77b4"/>
   </g>
   <g id="patch_13">
    <path d="M 226.1995 237.35 
L 266.8905 237.35 
L 266.8905 237.328375 
L 226.1995 237.328375 
z
" clip-path="url(#pa81c3c0dd7)" style="fill: #1f77b4"/>
   </g>
   <g id="patch_14">
    <path d="M 307.5815 237.35 
L 348.2725 237.35 
L 348.2725 237.285124 
L 307.5815 237.285124 
z
" clip-path="url(#pa81c3c0dd7)" style="fill: #1f77b4"/>
   </g>
   <g id="patch_15">
    <path d="M 388.9635 237.35 
L 429.6545 237.35 
L 429.6545 237.35 
L 388.9635 237.35 
z
" clip-path="url(#pa81c3c0dd7)" style="fill: #1f77b4"/>
   </g>
   <g id="patch_16">
    <path d="M 63.4355 237.35 
L 104.1265 237.35 
L 104.1265 225.153347 
L 63.4355 225.153347 
z
" clip-path="url(#pa81c3c0dd7)" style="fill: #1f77b4"/>
   </g>
   <g id="patch_17">
    <path d="M 144.8175 237.35 
L 185.5085 237.35 
L 185.5085 233.911582 
L 144.8175 233.911582 
z
" clip-path="url(#pa81c3c0dd7)" style="fill: #1f77b4"/>
   </g>
   <g id="patch_18">
    <path d="M 226.1995 237.35 
L 266.8905 237.35 
L 266.8905 234.527902 
L 226.1995 234.527902 
z
" clip-path="url(#pa81c3c0dd7)" style="fill: #1f77b4"/>
   </g>
   <g id="patch_19">
    <path d="M 307.5815 237.35 
L 348.2725 237.35 
L 348.2725 225.477726 
L 307.5815 225.477726 
z
" clip-path="url(#pa81c3c0dd7)" style="fill: #1f77b4"/>
   </g>
   <g id="patch_20">
    <path d="M 388.9635 237.35 
L 429.6545 237.35 
L 429.6545 235.825418 
L 388.9635 235.825418 
z
" clip-path="url(#pa81c3c0dd7)" style="fill: #1f77b4"/>
   </g>
   <g id="patch_21">
    <path d="M 63.4355 237.35 
L 104.1265 237.35 
L 104.1265 237.285124 
L 63.4355 237.285124 
z
" clip-path="url(#pa81c3c0dd7)" style="fill: #1f77b4"/>
   </g>
   <g id="patch_22">
    <path d="M 144.8175 237.35 
L 185.5085 237.35 
L 185.5085 237.35 
L 144.8175 237.35 
z
" clip-path="url(#pa81c3c0dd7)" style="fill: #1f77b4"/>
   </g>
   <g id="patch_23">
    <path d="M 226.1995 237.35 
L 266.8905 237.35 
L 266.8905 237.35 
L 226.1995 237.35 
z
" clip-path="url(#pa81c3c0dd7)" style="fill: #1f77b4"/>
   </g>
   <g id="patch_24">
    <path d="M 307.5815 237.35 
L 348.2725 237.35 
L 348.2725 237.35 
L 307.5815 237.35 
z
" clip-path="url(#pa81c3c0dd7)" style="fill: #1f77b4"/>
   </g>
   <g id="patch_25">
    <path d="M 63.4355 237.35 
L 104.1265 237.35 
L 104.1265 235.598353 
L 63.4355 235.598353 
z
" clip-path="url(#pa81c3c0dd7)" style="fill: #1f77b4"/>
   </g>
   <g id="patch_26">
    <path d="M 144.8175 237.35 
L 185.5085 237.35 
L 185.5085 237.155373 
L 144.8175 237.155373 
z
" clip-path="url(#pa81c3c0dd7)" style="fill: #1f77b4"/>
   </g>
   <g id="patch_27">
    <path d="M 226.1995 237.35 
L 266.8905 237.35 
L 266.8905 237.285124 
L 226.1995 237.285124 
z
" clip-path="url(#pa81c3c0dd7)" style="fill: #1f77b4"/>
   </g>
   <g id="patch_28">
    <path d="M 307.5815 237.35 
L 348.2725 237.35 
L 348.2725 237.285124 
L 307.5815 237.285124 
z
" clip-path="url(#pa81c3c0dd7)" style="fill: #1f77b4"/>
   </g>
   <g id="patch_29">
    <path d="M 388.9635 237.35 
L 429.6545 237.35 
L 429.6545 236.895869 
L 388.9635 236.895869 
z
" clip-path="url(#pa81c3c0dd7)" style="fill: #1f77b4"/>
   </g>
   <g id="patch_30">
    <path d="M 63.4355 237.35 
L 104.1265 237.35 
L 104.1265 237.220248 
L 63.4355 237.220248 
z
" clip-path="url(#pa81c3c0dd7)" style="fill: #1f77b4"/>
   </g>
   <g id="patch_31">
    <path d="M 144.8175 237.35 
L 185.5085 237.35 
L 185.5085 237.220248 
L 144.8175 237.220248 
z
" clip-path="url(#pa81c3c0dd7)" style="fill: #1f77b4"/>
   </g>
   <g id="patch_32">
    <path d="M 226.1995 237.35 
L 266.8905 237.35 
L 266.8905 237.220248 
L 226.1995 237.220248 
z
" clip-path="url(#pa81c3c0dd7)" style="fill: #1f77b4"/>
   </g>
   <g id="patch_33">
    <path d="M 307.5815 237.35 
L 348.2725 237.35 
L 348.2725 237.220248 
L 307.5815 237.220248 
z
" clip-path="url(#pa81c3c0dd7)" style="fill: #1f77b4"/>
   </g>
   <g id="patch_34">
    <path d="M 388.9635 237.35 
L 429.6545 237.35 
L 429.6545 237.220248 
L 388.9635 237.220248 
z
" clip-path="url(#pa81c3c0dd7)" style="fill: #1f77b4"/>
   </g>
   <g id="patch_35">
    <path d="M 63.4355 237.35 
L 104.1265 237.35 
L 104.1265 237.155373 
L 63.4355 237.155373 
z
" clip-path="url(#pa81c3c0dd7)" style="fill: #1f77b4"/>
   </g>
   <g id="patch_36">
    <path d="M 144.8175 237.35 
L 185.5085 237.35 
L 185.5085 237.18781 
L 144.8175 237.18781 
z
" clip-path="url(#pa81c3c0dd7)" style="fill: #1f77b4"/>
   </g>
   <g id="patch_37">
    <path d="M 226.1995 237.35 
L 266.8905 237.35 
L 266.8905 237.285124 
L 226.1995 237.285124 
z
" clip-path="url(#pa81c3c0dd7)" style="fill: #1f77b4"/>
   </g>
   <g id="patch_38">
    <path d="M 307.5815 237.35 
L 348.2725 237.35 
L 348.2725 237.317562 
L 307.5815 237.317562 
z
" clip-path="url(#pa81c3c0dd7)" style="fill: #1f77b4"/>
   </g>
   <g id="patch_39">
    <path d="M 388.9635 237.35 
L 429.6545 237.35 
L 429.6545 237.317562 
L 388.9635 237.317562 
z
" clip-path="url(#pa81c3c0dd7)" style="fill: #1f77b4"/>
   </g>
   <g id="patch_40">
    <path d="M 63.4355 237.35 
L 104.1265 237.35 
L 104.1265 237.155373 
L 63.4355 237.155373 
z
" clip-path="url(#pa81c3c0dd7)" style="fill: #1f77b4"/>
   </g>
   <g id="patch_41">
    <path d="M 144.8175 237.35 
L 185.5085 237.35 
L 185.5085 237.35 
L 144.8175 237.35 
z
" clip-path="url(#pa81c3c0dd7)" style="fill: #1f77b4"/>
   </g>
   <g id="patch_42">
    <path d="M 226.1995 237.35 
L 266.8905 237.35 
L 266.8905 237.35 
L 226.1995 237.35 
z
" clip-path="url(#pa81c3c0dd7)" style="fill: #1f77b4"/>
   </g>
   <g id="patch_43">
    <path d="M 63.4355 237.35 
L 104.1265 237.35 
L 104.1265 237.155373 
L 63.4355 237.155373 
z
" clip-path="url(#pa81c3c0dd7)" style="fill: #1f77b4"/>
   </g>
   <g id="patch_44">
    <path d="M 144.8175 237.35 
L 185.5085 237.35 
L 185.5085 237.285124 
L 144.8175 237.285124 
z
" clip-path="url(#pa81c3c0dd7)" style="fill: #1f77b4"/>
   </g>
   <g id="patch_45">
    <path d="M 63.4355 237.35 
L 104.1265 237.35 
L 104.1265 165.816691 
L 63.4355 165.816691 
z
" clip-path="url(#pa81c3c0dd7)" style="fill: #1f77b4"/>
   </g>
   <g id="patch_46">
    <path d="M 144.8175 237.35 
L 185.5085 237.35 
L 185.5085 185.950674 
L 144.8175 185.950674 
z
" clip-path="url(#pa81c3c0dd7)" style="fill: #1f77b4"/>
   </g>
   <g id="patch_47">
    <path d="M 226.1995 237.35 
L 266.8905 237.35 
L 266.8905 192.675468 
L 226.1995 192.675468 
z
" clip-path="url(#pa81c3c0dd7)" style="fill: #1f77b4"/>
   </g>
   <g id="patch_48">
    <path d="M 307.5815 237.35 
L 348.2725 237.35 
L 348.2725 186.129203 
L 307.5815 186.129203 
z
" clip-path="url(#pa81c3c0dd7)" style="fill: #1f77b4"/>
   </g>
   <g id="patch_49">
    <path d="M 388.9635 237.35 
L 429.6545 237.35 
L 429.6545 199.677612 
L 388.9635 199.677612 
z
" clip-path="url(#pa81c3c0dd7)" style="fill: #1f77b4"/>
   </g>
   <g id="patch_50">
    <path d="M 63.4355 237.35 
L 104.1265 237.35 
L 104.1265 237.35 
L 63.4355 237.35 
z
" clip-path="url(#pa81c3c0dd7)" style="fill: #1f77b4"/>
   </g>
   <g id="patch_51">
    <path d="M 144.8175 237.35 
L 185.5085 237.35 
L 185.5085 237.35 
L 144.8175 237.35 
z
" clip-path="url(#pa81c3c0dd7)" style="fill: #1f77b4"/>
   </g>
   <g id="patch_52">
    <path d="M 226.1995 237.35 
L 266.8905 237.35 
L 266.8905 237.35 
L 226.1995 237.35 
z
" clip-path="url(#pa81c3c0dd7)" style="fill: #1f77b4"/>
   </g>
   <g id="patch_53">
    <path d="M 307.5815 237.35 
L 348.2725 237.35 
L 348.2725 237.35 
L 307.5815 237.35 
z
" clip-path="url(#pa81c3c0dd7)" style="fill: #1f77b4"/>
   </g>
   <g id="patch_54">
    <path d="M 388.9635 237.35 
L 429.6545 237.35 
L 429.6545 237.35 
L 388.9635 237.35 
z
" clip-path="url(#pa81c3c0dd7)" style="fill: #1f77b4"/>
   </g>
   <g id="patch_55">
    <path d="M 63.4355 237.35 
L 104.1265 237.35 
L 104.1265 237.285124 
L 63.4355 237.285124 
z
" clip-path="url(#pa81c3c0dd7)" style="fill: #1f77b4"/>
   </g>
   <g id="patch_56">
    <path d="M 144.8175 237.35 
L 185.5085 237.35 
L 185.5085 237.35 
L 144.8175 237.35 
z
" clip-path="url(#pa81c3c0dd7)" style="fill: #1f77b4"/>
   </g>
   <g id="patch_57">
    <path d="M 226.1995 237.35 
L 266.8905 237.35 
L 266.8905 237.35 
L 226.1995 237.35 
z
" clip-path="url(#pa81c3c0dd7)" style="fill: #1f77b4"/>
   </g>
   <g id="patch_58">
    <path d="M 307.5815 237.35 
L 348.2725 237.35 
L 348.2725 237.35 
L 307.5815 237.35 
z
" clip-path="url(#pa81c3c0dd7)" style="fill: #1f77b4"/>
   </g>
   <g id="patch_59">
    <path d="M 388.9635 237.35 
L 429.6545 237.35 
L 429.6545 237.35 
L 388.9635 237.35 
z
" clip-path="url(#pa81c3c0dd7)" style="fill: #1f77b4"/>
   </g>
   <g id="patch_60">
    <path d="M 63.4355 237.35 
L 104.1265 237.35 
L 104.1265 236.993183 
L 63.4355 236.993183 
z
" clip-path="url(#pa81c3c0dd7)" style="fill: #1f77b4"/>
   </g>
   <g id="patch_61">
    <path d="M 144.8175 237.35 
L 185.5085 237.35 
L 185.5085 237.155373 
L 144.8175 237.155373 
z
" clip-path="url(#pa81c3c0dd7)" style="fill: #1f77b4"/>
   </g>
   <g id="patch_62">
    <path d="M 226.1995 237.35 
L 266.8905 237.35 
L 266.8905 237.317562 
L 226.1995 237.317562 
z
" clip-path="url(#pa81c3c0dd7)" style="fill: #1f77b4"/>
   </g>
   <g id="patch_63">
    <path d="M 307.5815 237.35 
L 348.2725 237.35 
L 348.2725 237.35 
L 307.5815 237.35 
z
" clip-path="url(#pa81c3c0dd7)" style="fill: #1f77b4"/>
   </g>
   <g id="patch_64">
    <path d="M 388.9635 237.35 
L 429.6545 237.35 
L 429.6545 237.35 
L 388.9635 237.35 
z
" clip-path="url(#pa81c3c0dd7)" style="fill: #1f77b4"/>
   </g>
   <g id="patch_65">
    <path d="M 63.4355 237.35 
L 104.1265 237.35 
L 104.1265 230.181223 
L 63.4355 230.181223 
z
" clip-path="url(#pa81c3c0dd7)" style="fill: #1f77b4"/>
   </g>
   <g id="patch_66">
    <path d="M 144.8175 237.35 
L 185.5085 237.35 
L 185.5085 236.701242 
L 144.8175 236.701242 
z
" clip-path="url(#pa81c3c0dd7)" style="fill: #1f77b4"/>
   </g>
   <g id="patch_67">
    <path d="M 226.1995 237.35 
L 266.8905 237.35 
L 266.8905 233.435826 
L 226.1995 233.435826 
z
" clip-path="url(#pa81c3c0dd7)" style="fill: #1f77b4"/>
   </g>
   <g id="patch_68">
    <path d="M 307.5815 237.35 
L 348.2725 237.35 
L 348.2725 232.419438 
L 307.5815 232.419438 
z
" clip-path="url(#pa81c3c0dd7)" style="fill: #1f77b4"/>
   </g>
   <g id="patch_69">
    <path d="M 388.9635 237.35 
L 429.6545 237.35 
L 429.6545 233.360137 
L 388.9635 233.360137 
z
" clip-path="url(#pa81c3c0dd7)" style="fill: #1f77b4"/>
   </g>
   <g id="patch_70">
    <path d="M 63.4355 237.35 
L 104.1265 237.35 
L 104.1265 215.760006 
L 63.4355 215.760006 
z
" clip-path="url(#pa81c3c0dd7)" style="fill: #1f77b4"/>
   </g>
   <g id="patch_71">
    <path d="M 144.8175 237.35 
L 185.5085 237.35 
L 185.5085 218.858187 
L 144.8175 218.858187 
z
" clip-path="url(#pa81c3c0dd7)" style="fill: #1f77b4"/>
   </g>
   <g id="patch_72">
    <path d="M 226.1995 237.35 
L 266.8905 237.35 
L 266.8905 192.442356 
L 226.1995 192.442356 
z
" clip-path="url(#pa81c3c0dd7)" style="fill: #1f77b4"/>
   </g>
   <g id="patch_73">
    <path d="M 307.5815 237.35 
L 348.2725 237.35 
L 348.2725 210.269756 
L 307.5815 210.269756 
z
" clip-path="url(#pa81c3c0dd7)" style="fill: #1f77b4"/>
   </g>
   <g id="patch_74">
    <path d="M 388.9635 237.35 
L 429.6545 237.35 
L 429.6545 192.146684 
L 388.9635 192.146684 
z
" clip-path="url(#pa81c3c0dd7)" style="fill: #1f77b4"/>
   </g>
   <g id="patch_75">
    <path d="M 63.4355 237.35 
L 104.1265 237.35 
L 104.1265 237.35 
L 63.4355 237.35 
z
" clip-path="url(#pa81c3c0dd7)" style="fill: #1f77b4"/>
   </g>
   <g id="patch_76">
    <path d="M 144.8175 237.35 
L 185.5085 237.35 
L 185.5085 237.35 
L 144.8175 237.35 
z
" clip-path="url(#pa81c3c0dd7)" style="fill: #1f77b4"/>
   </g>
   <g id="patch_77">
    <path d="M 63.4355 237.35 
L 104.1265 237.35 
L 104.1265 236.539052 
L 63.4355 236.539052 
z
" clip-path="url(#pa81c3c0dd7)" style="fill: #1f77b4"/>
   </g>
   <g id="patch_78">
    <path d="M 144.8175 237.35 
L 185.5085 237.35 
L 185.5085 236.701242 
L 144.8175 236.701242 
z
" clip-path="url(#pa81c3c0dd7)" style="fill: #1f77b4"/>
   </g>
   <g id="patch_79">
    <path d="M 226.1995 237.35 
L 266.8905 237.35 
L 266.8905 236.960745 
L 226.1995 236.960745 
z
" clip-path="url(#pa81c3c0dd7)" style="fill: #1f77b4"/>
   </g>
   <g id="patch_80">
    <path d="M 307.5815 237.35 
L 348.2725 237.35 
L 348.2725 237.285124 
L 307.5815 237.285124 
z
" clip-path="url(#pa81c3c0dd7)" style="fill: #1f77b4"/>
   </g>
   <g id="patch_81">
    <path d="M 388.9635 237.35 
L 429.6545 237.35 
L 429.6545 237.220248 
L 388.9635 237.220248 
z
" clip-path="url(#pa81c3c0dd7)" style="fill: #1f77b4"/>
   </g>
   <g id="patch_82">
    <path d="M 63.4355 237.35 
L 104.1265 237.35 
L 104.1265 237.155373 
L 63.4355 237.155373 
z
" clip-path="url(#pa81c3c0dd7)" style="fill: #1f77b4"/>
   </g>
   <g id="patch_83">
    <path d="M 144.8175 237.35 
L 185.5085 237.35 
L 185.5085 237.155373 
L 144.8175 237.155373 
z
" clip-path="url(#pa81c3c0dd7)" style="fill: #1f77b4"/>
   </g>
   <g id="patch_84">
    <path d="M 226.1995 237.35 
L 266.8905 237.35 
L 266.8905 237.285124 
L 226.1995 237.285124 
z
" clip-path="url(#pa81c3c0dd7)" style="fill: #1f77b4"/>
   </g>
   <g id="patch_85">
    <path d="M 307.5815 237.35 
L 348.2725 237.35 
L 348.2725 237.35 
L 307.5815 237.35 
z
" clip-path="url(#pa81c3c0dd7)" style="fill: #1f77b4"/>
   </g>
   <g id="patch_86">
    <path d="M 388.9635 237.35 
L 429.6545 237.35 
L 429.6545 237.35 
L 388.9635 237.35 
z
" clip-path="url(#pa81c3c0dd7)" style="fill: #1f77b4"/>
   </g>
   <g id="patch_87">
    <path d="M 63.4355 237.35 
L 104.1265 237.35 
L 104.1265 235.987608 
L 63.4355 235.987608 
z
" clip-path="url(#pa81c3c0dd7)" style="fill: #1f77b4"/>
   </g>
   <g id="patch_88">
    <path d="M 144.8175 237.35 
L 185.5085 237.35 
L 185.5085 237.317562 
L 144.8175 237.317562 
z
" clip-path="url(#pa81c3c0dd7)" style="fill: #1f77b4"/>
   </g>
   <g id="patch_89">
    <path d="M 226.1995 237.35 
L 266.8905 237.35 
L 266.8905 237.317562 
L 226.1995 237.317562 
z
" clip-path="url(#pa81c3c0dd7)" style="fill: #1f77b4"/>
   </g>
   <g id="patch_90">
    <path d="M 307.5815 237.35 
L 348.2725 237.35 
L 348.2725 237.317562 
L 307.5815 237.317562 
z
" clip-path="url(#pa81c3c0dd7)" style="fill: #1f77b4"/>
   </g>
   <g id="patch_91">
    <path d="M 388.9635 237.35 
L 429.6545 237.35 
L 429.6545 237.317562 
L 388.9635 237.317562 
z
" clip-path="url(#pa81c3c0dd7)" style="fill: #1f77b4"/>
   </g>
   <g id="patch_92">
    <path d="M 63.4355 237.35 
L 104.1265 237.35 
L 104.1265 237.35 
L 63.4355 237.35 
z
" clip-path="url(#pa81c3c0dd7)" style="fill: #1f77b4"/>
   </g>
   <g id="patch_93">
    <path d="M 63.4355 237.35 
L 104.1265 237.35 
L 104.1265 237.025621 
L 63.4355 237.025621 
z
" clip-path="url(#pa81c3c0dd7)" style="fill: #1f77b4"/>
   </g>
   <g id="patch_94">
    <path d="M 144.8175 237.35 
L 185.5085 237.35 
L 185.5085 237.025621 
L 144.8175 237.025621 
z
" clip-path="url(#pa81c3c0dd7)" style="fill: #1f77b4"/>
   </g>
   <g id="patch_95">
    <path d="M 226.1995 237.35 
L 266.8905 237.35 
L 266.8905 237.285124 
L 226.1995 237.285124 
z
" clip-path="url(#pa81c3c0dd7)" style="fill: #1f77b4"/>
   </g>
   <g id="patch_96">
    <path d="M 63.4355 237.35 
L 104.1265 237.35 
L 104.1265 235.987608 
L 63.4355 235.987608 
z
" clip-path="url(#pa81c3c0dd7)" style="fill: #1f77b4"/>
   </g>
   <g id="patch_97">
    <path d="M 144.8175 237.35 
L 185.5085 237.35 
L 185.5085 237.285124 
L 144.8175 237.285124 
z
" clip-path="url(#pa81c3c0dd7)" style="fill: #1f77b4"/>
   </g>
   <g id="patch_98">
    <path d="M 226.1995 237.35 
L 266.8905 237.35 
L 266.8905 237.285124 
L 226.1995 237.285124 
z
" clip-path="url(#pa81c3c0dd7)" style="fill: #1f77b4"/>
   </g>
   <g id="patch_99">
    <path d="M 307.5815 237.35 
L 348.2725 237.35 
L 348.2725 237.35 
L 307.5815 237.35 
z
" clip-path="url(#pa81c3c0dd7)" style="fill: #1f77b4"/>
   </g>
   <g id="patch_100">
    <path d="M 388.9635 237.35 
L 429.6545 237.35 
L 429.6545 237.35 
L 388.9635 237.35 
z
" clip-path="url(#pa81c3c0dd7)" style="fill: #1f77b4"/>
   </g>
   <g id="patch_101">
    <path d="M 63.4355 237.35 
L 104.1265 237.35 
L 104.1265 237.35 
L 63.4355 237.35 
z
" clip-path="url(#pa81c3c0dd7)" style="fill: #1f77b4"/>
   </g>
   <g id="patch_102">
    <path d="M 63.4355 237.35 
L 104.1265 237.35 
L 104.1265 164.011798 
L 63.4355 164.011798 
z
" clip-path="url(#pa81c3c0dd7)" style="fill: #1f77b4"/>
   </g>
   <g id="patch_103">
    <path d="M 144.8175 237.35 
L 185.5085 237.35 
L 185.5085 180.14871 
L 144.8175 180.14871 
z
" clip-path="url(#pa81c3c0dd7)" style="fill: #1f77b4"/>
   </g>
   <g id="patch_104">
    <path d="M 226.1995 237.35 
L 266.8905 237.35 
L 266.8905 191.06217 
L 226.1995 191.06217 
z
" clip-path="url(#pa81c3c0dd7)" style="fill: #1f77b4"/>
   </g>
   <g id="patch_105">
    <path d="M 307.5815 237.35 
L 348.2725 237.35 
L 348.2725 199.472864 
L 307.5815 199.472864 
z
" clip-path="url(#pa81c3c0dd7)" style="fill: #1f77b4"/>
   </g>
   <g id="patch_106">
    <path d="M 388.9635 237.35 
L 429.6545 237.35 
L 429.6545 205.472338 
L 388.9635 205.472338 
z
" clip-path="url(#pa81c3c0dd7)" style="fill: #1f77b4"/>
   </g>
   <g id="patch_107">
    <path d="M 63.4355 237.35 
L 104.1265 237.35 
L 104.1265 237.025621 
L 63.4355 237.025621 
z
" clip-path="url(#pa81c3c0dd7)" style="fill: #1f77b4"/>
   </g>
   <g id="patch_108">
    <path d="M 144.8175 237.35 
L 185.5085 237.35 
L 185.5085 237.025621 
L 144.8175 237.025621 
z
" clip-path="url(#pa81c3c0dd7)" style="fill: #1f77b4"/>
   </g>
   <g id="patch_109">
    <path d="M 226.1995 237.35 
L 266.8905 237.35 
L 266.8905 237.025621 
L 226.1995 237.025621 
z
" clip-path="url(#pa81c3c0dd7)" style="fill: #1f77b4"/>
   </g>
   <g id="patch_110">
    <path d="M 307.5815 237.35 
L 348.2725 237.35 
L 348.2725 237.317562 
L 307.5815 237.317562 
z
" clip-path="url(#pa81c3c0dd7)" style="fill: #1f77b4"/>
   </g>
   <g id="patch_111">
    <path d="M 388.9635 237.35 
L 429.6545 237.35 
L 429.6545 237.317562 
L 388.9635 237.317562 
z
" clip-path="url(#pa81c3c0dd7)" style="fill: #1f77b4"/>
   </g>
   <g id="patch_112">
    <path d="M 63.4355 237.35 
L 104.1265 237.35 
L 104.1265 199.044252 
L 63.4355 199.044252 
z
" clip-path="url(#pa81c3c0dd7)" style="fill: #1f77b4"/>
   </g>
   <g id="patch_113">
    <path d="M 144.8175 237.35 
L 185.5085 237.35 
L 185.5085 199.118927 
L 144.8175 199.118927 
z
" clip-path="url(#pa81c3c0dd7)" style="fill: #1f77b4"/>
   </g>
   <g id="patch_114">
    <path d="M 226.1995 237.35 
L 266.8905 237.35 
L 266.8905 212.18102 
L 226.1995 212.18102 
z
" clip-path="url(#pa81c3c0dd7)" style="fill: #1f77b4"/>
   </g>
   <g id="patch_115">
    <path d="M 307.5815 237.35 
L 348.2725 237.35 
L 348.2725 211.049301 
L 307.5815 211.049301 
z
" clip-path="url(#pa81c3c0dd7)" style="fill: #1f77b4"/>
   </g>
   <g id="patch_116">
    <path d="M 388.9635 237.35 
L 429.6545 237.35 
L 429.6545 198.769754 
L 388.9635 198.769754 
z
" clip-path="url(#pa81c3c0dd7)" style="fill: #1f77b4"/>
   </g>
   <g id="patch_117">
    <path d="M 63.4355 237.35 
L 104.1265 237.35 
L 104.1265 236.960745 
L 63.4355 236.960745 
z
" clip-path="url(#pa81c3c0dd7)" style="fill: #1f77b4"/>
   </g>
   <g id="patch_118">
    <path d="M 144.8175 237.35 
L 185.5085 237.35 
L 185.5085 237.025621 
L 144.8175 237.025621 
z
" clip-path="url(#pa81c3c0dd7)" style="fill: #1f77b4"/>
   </g>
   <g id="patch_119">
    <path d="M 226.1995 237.35 
L 266.8905 237.35 
L 266.8905 237.155373 
L 226.1995 237.155373 
z
" clip-path="url(#pa81c3c0dd7)" style="fill: #1f77b4"/>
   </g>
   <g id="patch_120">
    <path d="M 307.5815 237.35 
L 348.2725 237.35 
L 348.2725 237.220248 
L 307.5815 237.220248 
z
" clip-path="url(#pa81c3c0dd7)" style="fill: #1f77b4"/>
   </g>
   <g id="patch_121">
    <path d="M 388.9635 237.35 
L 429.6545 237.35 
L 429.6545 237.317562 
L 388.9635 237.317562 
z
" clip-path="url(#pa81c3c0dd7)" style="fill: #1f77b4"/>
   </g>
   <g id="patch_122">
    <path d="M 63.4355 237.35 
L 104.1265 237.35 
L 104.1265 237.155373 
L 63.4355 237.155373 
z
" clip-path="url(#pa81c3c0dd7)" style="fill: #1f77b4"/>
   </g>
   <g id="patch_123">
    <path d="M 144.8175 237.35 
L 185.5085 237.35 
L 185.5085 237.317562 
L 144.8175 237.317562 
z
" clip-path="url(#pa81c3c0dd7)" style="fill: #1f77b4"/>
   </g>
   <g id="patch_124">
    <path d="M 226.1995 237.35 
L 266.8905 237.35 
L 266.8905 237.317562 
L 226.1995 237.317562 
z
" clip-path="url(#pa81c3c0dd7)" style="fill: #1f77b4"/>
   </g>
   <g id="patch_125">
    <path d="M 307.5815 237.35 
L 348.2725 237.35 
L 348.2725 237.285124 
L 307.5815 237.285124 
z
" clip-path="url(#pa81c3c0dd7)" style="fill: #1f77b4"/>
   </g>
   <g id="patch_126">
    <path d="M 388.9635 237.35 
L 429.6545 237.35 
L 429.6545 237.35 
L 388.9635 237.35 
z
" clip-path="url(#pa81c3c0dd7)" style="fill: #1f77b4"/>
   </g>
   <g id="patch_127">
    <path d="M 63.4355 237.35 
L 104.1265 237.35 
L 104.1265 237.155373 
L 63.4355 237.155373 
z
" clip-path="url(#pa81c3c0dd7)" style="fill: #1f77b4"/>
   </g>
   <g id="patch_128">
    <path d="M 144.8175 237.35 
L 185.5085 237.35 
L 185.5085 237.285124 
L 144.8175 237.285124 
z
" clip-path="url(#pa81c3c0dd7)" style="fill: #1f77b4"/>
   </g>
   <g id="patch_129">
    <path d="M 226.1995 237.35 
L 266.8905 237.35 
L 266.8905 237.35 
L 226.1995 237.35 
z
" clip-path="url(#pa81c3c0dd7)" style="fill: #1f77b4"/>
   </g>
   <g id="patch_130">
    <path d="M 307.5815 237.35 
L 348.2725 237.35 
L 348.2725 237.35 
L 307.5815 237.35 
z
" clip-path="url(#pa81c3c0dd7)" style="fill: #1f77b4"/>
   </g>
   <g id="patch_131">
    <path d="M 388.9635 237.35 
L 429.6545 237.35 
L 429.6545 237.35 
L 388.9635 237.35 
z
" clip-path="url(#pa81c3c0dd7)" style="fill: #1f77b4"/>
   </g>
   <g id="patch_132">
    <path d="M 63.4355 237.35 
L 104.1265 237.35 
L 104.1265 235.63836 
L 63.4355 235.63836 
z
" clip-path="url(#pa81c3c0dd7)" style="fill: #1f77b4"/>
   </g>
   <g id="patch_133">
    <path d="M 144.8175 237.35 
L 185.5085 237.35 
L 185.5085 236.960745 
L 144.8175 236.960745 
z
" clip-path="url(#pa81c3c0dd7)" style="fill: #1f77b4"/>
   </g>
   <g id="patch_134">
    <path d="M 226.1995 237.35 
L 266.8905 237.35 
L 266.8905 236.426601 
L 226.1995 236.426601 
z
" clip-path="url(#pa81c3c0dd7)" style="fill: #1f77b4"/>
   </g>
   <g id="patch_135">
    <path d="M 307.5815 237.35 
L 348.2725 237.35 
L 348.2725 236.426601 
L 307.5815 236.426601 
z
" clip-path="url(#pa81c3c0dd7)" style="fill: #1f77b4"/>
   </g>
   <g id="patch_136">
    <path d="M 388.9635 237.35 
L 429.6545 237.35 
L 429.6545 236.426601 
L 388.9635 236.426601 
z
" clip-path="url(#pa81c3c0dd7)" style="fill: #1f77b4"/>
   </g>
   <g id="patch_137">
    <path d="M 63.4355 237.35 
L 104.1265 237.35 
L 104.1265 224.114974 
L 63.4355 224.114974 
z
" clip-path="url(#pa81c3c0dd7)" style="fill: #1f77b4"/>
   </g>
   <g id="patch_138">
    <path d="M 144.8175 237.35 
L 185.5085 237.35 
L 185.5085 226.601159 
L 144.8175 226.601159 
z
" clip-path="url(#pa81c3c0dd7)" style="fill: #1f77b4"/>
   </g>
   <g id="patch_139">
    <path d="M 226.1995 237.35 
L 266.8905 237.35 
L 266.8905 235.522665 
L 226.1995 235.522665 
z
" clip-path="url(#pa81c3c0dd7)" style="fill: #1f77b4"/>
   </g>
   <g id="patch_140">
    <path d="M 307.5815 237.35 
L 348.2725 237.35 
L 348.2725 237.106716 
L 307.5815 237.106716 
z
" clip-path="url(#pa81c3c0dd7)" style="fill: #1f77b4"/>
   </g>
   <g id="patch_141">
    <path d="M 388.9635 237.35 
L 429.6545 237.35 
L 429.6545 237.106716 
L 388.9635 237.106716 
z
" clip-path="url(#pa81c3c0dd7)" style="fill: #1f77b4"/>
   </g>
   <g id="patch_142">
    <path d="M 63.4355 237.35 
L 104.1265 237.35 
L 104.1265 235.906513 
L 63.4355 235.906513 
z
" clip-path="url(#pa81c3c0dd7)" style="fill: #1f77b4"/>
   </g>
   <g id="patch_143">
    <path d="M 144.8175 237.35 
L 185.5085 237.35 
L 185.5085 236.409301 
L 144.8175 236.409301 
z
" clip-path="url(#pa81c3c0dd7)" style="fill: #1f77b4"/>
   </g>
   <g id="patch_144">
    <path d="M 226.1995 237.35 
L 266.8905 237.35 
L 266.8905 237.155373 
L 226.1995 237.155373 
z
" clip-path="url(#pa81c3c0dd7)" style="fill: #1f77b4"/>
   </g>
   <g id="patch_145">
    <path d="M 307.5815 237.35 
L 348.2725 237.35 
L 348.2725 237.207273 
L 307.5815 237.207273 
z
" clip-path="url(#pa81c3c0dd7)" style="fill: #1f77b4"/>
   </g>
   <g id="patch_146">
    <path d="M 388.9635 237.35 
L 429.6545 237.35 
L 429.6545 237.025621 
L 388.9635 237.025621 
z
" clip-path="url(#pa81c3c0dd7)" style="fill: #1f77b4"/>
   </g>
   <g id="patch_147">
    <path d="M 63.4355 237.35 
L 104.1265 237.35 
L 104.1265 237.21304 
L 63.4355 237.21304 
z
" clip-path="url(#pa81c3c0dd7)" style="fill: #1f77b4"/>
   </g>
   <g id="patch_148">
    <path d="M 144.8175 237.35 
L 185.5085 237.35 
L 185.5085 237.317562 
L 144.8175 237.317562 
z
" clip-path="url(#pa81c3c0dd7)" style="fill: #1f77b4"/>
   </g>
   <g id="patch_149">
    <path d="M 226.1995 237.35 
L 266.8905 237.35 
L 266.8905 237.317562 
L 226.1995 237.317562 
z
" clip-path="url(#pa81c3c0dd7)" style="fill: #1f77b4"/>
   </g>
   <g id="patch_150">
    <path d="M 307.5815 237.35 
L 348.2725 237.35 
L 348.2725 237.342792 
L 307.5815 237.342792 
z
" clip-path="url(#pa81c3c0dd7)" style="fill: #1f77b4"/>
   </g>
   <g id="patch_151">
    <path d="M 388.9635 237.35 
L 429.6545 237.35 
L 429.6545 237.342792 
L 388.9635 237.342792 
z
" clip-path="url(#pa81c3c0dd7)" style="fill: #1f77b4"/>
   </g>
   <g id="patch_152">
    <path d="M 63.4355 237.35 
L 104.1265 237.35 
L 104.1265 237.068871 
L 63.4355 237.068871 
z
" clip-path="url(#pa81c3c0dd7)" style="fill: #1f77b4"/>
   </g>
   <g id="patch_153">
    <path d="M 144.8175 237.35 
L 185.5085 237.35 
L 185.5085 237.198623 
L 144.8175 237.198623 
z
" clip-path="url(#pa81c3c0dd7)" style="fill: #1f77b4"/>
   </g>
   <g id="patch_154">
    <path d="M 226.1995 237.35 
L 266.8905 237.35 
L 266.8905 237.155373 
L 226.1995 237.155373 
z
" clip-path="url(#pa81c3c0dd7)" style="fill: #1f77b4"/>
   </g>
   <g id="patch_155">
    <path d="M 307.5815 237.35 
L 348.2725 237.35 
L 348.2725 237.090497 
L 307.5815 237.090497 
z
" clip-path="url(#pa81c3c0dd7)" style="fill: #1f77b4"/>
   </g>
   <g id="patch_156">
    <path d="M 388.9635 237.35 
L 429.6545 237.35 
L 429.6545 237.285124 
L 388.9635 237.285124 
z
" clip-path="url(#pa81c3c0dd7)" style="fill: #1f77b4"/>
   </g>
   <g id="patch_157">
    <path d="M 63.4355 237.35 
L 104.1265 237.35 
L 104.1265 237.35 
L 63.4355 237.35 
z
" clip-path="url(#pa81c3c0dd7)" style="fill: #1f77b4"/>
   </g>
   <g id="patch_158">
    <path d="M 144.8175 237.35 
L 185.5085 237.35 
L 185.5085 237.35 
L 144.8175 237.35 
z
" clip-path="url(#pa81c3c0dd7)" style="fill: #1f77b4"/>
   </g>
   <g id="patch_159">
    <path d="M 226.1995 237.35 
L 266.8905 237.35 
L 266.8905 237.35 
L 226.1995 237.35 
z
" clip-path="url(#pa81c3c0dd7)" style="fill: #1f77b4"/>
   </g>
   <g id="patch_160">
    <path d="M 307.5815 237.35 
L 348.2725 237.35 
L 348.2725 237.35 
L 307.5815 237.35 
z
" clip-path="url(#pa81c3c0dd7)" style="fill: #1f77b4"/>
   </g>
   <g id="patch_161">
    <path d="M 63.4355 237.35 
L 104.1265 237.35 
L 104.1265 237.35 
L 63.4355 237.35 
z
" clip-path="url(#pa81c3c0dd7)" style="fill: #1f77b4"/>
   </g>
   <g id="patch_162">
    <path d="M 144.8175 237.35 
L 185.5085 237.35 
L 185.5085 237.35 
L 144.8175 237.35 
z
" clip-path="url(#pa81c3c0dd7)" style="fill: #1f77b4"/>
   </g>
   <g id="patch_163">
    <path d="M 226.1995 237.35 
L 266.8905 237.35 
L 266.8905 237.35 
L 226.1995 237.35 
z
" clip-path="url(#pa81c3c0dd7)" style="fill: #1f77b4"/>
   </g>
   <g id="patch_164">
    <path d="M 63.4355 237.35 
L 104.1265 237.35 
L 104.1265 237.35 
L 63.4355 237.35 
z
" clip-path="url(#pa81c3c0dd7)" style="fill: #1f77b4"/>
   </g>
   <g id="patch_165">
    <path d="M 144.8175 237.35 
L 185.5085 237.35 
L 185.5085 237.35 
L 144.8175 237.35 
z
" clip-path="url(#pa81c3c0dd7)" style="fill: #1f77b4"/>
   </g>
   <g id="patch_166">
    <path d="M 226.1995 237.35 
L 266.8905 237.35 
L 266.8905 237.35 
L 226.1995 237.35 
z
" clip-path="url(#pa81c3c0dd7)" style="fill: #1f77b4"/>
   </g>
   <g id="patch_167">
    <path d="M 307.5815 237.35 
L 348.2725 237.35 
L 348.2725 237.35 
L 307.5815 237.35 
z
" clip-path="url(#pa81c3c0dd7)" style="fill: #1f77b4"/>
   </g>
   <g id="patch_168">
    <path d="M 63.4355 237.35 
L 104.1265 237.35 
L 104.1265 237.35 
L 63.4355 237.35 
z
" clip-path="url(#pa81c3c0dd7)" style="fill: #1f77b4"/>
   </g>
   <g id="patch_169">
    <path d="M 144.8175 237.35 
L 185.5085 237.35 
L 185.5085 237.35 
L 144.8175 237.35 
z
" clip-path="url(#pa81c3c0dd7)" style="fill: #1f77b4"/>
   </g>
   <g id="patch_170">
    <path d="M 63.4355 237.35 
L 104.1265 237.35 
L 104.1265 21.588095 
L 63.4355 21.588095 
z
" clip-path="url(#pa81c3c0dd7)" style="fill: #1f77b4"/>
   </g>
   <g id="patch_171">
    <path d="M 144.8175 237.35 
L 185.5085 237.35 
L 185.5085 99.892156 
L 144.8175 99.892156 
z
" clip-path="url(#pa81c3c0dd7)" style="fill: #1f77b4"/>
   </g>
   <g id="patch_172">
    <path d="M 226.1995 237.35 
L 266.8905 237.35 
L 266.8905 135.117707 
L 226.1995 135.117707 
z
" clip-path="url(#pa81c3c0dd7)" style="fill: #1f77b4"/>
   </g>
   <g id="patch_173">
    <path d="M 307.5815 237.35 
L 348.2725 237.35 
L 348.2725 126.775411 
L 307.5815 126.775411 
z
" clip-path="url(#pa81c3c0dd7)" style="fill: #1f77b4"/>
   </g>
   <g id="patch_174">
    <path d="M 388.9635 237.35 
L 429.6545 237.35 
L 429.6545 148.708861 
L 388.9635 148.708861 
z
" clip-path="url(#pa81c3c0dd7)" style="fill: #1f77b4"/>
   </g>
   <g id="patch_175">
    <path d="M 63.4355 237.35 
L 104.1265 237.35 
L 104.1265 237.009402 
L 63.4355 237.009402 
z
" clip-path="url(#pa81c3c0dd7)" style="fill: #1f77b4"/>
   </g>
   <g id="patch_176">
    <path d="M 144.8175 237.35 
L 185.5085 237.35 
L 185.5085 237.285124 
L 144.8175 237.285124 
z
" clip-path="url(#pa81c3c0dd7)" style="fill: #1f77b4"/>
   </g>
   <g id="patch_177">
    <path d="M 226.1995 237.35 
L 266.8905 237.35 
L 266.8905 237.285124 
L 226.1995 237.285124 
z
" clip-path="url(#pa81c3c0dd7)" style="fill: #1f77b4"/>
   </g>
   <g id="patch_178">
    <path d="M 307.5815 237.35 
L 348.2725 237.35 
L 348.2725 237.285124 
L 307.5815 237.285124 
z
" clip-path="url(#pa81c3c0dd7)" style="fill: #1f77b4"/>
   </g>
   <g id="patch_179">
    <path d="M 388.9635 237.35 
L 429.6545 237.35 
L 429.6545 237.252686 
L 388.9635 237.252686 
z
" clip-path="url(#pa81c3c0dd7)" style="fill: #1f77b4"/>
   </g>
   <g id="matplotlib.axis_1">
    <g id="xtick_1">
     <g id="line2d_1">
      <defs>
       <path id="mddabba205f" d="M 0 0 
L 0 3.5 
" style="stroke: #000000; stroke-width: 0.8"/>
      </defs>
      <g>
       <use xlink:href="#mddabba205f" x="83.781" y="237.35" style="stroke: #000000; stroke-width: 0.8"/>
      </g>
     </g>
     <g id="text_1">
      <!-- Samuel L. Jackson -->
      <g transform="translate(86.540375 334.975) rotate(-90) scale(0.1 -0.1)">
       <defs>
        <path id="DejaVuSans-53" d="M 3425 4513 
L 3425 3897 
Q 3066 4069 2747 4153 
Q 2428 4238 2131 4238 
Q 1616 4238 1336 4038 
Q 1056 3838 1056 3469 
Q 1056 3159 1242 3001 
Q 1428 2844 1947 2747 
L 2328 2669 
Q 3034 2534 3370 2195 
Q 3706 1856 3706 1288 
Q 3706 609 3251 259 
Q 2797 -91 1919 -91 
Q 1588 -91 1214 -16 
Q 841 59 441 206 
L 441 856 
Q 825 641 1194 531 
Q 1563 422 1919 422 
Q 2459 422 2753 634 
Q 3047 847 3047 1241 
Q 3047 1584 2836 1778 
Q 2625 1972 2144 2069 
L 1759 2144 
Q 1053 2284 737 2584 
Q 422 2884 422 3419 
Q 422 4038 858 4394 
Q 1294 4750 2059 4750 
Q 2388 4750 2728 4690 
Q 3069 4631 3425 4513 
z
" transform="scale(0.015625)"/>
        <path id="DejaVuSans-61" d="M 2194 1759 
Q 1497 1759 1228 1600 
Q 959 1441 959 1056 
Q 959 750 1161 570 
Q 1363 391 1709 391 
Q 2188 391 2477 730 
Q 2766 1069 2766 1631 
L 2766 1759 
L 2194 1759 
z
M 3341 1997 
L 3341 0 
L 2766 0 
L 2766 531 
Q 2569 213 2275 61 
Q 1981 -91 1556 -91 
Q 1019 -91 701 211 
Q 384 513 384 1019 
Q 384 1609 779 1909 
Q 1175 2209 1959 2209 
L 2766 2209 
L 2766 2266 
Q 2766 2663 2505 2880 
Q 2244 3097 1772 3097 
Q 1472 3097 1187 3025 
Q 903 2953 641 2809 
L 641 3341 
Q 956 3463 1253 3523 
Q 1550 3584 1831 3584 
Q 2591 3584 2966 3190 
Q 3341 2797 3341 1997 
z
" transform="scale(0.015625)"/>
        <path id="DejaVuSans-6d" d="M 3328 2828 
Q 3544 3216 3844 3400 
Q 4144 3584 4550 3584 
Q 5097 3584 5394 3201 
Q 5691 2819 5691 2113 
L 5691 0 
L 5113 0 
L 5113 2094 
Q 5113 2597 4934 2840 
Q 4756 3084 4391 3084 
Q 3944 3084 3684 2787 
Q 3425 2491 3425 1978 
L 3425 0 
L 2847 0 
L 2847 2094 
Q 2847 2600 2669 2842 
Q 2491 3084 2119 3084 
Q 1678 3084 1418 2786 
Q 1159 2488 1159 1978 
L 1159 0 
L 581 0 
L 581 3500 
L 1159 3500 
L 1159 2956 
Q 1356 3278 1631 3431 
Q 1906 3584 2284 3584 
Q 2666 3584 2933 3390 
Q 3200 3197 3328 2828 
z
" transform="scale(0.015625)"/>
        <path id="DejaVuSans-75" d="M 544 1381 
L 544 3500 
L 1119 3500 
L 1119 1403 
Q 1119 906 1312 657 
Q 1506 409 1894 409 
Q 2359 409 2629 706 
Q 2900 1003 2900 1516 
L 2900 3500 
L 3475 3500 
L 3475 0 
L 2900 0 
L 2900 538 
Q 2691 219 2414 64 
Q 2138 -91 1772 -91 
Q 1169 -91 856 284 
Q 544 659 544 1381 
z
M 1991 3584 
L 1991 3584 
z
" transform="scale(0.015625)"/>
        <path id="DejaVuSans-65" d="M 3597 1894 
L 3597 1613 
L 953 1613 
Q 991 1019 1311 708 
Q 1631 397 2203 397 
Q 2534 397 2845 478 
Q 3156 559 3463 722 
L 3463 178 
Q 3153 47 2828 -22 
Q 2503 -91 2169 -91 
Q 1331 -91 842 396 
Q 353 884 353 1716 
Q 353 2575 817 3079 
Q 1281 3584 2069 3584 
Q 2775 3584 3186 3129 
Q 3597 2675 3597 1894 
z
M 3022 2063 
Q 3016 2534 2758 2815 
Q 2500 3097 2075 3097 
Q 1594 3097 1305 2825 
Q 1016 2553 972 2059 
L 3022 2063 
z
" transform="scale(0.015625)"/>
        <path id="DejaVuSans-6c" d="M 603 4863 
L 1178 4863 
L 1178 0 
L 603 0 
L 603 4863 
z
" transform="scale(0.015625)"/>
        <path id="DejaVuSans-20" transform="scale(0.015625)"/>
        <path id="DejaVuSans-4c" d="M 628 4666 
L 1259 4666 
L 1259 531 
L 3531 531 
L 3531 0 
L 628 0 
L 628 4666 
z
" transform="scale(0.015625)"/>
        <path id="DejaVuSans-2e" d="M 684 794 
L 1344 794 
L 1344 0 
L 684 0 
L 684 794 
z
" transform="scale(0.015625)"/>
        <path id="DejaVuSans-4a" d="M 628 4666 
L 1259 4666 
L 1259 325 
Q 1259 -519 939 -900 
Q 619 -1281 -91 -1281 
L -331 -1281 
L -331 -750 
L -134 -750 
Q 284 -750 456 -515 
Q 628 -281 628 325 
L 628 4666 
z
" transform="scale(0.015625)"/>
        <path id="DejaVuSans-63" d="M 3122 3366 
L 3122 2828 
Q 2878 2963 2633 3030 
Q 2388 3097 2138 3097 
Q 1578 3097 1268 2742 
Q 959 2388 959 1747 
Q 959 1106 1268 751 
Q 1578 397 2138 397 
Q 2388 397 2633 464 
Q 2878 531 3122 666 
L 3122 134 
Q 2881 22 2623 -34 
Q 2366 -91 2075 -91 
Q 1284 -91 818 406 
Q 353 903 353 1747 
Q 353 2603 823 3093 
Q 1294 3584 2113 3584 
Q 2378 3584 2631 3529 
Q 2884 3475 3122 3366 
z
" transform="scale(0.015625)"/>
        <path id="DejaVuSans-6b" d="M 581 4863 
L 1159 4863 
L 1159 1991 
L 2875 3500 
L 3609 3500 
L 1753 1863 
L 3688 0 
L 2938 0 
L 1159 1709 
L 1159 0 
L 581 0 
L 581 4863 
z
" transform="scale(0.015625)"/>
        <path id="DejaVuSans-73" d="M 2834 3397 
L 2834 2853 
Q 2591 2978 2328 3040 
Q 2066 3103 1784 3103 
Q 1356 3103 1142 2972 
Q 928 2841 928 2578 
Q 928 2378 1081 2264 
Q 1234 2150 1697 2047 
L 1894 2003 
Q 2506 1872 2764 1633 
Q 3022 1394 3022 966 
Q 3022 478 2636 193 
Q 2250 -91 1575 -91 
Q 1294 -91 989 -36 
Q 684 19 347 128 
L 347 722 
Q 666 556 975 473 
Q 1284 391 1588 391 
Q 1994 391 2212 530 
Q 2431 669 2431 922 
Q 2431 1156 2273 1281 
Q 2116 1406 1581 1522 
L 1381 1569 
Q 847 1681 609 1914 
Q 372 2147 372 2553 
Q 372 3047 722 3315 
Q 1072 3584 1716 3584 
Q 2034 3584 2315 3537 
Q 2597 3491 2834 3397 
z
" transform="scale(0.015625)"/>
        <path id="DejaVuSans-6f" d="M 1959 3097 
Q 1497 3097 1228 2736 
Q 959 2375 959 1747 
Q 959 1119 1226 758 
Q 1494 397 1959 397 
Q 2419 397 2687 759 
Q 2956 1122 2956 1747 
Q 2956 2369 2687 2733 
Q 2419 3097 1959 3097 
z
M 1959 3584 
Q 2709 3584 3137 3096 
Q 3566 2609 3566 1747 
Q 3566 888 3137 398 
Q 2709 -91 1959 -91 
Q 1206 -91 779 398 
Q 353 888 353 1747 
Q 353 2609 779 3096 
Q 1206 3584 1959 3584 
z
" transform="scale(0.015625)"/>
        <path id="DejaVuSans-6e" d="M 3513 2113 
L 3513 0 
L 2938 0 
L 2938 2094 
Q 2938 2591 2744 2837 
Q 2550 3084 2163 3084 
Q 1697 3084 1428 2787 
Q 1159 2491 1159 1978 
L 1159 0 
L 581 0 
L 581 3500 
L 1159 3500 
L 1159 2956 
Q 1366 3272 1645 3428 
Q 1925 3584 2291 3584 
Q 2894 3584 3203 3211 
Q 3513 2838 3513 2113 
z
" transform="scale(0.015625)"/>
       </defs>
       <use xlink:href="#DejaVuSans-53"/>
       <use xlink:href="#DejaVuSans-61" x="63.476562"/>
       <use xlink:href="#DejaVuSans-6d" x="124.755859"/>
       <use xlink:href="#DejaVuSans-75" x="222.167969"/>
       <use xlink:href="#DejaVuSans-65" x="285.546875"/>
       <use xlink:href="#DejaVuSans-6c" x="347.070312"/>
       <use xlink:href="#DejaVuSans-20" x="374.853516"/>
       <use xlink:href="#DejaVuSans-4c" x="406.640625"/>
       <use xlink:href="#DejaVuSans-2e" x="462.353516"/>
       <use xlink:href="#DejaVuSans-20" x="494.140625"/>
       <use xlink:href="#DejaVuSans-4a" x="525.927734"/>
       <use xlink:href="#DejaVuSans-61" x="555.419922"/>
       <use xlink:href="#DejaVuSans-63" x="616.699219"/>
       <use xlink:href="#DejaVuSans-6b" x="671.679688"/>
       <use xlink:href="#DejaVuSans-73" x="729.589844"/>
       <use xlink:href="#DejaVuSans-6f" x="781.689453"/>
       <use xlink:href="#DejaVuSans-6e" x="842.871094"/>
      </g>
     </g>
    </g>
    <g id="xtick_2">
     <g id="line2d_2">
      <g>
       <use xlink:href="#mddabba205f" x="165.163" y="237.35" style="stroke: #000000; stroke-width: 0.8"/>
      </g>
     </g>
     <g id="text_2">
      <!-- Bruce Willis -->
      <g transform="translate(167.922375 302.473437) rotate(-90) scale(0.1 -0.1)">
       <defs>
        <path id="DejaVuSans-42" d="M 1259 2228 
L 1259 519 
L 2272 519 
Q 2781 519 3026 730 
Q 3272 941 3272 1375 
Q 3272 1813 3026 2020 
Q 2781 2228 2272 2228 
L 1259 2228 
z
M 1259 4147 
L 1259 2741 
L 2194 2741 
Q 2656 2741 2882 2914 
Q 3109 3088 3109 3444 
Q 3109 3797 2882 3972 
Q 2656 4147 2194 4147 
L 1259 4147 
z
M 628 4666 
L 2241 4666 
Q 2963 4666 3353 4366 
Q 3744 4066 3744 3513 
Q 3744 3084 3544 2831 
Q 3344 2578 2956 2516 
Q 3422 2416 3680 2098 
Q 3938 1781 3938 1306 
Q 3938 681 3513 340 
Q 3088 0 2303 0 
L 628 0 
L 628 4666 
z
" transform="scale(0.015625)"/>
        <path id="DejaVuSans-72" d="M 2631 2963 
Q 2534 3019 2420 3045 
Q 2306 3072 2169 3072 
Q 1681 3072 1420 2755 
Q 1159 2438 1159 1844 
L 1159 0 
L 581 0 
L 581 3500 
L 1159 3500 
L 1159 2956 
Q 1341 3275 1631 3429 
Q 1922 3584 2338 3584 
Q 2397 3584 2469 3576 
Q 2541 3569 2628 3553 
L 2631 2963 
z
" transform="scale(0.015625)"/>
        <path id="DejaVuSans-57" d="M 213 4666 
L 850 4666 
L 1831 722 
L 2809 4666 
L 3519 4666 
L 4500 722 
L 5478 4666 
L 6119 4666 
L 4947 0 
L 4153 0 
L 3169 4050 
L 2175 0 
L 1381 0 
L 213 4666 
z
" transform="scale(0.015625)"/>
        <path id="DejaVuSans-69" d="M 603 3500 
L 1178 3500 
L 1178 0 
L 603 0 
L 603 3500 
z
M 603 4863 
L 1178 4863 
L 1178 4134 
L 603 4134 
L 603 4863 
z
" transform="scale(0.015625)"/>
       </defs>
       <use xlink:href="#DejaVuSans-42"/>
       <use xlink:href="#DejaVuSans-72" x="68.603516"/>
       <use xlink:href="#DejaVuSans-75" x="109.716797"/>
       <use xlink:href="#DejaVuSans-63" x="173.095703"/>
       <use xlink:href="#DejaVuSans-65" x="228.076172"/>
       <use xlink:href="#DejaVuSans-20" x="289.599609"/>
       <use xlink:href="#DejaVuSans-57" x="321.386719"/>
       <use xlink:href="#DejaVuSans-69" x="418.013672"/>
       <use xlink:href="#DejaVuSans-6c" x="445.796875"/>
       <use xlink:href="#DejaVuSans-6c" x="473.580078"/>
       <use xlink:href="#DejaVuSans-69" x="501.363281"/>
       <use xlink:href="#DejaVuSans-73" x="529.146484"/>
      </g>
     </g>
    </g>
    <g id="xtick_3">
     <g id="line2d_3">
      <g>
       <use xlink:href="#mddabba205f" x="246.545" y="237.35" style="stroke: #000000; stroke-width: 0.8"/>
      </g>
     </g>
     <g id="text_3">
      <!-- Luke Perry -->
      <g transform="translate(249.304375 296.629687) rotate(-90) scale(0.1 -0.1)">
       <defs>
        <path id="DejaVuSans-50" d="M 1259 4147 
L 1259 2394 
L 2053 2394 
Q 2494 2394 2734 2622 
Q 2975 2850 2975 3272 
Q 2975 3691 2734 3919 
Q 2494 4147 2053 4147 
L 1259 4147 
z
M 628 4666 
L 2053 4666 
Q 2838 4666 3239 4311 
Q 3641 3956 3641 3272 
Q 3641 2581 3239 2228 
Q 2838 1875 2053 1875 
L 1259 1875 
L 1259 0 
L 628 0 
L 628 4666 
z
" transform="scale(0.015625)"/>
        <path id="DejaVuSans-79" d="M 2059 -325 
Q 1816 -950 1584 -1140 
Q 1353 -1331 966 -1331 
L 506 -1331 
L 506 -850 
L 844 -850 
Q 1081 -850 1212 -737 
Q 1344 -625 1503 -206 
L 1606 56 
L 191 3500 
L 800 3500 
L 1894 763 
L 2988 3500 
L 3597 3500 
L 2059 -325 
z
" transform="scale(0.015625)"/>
       </defs>
       <use xlink:href="#DejaVuSans-4c"/>
       <use xlink:href="#DejaVuSans-75" x="53.962891"/>
       <use xlink:href="#DejaVuSans-6b" x="117.341797"/>
       <use xlink:href="#DejaVuSans-65" x="171.626953"/>
       <use xlink:href="#DejaVuSans-20" x="233.150391"/>
       <use xlink:href="#DejaVuSans-50" x="264.9375"/>
       <use xlink:href="#DejaVuSans-65" x="321.615234"/>
       <use xlink:href="#DejaVuSans-72" x="383.138672"/>
       <use xlink:href="#DejaVuSans-72" x="422.501953"/>
       <use xlink:href="#DejaVuSans-79" x="463.615234"/>
      </g>
     </g>
    </g>
    <g id="xtick_4">
     <g id="line2d_4">
      <g>
       <use xlink:href="#mddabba205f" x="327.927" y="237.35" style="stroke: #000000; stroke-width: 0.8"/>
      </g>
     </g>
     <g id="text_4">
      <!-- Gary Oldman -->
      <g transform="translate(330.686375 310.639062) rotate(-90) scale(0.1 -0.1)">
       <defs>
        <path id="DejaVuSans-47" d="M 3809 666 
L 3809 1919 
L 2778 1919 
L 2778 2438 
L 4434 2438 
L 4434 434 
Q 4069 175 3628 42 
Q 3188 -91 2688 -91 
Q 1594 -91 976 548 
Q 359 1188 359 2328 
Q 359 3472 976 4111 
Q 1594 4750 2688 4750 
Q 3144 4750 3555 4637 
Q 3966 4525 4313 4306 
L 4313 3634 
Q 3963 3931 3569 4081 
Q 3175 4231 2741 4231 
Q 1884 4231 1454 3753 
Q 1025 3275 1025 2328 
Q 1025 1384 1454 906 
Q 1884 428 2741 428 
Q 3075 428 3337 486 
Q 3600 544 3809 666 
z
" transform="scale(0.015625)"/>
        <path id="DejaVuSans-4f" d="M 2522 4238 
Q 1834 4238 1429 3725 
Q 1025 3213 1025 2328 
Q 1025 1447 1429 934 
Q 1834 422 2522 422 
Q 3209 422 3611 934 
Q 4013 1447 4013 2328 
Q 4013 3213 3611 3725 
Q 3209 4238 2522 4238 
z
M 2522 4750 
Q 3503 4750 4090 4092 
Q 4678 3434 4678 2328 
Q 4678 1225 4090 567 
Q 3503 -91 2522 -91 
Q 1538 -91 948 565 
Q 359 1222 359 2328 
Q 359 3434 948 4092 
Q 1538 4750 2522 4750 
z
" transform="scale(0.015625)"/>
        <path id="DejaVuSans-64" d="M 2906 2969 
L 2906 4863 
L 3481 4863 
L 3481 0 
L 2906 0 
L 2906 525 
Q 2725 213 2448 61 
Q 2172 -91 1784 -91 
Q 1150 -91 751 415 
Q 353 922 353 1747 
Q 353 2572 751 3078 
Q 1150 3584 1784 3584 
Q 2172 3584 2448 3432 
Q 2725 3281 2906 2969 
z
M 947 1747 
Q 947 1113 1208 752 
Q 1469 391 1925 391 
Q 2381 391 2643 752 
Q 2906 1113 2906 1747 
Q 2906 2381 2643 2742 
Q 2381 3103 1925 3103 
Q 1469 3103 1208 2742 
Q 947 2381 947 1747 
z
" transform="scale(0.015625)"/>
       </defs>
       <use xlink:href="#DejaVuSans-47"/>
       <use xlink:href="#DejaVuSans-61" x="77.490234"/>
       <use xlink:href="#DejaVuSans-72" x="138.769531"/>
       <use xlink:href="#DejaVuSans-79" x="179.882812"/>
       <use xlink:href="#DejaVuSans-20" x="239.0625"/>
       <use xlink:href="#DejaVuSans-4f" x="270.849609"/>
       <use xlink:href="#DejaVuSans-6c" x="349.560547"/>
       <use xlink:href="#DejaVuSans-64" x="377.34375"/>
       <use xlink:href="#DejaVuSans-6d" x="440.820312"/>
       <use xlink:href="#DejaVuSans-61" x="538.232422"/>
       <use xlink:href="#DejaVuSans-6e" x="599.511719"/>
      </g>
     </g>
    </g>
    <g id="xtick_5">
     <g id="line2d_5">
      <g>
       <use xlink:href="#mddabba205f" x="409.309" y="237.35" style="stroke: #000000; stroke-width: 0.8"/>
      </g>
     </g>
     <g id="text_5">
      <!-- Dina Meyer -->
      <g transform="translate(412.068375 301.435937) rotate(-90) scale(0.1 -0.1)">
       <defs>
        <path id="DejaVuSans-44" d="M 1259 4147 
L 1259 519 
L 2022 519 
Q 2988 519 3436 956 
Q 3884 1394 3884 2338 
Q 3884 3275 3436 3711 
Q 2988 4147 2022 4147 
L 1259 4147 
z
M 628 4666 
L 1925 4666 
Q 3281 4666 3915 4102 
Q 4550 3538 4550 2338 
Q 4550 1131 3912 565 
Q 3275 0 1925 0 
L 628 0 
L 628 4666 
z
" transform="scale(0.015625)"/>
        <path id="DejaVuSans-4d" d="M 628 4666 
L 1569 4666 
L 2759 1491 
L 3956 4666 
L 4897 4666 
L 4897 0 
L 4281 0 
L 4281 4097 
L 3078 897 
L 2444 897 
L 1241 4097 
L 1241 0 
L 628 0 
L 628 4666 
z
" transform="scale(0.015625)"/>
       </defs>
       <use xlink:href="#DejaVuSans-44"/>
       <use xlink:href="#DejaVuSans-69" x="77.001953"/>
       <use xlink:href="#DejaVuSans-6e" x="104.785156"/>
       <use xlink:href="#DejaVuSans-61" x="168.164062"/>
       <use xlink:href="#DejaVuSans-20" x="229.443359"/>
       <use xlink:href="#DejaVuSans-4d" x="261.230469"/>
       <use xlink:href="#DejaVuSans-65" x="347.509766"/>
       <use xlink:href="#DejaVuSans-79" x="409.033203"/>
       <use xlink:href="#DejaVuSans-65" x="468.212891"/>
       <use xlink:href="#DejaVuSans-72" x="529.736328"/>
      </g>
     </g>
    </g>
   </g>
   <g id="matplotlib.axis_2">
    <g id="ytick_1">
     <g id="line2d_6">
      <defs>
       <path id="mfdb7602f40" d="M 0 0 
L -3.5 0 
" style="stroke: #000000; stroke-width: 0.8"/>
      </defs>
      <g>
       <use xlink:href="#mfdb7602f40" x="43.09" y="237.35" style="stroke: #000000; stroke-width: 0.8"/>
      </g>
     </g>
     <g id="text_6">
      <!-- 0 -->
      <g transform="translate(29.7275 241.149219) scale(0.1 -0.1)">
       <defs>
        <path id="DejaVuSans-30" d="M 2034 4250 
Q 1547 4250 1301 3770 
Q 1056 3291 1056 2328 
Q 1056 1369 1301 889 
Q 1547 409 2034 409 
Q 2525 409 2770 889 
Q 3016 1369 3016 2328 
Q 3016 3291 2770 3770 
Q 2525 4250 2034 4250 
z
M 2034 4750 
Q 2819 4750 3233 4129 
Q 3647 3509 3647 2328 
Q 3647 1150 3233 529 
Q 2819 -91 2034 -91 
Q 1250 -91 836 529 
Q 422 1150 422 2328 
Q 422 3509 836 4129 
Q 1250 4750 2034 4750 
z
" transform="scale(0.015625)"/>
       </defs>
       <use xlink:href="#DejaVuSans-30"/>
      </g>
     </g>
    </g>
    <g id="ytick_2">
     <g id="line2d_7">
      <g>
       <use xlink:href="#mfdb7602f40" x="43.09" y="204.912093" style="stroke: #000000; stroke-width: 0.8"/>
      </g>
     </g>
     <g id="text_7">
      <!-- 500 -->
      <g transform="translate(17.0025 208.711312) scale(0.1 -0.1)">
       <defs>
        <path id="DejaVuSans-35" d="M 691 4666 
L 3169 4666 
L 3169 4134 
L 1269 4134 
L 1269 2991 
Q 1406 3038 1543 3061 
Q 1681 3084 1819 3084 
Q 2600 3084 3056 2656 
Q 3513 2228 3513 1497 
Q 3513 744 3044 326 
Q 2575 -91 1722 -91 
Q 1428 -91 1123 -41 
Q 819 9 494 109 
L 494 744 
Q 775 591 1075 516 
Q 1375 441 1709 441 
Q 2250 441 2565 725 
Q 2881 1009 2881 1497 
Q 2881 1984 2565 2268 
Q 2250 2553 1709 2553 
Q 1456 2553 1204 2497 
Q 953 2441 691 2322 
L 691 4666 
z
" transform="scale(0.015625)"/>
       </defs>
       <use xlink:href="#DejaVuSans-35"/>
       <use xlink:href="#DejaVuSans-30" x="63.623047"/>
       <use xlink:href="#DejaVuSans-30" x="127.246094"/>
      </g>
     </g>
    </g>
    <g id="ytick_3">
     <g id="line2d_8">
      <g>
       <use xlink:href="#mfdb7602f40" x="43.09" y="172.474186" style="stroke: #000000; stroke-width: 0.8"/>
      </g>
     </g>
     <g id="text_8">
      <!-- 1000 -->
      <g transform="translate(10.64 176.273405) scale(0.1 -0.1)">
       <defs>
        <path id="DejaVuSans-31" d="M 794 531 
L 1825 531 
L 1825 4091 
L 703 3866 
L 703 4441 
L 1819 4666 
L 2450 4666 
L 2450 531 
L 3481 531 
L 3481 0 
L 794 0 
L 794 531 
z
" transform="scale(0.015625)"/>
       </defs>
       <use xlink:href="#DejaVuSans-31"/>
       <use xlink:href="#DejaVuSans-30" x="63.623047"/>
       <use xlink:href="#DejaVuSans-30" x="127.246094"/>
       <use xlink:href="#DejaVuSans-30" x="190.869141"/>
      </g>
     </g>
    </g>
    <g id="ytick_4">
     <g id="line2d_9">
      <g>
       <use xlink:href="#mfdb7602f40" x="43.09" y="140.03628" style="stroke: #000000; stroke-width: 0.8"/>
      </g>
     </g>
     <g id="text_9">
      <!-- 1500 -->
      <g transform="translate(10.64 143.835498) scale(0.1 -0.1)">
       <use xlink:href="#DejaVuSans-31"/>
       <use xlink:href="#DejaVuSans-35" x="63.623047"/>
       <use xlink:href="#DejaVuSans-30" x="127.246094"/>
       <use xlink:href="#DejaVuSans-30" x="190.869141"/>
      </g>
     </g>
    </g>
    <g id="ytick_5">
     <g id="line2d_10">
      <g>
       <use xlink:href="#mfdb7602f40" x="43.09" y="107.598373" style="stroke: #000000; stroke-width: 0.8"/>
      </g>
     </g>
     <g id="text_10">
      <!-- 2000 -->
      <g transform="translate(10.64 111.397592) scale(0.1 -0.1)">
       <defs>
        <path id="DejaVuSans-32" d="M 1228 531 
L 3431 531 
L 3431 0 
L 469 0 
L 469 531 
Q 828 903 1448 1529 
Q 2069 2156 2228 2338 
Q 2531 2678 2651 2914 
Q 2772 3150 2772 3378 
Q 2772 3750 2511 3984 
Q 2250 4219 1831 4219 
Q 1534 4219 1204 4116 
Q 875 4013 500 3803 
L 500 4441 
Q 881 4594 1212 4672 
Q 1544 4750 1819 4750 
Q 2544 4750 2975 4387 
Q 3406 4025 3406 3419 
Q 3406 3131 3298 2873 
Q 3191 2616 2906 2266 
Q 2828 2175 2409 1742 
Q 1991 1309 1228 531 
z
" transform="scale(0.015625)"/>
       </defs>
       <use xlink:href="#DejaVuSans-32"/>
       <use xlink:href="#DejaVuSans-30" x="63.623047"/>
       <use xlink:href="#DejaVuSans-30" x="127.246094"/>
       <use xlink:href="#DejaVuSans-30" x="190.869141"/>
      </g>
     </g>
    </g>
    <g id="ytick_6">
     <g id="line2d_11">
      <g>
       <use xlink:href="#mfdb7602f40" x="43.09" y="75.160466" style="stroke: #000000; stroke-width: 0.8"/>
      </g>
     </g>
     <g id="text_11">
      <!-- 2500 -->
      <g transform="translate(10.64 78.959685) scale(0.1 -0.1)">
       <use xlink:href="#DejaVuSans-32"/>
       <use xlink:href="#DejaVuSans-35" x="63.623047"/>
       <use xlink:href="#DejaVuSans-30" x="127.246094"/>
       <use xlink:href="#DejaVuSans-30" x="190.869141"/>
      </g>
     </g>
    </g>
    <g id="ytick_7">
     <g id="line2d_12">
      <g>
       <use xlink:href="#mfdb7602f40" x="43.09" y="42.722559" style="stroke: #000000; stroke-width: 0.8"/>
      </g>
     </g>
     <g id="text_12">
      <!-- 3000 -->
      <g transform="translate(10.64 46.521778) scale(0.1 -0.1)">
       <defs>
        <path id="DejaVuSans-33" d="M 2597 2516 
Q 3050 2419 3304 2112 
Q 3559 1806 3559 1356 
Q 3559 666 3084 287 
Q 2609 -91 1734 -91 
Q 1441 -91 1130 -33 
Q 819 25 488 141 
L 488 750 
Q 750 597 1062 519 
Q 1375 441 1716 441 
Q 2309 441 2620 675 
Q 2931 909 2931 1356 
Q 2931 1769 2642 2001 
Q 2353 2234 1838 2234 
L 1294 2234 
L 1294 2753 
L 1863 2753 
Q 2328 2753 2575 2939 
Q 2822 3125 2822 3475 
Q 2822 3834 2567 4026 
Q 2313 4219 1838 4219 
Q 1578 4219 1281 4162 
Q 984 4106 628 3988 
L 628 4550 
Q 988 4650 1302 4700 
Q 1616 4750 1894 4750 
Q 2613 4750 3031 4423 
Q 3450 4097 3450 3541 
Q 3450 3153 3228 2886 
Q 3006 2619 2597 2516 
z
" transform="scale(0.015625)"/>
       </defs>
       <use xlink:href="#DejaVuSans-33"/>
       <use xlink:href="#DejaVuSans-30" x="63.623047"/>
       <use xlink:href="#DejaVuSans-30" x="127.246094"/>
       <use xlink:href="#DejaVuSans-30" x="190.869141"/>
      </g>
     </g>
    </g>
   </g>
   <g id="patch_180">
    <path d="M 43.09 237.35 
L 43.09 10.8 
" style="fill: none; stroke: #000000; stroke-width: 0.8; stroke-linejoin: miter; stroke-linecap: square"/>
   </g>
   <g id="patch_181">
    <path d="M 450 237.35 
L 450 10.8 
" style="fill: none; stroke: #000000; stroke-width: 0.8; stroke-linejoin: miter; stroke-linecap: square"/>
   </g>
   <g id="patch_182">
    <path d="M 43.09 237.35 
L 450 237.35 
" style="fill: none; stroke: #000000; stroke-width: 0.8; stroke-linejoin: miter; stroke-linecap: square"/>
   </g>
   <g id="patch_183">
    <path d="M 43.09 10.8 
L 450 10.8 
" style="fill: none; stroke: #000000; stroke-width: 0.8; stroke-linejoin: miter; stroke-linecap: square"/>
   </g>
  </g>
 </g>
 <defs>
  <clipPath id="pa81c3c0dd7">
   <rect x="43.09" y="10.8" width="406.91" height="226.55"/>
  </clipPath>
 </defs>
</svg>
