<?xml version="1.0" encoding="utf-8" standalone="no"?>
<!DOCTYPE svg PUBLIC "-//W3C//DTD SVG 1.1//EN"
  "http://www.w3.org/Graphics/SVG/1.1/DTD/svg11.dtd">
<svg xmlns:xlink="http://www.w3.org/1999/xlink" width="460.8pt" height="345.6pt" viewBox="0 0 460.8 345.6" xmlns="http://www.w3.org/2000/svg" version="1.1">
 <metadata>
  <rdf:RDF xmlns:dc="http://purl.org/dc/elements/1.1/" xmlns:cc="http://creativecommons.org/ns#" xmlns:rdf="http://www.w3.org/1999/02/22-rdf-syntax-ns#">
   <cc:Work>
    <dc:type rdf:resource="http://purl.org/dc/dcmitype/StillImage"/>
    <dc:date>2022-12-20T12:31:09.990994</dc:date>
    <dc:format>image/svg+xml</dc:format>
    <dc:creator>
     <cc:Agent>
      <dc:title>Matplotlib v3.6.0, https://matplotlib.org/</dc:title>
     </cc:Agent>
    </dc:creator>
   </cc:Work>
  </rdf:RDF>
 </metadata>
 <defs>
  <style type="text/css">*{stroke-linejoin: round; stroke-linecap: butt}</style>
 </defs>
 <g id="figure_1">
  <g id="patch_1">
   <path d="M 0 345.6 
L 460.8 345.6 
L 460.8 0 
L 0 0 
z
" style="fill: #ffffff"/>
  </g>
  <g id="axes_1">
   <g id="patch_2">
    <path d="M 43.09 257.96 
L 450 257.96 
L 450 10.8 
L 43.09 10.8 
z
" style="fill: #ffffff"/>
   </g>
   <g id="patch_3">
    <path d="M 63.4355 257.96 
L 104.1265 257.96 
L 104.1265 178.380348 
L 63.4355 178.380348 
z
" clip-path="url(#p5aeb9e1be3)" style="fill: #1f77b4"/>
   </g>
   <g id="patch_4">
    <path d="M 144.8175 257.96 
L 185.5085 257.96 
L 185.5085 197.097403 
L 144.8175 197.097403 
z
" clip-path="url(#p5aeb9e1be3)" style="fill: #1f77b4"/>
   </g>
   <g id="patch_5">
    <path d="M 226.1995 257.96 
L 266.8905 257.96 
L 266.8905 191.52933 
L 226.1995 191.52933 
z
" clip-path="url(#p5aeb9e1be3)" style="fill: #1f77b4"/>
   </g>
   <g id="patch_6">
    <path d="M 307.5815 257.96 
L 348.2725 257.96 
L 348.2725 203.763705 
L 307.5815 203.763705 
z
" clip-path="url(#p5aeb9e1be3)" style="fill: #1f77b4"/>
   </g>
   <g id="patch_7">
    <path d="M 388.9635 257.96 
L 429.6545 257.96 
L 429.6545 225.353235 
L 388.9635 225.353235 
z
" clip-path="url(#p5aeb9e1be3)" style="fill: #1f77b4"/>
   </g>
   <g id="patch_8">
    <path d="M 63.4355 257.96 
L 104.1265 257.96 
L 104.1265 257.747667 
L 63.4355 257.747667 
z
" clip-path="url(#p5aeb9e1be3)" style="fill: #1f77b4"/>
   </g>
   <g id="patch_9">
    <path d="M 144.8175 257.96 
L 185.5085 257.96 
L 185.5085 257.889222 
L 144.8175 257.889222 
z
" clip-path="url(#p5aeb9e1be3)" style="fill: #1f77b4"/>
   </g>
   <g id="patch_10">
    <path d="M 226.1995 257.96 
L 266.8905 257.96 
L 266.8905 257.96 
L 226.1995 257.96 
z
" clip-path="url(#p5aeb9e1be3)" style="fill: #1f77b4"/>
   </g>
   <g id="patch_11">
    <path d="M 63.4355 257.96 
L 104.1265 257.96 
L 104.1265 257.936407 
L 63.4355 257.936407 
z
" clip-path="url(#p5aeb9e1be3)" style="fill: #1f77b4"/>
   </g>
   <g id="patch_12">
    <path d="M 144.8175 257.96 
L 185.5085 257.96 
L 185.5085 257.936407 
L 144.8175 257.936407 
z
" clip-path="url(#p5aeb9e1be3)" style="fill: #1f77b4"/>
   </g>
   <g id="patch_13">
    <path d="M 226.1995 257.96 
L 266.8905 257.96 
L 266.8905 257.936407 
L 226.1995 257.936407 
z
" clip-path="url(#p5aeb9e1be3)" style="fill: #1f77b4"/>
   </g>
   <g id="patch_14">
    <path d="M 307.5815 257.96 
L 348.2725 257.96 
L 348.2725 257.889222 
L 307.5815 257.889222 
z
" clip-path="url(#p5aeb9e1be3)" style="fill: #1f77b4"/>
   </g>
   <g id="patch_15">
    <path d="M 388.9635 257.96 
L 429.6545 257.96 
L 429.6545 257.96 
L 388.9635 257.96 
z
" clip-path="url(#p5aeb9e1be3)" style="fill: #1f77b4"/>
   </g>
   <g id="patch_16">
    <path d="M 63.4355 257.96 
L 104.1265 257.96 
L 104.1265 244.653777 
L 63.4355 244.653777 
z
" clip-path="url(#p5aeb9e1be3)" style="fill: #1f77b4"/>
   </g>
   <g id="patch_17">
    <path d="M 144.8175 257.96 
L 185.5085 257.96 
L 185.5085 254.208778 
L 144.8175 254.208778 
z
" clip-path="url(#p5aeb9e1be3)" style="fill: #1f77b4"/>
   </g>
   <g id="patch_18">
    <path d="M 226.1995 257.96 
L 266.8905 257.96 
L 266.8905 254.881167 
L 226.1995 254.881167 
z
" clip-path="url(#p5aeb9e1be3)" style="fill: #1f77b4"/>
   </g>
   <g id="patch_19">
    <path d="M 307.5815 257.96 
L 348.2725 257.96 
L 348.2725 245.007666 
L 307.5815 245.007666 
z
" clip-path="url(#p5aeb9e1be3)" style="fill: #1f77b4"/>
   </g>
   <g id="patch_20">
    <path d="M 388.9635 257.96 
L 429.6545 257.96 
L 429.6545 256.296722 
L 388.9635 256.296722 
z
" clip-path="url(#p5aeb9e1be3)" style="fill: #1f77b4"/>
   </g>
   <g id="patch_21">
    <path d="M 63.4355 257.96 
L 104.1265 257.96 
L 104.1265 257.889222 
L 63.4355 257.889222 
z
" clip-path="url(#p5aeb9e1be3)" style="fill: #1f77b4"/>
   </g>
   <g id="patch_22">
    <path d="M 144.8175 257.96 
L 185.5085 257.96 
L 185.5085 257.96 
L 144.8175 257.96 
z
" clip-path="url(#p5aeb9e1be3)" style="fill: #1f77b4"/>
   </g>
   <g id="patch_23">
    <path d="M 226.1995 257.96 
L 266.8905 257.96 
L 266.8905 257.96 
L 226.1995 257.96 
z
" clip-path="url(#p5aeb9e1be3)" style="fill: #1f77b4"/>
   </g>
   <g id="patch_24">
    <path d="M 307.5815 257.96 
L 348.2725 257.96 
L 348.2725 257.96 
L 307.5815 257.96 
z
" clip-path="url(#p5aeb9e1be3)" style="fill: #1f77b4"/>
   </g>
   <g id="patch_25">
    <path d="M 63.4355 257.96 
L 104.1265 257.96 
L 104.1265 256.049 
L 63.4355 256.049 
z
" clip-path="url(#p5aeb9e1be3)" style="fill: #1f77b4"/>
   </g>
   <g id="patch_26">
    <path d="M 144.8175 257.96 
L 185.5085 257.96 
L 185.5085 257.747667 
L 144.8175 257.747667 
z
" clip-path="url(#p5aeb9e1be3)" style="fill: #1f77b4"/>
   </g>
   <g id="patch_27">
    <path d="M 226.1995 257.96 
L 266.8905 257.96 
L 266.8905 257.889222 
L 226.1995 257.889222 
z
" clip-path="url(#p5aeb9e1be3)" style="fill: #1f77b4"/>
   </g>
   <g id="patch_28">
    <path d="M 307.5815 257.96 
L 348.2725 257.96 
L 348.2725 257.889222 
L 307.5815 257.889222 
z
" clip-path="url(#p5aeb9e1be3)" style="fill: #1f77b4"/>
   </g>
   <g id="patch_29">
    <path d="M 388.9635 257.96 
L 429.6545 257.96 
L 429.6545 257.464556 
L 388.9635 257.464556 
z
" clip-path="url(#p5aeb9e1be3)" style="fill: #1f77b4"/>
   </g>
   <g id="patch_30">
    <path d="M 63.4355 257.96 
L 104.1265 257.96 
L 104.1265 257.818444 
L 63.4355 257.818444 
z
" clip-path="url(#p5aeb9e1be3)" style="fill: #1f77b4"/>
   </g>
   <g id="patch_31">
    <path d="M 144.8175 257.96 
L 185.5085 257.96 
L 185.5085 257.818444 
L 144.8175 257.818444 
z
" clip-path="url(#p5aeb9e1be3)" style="fill: #1f77b4"/>
   </g>
   <g id="patch_32">
    <path d="M 226.1995 257.96 
L 266.8905 257.96 
L 266.8905 257.818444 
L 226.1995 257.818444 
z
" clip-path="url(#p5aeb9e1be3)" style="fill: #1f77b4"/>
   </g>
   <g id="patch_33">
    <path d="M 307.5815 257.96 
L 348.2725 257.96 
L 348.2725 257.818444 
L 307.5815 257.818444 
z
" clip-path="url(#p5aeb9e1be3)" style="fill: #1f77b4"/>
   </g>
   <g id="patch_34">
    <path d="M 388.9635 257.96 
L 429.6545 257.96 
L 429.6545 257.818444 
L 388.9635 257.818444 
z
" clip-path="url(#p5aeb9e1be3)" style="fill: #1f77b4"/>
   </g>
   <g id="patch_35">
    <path d="M 63.4355 257.96 
L 104.1265 257.96 
L 104.1265 257.747667 
L 63.4355 257.747667 
z
" clip-path="url(#p5aeb9e1be3)" style="fill: #1f77b4"/>
   </g>
   <g id="patch_36">
    <path d="M 144.8175 257.96 
L 185.5085 257.96 
L 185.5085 257.783056 
L 144.8175 257.783056 
z
" clip-path="url(#p5aeb9e1be3)" style="fill: #1f77b4"/>
   </g>
   <g id="patch_37">
    <path d="M 226.1995 257.96 
L 266.8905 257.96 
L 266.8905 257.889222 
L 226.1995 257.889222 
z
" clip-path="url(#p5aeb9e1be3)" style="fill: #1f77b4"/>
   </g>
   <g id="patch_38">
    <path d="M 307.5815 257.96 
L 348.2725 257.96 
L 348.2725 257.924611 
L 307.5815 257.924611 
z
" clip-path="url(#p5aeb9e1be3)" style="fill: #1f77b4"/>
   </g>
   <g id="patch_39">
    <path d="M 388.9635 257.96 
L 429.6545 257.96 
L 429.6545 257.924611 
L 388.9635 257.924611 
z
" clip-path="url(#p5aeb9e1be3)" style="fill: #1f77b4"/>
   </g>
   <g id="patch_40">
    <path d="M 63.4355 257.96 
L 104.1265 257.96 
L 104.1265 257.747667 
L 63.4355 257.747667 
z
" clip-path="url(#p5aeb9e1be3)" style="fill: #1f77b4"/>
   </g>
   <g id="patch_41">
    <path d="M 144.8175 257.96 
L 185.5085 257.96 
L 185.5085 257.96 
L 144.8175 257.96 
z
" clip-path="url(#p5aeb9e1be3)" style="fill: #1f77b4"/>
   </g>
   <g id="patch_42">
    <path d="M 226.1995 257.96 
L 266.8905 257.96 
L 266.8905 257.96 
L 226.1995 257.96 
z
" clip-path="url(#p5aeb9e1be3)" style="fill: #1f77b4"/>
   </g>
   <g id="patch_43">
    <path d="M 63.4355 257.96 
L 104.1265 257.96 
L 104.1265 257.747667 
L 63.4355 257.747667 
z
" clip-path="url(#p5aeb9e1be3)" style="fill: #1f77b4"/>
   </g>
   <g id="patch_44">
    <path d="M 144.8175 257.96 
L 185.5085 257.96 
L 185.5085 257.889222 
L 144.8175 257.889222 
z
" clip-path="url(#p5aeb9e1be3)" style="fill: #1f77b4"/>
   </g>
   <g id="patch_45">
    <path d="M 63.4355 257.96 
L 104.1265 257.96 
L 104.1265 179.91907 
L 63.4355 179.91907 
z
" clip-path="url(#p5aeb9e1be3)" style="fill: #1f77b4"/>
   </g>
   <g id="patch_46">
    <path d="M 144.8175 257.96 
L 185.5085 257.96 
L 185.5085 201.884708 
L 144.8175 201.884708 
z
" clip-path="url(#p5aeb9e1be3)" style="fill: #1f77b4"/>
   </g>
   <g id="patch_47">
    <path d="M 226.1995 257.96 
L 266.8905 257.96 
L 266.8905 209.221278 
L 226.1995 209.221278 
z
" clip-path="url(#p5aeb9e1be3)" style="fill: #1f77b4"/>
   </g>
   <g id="patch_48">
    <path d="M 307.5815 257.96 
L 348.2725 257.96 
L 348.2725 202.079478 
L 307.5815 202.079478 
z
" clip-path="url(#p5aeb9e1be3)" style="fill: #1f77b4"/>
   </g>
   <g id="patch_49">
    <path d="M 388.9635 257.96 
L 429.6545 257.96 
L 429.6545 216.860431 
L 388.9635 216.860431 
z
" clip-path="url(#p5aeb9e1be3)" style="fill: #1f77b4"/>
   </g>
   <g id="patch_50">
    <path d="M 63.4355 257.96 
L 104.1265 257.96 
L 104.1265 257.96 
L 63.4355 257.96 
z
" clip-path="url(#p5aeb9e1be3)" style="fill: #1f77b4"/>
   </g>
   <g id="patch_51">
    <path d="M 144.8175 257.96 
L 185.5085 257.96 
L 185.5085 257.96 
L 144.8175 257.96 
z
" clip-path="url(#p5aeb9e1be3)" style="fill: #1f77b4"/>
   </g>
   <g id="patch_52">
    <path d="M 226.1995 257.96 
L 266.8905 257.96 
L 266.8905 257.96 
L 226.1995 257.96 
z
" clip-path="url(#p5aeb9e1be3)" style="fill: #1f77b4"/>
   </g>
   <g id="patch_53">
    <path d="M 307.5815 257.96 
L 348.2725 257.96 
L 348.2725 257.96 
L 307.5815 257.96 
z
" clip-path="url(#p5aeb9e1be3)" style="fill: #1f77b4"/>
   </g>
   <g id="patch_54">
    <path d="M 388.9635 257.96 
L 429.6545 257.96 
L 429.6545 257.96 
L 388.9635 257.96 
z
" clip-path="url(#p5aeb9e1be3)" style="fill: #1f77b4"/>
   </g>
   <g id="patch_55">
    <path d="M 63.4355 257.96 
L 104.1265 257.96 
L 104.1265 257.889222 
L 63.4355 257.889222 
z
" clip-path="url(#p5aeb9e1be3)" style="fill: #1f77b4"/>
   </g>
   <g id="patch_56">
    <path d="M 144.8175 257.96 
L 185.5085 257.96 
L 185.5085 257.96 
L 144.8175 257.96 
z
" clip-path="url(#p5aeb9e1be3)" style="fill: #1f77b4"/>
   </g>
   <g id="patch_57">
    <path d="M 226.1995 257.96 
L 266.8905 257.96 
L 266.8905 257.96 
L 226.1995 257.96 
z
" clip-path="url(#p5aeb9e1be3)" style="fill: #1f77b4"/>
   </g>
   <g id="patch_58">
    <path d="M 307.5815 257.96 
L 348.2725 257.96 
L 348.2725 257.96 
L 307.5815 257.96 
z
" clip-path="url(#p5aeb9e1be3)" style="fill: #1f77b4"/>
   </g>
   <g id="patch_59">
    <path d="M 388.9635 257.96 
L 429.6545 257.96 
L 429.6545 257.96 
L 388.9635 257.96 
z
" clip-path="url(#p5aeb9e1be3)" style="fill: #1f77b4"/>
   </g>
   <g id="patch_60">
    <path d="M 63.4355 257.96 
L 104.1265 257.96 
L 104.1265 257.570722 
L 63.4355 257.570722 
z
" clip-path="url(#p5aeb9e1be3)" style="fill: #1f77b4"/>
   </g>
   <g id="patch_61">
    <path d="M 144.8175 257.96 
L 185.5085 257.96 
L 185.5085 257.747667 
L 144.8175 257.747667 
z
" clip-path="url(#p5aeb9e1be3)" style="fill: #1f77b4"/>
   </g>
   <g id="patch_62">
    <path d="M 226.1995 257.96 
L 266.8905 257.96 
L 266.8905 257.924611 
L 226.1995 257.924611 
z
" clip-path="url(#p5aeb9e1be3)" style="fill: #1f77b4"/>
   </g>
   <g id="patch_63">
    <path d="M 307.5815 257.96 
L 348.2725 257.96 
L 348.2725 257.96 
L 307.5815 257.96 
z
" clip-path="url(#p5aeb9e1be3)" style="fill: #1f77b4"/>
   </g>
   <g id="patch_64">
    <path d="M 388.9635 257.96 
L 429.6545 257.96 
L 429.6545 257.96 
L 388.9635 257.96 
z
" clip-path="url(#p5aeb9e1be3)" style="fill: #1f77b4"/>
   </g>
   <g id="patch_65">
    <path d="M 63.4355 257.96 
L 104.1265 257.96 
L 104.1265 250.139055 
L 63.4355 250.139055 
z
" clip-path="url(#p5aeb9e1be3)" style="fill: #1f77b4"/>
   </g>
   <g id="patch_66">
    <path d="M 144.8175 257.96 
L 185.5085 257.96 
L 185.5085 257.252222 
L 144.8175 257.252222 
z
" clip-path="url(#p5aeb9e1be3)" style="fill: #1f77b4"/>
   </g>
   <g id="patch_67">
    <path d="M 226.1995 257.96 
L 266.8905 257.96 
L 266.8905 253.689741 
L 226.1995 253.689741 
z
" clip-path="url(#p5aeb9e1be3)" style="fill: #1f77b4"/>
   </g>
   <g id="patch_68">
    <path d="M 307.5815 257.96 
L 348.2725 257.96 
L 348.2725 252.580889 
L 307.5815 252.580889 
z
" clip-path="url(#p5aeb9e1be3)" style="fill: #1f77b4"/>
   </g>
   <g id="patch_69">
    <path d="M 388.9635 257.96 
L 429.6545 257.96 
L 429.6545 253.607167 
L 388.9635 253.607167 
z
" clip-path="url(#p5aeb9e1be3)" style="fill: #1f77b4"/>
   </g>
   <g id="patch_70">
    <path d="M 63.4355 257.96 
L 104.1265 257.96 
L 104.1265 234.405893 
L 63.4355 234.405893 
z
" clip-path="url(#p5aeb9e1be3)" style="fill: #1f77b4"/>
   </g>
   <g id="patch_71">
    <path d="M 144.8175 257.96 
L 185.5085 257.96 
L 185.5085 237.785926 
L 144.8175 237.785926 
z
" clip-path="url(#p5aeb9e1be3)" style="fill: #1f77b4"/>
   </g>
   <g id="patch_72">
    <path d="M 226.1995 257.96 
L 266.8905 257.96 
L 266.8905 208.966959 
L 226.1995 208.966959 
z
" clip-path="url(#p5aeb9e1be3)" style="fill: #1f77b4"/>
   </g>
   <g id="patch_73">
    <path d="M 307.5815 257.96 
L 348.2725 257.96 
L 348.2725 228.416177 
L 307.5815 228.416177 
z
" clip-path="url(#p5aeb9e1be3)" style="fill: #1f77b4"/>
   </g>
   <g id="patch_74">
    <path d="M 388.9635 257.96 
L 429.6545 257.96 
L 429.6545 208.644389 
L 388.9635 208.644389 
z
" clip-path="url(#p5aeb9e1be3)" style="fill: #1f77b4"/>
   </g>
   <g id="patch_75">
    <path d="M 63.4355 257.96 
L 104.1265 257.96 
L 104.1265 257.96 
L 63.4355 257.96 
z
" clip-path="url(#p5aeb9e1be3)" style="fill: #1f77b4"/>
   </g>
   <g id="patch_76">
    <path d="M 144.8175 257.96 
L 185.5085 257.96 
L 185.5085 257.96 
L 144.8175 257.96 
z
" clip-path="url(#p5aeb9e1be3)" style="fill: #1f77b4"/>
   </g>
   <g id="patch_77">
    <path d="M 63.4355 257.96 
L 104.1265 257.96 
L 104.1265 257.075278 
L 63.4355 257.075278 
z
" clip-path="url(#p5aeb9e1be3)" style="fill: #1f77b4"/>
   </g>
   <g id="patch_78">
    <path d="M 144.8175 257.96 
L 185.5085 257.96 
L 185.5085 257.252222 
L 144.8175 257.252222 
z
" clip-path="url(#p5aeb9e1be3)" style="fill: #1f77b4"/>
   </g>
   <g id="patch_79">
    <path d="M 226.1995 257.96 
L 266.8905 257.96 
L 266.8905 257.535333 
L 226.1995 257.535333 
z
" clip-path="url(#p5aeb9e1be3)" style="fill: #1f77b4"/>
   </g>
   <g id="patch_80">
    <path d="M 307.5815 257.96 
L 348.2725 257.96 
L 348.2725 257.889222 
L 307.5815 257.889222 
z
" clip-path="url(#p5aeb9e1be3)" style="fill: #1f77b4"/>
   </g>
   <g id="patch_81">
    <path d="M 388.9635 257.96 
L 429.6545 257.96 
L 429.6545 257.818444 
L 388.9635 257.818444 
z
" clip-path="url(#p5aeb9e1be3)" style="fill: #1f77b4"/>
   </g>
   <g id="patch_82">
    <path d="M 63.4355 257.96 
L 104.1265 257.96 
L 104.1265 257.747667 
L 63.4355 257.747667 
z
" clip-path="url(#p5aeb9e1be3)" style="fill: #1f77b4"/>
   </g>
   <g id="patch_83">
    <path d="M 144.8175 257.96 
L 185.5085 257.96 
L 185.5085 257.747667 
L 144.8175 257.747667 
z
" clip-path="url(#p5aeb9e1be3)" style="fill: #1f77b4"/>
   </g>
   <g id="patch_84">
    <path d="M 226.1995 257.96 
L 266.8905 257.96 
L 266.8905 257.889222 
L 226.1995 257.889222 
z
" clip-path="url(#p5aeb9e1be3)" style="fill: #1f77b4"/>
   </g>
   <g id="patch_85">
    <path d="M 307.5815 257.96 
L 348.2725 257.96 
L 348.2725 257.96 
L 307.5815 257.96 
z
" clip-path="url(#p5aeb9e1be3)" style="fill: #1f77b4"/>
   </g>
   <g id="patch_86">
    <path d="M 388.9635 257.96 
L 429.6545 257.96 
L 429.6545 257.96 
L 388.9635 257.96 
z
" clip-path="url(#p5aeb9e1be3)" style="fill: #1f77b4"/>
   </g>
   <g id="patch_87">
    <path d="M 63.4355 257.96 
L 104.1265 257.96 
L 104.1265 256.473667 
L 63.4355 256.473667 
z
" clip-path="url(#p5aeb9e1be3)" style="fill: #1f77b4"/>
   </g>
   <g id="patch_88">
    <path d="M 144.8175 257.96 
L 185.5085 257.96 
L 185.5085 257.924611 
L 144.8175 257.924611 
z
" clip-path="url(#p5aeb9e1be3)" style="fill: #1f77b4"/>
   </g>
   <g id="patch_89">
    <path d="M 226.1995 257.96 
L 266.8905 257.96 
L 266.8905 257.924611 
L 226.1995 257.924611 
z
" clip-path="url(#p5aeb9e1be3)" style="fill: #1f77b4"/>
   </g>
   <g id="patch_90">
    <path d="M 307.5815 257.96 
L 348.2725 257.96 
L 348.2725 257.924611 
L 307.5815 257.924611 
z
" clip-path="url(#p5aeb9e1be3)" style="fill: #1f77b4"/>
   </g>
   <g id="patch_91">
    <path d="M 388.9635 257.96 
L 429.6545 257.96 
L 429.6545 257.924611 
L 388.9635 257.924611 
z
" clip-path="url(#p5aeb9e1be3)" style="fill: #1f77b4"/>
   </g>
   <g id="patch_92">
    <path d="M 63.4355 257.96 
L 104.1265 257.96 
L 104.1265 257.96 
L 63.4355 257.96 
z
" clip-path="url(#p5aeb9e1be3)" style="fill: #1f77b4"/>
   </g>
   <g id="patch_93">
    <path d="M 63.4355 257.96 
L 104.1265 257.96 
L 104.1265 257.606111 
L 63.4355 257.606111 
z
" clip-path="url(#p5aeb9e1be3)" style="fill: #1f77b4"/>
   </g>
   <g id="patch_94">
    <path d="M 144.8175 257.96 
L 185.5085 257.96 
L 185.5085 257.606111 
L 144.8175 257.606111 
z
" clip-path="url(#p5aeb9e1be3)" style="fill: #1f77b4"/>
   </g>
   <g id="patch_95">
    <path d="M 226.1995 257.96 
L 266.8905 257.96 
L 266.8905 257.889222 
L 226.1995 257.889222 
z
" clip-path="url(#p5aeb9e1be3)" style="fill: #1f77b4"/>
   </g>
   <g id="patch_96">
    <path d="M 63.4355 257.96 
L 104.1265 257.96 
L 104.1265 256.473667 
L 63.4355 256.473667 
z
" clip-path="url(#p5aeb9e1be3)" style="fill: #1f77b4"/>
   </g>
   <g id="patch_97">
    <path d="M 144.8175 257.96 
L 185.5085 257.96 
L 185.5085 257.889222 
L 144.8175 257.889222 
z
" clip-path="url(#p5aeb9e1be3)" style="fill: #1f77b4"/>
   </g>
   <g id="patch_98">
    <path d="M 226.1995 257.96 
L 266.8905 257.96 
L 266.8905 257.889222 
L 226.1995 257.889222 
z
" clip-path="url(#p5aeb9e1be3)" style="fill: #1f77b4"/>
   </g>
   <g id="patch_99">
    <path d="M 307.5815 257.96 
L 348.2725 257.96 
L 348.2725 257.96 
L 307.5815 257.96 
z
" clip-path="url(#p5aeb9e1be3)" style="fill: #1f77b4"/>
   </g>
   <g id="patch_100">
    <path d="M 388.9635 257.96 
L 429.6545 257.96 
L 429.6545 257.96 
L 388.9635 257.96 
z
" clip-path="url(#p5aeb9e1be3)" style="fill: #1f77b4"/>
   </g>
   <g id="patch_101">
    <path d="M 63.4355 257.96 
L 104.1265 257.96 
L 104.1265 257.96 
L 63.4355 257.96 
z
" clip-path="url(#p5aeb9e1be3)" style="fill: #1f77b4"/>
   </g>
   <g id="patch_102">
    <path d="M 63.4355 257.96 
L 104.1265 257.96 
L 104.1265 177.94998 
L 63.4355 177.94998 
z
" clip-path="url(#p5aeb9e1be3)" style="fill: #1f77b4"/>
   </g>
   <g id="patch_103">
    <path d="M 144.8175 257.96 
L 185.5085 257.96 
L 185.5085 195.55492 
L 144.8175 195.55492 
z
" clip-path="url(#p5aeb9e1be3)" style="fill: #1f77b4"/>
   </g>
   <g id="patch_104">
    <path d="M 226.1995 257.96 
L 266.8905 257.96 
L 266.8905 207.461214 
L 226.1995 207.461214 
z
" clip-path="url(#p5aeb9e1be3)" style="fill: #1f77b4"/>
   </g>
   <g id="patch_105">
    <path d="M 307.5815 257.96 
L 348.2725 257.96 
L 348.2725 216.637056 
L 307.5815 216.637056 
z
" clip-path="url(#p5aeb9e1be3)" style="fill: #1f77b4"/>
   </g>
   <g id="patch_106">
    <path d="M 388.9635 257.96 
L 429.6545 257.96 
L 429.6545 223.182322 
L 388.9635 223.182322 
z
" clip-path="url(#p5aeb9e1be3)" style="fill: #1f77b4"/>
   </g>
   <g id="patch_107">
    <path d="M 63.4355 257.96 
L 104.1265 257.96 
L 104.1265 257.606111 
L 63.4355 257.606111 
z
" clip-path="url(#p5aeb9e1be3)" style="fill: #1f77b4"/>
   </g>
   <g id="patch_108">
    <path d="M 144.8175 257.96 
L 185.5085 257.96 
L 185.5085 257.606111 
L 144.8175 257.606111 
z
" clip-path="url(#p5aeb9e1be3)" style="fill: #1f77b4"/>
   </g>
   <g id="patch_109">
    <path d="M 226.1995 257.96 
L 266.8905 257.96 
L 266.8905 257.606111 
L 226.1995 257.606111 
z
" clip-path="url(#p5aeb9e1be3)" style="fill: #1f77b4"/>
   </g>
   <g id="patch_110">
    <path d="M 307.5815 257.96 
L 348.2725 257.96 
L 348.2725 257.924611 
L 307.5815 257.924611 
z
" clip-path="url(#p5aeb9e1be3)" style="fill: #1f77b4"/>
   </g>
   <g id="patch_111">
    <path d="M 388.9635 257.96 
L 429.6545 257.96 
L 429.6545 257.924611 
L 388.9635 257.924611 
z
" clip-path="url(#p5aeb9e1be3)" style="fill: #1f77b4"/>
   </g>
   <g id="patch_112">
    <path d="M 63.4355 257.96 
L 104.1265 257.96 
L 104.1265 216.169452 
L 63.4355 216.169452 
z
" clip-path="url(#p5aeb9e1be3)" style="fill: #1f77b4"/>
   </g>
   <g id="patch_113">
    <path d="M 144.8175 257.96 
L 185.5085 257.96 
L 185.5085 216.25092 
L 144.8175 216.25092 
z
" clip-path="url(#p5aeb9e1be3)" style="fill: #1f77b4"/>
   </g>
   <g id="patch_114">
    <path d="M 226.1995 257.96 
L 266.8905 257.96 
L 266.8905 230.501315 
L 226.1995 230.501315 
z
" clip-path="url(#p5aeb9e1be3)" style="fill: #1f77b4"/>
   </g>
   <g id="patch_115">
    <path d="M 307.5815 257.96 
L 348.2725 257.96 
L 348.2725 229.266639 
L 307.5815 229.266639 
z
" clip-path="url(#p5aeb9e1be3)" style="fill: #1f77b4"/>
   </g>
   <g id="patch_116">
    <path d="M 388.9635 257.96 
L 429.6545 257.96 
L 429.6545 215.869982 
L 388.9635 215.869982 
z
" clip-path="url(#p5aeb9e1be3)" style="fill: #1f77b4"/>
   </g>
   <g id="patch_117">
    <path d="M 63.4355 257.96 
L 104.1265 257.96 
L 104.1265 257.535333 
L 63.4355 257.535333 
z
" clip-path="url(#p5aeb9e1be3)" style="fill: #1f77b4"/>
   </g>
   <g id="patch_118">
    <path d="M 144.8175 257.96 
L 185.5085 257.96 
L 185.5085 257.606111 
L 144.8175 257.606111 
z
" clip-path="url(#p5aeb9e1be3)" style="fill: #1f77b4"/>
   </g>
   <g id="patch_119">
    <path d="M 226.1995 257.96 
L 266.8905 257.96 
L 266.8905 257.747667 
L 226.1995 257.747667 
z
" clip-path="url(#p5aeb9e1be3)" style="fill: #1f77b4"/>
   </g>
   <g id="patch_120">
    <path d="M 307.5815 257.96 
L 348.2725 257.96 
L 348.2725 257.818444 
L 307.5815 257.818444 
z
" clip-path="url(#p5aeb9e1be3)" style="fill: #1f77b4"/>
   </g>
   <g id="patch_121">
    <path d="M 388.9635 257.96 
L 429.6545 257.96 
L 429.6545 257.924611 
L 388.9635 257.924611 
z
" clip-path="url(#p5aeb9e1be3)" style="fill: #1f77b4"/>
   </g>
   <g id="patch_122">
    <path d="M 63.4355 257.96 
L 104.1265 257.96 
L 104.1265 257.747667 
L 63.4355 257.747667 
z
" clip-path="url(#p5aeb9e1be3)" style="fill: #1f77b4"/>
   </g>
   <g id="patch_123">
    <path d="M 144.8175 257.96 
L 185.5085 257.96 
L 185.5085 257.924611 
L 144.8175 257.924611 
z
" clip-path="url(#p5aeb9e1be3)" style="fill: #1f77b4"/>
   </g>
   <g id="patch_124">
    <path d="M 226.1995 257.96 
L 266.8905 257.96 
L 266.8905 257.924611 
L 226.1995 257.924611 
z
" clip-path="url(#p5aeb9e1be3)" style="fill: #1f77b4"/>
   </g>
   <g id="patch_125">
    <path d="M 307.5815 257.96 
L 348.2725 257.96 
L 348.2725 257.889222 
L 307.5815 257.889222 
z
" clip-path="url(#p5aeb9e1be3)" style="fill: #1f77b4"/>
   </g>
   <g id="patch_126">
    <path d="M 388.9635 257.96 
L 429.6545 257.96 
L 429.6545 257.96 
L 388.9635 257.96 
z
" clip-path="url(#p5aeb9e1be3)" style="fill: #1f77b4"/>
   </g>
   <g id="patch_127">
    <path d="M 63.4355 257.96 
L 104.1265 257.96 
L 104.1265 257.747667 
L 63.4355 257.747667 
z
" clip-path="url(#p5aeb9e1be3)" style="fill: #1f77b4"/>
   </g>
   <g id="patch_128">
    <path d="M 144.8175 257.96 
L 185.5085 257.96 
L 185.5085 257.889222 
L 144.8175 257.889222 
z
" clip-path="url(#p5aeb9e1be3)" style="fill: #1f77b4"/>
   </g>
   <g id="patch_129">
    <path d="M 226.1995 257.96 
L 266.8905 257.96 
L 266.8905 257.96 
L 226.1995 257.96 
z
" clip-path="url(#p5aeb9e1be3)" style="fill: #1f77b4"/>
   </g>
   <g id="patch_130">
    <path d="M 307.5815 257.96 
L 348.2725 257.96 
L 348.2725 257.96 
L 307.5815 257.96 
z
" clip-path="url(#p5aeb9e1be3)" style="fill: #1f77b4"/>
   </g>
   <g id="patch_131">
    <path d="M 388.9635 257.96 
L 429.6545 257.96 
L 429.6545 257.96 
L 388.9635 257.96 
z
" clip-path="url(#p5aeb9e1be3)" style="fill: #1f77b4"/>
   </g>
   <g id="patch_132">
    <path d="M 63.4355 257.96 
L 104.1265 257.96 
L 104.1265 256.092646 
L 63.4355 256.092646 
z
" clip-path="url(#p5aeb9e1be3)" style="fill: #1f77b4"/>
   </g>
   <g id="patch_133">
    <path d="M 144.8175 257.96 
L 185.5085 257.96 
L 185.5085 257.535333 
L 144.8175 257.535333 
z
" clip-path="url(#p5aeb9e1be3)" style="fill: #1f77b4"/>
   </g>
   <g id="patch_134">
    <path d="M 226.1995 257.96 
L 266.8905 257.96 
L 266.8905 256.952596 
L 226.1995 256.952596 
z
" clip-path="url(#p5aeb9e1be3)" style="fill: #1f77b4"/>
   </g>
   <g id="patch_135">
    <path d="M 307.5815 257.96 
L 348.2725 257.96 
L 348.2725 256.952596 
L 307.5815 256.952596 
z
" clip-path="url(#p5aeb9e1be3)" style="fill: #1f77b4"/>
   </g>
   <g id="patch_136">
    <path d="M 388.9635 257.96 
L 429.6545 257.96 
L 429.6545 256.952596 
L 388.9635 256.952596 
z
" clip-path="url(#p5aeb9e1be3)" style="fill: #1f77b4"/>
   </g>
   <g id="patch_137">
    <path d="M 63.4355 257.96 
L 104.1265 257.96 
L 104.1265 243.52094 
L 63.4355 243.52094 
z
" clip-path="url(#p5aeb9e1be3)" style="fill: #1f77b4"/>
   </g>
   <g id="patch_138">
    <path d="M 144.8175 257.96 
L 185.5085 257.96 
L 185.5085 246.233301 
L 144.8175 246.233301 
z
" clip-path="url(#p5aeb9e1be3)" style="fill: #1f77b4"/>
   </g>
   <g id="patch_139">
    <path d="M 226.1995 257.96 
L 266.8905 257.96 
L 266.8905 255.966426 
L 226.1995 255.966426 
z
" clip-path="url(#p5aeb9e1be3)" style="fill: #1f77b4"/>
   </g>
   <g id="patch_140">
    <path d="M 307.5815 257.96 
L 348.2725 257.96 
L 348.2725 257.694583 
L 307.5815 257.694583 
z
" clip-path="url(#p5aeb9e1be3)" style="fill: #1f77b4"/>
   </g>
   <g id="patch_141">
    <path d="M 388.9635 257.96 
L 429.6545 257.96 
L 429.6545 257.694583 
L 388.9635 257.694583 
z
" clip-path="url(#p5aeb9e1be3)" style="fill: #1f77b4"/>
   </g>
   <g id="patch_142">
    <path d="M 63.4355 257.96 
L 104.1265 257.96 
L 104.1265 256.385194 
L 63.4355 256.385194 
z
" clip-path="url(#p5aeb9e1be3)" style="fill: #1f77b4"/>
   </g>
   <g id="patch_143">
    <path d="M 144.8175 257.96 
L 185.5085 257.96 
L 185.5085 256.933722 
L 144.8175 256.933722 
z
" clip-path="url(#p5aeb9e1be3)" style="fill: #1f77b4"/>
   </g>
   <g id="patch_144">
    <path d="M 226.1995 257.96 
L 266.8905 257.96 
L 266.8905 257.747667 
L 226.1995 257.747667 
z
" clip-path="url(#p5aeb9e1be3)" style="fill: #1f77b4"/>
   </g>
   <g id="patch_145">
    <path d="M 307.5815 257.96 
L 348.2725 257.96 
L 348.2725 257.804289 
L 307.5815 257.804289 
z
" clip-path="url(#p5aeb9e1be3)" style="fill: #1f77b4"/>
   </g>
   <g id="patch_146">
    <path d="M 388.9635 257.96 
L 429.6545 257.96 
L 429.6545 257.606111 
L 388.9635 257.606111 
z
" clip-path="url(#p5aeb9e1be3)" style="fill: #1f77b4"/>
   </g>
   <g id="patch_147">
    <path d="M 63.4355 257.96 
L 104.1265 257.96 
L 104.1265 257.81058 
L 63.4355 257.81058 
z
" clip-path="url(#p5aeb9e1be3)" style="fill: #1f77b4"/>
   </g>
   <g id="patch_148">
    <path d="M 144.8175 257.96 
L 185.5085 257.96 
L 185.5085 257.924611 
L 144.8175 257.924611 
z
" clip-path="url(#p5aeb9e1be3)" style="fill: #1f77b4"/>
   </g>
   <g id="patch_149">
    <path d="M 226.1995 257.96 
L 266.8905 257.96 
L 266.8905 257.924611 
L 226.1995 257.924611 
z
" clip-path="url(#p5aeb9e1be3)" style="fill: #1f77b4"/>
   </g>
   <g id="patch_150">
    <path d="M 307.5815 257.96 
L 348.2725 257.96 
L 348.2725 257.952136 
L 307.5815 257.952136 
z
" clip-path="url(#p5aeb9e1be3)" style="fill: #1f77b4"/>
   </g>
   <g id="patch_151">
    <path d="M 388.9635 257.96 
L 429.6545 257.96 
L 429.6545 257.952136 
L 388.9635 257.952136 
z
" clip-path="url(#p5aeb9e1be3)" style="fill: #1f77b4"/>
   </g>
   <g id="patch_152">
    <path d="M 63.4355 257.96 
L 104.1265 257.96 
L 104.1265 257.653296 
L 63.4355 257.653296 
z
" clip-path="url(#p5aeb9e1be3)" style="fill: #1f77b4"/>
   </g>
   <g id="patch_153">
    <path d="M 144.8175 257.96 
L 185.5085 257.96 
L 185.5085 257.794852 
L 144.8175 257.794852 
z
" clip-path="url(#p5aeb9e1be3)" style="fill: #1f77b4"/>
   </g>
   <g id="patch_154">
    <path d="M 226.1995 257.96 
L 266.8905 257.96 
L 266.8905 257.747667 
L 226.1995 257.747667 
z
" clip-path="url(#p5aeb9e1be3)" style="fill: #1f77b4"/>
   </g>
   <g id="patch_155">
    <path d="M 307.5815 257.96 
L 348.2725 257.96 
L 348.2725 257.676889 
L 307.5815 257.676889 
z
" clip-path="url(#p5aeb9e1be3)" style="fill: #1f77b4"/>
   </g>
   <g id="patch_156">
    <path d="M 388.9635 257.96 
L 429.6545 257.96 
L 429.6545 257.889222 
L 388.9635 257.889222 
z
" clip-path="url(#p5aeb9e1be3)" style="fill: #1f77b4"/>
   </g>
   <g id="patch_157">
    <path d="M 63.4355 257.96 
L 104.1265 257.96 
L 104.1265 257.96 
L 63.4355 257.96 
z
" clip-path="url(#p5aeb9e1be3)" style="fill: #1f77b4"/>
   </g>
   <g id="patch_158">
    <path d="M 144.8175 257.96 
L 185.5085 257.96 
L 185.5085 257.96 
L 144.8175 257.96 
z
" clip-path="url(#p5aeb9e1be3)" style="fill: #1f77b4"/>
   </g>
   <g id="patch_159">
    <path d="M 226.1995 257.96 
L 266.8905 257.96 
L 266.8905 257.96 
L 226.1995 257.96 
z
" clip-path="url(#p5aeb9e1be3)" style="fill: #1f77b4"/>
   </g>
   <g id="patch_160">
    <path d="M 307.5815 257.96 
L 348.2725 257.96 
L 348.2725 257.96 
L 307.5815 257.96 
z
" clip-path="url(#p5aeb9e1be3)" style="fill: #1f77b4"/>
   </g>
   <g id="patch_161">
    <path d="M 63.4355 257.96 
L 104.1265 257.96 
L 104.1265 257.96 
L 63.4355 257.96 
z
" clip-path="url(#p5aeb9e1be3)" style="fill: #1f77b4"/>
   </g>
   <g id="patch_162">
    <path d="M 144.8175 257.96 
L 185.5085 257.96 
L 185.5085 257.96 
L 144.8175 257.96 
z
" clip-path="url(#p5aeb9e1be3)" style="fill: #1f77b4"/>
   </g>
   <g id="patch_163">
    <path d="M 226.1995 257.96 
L 266.8905 257.96 
L 266.8905 257.96 
L 226.1995 257.96 
z
" clip-path="url(#p5aeb9e1be3)" style="fill: #1f77b4"/>
   </g>
   <g id="patch_164">
    <path d="M 63.4355 257.96 
L 104.1265 257.96 
L 104.1265 257.96 
L 63.4355 257.96 
z
" clip-path="url(#p5aeb9e1be3)" style="fill: #1f77b4"/>
   </g>
   <g id="patch_165">
    <path d="M 144.8175 257.96 
L 185.5085 257.96 
L 185.5085 257.96 
L 144.8175 257.96 
z
" clip-path="url(#p5aeb9e1be3)" style="fill: #1f77b4"/>
   </g>
   <g id="patch_166">
    <path d="M 226.1995 257.96 
L 266.8905 257.96 
L 266.8905 257.96 
L 226.1995 257.96 
z
" clip-path="url(#p5aeb9e1be3)" style="fill: #1f77b4"/>
   </g>
   <g id="patch_167">
    <path d="M 307.5815 257.96 
L 348.2725 257.96 
L 348.2725 257.96 
L 307.5815 257.96 
z
" clip-path="url(#p5aeb9e1be3)" style="fill: #1f77b4"/>
   </g>
   <g id="patch_168">
    <path d="M 63.4355 257.96 
L 104.1265 257.96 
L 104.1265 257.96 
L 63.4355 257.96 
z
" clip-path="url(#p5aeb9e1be3)" style="fill: #1f77b4"/>
   </g>
   <g id="patch_169">
    <path d="M 144.8175 257.96 
L 185.5085 257.96 
L 185.5085 257.96 
L 144.8175 257.96 
z
" clip-path="url(#p5aeb9e1be3)" style="fill: #1f77b4"/>
   </g>
   <g id="patch_170">
    <path d="M 63.4355 257.96 
L 104.1265 257.96 
L 104.1265 22.569524 
L 63.4355 22.569524 
z
" clip-path="url(#p5aeb9e1be3)" style="fill: #1f77b4"/>
   </g>
   <g id="patch_171">
    <path d="M 144.8175 257.96 
L 185.5085 257.96 
L 185.5085 107.997163 
L 144.8175 107.997163 
z
" clip-path="url(#p5aeb9e1be3)" style="fill: #1f77b4"/>
   </g>
   <g id="patch_172">
    <path d="M 226.1995 257.96 
L 266.8905 257.96 
L 266.8905 146.427298 
L 226.1995 146.427298 
z
" clip-path="url(#p5aeb9e1be3)" style="fill: #1f77b4"/>
   </g>
   <g id="patch_173">
    <path d="M 307.5815 257.96 
L 348.2725 257.96 
L 348.2725 137.326076 
L 307.5815 137.326076 
z
" clip-path="url(#p5aeb9e1be3)" style="fill: #1f77b4"/>
   </g>
   <g id="patch_174">
    <path d="M 388.9635 257.96 
L 429.6545 257.96 
L 429.6545 161.254884 
L 388.9635 161.254884 
z
" clip-path="url(#p5aeb9e1be3)" style="fill: #1f77b4"/>
   </g>
   <g id="patch_175">
    <path d="M 63.4355 257.96 
L 104.1265 257.96 
L 104.1265 257.588417 
L 63.4355 257.588417 
z
" clip-path="url(#p5aeb9e1be3)" style="fill: #1f77b4"/>
   </g>
   <g id="patch_176">
    <path d="M 144.8175 257.96 
L 185.5085 257.96 
L 185.5085 257.889222 
L 144.8175 257.889222 
z
" clip-path="url(#p5aeb9e1be3)" style="fill: #1f77b4"/>
   </g>
   <g id="patch_177">
    <path d="M 226.1995 257.96 
L 266.8905 257.96 
L 266.8905 257.889222 
L 226.1995 257.889222 
z
" clip-path="url(#p5aeb9e1be3)" style="fill: #1f77b4"/>
   </g>
   <g id="patch_178">
    <path d="M 307.5815 257.96 
L 348.2725 257.96 
L 348.2725 257.889222 
L 307.5815 257.889222 
z
" clip-path="url(#p5aeb9e1be3)" style="fill: #1f77b4"/>
   </g>
   <g id="patch_179">
    <path d="M 388.9635 257.96 
L 429.6545 257.96 
L 429.6545 257.853833 
L 388.9635 257.853833 
z
" clip-path="url(#p5aeb9e1be3)" style="fill: #1f77b4"/>
   </g>
   <g id="patch_180">
    <path d="M 63.4355 257.96 
L 104.1265 257.96 
L 104.1265 45.298229 
L 63.4355 45.298229 
z
" clip-path="url(#p5aeb9e1be3)" style="fill: #1f77b4"/>
   </g>
   <g id="patch_181">
    <path d="M 144.8175 257.96 
L 185.5085 257.96 
L 185.5085 148.414601 
L 144.8175 148.414601 
z
" clip-path="url(#p5aeb9e1be3)" style="fill: #1f77b4"/>
   </g>
   <g id="patch_182">
    <path d="M 226.1995 257.96 
L 266.8905 257.96 
L 266.8905 180.158643 
L 226.1995 180.158643 
z
" clip-path="url(#p5aeb9e1be3)" style="fill: #1f77b4"/>
   </g>
   <g id="patch_183">
    <path d="M 307.5815 257.96 
L 348.2725 257.96 
L 348.2725 168.716107 
L 307.5815 168.716107 
z
" clip-path="url(#p5aeb9e1be3)" style="fill: #1f77b4"/>
   </g>
   <g id="patch_184">
    <path d="M 388.9635 257.96 
L 429.6545 257.96 
L 429.6545 197.339479 
L 388.9635 197.339479 
z
" clip-path="url(#p5aeb9e1be3)" style="fill: #1f77b4"/>
   </g>
   <g id="patch_185">
    <path d="M 63.4355 257.96 
L 104.1265 257.96 
L 104.1265 253.91387 
L 63.4355 253.91387 
z
" clip-path="url(#p5aeb9e1be3)" style="fill: #1f77b4"/>
   </g>
   <g id="patch_186">
    <path d="M 144.8175 257.96 
L 185.5085 257.96 
L 185.5085 254.598055 
L 144.8175 254.598055 
z
" clip-path="url(#p5aeb9e1be3)" style="fill: #1f77b4"/>
   </g>
   <g id="patch_187">
    <path d="M 226.1995 257.96 
L 266.8905 257.96 
L 266.8905 257.488148 
L 226.1995 257.488148 
z
" clip-path="url(#p5aeb9e1be3)" style="fill: #1f77b4"/>
   </g>
   <g id="patch_188">
    <path d="M 307.5815 257.96 
L 348.2725 257.96 
L 348.2725 257.488148 
L 307.5815 257.488148 
z
" clip-path="url(#p5aeb9e1be3)" style="fill: #1f77b4"/>
   </g>
   <g id="patch_189">
    <path d="M 388.9635 257.96 
L 429.6545 257.96 
L 429.6545 257.634422 
L 388.9635 257.634422 
z
" clip-path="url(#p5aeb9e1be3)" style="fill: #1f77b4"/>
   </g>
   <g id="patch_190">
    <path d="M 63.4355 257.96 
L 104.1265 257.96 
L 104.1265 224.582379 
L 63.4355 224.582379 
z
" clip-path="url(#p5aeb9e1be3)" style="fill: #1f77b4"/>
   </g>
   <g id="patch_191">
    <path d="M 144.8175 257.96 
L 185.5085 257.96 
L 185.5085 246.777111 
L 144.8175 246.777111 
z
" clip-path="url(#p5aeb9e1be3)" style="fill: #1f77b4"/>
   </g>
   <g id="patch_192">
    <path d="M 226.1995 257.96 
L 266.8905 257.96 
L 266.8905 252.368555 
L 226.1995 252.368555 
z
" clip-path="url(#p5aeb9e1be3)" style="fill: #1f77b4"/>
   </g>
   <g id="patch_193">
    <path d="M 307.5815 257.96 
L 348.2725 257.96 
L 348.2725 252.368555 
L 307.5815 252.368555 
z
" clip-path="url(#p5aeb9e1be3)" style="fill: #1f77b4"/>
   </g>
   <g id="patch_194">
    <path d="M 388.9635 257.96 
L 429.6545 257.96 
L 429.6545 250.606189 
L 388.9635 250.606189 
z
" clip-path="url(#p5aeb9e1be3)" style="fill: #1f77b4"/>
   </g>
   <g id="patch_195">
    <path d="M 63.4355 257.96 
L 104.1265 257.96 
L 104.1265 257.783056 
L 63.4355 257.783056 
z
" clip-path="url(#p5aeb9e1be3)" style="fill: #1f77b4"/>
   </g>
   <g id="patch_196">
    <path d="M 144.8175 257.96 
L 185.5085 257.96 
L 185.5085 257.783056 
L 144.8175 257.783056 
z
" clip-path="url(#p5aeb9e1be3)" style="fill: #1f77b4"/>
   </g>
   <g id="patch_197">
    <path d="M 226.1995 257.96 
L 266.8905 257.96 
L 266.8905 257.783056 
L 226.1995 257.783056 
z
" clip-path="url(#p5aeb9e1be3)" style="fill: #1f77b4"/>
   </g>
   <g id="patch_198">
    <path d="M 307.5815 257.96 
L 348.2725 257.96 
L 348.2725 257.783056 
L 307.5815 257.783056 
z
" clip-path="url(#p5aeb9e1be3)" style="fill: #1f77b4"/>
   </g>
   <g id="patch_199">
    <path d="M 388.9635 257.96 
L 429.6545 257.96 
L 429.6545 257.783056 
L 388.9635 257.783056 
z
" clip-path="url(#p5aeb9e1be3)" style="fill: #1f77b4"/>
   </g>
   <g id="patch_200">
    <path d="M 63.4355 257.96 
L 104.1265 257.96 
L 104.1265 257.818444 
L 63.4355 257.818444 
z
" clip-path="url(#p5aeb9e1be3)" style="fill: #1f77b4"/>
   </g>
   <g id="patch_201">
    <path d="M 144.8175 257.96 
L 185.5085 257.96 
L 185.5085 257.818444 
L 144.8175 257.818444 
z
" clip-path="url(#p5aeb9e1be3)" style="fill: #1f77b4"/>
   </g>
   <g id="patch_202">
    <path d="M 226.1995 257.96 
L 266.8905 257.96 
L 266.8905 257.818444 
L 226.1995 257.818444 
z
" clip-path="url(#p5aeb9e1be3)" style="fill: #1f77b4"/>
   </g>
   <g id="patch_203">
    <path d="M 307.5815 257.96 
L 348.2725 257.96 
L 348.2725 257.942306 
L 307.5815 257.942306 
z
" clip-path="url(#p5aeb9e1be3)" style="fill: #1f77b4"/>
   </g>
   <g id="patch_204">
    <path d="M 388.9635 257.96 
L 429.6545 257.96 
L 429.6545 257.942306 
L 388.9635 257.942306 
z
" clip-path="url(#p5aeb9e1be3)" style="fill: #1f77b4"/>
   </g>
   <g id="patch_205">
    <path d="M 63.4355 257.96 
L 104.1265 257.96 
L 104.1265 218.570552 
L 63.4355 218.570552 
z
" clip-path="url(#p5aeb9e1be3)" style="fill: #1f77b4"/>
   </g>
   <g id="patch_206">
    <path d="M 144.8175 257.96 
L 185.5085 257.96 
L 185.5085 217.129205 
L 144.8175 217.129205 
z
" clip-path="url(#p5aeb9e1be3)" style="fill: #1f77b4"/>
   </g>
   <g id="patch_207">
    <path d="M 226.1995 257.96 
L 266.8905 257.96 
L 266.8905 243.220527 
L 226.1995 243.220527 
z
" clip-path="url(#p5aeb9e1be3)" style="fill: #1f77b4"/>
   </g>
   <g id="patch_208">
    <path d="M 307.5815 257.96 
L 348.2725 257.96 
L 348.2725 243.220527 
L 307.5815 243.220527 
z
" clip-path="url(#p5aeb9e1be3)" style="fill: #1f77b4"/>
   </g>
   <g id="patch_209">
    <path d="M 388.9635 257.96 
L 429.6545 257.96 
L 429.6545 218.081013 
L 388.9635 218.081013 
z
" clip-path="url(#p5aeb9e1be3)" style="fill: #1f77b4"/>
   </g>
   <g id="patch_210">
    <path d="M 63.4355 257.96 
L 104.1265 257.96 
L 104.1265 257.853833 
L 63.4355 257.853833 
z
" clip-path="url(#p5aeb9e1be3)" style="fill: #1f77b4"/>
   </g>
   <g id="patch_211">
    <path d="M 144.8175 257.96 
L 185.5085 257.96 
L 185.5085 257.853833 
L 144.8175 257.853833 
z
" clip-path="url(#p5aeb9e1be3)" style="fill: #1f77b4"/>
   </g>
   <g id="patch_212">
    <path d="M 226.1995 257.96 
L 266.8905 257.96 
L 266.8905 257.96 
L 226.1995 257.96 
z
" clip-path="url(#p5aeb9e1be3)" style="fill: #1f77b4"/>
   </g>
   <g id="patch_213">
    <path d="M 307.5815 257.96 
L 348.2725 257.96 
L 348.2725 257.96 
L 307.5815 257.96 
z
" clip-path="url(#p5aeb9e1be3)" style="fill: #1f77b4"/>
   </g>
   <g id="patch_214">
    <path d="M 388.9635 257.96 
L 429.6545 257.96 
L 429.6545 257.96 
L 388.9635 257.96 
z
" clip-path="url(#p5aeb9e1be3)" style="fill: #1f77b4"/>
   </g>
   <g id="patch_215">
    <path d="M 63.4355 257.96 
L 104.1265 257.96 
L 104.1265 234.524353 
L 63.4355 234.524353 
z
" clip-path="url(#p5aeb9e1be3)" style="fill: #1f77b4"/>
   </g>
   <g id="patch_216">
    <path d="M 144.8175 257.96 
L 185.5085 257.96 
L 185.5085 240.50118 
L 144.8175 240.50118 
z
" clip-path="url(#p5aeb9e1be3)" style="fill: #1f77b4"/>
   </g>
   <g id="patch_217">
    <path d="M 226.1995 257.96 
L 266.8905 257.96 
L 266.8905 244.987113 
L 226.1995 244.987113 
z
" clip-path="url(#p5aeb9e1be3)" style="fill: #1f77b4"/>
   </g>
   <g id="patch_218">
    <path d="M 307.5815 257.96 
L 348.2725 257.96 
L 348.2725 238.300297 
L 307.5815 238.300297 
z
" clip-path="url(#p5aeb9e1be3)" style="fill: #1f77b4"/>
   </g>
   <g id="patch_219">
    <path d="M 388.9635 257.96 
L 429.6545 257.96 
L 429.6545 253.032467 
L 388.9635 253.032467 
z
" clip-path="url(#p5aeb9e1be3)" style="fill: #1f77b4"/>
   </g>
   <g id="patch_220">
    <path d="M 63.4355 257.96 
L 104.1265 257.96 
L 104.1265 257.429167 
L 63.4355 257.429167 
z
" clip-path="url(#p5aeb9e1be3)" style="fill: #1f77b4"/>
   </g>
   <g id="patch_221">
    <path d="M 144.8175 257.96 
L 185.5085 257.96 
L 185.5085 257.464556 
L 144.8175 257.464556 
z
" clip-path="url(#p5aeb9e1be3)" style="fill: #1f77b4"/>
   </g>
   <g id="patch_222">
    <path d="M 226.1995 257.96 
L 266.8905 257.96 
L 266.8905 257.252222 
L 226.1995 257.252222 
z
" clip-path="url(#p5aeb9e1be3)" style="fill: #1f77b4"/>
   </g>
   <g id="patch_223">
    <path d="M 307.5815 257.96 
L 348.2725 257.96 
L 348.2725 257.783056 
L 307.5815 257.783056 
z
" clip-path="url(#p5aeb9e1be3)" style="fill: #1f77b4"/>
   </g>
   <g id="patch_224">
    <path d="M 388.9635 257.96 
L 429.6545 257.96 
L 429.6545 257.783056 
L 388.9635 257.783056 
z
" clip-path="url(#p5aeb9e1be3)" style="fill: #1f77b4"/>
   </g>
   <g id="patch_225">
    <path d="M 63.4355 257.96 
L 104.1265 257.96 
L 104.1265 257.464556 
L 63.4355 257.464556 
z
" clip-path="url(#p5aeb9e1be3)" style="fill: #1f77b4"/>
   </g>
   <g id="patch_226">
    <path d="M 144.8175 257.96 
L 185.5085 257.96 
L 185.5085 257.464556 
L 144.8175 257.464556 
z
" clip-path="url(#p5aeb9e1be3)" style="fill: #1f77b4"/>
   </g>
   <g id="patch_227">
    <path d="M 226.1995 257.96 
L 266.8905 257.96 
L 266.8905 257.464556 
L 226.1995 257.464556 
z
" clip-path="url(#p5aeb9e1be3)" style="fill: #1f77b4"/>
   </g>
   <g id="patch_228">
    <path d="M 307.5815 257.96 
L 348.2725 257.96 
L 348.2725 257.936407 
L 307.5815 257.936407 
z
" clip-path="url(#p5aeb9e1be3)" style="fill: #1f77b4"/>
   </g>
   <g id="patch_229">
    <path d="M 388.9635 257.96 
L 429.6545 257.96 
L 429.6545 257.936407 
L 388.9635 257.936407 
z
" clip-path="url(#p5aeb9e1be3)" style="fill: #1f77b4"/>
   </g>
   <g id="patch_230">
    <path d="M 63.4355 257.96 
L 104.1265 257.96 
L 104.1265 257.535333 
L 63.4355 257.535333 
z
" clip-path="url(#p5aeb9e1be3)" style="fill: #1f77b4"/>
   </g>
   <g id="patch_231">
    <path d="M 144.8175 257.96 
L 185.5085 257.96 
L 185.5085 257.889222 
L 144.8175 257.889222 
z
" clip-path="url(#p5aeb9e1be3)" style="fill: #1f77b4"/>
   </g>
   <g id="patch_232">
    <path d="M 226.1995 257.96 
L 266.8905 257.96 
L 266.8905 257.889222 
L 226.1995 257.889222 
z
" clip-path="url(#p5aeb9e1be3)" style="fill: #1f77b4"/>
   </g>
   <g id="patch_233">
    <path d="M 307.5815 257.96 
L 348.2725 257.96 
L 348.2725 257.96 
L 307.5815 257.96 
z
" clip-path="url(#p5aeb9e1be3)" style="fill: #1f77b4"/>
   </g>
   <g id="patch_234">
    <path d="M 388.9635 257.96 
L 429.6545 257.96 
L 429.6545 257.96 
L 388.9635 257.96 
z
" clip-path="url(#p5aeb9e1be3)" style="fill: #1f77b4"/>
   </g>
   <g id="patch_235">
    <path d="M 63.4355 257.96 
L 104.1265 257.96 
L 104.1265 251.509111 
L 63.4355 251.509111 
z
" clip-path="url(#p5aeb9e1be3)" style="fill: #1f77b4"/>
   </g>
   <g id="patch_236">
    <path d="M 144.8175 257.96 
L 185.5085 257.96 
L 185.5085 255.401889 
L 144.8175 255.401889 
z
" clip-path="url(#p5aeb9e1be3)" style="fill: #1f77b4"/>
   </g>
   <g id="patch_237">
    <path d="M 226.1995 257.96 
L 266.8905 257.96 
L 266.8905 255.401889 
L 226.1995 255.401889 
z
" clip-path="url(#p5aeb9e1be3)" style="fill: #1f77b4"/>
   </g>
   <g id="patch_238">
    <path d="M 307.5815 257.96 
L 348.2725 257.96 
L 348.2725 254.163278 
L 307.5815 254.163278 
z
" clip-path="url(#p5aeb9e1be3)" style="fill: #1f77b4"/>
   </g>
   <g id="patch_239">
    <path d="M 388.9635 257.96 
L 429.6545 257.96 
L 429.6545 255.508055 
L 388.9635 255.508055 
z
" clip-path="url(#p5aeb9e1be3)" style="fill: #1f77b4"/>
   </g>
   <g id="patch_240">
    <path d="M 63.4355 257.96 
L 104.1265 257.96 
L 104.1265 257.96 
L 63.4355 257.96 
z
" clip-path="url(#p5aeb9e1be3)" style="fill: #1f77b4"/>
   </g>
   <g id="patch_241">
    <path d="M 63.4355 257.96 
L 104.1265 257.96 
L 104.1265 151.23312 
L 63.4355 151.23312 
z
" clip-path="url(#p5aeb9e1be3)" style="fill: #1f77b4"/>
   </g>
   <g id="patch_242">
    <path d="M 144.8175 257.96 
L 185.5085 257.96 
L 185.5085 170.693057 
L 144.8175 170.693057 
z
" clip-path="url(#p5aeb9e1be3)" style="fill: #1f77b4"/>
   </g>
   <g id="patch_243">
    <path d="M 226.1995 257.96 
L 266.8905 257.96 
L 266.8905 168.292166 
L 226.1995 168.292166 
z
" clip-path="url(#p5aeb9e1be3)" style="fill: #1f77b4"/>
   </g>
   <g id="patch_244">
    <path d="M 307.5815 257.96 
L 348.2725 257.96 
L 348.2725 181.086817 
L 307.5815 181.086817 
z
" clip-path="url(#p5aeb9e1be3)" style="fill: #1f77b4"/>
   </g>
   <g id="patch_245">
    <path d="M 388.9635 257.96 
L 429.6545 257.96 
L 429.6545 223.424861 
L 388.9635 223.424861 
z
" clip-path="url(#p5aeb9e1be3)" style="fill: #1f77b4"/>
   </g>
   <g id="patch_246">
    <path d="M 63.4355 257.96 
L 104.1265 257.96 
L 104.1265 196.692927 
L 63.4355 196.692927 
z
" clip-path="url(#p5aeb9e1be3)" style="fill: #1f77b4"/>
   </g>
   <g id="patch_247">
    <path d="M 144.8175 257.96 
L 185.5085 257.96 
L 185.5085 171.156124 
L 144.8175 171.156124 
z
" clip-path="url(#p5aeb9e1be3)" style="fill: #1f77b4"/>
   </g>
   <g id="patch_248">
    <path d="M 226.1995 257.96 
L 266.8905 257.96 
L 266.8905 212.873027 
L 226.1995 212.873027 
z
" clip-path="url(#p5aeb9e1be3)" style="fill: #1f77b4"/>
   </g>
   <g id="patch_249">
    <path d="M 307.5815 257.96 
L 348.2725 257.96 
L 348.2725 215.03264 
L 307.5815 215.03264 
z
" clip-path="url(#p5aeb9e1be3)" style="fill: #1f77b4"/>
   </g>
   <g id="patch_250">
    <path d="M 388.9635 257.96 
L 429.6545 257.96 
L 429.6545 228.968885 
L 388.9635 228.968885 
z
" clip-path="url(#p5aeb9e1be3)" style="fill: #1f77b4"/>
   </g>
   <g id="patch_251">
    <path d="M 63.4355 257.96 
L 104.1265 257.96 
L 104.1265 257.936407 
L 63.4355 257.936407 
z
" clip-path="url(#p5aeb9e1be3)" style="fill: #1f77b4"/>
   </g>
   <g id="patch_252">
    <path d="M 144.8175 257.96 
L 185.5085 257.96 
L 185.5085 257.936407 
L 144.8175 257.936407 
z
" clip-path="url(#p5aeb9e1be3)" style="fill: #1f77b4"/>
   </g>
   <g id="patch_253">
    <path d="M 226.1995 257.96 
L 266.8905 257.96 
L 266.8905 257.936407 
L 226.1995 257.936407 
z
" clip-path="url(#p5aeb9e1be3)" style="fill: #1f77b4"/>
   </g>
   <g id="patch_254">
    <path d="M 307.5815 257.96 
L 348.2725 257.96 
L 348.2725 257.96 
L 307.5815 257.96 
z
" clip-path="url(#p5aeb9e1be3)" style="fill: #1f77b4"/>
   </g>
   <g id="patch_255">
    <path d="M 388.9635 257.96 
L 429.6545 257.96 
L 429.6545 257.96 
L 388.9635 257.96 
z
" clip-path="url(#p5aeb9e1be3)" style="fill: #1f77b4"/>
   </g>
   <g id="patch_256">
    <path d="M 63.4355 257.96 
L 104.1265 257.96 
L 104.1265 255.978222 
L 63.4355 255.978222 
z
" clip-path="url(#p5aeb9e1be3)" style="fill: #1f77b4"/>
   </g>
   <g id="patch_257">
    <path d="M 144.8175 257.96 
L 185.5085 257.96 
L 185.5085 255.813074 
L 144.8175 255.813074 
z
" clip-path="url(#p5aeb9e1be3)" style="fill: #1f77b4"/>
   </g>
   <g id="patch_258">
    <path d="M 226.1995 257.96 
L 266.8905 257.96 
L 266.8905 257.783056 
L 226.1995 257.783056 
z
" clip-path="url(#p5aeb9e1be3)" style="fill: #1f77b4"/>
   </g>
   <g id="patch_259">
    <path d="M 307.5815 257.96 
L 348.2725 257.96 
L 348.2725 257.906917 
L 307.5815 257.906917 
z
" clip-path="url(#p5aeb9e1be3)" style="fill: #1f77b4"/>
   </g>
   <g id="patch_260">
    <path d="M 388.9635 257.96 
L 429.6545 257.96 
L 429.6545 257.906917 
L 388.9635 257.906917 
z
" clip-path="url(#p5aeb9e1be3)" style="fill: #1f77b4"/>
   </g>
   <g id="patch_261">
    <path d="M 63.4355 257.96 
L 104.1265 257.96 
L 104.1265 257.535333 
L 63.4355 257.535333 
z
" clip-path="url(#p5aeb9e1be3)" style="fill: #1f77b4"/>
   </g>
   <g id="patch_262">
    <path d="M 144.8175 257.96 
L 185.5085 257.96 
L 185.5085 257.676889 
L 144.8175 257.676889 
z
" clip-path="url(#p5aeb9e1be3)" style="fill: #1f77b4"/>
   </g>
   <g id="patch_263">
    <path d="M 226.1995 257.96 
L 266.8905 257.96 
L 266.8905 257.818444 
L 226.1995 257.818444 
z
" clip-path="url(#p5aeb9e1be3)" style="fill: #1f77b4"/>
   </g>
   <g id="patch_264">
    <path d="M 307.5815 257.96 
L 348.2725 257.96 
L 348.2725 257.818444 
L 307.5815 257.818444 
z
" clip-path="url(#p5aeb9e1be3)" style="fill: #1f77b4"/>
   </g>
   <g id="patch_265">
    <path d="M 388.9635 257.96 
L 429.6545 257.96 
L 429.6545 257.629704 
L 388.9635 257.629704 
z
" clip-path="url(#p5aeb9e1be3)" style="fill: #1f77b4"/>
   </g>
   <g id="patch_266">
    <path d="M 63.4355 257.96 
L 104.1265 257.96 
L 104.1265 257.712278 
L 63.4355 257.712278 
z
" clip-path="url(#p5aeb9e1be3)" style="fill: #1f77b4"/>
   </g>
   <g id="patch_267">
    <path d="M 144.8175 257.96 
L 185.5085 257.96 
L 185.5085 257.712278 
L 144.8175 257.712278 
z
" clip-path="url(#p5aeb9e1be3)" style="fill: #1f77b4"/>
   </g>
   <g id="patch_268">
    <path d="M 226.1995 257.96 
L 266.8905 257.96 
L 266.8905 257.942306 
L 226.1995 257.942306 
z
" clip-path="url(#p5aeb9e1be3)" style="fill: #1f77b4"/>
   </g>
   <g id="patch_269">
    <path d="M 307.5815 257.96 
L 348.2725 257.96 
L 348.2725 257.942306 
L 307.5815 257.942306 
z
" clip-path="url(#p5aeb9e1be3)" style="fill: #1f77b4"/>
   </g>
   <g id="patch_270">
    <path d="M 388.9635 257.96 
L 429.6545 257.96 
L 429.6545 257.942306 
L 388.9635 257.942306 
z
" clip-path="url(#p5aeb9e1be3)" style="fill: #1f77b4"/>
   </g>
   <g id="patch_271">
    <path d="M 63.4355 257.96 
L 104.1265 257.96 
L 104.1265 257.179478 
L 63.4355 257.179478 
z
" clip-path="url(#p5aeb9e1be3)" style="fill: #1f77b4"/>
   </g>
   <g id="patch_272">
    <path d="M 144.8175 257.96 
L 185.5085 257.96 
L 185.5085 257.904951 
L 144.8175 257.904951 
z
" clip-path="url(#p5aeb9e1be3)" style="fill: #1f77b4"/>
   </g>
   <g id="patch_273">
    <path d="M 226.1995 257.96 
L 266.8905 257.96 
L 266.8905 257.904951 
L 226.1995 257.904951 
z
" clip-path="url(#p5aeb9e1be3)" style="fill: #1f77b4"/>
   </g>
   <g id="patch_274">
    <path d="M 307.5815 257.96 
L 348.2725 257.96 
L 348.2725 257.904951 
L 307.5815 257.904951 
z
" clip-path="url(#p5aeb9e1be3)" style="fill: #1f77b4"/>
   </g>
   <g id="patch_275">
    <path d="M 388.9635 257.96 
L 429.6545 257.96 
L 429.6545 257.904951 
L 388.9635 257.904951 
z
" clip-path="url(#p5aeb9e1be3)" style="fill: #1f77b4"/>
   </g>
   <g id="patch_276">
    <path d="M 63.4355 257.96 
L 104.1265 257.96 
L 104.1265 219.255901 
L 63.4355 219.255901 
z
" clip-path="url(#p5aeb9e1be3)" style="fill: #1f77b4"/>
   </g>
   <g id="patch_277">
    <path d="M 144.8175 257.96 
L 185.5085 257.96 
L 185.5085 246.207074 
L 144.8175 246.207074 
z
" clip-path="url(#p5aeb9e1be3)" style="fill: #1f77b4"/>
   </g>
   <g id="patch_278">
    <path d="M 226.1995 257.96 
L 266.8905 257.96 
L 266.8905 245.036792 
L 226.1995 245.036792 
z
" clip-path="url(#p5aeb9e1be3)" style="fill: #1f77b4"/>
   </g>
   <g id="patch_279">
    <path d="M 307.5815 257.96 
L 348.2725 257.96 
L 348.2725 245.255388 
L 307.5815 245.255388 
z
" clip-path="url(#p5aeb9e1be3)" style="fill: #1f77b4"/>
   </g>
   <g id="patch_280">
    <path d="M 388.9635 257.96 
L 429.6545 257.96 
L 429.6545 218.705976 
L 388.9635 218.705976 
z
" clip-path="url(#p5aeb9e1be3)" style="fill: #1f77b4"/>
   </g>
   <g id="patch_281">
    <path d="M 63.4355 257.96 
L 104.1265 257.96 
L 104.1265 250.21927 
L 63.4355 250.21927 
z
" clip-path="url(#p5aeb9e1be3)" style="fill: #1f77b4"/>
   </g>
   <g id="patch_282">
    <path d="M 144.8175 257.96 
L 185.5085 257.96 
L 185.5085 256.880639 
L 144.8175 256.880639 
z
" clip-path="url(#p5aeb9e1be3)" style="fill: #1f77b4"/>
   </g>
   <g id="patch_283">
    <path d="M 226.1995 257.96 
L 266.8905 257.96 
L 266.8905 256.880639 
L 226.1995 256.880639 
z
" clip-path="url(#p5aeb9e1be3)" style="fill: #1f77b4"/>
   </g>
   <g id="patch_284">
    <path d="M 307.5815 257.96 
L 348.2725 257.96 
L 348.2725 256.880639 
L 307.5815 256.880639 
z
" clip-path="url(#p5aeb9e1be3)" style="fill: #1f77b4"/>
   </g>
   <g id="patch_285">
    <path d="M 388.9635 257.96 
L 429.6545 257.96 
L 429.6545 256.880639 
L 388.9635 256.880639 
z
" clip-path="url(#p5aeb9e1be3)" style="fill: #1f77b4"/>
   </g>
   <g id="patch_286">
    <path d="M 63.4355 257.96 
L 104.1265 257.96 
L 104.1265 257.889222 
L 63.4355 257.889222 
z
" clip-path="url(#p5aeb9e1be3)" style="fill: #1f77b4"/>
   </g>
   <g id="patch_287">
    <path d="M 144.8175 257.96 
L 185.5085 257.96 
L 185.5085 257.936407 
L 144.8175 257.936407 
z
" clip-path="url(#p5aeb9e1be3)" style="fill: #1f77b4"/>
   </g>
   <g id="patch_288">
    <path d="M 226.1995 257.96 
L 266.8905 257.96 
L 266.8905 257.936407 
L 226.1995 257.936407 
z
" clip-path="url(#p5aeb9e1be3)" style="fill: #1f77b4"/>
   </g>
   <g id="patch_289">
    <path d="M 307.5815 257.96 
L 348.2725 257.96 
L 348.2725 257.936407 
L 307.5815 257.936407 
z
" clip-path="url(#p5aeb9e1be3)" style="fill: #1f77b4"/>
   </g>
   <g id="patch_290">
    <path d="M 388.9635 257.96 
L 429.6545 257.96 
L 429.6545 257.924611 
L 388.9635 257.924611 
z
" clip-path="url(#p5aeb9e1be3)" style="fill: #1f77b4"/>
   </g>
   <g id="patch_291">
    <path d="M 63.4355 257.96 
L 104.1265 257.96 
L 104.1265 256.643533 
L 63.4355 256.643533 
z
" clip-path="url(#p5aeb9e1be3)" style="fill: #1f77b4"/>
   </g>
   <g id="patch_292">
    <path d="M 144.8175 257.96 
L 185.5085 257.96 
L 185.5085 256.473667 
L 144.8175 256.473667 
z
" clip-path="url(#p5aeb9e1be3)" style="fill: #1f77b4"/>
   </g>
   <g id="patch_293">
    <path d="M 226.1995 257.96 
L 266.8905 257.96 
L 266.8905 257.323 
L 226.1995 257.323 
z
" clip-path="url(#p5aeb9e1be3)" style="fill: #1f77b4"/>
   </g>
   <g id="patch_294">
    <path d="M 307.5815 257.96 
L 348.2725 257.96 
L 348.2725 257.917533 
L 307.5815 257.917533 
z
" clip-path="url(#p5aeb9e1be3)" style="fill: #1f77b4"/>
   </g>
   <g id="patch_295">
    <path d="M 388.9635 257.96 
L 429.6545 257.96 
L 429.6545 257.917533 
L 388.9635 257.917533 
z
" clip-path="url(#p5aeb9e1be3)" style="fill: #1f77b4"/>
   </g>
   <g id="patch_296">
    <path d="M 63.4355 257.96 
L 104.1265 257.96 
L 104.1265 257.167289 
L 63.4355 257.167289 
z
" clip-path="url(#p5aeb9e1be3)" style="fill: #1f77b4"/>
   </g>
   <g id="patch_297">
    <path d="M 144.8175 257.96 
L 185.5085 257.96 
L 185.5085 257.889222 
L 144.8175 257.889222 
z
" clip-path="url(#p5aeb9e1be3)" style="fill: #1f77b4"/>
   </g>
   <g id="patch_298">
    <path d="M 226.1995 257.96 
L 266.8905 257.96 
L 266.8905 257.889222 
L 226.1995 257.889222 
z
" clip-path="url(#p5aeb9e1be3)" style="fill: #1f77b4"/>
   </g>
   <g id="patch_299">
    <path d="M 307.5815 257.96 
L 348.2725 257.96 
L 348.2725 257.889222 
L 307.5815 257.889222 
z
" clip-path="url(#p5aeb9e1be3)" style="fill: #1f77b4"/>
   </g>
   <g id="patch_300">
    <path d="M 388.9635 257.96 
L 429.6545 257.96 
L 429.6545 257.889222 
L 388.9635 257.889222 
z
" clip-path="url(#p5aeb9e1be3)" style="fill: #1f77b4"/>
   </g>
   <g id="patch_301">
    <path d="M 63.4355 257.96 
L 104.1265 257.96 
L 104.1265 257.535333 
L 63.4355 257.535333 
z
" clip-path="url(#p5aeb9e1be3)" style="fill: #1f77b4"/>
   </g>
   <g id="patch_302">
    <path d="M 144.8175 257.96 
L 185.5085 257.96 
L 185.5085 257.889222 
L 144.8175 257.889222 
z
" clip-path="url(#p5aeb9e1be3)" style="fill: #1f77b4"/>
   </g>
   <g id="patch_303">
    <path d="M 226.1995 257.96 
L 266.8905 257.96 
L 266.8905 257.889222 
L 226.1995 257.889222 
z
" clip-path="url(#p5aeb9e1be3)" style="fill: #1f77b4"/>
   </g>
   <g id="patch_304">
    <path d="M 307.5815 257.96 
L 348.2725 257.96 
L 348.2725 257.889222 
L 307.5815 257.889222 
z
" clip-path="url(#p5aeb9e1be3)" style="fill: #1f77b4"/>
   </g>
   <g id="patch_305">
    <path d="M 388.9635 257.96 
L 429.6545 257.96 
L 429.6545 257.945844 
L 388.9635 257.945844 
z
" clip-path="url(#p5aeb9e1be3)" style="fill: #1f77b4"/>
   </g>
   <g id="patch_306">
    <path d="M 63.4355 257.96 
L 104.1265 257.96 
L 104.1265 257.889222 
L 63.4355 257.889222 
z
" clip-path="url(#p5aeb9e1be3)" style="fill: #1f77b4"/>
   </g>
   <g id="patch_307">
    <path d="M 144.8175 257.96 
L 185.5085 257.96 
L 185.5085 257.96 
L 144.8175 257.96 
z
" clip-path="url(#p5aeb9e1be3)" style="fill: #1f77b4"/>
   </g>
   <g id="patch_308">
    <path d="M 226.1995 257.96 
L 266.8905 257.96 
L 266.8905 257.96 
L 226.1995 257.96 
z
" clip-path="url(#p5aeb9e1be3)" style="fill: #1f77b4"/>
   </g>
   <g id="patch_309">
    <path d="M 307.5815 257.96 
L 348.2725 257.96 
L 348.2725 257.96 
L 307.5815 257.96 
z
" clip-path="url(#p5aeb9e1be3)" style="fill: #1f77b4"/>
   </g>
   <g id="patch_310">
    <path d="M 388.9635 257.96 
L 429.6545 257.96 
L 429.6545 257.96 
L 388.9635 257.96 
z
" clip-path="url(#p5aeb9e1be3)" style="fill: #1f77b4"/>
   </g>
   <g id="patch_311">
    <path d="M 63.4355 257.96 
L 104.1265 257.96 
L 104.1265 257.96 
L 63.4355 257.96 
z
" clip-path="url(#p5aeb9e1be3)" style="fill: #1f77b4"/>
   </g>
   <g id="patch_312">
    <path d="M 144.8175 257.96 
L 185.5085 257.96 
L 185.5085 257.96 
L 144.8175 257.96 
z
" clip-path="url(#p5aeb9e1be3)" style="fill: #1f77b4"/>
   </g>
   <g id="patch_313">
    <path d="M 63.4355 257.96 
L 104.1265 257.96 
L 104.1265 149.911518 
L 63.4355 149.911518 
z
" clip-path="url(#p5aeb9e1be3)" style="fill: #1f77b4"/>
   </g>
   <g id="patch_314">
    <path d="M 144.8175 257.96 
L 185.5085 257.96 
L 185.5085 150.70691 
L 144.8175 150.70691 
z
" clip-path="url(#p5aeb9e1be3)" style="fill: #1f77b4"/>
   </g>
   <g id="patch_315">
    <path d="M 226.1995 257.96 
L 266.8905 257.96 
L 266.8905 131.827141 
L 226.1995 131.827141 
z
" clip-path="url(#p5aeb9e1be3)" style="fill: #1f77b4"/>
   </g>
   <g id="patch_316">
    <path d="M 307.5815 257.96 
L 348.2725 257.96 
L 348.2725 201.565118 
L 307.5815 201.565118 
z
" clip-path="url(#p5aeb9e1be3)" style="fill: #1f77b4"/>
   </g>
   <g id="patch_317">
    <path d="M 388.9635 257.96 
L 429.6545 257.96 
L 429.6545 141.847925 
L 388.9635 141.847925 
z
" clip-path="url(#p5aeb9e1be3)" style="fill: #1f77b4"/>
   </g>
   <g id="patch_318">
    <path d="M 63.4355 257.96 
L 104.1265 257.96 
L 104.1265 166.651378 
L 63.4355 166.651378 
z
" clip-path="url(#p5aeb9e1be3)" style="fill: #1f77b4"/>
   </g>
   <g id="patch_319">
    <path d="M 144.8175 257.96 
L 185.5085 257.96 
L 185.5085 100.918304 
L 144.8175 100.918304 
z
" clip-path="url(#p5aeb9e1be3)" style="fill: #1f77b4"/>
   </g>
   <g id="patch_320">
    <path d="M 226.1995 257.96 
L 266.8905 257.96 
L 266.8905 179.569892 
L 226.1995 179.569892 
z
" clip-path="url(#p5aeb9e1be3)" style="fill: #1f77b4"/>
   </g>
   <g id="patch_321">
    <path d="M 307.5815 257.96 
L 348.2725 257.96 
L 348.2725 195.676757 
L 307.5815 195.676757 
z
" clip-path="url(#p5aeb9e1be3)" style="fill: #1f77b4"/>
   </g>
   <g id="patch_322">
    <path d="M 388.9635 257.96 
L 429.6545 257.96 
L 429.6545 199.349048 
L 388.9635 199.349048 
z
" clip-path="url(#p5aeb9e1be3)" style="fill: #1f77b4"/>
   </g>
   <g id="patch_323">
    <path d="M 63.4355 257.96 
L 104.1265 257.96 
L 104.1265 257.594315 
L 63.4355 257.594315 
z
" clip-path="url(#p5aeb9e1be3)" style="fill: #1f77b4"/>
   </g>
   <g id="patch_324">
    <path d="M 144.8175 257.96 
L 185.5085 257.96 
L 185.5085 257.6415 
L 144.8175 257.6415 
z
" clip-path="url(#p5aeb9e1be3)" style="fill: #1f77b4"/>
   </g>
   <g id="patch_325">
    <path d="M 226.1995 257.96 
L 266.8905 257.96 
L 266.8905 257.731938 
L 226.1995 257.731938 
z
" clip-path="url(#p5aeb9e1be3)" style="fill: #1f77b4"/>
   </g>
   <g id="patch_326">
    <path d="M 307.5815 257.96 
L 348.2725 257.96 
L 348.2725 257.853833 
L 307.5815 257.853833 
z
" clip-path="url(#p5aeb9e1be3)" style="fill: #1f77b4"/>
   </g>
   <g id="patch_327">
    <path d="M 388.9635 257.96 
L 429.6545 257.96 
L 429.6545 257.747667 
L 388.9635 257.747667 
z
" clip-path="url(#p5aeb9e1be3)" style="fill: #1f77b4"/>
   </g>
   <g id="patch_328">
    <path d="M 63.4355 257.96 
L 104.1265 257.96 
L 104.1265 200.877701 
L 63.4355 200.877701 
z
" clip-path="url(#p5aeb9e1be3)" style="fill: #1f77b4"/>
   </g>
   <g id="patch_329">
    <path d="M 144.8175 257.96 
L 185.5085 257.96 
L 185.5085 216.744346 
L 144.8175 216.744346 
z
" clip-path="url(#p5aeb9e1be3)" style="fill: #1f77b4"/>
   </g>
   <g id="patch_330">
    <path d="M 226.1995 257.96 
L 266.8905 257.96 
L 266.8905 248.281377 
L 226.1995 248.281377 
z
" clip-path="url(#p5aeb9e1be3)" style="fill: #1f77b4"/>
   </g>
   <g id="patch_331">
    <path d="M 307.5815 257.96 
L 348.2725 257.96 
L 348.2725 245.254166 
L 307.5815 245.254166 
z
" clip-path="url(#p5aeb9e1be3)" style="fill: #1f77b4"/>
   </g>
   <g id="patch_332">
    <path d="M 388.9635 257.96 
L 429.6545 257.96 
L 429.6545 254.085155 
L 388.9635 254.085155 
z
" clip-path="url(#p5aeb9e1be3)" style="fill: #1f77b4"/>
   </g>
   <g id="patch_333">
    <path d="M 63.4355 257.96 
L 104.1265 257.96 
L 104.1265 257.521178 
L 63.4355 257.521178 
z
" clip-path="url(#p5aeb9e1be3)" style="fill: #1f77b4"/>
   </g>
   <g id="patch_334">
    <path d="M 144.8175 257.96 
L 185.5085 257.96 
L 185.5085 257.919556 
L 144.8175 257.919556 
z
" clip-path="url(#p5aeb9e1be3)" style="fill: #1f77b4"/>
   </g>
   <g id="patch_335">
    <path d="M 226.1995 257.96 
L 266.8905 257.96 
L 266.8905 257.919556 
L 226.1995 257.919556 
z
" clip-path="url(#p5aeb9e1be3)" style="fill: #1f77b4"/>
   </g>
   <g id="patch_336">
    <path d="M 307.5815 257.96 
L 348.2725 257.96 
L 348.2725 257.919556 
L 307.5815 257.919556 
z
" clip-path="url(#p5aeb9e1be3)" style="fill: #1f77b4"/>
   </g>
   <g id="patch_337">
    <path d="M 388.9635 257.96 
L 429.6545 257.96 
L 429.6545 257.919556 
L 388.9635 257.919556 
z
" clip-path="url(#p5aeb9e1be3)" style="fill: #1f77b4"/>
   </g>
   <g id="patch_338">
    <path d="M 63.4355 257.96 
L 104.1265 257.96 
L 104.1265 246.537866 
L 63.4355 246.537866 
z
" clip-path="url(#p5aeb9e1be3)" style="fill: #1f77b4"/>
   </g>
   <g id="patch_339">
    <path d="M 144.8175 257.96 
L 185.5085 257.96 
L 185.5085 257.025756 
L 144.8175 257.025756 
z
" clip-path="url(#p5aeb9e1be3)" style="fill: #1f77b4"/>
   </g>
   <g id="patch_340">
    <path d="M 226.1995 257.96 
L 266.8905 257.96 
L 266.8905 257.025756 
L 226.1995 257.025756 
z
" clip-path="url(#p5aeb9e1be3)" style="fill: #1f77b4"/>
   </g>
   <g id="patch_341">
    <path d="M 307.5815 257.96 
L 348.2725 257.96 
L 348.2725 257.025756 
L 307.5815 257.025756 
z
" clip-path="url(#p5aeb9e1be3)" style="fill: #1f77b4"/>
   </g>
   <g id="patch_342">
    <path d="M 388.9635 257.96 
L 429.6545 257.96 
L 429.6545 257.025756 
L 388.9635 257.025756 
z
" clip-path="url(#p5aeb9e1be3)" style="fill: #1f77b4"/>
   </g>
   <g id="patch_343">
    <path d="M 63.4355 257.96 
L 104.1265 257.96 
L 104.1265 250.15675 
L 63.4355 250.15675 
z
" clip-path="url(#p5aeb9e1be3)" style="fill: #1f77b4"/>
   </g>
   <g id="patch_344">
    <path d="M 144.8175 257.96 
L 185.5085 257.96 
L 185.5085 252.120833 
L 144.8175 252.120833 
z
" clip-path="url(#p5aeb9e1be3)" style="fill: #1f77b4"/>
   </g>
   <g id="patch_345">
    <path d="M 226.1995 257.96 
L 266.8905 257.96 
L 266.8905 250.832678 
L 226.1995 250.832678 
z
" clip-path="url(#p5aeb9e1be3)" style="fill: #1f77b4"/>
   </g>
   <g id="patch_346">
    <path d="M 307.5815 257.96 
L 348.2725 257.96 
L 348.2725 256.686 
L 307.5815 256.686 
z
" clip-path="url(#p5aeb9e1be3)" style="fill: #1f77b4"/>
   </g>
   <g id="patch_347">
    <path d="M 388.9635 257.96 
L 429.6545 257.96 
L 429.6545 239.467732 
L 388.9635 239.467732 
z
" clip-path="url(#p5aeb9e1be3)" style="fill: #1f77b4"/>
   </g>
   <g id="patch_348">
    <path d="M 63.4355 257.96 
L 104.1265 257.96 
L 104.1265 257.499944 
L 63.4355 257.499944 
z
" clip-path="url(#p5aeb9e1be3)" style="fill: #1f77b4"/>
   </g>
   <g id="patch_349">
    <path d="M 144.8175 257.96 
L 185.5085 257.96 
L 185.5085 257.80075 
L 144.8175 257.80075 
z
" clip-path="url(#p5aeb9e1be3)" style="fill: #1f77b4"/>
   </g>
   <g id="patch_350">
    <path d="M 226.1995 257.96 
L 266.8905 257.96 
L 266.8905 257.924611 
L 226.1995 257.924611 
z
" clip-path="url(#p5aeb9e1be3)" style="fill: #1f77b4"/>
   </g>
   <g id="patch_351">
    <path d="M 307.5815 257.96 
L 348.2725 257.96 
L 348.2725 257.924611 
L 307.5815 257.924611 
z
" clip-path="url(#p5aeb9e1be3)" style="fill: #1f77b4"/>
   </g>
   <g id="patch_352">
    <path d="M 388.9635 257.96 
L 429.6545 257.96 
L 429.6545 257.924611 
L 388.9635 257.924611 
z
" clip-path="url(#p5aeb9e1be3)" style="fill: #1f77b4"/>
   </g>
   <g id="matplotlib.axis_1">
    <g id="xtick_1">
     <g id="line2d_1">
      <defs>
       <path id="m62e7a720f6" d="M 0 0 
L 0 3.5 
" style="stroke: #000000; stroke-width: 0.8"/>
      </defs>
      <g>
       <use xlink:href="#m62e7a720f6" x="83.781" y="257.96" style="stroke: #000000; stroke-width: 0.8"/>
      </g>
     </g>
     <g id="text_1">
      <!-- Christian Bale -->
      <g transform="translate(86.540375 334.64125) rotate(-90) scale(0.1 -0.1)">
       <defs>
        <path id="DejaVuSans-43" d="M 4122 4306 
L 4122 3641 
Q 3803 3938 3442 4084 
Q 3081 4231 2675 4231 
Q 1875 4231 1450 3742 
Q 1025 3253 1025 2328 
Q 1025 1406 1450 917 
Q 1875 428 2675 428 
Q 3081 428 3442 575 
Q 3803 722 4122 1019 
L 4122 359 
Q 3791 134 3420 21 
Q 3050 -91 2638 -91 
Q 1578 -91 968 557 
Q 359 1206 359 2328 
Q 359 3453 968 4101 
Q 1578 4750 2638 4750 
Q 3056 4750 3426 4639 
Q 3797 4528 4122 4306 
z
" transform="scale(0.015625)"/>
        <path id="DejaVuSans-68" d="M 3513 2113 
L 3513 0 
L 2938 0 
L 2938 2094 
Q 2938 2591 2744 2837 
Q 2550 3084 2163 3084 
Q 1697 3084 1428 2787 
Q 1159 2491 1159 1978 
L 1159 0 
L 581 0 
L 581 4863 
L 1159 4863 
L 1159 2956 
Q 1366 3272 1645 3428 
Q 1925 3584 2291 3584 
Q 2894 3584 3203 3211 
Q 3513 2838 3513 2113 
z
" transform="scale(0.015625)"/>
        <path id="DejaVuSans-72" d="M 2631 2963 
Q 2534 3019 2420 3045 
Q 2306 3072 2169 3072 
Q 1681 3072 1420 2755 
Q 1159 2438 1159 1844 
L 1159 0 
L 581 0 
L 581 3500 
L 1159 3500 
L 1159 2956 
Q 1341 3275 1631 3429 
Q 1922 3584 2338 3584 
Q 2397 3584 2469 3576 
Q 2541 3569 2628 3553 
L 2631 2963 
z
" transform="scale(0.015625)"/>
        <path id="DejaVuSans-69" d="M 603 3500 
L 1178 3500 
L 1178 0 
L 603 0 
L 603 3500 
z
M 603 4863 
L 1178 4863 
L 1178 4134 
L 603 4134 
L 603 4863 
z
" transform="scale(0.015625)"/>
        <path id="DejaVuSans-73" d="M 2834 3397 
L 2834 2853 
Q 2591 2978 2328 3040 
Q 2066 3103 1784 3103 
Q 1356 3103 1142 2972 
Q 928 2841 928 2578 
Q 928 2378 1081 2264 
Q 1234 2150 1697 2047 
L 1894 2003 
Q 2506 1872 2764 1633 
Q 3022 1394 3022 966 
Q 3022 478 2636 193 
Q 2250 -91 1575 -91 
Q 1294 -91 989 -36 
Q 684 19 347 128 
L 347 722 
Q 666 556 975 473 
Q 1284 391 1588 391 
Q 1994 391 2212 530 
Q 2431 669 2431 922 
Q 2431 1156 2273 1281 
Q 2116 1406 1581 1522 
L 1381 1569 
Q 847 1681 609 1914 
Q 372 2147 372 2553 
Q 372 3047 722 3315 
Q 1072 3584 1716 3584 
Q 2034 3584 2315 3537 
Q 2597 3491 2834 3397 
z
" transform="scale(0.015625)"/>
        <path id="DejaVuSans-74" d="M 1172 4494 
L 1172 3500 
L 2356 3500 
L 2356 3053 
L 1172 3053 
L 1172 1153 
Q 1172 725 1289 603 
Q 1406 481 1766 481 
L 2356 481 
L 2356 0 
L 1766 0 
Q 1100 0 847 248 
Q 594 497 594 1153 
L 594 3053 
L 172 3053 
L 172 3500 
L 594 3500 
L 594 4494 
L 1172 4494 
z
" transform="scale(0.015625)"/>
        <path id="DejaVuSans-61" d="M 2194 1759 
Q 1497 1759 1228 1600 
Q 959 1441 959 1056 
Q 959 750 1161 570 
Q 1363 391 1709 391 
Q 2188 391 2477 730 
Q 2766 1069 2766 1631 
L 2766 1759 
L 2194 1759 
z
M 3341 1997 
L 3341 0 
L 2766 0 
L 2766 531 
Q 2569 213 2275 61 
Q 1981 -91 1556 -91 
Q 1019 -91 701 211 
Q 384 513 384 1019 
Q 384 1609 779 1909 
Q 1175 2209 1959 2209 
L 2766 2209 
L 2766 2266 
Q 2766 2663 2505 2880 
Q 2244 3097 1772 3097 
Q 1472 3097 1187 3025 
Q 903 2953 641 2809 
L 641 3341 
Q 956 3463 1253 3523 
Q 1550 3584 1831 3584 
Q 2591 3584 2966 3190 
Q 3341 2797 3341 1997 
z
" transform="scale(0.015625)"/>
        <path id="DejaVuSans-6e" d="M 3513 2113 
L 3513 0 
L 2938 0 
L 2938 2094 
Q 2938 2591 2744 2837 
Q 2550 3084 2163 3084 
Q 1697 3084 1428 2787 
Q 1159 2491 1159 1978 
L 1159 0 
L 581 0 
L 581 3500 
L 1159 3500 
L 1159 2956 
Q 1366 3272 1645 3428 
Q 1925 3584 2291 3584 
Q 2894 3584 3203 3211 
Q 3513 2838 3513 2113 
z
" transform="scale(0.015625)"/>
        <path id="DejaVuSans-20" transform="scale(0.015625)"/>
        <path id="DejaVuSans-42" d="M 1259 2228 
L 1259 519 
L 2272 519 
Q 2781 519 3026 730 
Q 3272 941 3272 1375 
Q 3272 1813 3026 2020 
Q 2781 2228 2272 2228 
L 1259 2228 
z
M 1259 4147 
L 1259 2741 
L 2194 2741 
Q 2656 2741 2882 2914 
Q 3109 3088 3109 3444 
Q 3109 3797 2882 3972 
Q 2656 4147 2194 4147 
L 1259 4147 
z
M 628 4666 
L 2241 4666 
Q 2963 4666 3353 4366 
Q 3744 4066 3744 3513 
Q 3744 3084 3544 2831 
Q 3344 2578 2956 2516 
Q 3422 2416 3680 2098 
Q 3938 1781 3938 1306 
Q 3938 681 3513 340 
Q 3088 0 2303 0 
L 628 0 
L 628 4666 
z
" transform="scale(0.015625)"/>
        <path id="DejaVuSans-6c" d="M 603 4863 
L 1178 4863 
L 1178 0 
L 603 0 
L 603 4863 
z
" transform="scale(0.015625)"/>
        <path id="DejaVuSans-65" d="M 3597 1894 
L 3597 1613 
L 953 1613 
Q 991 1019 1311 708 
Q 1631 397 2203 397 
Q 2534 397 2845 478 
Q 3156 559 3463 722 
L 3463 178 
Q 3153 47 2828 -22 
Q 2503 -91 2169 -91 
Q 1331 -91 842 396 
Q 353 884 353 1716 
Q 353 2575 817 3079 
Q 1281 3584 2069 3584 
Q 2775 3584 3186 3129 
Q 3597 2675 3597 1894 
z
M 3022 2063 
Q 3016 2534 2758 2815 
Q 2500 3097 2075 3097 
Q 1594 3097 1305 2825 
Q 1016 2553 972 2059 
L 3022 2063 
z
" transform="scale(0.015625)"/>
       </defs>
       <use xlink:href="#DejaVuSans-43"/>
       <use xlink:href="#DejaVuSans-68" x="69.824219"/>
       <use xlink:href="#DejaVuSans-72" x="133.203125"/>
       <use xlink:href="#DejaVuSans-69" x="174.316406"/>
       <use xlink:href="#DejaVuSans-73" x="202.099609"/>
       <use xlink:href="#DejaVuSans-74" x="254.199219"/>
       <use xlink:href="#DejaVuSans-69" x="293.408203"/>
       <use xlink:href="#DejaVuSans-61" x="321.191406"/>
       <use xlink:href="#DejaVuSans-6e" x="382.470703"/>
       <use xlink:href="#DejaVuSans-20" x="445.849609"/>
       <use xlink:href="#DejaVuSans-42" x="477.636719"/>
       <use xlink:href="#DejaVuSans-61" x="546.240234"/>
       <use xlink:href="#DejaVuSans-6c" x="607.519531"/>
       <use xlink:href="#DejaVuSans-65" x="635.302734"/>
      </g>
     </g>
    </g>
    <g id="xtick_2">
     <g id="line2d_2">
      <g>
       <use xlink:href="#m62e7a720f6" x="165.163" y="257.96" style="stroke: #000000; stroke-width: 0.8"/>
      </g>
     </g>
     <g id="text_2">
      <!-- Paul Walker -->
      <g transform="translate(167.922375 322.81) rotate(-90) scale(0.1 -0.1)">
       <defs>
        <path id="DejaVuSans-50" d="M 1259 4147 
L 1259 2394 
L 2053 2394 
Q 2494 2394 2734 2622 
Q 2975 2850 2975 3272 
Q 2975 3691 2734 3919 
Q 2494 4147 2053 4147 
L 1259 4147 
z
M 628 4666 
L 2053 4666 
Q 2838 4666 3239 4311 
Q 3641 3956 3641 3272 
Q 3641 2581 3239 2228 
Q 2838 1875 2053 1875 
L 1259 1875 
L 1259 0 
L 628 0 
L 628 4666 
z
" transform="scale(0.015625)"/>
        <path id="DejaVuSans-75" d="M 544 1381 
L 544 3500 
L 1119 3500 
L 1119 1403 
Q 1119 906 1312 657 
Q 1506 409 1894 409 
Q 2359 409 2629 706 
Q 2900 1003 2900 1516 
L 2900 3500 
L 3475 3500 
L 3475 0 
L 2900 0 
L 2900 538 
Q 2691 219 2414 64 
Q 2138 -91 1772 -91 
Q 1169 -91 856 284 
Q 544 659 544 1381 
z
M 1991 3584 
L 1991 3584 
z
" transform="scale(0.015625)"/>
        <path id="DejaVuSans-57" d="M 213 4666 
L 850 4666 
L 1831 722 
L 2809 4666 
L 3519 4666 
L 4500 722 
L 5478 4666 
L 6119 4666 
L 4947 0 
L 4153 0 
L 3169 4050 
L 2175 0 
L 1381 0 
L 213 4666 
z
" transform="scale(0.015625)"/>
        <path id="DejaVuSans-6b" d="M 581 4863 
L 1159 4863 
L 1159 1991 
L 2875 3500 
L 3609 3500 
L 1753 1863 
L 3688 0 
L 2938 0 
L 1159 1709 
L 1159 0 
L 581 0 
L 581 4863 
z
" transform="scale(0.015625)"/>
       </defs>
       <use xlink:href="#DejaVuSans-50"/>
       <use xlink:href="#DejaVuSans-61" x="55.802734"/>
       <use xlink:href="#DejaVuSans-75" x="117.082031"/>
       <use xlink:href="#DejaVuSans-6c" x="180.460938"/>
       <use xlink:href="#DejaVuSans-20" x="208.244141"/>
       <use xlink:href="#DejaVuSans-57" x="240.03125"/>
       <use xlink:href="#DejaVuSans-61" x="332.533203"/>
       <use xlink:href="#DejaVuSans-6c" x="393.8125"/>
       <use xlink:href="#DejaVuSans-6b" x="421.595703"/>
       <use xlink:href="#DejaVuSans-65" x="475.880859"/>
       <use xlink:href="#DejaVuSans-72" x="537.404297"/>
      </g>
     </g>
    </g>
    <g id="xtick_3">
     <g id="line2d_3">
      <g>
       <use xlink:href="#m62e7a720f6" x="246.545" y="257.96" style="stroke: #000000; stroke-width: 0.8"/>
      </g>
     </g>
     <g id="text_3">
      <!-- Russell Crowe -->
      <g transform="translate(249.304375 334.420937) rotate(-90) scale(0.1 -0.1)">
       <defs>
        <path id="DejaVuSans-52" d="M 2841 2188 
Q 3044 2119 3236 1894 
Q 3428 1669 3622 1275 
L 4263 0 
L 3584 0 
L 2988 1197 
Q 2756 1666 2539 1819 
Q 2322 1972 1947 1972 
L 1259 1972 
L 1259 0 
L 628 0 
L 628 4666 
L 2053 4666 
Q 2853 4666 3247 4331 
Q 3641 3997 3641 3322 
Q 3641 2881 3436 2590 
Q 3231 2300 2841 2188 
z
M 1259 4147 
L 1259 2491 
L 2053 2491 
Q 2509 2491 2742 2702 
Q 2975 2913 2975 3322 
Q 2975 3731 2742 3939 
Q 2509 4147 2053 4147 
L 1259 4147 
z
" transform="scale(0.015625)"/>
        <path id="DejaVuSans-6f" d="M 1959 3097 
Q 1497 3097 1228 2736 
Q 959 2375 959 1747 
Q 959 1119 1226 758 
Q 1494 397 1959 397 
Q 2419 397 2687 759 
Q 2956 1122 2956 1747 
Q 2956 2369 2687 2733 
Q 2419 3097 1959 3097 
z
M 1959 3584 
Q 2709 3584 3137 3096 
Q 3566 2609 3566 1747 
Q 3566 888 3137 398 
Q 2709 -91 1959 -91 
Q 1206 -91 779 398 
Q 353 888 353 1747 
Q 353 2609 779 3096 
Q 1206 3584 1959 3584 
z
" transform="scale(0.015625)"/>
        <path id="DejaVuSans-77" d="M 269 3500 
L 844 3500 
L 1563 769 
L 2278 3500 
L 2956 3500 
L 3675 769 
L 4391 3500 
L 4966 3500 
L 4050 0 
L 3372 0 
L 2619 2869 
L 1863 0 
L 1184 0 
L 269 3500 
z
" transform="scale(0.015625)"/>
       </defs>
       <use xlink:href="#DejaVuSans-52"/>
       <use xlink:href="#DejaVuSans-75" x="64.982422"/>
       <use xlink:href="#DejaVuSans-73" x="128.361328"/>
       <use xlink:href="#DejaVuSans-73" x="180.460938"/>
       <use xlink:href="#DejaVuSans-65" x="232.560547"/>
       <use xlink:href="#DejaVuSans-6c" x="294.083984"/>
       <use xlink:href="#DejaVuSans-6c" x="321.867188"/>
       <use xlink:href="#DejaVuSans-20" x="349.650391"/>
       <use xlink:href="#DejaVuSans-43" x="381.4375"/>
       <use xlink:href="#DejaVuSans-72" x="451.261719"/>
       <use xlink:href="#DejaVuSans-6f" x="490.125"/>
       <use xlink:href="#DejaVuSans-77" x="551.306641"/>
       <use xlink:href="#DejaVuSans-65" x="633.09375"/>
      </g>
     </g>
    </g>
    <g id="xtick_4">
     <g id="line2d_4">
      <g>
       <use xlink:href="#m62e7a720f6" x="327.927" y="257.96" style="stroke: #000000; stroke-width: 0.8"/>
      </g>
     </g>
     <g id="text_4">
      <!-- Alan Tudyk -->
      <g transform="translate(330.686375 319.213125) rotate(-90) scale(0.1 -0.1)">
       <defs>
        <path id="DejaVuSans-41" d="M 2188 4044 
L 1331 1722 
L 3047 1722 
L 2188 4044 
z
M 1831 4666 
L 2547 4666 
L 4325 0 
L 3669 0 
L 3244 1197 
L 1141 1197 
L 716 0 
L 50 0 
L 1831 4666 
z
" transform="scale(0.015625)"/>
        <path id="DejaVuSans-54" d="M -19 4666 
L 3928 4666 
L 3928 4134 
L 2272 4134 
L 2272 0 
L 1638 0 
L 1638 4134 
L -19 4134 
L -19 4666 
z
" transform="scale(0.015625)"/>
        <path id="DejaVuSans-64" d="M 2906 2969 
L 2906 4863 
L 3481 4863 
L 3481 0 
L 2906 0 
L 2906 525 
Q 2725 213 2448 61 
Q 2172 -91 1784 -91 
Q 1150 -91 751 415 
Q 353 922 353 1747 
Q 353 2572 751 3078 
Q 1150 3584 1784 3584 
Q 2172 3584 2448 3432 
Q 2725 3281 2906 2969 
z
M 947 1747 
Q 947 1113 1208 752 
Q 1469 391 1925 391 
Q 2381 391 2643 752 
Q 2906 1113 2906 1747 
Q 2906 2381 2643 2742 
Q 2381 3103 1925 3103 
Q 1469 3103 1208 2742 
Q 947 2381 947 1747 
z
" transform="scale(0.015625)"/>
        <path id="DejaVuSans-79" d="M 2059 -325 
Q 1816 -950 1584 -1140 
Q 1353 -1331 966 -1331 
L 506 -1331 
L 506 -850 
L 844 -850 
Q 1081 -850 1212 -737 
Q 1344 -625 1503 -206 
L 1606 56 
L 191 3500 
L 800 3500 
L 1894 763 
L 2988 3500 
L 3597 3500 
L 2059 -325 
z
" transform="scale(0.015625)"/>
       </defs>
       <use xlink:href="#DejaVuSans-41"/>
       <use xlink:href="#DejaVuSans-6c" x="68.408203"/>
       <use xlink:href="#DejaVuSans-61" x="96.191406"/>
       <use xlink:href="#DejaVuSans-6e" x="157.470703"/>
       <use xlink:href="#DejaVuSans-20" x="220.849609"/>
       <use xlink:href="#DejaVuSans-54" x="252.636719"/>
       <use xlink:href="#DejaVuSans-75" x="298.595703"/>
       <use xlink:href="#DejaVuSans-64" x="361.974609"/>
       <use xlink:href="#DejaVuSans-79" x="425.451172"/>
       <use xlink:href="#DejaVuSans-6b" x="484.630859"/>
      </g>
     </g>
    </g>
    <g id="xtick_5">
     <g id="line2d_5">
      <g>
       <use xlink:href="#m62e7a720f6" x="409.309" y="257.96" style="stroke: #000000; stroke-width: 0.8"/>
      </g>
     </g>
     <g id="text_5">
      <!-- Luke Wilson -->
      <g transform="translate(412.068375 324.338125) rotate(-90) scale(0.1 -0.1)">
       <defs>
        <path id="DejaVuSans-4c" d="M 628 4666 
L 1259 4666 
L 1259 531 
L 3531 531 
L 3531 0 
L 628 0 
L 628 4666 
z
" transform="scale(0.015625)"/>
       </defs>
       <use xlink:href="#DejaVuSans-4c"/>
       <use xlink:href="#DejaVuSans-75" x="53.962891"/>
       <use xlink:href="#DejaVuSans-6b" x="117.341797"/>
       <use xlink:href="#DejaVuSans-65" x="171.626953"/>
       <use xlink:href="#DejaVuSans-20" x="233.150391"/>
       <use xlink:href="#DejaVuSans-57" x="264.9375"/>
       <use xlink:href="#DejaVuSans-69" x="361.564453"/>
       <use xlink:href="#DejaVuSans-6c" x="389.347656"/>
       <use xlink:href="#DejaVuSans-73" x="417.130859"/>
       <use xlink:href="#DejaVuSans-6f" x="469.230469"/>
       <use xlink:href="#DejaVuSans-6e" x="530.412109"/>
      </g>
     </g>
    </g>
   </g>
   <g id="matplotlib.axis_2">
    <g id="ytick_1">
     <g id="line2d_6">
      <defs>
       <path id="me919509b4d" d="M 0 0 
L -3.5 0 
" style="stroke: #000000; stroke-width: 0.8"/>
      </defs>
      <g>
       <use xlink:href="#me919509b4d" x="43.09" y="257.96" style="stroke: #000000; stroke-width: 0.8"/>
      </g>
     </g>
     <g id="text_6">
      <!-- 0 -->
      <g transform="translate(29.7275 261.759219) scale(0.1 -0.1)">
       <defs>
        <path id="DejaVuSans-30" d="M 2034 4250 
Q 1547 4250 1301 3770 
Q 1056 3291 1056 2328 
Q 1056 1369 1301 889 
Q 1547 409 2034 409 
Q 2525 409 2770 889 
Q 3016 1369 3016 2328 
Q 3016 3291 2770 3770 
Q 2525 4250 2034 4250 
z
M 2034 4750 
Q 2819 4750 3233 4129 
Q 3647 3509 3647 2328 
Q 3647 1150 3233 529 
Q 2819 -91 2034 -91 
Q 1250 -91 836 529 
Q 422 1150 422 2328 
Q 422 3509 836 4129 
Q 1250 4750 2034 4750 
z
" transform="scale(0.015625)"/>
       </defs>
       <use xlink:href="#DejaVuSans-30"/>
      </g>
     </g>
    </g>
    <g id="ytick_2">
     <g id="line2d_7">
      <g>
       <use xlink:href="#me919509b4d" x="43.09" y="222.57111" style="stroke: #000000; stroke-width: 0.8"/>
      </g>
     </g>
     <g id="text_7">
      <!-- 500 -->
      <g transform="translate(17.0025 226.370329) scale(0.1 -0.1)">
       <defs>
        <path id="DejaVuSans-35" d="M 691 4666 
L 3169 4666 
L 3169 4134 
L 1269 4134 
L 1269 2991 
Q 1406 3038 1543 3061 
Q 1681 3084 1819 3084 
Q 2600 3084 3056 2656 
Q 3513 2228 3513 1497 
Q 3513 744 3044 326 
Q 2575 -91 1722 -91 
Q 1428 -91 1123 -41 
Q 819 9 494 109 
L 494 744 
Q 775 591 1075 516 
Q 1375 441 1709 441 
Q 2250 441 2565 725 
Q 2881 1009 2881 1497 
Q 2881 1984 2565 2268 
Q 2250 2553 1709 2553 
Q 1456 2553 1204 2497 
Q 953 2441 691 2322 
L 691 4666 
z
" transform="scale(0.015625)"/>
       </defs>
       <use xlink:href="#DejaVuSans-35"/>
       <use xlink:href="#DejaVuSans-30" x="63.623047"/>
       <use xlink:href="#DejaVuSans-30" x="127.246094"/>
      </g>
     </g>
    </g>
    <g id="ytick_3">
     <g id="line2d_8">
      <g>
       <use xlink:href="#me919509b4d" x="43.09" y="187.18222" style="stroke: #000000; stroke-width: 0.8"/>
      </g>
     </g>
     <g id="text_8">
      <!-- 1000 -->
      <g transform="translate(10.64 190.981439) scale(0.1 -0.1)">
       <defs>
        <path id="DejaVuSans-31" d="M 794 531 
L 1825 531 
L 1825 4091 
L 703 3866 
L 703 4441 
L 1819 4666 
L 2450 4666 
L 2450 531 
L 3481 531 
L 3481 0 
L 794 0 
L 794 531 
z
" transform="scale(0.015625)"/>
       </defs>
       <use xlink:href="#DejaVuSans-31"/>
       <use xlink:href="#DejaVuSans-30" x="63.623047"/>
       <use xlink:href="#DejaVuSans-30" x="127.246094"/>
       <use xlink:href="#DejaVuSans-30" x="190.869141"/>
      </g>
     </g>
    </g>
    <g id="ytick_4">
     <g id="line2d_9">
      <g>
       <use xlink:href="#me919509b4d" x="43.09" y="151.79333" style="stroke: #000000; stroke-width: 0.8"/>
      </g>
     </g>
     <g id="text_9">
      <!-- 1500 -->
      <g transform="translate(10.64 155.592549) scale(0.1 -0.1)">
       <use xlink:href="#DejaVuSans-31"/>
       <use xlink:href="#DejaVuSans-35" x="63.623047"/>
       <use xlink:href="#DejaVuSans-30" x="127.246094"/>
       <use xlink:href="#DejaVuSans-30" x="190.869141"/>
      </g>
     </g>
    </g>
    <g id="ytick_5">
     <g id="line2d_10">
      <g>
       <use xlink:href="#me919509b4d" x="43.09" y="116.40444" style="stroke: #000000; stroke-width: 0.8"/>
      </g>
     </g>
     <g id="text_10">
      <!-- 2000 -->
      <g transform="translate(10.64 120.203659) scale(0.1 -0.1)">
       <defs>
        <path id="DejaVuSans-32" d="M 1228 531 
L 3431 531 
L 3431 0 
L 469 0 
L 469 531 
Q 828 903 1448 1529 
Q 2069 2156 2228 2338 
Q 2531 2678 2651 2914 
Q 2772 3150 2772 3378 
Q 2772 3750 2511 3984 
Q 2250 4219 1831 4219 
Q 1534 4219 1204 4116 
Q 875 4013 500 3803 
L 500 4441 
Q 881 4594 1212 4672 
Q 1544 4750 1819 4750 
Q 2544 4750 2975 4387 
Q 3406 4025 3406 3419 
Q 3406 3131 3298 2873 
Q 3191 2616 2906 2266 
Q 2828 2175 2409 1742 
Q 1991 1309 1228 531 
z
" transform="scale(0.015625)"/>
       </defs>
       <use xlink:href="#DejaVuSans-32"/>
       <use xlink:href="#DejaVuSans-30" x="63.623047"/>
       <use xlink:href="#DejaVuSans-30" x="127.246094"/>
       <use xlink:href="#DejaVuSans-30" x="190.869141"/>
      </g>
     </g>
    </g>
    <g id="ytick_6">
     <g id="line2d_11">
      <g>
       <use xlink:href="#me919509b4d" x="43.09" y="81.01555" style="stroke: #000000; stroke-width: 0.8"/>
      </g>
     </g>
     <g id="text_11">
      <!-- 2500 -->
      <g transform="translate(10.64 84.814769) scale(0.1 -0.1)">
       <use xlink:href="#DejaVuSans-32"/>
       <use xlink:href="#DejaVuSans-35" x="63.623047"/>
       <use xlink:href="#DejaVuSans-30" x="127.246094"/>
       <use xlink:href="#DejaVuSans-30" x="190.869141"/>
      </g>
     </g>
    </g>
    <g id="ytick_7">
     <g id="line2d_12">
      <g>
       <use xlink:href="#me919509b4d" x="43.09" y="45.62666" style="stroke: #000000; stroke-width: 0.8"/>
      </g>
     </g>
     <g id="text_12">
      <!-- 3000 -->
      <g transform="translate(10.64 49.425879) scale(0.1 -0.1)">
       <defs>
        <path id="DejaVuSans-33" d="M 2597 2516 
Q 3050 2419 3304 2112 
Q 3559 1806 3559 1356 
Q 3559 666 3084 287 
Q 2609 -91 1734 -91 
Q 1441 -91 1130 -33 
Q 819 25 488 141 
L 488 750 
Q 750 597 1062 519 
Q 1375 441 1716 441 
Q 2309 441 2620 675 
Q 2931 909 2931 1356 
Q 2931 1769 2642 2001 
Q 2353 2234 1838 2234 
L 1294 2234 
L 1294 2753 
L 1863 2753 
Q 2328 2753 2575 2939 
Q 2822 3125 2822 3475 
Q 2822 3834 2567 4026 
Q 2313 4219 1838 4219 
Q 1578 4219 1281 4162 
Q 984 4106 628 3988 
L 628 4550 
Q 988 4650 1302 4700 
Q 1616 4750 1894 4750 
Q 2613 4750 3031 4423 
Q 3450 4097 3450 3541 
Q 3450 3153 3228 2886 
Q 3006 2619 2597 2516 
z
" transform="scale(0.015625)"/>
       </defs>
       <use xlink:href="#DejaVuSans-33"/>
       <use xlink:href="#DejaVuSans-30" x="63.623047"/>
       <use xlink:href="#DejaVuSans-30" x="127.246094"/>
       <use xlink:href="#DejaVuSans-30" x="190.869141"/>
      </g>
     </g>
    </g>
   </g>
   <g id="patch_353">
    <path d="M 43.09 257.96 
L 43.09 10.8 
" style="fill: none; stroke: #000000; stroke-width: 0.8; stroke-linejoin: miter; stroke-linecap: square"/>
   </g>
   <g id="patch_354">
    <path d="M 450 257.96 
L 450 10.8 
" style="fill: none; stroke: #000000; stroke-width: 0.8; stroke-linejoin: miter; stroke-linecap: square"/>
   </g>
   <g id="patch_355">
    <path d="M 43.09 257.96 
L 450 257.96 
" style="fill: none; stroke: #000000; stroke-width: 0.8; stroke-linejoin: miter; stroke-linecap: square"/>
   </g>
   <g id="patch_356">
    <path d="M 43.09 10.8 
L 450 10.8 
" style="fill: none; stroke: #000000; stroke-width: 0.8; stroke-linejoin: miter; stroke-linecap: square"/>
   </g>
  </g>
 </g>
 <defs>
  <clipPath id="p5aeb9e1be3">
   <rect x="43.09" y="10.8" width="406.91" height="247.16"/>
  </clipPath>
 </defs>
</svg>
