<?xml version="1.0" encoding="utf-8" standalone="no"?>
<!DOCTYPE svg PUBLIC "-//W3C//DTD SVG 1.1//EN"
  "http://www.w3.org/Graphics/SVG/1.1/DTD/svg11.dtd">
<svg xmlns:xlink="http://www.w3.org/1999/xlink" width="460.8pt" height="345.6pt" viewBox="0 0 460.8 345.6" xmlns="http://www.w3.org/2000/svg" version="1.1">
 <metadata>
  <rdf:RDF xmlns:dc="http://purl.org/dc/elements/1.1/" xmlns:cc="http://creativecommons.org/ns#" xmlns:rdf="http://www.w3.org/1999/02/22-rdf-syntax-ns#">
   <cc:Work>
    <dc:type rdf:resource="http://purl.org/dc/dcmitype/StillImage"/>
    <dc:date>2022-12-20T12:31:07.680754</dc:date>
    <dc:format>image/svg+xml</dc:format>
    <dc:creator>
     <cc:Agent>
      <dc:title>Matplotlib v3.6.0, https://matplotlib.org/</dc:title>
     </cc:Agent>
    </dc:creator>
   </cc:Work>
  </rdf:RDF>
 </metadata>
 <defs>
  <style type="text/css">*{stroke-linejoin: round; stroke-linecap: butt}</style>
 </defs>
 <g id="figure_1">
  <g id="patch_1">
   <path d="M 0 345.6 
L 460.8 345.6 
L 460.8 0 
L 0 0 
z
" style="fill: #ffffff"/>
  </g>
  <g id="axes_1">
   <g id="patch_2">
    <path d="M 43.09 230.24 
L 450 230.24 
L 450 10.8 
L 43.09 10.8 
z
" style="fill: #ffffff"/>
   </g>
   <g id="patch_3">
    <path d="M 63.4355 230.24 
L 104.1265 230.24 
L 104.1265 159.58553 
L 63.4355 159.58553 
z
" clip-path="url(#p83335c5085)" style="fill: #1f77b4"/>
   </g>
   <g id="patch_4">
    <path d="M 144.8175 230.24 
L 185.5085 230.24 
L 185.5085 176.203391 
L 144.8175 176.203391 
z
" clip-path="url(#p83335c5085)" style="fill: #1f77b4"/>
   </g>
   <g id="patch_5">
    <path d="M 226.1995 230.24 
L 266.8905 230.24 
L 266.8905 171.2598 
L 226.1995 171.2598 
z
" clip-path="url(#p83335c5085)" style="fill: #1f77b4"/>
   </g>
   <g id="patch_6">
    <path d="M 307.5815 230.24 
L 348.2725 230.24 
L 348.2725 182.12204 
L 307.5815 182.12204 
z
" clip-path="url(#p83335c5085)" style="fill: #1f77b4"/>
   </g>
   <g id="patch_7">
    <path d="M 388.9635 230.24 
L 429.6545 230.24 
L 429.6545 201.290217 
L 388.9635 201.290217 
z
" clip-path="url(#p83335c5085)" style="fill: #1f77b4"/>
   </g>
   <g id="patch_8">
    <path d="M 63.4355 230.24 
L 104.1265 230.24 
L 104.1265 230.051481 
L 63.4355 230.051481 
z
" clip-path="url(#p83335c5085)" style="fill: #1f77b4"/>
   </g>
   <g id="patch_9">
    <path d="M 144.8175 230.24 
L 185.5085 230.24 
L 185.5085 230.17716 
L 144.8175 230.17716 
z
" clip-path="url(#p83335c5085)" style="fill: #1f77b4"/>
   </g>
   <g id="patch_10">
    <path d="M 226.1995 230.24 
L 266.8905 230.24 
L 266.8905 230.24 
L 226.1995 230.24 
z
" clip-path="url(#p83335c5085)" style="fill: #1f77b4"/>
   </g>
   <g id="patch_11">
    <path d="M 63.4355 230.24 
L 104.1265 230.24 
L 104.1265 230.219053 
L 63.4355 230.219053 
z
" clip-path="url(#p83335c5085)" style="fill: #1f77b4"/>
   </g>
   <g id="patch_12">
    <path d="M 144.8175 230.24 
L 185.5085 230.24 
L 185.5085 230.219053 
L 144.8175 230.219053 
z
" clip-path="url(#p83335c5085)" style="fill: #1f77b4"/>
   </g>
   <g id="patch_13">
    <path d="M 226.1995 230.24 
L 266.8905 230.24 
L 266.8905 230.219053 
L 226.1995 230.219053 
z
" clip-path="url(#p83335c5085)" style="fill: #1f77b4"/>
   </g>
   <g id="patch_14">
    <path d="M 307.5815 230.24 
L 348.2725 230.24 
L 348.2725 230.17716 
L 307.5815 230.17716 
z
" clip-path="url(#p83335c5085)" style="fill: #1f77b4"/>
   </g>
   <g id="patch_15">
    <path d="M 388.9635 230.24 
L 429.6545 230.24 
L 429.6545 230.24 
L 388.9635 230.24 
z
" clip-path="url(#p83335c5085)" style="fill: #1f77b4"/>
   </g>
   <g id="patch_16">
    <path d="M 63.4355 230.24 
L 104.1265 230.24 
L 104.1265 218.426124 
L 63.4355 218.426124 
z
" clip-path="url(#p83335c5085)" style="fill: #1f77b4"/>
   </g>
   <g id="patch_17">
    <path d="M 144.8175 230.24 
L 185.5085 230.24 
L 185.5085 226.909493 
L 144.8175 226.909493 
z
" clip-path="url(#p83335c5085)" style="fill: #1f77b4"/>
   </g>
   <g id="patch_18">
    <path d="M 226.1995 230.24 
L 266.8905 230.24 
L 266.8905 227.50647 
L 226.1995 227.50647 
z
" clip-path="url(#p83335c5085)" style="fill: #1f77b4"/>
   </g>
   <g id="patch_19">
    <path d="M 307.5815 230.24 
L 348.2725 230.24 
L 348.2725 218.740323 
L 307.5815 218.740323 
z
" clip-path="url(#p83335c5085)" style="fill: #1f77b4"/>
   </g>
   <g id="patch_20">
    <path d="M 388.9635 230.24 
L 429.6545 230.24 
L 429.6545 228.763266 
L 388.9635 228.763266 
z
" clip-path="url(#p83335c5085)" style="fill: #1f77b4"/>
   </g>
   <g id="patch_21">
    <path d="M 63.4355 230.24 
L 104.1265 230.24 
L 104.1265 230.17716 
L 63.4355 230.17716 
z
" clip-path="url(#p83335c5085)" style="fill: #1f77b4"/>
   </g>
   <g id="patch_22">
    <path d="M 144.8175 230.24 
L 185.5085 230.24 
L 185.5085 230.24 
L 144.8175 230.24 
z
" clip-path="url(#p83335c5085)" style="fill: #1f77b4"/>
   </g>
   <g id="patch_23">
    <path d="M 226.1995 230.24 
L 266.8905 230.24 
L 266.8905 230.24 
L 226.1995 230.24 
z
" clip-path="url(#p83335c5085)" style="fill: #1f77b4"/>
   </g>
   <g id="patch_24">
    <path d="M 307.5815 230.24 
L 348.2725 230.24 
L 348.2725 230.24 
L 307.5815 230.24 
z
" clip-path="url(#p83335c5085)" style="fill: #1f77b4"/>
   </g>
   <g id="patch_25">
    <path d="M 63.4355 230.24 
L 104.1265 230.24 
L 104.1265 228.543326 
L 63.4355 228.543326 
z
" clip-path="url(#p83335c5085)" style="fill: #1f77b4"/>
   </g>
   <g id="patch_26">
    <path d="M 144.8175 230.24 
L 185.5085 230.24 
L 185.5085 230.051481 
L 144.8175 230.051481 
z
" clip-path="url(#p83335c5085)" style="fill: #1f77b4"/>
   </g>
   <g id="patch_27">
    <path d="M 226.1995 230.24 
L 266.8905 230.24 
L 266.8905 230.17716 
L 226.1995 230.17716 
z
" clip-path="url(#p83335c5085)" style="fill: #1f77b4"/>
   </g>
   <g id="patch_28">
    <path d="M 307.5815 230.24 
L 348.2725 230.24 
L 348.2725 230.17716 
L 307.5815 230.17716 
z
" clip-path="url(#p83335c5085)" style="fill: #1f77b4"/>
   </g>
   <g id="patch_29">
    <path d="M 388.9635 230.24 
L 429.6545 230.24 
L 429.6545 229.800122 
L 388.9635 229.800122 
z
" clip-path="url(#p83335c5085)" style="fill: #1f77b4"/>
   </g>
   <g id="patch_30">
    <path d="M 63.4355 230.24 
L 104.1265 230.24 
L 104.1265 230.11432 
L 63.4355 230.11432 
z
" clip-path="url(#p83335c5085)" style="fill: #1f77b4"/>
   </g>
   <g id="patch_31">
    <path d="M 144.8175 230.24 
L 185.5085 230.24 
L 185.5085 230.11432 
L 144.8175 230.11432 
z
" clip-path="url(#p83335c5085)" style="fill: #1f77b4"/>
   </g>
   <g id="patch_32">
    <path d="M 226.1995 230.24 
L 266.8905 230.24 
L 266.8905 230.11432 
L 226.1995 230.11432 
z
" clip-path="url(#p83335c5085)" style="fill: #1f77b4"/>
   </g>
   <g id="patch_33">
    <path d="M 307.5815 230.24 
L 348.2725 230.24 
L 348.2725 230.11432 
L 307.5815 230.11432 
z
" clip-path="url(#p83335c5085)" style="fill: #1f77b4"/>
   </g>
   <g id="patch_34">
    <path d="M 388.9635 230.24 
L 429.6545 230.24 
L 429.6545 230.11432 
L 388.9635 230.11432 
z
" clip-path="url(#p83335c5085)" style="fill: #1f77b4"/>
   </g>
   <g id="patch_35">
    <path d="M 63.4355 230.24 
L 104.1265 230.24 
L 104.1265 230.051481 
L 63.4355 230.051481 
z
" clip-path="url(#p83335c5085)" style="fill: #1f77b4"/>
   </g>
   <g id="patch_36">
    <path d="M 144.8175 230.24 
L 185.5085 230.24 
L 185.5085 230.082901 
L 144.8175 230.082901 
z
" clip-path="url(#p83335c5085)" style="fill: #1f77b4"/>
   </g>
   <g id="patch_37">
    <path d="M 226.1995 230.24 
L 266.8905 230.24 
L 266.8905 230.17716 
L 226.1995 230.17716 
z
" clip-path="url(#p83335c5085)" style="fill: #1f77b4"/>
   </g>
   <g id="patch_38">
    <path d="M 307.5815 230.24 
L 348.2725 230.24 
L 348.2725 230.20858 
L 307.5815 230.20858 
z
" clip-path="url(#p83335c5085)" style="fill: #1f77b4"/>
   </g>
   <g id="patch_39">
    <path d="M 388.9635 230.24 
L 429.6545 230.24 
L 429.6545 230.20858 
L 388.9635 230.20858 
z
" clip-path="url(#p83335c5085)" style="fill: #1f77b4"/>
   </g>
   <g id="patch_40">
    <path d="M 63.4355 230.24 
L 104.1265 230.24 
L 104.1265 230.051481 
L 63.4355 230.051481 
z
" clip-path="url(#p83335c5085)" style="fill: #1f77b4"/>
   </g>
   <g id="patch_41">
    <path d="M 144.8175 230.24 
L 185.5085 230.24 
L 185.5085 230.24 
L 144.8175 230.24 
z
" clip-path="url(#p83335c5085)" style="fill: #1f77b4"/>
   </g>
   <g id="patch_42">
    <path d="M 226.1995 230.24 
L 266.8905 230.24 
L 266.8905 230.24 
L 226.1995 230.24 
z
" clip-path="url(#p83335c5085)" style="fill: #1f77b4"/>
   </g>
   <g id="patch_43">
    <path d="M 63.4355 230.24 
L 104.1265 230.24 
L 104.1265 230.051481 
L 63.4355 230.051481 
z
" clip-path="url(#p83335c5085)" style="fill: #1f77b4"/>
   </g>
   <g id="patch_44">
    <path d="M 144.8175 230.24 
L 185.5085 230.24 
L 185.5085 230.17716 
L 144.8175 230.17716 
z
" clip-path="url(#p83335c5085)" style="fill: #1f77b4"/>
   </g>
   <g id="patch_45">
    <path d="M 63.4355 230.24 
L 104.1265 230.24 
L 104.1265 160.951678 
L 63.4355 160.951678 
z
" clip-path="url(#p83335c5085)" style="fill: #1f77b4"/>
   </g>
   <g id="patch_46">
    <path d="M 144.8175 230.24 
L 185.5085 230.24 
L 185.5085 180.45378 
L 144.8175 180.45378 
z
" clip-path="url(#p83335c5085)" style="fill: #1f77b4"/>
   </g>
   <g id="patch_47">
    <path d="M 226.1995 230.24 
L 266.8905 230.24 
L 266.8905 186.967524 
L 226.1995 186.967524 
z
" clip-path="url(#p83335c5085)" style="fill: #1f77b4"/>
   </g>
   <g id="patch_48">
    <path d="M 307.5815 230.24 
L 348.2725 230.24 
L 348.2725 180.626706 
L 307.5815 180.626706 
z
" clip-path="url(#p83335c5085)" style="fill: #1f77b4"/>
   </g>
   <g id="patch_49">
    <path d="M 388.9635 230.24 
L 429.6545 230.24 
L 429.6545 193.749915 
L 388.9635 193.749915 
z
" clip-path="url(#p83335c5085)" style="fill: #1f77b4"/>
   </g>
   <g id="patch_50">
    <path d="M 63.4355 230.24 
L 104.1265 230.24 
L 104.1265 230.24 
L 63.4355 230.24 
z
" clip-path="url(#p83335c5085)" style="fill: #1f77b4"/>
   </g>
   <g id="patch_51">
    <path d="M 144.8175 230.24 
L 185.5085 230.24 
L 185.5085 230.24 
L 144.8175 230.24 
z
" clip-path="url(#p83335c5085)" style="fill: #1f77b4"/>
   </g>
   <g id="patch_52">
    <path d="M 226.1995 230.24 
L 266.8905 230.24 
L 266.8905 230.24 
L 226.1995 230.24 
z
" clip-path="url(#p83335c5085)" style="fill: #1f77b4"/>
   </g>
   <g id="patch_53">
    <path d="M 307.5815 230.24 
L 348.2725 230.24 
L 348.2725 230.24 
L 307.5815 230.24 
z
" clip-path="url(#p83335c5085)" style="fill: #1f77b4"/>
   </g>
   <g id="patch_54">
    <path d="M 388.9635 230.24 
L 429.6545 230.24 
L 429.6545 230.24 
L 388.9635 230.24 
z
" clip-path="url(#p83335c5085)" style="fill: #1f77b4"/>
   </g>
   <g id="patch_55">
    <path d="M 63.4355 230.24 
L 104.1265 230.24 
L 104.1265 230.17716 
L 63.4355 230.17716 
z
" clip-path="url(#p83335c5085)" style="fill: #1f77b4"/>
   </g>
   <g id="patch_56">
    <path d="M 144.8175 230.24 
L 185.5085 230.24 
L 185.5085 230.24 
L 144.8175 230.24 
z
" clip-path="url(#p83335c5085)" style="fill: #1f77b4"/>
   </g>
   <g id="patch_57">
    <path d="M 226.1995 230.24 
L 266.8905 230.24 
L 266.8905 230.24 
L 226.1995 230.24 
z
" clip-path="url(#p83335c5085)" style="fill: #1f77b4"/>
   </g>
   <g id="patch_58">
    <path d="M 307.5815 230.24 
L 348.2725 230.24 
L 348.2725 230.24 
L 307.5815 230.24 
z
" clip-path="url(#p83335c5085)" style="fill: #1f77b4"/>
   </g>
   <g id="patch_59">
    <path d="M 388.9635 230.24 
L 429.6545 230.24 
L 429.6545 230.24 
L 388.9635 230.24 
z
" clip-path="url(#p83335c5085)" style="fill: #1f77b4"/>
   </g>
   <g id="patch_60">
    <path d="M 63.4355 230.24 
L 104.1265 230.24 
L 104.1265 229.894381 
L 63.4355 229.894381 
z
" clip-path="url(#p83335c5085)" style="fill: #1f77b4"/>
   </g>
   <g id="patch_61">
    <path d="M 144.8175 230.24 
L 185.5085 230.24 
L 185.5085 230.051481 
L 144.8175 230.051481 
z
" clip-path="url(#p83335c5085)" style="fill: #1f77b4"/>
   </g>
   <g id="patch_62">
    <path d="M 226.1995 230.24 
L 266.8905 230.24 
L 266.8905 230.20858 
L 226.1995 230.20858 
z
" clip-path="url(#p83335c5085)" style="fill: #1f77b4"/>
   </g>
   <g id="patch_63">
    <path d="M 307.5815 230.24 
L 348.2725 230.24 
L 348.2725 230.24 
L 307.5815 230.24 
z
" clip-path="url(#p83335c5085)" style="fill: #1f77b4"/>
   </g>
   <g id="patch_64">
    <path d="M 388.9635 230.24 
L 429.6545 230.24 
L 429.6545 230.24 
L 388.9635 230.24 
z
" clip-path="url(#p83335c5085)" style="fill: #1f77b4"/>
   </g>
   <g id="patch_65">
    <path d="M 63.4355 230.24 
L 104.1265 230.24 
L 104.1265 223.296206 
L 63.4355 223.296206 
z
" clip-path="url(#p83335c5085)" style="fill: #1f77b4"/>
   </g>
   <g id="patch_66">
    <path d="M 144.8175 230.24 
L 185.5085 230.24 
L 185.5085 229.611602 
L 144.8175 229.611602 
z
" clip-path="url(#p83335c5085)" style="fill: #1f77b4"/>
   </g>
   <g id="patch_67">
    <path d="M 226.1995 230.24 
L 266.8905 230.24 
L 266.8905 226.448668 
L 226.1995 226.448668 
z
" clip-path="url(#p83335c5085)" style="fill: #1f77b4"/>
   </g>
   <g id="patch_68">
    <path d="M 307.5815 230.24 
L 348.2725 230.24 
L 348.2725 225.464178 
L 307.5815 225.464178 
z
" clip-path="url(#p83335c5085)" style="fill: #1f77b4"/>
   </g>
   <g id="patch_69">
    <path d="M 388.9635 230.24 
L 429.6545 230.24 
L 429.6545 226.375355 
L 388.9635 226.375355 
z
" clip-path="url(#p83335c5085)" style="fill: #1f77b4"/>
   </g>
   <g id="patch_70">
    <path d="M 63.4355 230.24 
L 104.1265 230.24 
L 104.1265 209.327582 
L 63.4355 209.327582 
z
" clip-path="url(#p83335c5085)" style="fill: #1f77b4"/>
   </g>
   <g id="patch_71">
    <path d="M 144.8175 230.24 
L 185.5085 230.24 
L 185.5085 212.32853 
L 144.8175 212.32853 
z
" clip-path="url(#p83335c5085)" style="fill: #1f77b4"/>
   </g>
   <g id="patch_72">
    <path d="M 226.1995 230.24 
L 266.8905 230.24 
L 266.8905 186.741728 
L 226.1995 186.741728 
z
" clip-path="url(#p83335c5085)" style="fill: #1f77b4"/>
   </g>
   <g id="patch_73">
    <path d="M 307.5815 230.24 
L 348.2725 230.24 
L 348.2725 204.009637 
L 307.5815 204.009637 
z
" clip-path="url(#p83335c5085)" style="fill: #1f77b4"/>
   </g>
   <g id="patch_74">
    <path d="M 388.9635 230.24 
L 429.6545 230.24 
L 429.6545 186.455335 
L 388.9635 186.455335 
z
" clip-path="url(#p83335c5085)" style="fill: #1f77b4"/>
   </g>
   <g id="patch_75">
    <path d="M 63.4355 230.24 
L 104.1265 230.24 
L 104.1265 230.24 
L 63.4355 230.24 
z
" clip-path="url(#p83335c5085)" style="fill: #1f77b4"/>
   </g>
   <g id="patch_76">
    <path d="M 144.8175 230.24 
L 185.5085 230.24 
L 185.5085 230.24 
L 144.8175 230.24 
z
" clip-path="url(#p83335c5085)" style="fill: #1f77b4"/>
   </g>
   <g id="patch_77">
    <path d="M 63.4355 230.24 
L 104.1265 230.24 
L 104.1265 229.454503 
L 63.4355 229.454503 
z
" clip-path="url(#p83335c5085)" style="fill: #1f77b4"/>
   </g>
   <g id="patch_78">
    <path d="M 144.8175 230.24 
L 185.5085 230.24 
L 185.5085 229.611602 
L 144.8175 229.611602 
z
" clip-path="url(#p83335c5085)" style="fill: #1f77b4"/>
   </g>
   <g id="patch_79">
    <path d="M 226.1995 230.24 
L 266.8905 230.24 
L 266.8905 229.862961 
L 226.1995 229.862961 
z
" clip-path="url(#p83335c5085)" style="fill: #1f77b4"/>
   </g>
   <g id="patch_80">
    <path d="M 307.5815 230.24 
L 348.2725 230.24 
L 348.2725 230.17716 
L 307.5815 230.17716 
z
" clip-path="url(#p83335c5085)" style="fill: #1f77b4"/>
   </g>
   <g id="patch_81">
    <path d="M 388.9635 230.24 
L 429.6545 230.24 
L 429.6545 230.11432 
L 388.9635 230.11432 
z
" clip-path="url(#p83335c5085)" style="fill: #1f77b4"/>
   </g>
   <g id="patch_82">
    <path d="M 63.4355 230.24 
L 104.1265 230.24 
L 104.1265 230.051481 
L 63.4355 230.051481 
z
" clip-path="url(#p83335c5085)" style="fill: #1f77b4"/>
   </g>
   <g id="patch_83">
    <path d="M 144.8175 230.24 
L 185.5085 230.24 
L 185.5085 230.051481 
L 144.8175 230.051481 
z
" clip-path="url(#p83335c5085)" style="fill: #1f77b4"/>
   </g>
   <g id="patch_84">
    <path d="M 226.1995 230.24 
L 266.8905 230.24 
L 266.8905 230.17716 
L 226.1995 230.17716 
z
" clip-path="url(#p83335c5085)" style="fill: #1f77b4"/>
   </g>
   <g id="patch_85">
    <path d="M 307.5815 230.24 
L 348.2725 230.24 
L 348.2725 230.24 
L 307.5815 230.24 
z
" clip-path="url(#p83335c5085)" style="fill: #1f77b4"/>
   </g>
   <g id="patch_86">
    <path d="M 388.9635 230.24 
L 429.6545 230.24 
L 429.6545 230.24 
L 388.9635 230.24 
z
" clip-path="url(#p83335c5085)" style="fill: #1f77b4"/>
   </g>
   <g id="patch_87">
    <path d="M 63.4355 230.24 
L 104.1265 230.24 
L 104.1265 228.920365 
L 63.4355 228.920365 
z
" clip-path="url(#p83335c5085)" style="fill: #1f77b4"/>
   </g>
   <g id="patch_88">
    <path d="M 144.8175 230.24 
L 185.5085 230.24 
L 185.5085 230.20858 
L 144.8175 230.20858 
z
" clip-path="url(#p83335c5085)" style="fill: #1f77b4"/>
   </g>
   <g id="patch_89">
    <path d="M 226.1995 230.24 
L 266.8905 230.24 
L 266.8905 230.20858 
L 226.1995 230.20858 
z
" clip-path="url(#p83335c5085)" style="fill: #1f77b4"/>
   </g>
   <g id="patch_90">
    <path d="M 307.5815 230.24 
L 348.2725 230.24 
L 348.2725 230.20858 
L 307.5815 230.20858 
z
" clip-path="url(#p83335c5085)" style="fill: #1f77b4"/>
   </g>
   <g id="patch_91">
    <path d="M 388.9635 230.24 
L 429.6545 230.24 
L 429.6545 230.20858 
L 388.9635 230.20858 
z
" clip-path="url(#p83335c5085)" style="fill: #1f77b4"/>
   </g>
   <g id="patch_92">
    <path d="M 63.4355 230.24 
L 104.1265 230.24 
L 104.1265 230.24 
L 63.4355 230.24 
z
" clip-path="url(#p83335c5085)" style="fill: #1f77b4"/>
   </g>
   <g id="patch_93">
    <path d="M 63.4355 230.24 
L 104.1265 230.24 
L 104.1265 229.925801 
L 63.4355 229.925801 
z
" clip-path="url(#p83335c5085)" style="fill: #1f77b4"/>
   </g>
   <g id="patch_94">
    <path d="M 144.8175 230.24 
L 185.5085 230.24 
L 185.5085 229.925801 
L 144.8175 229.925801 
z
" clip-path="url(#p83335c5085)" style="fill: #1f77b4"/>
   </g>
   <g id="patch_95">
    <path d="M 226.1995 230.24 
L 266.8905 230.24 
L 266.8905 230.17716 
L 226.1995 230.17716 
z
" clip-path="url(#p83335c5085)" style="fill: #1f77b4"/>
   </g>
   <g id="patch_96">
    <path d="M 63.4355 230.24 
L 104.1265 230.24 
L 104.1265 228.920365 
L 63.4355 228.920365 
z
" clip-path="url(#p83335c5085)" style="fill: #1f77b4"/>
   </g>
   <g id="patch_97">
    <path d="M 144.8175 230.24 
L 185.5085 230.24 
L 185.5085 230.17716 
L 144.8175 230.17716 
z
" clip-path="url(#p83335c5085)" style="fill: #1f77b4"/>
   </g>
   <g id="patch_98">
    <path d="M 226.1995 230.24 
L 266.8905 230.24 
L 266.8905 230.17716 
L 226.1995 230.17716 
z
" clip-path="url(#p83335c5085)" style="fill: #1f77b4"/>
   </g>
   <g id="patch_99">
    <path d="M 307.5815 230.24 
L 348.2725 230.24 
L 348.2725 230.24 
L 307.5815 230.24 
z
" clip-path="url(#p83335c5085)" style="fill: #1f77b4"/>
   </g>
   <g id="patch_100">
    <path d="M 388.9635 230.24 
L 429.6545 230.24 
L 429.6545 230.24 
L 388.9635 230.24 
z
" clip-path="url(#p83335c5085)" style="fill: #1f77b4"/>
   </g>
   <g id="patch_101">
    <path d="M 63.4355 230.24 
L 104.1265 230.24 
L 104.1265 230.24 
L 63.4355 230.24 
z
" clip-path="url(#p83335c5085)" style="fill: #1f77b4"/>
   </g>
   <g id="patch_102">
    <path d="M 63.4355 230.24 
L 104.1265 230.24 
L 104.1265 159.20343 
L 63.4355 159.20343 
z
" clip-path="url(#p83335c5085)" style="fill: #1f77b4"/>
   </g>
   <g id="patch_103">
    <path d="M 144.8175 230.24 
L 185.5085 230.24 
L 185.5085 174.833904 
L 144.8175 174.833904 
z
" clip-path="url(#p83335c5085)" style="fill: #1f77b4"/>
   </g>
   <g id="patch_104">
    <path d="M 226.1995 230.24 
L 266.8905 230.24 
L 266.8905 185.404858 
L 226.1995 185.404858 
z
" clip-path="url(#p83335c5085)" style="fill: #1f77b4"/>
   </g>
   <g id="patch_105">
    <path d="M 307.5815 230.24 
L 348.2725 230.24 
L 348.2725 193.551592 
L 307.5815 193.551592 
z
" clip-path="url(#p83335c5085)" style="fill: #1f77b4"/>
   </g>
   <g id="patch_106">
    <path d="M 388.9635 230.24 
L 429.6545 230.24 
L 429.6545 199.36278 
L 388.9635 199.36278 
z
" clip-path="url(#p83335c5085)" style="fill: #1f77b4"/>
   </g>
   <g id="patch_107">
    <path d="M 63.4355 230.24 
L 104.1265 230.24 
L 104.1265 229.925801 
L 63.4355 229.925801 
z
" clip-path="url(#p83335c5085)" style="fill: #1f77b4"/>
   </g>
   <g id="patch_108">
    <path d="M 144.8175 230.24 
L 185.5085 230.24 
L 185.5085 229.925801 
L 144.8175 229.925801 
z
" clip-path="url(#p83335c5085)" style="fill: #1f77b4"/>
   </g>
   <g id="patch_109">
    <path d="M 226.1995 230.24 
L 266.8905 230.24 
L 266.8905 229.925801 
L 226.1995 229.925801 
z
" clip-path="url(#p83335c5085)" style="fill: #1f77b4"/>
   </g>
   <g id="patch_110">
    <path d="M 307.5815 230.24 
L 348.2725 230.24 
L 348.2725 230.20858 
L 307.5815 230.20858 
z
" clip-path="url(#p83335c5085)" style="fill: #1f77b4"/>
   </g>
   <g id="patch_111">
    <path d="M 388.9635 230.24 
L 429.6545 230.24 
L 429.6545 230.20858 
L 388.9635 230.20858 
z
" clip-path="url(#p83335c5085)" style="fill: #1f77b4"/>
   </g>
   <g id="patch_112">
    <path d="M 63.4355 230.24 
L 104.1265 230.24 
L 104.1265 193.136432 
L 63.4355 193.136432 
z
" clip-path="url(#p83335c5085)" style="fill: #1f77b4"/>
   </g>
   <g id="patch_113">
    <path d="M 144.8175 230.24 
L 185.5085 230.24 
L 185.5085 193.208764 
L 144.8175 193.208764 
z
" clip-path="url(#p83335c5085)" style="fill: #1f77b4"/>
   </g>
   <g id="patch_114">
    <path d="M 226.1995 230.24 
L 266.8905 230.24 
L 266.8905 205.860918 
L 226.1995 205.860918 
z
" clip-path="url(#p83335c5085)" style="fill: #1f77b4"/>
   </g>
   <g id="patch_115">
    <path d="M 307.5815 230.24 
L 348.2725 230.24 
L 348.2725 204.764717 
L 307.5815 204.764717 
z
" clip-path="url(#p83335c5085)" style="fill: #1f77b4"/>
   </g>
   <g id="patch_116">
    <path d="M 388.9635 230.24 
L 429.6545 230.24 
L 429.6545 192.870549 
L 388.9635 192.870549 
z
" clip-path="url(#p83335c5085)" style="fill: #1f77b4"/>
   </g>
   <g id="patch_117">
    <path d="M 63.4355 230.24 
L 104.1265 230.24 
L 104.1265 229.862961 
L 63.4355 229.862961 
z
" clip-path="url(#p83335c5085)" style="fill: #1f77b4"/>
   </g>
   <g id="patch_118">
    <path d="M 144.8175 230.24 
L 185.5085 230.24 
L 185.5085 229.925801 
L 144.8175 229.925801 
z
" clip-path="url(#p83335c5085)" style="fill: #1f77b4"/>
   </g>
   <g id="patch_119">
    <path d="M 226.1995 230.24 
L 266.8905 230.24 
L 266.8905 230.051481 
L 226.1995 230.051481 
z
" clip-path="url(#p83335c5085)" style="fill: #1f77b4"/>
   </g>
   <g id="patch_120">
    <path d="M 307.5815 230.24 
L 348.2725 230.24 
L 348.2725 230.11432 
L 307.5815 230.11432 
z
" clip-path="url(#p83335c5085)" style="fill: #1f77b4"/>
   </g>
   <g id="patch_121">
    <path d="M 388.9635 230.24 
L 429.6545 230.24 
L 429.6545 230.20858 
L 388.9635 230.20858 
z
" clip-path="url(#p83335c5085)" style="fill: #1f77b4"/>
   </g>
   <g id="patch_122">
    <path d="M 63.4355 230.24 
L 104.1265 230.24 
L 104.1265 230.051481 
L 63.4355 230.051481 
z
" clip-path="url(#p83335c5085)" style="fill: #1f77b4"/>
   </g>
   <g id="patch_123">
    <path d="M 144.8175 230.24 
L 185.5085 230.24 
L 185.5085 230.20858 
L 144.8175 230.20858 
z
" clip-path="url(#p83335c5085)" style="fill: #1f77b4"/>
   </g>
   <g id="patch_124">
    <path d="M 226.1995 230.24 
L 266.8905 230.24 
L 266.8905 230.20858 
L 226.1995 230.20858 
z
" clip-path="url(#p83335c5085)" style="fill: #1f77b4"/>
   </g>
   <g id="patch_125">
    <path d="M 307.5815 230.24 
L 348.2725 230.24 
L 348.2725 230.17716 
L 307.5815 230.17716 
z
" clip-path="url(#p83335c5085)" style="fill: #1f77b4"/>
   </g>
   <g id="patch_126">
    <path d="M 388.9635 230.24 
L 429.6545 230.24 
L 429.6545 230.24 
L 388.9635 230.24 
z
" clip-path="url(#p83335c5085)" style="fill: #1f77b4"/>
   </g>
   <g id="patch_127">
    <path d="M 63.4355 230.24 
L 104.1265 230.24 
L 104.1265 230.051481 
L 63.4355 230.051481 
z
" clip-path="url(#p83335c5085)" style="fill: #1f77b4"/>
   </g>
   <g id="patch_128">
    <path d="M 144.8175 230.24 
L 185.5085 230.24 
L 185.5085 230.17716 
L 144.8175 230.17716 
z
" clip-path="url(#p83335c5085)" style="fill: #1f77b4"/>
   </g>
   <g id="patch_129">
    <path d="M 226.1995 230.24 
L 266.8905 230.24 
L 266.8905 230.24 
L 226.1995 230.24 
z
" clip-path="url(#p83335c5085)" style="fill: #1f77b4"/>
   </g>
   <g id="patch_130">
    <path d="M 307.5815 230.24 
L 348.2725 230.24 
L 348.2725 230.24 
L 307.5815 230.24 
z
" clip-path="url(#p83335c5085)" style="fill: #1f77b4"/>
   </g>
   <g id="patch_131">
    <path d="M 388.9635 230.24 
L 429.6545 230.24 
L 429.6545 230.24 
L 388.9635 230.24 
z
" clip-path="url(#p83335c5085)" style="fill: #1f77b4"/>
   </g>
   <g id="patch_132">
    <path d="M 63.4355 230.24 
L 104.1265 230.24 
L 104.1265 228.582078 
L 63.4355 228.582078 
z
" clip-path="url(#p83335c5085)" style="fill: #1f77b4"/>
   </g>
   <g id="patch_133">
    <path d="M 144.8175 230.24 
L 185.5085 230.24 
L 185.5085 229.862961 
L 144.8175 229.862961 
z
" clip-path="url(#p83335c5085)" style="fill: #1f77b4"/>
   </g>
   <g id="patch_134">
    <path d="M 226.1995 230.24 
L 266.8905 230.24 
L 266.8905 229.345581 
L 226.1995 229.345581 
z
" clip-path="url(#p83335c5085)" style="fill: #1f77b4"/>
   </g>
   <g id="patch_135">
    <path d="M 307.5815 230.24 
L 348.2725 230.24 
L 348.2725 229.345581 
L 307.5815 229.345581 
z
" clip-path="url(#p83335c5085)" style="fill: #1f77b4"/>
   </g>
   <g id="patch_136">
    <path d="M 388.9635 230.24 
L 429.6545 230.24 
L 429.6545 229.345581 
L 388.9635 229.345581 
z
" clip-path="url(#p83335c5085)" style="fill: #1f77b4"/>
   </g>
   <g id="patch_137">
    <path d="M 63.4355 230.24 
L 104.1265 230.24 
L 104.1265 217.420339 
L 63.4355 217.420339 
z
" clip-path="url(#p83335c5085)" style="fill: #1f77b4"/>
   </g>
   <g id="patch_138">
    <path d="M 144.8175 230.24 
L 185.5085 230.24 
L 185.5085 219.828498 
L 144.8175 219.828498 
z
" clip-path="url(#p83335c5085)" style="fill: #1f77b4"/>
   </g>
   <g id="patch_139">
    <path d="M 226.1995 230.24 
L 266.8905 230.24 
L 266.8905 228.470013 
L 226.1995 228.470013 
z
" clip-path="url(#p83335c5085)" style="fill: #1f77b4"/>
   </g>
   <g id="patch_140">
    <path d="M 307.5815 230.24 
L 348.2725 230.24 
L 348.2725 230.004351 
L 307.5815 230.004351 
z
" clip-path="url(#p83335c5085)" style="fill: #1f77b4"/>
   </g>
   <g id="patch_141">
    <path d="M 388.9635 230.24 
L 429.6545 230.24 
L 429.6545 230.004351 
L 388.9635 230.004351 
z
" clip-path="url(#p83335c5085)" style="fill: #1f77b4"/>
   </g>
   <g id="patch_142">
    <path d="M 63.4355 230.24 
L 104.1265 230.24 
L 104.1265 228.841815 
L 63.4355 228.841815 
z
" clip-path="url(#p83335c5085)" style="fill: #1f77b4"/>
   </g>
   <g id="patch_143">
    <path d="M 144.8175 230.24 
L 185.5085 230.24 
L 185.5085 229.328823 
L 144.8175 229.328823 
z
" clip-path="url(#p83335c5085)" style="fill: #1f77b4"/>
   </g>
   <g id="patch_144">
    <path d="M 226.1995 230.24 
L 266.8905 230.24 
L 266.8905 230.051481 
L 226.1995 230.051481 
z
" clip-path="url(#p83335c5085)" style="fill: #1f77b4"/>
   </g>
   <g id="patch_145">
    <path d="M 307.5815 230.24 
L 348.2725 230.24 
L 348.2725 230.101753 
L 307.5815 230.101753 
z
" clip-path="url(#p83335c5085)" style="fill: #1f77b4"/>
   </g>
   <g id="patch_146">
    <path d="M 388.9635 230.24 
L 429.6545 230.24 
L 429.6545 229.925801 
L 388.9635 229.925801 
z
" clip-path="url(#p83335c5085)" style="fill: #1f77b4"/>
   </g>
   <g id="patch_147">
    <path d="M 63.4355 230.24 
L 104.1265 230.24 
L 104.1265 230.107338 
L 63.4355 230.107338 
z
" clip-path="url(#p83335c5085)" style="fill: #1f77b4"/>
   </g>
   <g id="patch_148">
    <path d="M 144.8175 230.24 
L 185.5085 230.24 
L 185.5085 230.20858 
L 144.8175 230.20858 
z
" clip-path="url(#p83335c5085)" style="fill: #1f77b4"/>
   </g>
   <g id="patch_149">
    <path d="M 226.1995 230.24 
L 266.8905 230.24 
L 266.8905 230.20858 
L 226.1995 230.20858 
z
" clip-path="url(#p83335c5085)" style="fill: #1f77b4"/>
   </g>
   <g id="patch_150">
    <path d="M 307.5815 230.24 
L 348.2725 230.24 
L 348.2725 230.233018 
L 307.5815 230.233018 
z
" clip-path="url(#p83335c5085)" style="fill: #1f77b4"/>
   </g>
   <g id="patch_151">
    <path d="M 388.9635 230.24 
L 429.6545 230.24 
L 429.6545 230.233018 
L 388.9635 230.233018 
z
" clip-path="url(#p83335c5085)" style="fill: #1f77b4"/>
   </g>
   <g id="patch_152">
    <path d="M 63.4355 230.24 
L 104.1265 230.24 
L 104.1265 229.967694 
L 63.4355 229.967694 
z
" clip-path="url(#p83335c5085)" style="fill: #1f77b4"/>
   </g>
   <g id="patch_153">
    <path d="M 144.8175 230.24 
L 185.5085 230.24 
L 185.5085 230.093374 
L 144.8175 230.093374 
z
" clip-path="url(#p83335c5085)" style="fill: #1f77b4"/>
   </g>
   <g id="patch_154">
    <path d="M 226.1995 230.24 
L 266.8905 230.24 
L 266.8905 230.051481 
L 226.1995 230.051481 
z
" clip-path="url(#p83335c5085)" style="fill: #1f77b4"/>
   </g>
   <g id="patch_155">
    <path d="M 307.5815 230.24 
L 348.2725 230.24 
L 348.2725 229.988641 
L 307.5815 229.988641 
z
" clip-path="url(#p83335c5085)" style="fill: #1f77b4"/>
   </g>
   <g id="patch_156">
    <path d="M 388.9635 230.24 
L 429.6545 230.24 
L 429.6545 230.17716 
L 388.9635 230.17716 
z
" clip-path="url(#p83335c5085)" style="fill: #1f77b4"/>
   </g>
   <g id="patch_157">
    <path d="M 63.4355 230.24 
L 104.1265 230.24 
L 104.1265 230.24 
L 63.4355 230.24 
z
" clip-path="url(#p83335c5085)" style="fill: #1f77b4"/>
   </g>
   <g id="patch_158">
    <path d="M 144.8175 230.24 
L 185.5085 230.24 
L 185.5085 230.24 
L 144.8175 230.24 
z
" clip-path="url(#p83335c5085)" style="fill: #1f77b4"/>
   </g>
   <g id="patch_159">
    <path d="M 226.1995 230.24 
L 266.8905 230.24 
L 266.8905 230.24 
L 226.1995 230.24 
z
" clip-path="url(#p83335c5085)" style="fill: #1f77b4"/>
   </g>
   <g id="patch_160">
    <path d="M 307.5815 230.24 
L 348.2725 230.24 
L 348.2725 230.24 
L 307.5815 230.24 
z
" clip-path="url(#p83335c5085)" style="fill: #1f77b4"/>
   </g>
   <g id="patch_161">
    <path d="M 63.4355 230.24 
L 104.1265 230.24 
L 104.1265 230.24 
L 63.4355 230.24 
z
" clip-path="url(#p83335c5085)" style="fill: #1f77b4"/>
   </g>
   <g id="patch_162">
    <path d="M 144.8175 230.24 
L 185.5085 230.24 
L 185.5085 230.24 
L 144.8175 230.24 
z
" clip-path="url(#p83335c5085)" style="fill: #1f77b4"/>
   </g>
   <g id="patch_163">
    <path d="M 226.1995 230.24 
L 266.8905 230.24 
L 266.8905 230.24 
L 226.1995 230.24 
z
" clip-path="url(#p83335c5085)" style="fill: #1f77b4"/>
   </g>
   <g id="patch_164">
    <path d="M 63.4355 230.24 
L 104.1265 230.24 
L 104.1265 230.24 
L 63.4355 230.24 
z
" clip-path="url(#p83335c5085)" style="fill: #1f77b4"/>
   </g>
   <g id="patch_165">
    <path d="M 144.8175 230.24 
L 185.5085 230.24 
L 185.5085 230.24 
L 144.8175 230.24 
z
" clip-path="url(#p83335c5085)" style="fill: #1f77b4"/>
   </g>
   <g id="patch_166">
    <path d="M 226.1995 230.24 
L 266.8905 230.24 
L 266.8905 230.24 
L 226.1995 230.24 
z
" clip-path="url(#p83335c5085)" style="fill: #1f77b4"/>
   </g>
   <g id="patch_167">
    <path d="M 307.5815 230.24 
L 348.2725 230.24 
L 348.2725 230.24 
L 307.5815 230.24 
z
" clip-path="url(#p83335c5085)" style="fill: #1f77b4"/>
   </g>
   <g id="patch_168">
    <path d="M 63.4355 230.24 
L 104.1265 230.24 
L 104.1265 230.24 
L 63.4355 230.24 
z
" clip-path="url(#p83335c5085)" style="fill: #1f77b4"/>
   </g>
   <g id="patch_169">
    <path d="M 144.8175 230.24 
L 185.5085 230.24 
L 185.5085 230.24 
L 144.8175 230.24 
z
" clip-path="url(#p83335c5085)" style="fill: #1f77b4"/>
   </g>
   <g id="patch_170">
    <path d="M 63.4355 230.24 
L 104.1265 230.24 
L 104.1265 21.249524 
L 63.4355 21.249524 
z
" clip-path="url(#p83335c5085)" style="fill: #1f77b4"/>
   </g>
   <g id="patch_171">
    <path d="M 144.8175 230.24 
L 185.5085 230.24 
L 185.5085 97.096105 
L 144.8175 97.096105 
z
" clip-path="url(#p83335c5085)" style="fill: #1f77b4"/>
   </g>
   <g id="patch_172">
    <path d="M 226.1995 230.24 
L 266.8905 230.24 
L 266.8905 131.216145 
L 226.1995 131.216145 
z
" clip-path="url(#p83335c5085)" style="fill: #1f77b4"/>
   </g>
   <g id="patch_173">
    <path d="M 307.5815 230.24 
L 348.2725 230.24 
L 348.2725 123.135661 
L 307.5815 123.135661 
z
" clip-path="url(#p83335c5085)" style="fill: #1f77b4"/>
   </g>
   <g id="patch_174">
    <path d="M 388.9635 230.24 
L 429.6545 230.24 
L 429.6545 144.380757 
L 388.9635 144.380757 
z
" clip-path="url(#p83335c5085)" style="fill: #1f77b4"/>
   </g>
   <g id="patch_175">
    <path d="M 63.4355 230.24 
L 104.1265 230.24 
L 104.1265 229.910091 
L 63.4355 229.910091 
z
" clip-path="url(#p83335c5085)" style="fill: #1f77b4"/>
   </g>
   <g id="patch_176">
    <path d="M 144.8175 230.24 
L 185.5085 230.24 
L 185.5085 230.17716 
L 144.8175 230.17716 
z
" clip-path="url(#p83335c5085)" style="fill: #1f77b4"/>
   </g>
   <g id="patch_177">
    <path d="M 226.1995 230.24 
L 266.8905 230.24 
L 266.8905 230.17716 
L 226.1995 230.17716 
z
" clip-path="url(#p83335c5085)" style="fill: #1f77b4"/>
   </g>
   <g id="patch_178">
    <path d="M 307.5815 230.24 
L 348.2725 230.24 
L 348.2725 230.17716 
L 307.5815 230.17716 
z
" clip-path="url(#p83335c5085)" style="fill: #1f77b4"/>
   </g>
   <g id="patch_179">
    <path d="M 388.9635 230.24 
L 429.6545 230.24 
L 429.6545 230.14574 
L 388.9635 230.14574 
z
" clip-path="url(#p83335c5085)" style="fill: #1f77b4"/>
   </g>
   <g id="patch_180">
    <path d="M 63.4355 230.24 
L 104.1265 230.24 
L 104.1265 41.429112 
L 63.4355 41.429112 
z
" clip-path="url(#p83335c5085)" style="fill: #1f77b4"/>
   </g>
   <g id="patch_181">
    <path d="M 144.8175 230.24 
L 185.5085 230.24 
L 185.5085 132.980564 
L 144.8175 132.980564 
z
" clip-path="url(#p83335c5085)" style="fill: #1f77b4"/>
   </g>
   <g id="patch_182">
    <path d="M 226.1995 230.24 
L 266.8905 230.24 
L 266.8905 161.164382 
L 226.1995 161.164382 
z
" clip-path="url(#p83335c5085)" style="fill: #1f77b4"/>
   </g>
   <g id="patch_183">
    <path d="M 307.5815 230.24 
L 348.2725 230.24 
L 348.2725 151.005173 
L 307.5815 151.005173 
z
" clip-path="url(#p83335c5085)" style="fill: #1f77b4"/>
   </g>
   <g id="patch_184">
    <path d="M 388.9635 230.24 
L 429.6545 230.24 
L 429.6545 176.418317 
L 388.9635 176.418317 
z
" clip-path="url(#p83335c5085)" style="fill: #1f77b4"/>
   </g>
   <g id="patch_185">
    <path d="M 63.4355 230.24 
L 104.1265 230.24 
L 104.1265 226.64766 
L 63.4355 226.64766 
z
" clip-path="url(#p83335c5085)" style="fill: #1f77b4"/>
   </g>
   <g id="patch_186">
    <path d="M 144.8175 230.24 
L 185.5085 230.24 
L 185.5085 227.255111 
L 144.8175 227.255111 
z
" clip-path="url(#p83335c5085)" style="fill: #1f77b4"/>
   </g>
   <g id="patch_187">
    <path d="M 226.1995 230.24 
L 266.8905 230.24 
L 266.8905 229.821068 
L 226.1995 229.821068 
z
" clip-path="url(#p83335c5085)" style="fill: #1f77b4"/>
   </g>
   <g id="patch_188">
    <path d="M 307.5815 230.24 
L 348.2725 230.24 
L 348.2725 229.821068 
L 307.5815 229.821068 
z
" clip-path="url(#p83335c5085)" style="fill: #1f77b4"/>
   </g>
   <g id="patch_189">
    <path d="M 388.9635 230.24 
L 429.6545 230.24 
L 429.6545 229.950937 
L 388.9635 229.950937 
z
" clip-path="url(#p83335c5085)" style="fill: #1f77b4"/>
   </g>
   <g id="patch_190">
    <path d="M 63.4355 230.24 
L 104.1265 230.24 
L 104.1265 200.605815 
L 63.4355 200.605815 
z
" clip-path="url(#p83335c5085)" style="fill: #1f77b4"/>
   </g>
   <g id="patch_191">
    <path d="M 144.8175 230.24 
L 185.5085 230.24 
L 185.5085 220.311317 
L 144.8175 220.311317 
z
" clip-path="url(#p83335c5085)" style="fill: #1f77b4"/>
   </g>
   <g id="patch_192">
    <path d="M 226.1995 230.24 
L 266.8905 230.24 
L 266.8905 225.275659 
L 226.1995 225.275659 
z
" clip-path="url(#p83335c5085)" style="fill: #1f77b4"/>
   </g>
   <g id="patch_193">
    <path d="M 307.5815 230.24 
L 348.2725 230.24 
L 348.2725 225.275659 
L 307.5815 225.275659 
z
" clip-path="url(#p83335c5085)" style="fill: #1f77b4"/>
   </g>
   <g id="patch_194">
    <path d="M 388.9635 230.24 
L 429.6545 230.24 
L 429.6545 223.710949 
L 388.9635 223.710949 
z
" clip-path="url(#p83335c5085)" style="fill: #1f77b4"/>
   </g>
   <g id="patch_195">
    <path d="M 63.4355 230.24 
L 104.1265 230.24 
L 104.1265 230.082901 
L 63.4355 230.082901 
z
" clip-path="url(#p83335c5085)" style="fill: #1f77b4"/>
   </g>
   <g id="patch_196">
    <path d="M 144.8175 230.24 
L 185.5085 230.24 
L 185.5085 230.082901 
L 144.8175 230.082901 
z
" clip-path="url(#p83335c5085)" style="fill: #1f77b4"/>
   </g>
   <g id="patch_197">
    <path d="M 226.1995 230.24 
L 266.8905 230.24 
L 266.8905 230.082901 
L 226.1995 230.082901 
z
" clip-path="url(#p83335c5085)" style="fill: #1f77b4"/>
   </g>
   <g id="patch_198">
    <path d="M 307.5815 230.24 
L 348.2725 230.24 
L 348.2725 230.082901 
L 307.5815 230.082901 
z
" clip-path="url(#p83335c5085)" style="fill: #1f77b4"/>
   </g>
   <g id="patch_199">
    <path d="M 388.9635 230.24 
L 429.6545 230.24 
L 429.6545 230.082901 
L 388.9635 230.082901 
z
" clip-path="url(#p83335c5085)" style="fill: #1f77b4"/>
   </g>
   <g id="patch_200">
    <path d="M 63.4355 230.24 
L 104.1265 230.24 
L 104.1265 230.11432 
L 63.4355 230.11432 
z
" clip-path="url(#p83335c5085)" style="fill: #1f77b4"/>
   </g>
   <g id="patch_201">
    <path d="M 144.8175 230.24 
L 185.5085 230.24 
L 185.5085 230.11432 
L 144.8175 230.11432 
z
" clip-path="url(#p83335c5085)" style="fill: #1f77b4"/>
   </g>
   <g id="patch_202">
    <path d="M 226.1995 230.24 
L 266.8905 230.24 
L 266.8905 230.11432 
L 226.1995 230.11432 
z
" clip-path="url(#p83335c5085)" style="fill: #1f77b4"/>
   </g>
   <g id="patch_203">
    <path d="M 307.5815 230.24 
L 348.2725 230.24 
L 348.2725 230.22429 
L 307.5815 230.22429 
z
" clip-path="url(#p83335c5085)" style="fill: #1f77b4"/>
   </g>
   <g id="patch_204">
    <path d="M 388.9635 230.24 
L 429.6545 230.24 
L 429.6545 230.22429 
L 388.9635 230.22429 
z
" clip-path="url(#p83335c5085)" style="fill: #1f77b4"/>
   </g>
   <g id="patch_205">
    <path d="M 63.4355 230.24 
L 104.1265 230.24 
L 104.1265 195.268239 
L 63.4355 195.268239 
z
" clip-path="url(#p83335c5085)" style="fill: #1f77b4"/>
   </g>
   <g id="patch_206">
    <path d="M 144.8175 230.24 
L 185.5085 230.24 
L 185.5085 193.988545 
L 144.8175 193.988545 
z
" clip-path="url(#p83335c5085)" style="fill: #1f77b4"/>
   </g>
   <g id="patch_207">
    <path d="M 226.1995 230.24 
L 266.8905 230.24 
L 266.8905 217.153619 
L 226.1995 217.153619 
z
" clip-path="url(#p83335c5085)" style="fill: #1f77b4"/>
   </g>
   <g id="patch_208">
    <path d="M 307.5815 230.24 
L 348.2725 230.24 
L 348.2725 217.153619 
L 307.5815 217.153619 
z
" clip-path="url(#p83335c5085)" style="fill: #1f77b4"/>
   </g>
   <g id="patch_209">
    <path d="M 388.9635 230.24 
L 429.6545 230.24 
L 429.6545 194.833604 
L 388.9635 194.833604 
z
" clip-path="url(#p83335c5085)" style="fill: #1f77b4"/>
   </g>
   <g id="patch_210">
    <path d="M 63.4355 230.24 
L 104.1265 230.24 
L 104.1265 230.14574 
L 63.4355 230.14574 
z
" clip-path="url(#p83335c5085)" style="fill: #1f77b4"/>
   </g>
   <g id="patch_211">
    <path d="M 144.8175 230.24 
L 185.5085 230.24 
L 185.5085 230.14574 
L 144.8175 230.14574 
z
" clip-path="url(#p83335c5085)" style="fill: #1f77b4"/>
   </g>
   <g id="patch_212">
    <path d="M 226.1995 230.24 
L 266.8905 230.24 
L 266.8905 230.24 
L 226.1995 230.24 
z
" clip-path="url(#p83335c5085)" style="fill: #1f77b4"/>
   </g>
   <g id="patch_213">
    <path d="M 307.5815 230.24 
L 348.2725 230.24 
L 348.2725 230.24 
L 307.5815 230.24 
z
" clip-path="url(#p83335c5085)" style="fill: #1f77b4"/>
   </g>
   <g id="patch_214">
    <path d="M 388.9635 230.24 
L 429.6545 230.24 
L 429.6545 230.24 
L 388.9635 230.24 
z
" clip-path="url(#p83335c5085)" style="fill: #1f77b4"/>
   </g>
   <g id="patch_215">
    <path d="M 63.4355 230.24 
L 104.1265 230.24 
L 104.1265 209.432756 
L 63.4355 209.432756 
z
" clip-path="url(#p83335c5085)" style="fill: #1f77b4"/>
   </g>
   <g id="patch_216">
    <path d="M 144.8175 230.24 
L 185.5085 230.24 
L 185.5085 214.739257 
L 144.8175 214.739257 
z
" clip-path="url(#p83335c5085)" style="fill: #1f77b4"/>
   </g>
   <g id="patch_217">
    <path d="M 226.1995 230.24 
L 266.8905 230.24 
L 266.8905 218.722075 
L 226.1995 218.722075 
z
" clip-path="url(#p83335c5085)" style="fill: #1f77b4"/>
   </g>
   <g id="patch_218">
    <path d="M 307.5815 230.24 
L 348.2725 230.24 
L 348.2725 212.785213 
L 307.5815 212.785213 
z
" clip-path="url(#p83335c5085)" style="fill: #1f77b4"/>
   </g>
   <g id="patch_219">
    <path d="M 388.9635 230.24 
L 429.6545 230.24 
L 429.6545 225.86511 
L 388.9635 225.86511 
z
" clip-path="url(#p83335c5085)" style="fill: #1f77b4"/>
   </g>
   <g id="patch_220">
    <path d="M 63.4355 230.24 
L 104.1265 230.24 
L 104.1265 229.768702 
L 63.4355 229.768702 
z
" clip-path="url(#p83335c5085)" style="fill: #1f77b4"/>
   </g>
   <g id="patch_221">
    <path d="M 144.8175 230.24 
L 185.5085 230.24 
L 185.5085 229.800122 
L 144.8175 229.800122 
z
" clip-path="url(#p83335c5085)" style="fill: #1f77b4"/>
   </g>
   <g id="patch_222">
    <path d="M 226.1995 230.24 
L 266.8905 230.24 
L 266.8905 229.611602 
L 226.1995 229.611602 
z
" clip-path="url(#p83335c5085)" style="fill: #1f77b4"/>
   </g>
   <g id="patch_223">
    <path d="M 307.5815 230.24 
L 348.2725 230.24 
L 348.2725 230.082901 
L 307.5815 230.082901 
z
" clip-path="url(#p83335c5085)" style="fill: #1f77b4"/>
   </g>
   <g id="patch_224">
    <path d="M 388.9635 230.24 
L 429.6545 230.24 
L 429.6545 230.082901 
L 388.9635 230.082901 
z
" clip-path="url(#p83335c5085)" style="fill: #1f77b4"/>
   </g>
   <g id="patch_225">
    <path d="M 63.4355 230.24 
L 104.1265 230.24 
L 104.1265 229.800122 
L 63.4355 229.800122 
z
" clip-path="url(#p83335c5085)" style="fill: #1f77b4"/>
   </g>
   <g id="patch_226">
    <path d="M 144.8175 230.24 
L 185.5085 230.24 
L 185.5085 229.800122 
L 144.8175 229.800122 
z
" clip-path="url(#p83335c5085)" style="fill: #1f77b4"/>
   </g>
   <g id="patch_227">
    <path d="M 226.1995 230.24 
L 266.8905 230.24 
L 266.8905 229.800122 
L 226.1995 229.800122 
z
" clip-path="url(#p83335c5085)" style="fill: #1f77b4"/>
   </g>
   <g id="patch_228">
    <path d="M 307.5815 230.24 
L 348.2725 230.24 
L 348.2725 230.219053 
L 307.5815 230.219053 
z
" clip-path="url(#p83335c5085)" style="fill: #1f77b4"/>
   </g>
   <g id="patch_229">
    <path d="M 388.9635 230.24 
L 429.6545 230.24 
L 429.6545 230.219053 
L 388.9635 230.219053 
z
" clip-path="url(#p83335c5085)" style="fill: #1f77b4"/>
   </g>
   <g id="patch_230">
    <path d="M 63.4355 230.24 
L 104.1265 230.24 
L 104.1265 229.862961 
L 63.4355 229.862961 
z
" clip-path="url(#p83335c5085)" style="fill: #1f77b4"/>
   </g>
   <g id="patch_231">
    <path d="M 144.8175 230.24 
L 185.5085 230.24 
L 185.5085 230.17716 
L 144.8175 230.17716 
z
" clip-path="url(#p83335c5085)" style="fill: #1f77b4"/>
   </g>
   <g id="patch_232">
    <path d="M 226.1995 230.24 
L 266.8905 230.24 
L 266.8905 230.17716 
L 226.1995 230.17716 
z
" clip-path="url(#p83335c5085)" style="fill: #1f77b4"/>
   </g>
   <g id="patch_233">
    <path d="M 307.5815 230.24 
L 348.2725 230.24 
L 348.2725 230.24 
L 307.5815 230.24 
z
" clip-path="url(#p83335c5085)" style="fill: #1f77b4"/>
   </g>
   <g id="patch_234">
    <path d="M 388.9635 230.24 
L 429.6545 230.24 
L 429.6545 230.24 
L 388.9635 230.24 
z
" clip-path="url(#p83335c5085)" style="fill: #1f77b4"/>
   </g>
   <g id="patch_235">
    <path d="M 63.4355 230.24 
L 104.1265 230.24 
L 104.1265 224.512604 
L 63.4355 224.512604 
z
" clip-path="url(#p83335c5085)" style="fill: #1f77b4"/>
   </g>
   <g id="patch_236">
    <path d="M 144.8175 230.24 
L 185.5085 230.24 
L 185.5085 227.968791 
L 144.8175 227.968791 
z
" clip-path="url(#p83335c5085)" style="fill: #1f77b4"/>
   </g>
   <g id="patch_237">
    <path d="M 226.1995 230.24 
L 266.8905 230.24 
L 266.8905 227.968791 
L 226.1995 227.968791 
z
" clip-path="url(#p83335c5085)" style="fill: #1f77b4"/>
   </g>
   <g id="patch_238">
    <path d="M 307.5815 230.24 
L 348.2725 230.24 
L 348.2725 226.869096 
L 307.5815 226.869096 
z
" clip-path="url(#p83335c5085)" style="fill: #1f77b4"/>
   </g>
   <g id="patch_239">
    <path d="M 388.9635 230.24 
L 429.6545 230.24 
L 429.6545 228.063051 
L 388.9635 228.063051 
z
" clip-path="url(#p83335c5085)" style="fill: #1f77b4"/>
   </g>
   <g id="patch_240">
    <path d="M 63.4355 230.24 
L 104.1265 230.24 
L 104.1265 230.24 
L 63.4355 230.24 
z
" clip-path="url(#p83335c5085)" style="fill: #1f77b4"/>
   </g>
   <g id="patch_241">
    <path d="M 63.4355 230.24 
L 104.1265 230.24 
L 104.1265 135.482974 
L 63.4355 135.482974 
z
" clip-path="url(#p83335c5085)" style="fill: #1f77b4"/>
   </g>
   <g id="patch_242">
    <path d="M 144.8175 230.24 
L 185.5085 230.24 
L 185.5085 152.7604 
L 144.8175 152.7604 
z
" clip-path="url(#p83335c5085)" style="fill: #1f77b4"/>
   </g>
   <g id="patch_243">
    <path d="M 226.1995 230.24 
L 266.8905 230.24 
L 266.8905 150.628779 
L 226.1995 150.628779 
z
" clip-path="url(#p83335c5085)" style="fill: #1f77b4"/>
   </g>
   <g id="patch_244">
    <path d="M 307.5815 230.24 
L 348.2725 230.24 
L 348.2725 161.988457 
L 307.5815 161.988457 
z
" clip-path="url(#p83335c5085)" style="fill: #1f77b4"/>
   </g>
   <g id="patch_245">
    <path d="M 388.9635 230.24 
L 429.6545 230.24 
L 429.6545 199.578117 
L 388.9635 199.578117 
z
" clip-path="url(#p83335c5085)" style="fill: #1f77b4"/>
   </g>
   <g id="patch_246">
    <path d="M 63.4355 230.24 
L 104.1265 230.24 
L 104.1265 175.844279 
L 63.4355 175.844279 
z
" clip-path="url(#p83335c5085)" style="fill: #1f77b4"/>
   </g>
   <g id="patch_247">
    <path d="M 144.8175 230.24 
L 185.5085 230.24 
L 185.5085 153.171532 
L 144.8175 153.171532 
z
" clip-path="url(#p83335c5085)" style="fill: #1f77b4"/>
   </g>
   <g id="patch_248">
    <path d="M 226.1995 230.24 
L 266.8905 230.24 
L 266.8905 190.209714 
L 226.1995 190.209714 
z
" clip-path="url(#p83335c5085)" style="fill: #1f77b4"/>
   </g>
   <g id="patch_249">
    <path d="M 307.5815 230.24 
L 348.2725 230.24 
L 348.2725 192.127118 
L 307.5815 192.127118 
z
" clip-path="url(#p83335c5085)" style="fill: #1f77b4"/>
   </g>
   <g id="patch_250">
    <path d="M 388.9635 230.24 
L 429.6545 230.24 
L 429.6545 204.500357 
L 388.9635 204.500357 
z
" clip-path="url(#p83335c5085)" style="fill: #1f77b4"/>
   </g>
   <g id="patch_251">
    <path d="M 63.4355 230.24 
L 104.1265 230.24 
L 104.1265 230.219053 
L 63.4355 230.219053 
z
" clip-path="url(#p83335c5085)" style="fill: #1f77b4"/>
   </g>
   <g id="patch_252">
    <path d="M 144.8175 230.24 
L 185.5085 230.24 
L 185.5085 230.219053 
L 144.8175 230.219053 
z
" clip-path="url(#p83335c5085)" style="fill: #1f77b4"/>
   </g>
   <g id="patch_253">
    <path d="M 226.1995 230.24 
L 266.8905 230.24 
L 266.8905 230.219053 
L 226.1995 230.219053 
z
" clip-path="url(#p83335c5085)" style="fill: #1f77b4"/>
   </g>
   <g id="patch_254">
    <path d="M 307.5815 230.24 
L 348.2725 230.24 
L 348.2725 230.24 
L 307.5815 230.24 
z
" clip-path="url(#p83335c5085)" style="fill: #1f77b4"/>
   </g>
   <g id="patch_255">
    <path d="M 388.9635 230.24 
L 429.6545 230.24 
L 429.6545 230.24 
L 388.9635 230.24 
z
" clip-path="url(#p83335c5085)" style="fill: #1f77b4"/>
   </g>
   <g id="patch_256">
    <path d="M 63.4355 230.24 
L 104.1265 230.24 
L 104.1265 228.480487 
L 63.4355 228.480487 
z
" clip-path="url(#p83335c5085)" style="fill: #1f77b4"/>
   </g>
   <g id="patch_257">
    <path d="M 144.8175 230.24 
L 185.5085 230.24 
L 185.5085 228.33386 
L 144.8175 228.33386 
z
" clip-path="url(#p83335c5085)" style="fill: #1f77b4"/>
   </g>
   <g id="patch_258">
    <path d="M 226.1995 230.24 
L 266.8905 230.24 
L 266.8905 230.082901 
L 226.1995 230.082901 
z
" clip-path="url(#p83335c5085)" style="fill: #1f77b4"/>
   </g>
   <g id="patch_259">
    <path d="M 307.5815 230.24 
L 348.2725 230.24 
L 348.2725 230.19287 
L 307.5815 230.19287 
z
" clip-path="url(#p83335c5085)" style="fill: #1f77b4"/>
   </g>
   <g id="patch_260">
    <path d="M 388.9635 230.24 
L 429.6545 230.24 
L 429.6545 230.19287 
L 388.9635 230.19287 
z
" clip-path="url(#p83335c5085)" style="fill: #1f77b4"/>
   </g>
   <g id="matplotlib.axis_1">
    <g id="xtick_1">
     <g id="line2d_1">
      <defs>
       <path id="m8b5a2a81ef" d="M 0 0 
L 0 3.5 
" style="stroke: #000000; stroke-width: 0.8"/>
      </defs>
      <g>
       <use xlink:href="#m8b5a2a81ef" x="83.781" y="230.24" style="stroke: #000000; stroke-width: 0.8"/>
      </g>
     </g>
     <g id="text_1">
      <!-- Morris Chestnut -->
      <g transform="translate(86.540375 316.397812) rotate(-90) scale(0.1 -0.1)">
       <defs>
        <path id="DejaVuSans-4d" d="M 628 4666 
L 1569 4666 
L 2759 1491 
L 3956 4666 
L 4897 4666 
L 4897 0 
L 4281 0 
L 4281 4097 
L 3078 897 
L 2444 897 
L 1241 4097 
L 1241 0 
L 628 0 
L 628 4666 
z
" transform="scale(0.015625)"/>
        <path id="DejaVuSans-6f" d="M 1959 3097 
Q 1497 3097 1228 2736 
Q 959 2375 959 1747 
Q 959 1119 1226 758 
Q 1494 397 1959 397 
Q 2419 397 2687 759 
Q 2956 1122 2956 1747 
Q 2956 2369 2687 2733 
Q 2419 3097 1959 3097 
z
M 1959 3584 
Q 2709 3584 3137 3096 
Q 3566 2609 3566 1747 
Q 3566 888 3137 398 
Q 2709 -91 1959 -91 
Q 1206 -91 779 398 
Q 353 888 353 1747 
Q 353 2609 779 3096 
Q 1206 3584 1959 3584 
z
" transform="scale(0.015625)"/>
        <path id="DejaVuSans-72" d="M 2631 2963 
Q 2534 3019 2420 3045 
Q 2306 3072 2169 3072 
Q 1681 3072 1420 2755 
Q 1159 2438 1159 1844 
L 1159 0 
L 581 0 
L 581 3500 
L 1159 3500 
L 1159 2956 
Q 1341 3275 1631 3429 
Q 1922 3584 2338 3584 
Q 2397 3584 2469 3576 
Q 2541 3569 2628 3553 
L 2631 2963 
z
" transform="scale(0.015625)"/>
        <path id="DejaVuSans-69" d="M 603 3500 
L 1178 3500 
L 1178 0 
L 603 0 
L 603 3500 
z
M 603 4863 
L 1178 4863 
L 1178 4134 
L 603 4134 
L 603 4863 
z
" transform="scale(0.015625)"/>
        <path id="DejaVuSans-73" d="M 2834 3397 
L 2834 2853 
Q 2591 2978 2328 3040 
Q 2066 3103 1784 3103 
Q 1356 3103 1142 2972 
Q 928 2841 928 2578 
Q 928 2378 1081 2264 
Q 1234 2150 1697 2047 
L 1894 2003 
Q 2506 1872 2764 1633 
Q 3022 1394 3022 966 
Q 3022 478 2636 193 
Q 2250 -91 1575 -91 
Q 1294 -91 989 -36 
Q 684 19 347 128 
L 347 722 
Q 666 556 975 473 
Q 1284 391 1588 391 
Q 1994 391 2212 530 
Q 2431 669 2431 922 
Q 2431 1156 2273 1281 
Q 2116 1406 1581 1522 
L 1381 1569 
Q 847 1681 609 1914 
Q 372 2147 372 2553 
Q 372 3047 722 3315 
Q 1072 3584 1716 3584 
Q 2034 3584 2315 3537 
Q 2597 3491 2834 3397 
z
" transform="scale(0.015625)"/>
        <path id="DejaVuSans-20" transform="scale(0.015625)"/>
        <path id="DejaVuSans-43" d="M 4122 4306 
L 4122 3641 
Q 3803 3938 3442 4084 
Q 3081 4231 2675 4231 
Q 1875 4231 1450 3742 
Q 1025 3253 1025 2328 
Q 1025 1406 1450 917 
Q 1875 428 2675 428 
Q 3081 428 3442 575 
Q 3803 722 4122 1019 
L 4122 359 
Q 3791 134 3420 21 
Q 3050 -91 2638 -91 
Q 1578 -91 968 557 
Q 359 1206 359 2328 
Q 359 3453 968 4101 
Q 1578 4750 2638 4750 
Q 3056 4750 3426 4639 
Q 3797 4528 4122 4306 
z
" transform="scale(0.015625)"/>
        <path id="DejaVuSans-68" d="M 3513 2113 
L 3513 0 
L 2938 0 
L 2938 2094 
Q 2938 2591 2744 2837 
Q 2550 3084 2163 3084 
Q 1697 3084 1428 2787 
Q 1159 2491 1159 1978 
L 1159 0 
L 581 0 
L 581 4863 
L 1159 4863 
L 1159 2956 
Q 1366 3272 1645 3428 
Q 1925 3584 2291 3584 
Q 2894 3584 3203 3211 
Q 3513 2838 3513 2113 
z
" transform="scale(0.015625)"/>
        <path id="DejaVuSans-65" d="M 3597 1894 
L 3597 1613 
L 953 1613 
Q 991 1019 1311 708 
Q 1631 397 2203 397 
Q 2534 397 2845 478 
Q 3156 559 3463 722 
L 3463 178 
Q 3153 47 2828 -22 
Q 2503 -91 2169 -91 
Q 1331 -91 842 396 
Q 353 884 353 1716 
Q 353 2575 817 3079 
Q 1281 3584 2069 3584 
Q 2775 3584 3186 3129 
Q 3597 2675 3597 1894 
z
M 3022 2063 
Q 3016 2534 2758 2815 
Q 2500 3097 2075 3097 
Q 1594 3097 1305 2825 
Q 1016 2553 972 2059 
L 3022 2063 
z
" transform="scale(0.015625)"/>
        <path id="DejaVuSans-74" d="M 1172 4494 
L 1172 3500 
L 2356 3500 
L 2356 3053 
L 1172 3053 
L 1172 1153 
Q 1172 725 1289 603 
Q 1406 481 1766 481 
L 2356 481 
L 2356 0 
L 1766 0 
Q 1100 0 847 248 
Q 594 497 594 1153 
L 594 3053 
L 172 3053 
L 172 3500 
L 594 3500 
L 594 4494 
L 1172 4494 
z
" transform="scale(0.015625)"/>
        <path id="DejaVuSans-6e" d="M 3513 2113 
L 3513 0 
L 2938 0 
L 2938 2094 
Q 2938 2591 2744 2837 
Q 2550 3084 2163 3084 
Q 1697 3084 1428 2787 
Q 1159 2491 1159 1978 
L 1159 0 
L 581 0 
L 581 3500 
L 1159 3500 
L 1159 2956 
Q 1366 3272 1645 3428 
Q 1925 3584 2291 3584 
Q 2894 3584 3203 3211 
Q 3513 2838 3513 2113 
z
" transform="scale(0.015625)"/>
        <path id="DejaVuSans-75" d="M 544 1381 
L 544 3500 
L 1119 3500 
L 1119 1403 
Q 1119 906 1312 657 
Q 1506 409 1894 409 
Q 2359 409 2629 706 
Q 2900 1003 2900 1516 
L 2900 3500 
L 3475 3500 
L 3475 0 
L 2900 0 
L 2900 538 
Q 2691 219 2414 64 
Q 2138 -91 1772 -91 
Q 1169 -91 856 284 
Q 544 659 544 1381 
z
M 1991 3584 
L 1991 3584 
z
" transform="scale(0.015625)"/>
       </defs>
       <use xlink:href="#DejaVuSans-4d"/>
       <use xlink:href="#DejaVuSans-6f" x="86.279297"/>
       <use xlink:href="#DejaVuSans-72" x="147.460938"/>
       <use xlink:href="#DejaVuSans-72" x="186.824219"/>
       <use xlink:href="#DejaVuSans-69" x="227.9375"/>
       <use xlink:href="#DejaVuSans-73" x="255.720703"/>
       <use xlink:href="#DejaVuSans-20" x="307.820312"/>
       <use xlink:href="#DejaVuSans-43" x="339.607422"/>
       <use xlink:href="#DejaVuSans-68" x="409.431641"/>
       <use xlink:href="#DejaVuSans-65" x="472.810547"/>
       <use xlink:href="#DejaVuSans-73" x="534.333984"/>
       <use xlink:href="#DejaVuSans-74" x="586.433594"/>
       <use xlink:href="#DejaVuSans-6e" x="625.642578"/>
       <use xlink:href="#DejaVuSans-75" x="689.021484"/>
       <use xlink:href="#DejaVuSans-74" x="752.400391"/>
      </g>
     </g>
    </g>
    <g id="xtick_2">
     <g id="line2d_2">
      <g>
       <use xlink:href="#m8b5a2a81ef" x="165.163" y="230.24" style="stroke: #000000; stroke-width: 0.8"/>
      </g>
     </g>
     <g id="text_2">
      <!-- Wesley Snipes -->
      <g transform="translate(167.922375 309.105625) rotate(-90) scale(0.1 -0.1)">
       <defs>
        <path id="DejaVuSans-57" d="M 213 4666 
L 850 4666 
L 1831 722 
L 2809 4666 
L 3519 4666 
L 4500 722 
L 5478 4666 
L 6119 4666 
L 4947 0 
L 4153 0 
L 3169 4050 
L 2175 0 
L 1381 0 
L 213 4666 
z
" transform="scale(0.015625)"/>
        <path id="DejaVuSans-6c" d="M 603 4863 
L 1178 4863 
L 1178 0 
L 603 0 
L 603 4863 
z
" transform="scale(0.015625)"/>
        <path id="DejaVuSans-79" d="M 2059 -325 
Q 1816 -950 1584 -1140 
Q 1353 -1331 966 -1331 
L 506 -1331 
L 506 -850 
L 844 -850 
Q 1081 -850 1212 -737 
Q 1344 -625 1503 -206 
L 1606 56 
L 191 3500 
L 800 3500 
L 1894 763 
L 2988 3500 
L 3597 3500 
L 2059 -325 
z
" transform="scale(0.015625)"/>
        <path id="DejaVuSans-53" d="M 3425 4513 
L 3425 3897 
Q 3066 4069 2747 4153 
Q 2428 4238 2131 4238 
Q 1616 4238 1336 4038 
Q 1056 3838 1056 3469 
Q 1056 3159 1242 3001 
Q 1428 2844 1947 2747 
L 2328 2669 
Q 3034 2534 3370 2195 
Q 3706 1856 3706 1288 
Q 3706 609 3251 259 
Q 2797 -91 1919 -91 
Q 1588 -91 1214 -16 
Q 841 59 441 206 
L 441 856 
Q 825 641 1194 531 
Q 1563 422 1919 422 
Q 2459 422 2753 634 
Q 3047 847 3047 1241 
Q 3047 1584 2836 1778 
Q 2625 1972 2144 2069 
L 1759 2144 
Q 1053 2284 737 2584 
Q 422 2884 422 3419 
Q 422 4038 858 4394 
Q 1294 4750 2059 4750 
Q 2388 4750 2728 4690 
Q 3069 4631 3425 4513 
z
" transform="scale(0.015625)"/>
        <path id="DejaVuSans-70" d="M 1159 525 
L 1159 -1331 
L 581 -1331 
L 581 3500 
L 1159 3500 
L 1159 2969 
Q 1341 3281 1617 3432 
Q 1894 3584 2278 3584 
Q 2916 3584 3314 3078 
Q 3713 2572 3713 1747 
Q 3713 922 3314 415 
Q 2916 -91 2278 -91 
Q 1894 -91 1617 61 
Q 1341 213 1159 525 
z
M 3116 1747 
Q 3116 2381 2855 2742 
Q 2594 3103 2138 3103 
Q 1681 3103 1420 2742 
Q 1159 2381 1159 1747 
Q 1159 1113 1420 752 
Q 1681 391 2138 391 
Q 2594 391 2855 752 
Q 3116 1113 3116 1747 
z
" transform="scale(0.015625)"/>
       </defs>
       <use xlink:href="#DejaVuSans-57"/>
       <use xlink:href="#DejaVuSans-65" x="93.001953"/>
       <use xlink:href="#DejaVuSans-73" x="154.525391"/>
       <use xlink:href="#DejaVuSans-6c" x="206.625"/>
       <use xlink:href="#DejaVuSans-65" x="234.408203"/>
       <use xlink:href="#DejaVuSans-79" x="295.931641"/>
       <use xlink:href="#DejaVuSans-20" x="355.111328"/>
       <use xlink:href="#DejaVuSans-53" x="386.898438"/>
       <use xlink:href="#DejaVuSans-6e" x="450.375"/>
       <use xlink:href="#DejaVuSans-69" x="513.753906"/>
       <use xlink:href="#DejaVuSans-70" x="541.537109"/>
       <use xlink:href="#DejaVuSans-65" x="605.013672"/>
       <use xlink:href="#DejaVuSans-73" x="666.537109"/>
      </g>
     </g>
    </g>
    <g id="xtick_3">
     <g id="line2d_3">
      <g>
       <use xlink:href="#m8b5a2a81ef" x="246.545" y="230.24" style="stroke: #000000; stroke-width: 0.8"/>
      </g>
     </g>
     <g id="text_3">
      <!-- Samuel L. Jackson -->
      <g transform="translate(249.304375 327.865) rotate(-90) scale(0.1 -0.1)">
       <defs>
        <path id="DejaVuSans-61" d="M 2194 1759 
Q 1497 1759 1228 1600 
Q 959 1441 959 1056 
Q 959 750 1161 570 
Q 1363 391 1709 391 
Q 2188 391 2477 730 
Q 2766 1069 2766 1631 
L 2766 1759 
L 2194 1759 
z
M 3341 1997 
L 3341 0 
L 2766 0 
L 2766 531 
Q 2569 213 2275 61 
Q 1981 -91 1556 -91 
Q 1019 -91 701 211 
Q 384 513 384 1019 
Q 384 1609 779 1909 
Q 1175 2209 1959 2209 
L 2766 2209 
L 2766 2266 
Q 2766 2663 2505 2880 
Q 2244 3097 1772 3097 
Q 1472 3097 1187 3025 
Q 903 2953 641 2809 
L 641 3341 
Q 956 3463 1253 3523 
Q 1550 3584 1831 3584 
Q 2591 3584 2966 3190 
Q 3341 2797 3341 1997 
z
" transform="scale(0.015625)"/>
        <path id="DejaVuSans-6d" d="M 3328 2828 
Q 3544 3216 3844 3400 
Q 4144 3584 4550 3584 
Q 5097 3584 5394 3201 
Q 5691 2819 5691 2113 
L 5691 0 
L 5113 0 
L 5113 2094 
Q 5113 2597 4934 2840 
Q 4756 3084 4391 3084 
Q 3944 3084 3684 2787 
Q 3425 2491 3425 1978 
L 3425 0 
L 2847 0 
L 2847 2094 
Q 2847 2600 2669 2842 
Q 2491 3084 2119 3084 
Q 1678 3084 1418 2786 
Q 1159 2488 1159 1978 
L 1159 0 
L 581 0 
L 581 3500 
L 1159 3500 
L 1159 2956 
Q 1356 3278 1631 3431 
Q 1906 3584 2284 3584 
Q 2666 3584 2933 3390 
Q 3200 3197 3328 2828 
z
" transform="scale(0.015625)"/>
        <path id="DejaVuSans-4c" d="M 628 4666 
L 1259 4666 
L 1259 531 
L 3531 531 
L 3531 0 
L 628 0 
L 628 4666 
z
" transform="scale(0.015625)"/>
        <path id="DejaVuSans-2e" d="M 684 794 
L 1344 794 
L 1344 0 
L 684 0 
L 684 794 
z
" transform="scale(0.015625)"/>
        <path id="DejaVuSans-4a" d="M 628 4666 
L 1259 4666 
L 1259 325 
Q 1259 -519 939 -900 
Q 619 -1281 -91 -1281 
L -331 -1281 
L -331 -750 
L -134 -750 
Q 284 -750 456 -515 
Q 628 -281 628 325 
L 628 4666 
z
" transform="scale(0.015625)"/>
        <path id="DejaVuSans-63" d="M 3122 3366 
L 3122 2828 
Q 2878 2963 2633 3030 
Q 2388 3097 2138 3097 
Q 1578 3097 1268 2742 
Q 959 2388 959 1747 
Q 959 1106 1268 751 
Q 1578 397 2138 397 
Q 2388 397 2633 464 
Q 2878 531 3122 666 
L 3122 134 
Q 2881 22 2623 -34 
Q 2366 -91 2075 -91 
Q 1284 -91 818 406 
Q 353 903 353 1747 
Q 353 2603 823 3093 
Q 1294 3584 2113 3584 
Q 2378 3584 2631 3529 
Q 2884 3475 3122 3366 
z
" transform="scale(0.015625)"/>
        <path id="DejaVuSans-6b" d="M 581 4863 
L 1159 4863 
L 1159 1991 
L 2875 3500 
L 3609 3500 
L 1753 1863 
L 3688 0 
L 2938 0 
L 1159 1709 
L 1159 0 
L 581 0 
L 581 4863 
z
" transform="scale(0.015625)"/>
       </defs>
       <use xlink:href="#DejaVuSans-53"/>
       <use xlink:href="#DejaVuSans-61" x="63.476562"/>
       <use xlink:href="#DejaVuSans-6d" x="124.755859"/>
       <use xlink:href="#DejaVuSans-75" x="222.167969"/>
       <use xlink:href="#DejaVuSans-65" x="285.546875"/>
       <use xlink:href="#DejaVuSans-6c" x="347.070312"/>
       <use xlink:href="#DejaVuSans-20" x="374.853516"/>
       <use xlink:href="#DejaVuSans-4c" x="406.640625"/>
       <use xlink:href="#DejaVuSans-2e" x="462.353516"/>
       <use xlink:href="#DejaVuSans-20" x="494.140625"/>
       <use xlink:href="#DejaVuSans-4a" x="525.927734"/>
       <use xlink:href="#DejaVuSans-61" x="555.419922"/>
       <use xlink:href="#DejaVuSans-63" x="616.699219"/>
       <use xlink:href="#DejaVuSans-6b" x="671.679688"/>
       <use xlink:href="#DejaVuSans-73" x="729.589844"/>
       <use xlink:href="#DejaVuSans-6f" x="781.689453"/>
       <use xlink:href="#DejaVuSans-6e" x="842.871094"/>
      </g>
     </g>
    </g>
    <g id="xtick_4">
     <g id="line2d_4">
      <g>
       <use xlink:href="#m8b5a2a81ef" x="327.927" y="230.24" style="stroke: #000000; stroke-width: 0.8"/>
      </g>
     </g>
     <g id="text_4">
      <!-- Keanu Reeves -->
      <g transform="translate(330.686375 307.518125) rotate(-90) scale(0.1 -0.1)">
       <defs>
        <path id="DejaVuSans-4b" d="M 628 4666 
L 1259 4666 
L 1259 2694 
L 3353 4666 
L 4166 4666 
L 1850 2491 
L 4331 0 
L 3500 0 
L 1259 2247 
L 1259 0 
L 628 0 
L 628 4666 
z
" transform="scale(0.015625)"/>
        <path id="DejaVuSans-52" d="M 2841 2188 
Q 3044 2119 3236 1894 
Q 3428 1669 3622 1275 
L 4263 0 
L 3584 0 
L 2988 1197 
Q 2756 1666 2539 1819 
Q 2322 1972 1947 1972 
L 1259 1972 
L 1259 0 
L 628 0 
L 628 4666 
L 2053 4666 
Q 2853 4666 3247 4331 
Q 3641 3997 3641 3322 
Q 3641 2881 3436 2590 
Q 3231 2300 2841 2188 
z
M 1259 4147 
L 1259 2491 
L 2053 2491 
Q 2509 2491 2742 2702 
Q 2975 2913 2975 3322 
Q 2975 3731 2742 3939 
Q 2509 4147 2053 4147 
L 1259 4147 
z
" transform="scale(0.015625)"/>
        <path id="DejaVuSans-76" d="M 191 3500 
L 800 3500 
L 1894 563 
L 2988 3500 
L 3597 3500 
L 2284 0 
L 1503 0 
L 191 3500 
z
" transform="scale(0.015625)"/>
       </defs>
       <use xlink:href="#DejaVuSans-4b"/>
       <use xlink:href="#DejaVuSans-65" x="60.576172"/>
       <use xlink:href="#DejaVuSans-61" x="122.099609"/>
       <use xlink:href="#DejaVuSans-6e" x="183.378906"/>
       <use xlink:href="#DejaVuSans-75" x="246.757812"/>
       <use xlink:href="#DejaVuSans-20" x="310.136719"/>
       <use xlink:href="#DejaVuSans-52" x="341.923828"/>
       <use xlink:href="#DejaVuSans-65" x="406.90625"/>
       <use xlink:href="#DejaVuSans-65" x="468.429688"/>
       <use xlink:href="#DejaVuSans-76" x="529.953125"/>
       <use xlink:href="#DejaVuSans-65" x="589.132812"/>
       <use xlink:href="#DejaVuSans-73" x="650.65625"/>
      </g>
     </g>
    </g>
    <g id="xtick_5">
     <g id="line2d_5">
      <g>
       <use xlink:href="#m8b5a2a81ef" x="409.309" y="230.24" style="stroke: #000000; stroke-width: 0.8"/>
      </g>
     </g>
     <g id="text_5">
      <!-- Laurence Fishburne -->
      <g transform="translate(412.068375 334.947812) rotate(-90) scale(0.1 -0.1)">
       <defs>
        <path id="DejaVuSans-46" d="M 628 4666 
L 3309 4666 
L 3309 4134 
L 1259 4134 
L 1259 2759 
L 3109 2759 
L 3109 2228 
L 1259 2228 
L 1259 0 
L 628 0 
L 628 4666 
z
" transform="scale(0.015625)"/>
        <path id="DejaVuSans-62" d="M 3116 1747 
Q 3116 2381 2855 2742 
Q 2594 3103 2138 3103 
Q 1681 3103 1420 2742 
Q 1159 2381 1159 1747 
Q 1159 1113 1420 752 
Q 1681 391 2138 391 
Q 2594 391 2855 752 
Q 3116 1113 3116 1747 
z
M 1159 2969 
Q 1341 3281 1617 3432 
Q 1894 3584 2278 3584 
Q 2916 3584 3314 3078 
Q 3713 2572 3713 1747 
Q 3713 922 3314 415 
Q 2916 -91 2278 -91 
Q 1894 -91 1617 61 
Q 1341 213 1159 525 
L 1159 0 
L 581 0 
L 581 4863 
L 1159 4863 
L 1159 2969 
z
" transform="scale(0.015625)"/>
       </defs>
       <use xlink:href="#DejaVuSans-4c"/>
       <use xlink:href="#DejaVuSans-61" x="55.712891"/>
       <use xlink:href="#DejaVuSans-75" x="116.992188"/>
       <use xlink:href="#DejaVuSans-72" x="180.371094"/>
       <use xlink:href="#DejaVuSans-65" x="219.234375"/>
       <use xlink:href="#DejaVuSans-6e" x="280.757812"/>
       <use xlink:href="#DejaVuSans-63" x="344.136719"/>
       <use xlink:href="#DejaVuSans-65" x="399.117188"/>
       <use xlink:href="#DejaVuSans-20" x="460.640625"/>
       <use xlink:href="#DejaVuSans-46" x="492.427734"/>
       <use xlink:href="#DejaVuSans-69" x="542.697266"/>
       <use xlink:href="#DejaVuSans-73" x="570.480469"/>
       <use xlink:href="#DejaVuSans-68" x="622.580078"/>
       <use xlink:href="#DejaVuSans-62" x="685.958984"/>
       <use xlink:href="#DejaVuSans-75" x="749.435547"/>
       <use xlink:href="#DejaVuSans-72" x="812.814453"/>
       <use xlink:href="#DejaVuSans-6e" x="852.177734"/>
       <use xlink:href="#DejaVuSans-65" x="915.556641"/>
      </g>
     </g>
    </g>
   </g>
   <g id="matplotlib.axis_2">
    <g id="ytick_1">
     <g id="line2d_6">
      <defs>
       <path id="mcc9c46d530" d="M 0 0 
L -3.5 0 
" style="stroke: #000000; stroke-width: 0.8"/>
      </defs>
      <g>
       <use xlink:href="#mcc9c46d530" x="43.09" y="230.24" style="stroke: #000000; stroke-width: 0.8"/>
      </g>
     </g>
     <g id="text_6">
      <!-- 0 -->
      <g transform="translate(29.7275 234.039219) scale(0.1 -0.1)">
       <defs>
        <path id="DejaVuSans-30" d="M 2034 4250 
Q 1547 4250 1301 3770 
Q 1056 3291 1056 2328 
Q 1056 1369 1301 889 
Q 1547 409 2034 409 
Q 2525 409 2770 889 
Q 3016 1369 3016 2328 
Q 3016 3291 2770 3770 
Q 2525 4250 2034 4250 
z
M 2034 4750 
Q 2819 4750 3233 4129 
Q 3647 3509 3647 2328 
Q 3647 1150 3233 529 
Q 2819 -91 2034 -91 
Q 1250 -91 836 529 
Q 422 1150 422 2328 
Q 422 3509 836 4129 
Q 1250 4750 2034 4750 
z
" transform="scale(0.015625)"/>
       </defs>
       <use xlink:href="#DejaVuSans-30"/>
      </g>
     </g>
    </g>
    <g id="ytick_2">
     <g id="line2d_7">
      <g>
       <use xlink:href="#mcc9c46d530" x="43.09" y="198.820118" style="stroke: #000000; stroke-width: 0.8"/>
      </g>
     </g>
     <g id="text_7">
      <!-- 500 -->
      <g transform="translate(17.0025 202.619337) scale(0.1 -0.1)">
       <defs>
        <path id="DejaVuSans-35" d="M 691 4666 
L 3169 4666 
L 3169 4134 
L 1269 4134 
L 1269 2991 
Q 1406 3038 1543 3061 
Q 1681 3084 1819 3084 
Q 2600 3084 3056 2656 
Q 3513 2228 3513 1497 
Q 3513 744 3044 326 
Q 2575 -91 1722 -91 
Q 1428 -91 1123 -41 
Q 819 9 494 109 
L 494 744 
Q 775 591 1075 516 
Q 1375 441 1709 441 
Q 2250 441 2565 725 
Q 2881 1009 2881 1497 
Q 2881 1984 2565 2268 
Q 2250 2553 1709 2553 
Q 1456 2553 1204 2497 
Q 953 2441 691 2322 
L 691 4666 
z
" transform="scale(0.015625)"/>
       </defs>
       <use xlink:href="#DejaVuSans-35"/>
       <use xlink:href="#DejaVuSans-30" x="63.623047"/>
       <use xlink:href="#DejaVuSans-30" x="127.246094"/>
      </g>
     </g>
    </g>
    <g id="ytick_3">
     <g id="line2d_8">
      <g>
       <use xlink:href="#mcc9c46d530" x="43.09" y="167.400236" style="stroke: #000000; stroke-width: 0.8"/>
      </g>
     </g>
     <g id="text_8">
      <!-- 1000 -->
      <g transform="translate(10.64 171.199455) scale(0.1 -0.1)">
       <defs>
        <path id="DejaVuSans-31" d="M 794 531 
L 1825 531 
L 1825 4091 
L 703 3866 
L 703 4441 
L 1819 4666 
L 2450 4666 
L 2450 531 
L 3481 531 
L 3481 0 
L 794 0 
L 794 531 
z
" transform="scale(0.015625)"/>
       </defs>
       <use xlink:href="#DejaVuSans-31"/>
       <use xlink:href="#DejaVuSans-30" x="63.623047"/>
       <use xlink:href="#DejaVuSans-30" x="127.246094"/>
       <use xlink:href="#DejaVuSans-30" x="190.869141"/>
      </g>
     </g>
    </g>
    <g id="ytick_4">
     <g id="line2d_9">
      <g>
       <use xlink:href="#mcc9c46d530" x="43.09" y="135.980354" style="stroke: #000000; stroke-width: 0.8"/>
      </g>
     </g>
     <g id="text_9">
      <!-- 1500 -->
      <g transform="translate(10.64 139.779573) scale(0.1 -0.1)">
       <use xlink:href="#DejaVuSans-31"/>
       <use xlink:href="#DejaVuSans-35" x="63.623047"/>
       <use xlink:href="#DejaVuSans-30" x="127.246094"/>
       <use xlink:href="#DejaVuSans-30" x="190.869141"/>
      </g>
     </g>
    </g>
    <g id="ytick_5">
     <g id="line2d_10">
      <g>
       <use xlink:href="#mcc9c46d530" x="43.09" y="104.560472" style="stroke: #000000; stroke-width: 0.8"/>
      </g>
     </g>
     <g id="text_10">
      <!-- 2000 -->
      <g transform="translate(10.64 108.359691) scale(0.1 -0.1)">
       <defs>
        <path id="DejaVuSans-32" d="M 1228 531 
L 3431 531 
L 3431 0 
L 469 0 
L 469 531 
Q 828 903 1448 1529 
Q 2069 2156 2228 2338 
Q 2531 2678 2651 2914 
Q 2772 3150 2772 3378 
Q 2772 3750 2511 3984 
Q 2250 4219 1831 4219 
Q 1534 4219 1204 4116 
Q 875 4013 500 3803 
L 500 4441 
Q 881 4594 1212 4672 
Q 1544 4750 1819 4750 
Q 2544 4750 2975 4387 
Q 3406 4025 3406 3419 
Q 3406 3131 3298 2873 
Q 3191 2616 2906 2266 
Q 2828 2175 2409 1742 
Q 1991 1309 1228 531 
z
" transform="scale(0.015625)"/>
       </defs>
       <use xlink:href="#DejaVuSans-32"/>
       <use xlink:href="#DejaVuSans-30" x="63.623047"/>
       <use xlink:href="#DejaVuSans-30" x="127.246094"/>
       <use xlink:href="#DejaVuSans-30" x="190.869141"/>
      </g>
     </g>
    </g>
    <g id="ytick_6">
     <g id="line2d_11">
      <g>
       <use xlink:href="#mcc9c46d530" x="43.09" y="73.14059" style="stroke: #000000; stroke-width: 0.8"/>
      </g>
     </g>
     <g id="text_11">
      <!-- 2500 -->
      <g transform="translate(10.64 76.939809) scale(0.1 -0.1)">
       <use xlink:href="#DejaVuSans-32"/>
       <use xlink:href="#DejaVuSans-35" x="63.623047"/>
       <use xlink:href="#DejaVuSans-30" x="127.246094"/>
       <use xlink:href="#DejaVuSans-30" x="190.869141"/>
      </g>
     </g>
    </g>
    <g id="ytick_7">
     <g id="line2d_12">
      <g>
       <use xlink:href="#mcc9c46d530" x="43.09" y="41.720708" style="stroke: #000000; stroke-width: 0.8"/>
      </g>
     </g>
     <g id="text_12">
      <!-- 3000 -->
      <g transform="translate(10.64 45.519927) scale(0.1 -0.1)">
       <defs>
        <path id="DejaVuSans-33" d="M 2597 2516 
Q 3050 2419 3304 2112 
Q 3559 1806 3559 1356 
Q 3559 666 3084 287 
Q 2609 -91 1734 -91 
Q 1441 -91 1130 -33 
Q 819 25 488 141 
L 488 750 
Q 750 597 1062 519 
Q 1375 441 1716 441 
Q 2309 441 2620 675 
Q 2931 909 2931 1356 
Q 2931 1769 2642 2001 
Q 2353 2234 1838 2234 
L 1294 2234 
L 1294 2753 
L 1863 2753 
Q 2328 2753 2575 2939 
Q 2822 3125 2822 3475 
Q 2822 3834 2567 4026 
Q 2313 4219 1838 4219 
Q 1578 4219 1281 4162 
Q 984 4106 628 3988 
L 628 4550 
Q 988 4650 1302 4700 
Q 1616 4750 1894 4750 
Q 2613 4750 3031 4423 
Q 3450 4097 3450 3541 
Q 3450 3153 3228 2886 
Q 3006 2619 2597 2516 
z
" transform="scale(0.015625)"/>
       </defs>
       <use xlink:href="#DejaVuSans-33"/>
       <use xlink:href="#DejaVuSans-30" x="63.623047"/>
       <use xlink:href="#DejaVuSans-30" x="127.246094"/>
       <use xlink:href="#DejaVuSans-30" x="190.869141"/>
      </g>
     </g>
    </g>
   </g>
   <g id="patch_261">
    <path d="M 43.09 230.24 
L 43.09 10.8 
" style="fill: none; stroke: #000000; stroke-width: 0.8; stroke-linejoin: miter; stroke-linecap: square"/>
   </g>
   <g id="patch_262">
    <path d="M 450 230.24 
L 450 10.8 
" style="fill: none; stroke: #000000; stroke-width: 0.8; stroke-linejoin: miter; stroke-linecap: square"/>
   </g>
   <g id="patch_263">
    <path d="M 43.09 230.24 
L 450 230.24 
" style="fill: none; stroke: #000000; stroke-width: 0.8; stroke-linejoin: miter; stroke-linecap: square"/>
   </g>
   <g id="patch_264">
    <path d="M 43.09 10.8 
L 450 10.8 
" style="fill: none; stroke: #000000; stroke-width: 0.8; stroke-linejoin: miter; stroke-linecap: square"/>
   </g>
  </g>
 </g>
 <defs>
  <clipPath id="p83335c5085">
   <rect x="43.09" y="10.8" width="406.91" height="219.44"/>
  </clipPath>
 </defs>
</svg>
