<?xml version="1.0" encoding="utf-8" standalone="no"?>
<!DOCTYPE svg PUBLIC "-//W3C//DTD SVG 1.1//EN"
  "http://www.w3.org/Graphics/SVG/1.1/DTD/svg11.dtd">
<svg xmlns:xlink="http://www.w3.org/1999/xlink" width="460.8pt" height="345.6pt" viewBox="0 0 460.8 345.6" xmlns="http://www.w3.org/2000/svg" version="1.1">
 <metadata>
  <rdf:RDF xmlns:dc="http://purl.org/dc/elements/1.1/" xmlns:cc="http://creativecommons.org/ns#" xmlns:rdf="http://www.w3.org/1999/02/22-rdf-syntax-ns#">
   <cc:Work>
    <dc:type rdf:resource="http://purl.org/dc/dcmitype/StillImage"/>
    <dc:date>2022-12-20T12:31:09.334259</dc:date>
    <dc:format>image/svg+xml</dc:format>
    <dc:creator>
     <cc:Agent>
      <dc:title>Matplotlib v3.6.0, https://matplotlib.org/</dc:title>
     </cc:Agent>
    </dc:creator>
   </cc:Work>
  </rdf:RDF>
 </metadata>
 <defs>
  <style type="text/css">*{stroke-linejoin: round; stroke-linecap: butt}</style>
 </defs>
 <g id="figure_1">
  <g id="patch_1">
   <path d="M 0 345.6 
L 460.8 345.6 
L 460.8 0 
L 0 0 
z
" style="fill: #ffffff"/>
  </g>
  <g id="axes_1">
   <g id="patch_2">
    <path d="M 43.09 262.1 
L 450 262.1 
L 450 10.8 
L 43.09 10.8 
z
" style="fill: #ffffff"/>
   </g>
   <g id="patch_3">
    <path d="M 63.4355 262.1 
L 104.1265 262.1 
L 104.1265 181.187366 
L 63.4355 181.187366 
z
" clip-path="url(#p4e25eb436a)" style="fill: #1f77b4"/>
   </g>
   <g id="patch_4">
    <path d="M 144.8175 262.1 
L 185.5085 262.1 
L 185.5085 200.217937 
L 144.8175 200.217937 
z
" clip-path="url(#p4e25eb436a)" style="fill: #1f77b4"/>
   </g>
   <g id="patch_5">
    <path d="M 226.1995 262.1 
L 266.8905 262.1 
L 266.8905 194.556597 
L 226.1995 194.556597 
z
" clip-path="url(#p4e25eb436a)" style="fill: #1f77b4"/>
   </g>
   <g id="patch_6">
    <path d="M 307.5815 262.1 
L 348.2725 262.1 
L 348.2725 206.995902 
L 307.5815 206.995902 
z
" clip-path="url(#p4e25eb436a)" style="fill: #1f77b4"/>
   </g>
   <g id="patch_7">
    <path d="M 388.9635 262.1 
L 429.6545 262.1 
L 429.6545 228.947063 
L 388.9635 228.947063 
z
" clip-path="url(#p4e25eb436a)" style="fill: #1f77b4"/>
   </g>
   <g id="patch_8">
    <path d="M 63.4355 262.1 
L 104.1265 262.1 
L 104.1265 261.88411 
L 63.4355 261.88411 
z
" clip-path="url(#p4e25eb436a)" style="fill: #1f77b4"/>
   </g>
   <g id="patch_9">
    <path d="M 144.8175 262.1 
L 185.5085 262.1 
L 185.5085 262.028037 
L 144.8175 262.028037 
z
" clip-path="url(#p4e25eb436a)" style="fill: #1f77b4"/>
   </g>
   <g id="patch_10">
    <path d="M 226.1995 262.1 
L 266.8905 262.1 
L 266.8905 262.1 
L 226.1995 262.1 
z
" clip-path="url(#p4e25eb436a)" style="fill: #1f77b4"/>
   </g>
   <g id="patch_11">
    <path d="M 63.4355 262.1 
L 104.1265 262.1 
L 104.1265 262.076012 
L 63.4355 262.076012 
z
" clip-path="url(#p4e25eb436a)" style="fill: #1f77b4"/>
   </g>
   <g id="patch_12">
    <path d="M 144.8175 262.1 
L 185.5085 262.1 
L 185.5085 262.076012 
L 144.8175 262.076012 
z
" clip-path="url(#p4e25eb436a)" style="fill: #1f77b4"/>
   </g>
   <g id="patch_13">
    <path d="M 226.1995 262.1 
L 266.8905 262.1 
L 266.8905 262.076012 
L 226.1995 262.076012 
z
" clip-path="url(#p4e25eb436a)" style="fill: #1f77b4"/>
   </g>
   <g id="patch_14">
    <path d="M 307.5815 262.1 
L 348.2725 262.1 
L 348.2725 262.028037 
L 307.5815 262.028037 
z
" clip-path="url(#p4e25eb436a)" style="fill: #1f77b4"/>
   </g>
   <g id="patch_15">
    <path d="M 388.9635 262.1 
L 429.6545 262.1 
L 429.6545 262.1 
L 388.9635 262.1 
z
" clip-path="url(#p4e25eb436a)" style="fill: #1f77b4"/>
   </g>
   <g id="patch_16">
    <path d="M 63.4355 262.1 
L 104.1265 262.1 
L 104.1265 248.570894 
L 63.4355 248.570894 
z
" clip-path="url(#p4e25eb436a)" style="fill: #1f77b4"/>
   </g>
   <g id="patch_17">
    <path d="M 144.8175 262.1 
L 185.5085 262.1 
L 185.5085 258.285944 
L 144.8175 258.285944 
z
" clip-path="url(#p4e25eb436a)" style="fill: #1f77b4"/>
   </g>
   <g id="patch_18">
    <path d="M 226.1995 262.1 
L 266.8905 262.1 
L 266.8905 258.969595 
L 226.1995 258.969595 
z
" clip-path="url(#p4e25eb436a)" style="fill: #1f77b4"/>
   </g>
   <g id="patch_19">
    <path d="M 307.5815 262.1 
L 348.2725 262.1 
L 348.2725 248.930711 
L 307.5815 248.930711 
z
" clip-path="url(#p4e25eb436a)" style="fill: #1f77b4"/>
   </g>
   <g id="patch_20">
    <path d="M 388.9635 262.1 
L 429.6545 262.1 
L 429.6545 260.408862 
L 388.9635 260.408862 
z
" clip-path="url(#p4e25eb436a)" style="fill: #1f77b4"/>
   </g>
   <g id="patch_21">
    <path d="M 63.4355 262.1 
L 104.1265 262.1 
L 104.1265 262.028037 
L 63.4355 262.028037 
z
" clip-path="url(#p4e25eb436a)" style="fill: #1f77b4"/>
   </g>
   <g id="patch_22">
    <path d="M 144.8175 262.1 
L 185.5085 262.1 
L 185.5085 262.1 
L 144.8175 262.1 
z
" clip-path="url(#p4e25eb436a)" style="fill: #1f77b4"/>
   </g>
   <g id="patch_23">
    <path d="M 226.1995 262.1 
L 266.8905 262.1 
L 266.8905 262.1 
L 226.1995 262.1 
z
" clip-path="url(#p4e25eb436a)" style="fill: #1f77b4"/>
   </g>
   <g id="patch_24">
    <path d="M 307.5815 262.1 
L 348.2725 262.1 
L 348.2725 262.1 
L 307.5815 262.1 
z
" clip-path="url(#p4e25eb436a)" style="fill: #1f77b4"/>
   </g>
   <g id="patch_25">
    <path d="M 63.4355 262.1 
L 104.1265 262.1 
L 104.1265 260.15699 
L 63.4355 260.15699 
z
" clip-path="url(#p4e25eb436a)" style="fill: #1f77b4"/>
   </g>
   <g id="patch_26">
    <path d="M 144.8175 262.1 
L 185.5085 262.1 
L 185.5085 261.88411 
L 144.8175 261.88411 
z
" clip-path="url(#p4e25eb436a)" style="fill: #1f77b4"/>
   </g>
   <g id="patch_27">
    <path d="M 226.1995 262.1 
L 266.8905 262.1 
L 266.8905 262.028037 
L 226.1995 262.028037 
z
" clip-path="url(#p4e25eb436a)" style="fill: #1f77b4"/>
   </g>
   <g id="patch_28">
    <path d="M 307.5815 262.1 
L 348.2725 262.1 
L 348.2725 262.028037 
L 307.5815 262.028037 
z
" clip-path="url(#p4e25eb436a)" style="fill: #1f77b4"/>
   </g>
   <g id="patch_29">
    <path d="M 388.9635 262.1 
L 429.6545 262.1 
L 429.6545 261.596257 
L 388.9635 261.596257 
z
" clip-path="url(#p4e25eb436a)" style="fill: #1f77b4"/>
   </g>
   <g id="patch_30">
    <path d="M 63.4355 262.1 
L 104.1265 262.1 
L 104.1265 261.956073 
L 63.4355 261.956073 
z
" clip-path="url(#p4e25eb436a)" style="fill: #1f77b4"/>
   </g>
   <g id="patch_31">
    <path d="M 144.8175 262.1 
L 185.5085 262.1 
L 185.5085 261.956073 
L 144.8175 261.956073 
z
" clip-path="url(#p4e25eb436a)" style="fill: #1f77b4"/>
   </g>
   <g id="patch_32">
    <path d="M 226.1995 262.1 
L 266.8905 262.1 
L 266.8905 261.956073 
L 226.1995 261.956073 
z
" clip-path="url(#p4e25eb436a)" style="fill: #1f77b4"/>
   </g>
   <g id="patch_33">
    <path d="M 307.5815 262.1 
L 348.2725 262.1 
L 348.2725 261.956073 
L 307.5815 261.956073 
z
" clip-path="url(#p4e25eb436a)" style="fill: #1f77b4"/>
   </g>
   <g id="patch_34">
    <path d="M 388.9635 262.1 
L 429.6545 262.1 
L 429.6545 261.956073 
L 388.9635 261.956073 
z
" clip-path="url(#p4e25eb436a)" style="fill: #1f77b4"/>
   </g>
   <g id="patch_35">
    <path d="M 63.4355 262.1 
L 104.1265 262.1 
L 104.1265 261.88411 
L 63.4355 261.88411 
z
" clip-path="url(#p4e25eb436a)" style="fill: #1f77b4"/>
   </g>
   <g id="patch_36">
    <path d="M 144.8175 262.1 
L 185.5085 262.1 
L 185.5085 261.920092 
L 144.8175 261.920092 
z
" clip-path="url(#p4e25eb436a)" style="fill: #1f77b4"/>
   </g>
   <g id="patch_37">
    <path d="M 226.1995 262.1 
L 266.8905 262.1 
L 266.8905 262.028037 
L 226.1995 262.028037 
z
" clip-path="url(#p4e25eb436a)" style="fill: #1f77b4"/>
   </g>
   <g id="patch_38">
    <path d="M 307.5815 262.1 
L 348.2725 262.1 
L 348.2725 262.064018 
L 307.5815 262.064018 
z
" clip-path="url(#p4e25eb436a)" style="fill: #1f77b4"/>
   </g>
   <g id="patch_39">
    <path d="M 388.9635 262.1 
L 429.6545 262.1 
L 429.6545 262.064018 
L 388.9635 262.064018 
z
" clip-path="url(#p4e25eb436a)" style="fill: #1f77b4"/>
   </g>
   <g id="patch_40">
    <path d="M 63.4355 262.1 
L 104.1265 262.1 
L 104.1265 261.88411 
L 63.4355 261.88411 
z
" clip-path="url(#p4e25eb436a)" style="fill: #1f77b4"/>
   </g>
   <g id="patch_41">
    <path d="M 144.8175 262.1 
L 185.5085 262.1 
L 185.5085 262.1 
L 144.8175 262.1 
z
" clip-path="url(#p4e25eb436a)" style="fill: #1f77b4"/>
   </g>
   <g id="patch_42">
    <path d="M 226.1995 262.1 
L 266.8905 262.1 
L 266.8905 262.1 
L 226.1995 262.1 
z
" clip-path="url(#p4e25eb436a)" style="fill: #1f77b4"/>
   </g>
   <g id="patch_43">
    <path d="M 63.4355 262.1 
L 104.1265 262.1 
L 104.1265 261.88411 
L 63.4355 261.88411 
z
" clip-path="url(#p4e25eb436a)" style="fill: #1f77b4"/>
   </g>
   <g id="patch_44">
    <path d="M 144.8175 262.1 
L 185.5085 262.1 
L 185.5085 262.028037 
L 144.8175 262.028037 
z
" clip-path="url(#p4e25eb436a)" style="fill: #1f77b4"/>
   </g>
   <g id="patch_45">
    <path d="M 63.4355 262.1 
L 104.1265 262.1 
L 104.1265 182.751862 
L 63.4355 182.751862 
z
" clip-path="url(#p4e25eb436a)" style="fill: #1f77b4"/>
   </g>
   <g id="patch_46">
    <path d="M 144.8175 262.1 
L 185.5085 262.1 
L 185.5085 205.085431 
L 144.8175 205.085431 
z
" clip-path="url(#p4e25eb436a)" style="fill: #1f77b4"/>
   </g>
   <g id="patch_47">
    <path d="M 226.1995 262.1 
L 266.8905 262.1 
L 266.8905 212.544891 
L 226.1995 212.544891 
z
" clip-path="url(#p4e25eb436a)" style="fill: #1f77b4"/>
   </g>
   <g id="patch_48">
    <path d="M 307.5815 262.1 
L 348.2725 262.1 
L 348.2725 205.283464 
L 307.5815 205.283464 
z
" clip-path="url(#p4e25eb436a)" style="fill: #1f77b4"/>
   </g>
   <g id="patch_49">
    <path d="M 388.9635 262.1 
L 429.6545 262.1 
L 429.6545 220.312001 
L 388.9635 220.312001 
z
" clip-path="url(#p4e25eb436a)" style="fill: #1f77b4"/>
   </g>
   <g id="patch_50">
    <path d="M 63.4355 262.1 
L 104.1265 262.1 
L 104.1265 262.1 
L 63.4355 262.1 
z
" clip-path="url(#p4e25eb436a)" style="fill: #1f77b4"/>
   </g>
   <g id="patch_51">
    <path d="M 144.8175 262.1 
L 185.5085 262.1 
L 185.5085 262.1 
L 144.8175 262.1 
z
" clip-path="url(#p4e25eb436a)" style="fill: #1f77b4"/>
   </g>
   <g id="patch_52">
    <path d="M 226.1995 262.1 
L 266.8905 262.1 
L 266.8905 262.1 
L 226.1995 262.1 
z
" clip-path="url(#p4e25eb436a)" style="fill: #1f77b4"/>
   </g>
   <g id="patch_53">
    <path d="M 307.5815 262.1 
L 348.2725 262.1 
L 348.2725 262.1 
L 307.5815 262.1 
z
" clip-path="url(#p4e25eb436a)" style="fill: #1f77b4"/>
   </g>
   <g id="patch_54">
    <path d="M 388.9635 262.1 
L 429.6545 262.1 
L 429.6545 262.1 
L 388.9635 262.1 
z
" clip-path="url(#p4e25eb436a)" style="fill: #1f77b4"/>
   </g>
   <g id="patch_55">
    <path d="M 63.4355 262.1 
L 104.1265 262.1 
L 104.1265 262.028037 
L 63.4355 262.028037 
z
" clip-path="url(#p4e25eb436a)" style="fill: #1f77b4"/>
   </g>
   <g id="patch_56">
    <path d="M 144.8175 262.1 
L 185.5085 262.1 
L 185.5085 262.1 
L 144.8175 262.1 
z
" clip-path="url(#p4e25eb436a)" style="fill: #1f77b4"/>
   </g>
   <g id="patch_57">
    <path d="M 226.1995 262.1 
L 266.8905 262.1 
L 266.8905 262.1 
L 226.1995 262.1 
z
" clip-path="url(#p4e25eb436a)" style="fill: #1f77b4"/>
   </g>
   <g id="patch_58">
    <path d="M 307.5815 262.1 
L 348.2725 262.1 
L 348.2725 262.1 
L 307.5815 262.1 
z
" clip-path="url(#p4e25eb436a)" style="fill: #1f77b4"/>
   </g>
   <g id="patch_59">
    <path d="M 388.9635 262.1 
L 429.6545 262.1 
L 429.6545 262.1 
L 388.9635 262.1 
z
" clip-path="url(#p4e25eb436a)" style="fill: #1f77b4"/>
   </g>
   <g id="patch_60">
    <path d="M 63.4355 262.1 
L 104.1265 262.1 
L 104.1265 261.704202 
L 63.4355 261.704202 
z
" clip-path="url(#p4e25eb436a)" style="fill: #1f77b4"/>
   </g>
   <g id="patch_61">
    <path d="M 144.8175 262.1 
L 185.5085 262.1 
L 185.5085 261.88411 
L 144.8175 261.88411 
z
" clip-path="url(#p4e25eb436a)" style="fill: #1f77b4"/>
   </g>
   <g id="patch_62">
    <path d="M 226.1995 262.1 
L 266.8905 262.1 
L 266.8905 262.064018 
L 226.1995 262.064018 
z
" clip-path="url(#p4e25eb436a)" style="fill: #1f77b4"/>
   </g>
   <g id="patch_63">
    <path d="M 307.5815 262.1 
L 348.2725 262.1 
L 348.2725 262.1 
L 307.5815 262.1 
z
" clip-path="url(#p4e25eb436a)" style="fill: #1f77b4"/>
   </g>
   <g id="patch_64">
    <path d="M 388.9635 262.1 
L 429.6545 262.1 
L 429.6545 262.1 
L 388.9635 262.1 
z
" clip-path="url(#p4e25eb436a)" style="fill: #1f77b4"/>
   </g>
   <g id="patch_65">
    <path d="M 63.4355 262.1 
L 104.1265 262.1 
L 104.1265 254.148052 
L 63.4355 254.148052 
z
" clip-path="url(#p4e25eb436a)" style="fill: #1f77b4"/>
   </g>
   <g id="patch_66">
    <path d="M 144.8175 262.1 
L 185.5085 262.1 
L 185.5085 261.380367 
L 144.8175 261.380367 
z
" clip-path="url(#p4e25eb436a)" style="fill: #1f77b4"/>
   </g>
   <g id="patch_67">
    <path d="M 226.1995 262.1 
L 266.8905 262.1 
L 266.8905 257.758213 
L 226.1995 257.758213 
z
" clip-path="url(#p4e25eb436a)" style="fill: #1f77b4"/>
   </g>
   <g id="patch_68">
    <path d="M 307.5815 262.1 
L 348.2725 262.1 
L 348.2725 256.630787 
L 307.5815 256.630787 
z
" clip-path="url(#p4e25eb436a)" style="fill: #1f77b4"/>
   </g>
   <g id="patch_69">
    <path d="M 388.9635 262.1 
L 429.6545 262.1 
L 429.6545 257.674255 
L 388.9635 257.674255 
z
" clip-path="url(#p4e25eb436a)" style="fill: #1f77b4"/>
   </g>
   <g id="patch_70">
    <path d="M 63.4355 262.1 
L 104.1265 262.1 
L 104.1265 238.151355 
L 63.4355 238.151355 
z
" clip-path="url(#p4e25eb436a)" style="fill: #1f77b4"/>
   </g>
   <g id="patch_71">
    <path d="M 144.8175 262.1 
L 185.5085 262.1 
L 185.5085 241.588004 
L 144.8175 241.588004 
z
" clip-path="url(#p4e25eb436a)" style="fill: #1f77b4"/>
   </g>
   <g id="patch_72">
    <path d="M 226.1995 262.1 
L 266.8905 262.1 
L 266.8905 212.286312 
L 226.1995 212.286312 
z
" clip-path="url(#p4e25eb436a)" style="fill: #1f77b4"/>
   </g>
   <g id="patch_73">
    <path d="M 307.5815 262.1 
L 348.2725 262.1 
L 348.2725 232.06131 
L 307.5815 232.06131 
z
" clip-path="url(#p4e25eb436a)" style="fill: #1f77b4"/>
   </g>
   <g id="patch_74">
    <path d="M 388.9635 262.1 
L 429.6545 262.1 
L 429.6545 211.958338 
L 388.9635 211.958338 
z
" clip-path="url(#p4e25eb436a)" style="fill: #1f77b4"/>
   </g>
   <g id="patch_75">
    <path d="M 63.4355 262.1 
L 104.1265 262.1 
L 104.1265 262.1 
L 63.4355 262.1 
z
" clip-path="url(#p4e25eb436a)" style="fill: #1f77b4"/>
   </g>
   <g id="patch_76">
    <path d="M 144.8175 262.1 
L 185.5085 262.1 
L 185.5085 262.1 
L 144.8175 262.1 
z
" clip-path="url(#p4e25eb436a)" style="fill: #1f77b4"/>
   </g>
   <g id="patch_77">
    <path d="M 63.4355 262.1 
L 104.1265 262.1 
L 104.1265 261.200458 
L 63.4355 261.200458 
z
" clip-path="url(#p4e25eb436a)" style="fill: #1f77b4"/>
   </g>
   <g id="patch_78">
    <path d="M 144.8175 262.1 
L 185.5085 262.1 
L 185.5085 261.380367 
L 144.8175 261.380367 
z
" clip-path="url(#p4e25eb436a)" style="fill: #1f77b4"/>
   </g>
   <g id="patch_79">
    <path d="M 226.1995 262.1 
L 266.8905 262.1 
L 266.8905 261.66822 
L 226.1995 261.66822 
z
" clip-path="url(#p4e25eb436a)" style="fill: #1f77b4"/>
   </g>
   <g id="patch_80">
    <path d="M 307.5815 262.1 
L 348.2725 262.1 
L 348.2725 262.028037 
L 307.5815 262.028037 
z
" clip-path="url(#p4e25eb436a)" style="fill: #1f77b4"/>
   </g>
   <g id="patch_81">
    <path d="M 388.9635 262.1 
L 429.6545 262.1 
L 429.6545 261.956073 
L 388.9635 261.956073 
z
" clip-path="url(#p4e25eb436a)" style="fill: #1f77b4"/>
   </g>
   <g id="patch_82">
    <path d="M 63.4355 262.1 
L 104.1265 262.1 
L 104.1265 261.88411 
L 63.4355 261.88411 
z
" clip-path="url(#p4e25eb436a)" style="fill: #1f77b4"/>
   </g>
   <g id="patch_83">
    <path d="M 144.8175 262.1 
L 185.5085 262.1 
L 185.5085 261.88411 
L 144.8175 261.88411 
z
" clip-path="url(#p4e25eb436a)" style="fill: #1f77b4"/>
   </g>
   <g id="patch_84">
    <path d="M 226.1995 262.1 
L 266.8905 262.1 
L 266.8905 262.028037 
L 226.1995 262.028037 
z
" clip-path="url(#p4e25eb436a)" style="fill: #1f77b4"/>
   </g>
   <g id="patch_85">
    <path d="M 307.5815 262.1 
L 348.2725 262.1 
L 348.2725 262.1 
L 307.5815 262.1 
z
" clip-path="url(#p4e25eb436a)" style="fill: #1f77b4"/>
   </g>
   <g id="patch_86">
    <path d="M 388.9635 262.1 
L 429.6545 262.1 
L 429.6545 262.1 
L 388.9635 262.1 
z
" clip-path="url(#p4e25eb436a)" style="fill: #1f77b4"/>
   </g>
   <g id="patch_87">
    <path d="M 63.4355 262.1 
L 104.1265 262.1 
L 104.1265 260.58877 
L 63.4355 260.58877 
z
" clip-path="url(#p4e25eb436a)" style="fill: #1f77b4"/>
   </g>
   <g id="patch_88">
    <path d="M 144.8175 262.1 
L 185.5085 262.1 
L 185.5085 262.064018 
L 144.8175 262.064018 
z
" clip-path="url(#p4e25eb436a)" style="fill: #1f77b4"/>
   </g>
   <g id="patch_89">
    <path d="M 226.1995 262.1 
L 266.8905 262.1 
L 266.8905 262.064018 
L 226.1995 262.064018 
z
" clip-path="url(#p4e25eb436a)" style="fill: #1f77b4"/>
   </g>
   <g id="patch_90">
    <path d="M 307.5815 262.1 
L 348.2725 262.1 
L 348.2725 262.064018 
L 307.5815 262.064018 
z
" clip-path="url(#p4e25eb436a)" style="fill: #1f77b4"/>
   </g>
   <g id="patch_91">
    <path d="M 388.9635 262.1 
L 429.6545 262.1 
L 429.6545 262.064018 
L 388.9635 262.064018 
z
" clip-path="url(#p4e25eb436a)" style="fill: #1f77b4"/>
   </g>
   <g id="patch_92">
    <path d="M 63.4355 262.1 
L 104.1265 262.1 
L 104.1265 262.1 
L 63.4355 262.1 
z
" clip-path="url(#p4e25eb436a)" style="fill: #1f77b4"/>
   </g>
   <g id="patch_93">
    <path d="M 63.4355 262.1 
L 104.1265 262.1 
L 104.1265 261.740183 
L 63.4355 261.740183 
z
" clip-path="url(#p4e25eb436a)" style="fill: #1f77b4"/>
   </g>
   <g id="patch_94">
    <path d="M 144.8175 262.1 
L 185.5085 262.1 
L 185.5085 261.740183 
L 144.8175 261.740183 
z
" clip-path="url(#p4e25eb436a)" style="fill: #1f77b4"/>
   </g>
   <g id="patch_95">
    <path d="M 226.1995 262.1 
L 266.8905 262.1 
L 266.8905 262.028037 
L 226.1995 262.028037 
z
" clip-path="url(#p4e25eb436a)" style="fill: #1f77b4"/>
   </g>
   <g id="patch_96">
    <path d="M 63.4355 262.1 
L 104.1265 262.1 
L 104.1265 260.58877 
L 63.4355 260.58877 
z
" clip-path="url(#p4e25eb436a)" style="fill: #1f77b4"/>
   </g>
   <g id="patch_97">
    <path d="M 144.8175 262.1 
L 185.5085 262.1 
L 185.5085 262.028037 
L 144.8175 262.028037 
z
" clip-path="url(#p4e25eb436a)" style="fill: #1f77b4"/>
   </g>
   <g id="patch_98">
    <path d="M 226.1995 262.1 
L 266.8905 262.1 
L 266.8905 262.028037 
L 226.1995 262.028037 
z
" clip-path="url(#p4e25eb436a)" style="fill: #1f77b4"/>
   </g>
   <g id="patch_99">
    <path d="M 307.5815 262.1 
L 348.2725 262.1 
L 348.2725 262.1 
L 307.5815 262.1 
z
" clip-path="url(#p4e25eb436a)" style="fill: #1f77b4"/>
   </g>
   <g id="patch_100">
    <path d="M 388.9635 262.1 
L 429.6545 262.1 
L 429.6545 262.1 
L 388.9635 262.1 
z
" clip-path="url(#p4e25eb436a)" style="fill: #1f77b4"/>
   </g>
   <g id="patch_101">
    <path d="M 63.4355 262.1 
L 104.1265 262.1 
L 104.1265 262.1 
L 63.4355 262.1 
z
" clip-path="url(#p4e25eb436a)" style="fill: #1f77b4"/>
   </g>
   <g id="patch_102">
    <path d="M 63.4355 262.1 
L 104.1265 262.1 
L 104.1265 180.74979 
L 63.4355 180.74979 
z
" clip-path="url(#p4e25eb436a)" style="fill: #1f77b4"/>
   </g>
   <g id="patch_103">
    <path d="M 144.8175 262.1 
L 185.5085 262.1 
L 185.5085 198.649617 
L 144.8175 198.649617 
z
" clip-path="url(#p4e25eb436a)" style="fill: #1f77b4"/>
   </g>
   <g id="patch_104">
    <path d="M 226.1995 262.1 
L 266.8905 262.1 
L 266.8905 210.755345 
L 226.1995 210.755345 
z
" clip-path="url(#p4e25eb436a)" style="fill: #1f77b4"/>
   </g>
   <g id="patch_105">
    <path d="M 307.5815 262.1 
L 348.2725 262.1 
L 348.2725 220.084885 
L 307.5815 220.084885 
z
" clip-path="url(#p4e25eb436a)" style="fill: #1f77b4"/>
   </g>
   <g id="patch_106">
    <path d="M 388.9635 262.1 
L 429.6545 262.1 
L 429.6545 226.739786 
L 388.9635 226.739786 
z
" clip-path="url(#p4e25eb436a)" style="fill: #1f77b4"/>
   </g>
   <g id="patch_107">
    <path d="M 63.4355 262.1 
L 104.1265 262.1 
L 104.1265 261.740183 
L 63.4355 261.740183 
z
" clip-path="url(#p4e25eb436a)" style="fill: #1f77b4"/>
   </g>
   <g id="patch_108">
    <path d="M 144.8175 262.1 
L 185.5085 262.1 
L 185.5085 261.740183 
L 144.8175 261.740183 
z
" clip-path="url(#p4e25eb436a)" style="fill: #1f77b4"/>
   </g>
   <g id="patch_109">
    <path d="M 226.1995 262.1 
L 266.8905 262.1 
L 266.8905 261.740183 
L 226.1995 261.740183 
z
" clip-path="url(#p4e25eb436a)" style="fill: #1f77b4"/>
   </g>
   <g id="patch_110">
    <path d="M 307.5815 262.1 
L 348.2725 262.1 
L 348.2725 262.064018 
L 307.5815 262.064018 
z
" clip-path="url(#p4e25eb436a)" style="fill: #1f77b4"/>
   </g>
   <g id="patch_111">
    <path d="M 388.9635 262.1 
L 429.6545 262.1 
L 429.6545 262.064018 
L 388.9635 262.064018 
z
" clip-path="url(#p4e25eb436a)" style="fill: #1f77b4"/>
   </g>
   <g id="patch_112">
    <path d="M 63.4355 262.1 
L 104.1265 262.1 
L 104.1265 219.609449 
L 63.4355 219.609449 
z
" clip-path="url(#p4e25eb436a)" style="fill: #1f77b4"/>
   </g>
   <g id="patch_113">
    <path d="M 144.8175 262.1 
L 185.5085 262.1 
L 185.5085 219.692282 
L 144.8175 219.692282 
z
" clip-path="url(#p4e25eb436a)" style="fill: #1f77b4"/>
   </g>
   <g id="patch_114">
    <path d="M 226.1995 262.1 
L 266.8905 262.1 
L 266.8905 234.181374 
L 226.1995 234.181374 
z
" clip-path="url(#p4e25eb436a)" style="fill: #1f77b4"/>
   </g>
   <g id="patch_115">
    <path d="M 307.5815 262.1 
L 348.2725 262.1 
L 348.2725 232.926017 
L 307.5815 232.926017 
z
" clip-path="url(#p4e25eb436a)" style="fill: #1f77b4"/>
   </g>
   <g id="patch_116">
    <path d="M 388.9635 262.1 
L 429.6545 262.1 
L 429.6545 219.304962 
L 388.9635 219.304962 
z
" clip-path="url(#p4e25eb436a)" style="fill: #1f77b4"/>
   </g>
   <g id="patch_117">
    <path d="M 63.4355 262.1 
L 104.1265 262.1 
L 104.1265 261.66822 
L 63.4355 261.66822 
z
" clip-path="url(#p4e25eb436a)" style="fill: #1f77b4"/>
   </g>
   <g id="patch_118">
    <path d="M 144.8175 262.1 
L 185.5085 262.1 
L 185.5085 261.740183 
L 144.8175 261.740183 
z
" clip-path="url(#p4e25eb436a)" style="fill: #1f77b4"/>
   </g>
   <g id="patch_119">
    <path d="M 226.1995 262.1 
L 266.8905 262.1 
L 266.8905 261.88411 
L 226.1995 261.88411 
z
" clip-path="url(#p4e25eb436a)" style="fill: #1f77b4"/>
   </g>
   <g id="patch_120">
    <path d="M 307.5815 262.1 
L 348.2725 262.1 
L 348.2725 261.956073 
L 307.5815 261.956073 
z
" clip-path="url(#p4e25eb436a)" style="fill: #1f77b4"/>
   </g>
   <g id="patch_121">
    <path d="M 388.9635 262.1 
L 429.6545 262.1 
L 429.6545 262.064018 
L 388.9635 262.064018 
z
" clip-path="url(#p4e25eb436a)" style="fill: #1f77b4"/>
   </g>
   <g id="patch_122">
    <path d="M 63.4355 262.1 
L 104.1265 262.1 
L 104.1265 261.88411 
L 63.4355 261.88411 
z
" clip-path="url(#p4e25eb436a)" style="fill: #1f77b4"/>
   </g>
   <g id="patch_123">
    <path d="M 144.8175 262.1 
L 185.5085 262.1 
L 185.5085 262.064018 
L 144.8175 262.064018 
z
" clip-path="url(#p4e25eb436a)" style="fill: #1f77b4"/>
   </g>
   <g id="patch_124">
    <path d="M 226.1995 262.1 
L 266.8905 262.1 
L 266.8905 262.064018 
L 226.1995 262.064018 
z
" clip-path="url(#p4e25eb436a)" style="fill: #1f77b4"/>
   </g>
   <g id="patch_125">
    <path d="M 307.5815 262.1 
L 348.2725 262.1 
L 348.2725 262.028037 
L 307.5815 262.028037 
z
" clip-path="url(#p4e25eb436a)" style="fill: #1f77b4"/>
   </g>
   <g id="patch_126">
    <path d="M 388.9635 262.1 
L 429.6545 262.1 
L 429.6545 262.1 
L 388.9635 262.1 
z
" clip-path="url(#p4e25eb436a)" style="fill: #1f77b4"/>
   </g>
   <g id="patch_127">
    <path d="M 63.4355 262.1 
L 104.1265 262.1 
L 104.1265 261.88411 
L 63.4355 261.88411 
z
" clip-path="url(#p4e25eb436a)" style="fill: #1f77b4"/>
   </g>
   <g id="patch_128">
    <path d="M 144.8175 262.1 
L 185.5085 262.1 
L 185.5085 262.028037 
L 144.8175 262.028037 
z
" clip-path="url(#p4e25eb436a)" style="fill: #1f77b4"/>
   </g>
   <g id="patch_129">
    <path d="M 226.1995 262.1 
L 266.8905 262.1 
L 266.8905 262.1 
L 226.1995 262.1 
z
" clip-path="url(#p4e25eb436a)" style="fill: #1f77b4"/>
   </g>
   <g id="patch_130">
    <path d="M 307.5815 262.1 
L 348.2725 262.1 
L 348.2725 262.1 
L 307.5815 262.1 
z
" clip-path="url(#p4e25eb436a)" style="fill: #1f77b4"/>
   </g>
   <g id="patch_131">
    <path d="M 388.9635 262.1 
L 429.6545 262.1 
L 429.6545 262.1 
L 388.9635 262.1 
z
" clip-path="url(#p4e25eb436a)" style="fill: #1f77b4"/>
   </g>
   <g id="patch_132">
    <path d="M 63.4355 262.1 
L 104.1265 262.1 
L 104.1265 260.201368 
L 63.4355 260.201368 
z
" clip-path="url(#p4e25eb436a)" style="fill: #1f77b4"/>
   </g>
   <g id="patch_133">
    <path d="M 144.8175 262.1 
L 185.5085 262.1 
L 185.5085 261.66822 
L 144.8175 261.66822 
z
" clip-path="url(#p4e25eb436a)" style="fill: #1f77b4"/>
   </g>
   <g id="patch_134">
    <path d="M 226.1995 262.1 
L 266.8905 262.1 
L 266.8905 261.075722 
L 226.1995 261.075722 
z
" clip-path="url(#p4e25eb436a)" style="fill: #1f77b4"/>
   </g>
   <g id="patch_135">
    <path d="M 307.5815 262.1 
L 348.2725 262.1 
L 348.2725 261.075722 
L 307.5815 261.075722 
z
" clip-path="url(#p4e25eb436a)" style="fill: #1f77b4"/>
   </g>
   <g id="patch_136">
    <path d="M 388.9635 262.1 
L 429.6545 262.1 
L 429.6545 261.075722 
L 388.9635 261.075722 
z
" clip-path="url(#p4e25eb436a)" style="fill: #1f77b4"/>
   </g>
   <g id="patch_137">
    <path d="M 63.4355 262.1 
L 104.1265 262.1 
L 104.1265 247.419081 
L 63.4355 247.419081 
z
" clip-path="url(#p4e25eb436a)" style="fill: #1f77b4"/>
   </g>
   <g id="patch_138">
    <path d="M 144.8175 262.1 
L 185.5085 262.1 
L 185.5085 250.176876 
L 144.8175 250.176876 
z
" clip-path="url(#p4e25eb436a)" style="fill: #1f77b4"/>
   </g>
   <g id="patch_139">
    <path d="M 226.1995 262.1 
L 266.8905 262.1 
L 266.8905 260.073033 
L 226.1995 260.073033 
z
" clip-path="url(#p4e25eb436a)" style="fill: #1f77b4"/>
   </g>
   <g id="patch_140">
    <path d="M 307.5815 262.1 
L 348.2725 262.1 
L 348.2725 261.830138 
L 307.5815 261.830138 
z
" clip-path="url(#p4e25eb436a)" style="fill: #1f77b4"/>
   </g>
   <g id="patch_141">
    <path d="M 388.9635 262.1 
L 429.6545 262.1 
L 429.6545 261.830138 
L 388.9635 261.830138 
z
" clip-path="url(#p4e25eb436a)" style="fill: #1f77b4"/>
   </g>
   <g id="patch_142">
    <path d="M 63.4355 262.1 
L 104.1265 262.1 
L 104.1265 260.498816 
L 63.4355 260.498816 
z
" clip-path="url(#p4e25eb436a)" style="fill: #1f77b4"/>
   </g>
   <g id="patch_143">
    <path d="M 144.8175 262.1 
L 185.5085 262.1 
L 185.5085 261.056532 
L 144.8175 261.056532 
z
" clip-path="url(#p4e25eb436a)" style="fill: #1f77b4"/>
   </g>
   <g id="patch_144">
    <path d="M 226.1995 262.1 
L 266.8905 262.1 
L 266.8905 261.88411 
L 226.1995 261.88411 
z
" clip-path="url(#p4e25eb436a)" style="fill: #1f77b4"/>
   </g>
   <g id="patch_145">
    <path d="M 307.5815 262.1 
L 348.2725 262.1 
L 348.2725 261.941681 
L 307.5815 261.941681 
z
" clip-path="url(#p4e25eb436a)" style="fill: #1f77b4"/>
   </g>
   <g id="patch_146">
    <path d="M 388.9635 262.1 
L 429.6545 262.1 
L 429.6545 261.740183 
L 388.9635 261.740183 
z
" clip-path="url(#p4e25eb436a)" style="fill: #1f77b4"/>
   </g>
   <g id="patch_147">
    <path d="M 63.4355 262.1 
L 104.1265 262.1 
L 104.1265 261.948077 
L 63.4355 261.948077 
z
" clip-path="url(#p4e25eb436a)" style="fill: #1f77b4"/>
   </g>
   <g id="patch_148">
    <path d="M 144.8175 262.1 
L 185.5085 262.1 
L 185.5085 262.064018 
L 144.8175 262.064018 
z
" clip-path="url(#p4e25eb436a)" style="fill: #1f77b4"/>
   </g>
   <g id="patch_149">
    <path d="M 226.1995 262.1 
L 266.8905 262.1 
L 266.8905 262.064018 
L 226.1995 262.064018 
z
" clip-path="url(#p4e25eb436a)" style="fill: #1f77b4"/>
   </g>
   <g id="patch_150">
    <path d="M 307.5815 262.1 
L 348.2725 262.1 
L 348.2725 262.092004 
L 307.5815 262.092004 
z
" clip-path="url(#p4e25eb436a)" style="fill: #1f77b4"/>
   </g>
   <g id="patch_151">
    <path d="M 388.9635 262.1 
L 429.6545 262.1 
L 429.6545 262.092004 
L 388.9635 262.092004 
z
" clip-path="url(#p4e25eb436a)" style="fill: #1f77b4"/>
   </g>
   <g id="patch_152">
    <path d="M 63.4355 262.1 
L 104.1265 262.1 
L 104.1265 261.788159 
L 63.4355 261.788159 
z
" clip-path="url(#p4e25eb436a)" style="fill: #1f77b4"/>
   </g>
   <g id="patch_153">
    <path d="M 144.8175 262.1 
L 185.5085 262.1 
L 185.5085 261.932086 
L 144.8175 261.932086 
z
" clip-path="url(#p4e25eb436a)" style="fill: #1f77b4"/>
   </g>
   <g id="patch_154">
    <path d="M 226.1995 262.1 
L 266.8905 262.1 
L 266.8905 261.88411 
L 226.1995 261.88411 
z
" clip-path="url(#p4e25eb436a)" style="fill: #1f77b4"/>
   </g>
   <g id="patch_155">
    <path d="M 307.5815 262.1 
L 348.2725 262.1 
L 348.2725 261.812147 
L 307.5815 261.812147 
z
" clip-path="url(#p4e25eb436a)" style="fill: #1f77b4"/>
   </g>
   <g id="patch_156">
    <path d="M 388.9635 262.1 
L 429.6545 262.1 
L 429.6545 262.028037 
L 388.9635 262.028037 
z
" clip-path="url(#p4e25eb436a)" style="fill: #1f77b4"/>
   </g>
   <g id="patch_157">
    <path d="M 63.4355 262.1 
L 104.1265 262.1 
L 104.1265 262.1 
L 63.4355 262.1 
z
" clip-path="url(#p4e25eb436a)" style="fill: #1f77b4"/>
   </g>
   <g id="patch_158">
    <path d="M 144.8175 262.1 
L 185.5085 262.1 
L 185.5085 262.1 
L 144.8175 262.1 
z
" clip-path="url(#p4e25eb436a)" style="fill: #1f77b4"/>
   </g>
   <g id="patch_159">
    <path d="M 226.1995 262.1 
L 266.8905 262.1 
L 266.8905 262.1 
L 226.1995 262.1 
z
" clip-path="url(#p4e25eb436a)" style="fill: #1f77b4"/>
   </g>
   <g id="patch_160">
    <path d="M 307.5815 262.1 
L 348.2725 262.1 
L 348.2725 262.1 
L 307.5815 262.1 
z
" clip-path="url(#p4e25eb436a)" style="fill: #1f77b4"/>
   </g>
   <g id="patch_161">
    <path d="M 63.4355 262.1 
L 104.1265 262.1 
L 104.1265 262.1 
L 63.4355 262.1 
z
" clip-path="url(#p4e25eb436a)" style="fill: #1f77b4"/>
   </g>
   <g id="patch_162">
    <path d="M 144.8175 262.1 
L 185.5085 262.1 
L 185.5085 262.1 
L 144.8175 262.1 
z
" clip-path="url(#p4e25eb436a)" style="fill: #1f77b4"/>
   </g>
   <g id="patch_163">
    <path d="M 226.1995 262.1 
L 266.8905 262.1 
L 266.8905 262.1 
L 226.1995 262.1 
z
" clip-path="url(#p4e25eb436a)" style="fill: #1f77b4"/>
   </g>
   <g id="patch_164">
    <path d="M 63.4355 262.1 
L 104.1265 262.1 
L 104.1265 262.1 
L 63.4355 262.1 
z
" clip-path="url(#p4e25eb436a)" style="fill: #1f77b4"/>
   </g>
   <g id="patch_165">
    <path d="M 144.8175 262.1 
L 185.5085 262.1 
L 185.5085 262.1 
L 144.8175 262.1 
z
" clip-path="url(#p4e25eb436a)" style="fill: #1f77b4"/>
   </g>
   <g id="patch_166">
    <path d="M 226.1995 262.1 
L 266.8905 262.1 
L 266.8905 262.1 
L 226.1995 262.1 
z
" clip-path="url(#p4e25eb436a)" style="fill: #1f77b4"/>
   </g>
   <g id="patch_167">
    <path d="M 307.5815 262.1 
L 348.2725 262.1 
L 348.2725 262.1 
L 307.5815 262.1 
z
" clip-path="url(#p4e25eb436a)" style="fill: #1f77b4"/>
   </g>
   <g id="patch_168">
    <path d="M 63.4355 262.1 
L 104.1265 262.1 
L 104.1265 262.1 
L 63.4355 262.1 
z
" clip-path="url(#p4e25eb436a)" style="fill: #1f77b4"/>
   </g>
   <g id="patch_169">
    <path d="M 144.8175 262.1 
L 185.5085 262.1 
L 185.5085 262.1 
L 144.8175 262.1 
z
" clip-path="url(#p4e25eb436a)" style="fill: #1f77b4"/>
   </g>
   <g id="patch_170">
    <path d="M 63.4355 262.1 
L 104.1265 262.1 
L 104.1265 22.766667 
L 63.4355 22.766667 
z
" clip-path="url(#p4e25eb436a)" style="fill: #1f77b4"/>
   </g>
   <g id="patch_171">
    <path d="M 144.8175 262.1 
L 185.5085 262.1 
L 185.5085 109.625243 
L 144.8175 109.625243 
z
" clip-path="url(#p4e25eb436a)" style="fill: #1f77b4"/>
   </g>
   <g id="patch_172">
    <path d="M 226.1995 262.1 
L 266.8905 262.1 
L 266.8905 148.699094 
L 226.1995 148.699094 
z
" clip-path="url(#p4e25eb436a)" style="fill: #1f77b4"/>
   </g>
   <g id="patch_173">
    <path d="M 307.5815 262.1 
L 348.2725 262.1 
L 348.2725 139.445423 
L 307.5815 139.445423 
z
" clip-path="url(#p4e25eb436a)" style="fill: #1f77b4"/>
   </g>
   <g id="patch_174">
    <path d="M 388.9635 262.1 
L 429.6545 262.1 
L 429.6545 163.775046 
L 388.9635 163.775046 
z
" clip-path="url(#p4e25eb436a)" style="fill: #1f77b4"/>
   </g>
   <g id="patch_175">
    <path d="M 63.4355 262.1 
L 104.1265 262.1 
L 104.1265 261.722193 
L 63.4355 261.722193 
z
" clip-path="url(#p4e25eb436a)" style="fill: #1f77b4"/>
   </g>
   <g id="patch_176">
    <path d="M 144.8175 262.1 
L 185.5085 262.1 
L 185.5085 262.028037 
L 144.8175 262.028037 
z
" clip-path="url(#p4e25eb436a)" style="fill: #1f77b4"/>
   </g>
   <g id="patch_177">
    <path d="M 226.1995 262.1 
L 266.8905 262.1 
L 266.8905 262.028037 
L 226.1995 262.028037 
z
" clip-path="url(#p4e25eb436a)" style="fill: #1f77b4"/>
   </g>
   <g id="patch_178">
    <path d="M 307.5815 262.1 
L 348.2725 262.1 
L 348.2725 262.028037 
L 307.5815 262.028037 
z
" clip-path="url(#p4e25eb436a)" style="fill: #1f77b4"/>
   </g>
   <g id="patch_179">
    <path d="M 388.9635 262.1 
L 429.6545 262.1 
L 429.6545 261.992055 
L 388.9635 261.992055 
z
" clip-path="url(#p4e25eb436a)" style="fill: #1f77b4"/>
   </g>
   <g id="patch_180">
    <path d="M 63.4355 262.1 
L 104.1265 262.1 
L 104.1265 45.876084 
L 63.4355 45.876084 
z
" clip-path="url(#p4e25eb436a)" style="fill: #1f77b4"/>
   </g>
   <g id="patch_181">
    <path d="M 144.8175 262.1 
L 185.5085 262.1 
L 185.5085 150.719685 
L 144.8175 150.719685 
z
" clip-path="url(#p4e25eb436a)" style="fill: #1f77b4"/>
   </g>
   <g id="patch_182">
    <path d="M 226.1995 262.1 
L 266.8905 262.1 
L 266.8905 182.995449 
L 226.1995 182.995449 
z
" clip-path="url(#p4e25eb436a)" style="fill: #1f77b4"/>
   </g>
   <g id="patch_183">
    <path d="M 307.5815 262.1 
L 348.2725 262.1 
L 348.2725 171.361247 
L 307.5815 171.361247 
z
" clip-path="url(#p4e25eb436a)" style="fill: #1f77b4"/>
   </g>
   <g id="patch_184">
    <path d="M 388.9635 262.1 
L 429.6545 262.1 
L 429.6545 200.464068 
L 388.9635 200.464068 
z
" clip-path="url(#p4e25eb436a)" style="fill: #1f77b4"/>
   </g>
   <g id="patch_185">
    <path d="M 63.4355 262.1 
L 104.1265 262.1 
L 104.1265 257.986096 
L 63.4355 257.986096 
z
" clip-path="url(#p4e25eb436a)" style="fill: #1f77b4"/>
   </g>
   <g id="patch_186">
    <path d="M 144.8175 262.1 
L 185.5085 262.1 
L 185.5085 258.681742 
L 144.8175 258.681742 
z
" clip-path="url(#p4e25eb436a)" style="fill: #1f77b4"/>
   </g>
   <g id="patch_187">
    <path d="M 226.1995 262.1 
L 266.8905 262.1 
L 266.8905 261.620244 
L 226.1995 261.620244 
z
" clip-path="url(#p4e25eb436a)" style="fill: #1f77b4"/>
   </g>
   <g id="patch_188">
    <path d="M 307.5815 262.1 
L 348.2725 262.1 
L 348.2725 261.620244 
L 307.5815 261.620244 
z
" clip-path="url(#p4e25eb436a)" style="fill: #1f77b4"/>
   </g>
   <g id="patch_189">
    <path d="M 388.9635 262.1 
L 429.6545 262.1 
L 429.6545 261.768969 
L 388.9635 261.768969 
z
" clip-path="url(#p4e25eb436a)" style="fill: #1f77b4"/>
   </g>
   <g id="patch_190">
    <path d="M 63.4355 262.1 
L 104.1265 262.1 
L 104.1265 228.163294 
L 63.4355 228.163294 
z
" clip-path="url(#p4e25eb436a)" style="fill: #1f77b4"/>
   </g>
   <g id="patch_191">
    <path d="M 144.8175 262.1 
L 185.5085 262.1 
L 185.5085 250.729794 
L 144.8175 250.729794 
z
" clip-path="url(#p4e25eb436a)" style="fill: #1f77b4"/>
   </g>
   <g id="patch_192">
    <path d="M 226.1995 262.1 
L 266.8905 262.1 
L 266.8905 256.414897 
L 226.1995 256.414897 
z
" clip-path="url(#p4e25eb436a)" style="fill: #1f77b4"/>
   </g>
   <g id="patch_193">
    <path d="M 307.5815 262.1 
L 348.2725 262.1 
L 348.2725 256.414897 
L 307.5815 256.414897 
z
" clip-path="url(#p4e25eb436a)" style="fill: #1f77b4"/>
   </g>
   <g id="patch_194">
    <path d="M 388.9635 262.1 
L 429.6545 262.1 
L 429.6545 254.62301 
L 388.9635 254.62301 
z
" clip-path="url(#p4e25eb436a)" style="fill: #1f77b4"/>
   </g>
   <g id="patch_195">
    <path d="M 63.4355 262.1 
L 104.1265 262.1 
L 104.1265 261.920092 
L 63.4355 261.920092 
z
" clip-path="url(#p4e25eb436a)" style="fill: #1f77b4"/>
   </g>
   <g id="patch_196">
    <path d="M 144.8175 262.1 
L 185.5085 262.1 
L 185.5085 261.920092 
L 144.8175 261.920092 
z
" clip-path="url(#p4e25eb436a)" style="fill: #1f77b4"/>
   </g>
   <g id="patch_197">
    <path d="M 226.1995 262.1 
L 266.8905 262.1 
L 266.8905 261.920092 
L 226.1995 261.920092 
z
" clip-path="url(#p4e25eb436a)" style="fill: #1f77b4"/>
   </g>
   <g id="patch_198">
    <path d="M 307.5815 262.1 
L 348.2725 262.1 
L 348.2725 261.920092 
L 307.5815 261.920092 
z
" clip-path="url(#p4e25eb436a)" style="fill: #1f77b4"/>
   </g>
   <g id="patch_199">
    <path d="M 388.9635 262.1 
L 429.6545 262.1 
L 429.6545 261.920092 
L 388.9635 261.920092 
z
" clip-path="url(#p4e25eb436a)" style="fill: #1f77b4"/>
   </g>
   <g id="patch_200">
    <path d="M 63.4355 262.1 
L 104.1265 262.1 
L 104.1265 261.956073 
L 63.4355 261.956073 
z
" clip-path="url(#p4e25eb436a)" style="fill: #1f77b4"/>
   </g>
   <g id="patch_201">
    <path d="M 144.8175 262.1 
L 185.5085 262.1 
L 185.5085 261.956073 
L 144.8175 261.956073 
z
" clip-path="url(#p4e25eb436a)" style="fill: #1f77b4"/>
   </g>
   <g id="patch_202">
    <path d="M 226.1995 262.1 
L 266.8905 262.1 
L 266.8905 261.956073 
L 226.1995 261.956073 
z
" clip-path="url(#p4e25eb436a)" style="fill: #1f77b4"/>
   </g>
   <g id="patch_203">
    <path d="M 307.5815 262.1 
L 348.2725 262.1 
L 348.2725 262.082009 
L 307.5815 262.082009 
z
" clip-path="url(#p4e25eb436a)" style="fill: #1f77b4"/>
   </g>
   <g id="patch_204">
    <path d="M 388.9635 262.1 
L 429.6545 262.1 
L 429.6545 262.082009 
L 388.9635 262.082009 
z
" clip-path="url(#p4e25eb436a)" style="fill: #1f77b4"/>
   </g>
   <g id="patch_205">
    <path d="M 63.4355 262.1 
L 104.1265 262.1 
L 104.1265 222.050767 
L 63.4355 222.050767 
z
" clip-path="url(#p4e25eb436a)" style="fill: #1f77b4"/>
   </g>
   <g id="patch_206">
    <path d="M 144.8175 262.1 
L 185.5085 262.1 
L 185.5085 220.585278 
L 144.8175 220.585278 
z
" clip-path="url(#p4e25eb436a)" style="fill: #1f77b4"/>
   </g>
   <g id="patch_207">
    <path d="M 226.1995 262.1 
L 266.8905 262.1 
L 266.8905 247.113637 
L 226.1995 247.113637 
z
" clip-path="url(#p4e25eb436a)" style="fill: #1f77b4"/>
   </g>
   <g id="patch_208">
    <path d="M 307.5815 262.1 
L 348.2725 262.1 
L 348.2725 247.113637 
L 307.5815 247.113637 
z
" clip-path="url(#p4e25eb436a)" style="fill: #1f77b4"/>
   </g>
   <g id="patch_209">
    <path d="M 388.9635 262.1 
L 429.6545 262.1 
L 429.6545 221.553029 
L 388.9635 221.553029 
z
" clip-path="url(#p4e25eb436a)" style="fill: #1f77b4"/>
   </g>
   <g id="patch_210">
    <path d="M 63.4355 262.1 
L 104.1265 262.1 
L 104.1265 261.992055 
L 63.4355 261.992055 
z
" clip-path="url(#p4e25eb436a)" style="fill: #1f77b4"/>
   </g>
   <g id="patch_211">
    <path d="M 144.8175 262.1 
L 185.5085 262.1 
L 185.5085 261.992055 
L 144.8175 261.992055 
z
" clip-path="url(#p4e25eb436a)" style="fill: #1f77b4"/>
   </g>
   <g id="patch_212">
    <path d="M 226.1995 262.1 
L 266.8905 262.1 
L 266.8905 262.1 
L 226.1995 262.1 
z
" clip-path="url(#p4e25eb436a)" style="fill: #1f77b4"/>
   </g>
   <g id="patch_213">
    <path d="M 307.5815 262.1 
L 348.2725 262.1 
L 348.2725 262.1 
L 307.5815 262.1 
z
" clip-path="url(#p4e25eb436a)" style="fill: #1f77b4"/>
   </g>
   <g id="patch_214">
    <path d="M 388.9635 262.1 
L 429.6545 262.1 
L 429.6545 262.1 
L 388.9635 262.1 
z
" clip-path="url(#p4e25eb436a)" style="fill: #1f77b4"/>
   </g>
   <g id="patch_215">
    <path d="M 63.4355 262.1 
L 104.1265 262.1 
L 104.1265 238.271799 
L 63.4355 238.271799 
z
" clip-path="url(#p4e25eb436a)" style="fill: #1f77b4"/>
   </g>
   <g id="patch_216">
    <path d="M 144.8175 262.1 
L 185.5085 262.1 
L 185.5085 244.34874 
L 144.8175 244.34874 
z
" clip-path="url(#p4e25eb436a)" style="fill: #1f77b4"/>
   </g>
   <g id="patch_217">
    <path d="M 226.1995 262.1 
L 266.8905 262.1 
L 266.8905 248.909813 
L 226.1995 248.909813 
z
" clip-path="url(#p4e25eb436a)" style="fill: #1f77b4"/>
   </g>
   <g id="patch_218">
    <path d="M 307.5815 262.1 
L 348.2725 262.1 
L 348.2725 242.110992 
L 307.5815 242.110992 
z
" clip-path="url(#p4e25eb436a)" style="fill: #1f77b4"/>
   </g>
   <g id="patch_219">
    <path d="M 388.9635 262.1 
L 429.6545 262.1 
L 429.6545 257.08993 
L 388.9635 257.08993 
z
" clip-path="url(#p4e25eb436a)" style="fill: #1f77b4"/>
   </g>
   <g id="patch_220">
    <path d="M 63.4355 262.1 
L 104.1265 262.1 
L 104.1265 261.560275 
L 63.4355 261.560275 
z
" clip-path="url(#p4e25eb436a)" style="fill: #1f77b4"/>
   </g>
   <g id="patch_221">
    <path d="M 144.8175 262.1 
L 185.5085 262.1 
L 185.5085 261.596257 
L 144.8175 261.596257 
z
" clip-path="url(#p4e25eb436a)" style="fill: #1f77b4"/>
   </g>
   <g id="patch_222">
    <path d="M 226.1995 262.1 
L 266.8905 262.1 
L 266.8905 261.380367 
L 226.1995 261.380367 
z
" clip-path="url(#p4e25eb436a)" style="fill: #1f77b4"/>
   </g>
   <g id="patch_223">
    <path d="M 307.5815 262.1 
L 348.2725 262.1 
L 348.2725 261.920092 
L 307.5815 261.920092 
z
" clip-path="url(#p4e25eb436a)" style="fill: #1f77b4"/>
   </g>
   <g id="patch_224">
    <path d="M 388.9635 262.1 
L 429.6545 262.1 
L 429.6545 261.920092 
L 388.9635 261.920092 
z
" clip-path="url(#p4e25eb436a)" style="fill: #1f77b4"/>
   </g>
   <g id="patch_225">
    <path d="M 63.4355 262.1 
L 104.1265 262.1 
L 104.1265 261.596257 
L 63.4355 261.596257 
z
" clip-path="url(#p4e25eb436a)" style="fill: #1f77b4"/>
   </g>
   <g id="patch_226">
    <path d="M 144.8175 262.1 
L 185.5085 262.1 
L 185.5085 261.596257 
L 144.8175 261.596257 
z
" clip-path="url(#p4e25eb436a)" style="fill: #1f77b4"/>
   </g>
   <g id="patch_227">
    <path d="M 226.1995 262.1 
L 266.8905 262.1 
L 266.8905 261.596257 
L 226.1995 261.596257 
z
" clip-path="url(#p4e25eb436a)" style="fill: #1f77b4"/>
   </g>
   <g id="patch_228">
    <path d="M 307.5815 262.1 
L 348.2725 262.1 
L 348.2725 262.076012 
L 307.5815 262.076012 
z
" clip-path="url(#p4e25eb436a)" style="fill: #1f77b4"/>
   </g>
   <g id="patch_229">
    <path d="M 388.9635 262.1 
L 429.6545 262.1 
L 429.6545 262.076012 
L 388.9635 262.076012 
z
" clip-path="url(#p4e25eb436a)" style="fill: #1f77b4"/>
   </g>
   <g id="patch_230">
    <path d="M 63.4355 262.1 
L 104.1265 262.1 
L 104.1265 261.66822 
L 63.4355 261.66822 
z
" clip-path="url(#p4e25eb436a)" style="fill: #1f77b4"/>
   </g>
   <g id="patch_231">
    <path d="M 144.8175 262.1 
L 185.5085 262.1 
L 185.5085 262.028037 
L 144.8175 262.028037 
z
" clip-path="url(#p4e25eb436a)" style="fill: #1f77b4"/>
   </g>
   <g id="patch_232">
    <path d="M 226.1995 262.1 
L 266.8905 262.1 
L 266.8905 262.028037 
L 226.1995 262.028037 
z
" clip-path="url(#p4e25eb436a)" style="fill: #1f77b4"/>
   </g>
   <g id="patch_233">
    <path d="M 307.5815 262.1 
L 348.2725 262.1 
L 348.2725 262.1 
L 307.5815 262.1 
z
" clip-path="url(#p4e25eb436a)" style="fill: #1f77b4"/>
   </g>
   <g id="patch_234">
    <path d="M 388.9635 262.1 
L 429.6545 262.1 
L 429.6545 262.1 
L 388.9635 262.1 
z
" clip-path="url(#p4e25eb436a)" style="fill: #1f77b4"/>
   </g>
   <g id="patch_235">
    <path d="M 63.4355 262.1 
L 104.1265 262.1 
L 104.1265 255.541057 
L 63.4355 255.541057 
z
" clip-path="url(#p4e25eb436a)" style="fill: #1f77b4"/>
   </g>
   <g id="patch_236">
    <path d="M 144.8175 262.1 
L 185.5085 262.1 
L 185.5085 259.49904 
L 144.8175 259.49904 
z
" clip-path="url(#p4e25eb436a)" style="fill: #1f77b4"/>
   </g>
   <g id="patch_237">
    <path d="M 226.1995 262.1 
L 266.8905 262.1 
L 266.8905 259.49904 
L 226.1995 259.49904 
z
" clip-path="url(#p4e25eb436a)" style="fill: #1f77b4"/>
   </g>
   <g id="patch_238">
    <path d="M 307.5815 262.1 
L 348.2725 262.1 
L 348.2725 258.239681 
L 307.5815 258.239681 
z
" clip-path="url(#p4e25eb436a)" style="fill: #1f77b4"/>
   </g>
   <g id="patch_239">
    <path d="M 388.9635 262.1 
L 429.6545 262.1 
L 429.6545 259.606985 
L 388.9635 259.606985 
z
" clip-path="url(#p4e25eb436a)" style="fill: #1f77b4"/>
   </g>
   <g id="patch_240">
    <path d="M 63.4355 262.1 
L 104.1265 262.1 
L 104.1265 262.1 
L 63.4355 262.1 
z
" clip-path="url(#p4e25eb436a)" style="fill: #1f77b4"/>
   </g>
   <g id="patch_241">
    <path d="M 63.4355 262.1 
L 104.1265 262.1 
L 104.1265 153.585415 
L 63.4355 153.585415 
z
" clip-path="url(#p4e25eb436a)" style="fill: #1f77b4"/>
   </g>
   <g id="patch_242">
    <path d="M 144.8175 262.1 
L 185.5085 262.1 
L 185.5085 173.371311 
L 144.8175 173.371311 
z
" clip-path="url(#p4e25eb436a)" style="fill: #1f77b4"/>
   </g>
   <g id="patch_243">
    <path d="M 226.1995 262.1 
L 266.8905 262.1 
L 266.8905 170.930205 
L 226.1995 170.930205 
z
" clip-path="url(#p4e25eb436a)" style="fill: #1f77b4"/>
   </g>
   <g id="patch_244">
    <path d="M 307.5815 262.1 
L 348.2725 262.1 
L 348.2725 183.939169 
L 307.5815 183.939169 
z
" clip-path="url(#p4e25eb436a)" style="fill: #1f77b4"/>
   </g>
   <g id="patch_245">
    <path d="M 388.9635 262.1 
L 429.6545 262.1 
L 429.6545 226.986388 
L 388.9635 226.986388 
z
" clip-path="url(#p4e25eb436a)" style="fill: #1f77b4"/>
   </g>
   <g id="patch_246">
    <path d="M 63.4355 262.1 
L 104.1265 262.1 
L 104.1265 199.806686 
L 63.4355 199.806686 
z
" clip-path="url(#p4e25eb436a)" style="fill: #1f77b4"/>
   </g>
   <g id="patch_247">
    <path d="M 144.8175 262.1 
L 185.5085 262.1 
L 185.5085 173.842135 
L 144.8175 173.842135 
z
" clip-path="url(#p4e25eb436a)" style="fill: #1f77b4"/>
   </g>
   <g id="patch_248">
    <path d="M 226.1995 262.1 
L 266.8905 262.1 
L 266.8905 216.257807 
L 226.1995 216.257807 
z
" clip-path="url(#p4e25eb436a)" style="fill: #1f77b4"/>
   </g>
   <g id="patch_249">
    <path d="M 307.5815 262.1 
L 348.2725 262.1 
L 348.2725 218.453594 
L 307.5815 218.453594 
z
" clip-path="url(#p4e25eb436a)" style="fill: #1f77b4"/>
   </g>
   <g id="patch_250">
    <path d="M 388.9635 262.1 
L 429.6545 262.1 
L 429.6545 232.623276 
L 388.9635 232.623276 
z
" clip-path="url(#p4e25eb436a)" style="fill: #1f77b4"/>
   </g>
   <g id="patch_251">
    <path d="M 63.4355 262.1 
L 104.1265 262.1 
L 104.1265 262.076012 
L 63.4355 262.076012 
z
" clip-path="url(#p4e25eb436a)" style="fill: #1f77b4"/>
   </g>
   <g id="patch_252">
    <path d="M 144.8175 262.1 
L 185.5085 262.1 
L 185.5085 262.076012 
L 144.8175 262.076012 
z
" clip-path="url(#p4e25eb436a)" style="fill: #1f77b4"/>
   </g>
   <g id="patch_253">
    <path d="M 226.1995 262.1 
L 266.8905 262.1 
L 266.8905 262.076012 
L 226.1995 262.076012 
z
" clip-path="url(#p4e25eb436a)" style="fill: #1f77b4"/>
   </g>
   <g id="patch_254">
    <path d="M 307.5815 262.1 
L 348.2725 262.1 
L 348.2725 262.1 
L 307.5815 262.1 
z
" clip-path="url(#p4e25eb436a)" style="fill: #1f77b4"/>
   </g>
   <g id="patch_255">
    <path d="M 388.9635 262.1 
L 429.6545 262.1 
L 429.6545 262.1 
L 388.9635 262.1 
z
" clip-path="url(#p4e25eb436a)" style="fill: #1f77b4"/>
   </g>
   <g id="patch_256">
    <path d="M 63.4355 262.1 
L 104.1265 262.1 
L 104.1265 260.085027 
L 63.4355 260.085027 
z
" clip-path="url(#p4e25eb436a)" style="fill: #1f77b4"/>
   </g>
   <g id="patch_257">
    <path d="M 144.8175 262.1 
L 185.5085 262.1 
L 185.5085 259.917112 
L 144.8175 259.917112 
z
" clip-path="url(#p4e25eb436a)" style="fill: #1f77b4"/>
   </g>
   <g id="patch_258">
    <path d="M 226.1995 262.1 
L 266.8905 262.1 
L 266.8905 261.920092 
L 226.1995 261.920092 
z
" clip-path="url(#p4e25eb436a)" style="fill: #1f77b4"/>
   </g>
   <g id="patch_259">
    <path d="M 307.5815 262.1 
L 348.2725 262.1 
L 348.2725 262.046028 
L 307.5815 262.046028 
z
" clip-path="url(#p4e25eb436a)" style="fill: #1f77b4"/>
   </g>
   <g id="patch_260">
    <path d="M 388.9635 262.1 
L 429.6545 262.1 
L 429.6545 262.046028 
L 388.9635 262.046028 
z
" clip-path="url(#p4e25eb436a)" style="fill: #1f77b4"/>
   </g>
   <g id="patch_261">
    <path d="M 63.4355 262.1 
L 104.1265 262.1 
L 104.1265 261.66822 
L 63.4355 261.66822 
z
" clip-path="url(#p4e25eb436a)" style="fill: #1f77b4"/>
   </g>
   <g id="patch_262">
    <path d="M 144.8175 262.1 
L 185.5085 262.1 
L 185.5085 261.812147 
L 144.8175 261.812147 
z
" clip-path="url(#p4e25eb436a)" style="fill: #1f77b4"/>
   </g>
   <g id="patch_263">
    <path d="M 226.1995 262.1 
L 266.8905 262.1 
L 266.8905 261.956073 
L 226.1995 261.956073 
z
" clip-path="url(#p4e25eb436a)" style="fill: #1f77b4"/>
   </g>
   <g id="patch_264">
    <path d="M 307.5815 262.1 
L 348.2725 262.1 
L 348.2725 261.956073 
L 307.5815 261.956073 
z
" clip-path="url(#p4e25eb436a)" style="fill: #1f77b4"/>
   </g>
   <g id="patch_265">
    <path d="M 388.9635 262.1 
L 429.6545 262.1 
L 429.6545 261.764171 
L 388.9635 261.764171 
z
" clip-path="url(#p4e25eb436a)" style="fill: #1f77b4"/>
   </g>
   <g id="patch_266">
    <path d="M 63.4355 262.1 
L 104.1265 262.1 
L 104.1265 261.848128 
L 63.4355 261.848128 
z
" clip-path="url(#p4e25eb436a)" style="fill: #1f77b4"/>
   </g>
   <g id="patch_267">
    <path d="M 144.8175 262.1 
L 185.5085 262.1 
L 185.5085 261.848128 
L 144.8175 261.848128 
z
" clip-path="url(#p4e25eb436a)" style="fill: #1f77b4"/>
   </g>
   <g id="patch_268">
    <path d="M 226.1995 262.1 
L 266.8905 262.1 
L 266.8905 262.082009 
L 226.1995 262.082009 
z
" clip-path="url(#p4e25eb436a)" style="fill: #1f77b4"/>
   </g>
   <g id="patch_269">
    <path d="M 307.5815 262.1 
L 348.2725 262.1 
L 348.2725 262.082009 
L 307.5815 262.082009 
z
" clip-path="url(#p4e25eb436a)" style="fill: #1f77b4"/>
   </g>
   <g id="patch_270">
    <path d="M 388.9635 262.1 
L 429.6545 262.1 
L 429.6545 262.082009 
L 388.9635 262.082009 
z
" clip-path="url(#p4e25eb436a)" style="fill: #1f77b4"/>
   </g>
   <g id="patch_271">
    <path d="M 63.4355 262.1 
L 104.1265 262.1 
L 104.1265 261.306404 
L 63.4355 261.306404 
z
" clip-path="url(#p4e25eb436a)" style="fill: #1f77b4"/>
   </g>
   <g id="patch_272">
    <path d="M 144.8175 262.1 
L 185.5085 262.1 
L 185.5085 262.044029 
L 144.8175 262.044029 
z
" clip-path="url(#p4e25eb436a)" style="fill: #1f77b4"/>
   </g>
   <g id="patch_273">
    <path d="M 226.1995 262.1 
L 266.8905 262.1 
L 266.8905 262.044029 
L 226.1995 262.044029 
z
" clip-path="url(#p4e25eb436a)" style="fill: #1f77b4"/>
   </g>
   <g id="patch_274">
    <path d="M 307.5815 262.1 
L 348.2725 262.1 
L 348.2725 262.044029 
L 307.5815 262.044029 
z
" clip-path="url(#p4e25eb436a)" style="fill: #1f77b4"/>
   </g>
   <g id="patch_275">
    <path d="M 388.9635 262.1 
L 429.6545 262.1 
L 429.6545 262.044029 
L 388.9635 262.044029 
z
" clip-path="url(#p4e25eb436a)" style="fill: #1f77b4"/>
   </g>
   <g id="patch_276">
    <path d="M 63.4355 262.1 
L 104.1265 262.1 
L 104.1265 222.747597 
L 63.4355 222.747597 
z
" clip-path="url(#p4e25eb436a)" style="fill: #1f77b4"/>
   </g>
   <g id="patch_277">
    <path d="M 144.8175 262.1 
L 185.5085 262.1 
L 185.5085 250.150209 
L 144.8175 250.150209 
z
" clip-path="url(#p4e25eb436a)" style="fill: #1f77b4"/>
   </g>
   <g id="patch_278">
    <path d="M 226.1995 262.1 
L 266.8905 262.1 
L 266.8905 248.960324 
L 226.1995 248.960324 
z
" clip-path="url(#p4e25eb436a)" style="fill: #1f77b4"/>
   </g>
   <g id="patch_279">
    <path d="M 307.5815 262.1 
L 348.2725 262.1 
L 348.2725 249.182583 
L 307.5815 249.182583 
z
" clip-path="url(#p4e25eb436a)" style="fill: #1f77b4"/>
   </g>
   <g id="patch_280">
    <path d="M 388.9635 262.1 
L 429.6545 262.1 
L 429.6545 222.18846 
L 388.9635 222.18846 
z
" clip-path="url(#p4e25eb436a)" style="fill: #1f77b4"/>
   </g>
   <g id="patch_281">
    <path d="M 63.4355 262.1 
L 104.1265 262.1 
L 104.1265 254.229611 
L 63.4355 254.229611 
z
" clip-path="url(#p4e25eb436a)" style="fill: #1f77b4"/>
   </g>
   <g id="patch_282">
    <path d="M 144.8175 262.1 
L 185.5085 262.1 
L 185.5085 261.002559 
L 144.8175 261.002559 
z
" clip-path="url(#p4e25eb436a)" style="fill: #1f77b4"/>
   </g>
   <g id="patch_283">
    <path d="M 226.1995 262.1 
L 266.8905 262.1 
L 266.8905 261.002559 
L 226.1995 261.002559 
z
" clip-path="url(#p4e25eb436a)" style="fill: #1f77b4"/>
   </g>
   <g id="patch_284">
    <path d="M 307.5815 262.1 
L 348.2725 262.1 
L 348.2725 261.002559 
L 307.5815 261.002559 
z
" clip-path="url(#p4e25eb436a)" style="fill: #1f77b4"/>
   </g>
   <g id="patch_285">
    <path d="M 388.9635 262.1 
L 429.6545 262.1 
L 429.6545 261.002559 
L 388.9635 261.002559 
z
" clip-path="url(#p4e25eb436a)" style="fill: #1f77b4"/>
   </g>
   <g id="patch_286">
    <path d="M 63.4355 262.1 
L 104.1265 262.1 
L 104.1265 262.028037 
L 63.4355 262.028037 
z
" clip-path="url(#p4e25eb436a)" style="fill: #1f77b4"/>
   </g>
   <g id="patch_287">
    <path d="M 144.8175 262.1 
L 185.5085 262.1 
L 185.5085 262.076012 
L 144.8175 262.076012 
z
" clip-path="url(#p4e25eb436a)" style="fill: #1f77b4"/>
   </g>
   <g id="patch_288">
    <path d="M 226.1995 262.1 
L 266.8905 262.1 
L 266.8905 262.076012 
L 226.1995 262.076012 
z
" clip-path="url(#p4e25eb436a)" style="fill: #1f77b4"/>
   </g>
   <g id="patch_289">
    <path d="M 307.5815 262.1 
L 348.2725 262.1 
L 348.2725 262.076012 
L 307.5815 262.076012 
z
" clip-path="url(#p4e25eb436a)" style="fill: #1f77b4"/>
   </g>
   <g id="patch_290">
    <path d="M 388.9635 262.1 
L 429.6545 262.1 
L 429.6545 262.064018 
L 388.9635 262.064018 
z
" clip-path="url(#p4e25eb436a)" style="fill: #1f77b4"/>
   </g>
   <g id="patch_291">
    <path d="M 63.4355 262.1 
L 104.1265 262.1 
L 104.1265 260.761482 
L 63.4355 260.761482 
z
" clip-path="url(#p4e25eb436a)" style="fill: #1f77b4"/>
   </g>
   <g id="patch_292">
    <path d="M 144.8175 262.1 
L 185.5085 262.1 
L 185.5085 260.58877 
L 144.8175 260.58877 
z
" clip-path="url(#p4e25eb436a)" style="fill: #1f77b4"/>
   </g>
   <g id="patch_293">
    <path d="M 226.1995 262.1 
L 266.8905 262.1 
L 266.8905 261.45233 
L 226.1995 261.45233 
z
" clip-path="url(#p4e25eb436a)" style="fill: #1f77b4"/>
   </g>
   <g id="patch_294">
    <path d="M 307.5815 262.1 
L 348.2725 262.1 
L 348.2725 262.056822 
L 307.5815 262.056822 
z
" clip-path="url(#p4e25eb436a)" style="fill: #1f77b4"/>
   </g>
   <g id="patch_295">
    <path d="M 388.9635 262.1 
L 429.6545 262.1 
L 429.6545 262.056822 
L 388.9635 262.056822 
z
" clip-path="url(#p4e25eb436a)" style="fill: #1f77b4"/>
   </g>
   <g id="patch_296">
    <path d="M 63.4355 262.1 
L 104.1265 262.1 
L 104.1265 261.294011 
L 63.4355 261.294011 
z
" clip-path="url(#p4e25eb436a)" style="fill: #1f77b4"/>
   </g>
   <g id="patch_297">
    <path d="M 144.8175 262.1 
L 185.5085 262.1 
L 185.5085 262.028037 
L 144.8175 262.028037 
z
" clip-path="url(#p4e25eb436a)" style="fill: #1f77b4"/>
   </g>
   <g id="patch_298">
    <path d="M 226.1995 262.1 
L 266.8905 262.1 
L 266.8905 262.028037 
L 226.1995 262.028037 
z
" clip-path="url(#p4e25eb436a)" style="fill: #1f77b4"/>
   </g>
   <g id="patch_299">
    <path d="M 307.5815 262.1 
L 348.2725 262.1 
L 348.2725 262.028037 
L 307.5815 262.028037 
z
" clip-path="url(#p4e25eb436a)" style="fill: #1f77b4"/>
   </g>
   <g id="patch_300">
    <path d="M 388.9635 262.1 
L 429.6545 262.1 
L 429.6545 262.028037 
L 388.9635 262.028037 
z
" clip-path="url(#p4e25eb436a)" style="fill: #1f77b4"/>
   </g>
   <g id="patch_301">
    <path d="M 63.4355 262.1 
L 104.1265 262.1 
L 104.1265 261.66822 
L 63.4355 261.66822 
z
" clip-path="url(#p4e25eb436a)" style="fill: #1f77b4"/>
   </g>
   <g id="patch_302">
    <path d="M 144.8175 262.1 
L 185.5085 262.1 
L 185.5085 262.028037 
L 144.8175 262.028037 
z
" clip-path="url(#p4e25eb436a)" style="fill: #1f77b4"/>
   </g>
   <g id="patch_303">
    <path d="M 226.1995 262.1 
L 266.8905 262.1 
L 266.8905 262.028037 
L 226.1995 262.028037 
z
" clip-path="url(#p4e25eb436a)" style="fill: #1f77b4"/>
   </g>
   <g id="patch_304">
    <path d="M 307.5815 262.1 
L 348.2725 262.1 
L 348.2725 262.028037 
L 307.5815 262.028037 
z
" clip-path="url(#p4e25eb436a)" style="fill: #1f77b4"/>
   </g>
   <g id="patch_305">
    <path d="M 388.9635 262.1 
L 429.6545 262.1 
L 429.6545 262.085607 
L 388.9635 262.085607 
z
" clip-path="url(#p4e25eb436a)" style="fill: #1f77b4"/>
   </g>
   <g id="patch_306">
    <path d="M 63.4355 262.1 
L 104.1265 262.1 
L 104.1265 262.028037 
L 63.4355 262.028037 
z
" clip-path="url(#p4e25eb436a)" style="fill: #1f77b4"/>
   </g>
   <g id="patch_307">
    <path d="M 144.8175 262.1 
L 185.5085 262.1 
L 185.5085 262.1 
L 144.8175 262.1 
z
" clip-path="url(#p4e25eb436a)" style="fill: #1f77b4"/>
   </g>
   <g id="patch_308">
    <path d="M 226.1995 262.1 
L 266.8905 262.1 
L 266.8905 262.1 
L 226.1995 262.1 
z
" clip-path="url(#p4e25eb436a)" style="fill: #1f77b4"/>
   </g>
   <g id="patch_309">
    <path d="M 307.5815 262.1 
L 348.2725 262.1 
L 348.2725 262.1 
L 307.5815 262.1 
z
" clip-path="url(#p4e25eb436a)" style="fill: #1f77b4"/>
   </g>
   <g id="patch_310">
    <path d="M 388.9635 262.1 
L 429.6545 262.1 
L 429.6545 262.1 
L 388.9635 262.1 
z
" clip-path="url(#p4e25eb436a)" style="fill: #1f77b4"/>
   </g>
   <g id="patch_311">
    <path d="M 63.4355 262.1 
L 104.1265 262.1 
L 104.1265 262.1 
L 63.4355 262.1 
z
" clip-path="url(#p4e25eb436a)" style="fill: #1f77b4"/>
   </g>
   <g id="patch_312">
    <path d="M 144.8175 262.1 
L 185.5085 262.1 
L 185.5085 262.1 
L 144.8175 262.1 
z
" clip-path="url(#p4e25eb436a)" style="fill: #1f77b4"/>
   </g>
   <g id="patch_313">
    <path d="M 63.4355 262.1 
L 104.1265 262.1 
L 104.1265 152.241675 
L 63.4355 152.241675 
z
" clip-path="url(#p4e25eb436a)" style="fill: #1f77b4"/>
   </g>
   <g id="patch_314">
    <path d="M 144.8175 262.1 
L 185.5085 262.1 
L 185.5085 153.050391 
L 144.8175 153.050391 
z
" clip-path="url(#p4e25eb436a)" style="fill: #1f77b4"/>
   </g>
   <g id="patch_315">
    <path d="M 226.1995 262.1 
L 266.8905 262.1 
L 266.8905 133.85438 
L 226.1995 133.85438 
z
" clip-path="url(#p4e25eb436a)" style="fill: #1f77b4"/>
   </g>
   <g id="patch_316">
    <path d="M 307.5815 262.1 
L 348.2725 262.1 
L 348.2725 204.760488 
L 307.5815 204.760488 
z
" clip-path="url(#p4e25eb436a)" style="fill: #1f77b4"/>
   </g>
   <g id="patch_317">
    <path d="M 388.9635 262.1 
L 429.6545 262.1 
L 429.6545 144.043015 
L 388.9635 144.043015 
z
" clip-path="url(#p4e25eb436a)" style="fill: #1f77b4"/>
   </g>
   <g id="patch_318">
    <path d="M 63.4355 262.1 
L 104.1265 262.1 
L 104.1265 169.261933 
L 63.4355 169.261933 
z
" clip-path="url(#p4e25eb436a)" style="fill: #1f77b4"/>
   </g>
   <g id="patch_319">
    <path d="M 144.8175 262.1 
L 185.5085 262.1 
L 185.5085 102.427811 
L 144.8175 102.427811 
z
" clip-path="url(#p4e25eb436a)" style="fill: #1f77b4"/>
   </g>
   <g id="patch_320">
    <path d="M 226.1995 262.1 
L 266.8905 262.1 
L 266.8905 182.396836 
L 226.1995 182.396836 
z
" clip-path="url(#p4e25eb436a)" style="fill: #1f77b4"/>
   </g>
   <g id="patch_321">
    <path d="M 307.5815 262.1 
L 348.2725 262.1 
L 348.2725 198.773495 
L 307.5815 198.773495 
z
" clip-path="url(#p4e25eb436a)" style="fill: #1f77b4"/>
   </g>
   <g id="patch_322">
    <path d="M 388.9635 262.1 
L 429.6545 262.1 
L 429.6545 202.507298 
L 388.9635 202.507298 
z
" clip-path="url(#p4e25eb436a)" style="fill: #1f77b4"/>
   </g>
   <g id="patch_323">
    <path d="M 63.4355 262.1 
L 104.1265 262.1 
L 104.1265 261.728189 
L 63.4355 261.728189 
z
" clip-path="url(#p4e25eb436a)" style="fill: #1f77b4"/>
   </g>
   <g id="patch_324">
    <path d="M 144.8175 262.1 
L 185.5085 262.1 
L 185.5085 261.776165 
L 144.8175 261.776165 
z
" clip-path="url(#p4e25eb436a)" style="fill: #1f77b4"/>
   </g>
   <g id="patch_325">
    <path d="M 226.1995 262.1 
L 266.8905 262.1 
L 266.8905 261.868118 
L 226.1995 261.868118 
z
" clip-path="url(#p4e25eb436a)" style="fill: #1f77b4"/>
   </g>
   <g id="patch_326">
    <path d="M 307.5815 262.1 
L 348.2725 262.1 
L 348.2725 261.992055 
L 307.5815 261.992055 
z
" clip-path="url(#p4e25eb436a)" style="fill: #1f77b4"/>
   </g>
   <g id="patch_327">
    <path d="M 388.9635 262.1 
L 429.6545 262.1 
L 429.6545 261.88411 
L 388.9635 261.88411 
z
" clip-path="url(#p4e25eb436a)" style="fill: #1f77b4"/>
   </g>
   <g id="matplotlib.axis_1">
    <g id="xtick_1">
     <g id="line2d_1">
      <defs>
       <path id="me930318bf4" d="M 0 0 
L 0 3.5 
" style="stroke: #000000; stroke-width: 0.8"/>
      </defs>
      <g>
       <use xlink:href="#me930318bf4" x="83.781" y="262.1" style="stroke: #000000; stroke-width: 0.8"/>
      </g>
     </g>
     <g id="text_1">
      <!-- Colin Farrell -->
      <g transform="translate(86.540375 327.771875) rotate(-90) scale(0.1 -0.1)">
       <defs>
        <path id="DejaVuSans-43" d="M 4122 4306 
L 4122 3641 
Q 3803 3938 3442 4084 
Q 3081 4231 2675 4231 
Q 1875 4231 1450 3742 
Q 1025 3253 1025 2328 
Q 1025 1406 1450 917 
Q 1875 428 2675 428 
Q 3081 428 3442 575 
Q 3803 722 4122 1019 
L 4122 359 
Q 3791 134 3420 21 
Q 3050 -91 2638 -91 
Q 1578 -91 968 557 
Q 359 1206 359 2328 
Q 359 3453 968 4101 
Q 1578 4750 2638 4750 
Q 3056 4750 3426 4639 
Q 3797 4528 4122 4306 
z
" transform="scale(0.015625)"/>
        <path id="DejaVuSans-6f" d="M 1959 3097 
Q 1497 3097 1228 2736 
Q 959 2375 959 1747 
Q 959 1119 1226 758 
Q 1494 397 1959 397 
Q 2419 397 2687 759 
Q 2956 1122 2956 1747 
Q 2956 2369 2687 2733 
Q 2419 3097 1959 3097 
z
M 1959 3584 
Q 2709 3584 3137 3096 
Q 3566 2609 3566 1747 
Q 3566 888 3137 398 
Q 2709 -91 1959 -91 
Q 1206 -91 779 398 
Q 353 888 353 1747 
Q 353 2609 779 3096 
Q 1206 3584 1959 3584 
z
" transform="scale(0.015625)"/>
        <path id="DejaVuSans-6c" d="M 603 4863 
L 1178 4863 
L 1178 0 
L 603 0 
L 603 4863 
z
" transform="scale(0.015625)"/>
        <path id="DejaVuSans-69" d="M 603 3500 
L 1178 3500 
L 1178 0 
L 603 0 
L 603 3500 
z
M 603 4863 
L 1178 4863 
L 1178 4134 
L 603 4134 
L 603 4863 
z
" transform="scale(0.015625)"/>
        <path id="DejaVuSans-6e" d="M 3513 2113 
L 3513 0 
L 2938 0 
L 2938 2094 
Q 2938 2591 2744 2837 
Q 2550 3084 2163 3084 
Q 1697 3084 1428 2787 
Q 1159 2491 1159 1978 
L 1159 0 
L 581 0 
L 581 3500 
L 1159 3500 
L 1159 2956 
Q 1366 3272 1645 3428 
Q 1925 3584 2291 3584 
Q 2894 3584 3203 3211 
Q 3513 2838 3513 2113 
z
" transform="scale(0.015625)"/>
        <path id="DejaVuSans-20" transform="scale(0.015625)"/>
        <path id="DejaVuSans-46" d="M 628 4666 
L 3309 4666 
L 3309 4134 
L 1259 4134 
L 1259 2759 
L 3109 2759 
L 3109 2228 
L 1259 2228 
L 1259 0 
L 628 0 
L 628 4666 
z
" transform="scale(0.015625)"/>
        <path id="DejaVuSans-61" d="M 2194 1759 
Q 1497 1759 1228 1600 
Q 959 1441 959 1056 
Q 959 750 1161 570 
Q 1363 391 1709 391 
Q 2188 391 2477 730 
Q 2766 1069 2766 1631 
L 2766 1759 
L 2194 1759 
z
M 3341 1997 
L 3341 0 
L 2766 0 
L 2766 531 
Q 2569 213 2275 61 
Q 1981 -91 1556 -91 
Q 1019 -91 701 211 
Q 384 513 384 1019 
Q 384 1609 779 1909 
Q 1175 2209 1959 2209 
L 2766 2209 
L 2766 2266 
Q 2766 2663 2505 2880 
Q 2244 3097 1772 3097 
Q 1472 3097 1187 3025 
Q 903 2953 641 2809 
L 641 3341 
Q 956 3463 1253 3523 
Q 1550 3584 1831 3584 
Q 2591 3584 2966 3190 
Q 3341 2797 3341 1997 
z
" transform="scale(0.015625)"/>
        <path id="DejaVuSans-72" d="M 2631 2963 
Q 2534 3019 2420 3045 
Q 2306 3072 2169 3072 
Q 1681 3072 1420 2755 
Q 1159 2438 1159 1844 
L 1159 0 
L 581 0 
L 581 3500 
L 1159 3500 
L 1159 2956 
Q 1341 3275 1631 3429 
Q 1922 3584 2338 3584 
Q 2397 3584 2469 3576 
Q 2541 3569 2628 3553 
L 2631 2963 
z
" transform="scale(0.015625)"/>
        <path id="DejaVuSans-65" d="M 3597 1894 
L 3597 1613 
L 953 1613 
Q 991 1019 1311 708 
Q 1631 397 2203 397 
Q 2534 397 2845 478 
Q 3156 559 3463 722 
L 3463 178 
Q 3153 47 2828 -22 
Q 2503 -91 2169 -91 
Q 1331 -91 842 396 
Q 353 884 353 1716 
Q 353 2575 817 3079 
Q 1281 3584 2069 3584 
Q 2775 3584 3186 3129 
Q 3597 2675 3597 1894 
z
M 3022 2063 
Q 3016 2534 2758 2815 
Q 2500 3097 2075 3097 
Q 1594 3097 1305 2825 
Q 1016 2553 972 2059 
L 3022 2063 
z
" transform="scale(0.015625)"/>
       </defs>
       <use xlink:href="#DejaVuSans-43"/>
       <use xlink:href="#DejaVuSans-6f" x="69.824219"/>
       <use xlink:href="#DejaVuSans-6c" x="131.005859"/>
       <use xlink:href="#DejaVuSans-69" x="158.789062"/>
       <use xlink:href="#DejaVuSans-6e" x="186.572266"/>
       <use xlink:href="#DejaVuSans-20" x="249.951172"/>
       <use xlink:href="#DejaVuSans-46" x="281.738281"/>
       <use xlink:href="#DejaVuSans-61" x="330.132812"/>
       <use xlink:href="#DejaVuSans-72" x="391.412109"/>
       <use xlink:href="#DejaVuSans-72" x="430.775391"/>
       <use xlink:href="#DejaVuSans-65" x="469.638672"/>
       <use xlink:href="#DejaVuSans-6c" x="531.162109"/>
       <use xlink:href="#DejaVuSans-6c" x="558.945312"/>
      </g>
     </g>
    </g>
    <g id="xtick_2">
     <g id="line2d_2">
      <g>
       <use xlink:href="#me930318bf4" x="165.163" y="262.1" style="stroke: #000000; stroke-width: 0.8"/>
      </g>
     </g>
     <g id="text_2">
      <!-- Jeff Daniels -->
      <g transform="translate(167.922375 325.50625) rotate(-90) scale(0.1 -0.1)">
       <defs>
        <path id="DejaVuSans-4a" d="M 628 4666 
L 1259 4666 
L 1259 325 
Q 1259 -519 939 -900 
Q 619 -1281 -91 -1281 
L -331 -1281 
L -331 -750 
L -134 -750 
Q 284 -750 456 -515 
Q 628 -281 628 325 
L 628 4666 
z
" transform="scale(0.015625)"/>
        <path id="DejaVuSans-66" d="M 2375 4863 
L 2375 4384 
L 1825 4384 
Q 1516 4384 1395 4259 
Q 1275 4134 1275 3809 
L 1275 3500 
L 2222 3500 
L 2222 3053 
L 1275 3053 
L 1275 0 
L 697 0 
L 697 3053 
L 147 3053 
L 147 3500 
L 697 3500 
L 697 3744 
Q 697 4328 969 4595 
Q 1241 4863 1831 4863 
L 2375 4863 
z
" transform="scale(0.015625)"/>
        <path id="DejaVuSans-44" d="M 1259 4147 
L 1259 519 
L 2022 519 
Q 2988 519 3436 956 
Q 3884 1394 3884 2338 
Q 3884 3275 3436 3711 
Q 2988 4147 2022 4147 
L 1259 4147 
z
M 628 4666 
L 1925 4666 
Q 3281 4666 3915 4102 
Q 4550 3538 4550 2338 
Q 4550 1131 3912 565 
Q 3275 0 1925 0 
L 628 0 
L 628 4666 
z
" transform="scale(0.015625)"/>
        <path id="DejaVuSans-73" d="M 2834 3397 
L 2834 2853 
Q 2591 2978 2328 3040 
Q 2066 3103 1784 3103 
Q 1356 3103 1142 2972 
Q 928 2841 928 2578 
Q 928 2378 1081 2264 
Q 1234 2150 1697 2047 
L 1894 2003 
Q 2506 1872 2764 1633 
Q 3022 1394 3022 966 
Q 3022 478 2636 193 
Q 2250 -91 1575 -91 
Q 1294 -91 989 -36 
Q 684 19 347 128 
L 347 722 
Q 666 556 975 473 
Q 1284 391 1588 391 
Q 1994 391 2212 530 
Q 2431 669 2431 922 
Q 2431 1156 2273 1281 
Q 2116 1406 1581 1522 
L 1381 1569 
Q 847 1681 609 1914 
Q 372 2147 372 2553 
Q 372 3047 722 3315 
Q 1072 3584 1716 3584 
Q 2034 3584 2315 3537 
Q 2597 3491 2834 3397 
z
" transform="scale(0.015625)"/>
       </defs>
       <use xlink:href="#DejaVuSans-4a"/>
       <use xlink:href="#DejaVuSans-65" x="29.492188"/>
       <use xlink:href="#DejaVuSans-66" x="91.015625"/>
       <use xlink:href="#DejaVuSans-66" x="126.220703"/>
       <use xlink:href="#DejaVuSans-20" x="161.425781"/>
       <use xlink:href="#DejaVuSans-44" x="193.212891"/>
       <use xlink:href="#DejaVuSans-61" x="270.214844"/>
       <use xlink:href="#DejaVuSans-6e" x="331.494141"/>
       <use xlink:href="#DejaVuSans-69" x="394.873047"/>
       <use xlink:href="#DejaVuSans-65" x="422.65625"/>
       <use xlink:href="#DejaVuSans-6c" x="484.179688"/>
       <use xlink:href="#DejaVuSans-73" x="511.962891"/>
      </g>
     </g>
    </g>
    <g id="xtick_3">
     <g id="line2d_3">
      <g>
       <use xlink:href="#me930318bf4" x="246.545" y="262.1" style="stroke: #000000; stroke-width: 0.8"/>
      </g>
     </g>
     <g id="text_3">
      <!-- Don Cheadle -->
      <g transform="translate(249.304375 333.315625) rotate(-90) scale(0.1 -0.1)">
       <defs>
        <path id="DejaVuSans-68" d="M 3513 2113 
L 3513 0 
L 2938 0 
L 2938 2094 
Q 2938 2591 2744 2837 
Q 2550 3084 2163 3084 
Q 1697 3084 1428 2787 
Q 1159 2491 1159 1978 
L 1159 0 
L 581 0 
L 581 4863 
L 1159 4863 
L 1159 2956 
Q 1366 3272 1645 3428 
Q 1925 3584 2291 3584 
Q 2894 3584 3203 3211 
Q 3513 2838 3513 2113 
z
" transform="scale(0.015625)"/>
        <path id="DejaVuSans-64" d="M 2906 2969 
L 2906 4863 
L 3481 4863 
L 3481 0 
L 2906 0 
L 2906 525 
Q 2725 213 2448 61 
Q 2172 -91 1784 -91 
Q 1150 -91 751 415 
Q 353 922 353 1747 
Q 353 2572 751 3078 
Q 1150 3584 1784 3584 
Q 2172 3584 2448 3432 
Q 2725 3281 2906 2969 
z
M 947 1747 
Q 947 1113 1208 752 
Q 1469 391 1925 391 
Q 2381 391 2643 752 
Q 2906 1113 2906 1747 
Q 2906 2381 2643 2742 
Q 2381 3103 1925 3103 
Q 1469 3103 1208 2742 
Q 947 2381 947 1747 
z
" transform="scale(0.015625)"/>
       </defs>
       <use xlink:href="#DejaVuSans-44"/>
       <use xlink:href="#DejaVuSans-6f" x="77.001953"/>
       <use xlink:href="#DejaVuSans-6e" x="138.183594"/>
       <use xlink:href="#DejaVuSans-20" x="201.5625"/>
       <use xlink:href="#DejaVuSans-43" x="233.349609"/>
       <use xlink:href="#DejaVuSans-68" x="303.173828"/>
       <use xlink:href="#DejaVuSans-65" x="366.552734"/>
       <use xlink:href="#DejaVuSans-61" x="428.076172"/>
       <use xlink:href="#DejaVuSans-64" x="489.355469"/>
       <use xlink:href="#DejaVuSans-6c" x="552.832031"/>
       <use xlink:href="#DejaVuSans-65" x="580.615234"/>
      </g>
     </g>
    </g>
    <g id="xtick_4">
     <g id="line2d_4">
      <g>
       <use xlink:href="#me930318bf4" x="327.927" y="262.1" style="stroke: #000000; stroke-width: 0.8"/>
      </g>
     </g>
     <g id="text_4">
      <!-- Carla Gugino -->
      <g transform="translate(330.686375 334.075) rotate(-90) scale(0.1 -0.1)">
       <defs>
        <path id="DejaVuSans-47" d="M 3809 666 
L 3809 1919 
L 2778 1919 
L 2778 2438 
L 4434 2438 
L 4434 434 
Q 4069 175 3628 42 
Q 3188 -91 2688 -91 
Q 1594 -91 976 548 
Q 359 1188 359 2328 
Q 359 3472 976 4111 
Q 1594 4750 2688 4750 
Q 3144 4750 3555 4637 
Q 3966 4525 4313 4306 
L 4313 3634 
Q 3963 3931 3569 4081 
Q 3175 4231 2741 4231 
Q 1884 4231 1454 3753 
Q 1025 3275 1025 2328 
Q 1025 1384 1454 906 
Q 1884 428 2741 428 
Q 3075 428 3337 486 
Q 3600 544 3809 666 
z
" transform="scale(0.015625)"/>
        <path id="DejaVuSans-75" d="M 544 1381 
L 544 3500 
L 1119 3500 
L 1119 1403 
Q 1119 906 1312 657 
Q 1506 409 1894 409 
Q 2359 409 2629 706 
Q 2900 1003 2900 1516 
L 2900 3500 
L 3475 3500 
L 3475 0 
L 2900 0 
L 2900 538 
Q 2691 219 2414 64 
Q 2138 -91 1772 -91 
Q 1169 -91 856 284 
Q 544 659 544 1381 
z
M 1991 3584 
L 1991 3584 
z
" transform="scale(0.015625)"/>
        <path id="DejaVuSans-67" d="M 2906 1791 
Q 2906 2416 2648 2759 
Q 2391 3103 1925 3103 
Q 1463 3103 1205 2759 
Q 947 2416 947 1791 
Q 947 1169 1205 825 
Q 1463 481 1925 481 
Q 2391 481 2648 825 
Q 2906 1169 2906 1791 
z
M 3481 434 
Q 3481 -459 3084 -895 
Q 2688 -1331 1869 -1331 
Q 1566 -1331 1297 -1286 
Q 1028 -1241 775 -1147 
L 775 -588 
Q 1028 -725 1275 -790 
Q 1522 -856 1778 -856 
Q 2344 -856 2625 -561 
Q 2906 -266 2906 331 
L 2906 616 
Q 2728 306 2450 153 
Q 2172 0 1784 0 
Q 1141 0 747 490 
Q 353 981 353 1791 
Q 353 2603 747 3093 
Q 1141 3584 1784 3584 
Q 2172 3584 2450 3431 
Q 2728 3278 2906 2969 
L 2906 3500 
L 3481 3500 
L 3481 434 
z
" transform="scale(0.015625)"/>
       </defs>
       <use xlink:href="#DejaVuSans-43"/>
       <use xlink:href="#DejaVuSans-61" x="69.824219"/>
       <use xlink:href="#DejaVuSans-72" x="131.103516"/>
       <use xlink:href="#DejaVuSans-6c" x="172.216797"/>
       <use xlink:href="#DejaVuSans-61" x="200"/>
       <use xlink:href="#DejaVuSans-20" x="261.279297"/>
       <use xlink:href="#DejaVuSans-47" x="293.066406"/>
       <use xlink:href="#DejaVuSans-75" x="370.556641"/>
       <use xlink:href="#DejaVuSans-67" x="433.935547"/>
       <use xlink:href="#DejaVuSans-69" x="497.412109"/>
       <use xlink:href="#DejaVuSans-6e" x="525.195312"/>
       <use xlink:href="#DejaVuSans-6f" x="588.574219"/>
      </g>
     </g>
    </g>
    <g id="xtick_5">
     <g id="line2d_5">
      <g>
       <use xlink:href="#me930318bf4" x="409.309" y="262.1" style="stroke: #000000; stroke-width: 0.8"/>
      </g>
     </g>
     <g id="text_5">
      <!-- Ving Rhames -->
      <g transform="translate(412.068375 334.875) rotate(-90) scale(0.1 -0.1)">
       <defs>
        <path id="DejaVuSans-56" d="M 1831 0 
L 50 4666 
L 709 4666 
L 2188 738 
L 3669 4666 
L 4325 4666 
L 2547 0 
L 1831 0 
z
" transform="scale(0.015625)"/>
        <path id="DejaVuSans-52" d="M 2841 2188 
Q 3044 2119 3236 1894 
Q 3428 1669 3622 1275 
L 4263 0 
L 3584 0 
L 2988 1197 
Q 2756 1666 2539 1819 
Q 2322 1972 1947 1972 
L 1259 1972 
L 1259 0 
L 628 0 
L 628 4666 
L 2053 4666 
Q 2853 4666 3247 4331 
Q 3641 3997 3641 3322 
Q 3641 2881 3436 2590 
Q 3231 2300 2841 2188 
z
M 1259 4147 
L 1259 2491 
L 2053 2491 
Q 2509 2491 2742 2702 
Q 2975 2913 2975 3322 
Q 2975 3731 2742 3939 
Q 2509 4147 2053 4147 
L 1259 4147 
z
" transform="scale(0.015625)"/>
        <path id="DejaVuSans-6d" d="M 3328 2828 
Q 3544 3216 3844 3400 
Q 4144 3584 4550 3584 
Q 5097 3584 5394 3201 
Q 5691 2819 5691 2113 
L 5691 0 
L 5113 0 
L 5113 2094 
Q 5113 2597 4934 2840 
Q 4756 3084 4391 3084 
Q 3944 3084 3684 2787 
Q 3425 2491 3425 1978 
L 3425 0 
L 2847 0 
L 2847 2094 
Q 2847 2600 2669 2842 
Q 2491 3084 2119 3084 
Q 1678 3084 1418 2786 
Q 1159 2488 1159 1978 
L 1159 0 
L 581 0 
L 581 3500 
L 1159 3500 
L 1159 2956 
Q 1356 3278 1631 3431 
Q 1906 3584 2284 3584 
Q 2666 3584 2933 3390 
Q 3200 3197 3328 2828 
z
" transform="scale(0.015625)"/>
       </defs>
       <use xlink:href="#DejaVuSans-56"/>
       <use xlink:href="#DejaVuSans-69" x="66.158203"/>
       <use xlink:href="#DejaVuSans-6e" x="93.941406"/>
       <use xlink:href="#DejaVuSans-67" x="157.320312"/>
       <use xlink:href="#DejaVuSans-20" x="220.796875"/>
       <use xlink:href="#DejaVuSans-52" x="252.583984"/>
       <use xlink:href="#DejaVuSans-68" x="322.066406"/>
       <use xlink:href="#DejaVuSans-61" x="385.445312"/>
       <use xlink:href="#DejaVuSans-6d" x="446.724609"/>
       <use xlink:href="#DejaVuSans-65" x="544.136719"/>
       <use xlink:href="#DejaVuSans-73" x="605.660156"/>
      </g>
     </g>
    </g>
   </g>
   <g id="matplotlib.axis_2">
    <g id="ytick_1">
     <g id="line2d_6">
      <defs>
       <path id="me7569fd1ff" d="M 0 0 
L -3.5 0 
" style="stroke: #000000; stroke-width: 0.8"/>
      </defs>
      <g>
       <use xlink:href="#me7569fd1ff" x="43.09" y="262.1" style="stroke: #000000; stroke-width: 0.8"/>
      </g>
     </g>
     <g id="text_6">
      <!-- 0 -->
      <g transform="translate(29.7275 265.899219) scale(0.1 -0.1)">
       <defs>
        <path id="DejaVuSans-30" d="M 2034 4250 
Q 1547 4250 1301 3770 
Q 1056 3291 1056 2328 
Q 1056 1369 1301 889 
Q 1547 409 2034 409 
Q 2525 409 2770 889 
Q 3016 1369 3016 2328 
Q 3016 3291 2770 3770 
Q 2525 4250 2034 4250 
z
M 2034 4750 
Q 2819 4750 3233 4129 
Q 3647 3509 3647 2328 
Q 3647 1150 3233 529 
Q 2819 -91 2034 -91 
Q 1250 -91 836 529 
Q 422 1150 422 2328 
Q 422 3509 836 4129 
Q 1250 4750 2034 4750 
z
" transform="scale(0.015625)"/>
       </defs>
       <use xlink:href="#DejaVuSans-30"/>
      </g>
     </g>
    </g>
    <g id="ytick_2">
     <g id="line2d_7">
      <g>
       <use xlink:href="#me7569fd1ff" x="43.09" y="226.118336" style="stroke: #000000; stroke-width: 0.8"/>
      </g>
     </g>
     <g id="text_7">
      <!-- 500 -->
      <g transform="translate(17.0025 229.917555) scale(0.1 -0.1)">
       <defs>
        <path id="DejaVuSans-35" d="M 691 4666 
L 3169 4666 
L 3169 4134 
L 1269 4134 
L 1269 2991 
Q 1406 3038 1543 3061 
Q 1681 3084 1819 3084 
Q 2600 3084 3056 2656 
Q 3513 2228 3513 1497 
Q 3513 744 3044 326 
Q 2575 -91 1722 -91 
Q 1428 -91 1123 -41 
Q 819 9 494 109 
L 494 744 
Q 775 591 1075 516 
Q 1375 441 1709 441 
Q 2250 441 2565 725 
Q 2881 1009 2881 1497 
Q 2881 1984 2565 2268 
Q 2250 2553 1709 2553 
Q 1456 2553 1204 2497 
Q 953 2441 691 2322 
L 691 4666 
z
" transform="scale(0.015625)"/>
       </defs>
       <use xlink:href="#DejaVuSans-35"/>
       <use xlink:href="#DejaVuSans-30" x="63.623047"/>
       <use xlink:href="#DejaVuSans-30" x="127.246094"/>
      </g>
     </g>
    </g>
    <g id="ytick_3">
     <g id="line2d_8">
      <g>
       <use xlink:href="#me7569fd1ff" x="43.09" y="190.136672" style="stroke: #000000; stroke-width: 0.8"/>
      </g>
     </g>
     <g id="text_8">
      <!-- 1000 -->
      <g transform="translate(10.64 193.935891) scale(0.1 -0.1)">
       <defs>
        <path id="DejaVuSans-31" d="M 794 531 
L 1825 531 
L 1825 4091 
L 703 3866 
L 703 4441 
L 1819 4666 
L 2450 4666 
L 2450 531 
L 3481 531 
L 3481 0 
L 794 0 
L 794 531 
z
" transform="scale(0.015625)"/>
       </defs>
       <use xlink:href="#DejaVuSans-31"/>
       <use xlink:href="#DejaVuSans-30" x="63.623047"/>
       <use xlink:href="#DejaVuSans-30" x="127.246094"/>
       <use xlink:href="#DejaVuSans-30" x="190.869141"/>
      </g>
     </g>
    </g>
    <g id="ytick_4">
     <g id="line2d_9">
      <g>
       <use xlink:href="#me7569fd1ff" x="43.09" y="154.155008" style="stroke: #000000; stroke-width: 0.8"/>
      </g>
     </g>
     <g id="text_9">
      <!-- 1500 -->
      <g transform="translate(10.64 157.954227) scale(0.1 -0.1)">
       <use xlink:href="#DejaVuSans-31"/>
       <use xlink:href="#DejaVuSans-35" x="63.623047"/>
       <use xlink:href="#DejaVuSans-30" x="127.246094"/>
       <use xlink:href="#DejaVuSans-30" x="190.869141"/>
      </g>
     </g>
    </g>
    <g id="ytick_5">
     <g id="line2d_10">
      <g>
       <use xlink:href="#me7569fd1ff" x="43.09" y="118.173344" style="stroke: #000000; stroke-width: 0.8"/>
      </g>
     </g>
     <g id="text_10">
      <!-- 2000 -->
      <g transform="translate(10.64 121.972563) scale(0.1 -0.1)">
       <defs>
        <path id="DejaVuSans-32" d="M 1228 531 
L 3431 531 
L 3431 0 
L 469 0 
L 469 531 
Q 828 903 1448 1529 
Q 2069 2156 2228 2338 
Q 2531 2678 2651 2914 
Q 2772 3150 2772 3378 
Q 2772 3750 2511 3984 
Q 2250 4219 1831 4219 
Q 1534 4219 1204 4116 
Q 875 4013 500 3803 
L 500 4441 
Q 881 4594 1212 4672 
Q 1544 4750 1819 4750 
Q 2544 4750 2975 4387 
Q 3406 4025 3406 3419 
Q 3406 3131 3298 2873 
Q 3191 2616 2906 2266 
Q 2828 2175 2409 1742 
Q 1991 1309 1228 531 
z
" transform="scale(0.015625)"/>
       </defs>
       <use xlink:href="#DejaVuSans-32"/>
       <use xlink:href="#DejaVuSans-30" x="63.623047"/>
       <use xlink:href="#DejaVuSans-30" x="127.246094"/>
       <use xlink:href="#DejaVuSans-30" x="190.869141"/>
      </g>
     </g>
    </g>
    <g id="ytick_6">
     <g id="line2d_11">
      <g>
       <use xlink:href="#me7569fd1ff" x="43.09" y="82.19168" style="stroke: #000000; stroke-width: 0.8"/>
      </g>
     </g>
     <g id="text_11">
      <!-- 2500 -->
      <g transform="translate(10.64 85.990899) scale(0.1 -0.1)">
       <use xlink:href="#DejaVuSans-32"/>
       <use xlink:href="#DejaVuSans-35" x="63.623047"/>
       <use xlink:href="#DejaVuSans-30" x="127.246094"/>
       <use xlink:href="#DejaVuSans-30" x="190.869141"/>
      </g>
     </g>
    </g>
    <g id="ytick_7">
     <g id="line2d_12">
      <g>
       <use xlink:href="#me7569fd1ff" x="43.09" y="46.210016" style="stroke: #000000; stroke-width: 0.8"/>
      </g>
     </g>
     <g id="text_12">
      <!-- 3000 -->
      <g transform="translate(10.64 50.009235) scale(0.1 -0.1)">
       <defs>
        <path id="DejaVuSans-33" d="M 2597 2516 
Q 3050 2419 3304 2112 
Q 3559 1806 3559 1356 
Q 3559 666 3084 287 
Q 2609 -91 1734 -91 
Q 1441 -91 1130 -33 
Q 819 25 488 141 
L 488 750 
Q 750 597 1062 519 
Q 1375 441 1716 441 
Q 2309 441 2620 675 
Q 2931 909 2931 1356 
Q 2931 1769 2642 2001 
Q 2353 2234 1838 2234 
L 1294 2234 
L 1294 2753 
L 1863 2753 
Q 2328 2753 2575 2939 
Q 2822 3125 2822 3475 
Q 2822 3834 2567 4026 
Q 2313 4219 1838 4219 
Q 1578 4219 1281 4162 
Q 984 4106 628 3988 
L 628 4550 
Q 988 4650 1302 4700 
Q 1616 4750 1894 4750 
Q 2613 4750 3031 4423 
Q 3450 4097 3450 3541 
Q 3450 3153 3228 2886 
Q 3006 2619 2597 2516 
z
" transform="scale(0.015625)"/>
       </defs>
       <use xlink:href="#DejaVuSans-33"/>
       <use xlink:href="#DejaVuSans-30" x="63.623047"/>
       <use xlink:href="#DejaVuSans-30" x="127.246094"/>
       <use xlink:href="#DejaVuSans-30" x="190.869141"/>
      </g>
     </g>
    </g>
   </g>
   <g id="patch_328">
    <path d="M 43.09 262.1 
L 43.09 10.8 
" style="fill: none; stroke: #000000; stroke-width: 0.8; stroke-linejoin: miter; stroke-linecap: square"/>
   </g>
   <g id="patch_329">
    <path d="M 450 262.1 
L 450 10.8 
" style="fill: none; stroke: #000000; stroke-width: 0.8; stroke-linejoin: miter; stroke-linecap: square"/>
   </g>
   <g id="patch_330">
    <path d="M 43.09 262.1 
L 450 262.1 
" style="fill: none; stroke: #000000; stroke-width: 0.8; stroke-linejoin: miter; stroke-linecap: square"/>
   </g>
   <g id="patch_331">
    <path d="M 43.09 10.8 
L 450 10.8 
" style="fill: none; stroke: #000000; stroke-width: 0.8; stroke-linejoin: miter; stroke-linecap: square"/>
   </g>
  </g>
 </g>
 <defs>
  <clipPath id="p4e25eb436a">
   <rect x="43.09" y="10.8" width="406.91" height="251.3"/>
  </clipPath>
 </defs>
</svg>
