<?xml version="1.0" encoding="utf-8" standalone="no"?>
<!DOCTYPE svg PUBLIC "-//W3C//DTD SVG 1.1//EN"
  "http://www.w3.org/Graphics/SVG/1.1/DTD/svg11.dtd">
<svg xmlns:xlink="http://www.w3.org/1999/xlink" width="460.8pt" height="345.6pt" viewBox="0 0 460.8 345.6" xmlns="http://www.w3.org/2000/svg" version="1.1">
 <metadata>
  <rdf:RDF xmlns:dc="http://purl.org/dc/elements/1.1/" xmlns:cc="http://creativecommons.org/ns#" xmlns:rdf="http://www.w3.org/1999/02/22-rdf-syntax-ns#">
   <cc:Work>
    <dc:type rdf:resource="http://purl.org/dc/dcmitype/StillImage"/>
    <dc:date>2022-12-20T12:31:06.348420</dc:date>
    <dc:format>image/svg+xml</dc:format>
    <dc:creator>
     <cc:Agent>
      <dc:title>Matplotlib v3.6.0, https://matplotlib.org/</dc:title>
     </cc:Agent>
    </dc:creator>
   </cc:Work>
  </rdf:RDF>
 </metadata>
 <defs>
  <style type="text/css">*{stroke-linejoin: round; stroke-linecap: butt}</style>
 </defs>
 <g id="figure_1">
  <g id="patch_1">
   <path d="M 0 345.6 
L 460.8 345.6 
L 460.8 0 
L 0 0 
z
" style="fill: #ffffff"/>
  </g>
  <g id="axes_1">
   <g id="patch_2">
    <path d="M 43.09 242.66 
L 450 242.66 
L 450 10.8 
L 43.09 10.8 
z
" style="fill: #ffffff"/>
   </g>
   <g id="patch_3">
    <path d="M 63.4355 242.66 
L 104.1265 242.66 
L 104.1265 168.006584 
L 63.4355 168.006584 
z
" clip-path="url(#p6f50aeac18)" style="fill: #1f77b4"/>
   </g>
   <g id="patch_4">
    <path d="M 144.8175 242.66 
L 185.5085 242.66 
L 185.5085 185.564994 
L 144.8175 185.564994 
z
" clip-path="url(#p6f50aeac18)" style="fill: #1f77b4"/>
   </g>
   <g id="patch_5">
    <path d="M 226.1995 242.66 
L 266.8905 242.66 
L 266.8905 180.341602 
L 226.1995 180.341602 
z
" clip-path="url(#p6f50aeac18)" style="fill: #1f77b4"/>
   </g>
   <g id="patch_6">
    <path d="M 307.5815 242.66 
L 348.2725 242.66 
L 348.2725 191.818631 
L 307.5815 191.818631 
z
" clip-path="url(#p6f50aeac18)" style="fill: #1f77b4"/>
   </g>
   <g id="patch_7">
    <path d="M 388.9635 242.66 
L 429.6545 242.66 
L 429.6545 212.071699 
L 388.9635 212.071699 
z
" clip-path="url(#p6f50aeac18)" style="fill: #1f77b4"/>
   </g>
   <g id="patch_8">
    <path d="M 63.4355 242.66 
L 104.1265 242.66 
L 104.1265 242.460811 
L 63.4355 242.460811 
z
" clip-path="url(#p6f50aeac18)" style="fill: #1f77b4"/>
   </g>
   <g id="patch_9">
    <path d="M 144.8175 242.66 
L 185.5085 242.66 
L 185.5085 242.593604 
L 144.8175 242.593604 
z
" clip-path="url(#p6f50aeac18)" style="fill: #1f77b4"/>
   </g>
   <g id="patch_10">
    <path d="M 226.1995 242.66 
L 266.8905 242.66 
L 266.8905 242.66 
L 226.1995 242.66 
z
" clip-path="url(#p6f50aeac18)" style="fill: #1f77b4"/>
   </g>
   <g id="patch_11">
    <path d="M 63.4355 242.66 
L 104.1265 242.66 
L 104.1265 242.637868 
L 63.4355 242.637868 
z
" clip-path="url(#p6f50aeac18)" style="fill: #1f77b4"/>
   </g>
   <g id="patch_12">
    <path d="M 144.8175 242.66 
L 185.5085 242.66 
L 185.5085 242.637868 
L 144.8175 242.637868 
z
" clip-path="url(#p6f50aeac18)" style="fill: #1f77b4"/>
   </g>
   <g id="patch_13">
    <path d="M 226.1995 242.66 
L 266.8905 242.66 
L 266.8905 242.637868 
L 226.1995 242.637868 
z
" clip-path="url(#p6f50aeac18)" style="fill: #1f77b4"/>
   </g>
   <g id="patch_14">
    <path d="M 307.5815 242.66 
L 348.2725 242.66 
L 348.2725 242.593604 
L 307.5815 242.593604 
z
" clip-path="url(#p6f50aeac18)" style="fill: #1f77b4"/>
   </g>
   <g id="patch_15">
    <path d="M 388.9635 242.66 
L 429.6545 242.66 
L 429.6545 242.66 
L 388.9635 242.66 
z
" clip-path="url(#p6f50aeac18)" style="fill: #1f77b4"/>
   </g>
   <g id="patch_16">
    <path d="M 63.4355 242.66 
L 104.1265 242.66 
L 104.1265 230.177475 
L 63.4355 230.177475 
z
" clip-path="url(#p6f50aeac18)" style="fill: #1f77b4"/>
   </g>
   <g id="patch_17">
    <path d="M 144.8175 242.66 
L 185.5085 242.66 
L 185.5085 239.14099 
L 144.8175 239.14099 
z
" clip-path="url(#p6f50aeac18)" style="fill: #1f77b4"/>
   </g>
   <g id="patch_18">
    <path d="M 226.1995 242.66 
L 266.8905 242.66 
L 266.8905 239.771756 
L 226.1995 239.771756 
z
" clip-path="url(#p6f50aeac18)" style="fill: #1f77b4"/>
   </g>
   <g id="patch_19">
    <path d="M 307.5815 242.66 
L 348.2725 242.66 
L 348.2725 230.509457 
L 307.5815 230.509457 
z
" clip-path="url(#p6f50aeac18)" style="fill: #1f77b4"/>
   </g>
   <g id="patch_20">
    <path d="M 388.9635 242.66 
L 429.6545 242.66 
L 429.6545 241.099684 
L 388.9635 241.099684 
z
" clip-path="url(#p6f50aeac18)" style="fill: #1f77b4"/>
   </g>
   <g id="patch_21">
    <path d="M 63.4355 242.66 
L 104.1265 242.66 
L 104.1265 242.593604 
L 63.4355 242.593604 
z
" clip-path="url(#p6f50aeac18)" style="fill: #1f77b4"/>
   </g>
   <g id="patch_22">
    <path d="M 144.8175 242.66 
L 185.5085 242.66 
L 185.5085 242.66 
L 144.8175 242.66 
z
" clip-path="url(#p6f50aeac18)" style="fill: #1f77b4"/>
   </g>
   <g id="patch_23">
    <path d="M 226.1995 242.66 
L 266.8905 242.66 
L 266.8905 242.66 
L 226.1995 242.66 
z
" clip-path="url(#p6f50aeac18)" style="fill: #1f77b4"/>
   </g>
   <g id="patch_24">
    <path d="M 307.5815 242.66 
L 348.2725 242.66 
L 348.2725 242.66 
L 307.5815 242.66 
z
" clip-path="url(#p6f50aeac18)" style="fill: #1f77b4"/>
   </g>
   <g id="patch_25">
    <path d="M 63.4355 242.66 
L 104.1265 242.66 
L 104.1265 240.867297 
L 63.4355 240.867297 
z
" clip-path="url(#p6f50aeac18)" style="fill: #1f77b4"/>
   </g>
   <g id="patch_26">
    <path d="M 144.8175 242.66 
L 185.5085 242.66 
L 185.5085 242.460811 
L 144.8175 242.460811 
z
" clip-path="url(#p6f50aeac18)" style="fill: #1f77b4"/>
   </g>
   <g id="patch_27">
    <path d="M 226.1995 242.66 
L 266.8905 242.66 
L 266.8905 242.593604 
L 226.1995 242.593604 
z
" clip-path="url(#p6f50aeac18)" style="fill: #1f77b4"/>
   </g>
   <g id="patch_28">
    <path d="M 307.5815 242.66 
L 348.2725 242.66 
L 348.2725 242.593604 
L 307.5815 242.593604 
z
" clip-path="url(#p6f50aeac18)" style="fill: #1f77b4"/>
   </g>
   <g id="patch_29">
    <path d="M 388.9635 242.66 
L 429.6545 242.66 
L 429.6545 242.195225 
L 388.9635 242.195225 
z
" clip-path="url(#p6f50aeac18)" style="fill: #1f77b4"/>
   </g>
   <g id="patch_30">
    <path d="M 63.4355 242.66 
L 104.1265 242.66 
L 104.1265 242.527207 
L 63.4355 242.527207 
z
" clip-path="url(#p6f50aeac18)" style="fill: #1f77b4"/>
   </g>
   <g id="patch_31">
    <path d="M 144.8175 242.66 
L 185.5085 242.66 
L 185.5085 242.527207 
L 144.8175 242.527207 
z
" clip-path="url(#p6f50aeac18)" style="fill: #1f77b4"/>
   </g>
   <g id="patch_32">
    <path d="M 226.1995 242.66 
L 266.8905 242.66 
L 266.8905 242.527207 
L 226.1995 242.527207 
z
" clip-path="url(#p6f50aeac18)" style="fill: #1f77b4"/>
   </g>
   <g id="patch_33">
    <path d="M 307.5815 242.66 
L 348.2725 242.66 
L 348.2725 242.527207 
L 307.5815 242.527207 
z
" clip-path="url(#p6f50aeac18)" style="fill: #1f77b4"/>
   </g>
   <g id="patch_34">
    <path d="M 388.9635 242.66 
L 429.6545 242.66 
L 429.6545 242.527207 
L 388.9635 242.527207 
z
" clip-path="url(#p6f50aeac18)" style="fill: #1f77b4"/>
   </g>
   <g id="patch_35">
    <path d="M 63.4355 242.66 
L 104.1265 242.66 
L 104.1265 242.460811 
L 63.4355 242.460811 
z
" clip-path="url(#p6f50aeac18)" style="fill: #1f77b4"/>
   </g>
   <g id="patch_36">
    <path d="M 144.8175 242.66 
L 185.5085 242.66 
L 185.5085 242.494009 
L 144.8175 242.494009 
z
" clip-path="url(#p6f50aeac18)" style="fill: #1f77b4"/>
   </g>
   <g id="patch_37">
    <path d="M 226.1995 242.66 
L 266.8905 242.66 
L 266.8905 242.593604 
L 226.1995 242.593604 
z
" clip-path="url(#p6f50aeac18)" style="fill: #1f77b4"/>
   </g>
   <g id="patch_38">
    <path d="M 307.5815 242.66 
L 348.2725 242.66 
L 348.2725 242.626802 
L 307.5815 242.626802 
z
" clip-path="url(#p6f50aeac18)" style="fill: #1f77b4"/>
   </g>
   <g id="patch_39">
    <path d="M 388.9635 242.66 
L 429.6545 242.66 
L 429.6545 242.626802 
L 388.9635 242.626802 
z
" clip-path="url(#p6f50aeac18)" style="fill: #1f77b4"/>
   </g>
   <g id="patch_40">
    <path d="M 63.4355 242.66 
L 104.1265 242.66 
L 104.1265 242.460811 
L 63.4355 242.460811 
z
" clip-path="url(#p6f50aeac18)" style="fill: #1f77b4"/>
   </g>
   <g id="patch_41">
    <path d="M 144.8175 242.66 
L 185.5085 242.66 
L 185.5085 242.66 
L 144.8175 242.66 
z
" clip-path="url(#p6f50aeac18)" style="fill: #1f77b4"/>
   </g>
   <g id="patch_42">
    <path d="M 226.1995 242.66 
L 266.8905 242.66 
L 266.8905 242.66 
L 226.1995 242.66 
z
" clip-path="url(#p6f50aeac18)" style="fill: #1f77b4"/>
   </g>
   <g id="patch_43">
    <path d="M 63.4355 242.66 
L 104.1265 242.66 
L 104.1265 242.460811 
L 63.4355 242.460811 
z
" clip-path="url(#p6f50aeac18)" style="fill: #1f77b4"/>
   </g>
   <g id="patch_44">
    <path d="M 144.8175 242.66 
L 185.5085 242.66 
L 185.5085 242.593604 
L 144.8175 242.593604 
z
" clip-path="url(#p6f50aeac18)" style="fill: #1f77b4"/>
   </g>
   <g id="patch_45">
    <path d="M 63.4355 242.66 
L 104.1265 242.66 
L 104.1265 169.450055 
L 63.4355 169.450055 
z
" clip-path="url(#p6f50aeac18)" style="fill: #1f77b4"/>
   </g>
   <g id="patch_46">
    <path d="M 144.8175 242.66 
L 185.5085 242.66 
L 185.5085 190.055949 
L 144.8175 190.055949 
z
" clip-path="url(#p6f50aeac18)" style="fill: #1f77b4"/>
   </g>
   <g id="patch_47">
    <path d="M 226.1995 242.66 
L 266.8905 242.66 
L 266.8905 196.938362 
L 226.1995 196.938362 
z
" clip-path="url(#p6f50aeac18)" style="fill: #1f77b4"/>
   </g>
   <g id="patch_48">
    <path d="M 307.5815 242.66 
L 348.2725 242.66 
L 348.2725 190.238663 
L 307.5815 190.238663 
z
" clip-path="url(#p6f50aeac18)" style="fill: #1f77b4"/>
   </g>
   <g id="patch_49">
    <path d="M 388.9635 242.66 
L 429.6545 242.66 
L 429.6545 204.104626 
L 388.9635 204.104626 
z
" clip-path="url(#p6f50aeac18)" style="fill: #1f77b4"/>
   </g>
   <g id="patch_50">
    <path d="M 63.4355 242.66 
L 104.1265 242.66 
L 104.1265 242.66 
L 63.4355 242.66 
z
" clip-path="url(#p6f50aeac18)" style="fill: #1f77b4"/>
   </g>
   <g id="patch_51">
    <path d="M 144.8175 242.66 
L 185.5085 242.66 
L 185.5085 242.66 
L 144.8175 242.66 
z
" clip-path="url(#p6f50aeac18)" style="fill: #1f77b4"/>
   </g>
   <g id="patch_52">
    <path d="M 226.1995 242.66 
L 266.8905 242.66 
L 266.8905 242.66 
L 226.1995 242.66 
z
" clip-path="url(#p6f50aeac18)" style="fill: #1f77b4"/>
   </g>
   <g id="patch_53">
    <path d="M 307.5815 242.66 
L 348.2725 242.66 
L 348.2725 242.66 
L 307.5815 242.66 
z
" clip-path="url(#p6f50aeac18)" style="fill: #1f77b4"/>
   </g>
   <g id="patch_54">
    <path d="M 388.9635 242.66 
L 429.6545 242.66 
L 429.6545 242.66 
L 388.9635 242.66 
z
" clip-path="url(#p6f50aeac18)" style="fill: #1f77b4"/>
   </g>
   <g id="patch_55">
    <path d="M 63.4355 242.66 
L 104.1265 242.66 
L 104.1265 242.593604 
L 63.4355 242.593604 
z
" clip-path="url(#p6f50aeac18)" style="fill: #1f77b4"/>
   </g>
   <g id="patch_56">
    <path d="M 144.8175 242.66 
L 185.5085 242.66 
L 185.5085 242.66 
L 144.8175 242.66 
z
" clip-path="url(#p6f50aeac18)" style="fill: #1f77b4"/>
   </g>
   <g id="patch_57">
    <path d="M 226.1995 242.66 
L 266.8905 242.66 
L 266.8905 242.66 
L 226.1995 242.66 
z
" clip-path="url(#p6f50aeac18)" style="fill: #1f77b4"/>
   </g>
   <g id="patch_58">
    <path d="M 307.5815 242.66 
L 348.2725 242.66 
L 348.2725 242.66 
L 307.5815 242.66 
z
" clip-path="url(#p6f50aeac18)" style="fill: #1f77b4"/>
   </g>
   <g id="patch_59">
    <path d="M 388.9635 242.66 
L 429.6545 242.66 
L 429.6545 242.66 
L 388.9635 242.66 
z
" clip-path="url(#p6f50aeac18)" style="fill: #1f77b4"/>
   </g>
   <g id="patch_60">
    <path d="M 63.4355 242.66 
L 104.1265 242.66 
L 104.1265 242.29482 
L 63.4355 242.29482 
z
" clip-path="url(#p6f50aeac18)" style="fill: #1f77b4"/>
   </g>
   <g id="patch_61">
    <path d="M 144.8175 242.66 
L 185.5085 242.66 
L 185.5085 242.460811 
L 144.8175 242.460811 
z
" clip-path="url(#p6f50aeac18)" style="fill: #1f77b4"/>
   </g>
   <g id="patch_62">
    <path d="M 226.1995 242.66 
L 266.8905 242.66 
L 266.8905 242.626802 
L 226.1995 242.626802 
z
" clip-path="url(#p6f50aeac18)" style="fill: #1f77b4"/>
   </g>
   <g id="patch_63">
    <path d="M 307.5815 242.66 
L 348.2725 242.66 
L 348.2725 242.66 
L 307.5815 242.66 
z
" clip-path="url(#p6f50aeac18)" style="fill: #1f77b4"/>
   </g>
   <g id="patch_64">
    <path d="M 388.9635 242.66 
L 429.6545 242.66 
L 429.6545 242.66 
L 388.9635 242.66 
z
" clip-path="url(#p6f50aeac18)" style="fill: #1f77b4"/>
   </g>
   <g id="patch_65">
    <path d="M 63.4355 242.66 
L 104.1265 242.66 
L 104.1265 235.323197 
L 63.4355 235.323197 
z
" clip-path="url(#p6f50aeac18)" style="fill: #1f77b4"/>
   </g>
   <g id="patch_66">
    <path d="M 144.8175 242.66 
L 185.5085 242.66 
L 185.5085 241.996036 
L 144.8175 241.996036 
z
" clip-path="url(#p6f50aeac18)" style="fill: #1f77b4"/>
   </g>
   <g id="patch_67">
    <path d="M 226.1995 242.66 
L 266.8905 242.66 
L 266.8905 238.654083 
L 226.1995 238.654083 
z
" clip-path="url(#p6f50aeac18)" style="fill: #1f77b4"/>
   </g>
   <g id="patch_68">
    <path d="M 307.5815 242.66 
L 348.2725 242.66 
L 348.2725 237.613873 
L 307.5815 237.613873 
z
" clip-path="url(#p6f50aeac18)" style="fill: #1f77b4"/>
   </g>
   <g id="patch_69">
    <path d="M 388.9635 242.66 
L 429.6545 242.66 
L 429.6545 238.576621 
L 388.9635 238.576621 
z
" clip-path="url(#p6f50aeac18)" style="fill: #1f77b4"/>
   </g>
   <g id="patch_70">
    <path d="M 63.4355 242.66 
L 104.1265 242.66 
L 104.1265 220.563968 
L 63.4355 220.563968 
z
" clip-path="url(#p6f50aeac18)" style="fill: #1f77b4"/>
   </g>
   <g id="patch_71">
    <path d="M 144.8175 242.66 
L 185.5085 242.66 
L 185.5085 223.734766 
L 144.8175 223.734766 
z
" clip-path="url(#p6f50aeac18)" style="fill: #1f77b4"/>
   </g>
   <g id="patch_72">
    <path d="M 226.1995 242.66 
L 266.8905 242.66 
L 266.8905 196.699786 
L 226.1995 196.699786 
z
" clip-path="url(#p6f50aeac18)" style="fill: #1f77b4"/>
   </g>
   <g id="patch_73">
    <path d="M 307.5815 242.66 
L 348.2725 242.66 
L 348.2725 214.945035 
L 307.5815 214.945035 
z
" clip-path="url(#p6f50aeac18)" style="fill: #1f77b4"/>
   </g>
   <g id="patch_74">
    <path d="M 388.9635 242.66 
L 429.6545 242.66 
L 429.6545 196.397184 
L 388.9635 196.397184 
z
" clip-path="url(#p6f50aeac18)" style="fill: #1f77b4"/>
   </g>
   <g id="patch_75">
    <path d="M 63.4355 242.66 
L 104.1265 242.66 
L 104.1265 242.66 
L 63.4355 242.66 
z
" clip-path="url(#p6f50aeac18)" style="fill: #1f77b4"/>
   </g>
   <g id="patch_76">
    <path d="M 144.8175 242.66 
L 185.5085 242.66 
L 185.5085 242.66 
L 144.8175 242.66 
z
" clip-path="url(#p6f50aeac18)" style="fill: #1f77b4"/>
   </g>
   <g id="patch_77">
    <path d="M 63.4355 242.66 
L 104.1265 242.66 
L 104.1265 241.830045 
L 63.4355 241.830045 
z
" clip-path="url(#p6f50aeac18)" style="fill: #1f77b4"/>
   </g>
   <g id="patch_78">
    <path d="M 144.8175 242.66 
L 185.5085 242.66 
L 185.5085 241.996036 
L 144.8175 241.996036 
z
" clip-path="url(#p6f50aeac18)" style="fill: #1f77b4"/>
   </g>
   <g id="patch_79">
    <path d="M 226.1995 242.66 
L 266.8905 242.66 
L 266.8905 242.261622 
L 226.1995 242.261622 
z
" clip-path="url(#p6f50aeac18)" style="fill: #1f77b4"/>
   </g>
   <g id="patch_80">
    <path d="M 307.5815 242.66 
L 348.2725 242.66 
L 348.2725 242.593604 
L 307.5815 242.593604 
z
" clip-path="url(#p6f50aeac18)" style="fill: #1f77b4"/>
   </g>
   <g id="patch_81">
    <path d="M 388.9635 242.66 
L 429.6545 242.66 
L 429.6545 242.527207 
L 388.9635 242.527207 
z
" clip-path="url(#p6f50aeac18)" style="fill: #1f77b4"/>
   </g>
   <g id="patch_82">
    <path d="M 63.4355 242.66 
L 104.1265 242.66 
L 104.1265 242.460811 
L 63.4355 242.460811 
z
" clip-path="url(#p6f50aeac18)" style="fill: #1f77b4"/>
   </g>
   <g id="patch_83">
    <path d="M 144.8175 242.66 
L 185.5085 242.66 
L 185.5085 242.460811 
L 144.8175 242.460811 
z
" clip-path="url(#p6f50aeac18)" style="fill: #1f77b4"/>
   </g>
   <g id="patch_84">
    <path d="M 226.1995 242.66 
L 266.8905 242.66 
L 266.8905 242.593604 
L 226.1995 242.593604 
z
" clip-path="url(#p6f50aeac18)" style="fill: #1f77b4"/>
   </g>
   <g id="patch_85">
    <path d="M 307.5815 242.66 
L 348.2725 242.66 
L 348.2725 242.66 
L 307.5815 242.66 
z
" clip-path="url(#p6f50aeac18)" style="fill: #1f77b4"/>
   </g>
   <g id="patch_86">
    <path d="M 388.9635 242.66 
L 429.6545 242.66 
L 429.6545 242.66 
L 388.9635 242.66 
z
" clip-path="url(#p6f50aeac18)" style="fill: #1f77b4"/>
   </g>
   <g id="patch_87">
    <path d="M 63.4355 242.66 
L 104.1265 242.66 
L 104.1265 241.265675 
L 63.4355 241.265675 
z
" clip-path="url(#p6f50aeac18)" style="fill: #1f77b4"/>
   </g>
   <g id="patch_88">
    <path d="M 144.8175 242.66 
L 185.5085 242.66 
L 185.5085 242.626802 
L 144.8175 242.626802 
z
" clip-path="url(#p6f50aeac18)" style="fill: #1f77b4"/>
   </g>
   <g id="patch_89">
    <path d="M 226.1995 242.66 
L 266.8905 242.66 
L 266.8905 242.626802 
L 226.1995 242.626802 
z
" clip-path="url(#p6f50aeac18)" style="fill: #1f77b4"/>
   </g>
   <g id="patch_90">
    <path d="M 307.5815 242.66 
L 348.2725 242.66 
L 348.2725 242.626802 
L 307.5815 242.626802 
z
" clip-path="url(#p6f50aeac18)" style="fill: #1f77b4"/>
   </g>
   <g id="patch_91">
    <path d="M 388.9635 242.66 
L 429.6545 242.66 
L 429.6545 242.626802 
L 388.9635 242.626802 
z
" clip-path="url(#p6f50aeac18)" style="fill: #1f77b4"/>
   </g>
   <g id="patch_92">
    <path d="M 63.4355 242.66 
L 104.1265 242.66 
L 104.1265 242.66 
L 63.4355 242.66 
z
" clip-path="url(#p6f50aeac18)" style="fill: #1f77b4"/>
   </g>
   <g id="patch_93">
    <path d="M 63.4355 242.66 
L 104.1265 242.66 
L 104.1265 242.328018 
L 63.4355 242.328018 
z
" clip-path="url(#p6f50aeac18)" style="fill: #1f77b4"/>
   </g>
   <g id="patch_94">
    <path d="M 144.8175 242.66 
L 185.5085 242.66 
L 185.5085 242.328018 
L 144.8175 242.328018 
z
" clip-path="url(#p6f50aeac18)" style="fill: #1f77b4"/>
   </g>
   <g id="patch_95">
    <path d="M 226.1995 242.66 
L 266.8905 242.66 
L 266.8905 242.593604 
L 226.1995 242.593604 
z
" clip-path="url(#p6f50aeac18)" style="fill: #1f77b4"/>
   </g>
   <g id="patch_96">
    <path d="M 63.4355 242.66 
L 104.1265 242.66 
L 104.1265 241.265675 
L 63.4355 241.265675 
z
" clip-path="url(#p6f50aeac18)" style="fill: #1f77b4"/>
   </g>
   <g id="patch_97">
    <path d="M 144.8175 242.66 
L 185.5085 242.66 
L 185.5085 242.593604 
L 144.8175 242.593604 
z
" clip-path="url(#p6f50aeac18)" style="fill: #1f77b4"/>
   </g>
   <g id="patch_98">
    <path d="M 226.1995 242.66 
L 266.8905 242.66 
L 266.8905 242.593604 
L 226.1995 242.593604 
z
" clip-path="url(#p6f50aeac18)" style="fill: #1f77b4"/>
   </g>
   <g id="patch_99">
    <path d="M 307.5815 242.66 
L 348.2725 242.66 
L 348.2725 242.66 
L 307.5815 242.66 
z
" clip-path="url(#p6f50aeac18)" style="fill: #1f77b4"/>
   </g>
   <g id="patch_100">
    <path d="M 388.9635 242.66 
L 429.6545 242.66 
L 429.6545 242.66 
L 388.9635 242.66 
z
" clip-path="url(#p6f50aeac18)" style="fill: #1f77b4"/>
   </g>
   <g id="patch_101">
    <path d="M 63.4355 242.66 
L 104.1265 242.66 
L 104.1265 242.66 
L 63.4355 242.66 
z
" clip-path="url(#p6f50aeac18)" style="fill: #1f77b4"/>
   </g>
   <g id="patch_102">
    <path d="M 63.4355 242.66 
L 104.1265 242.66 
L 104.1265 167.602858 
L 63.4355 167.602858 
z
" clip-path="url(#p6f50aeac18)" style="fill: #1f77b4"/>
   </g>
   <g id="patch_103">
    <path d="M 144.8175 242.66 
L 185.5085 242.66 
L 185.5085 184.117995 
L 144.8175 184.117995 
z
" clip-path="url(#p6f50aeac18)" style="fill: #1f77b4"/>
   </g>
   <g id="patch_104">
    <path d="M 226.1995 242.66 
L 266.8905 242.66 
L 266.8905 195.287251 
L 226.1995 195.287251 
z
" clip-path="url(#p6f50aeac18)" style="fill: #1f77b4"/>
   </g>
   <g id="patch_105">
    <path d="M 307.5815 242.66 
L 348.2725 242.66 
L 348.2725 203.895079 
L 307.5815 203.895079 
z
" clip-path="url(#p6f50aeac18)" style="fill: #1f77b4"/>
   </g>
   <g id="patch_106">
    <path d="M 388.9635 242.66 
L 429.6545 242.66 
L 429.6545 210.035172 
L 388.9635 210.035172 
z
" clip-path="url(#p6f50aeac18)" style="fill: #1f77b4"/>
   </g>
   <g id="patch_107">
    <path d="M 63.4355 242.66 
L 104.1265 242.66 
L 104.1265 242.328018 
L 63.4355 242.328018 
z
" clip-path="url(#p6f50aeac18)" style="fill: #1f77b4"/>
   </g>
   <g id="patch_108">
    <path d="M 144.8175 242.66 
L 185.5085 242.66 
L 185.5085 242.328018 
L 144.8175 242.328018 
z
" clip-path="url(#p6f50aeac18)" style="fill: #1f77b4"/>
   </g>
   <g id="patch_109">
    <path d="M 226.1995 242.66 
L 266.8905 242.66 
L 266.8905 242.328018 
L 226.1995 242.328018 
z
" clip-path="url(#p6f50aeac18)" style="fill: #1f77b4"/>
   </g>
   <g id="patch_110">
    <path d="M 307.5815 242.66 
L 348.2725 242.66 
L 348.2725 242.626802 
L 307.5815 242.626802 
z
" clip-path="url(#p6f50aeac18)" style="fill: #1f77b4"/>
   </g>
   <g id="patch_111">
    <path d="M 388.9635 242.66 
L 429.6545 242.66 
L 429.6545 242.626802 
L 388.9635 242.626802 
z
" clip-path="url(#p6f50aeac18)" style="fill: #1f77b4"/>
   </g>
   <g id="patch_112">
    <path d="M 63.4355 242.66 
L 104.1265 242.66 
L 104.1265 203.456422 
L 63.4355 203.456422 
z
" clip-path="url(#p6f50aeac18)" style="fill: #1f77b4"/>
   </g>
   <g id="patch_113">
    <path d="M 144.8175 242.66 
L 185.5085 242.66 
L 185.5085 203.532847 
L 144.8175 203.532847 
z
" clip-path="url(#p6f50aeac18)" style="fill: #1f77b4"/>
   </g>
   <g id="patch_114">
    <path d="M 226.1995 242.66 
L 266.8905 242.66 
L 266.8905 216.901096 
L 226.1995 216.901096 
z
" clip-path="url(#p6f50aeac18)" style="fill: #1f77b4"/>
   </g>
   <g id="patch_115">
    <path d="M 307.5815 242.66 
L 348.2725 242.66 
L 348.2725 215.742851 
L 307.5815 215.742851 
z
" clip-path="url(#p6f50aeac18)" style="fill: #1f77b4"/>
   </g>
   <g id="patch_116">
    <path d="M 388.9635 242.66 
L 429.6545 242.66 
L 429.6545 203.17549 
L 388.9635 203.17549 
z
" clip-path="url(#p6f50aeac18)" style="fill: #1f77b4"/>
   </g>
   <g id="patch_117">
    <path d="M 63.4355 242.66 
L 104.1265 242.66 
L 104.1265 242.261622 
L 63.4355 242.261622 
z
" clip-path="url(#p6f50aeac18)" style="fill: #1f77b4"/>
   </g>
   <g id="patch_118">
    <path d="M 144.8175 242.66 
L 185.5085 242.66 
L 185.5085 242.328018 
L 144.8175 242.328018 
z
" clip-path="url(#p6f50aeac18)" style="fill: #1f77b4"/>
   </g>
   <g id="patch_119">
    <path d="M 226.1995 242.66 
L 266.8905 242.66 
L 266.8905 242.460811 
L 226.1995 242.460811 
z
" clip-path="url(#p6f50aeac18)" style="fill: #1f77b4"/>
   </g>
   <g id="patch_120">
    <path d="M 307.5815 242.66 
L 348.2725 242.66 
L 348.2725 242.527207 
L 307.5815 242.527207 
z
" clip-path="url(#p6f50aeac18)" style="fill: #1f77b4"/>
   </g>
   <g id="patch_121">
    <path d="M 388.9635 242.66 
L 429.6545 242.66 
L 429.6545 242.626802 
L 388.9635 242.626802 
z
" clip-path="url(#p6f50aeac18)" style="fill: #1f77b4"/>
   </g>
   <g id="patch_122">
    <path d="M 63.4355 242.66 
L 104.1265 242.66 
L 104.1265 242.460811 
L 63.4355 242.460811 
z
" clip-path="url(#p6f50aeac18)" style="fill: #1f77b4"/>
   </g>
   <g id="patch_123">
    <path d="M 144.8175 242.66 
L 185.5085 242.66 
L 185.5085 242.626802 
L 144.8175 242.626802 
z
" clip-path="url(#p6f50aeac18)" style="fill: #1f77b4"/>
   </g>
   <g id="patch_124">
    <path d="M 226.1995 242.66 
L 266.8905 242.66 
L 266.8905 242.626802 
L 226.1995 242.626802 
z
" clip-path="url(#p6f50aeac18)" style="fill: #1f77b4"/>
   </g>
   <g id="patch_125">
    <path d="M 307.5815 242.66 
L 348.2725 242.66 
L 348.2725 242.593604 
L 307.5815 242.593604 
z
" clip-path="url(#p6f50aeac18)" style="fill: #1f77b4"/>
   </g>
   <g id="patch_126">
    <path d="M 388.9635 242.66 
L 429.6545 242.66 
L 429.6545 242.66 
L 388.9635 242.66 
z
" clip-path="url(#p6f50aeac18)" style="fill: #1f77b4"/>
   </g>
   <g id="patch_127">
    <path d="M 63.4355 242.66 
L 104.1265 242.66 
L 104.1265 242.460811 
L 63.4355 242.460811 
z
" clip-path="url(#p6f50aeac18)" style="fill: #1f77b4"/>
   </g>
   <g id="patch_128">
    <path d="M 144.8175 242.66 
L 185.5085 242.66 
L 185.5085 242.593604 
L 144.8175 242.593604 
z
" clip-path="url(#p6f50aeac18)" style="fill: #1f77b4"/>
   </g>
   <g id="patch_129">
    <path d="M 226.1995 242.66 
L 266.8905 242.66 
L 266.8905 242.66 
L 226.1995 242.66 
z
" clip-path="url(#p6f50aeac18)" style="fill: #1f77b4"/>
   </g>
   <g id="patch_130">
    <path d="M 307.5815 242.66 
L 348.2725 242.66 
L 348.2725 242.66 
L 307.5815 242.66 
z
" clip-path="url(#p6f50aeac18)" style="fill: #1f77b4"/>
   </g>
   <g id="patch_131">
    <path d="M 388.9635 242.66 
L 429.6545 242.66 
L 429.6545 242.66 
L 388.9635 242.66 
z
" clip-path="url(#p6f50aeac18)" style="fill: #1f77b4"/>
   </g>
   <g id="patch_132">
    <path d="M 63.4355 242.66 
L 104.1265 242.66 
L 104.1265 240.908241 
L 63.4355 240.908241 
z
" clip-path="url(#p6f50aeac18)" style="fill: #1f77b4"/>
   </g>
   <g id="patch_133">
    <path d="M 144.8175 242.66 
L 185.5085 242.66 
L 185.5085 242.261622 
L 144.8175 242.261622 
z
" clip-path="url(#p6f50aeac18)" style="fill: #1f77b4"/>
   </g>
   <g id="patch_134">
    <path d="M 226.1995 242.66 
L 266.8905 242.66 
L 266.8905 241.714958 
L 226.1995 241.714958 
z
" clip-path="url(#p6f50aeac18)" style="fill: #1f77b4"/>
   </g>
   <g id="patch_135">
    <path d="M 307.5815 242.66 
L 348.2725 242.66 
L 348.2725 241.714958 
L 307.5815 241.714958 
z
" clip-path="url(#p6f50aeac18)" style="fill: #1f77b4"/>
   </g>
   <g id="patch_136">
    <path d="M 388.9635 242.66 
L 429.6545 242.66 
L 429.6545 241.714958 
L 388.9635 241.714958 
z
" clip-path="url(#p6f50aeac18)" style="fill: #1f77b4"/>
   </g>
   <g id="patch_137">
    <path d="M 63.4355 242.66 
L 104.1265 242.66 
L 104.1265 229.114764 
L 63.4355 229.114764 
z
" clip-path="url(#p6f50aeac18)" style="fill: #1f77b4"/>
   </g>
   <g id="patch_138">
    <path d="M 144.8175 242.66 
L 185.5085 242.66 
L 185.5085 231.659222 
L 144.8175 231.659222 
z
" clip-path="url(#p6f50aeac18)" style="fill: #1f77b4"/>
   </g>
   <g id="patch_139">
    <path d="M 226.1995 242.66 
L 266.8905 242.66 
L 266.8905 240.789835 
L 226.1995 240.789835 
z
" clip-path="url(#p6f50aeac18)" style="fill: #1f77b4"/>
   </g>
   <g id="patch_140">
    <path d="M 307.5815 242.66 
L 348.2725 242.66 
L 348.2725 242.411013 
L 307.5815 242.411013 
z
" clip-path="url(#p6f50aeac18)" style="fill: #1f77b4"/>
   </g>
   <g id="patch_141">
    <path d="M 388.9635 242.66 
L 429.6545 242.66 
L 429.6545 242.411013 
L 388.9635 242.411013 
z
" clip-path="url(#p6f50aeac18)" style="fill: #1f77b4"/>
   </g>
   <g id="patch_142">
    <path d="M 63.4355 242.66 
L 104.1265 242.66 
L 104.1265 241.18268 
L 63.4355 241.18268 
z
" clip-path="url(#p6f50aeac18)" style="fill: #1f77b4"/>
   </g>
   <g id="patch_143">
    <path d="M 144.8175 242.66 
L 185.5085 242.66 
L 185.5085 241.697252 
L 144.8175 241.697252 
z
" clip-path="url(#p6f50aeac18)" style="fill: #1f77b4"/>
   </g>
   <g id="patch_144">
    <path d="M 226.1995 242.66 
L 266.8905 242.66 
L 266.8905 242.460811 
L 226.1995 242.460811 
z
" clip-path="url(#p6f50aeac18)" style="fill: #1f77b4"/>
   </g>
   <g id="patch_145">
    <path d="M 307.5815 242.66 
L 348.2725 242.66 
L 348.2725 242.513928 
L 307.5815 242.513928 
z
" clip-path="url(#p6f50aeac18)" style="fill: #1f77b4"/>
   </g>
   <g id="patch_146">
    <path d="M 388.9635 242.66 
L 429.6545 242.66 
L 429.6545 242.328018 
L 388.9635 242.328018 
z
" clip-path="url(#p6f50aeac18)" style="fill: #1f77b4"/>
   </g>
   <g id="patch_147">
    <path d="M 63.4355 242.66 
L 104.1265 242.66 
L 104.1265 242.51983 
L 63.4355 242.51983 
z
" clip-path="url(#p6f50aeac18)" style="fill: #1f77b4"/>
   </g>
   <g id="patch_148">
    <path d="M 144.8175 242.66 
L 185.5085 242.66 
L 185.5085 242.626802 
L 144.8175 242.626802 
z
" clip-path="url(#p6f50aeac18)" style="fill: #1f77b4"/>
   </g>
   <g id="patch_149">
    <path d="M 226.1995 242.66 
L 266.8905 242.66 
L 266.8905 242.626802 
L 226.1995 242.626802 
z
" clip-path="url(#p6f50aeac18)" style="fill: #1f77b4"/>
   </g>
   <g id="patch_150">
    <path d="M 307.5815 242.66 
L 348.2725 242.66 
L 348.2725 242.652623 
L 307.5815 242.652623 
z
" clip-path="url(#p6f50aeac18)" style="fill: #1f77b4"/>
   </g>
   <g id="patch_151">
    <path d="M 388.9635 242.66 
L 429.6545 242.66 
L 429.6545 242.652623 
L 388.9635 242.652623 
z
" clip-path="url(#p6f50aeac18)" style="fill: #1f77b4"/>
   </g>
   <g id="patch_152">
    <path d="M 63.4355 242.66 
L 104.1265 242.66 
L 104.1265 242.372282 
L 63.4355 242.372282 
z
" clip-path="url(#p6f50aeac18)" style="fill: #1f77b4"/>
   </g>
   <g id="patch_153">
    <path d="M 144.8175 242.66 
L 185.5085 242.66 
L 185.5085 242.505075 
L 144.8175 242.505075 
z
" clip-path="url(#p6f50aeac18)" style="fill: #1f77b4"/>
   </g>
   <g id="patch_154">
    <path d="M 226.1995 242.66 
L 266.8905 242.66 
L 266.8905 242.460811 
L 226.1995 242.460811 
z
" clip-path="url(#p6f50aeac18)" style="fill: #1f77b4"/>
   </g>
   <g id="patch_155">
    <path d="M 307.5815 242.66 
L 348.2725 242.66 
L 348.2725 242.394414 
L 307.5815 242.394414 
z
" clip-path="url(#p6f50aeac18)" style="fill: #1f77b4"/>
   </g>
   <g id="patch_156">
    <path d="M 388.9635 242.66 
L 429.6545 242.66 
L 429.6545 242.593604 
L 388.9635 242.593604 
z
" clip-path="url(#p6f50aeac18)" style="fill: #1f77b4"/>
   </g>
   <g id="patch_157">
    <path d="M 63.4355 242.66 
L 104.1265 242.66 
L 104.1265 242.66 
L 63.4355 242.66 
z
" clip-path="url(#p6f50aeac18)" style="fill: #1f77b4"/>
   </g>
   <g id="patch_158">
    <path d="M 144.8175 242.66 
L 185.5085 242.66 
L 185.5085 242.66 
L 144.8175 242.66 
z
" clip-path="url(#p6f50aeac18)" style="fill: #1f77b4"/>
   </g>
   <g id="patch_159">
    <path d="M 226.1995 242.66 
L 266.8905 242.66 
L 266.8905 242.66 
L 226.1995 242.66 
z
" clip-path="url(#p6f50aeac18)" style="fill: #1f77b4"/>
   </g>
   <g id="patch_160">
    <path d="M 307.5815 242.66 
L 348.2725 242.66 
L 348.2725 242.66 
L 307.5815 242.66 
z
" clip-path="url(#p6f50aeac18)" style="fill: #1f77b4"/>
   </g>
   <g id="patch_161">
    <path d="M 63.4355 242.66 
L 104.1265 242.66 
L 104.1265 242.66 
L 63.4355 242.66 
z
" clip-path="url(#p6f50aeac18)" style="fill: #1f77b4"/>
   </g>
   <g id="patch_162">
    <path d="M 144.8175 242.66 
L 185.5085 242.66 
L 185.5085 242.66 
L 144.8175 242.66 
z
" clip-path="url(#p6f50aeac18)" style="fill: #1f77b4"/>
   </g>
   <g id="patch_163">
    <path d="M 226.1995 242.66 
L 266.8905 242.66 
L 266.8905 242.66 
L 226.1995 242.66 
z
" clip-path="url(#p6f50aeac18)" style="fill: #1f77b4"/>
   </g>
   <g id="patch_164">
    <path d="M 63.4355 242.66 
L 104.1265 242.66 
L 104.1265 242.66 
L 63.4355 242.66 
z
" clip-path="url(#p6f50aeac18)" style="fill: #1f77b4"/>
   </g>
   <g id="patch_165">
    <path d="M 144.8175 242.66 
L 185.5085 242.66 
L 185.5085 242.66 
L 144.8175 242.66 
z
" clip-path="url(#p6f50aeac18)" style="fill: #1f77b4"/>
   </g>
   <g id="patch_166">
    <path d="M 226.1995 242.66 
L 266.8905 242.66 
L 266.8905 242.66 
L 226.1995 242.66 
z
" clip-path="url(#p6f50aeac18)" style="fill: #1f77b4"/>
   </g>
   <g id="patch_167">
    <path d="M 307.5815 242.66 
L 348.2725 242.66 
L 348.2725 242.66 
L 307.5815 242.66 
z
" clip-path="url(#p6f50aeac18)" style="fill: #1f77b4"/>
   </g>
   <g id="patch_168">
    <path d="M 63.4355 242.66 
L 104.1265 242.66 
L 104.1265 242.66 
L 63.4355 242.66 
z
" clip-path="url(#p6f50aeac18)" style="fill: #1f77b4"/>
   </g>
   <g id="patch_169">
    <path d="M 144.8175 242.66 
L 185.5085 242.66 
L 185.5085 242.66 
L 144.8175 242.66 
z
" clip-path="url(#p6f50aeac18)" style="fill: #1f77b4"/>
   </g>
   <g id="patch_170">
    <path d="M 63.4355 242.66 
L 104.1265 242.66 
L 104.1265 21.840952 
L 63.4355 21.840952 
z
" clip-path="url(#p6f50aeac18)" style="fill: #1f77b4"/>
   </g>
   <g id="patch_171">
    <path d="M 144.8175 242.66 
L 185.5085 242.66 
L 185.5085 101.980345 
L 144.8175 101.980345 
z
" clip-path="url(#p6f50aeac18)" style="fill: #1f77b4"/>
   </g>
   <g id="patch_172">
    <path d="M 226.1995 242.66 
L 266.8905 242.66 
L 266.8905 138.031532 
L 226.1995 138.031532 
z
" clip-path="url(#p6f50aeac18)" style="fill: #1f77b4"/>
   </g>
   <g id="patch_173">
    <path d="M 307.5815 242.66 
L 348.2725 242.66 
L 348.2725 129.493704 
L 307.5815 129.493704 
z
" clip-path="url(#p6f50aeac18)" style="fill: #1f77b4"/>
   </g>
   <g id="patch_174">
    <path d="M 388.9635 242.66 
L 429.6545 242.66 
L 429.6545 151.941242 
L 388.9635 151.941242 
z
" clip-path="url(#p6f50aeac18)" style="fill: #1f77b4"/>
   </g>
   <g id="patch_175">
    <path d="M 63.4355 242.66 
L 104.1265 242.66 
L 104.1265 242.311419 
L 63.4355 242.311419 
z
" clip-path="url(#p6f50aeac18)" style="fill: #1f77b4"/>
   </g>
   <g id="patch_176">
    <path d="M 144.8175 242.66 
L 185.5085 242.66 
L 185.5085 242.593604 
L 144.8175 242.593604 
z
" clip-path="url(#p6f50aeac18)" style="fill: #1f77b4"/>
   </g>
   <g id="patch_177">
    <path d="M 226.1995 242.66 
L 266.8905 242.66 
L 266.8905 242.593604 
L 226.1995 242.593604 
z
" clip-path="url(#p6f50aeac18)" style="fill: #1f77b4"/>
   </g>
   <g id="patch_178">
    <path d="M 307.5815 242.66 
L 348.2725 242.66 
L 348.2725 242.593604 
L 307.5815 242.593604 
z
" clip-path="url(#p6f50aeac18)" style="fill: #1f77b4"/>
   </g>
   <g id="patch_179">
    <path d="M 388.9635 242.66 
L 429.6545 242.66 
L 429.6545 242.560405 
L 388.9635 242.560405 
z
" clip-path="url(#p6f50aeac18)" style="fill: #1f77b4"/>
   </g>
   <g id="patch_180">
    <path d="M 63.4355 242.66 
L 104.1265 242.66 
L 104.1265 43.162678 
L 63.4355 43.162678 
z
" clip-path="url(#p6f50aeac18)" style="fill: #1f77b4"/>
   </g>
   <g id="patch_181">
    <path d="M 144.8175 242.66 
L 185.5085 242.66 
L 185.5085 139.895814 
L 144.8175 139.895814 
z
" clip-path="url(#p6f50aeac18)" style="fill: #1f77b4"/>
   </g>
   <g id="patch_182">
    <path d="M 226.1995 242.66 
L 266.8905 242.66 
L 266.8905 169.674798 
L 226.1995 169.674798 
z
" clip-path="url(#p6f50aeac18)" style="fill: #1f77b4"/>
   </g>
   <g id="patch_183">
    <path d="M 307.5815 242.66 
L 348.2725 242.66 
L 348.2725 158.940592 
L 307.5815 158.940592 
z
" clip-path="url(#p6f50aeac18)" style="fill: #1f77b4"/>
   </g>
   <g id="patch_184">
    <path d="M 388.9635 242.66 
L 429.6545 242.66 
L 429.6545 185.792084 
L 388.9635 185.792084 
z
" clip-path="url(#p6f50aeac18)" style="fill: #1f77b4"/>
   </g>
   <g id="patch_185">
    <path d="M 63.4355 242.66 
L 104.1265 242.66 
L 104.1265 238.864339 
L 63.4355 238.864339 
z
" clip-path="url(#p6f50aeac18)" style="fill: #1f77b4"/>
   </g>
   <g id="patch_186">
    <path d="M 144.8175 242.66 
L 185.5085 242.66 
L 185.5085 239.506171 
L 144.8175 239.506171 
z
" clip-path="url(#p6f50aeac18)" style="fill: #1f77b4"/>
   </g>
   <g id="patch_187">
    <path d="M 226.1995 242.66 
L 266.8905 242.66 
L 266.8905 242.217357 
L 226.1995 242.217357 
z
" clip-path="url(#p6f50aeac18)" style="fill: #1f77b4"/>
   </g>
   <g id="patch_188">
    <path d="M 307.5815 242.66 
L 348.2725 242.66 
L 348.2725 242.217357 
L 307.5815 242.217357 
z
" clip-path="url(#p6f50aeac18)" style="fill: #1f77b4"/>
   </g>
   <g id="patch_189">
    <path d="M 388.9635 242.66 
L 429.6545 242.66 
L 429.6545 242.354577 
L 388.9635 242.354577 
z
" clip-path="url(#p6f50aeac18)" style="fill: #1f77b4"/>
   </g>
   <g id="patch_190">
    <path d="M 63.4355 242.66 
L 104.1265 242.66 
L 104.1265 211.348561 
L 63.4355 211.348561 
z
" clip-path="url(#p6f50aeac18)" style="fill: #1f77b4"/>
   </g>
   <g id="patch_191">
    <path d="M 144.8175 242.66 
L 185.5085 242.66 
L 185.5085 232.169368 
L 144.8175 232.169368 
z
" clip-path="url(#p6f50aeac18)" style="fill: #1f77b4"/>
   </g>
   <g id="patch_192">
    <path d="M 226.1995 242.66 
L 266.8905 242.66 
L 266.8905 237.414684 
L 226.1995 237.414684 
z
" clip-path="url(#p6f50aeac18)" style="fill: #1f77b4"/>
   </g>
   <g id="patch_193">
    <path d="M 307.5815 242.66 
L 348.2725 242.66 
L 348.2725 237.414684 
L 307.5815 237.414684 
z
" clip-path="url(#p6f50aeac18)" style="fill: #1f77b4"/>
   </g>
   <g id="patch_194">
    <path d="M 388.9635 242.66 
L 429.6545 242.66 
L 429.6545 235.761413 
L 388.9635 235.761413 
z
" clip-path="url(#p6f50aeac18)" style="fill: #1f77b4"/>
   </g>
   <g id="patch_195">
    <path d="M 63.4355 242.66 
L 104.1265 242.66 
L 104.1265 242.494009 
L 63.4355 242.494009 
z
" clip-path="url(#p6f50aeac18)" style="fill: #1f77b4"/>
   </g>
   <g id="patch_196">
    <path d="M 144.8175 242.66 
L 185.5085 242.66 
L 185.5085 242.494009 
L 144.8175 242.494009 
z
" clip-path="url(#p6f50aeac18)" style="fill: #1f77b4"/>
   </g>
   <g id="patch_197">
    <path d="M 226.1995 242.66 
L 266.8905 242.66 
L 266.8905 242.494009 
L 226.1995 242.494009 
z
" clip-path="url(#p6f50aeac18)" style="fill: #1f77b4"/>
   </g>
   <g id="patch_198">
    <path d="M 307.5815 242.66 
L 348.2725 242.66 
L 348.2725 242.494009 
L 307.5815 242.494009 
z
" clip-path="url(#p6f50aeac18)" style="fill: #1f77b4"/>
   </g>
   <g id="patch_199">
    <path d="M 388.9635 242.66 
L 429.6545 242.66 
L 429.6545 242.494009 
L 388.9635 242.494009 
z
" clip-path="url(#p6f50aeac18)" style="fill: #1f77b4"/>
   </g>
   <g id="matplotlib.axis_1">
    <g id="xtick_1">
     <g id="line2d_1">
      <defs>
       <path id="m9a3708d6a6" d="M 0 0 
L 0 3.5 
" style="stroke: #000000; stroke-width: 0.8"/>
      </defs>
      <g>
       <use xlink:href="#m9a3708d6a6" x="83.781" y="242.66" style="stroke: #000000; stroke-width: 0.8"/>
      </g>
     </g>
     <g id="text_1">
      <!-- Nick Nolte -->
      <g transform="translate(86.540375 300.838125) rotate(-90) scale(0.1 -0.1)">
       <defs>
        <path id="DejaVuSans-4e" d="M 628 4666 
L 1478 4666 
L 3547 763 
L 3547 4666 
L 4159 4666 
L 4159 0 
L 3309 0 
L 1241 3903 
L 1241 0 
L 628 0 
L 628 4666 
z
" transform="scale(0.015625)"/>
        <path id="DejaVuSans-69" d="M 603 3500 
L 1178 3500 
L 1178 0 
L 603 0 
L 603 3500 
z
M 603 4863 
L 1178 4863 
L 1178 4134 
L 603 4134 
L 603 4863 
z
" transform="scale(0.015625)"/>
        <path id="DejaVuSans-63" d="M 3122 3366 
L 3122 2828 
Q 2878 2963 2633 3030 
Q 2388 3097 2138 3097 
Q 1578 3097 1268 2742 
Q 959 2388 959 1747 
Q 959 1106 1268 751 
Q 1578 397 2138 397 
Q 2388 397 2633 464 
Q 2878 531 3122 666 
L 3122 134 
Q 2881 22 2623 -34 
Q 2366 -91 2075 -91 
Q 1284 -91 818 406 
Q 353 903 353 1747 
Q 353 2603 823 3093 
Q 1294 3584 2113 3584 
Q 2378 3584 2631 3529 
Q 2884 3475 3122 3366 
z
" transform="scale(0.015625)"/>
        <path id="DejaVuSans-6b" d="M 581 4863 
L 1159 4863 
L 1159 1991 
L 2875 3500 
L 3609 3500 
L 1753 1863 
L 3688 0 
L 2938 0 
L 1159 1709 
L 1159 0 
L 581 0 
L 581 4863 
z
" transform="scale(0.015625)"/>
        <path id="DejaVuSans-20" transform="scale(0.015625)"/>
        <path id="DejaVuSans-6f" d="M 1959 3097 
Q 1497 3097 1228 2736 
Q 959 2375 959 1747 
Q 959 1119 1226 758 
Q 1494 397 1959 397 
Q 2419 397 2687 759 
Q 2956 1122 2956 1747 
Q 2956 2369 2687 2733 
Q 2419 3097 1959 3097 
z
M 1959 3584 
Q 2709 3584 3137 3096 
Q 3566 2609 3566 1747 
Q 3566 888 3137 398 
Q 2709 -91 1959 -91 
Q 1206 -91 779 398 
Q 353 888 353 1747 
Q 353 2609 779 3096 
Q 1206 3584 1959 3584 
z
" transform="scale(0.015625)"/>
        <path id="DejaVuSans-6c" d="M 603 4863 
L 1178 4863 
L 1178 0 
L 603 0 
L 603 4863 
z
" transform="scale(0.015625)"/>
        <path id="DejaVuSans-74" d="M 1172 4494 
L 1172 3500 
L 2356 3500 
L 2356 3053 
L 1172 3053 
L 1172 1153 
Q 1172 725 1289 603 
Q 1406 481 1766 481 
L 2356 481 
L 2356 0 
L 1766 0 
Q 1100 0 847 248 
Q 594 497 594 1153 
L 594 3053 
L 172 3053 
L 172 3500 
L 594 3500 
L 594 4494 
L 1172 4494 
z
" transform="scale(0.015625)"/>
        <path id="DejaVuSans-65" d="M 3597 1894 
L 3597 1613 
L 953 1613 
Q 991 1019 1311 708 
Q 1631 397 2203 397 
Q 2534 397 2845 478 
Q 3156 559 3463 722 
L 3463 178 
Q 3153 47 2828 -22 
Q 2503 -91 2169 -91 
Q 1331 -91 842 396 
Q 353 884 353 1716 
Q 353 2575 817 3079 
Q 1281 3584 2069 3584 
Q 2775 3584 3186 3129 
Q 3597 2675 3597 1894 
z
M 3022 2063 
Q 3016 2534 2758 2815 
Q 2500 3097 2075 3097 
Q 1594 3097 1305 2825 
Q 1016 2553 972 2059 
L 3022 2063 
z
" transform="scale(0.015625)"/>
       </defs>
       <use xlink:href="#DejaVuSans-4e"/>
       <use xlink:href="#DejaVuSans-69" x="74.804688"/>
       <use xlink:href="#DejaVuSans-63" x="102.587891"/>
       <use xlink:href="#DejaVuSans-6b" x="157.568359"/>
       <use xlink:href="#DejaVuSans-20" x="215.478516"/>
       <use xlink:href="#DejaVuSans-4e" x="247.265625"/>
       <use xlink:href="#DejaVuSans-6f" x="322.070312"/>
       <use xlink:href="#DejaVuSans-6c" x="383.251953"/>
       <use xlink:href="#DejaVuSans-74" x="411.035156"/>
       <use xlink:href="#DejaVuSans-65" x="450.244141"/>
      </g>
     </g>
    </g>
    <g id="xtick_2">
     <g id="line2d_2">
      <g>
       <use xlink:href="#m9a3708d6a6" x="165.163" y="242.66" style="stroke: #000000; stroke-width: 0.8"/>
      </g>
     </g>
     <g id="text_2">
      <!-- Sean Penn -->
      <g transform="translate(167.922375 302.300625) rotate(-90) scale(0.1 -0.1)">
       <defs>
        <path id="DejaVuSans-53" d="M 3425 4513 
L 3425 3897 
Q 3066 4069 2747 4153 
Q 2428 4238 2131 4238 
Q 1616 4238 1336 4038 
Q 1056 3838 1056 3469 
Q 1056 3159 1242 3001 
Q 1428 2844 1947 2747 
L 2328 2669 
Q 3034 2534 3370 2195 
Q 3706 1856 3706 1288 
Q 3706 609 3251 259 
Q 2797 -91 1919 -91 
Q 1588 -91 1214 -16 
Q 841 59 441 206 
L 441 856 
Q 825 641 1194 531 
Q 1563 422 1919 422 
Q 2459 422 2753 634 
Q 3047 847 3047 1241 
Q 3047 1584 2836 1778 
Q 2625 1972 2144 2069 
L 1759 2144 
Q 1053 2284 737 2584 
Q 422 2884 422 3419 
Q 422 4038 858 4394 
Q 1294 4750 2059 4750 
Q 2388 4750 2728 4690 
Q 3069 4631 3425 4513 
z
" transform="scale(0.015625)"/>
        <path id="DejaVuSans-61" d="M 2194 1759 
Q 1497 1759 1228 1600 
Q 959 1441 959 1056 
Q 959 750 1161 570 
Q 1363 391 1709 391 
Q 2188 391 2477 730 
Q 2766 1069 2766 1631 
L 2766 1759 
L 2194 1759 
z
M 3341 1997 
L 3341 0 
L 2766 0 
L 2766 531 
Q 2569 213 2275 61 
Q 1981 -91 1556 -91 
Q 1019 -91 701 211 
Q 384 513 384 1019 
Q 384 1609 779 1909 
Q 1175 2209 1959 2209 
L 2766 2209 
L 2766 2266 
Q 2766 2663 2505 2880 
Q 2244 3097 1772 3097 
Q 1472 3097 1187 3025 
Q 903 2953 641 2809 
L 641 3341 
Q 956 3463 1253 3523 
Q 1550 3584 1831 3584 
Q 2591 3584 2966 3190 
Q 3341 2797 3341 1997 
z
" transform="scale(0.015625)"/>
        <path id="DejaVuSans-6e" d="M 3513 2113 
L 3513 0 
L 2938 0 
L 2938 2094 
Q 2938 2591 2744 2837 
Q 2550 3084 2163 3084 
Q 1697 3084 1428 2787 
Q 1159 2491 1159 1978 
L 1159 0 
L 581 0 
L 581 3500 
L 1159 3500 
L 1159 2956 
Q 1366 3272 1645 3428 
Q 1925 3584 2291 3584 
Q 2894 3584 3203 3211 
Q 3513 2838 3513 2113 
z
" transform="scale(0.015625)"/>
        <path id="DejaVuSans-50" d="M 1259 4147 
L 1259 2394 
L 2053 2394 
Q 2494 2394 2734 2622 
Q 2975 2850 2975 3272 
Q 2975 3691 2734 3919 
Q 2494 4147 2053 4147 
L 1259 4147 
z
M 628 4666 
L 2053 4666 
Q 2838 4666 3239 4311 
Q 3641 3956 3641 3272 
Q 3641 2581 3239 2228 
Q 2838 1875 2053 1875 
L 1259 1875 
L 1259 0 
L 628 0 
L 628 4666 
z
" transform="scale(0.015625)"/>
       </defs>
       <use xlink:href="#DejaVuSans-53"/>
       <use xlink:href="#DejaVuSans-65" x="63.476562"/>
       <use xlink:href="#DejaVuSans-61" x="125"/>
       <use xlink:href="#DejaVuSans-6e" x="186.279297"/>
       <use xlink:href="#DejaVuSans-20" x="249.658203"/>
       <use xlink:href="#DejaVuSans-50" x="281.445312"/>
       <use xlink:href="#DejaVuSans-65" x="338.123047"/>
       <use xlink:href="#DejaVuSans-6e" x="399.646484"/>
       <use xlink:href="#DejaVuSans-6e" x="463.025391"/>
      </g>
     </g>
    </g>
    <g id="xtick_3">
     <g id="line2d_3">
      <g>
       <use xlink:href="#m9a3708d6a6" x="246.545" y="242.66" style="stroke: #000000; stroke-width: 0.8"/>
      </g>
     </g>
     <g id="text_3">
      <!-- John Cusack -->
      <g transform="translate(249.304375 310.52875) rotate(-90) scale(0.1 -0.1)">
       <defs>
        <path id="DejaVuSans-4a" d="M 628 4666 
L 1259 4666 
L 1259 325 
Q 1259 -519 939 -900 
Q 619 -1281 -91 -1281 
L -331 -1281 
L -331 -750 
L -134 -750 
Q 284 -750 456 -515 
Q 628 -281 628 325 
L 628 4666 
z
" transform="scale(0.015625)"/>
        <path id="DejaVuSans-68" d="M 3513 2113 
L 3513 0 
L 2938 0 
L 2938 2094 
Q 2938 2591 2744 2837 
Q 2550 3084 2163 3084 
Q 1697 3084 1428 2787 
Q 1159 2491 1159 1978 
L 1159 0 
L 581 0 
L 581 4863 
L 1159 4863 
L 1159 2956 
Q 1366 3272 1645 3428 
Q 1925 3584 2291 3584 
Q 2894 3584 3203 3211 
Q 3513 2838 3513 2113 
z
" transform="scale(0.015625)"/>
        <path id="DejaVuSans-43" d="M 4122 4306 
L 4122 3641 
Q 3803 3938 3442 4084 
Q 3081 4231 2675 4231 
Q 1875 4231 1450 3742 
Q 1025 3253 1025 2328 
Q 1025 1406 1450 917 
Q 1875 428 2675 428 
Q 3081 428 3442 575 
Q 3803 722 4122 1019 
L 4122 359 
Q 3791 134 3420 21 
Q 3050 -91 2638 -91 
Q 1578 -91 968 557 
Q 359 1206 359 2328 
Q 359 3453 968 4101 
Q 1578 4750 2638 4750 
Q 3056 4750 3426 4639 
Q 3797 4528 4122 4306 
z
" transform="scale(0.015625)"/>
        <path id="DejaVuSans-75" d="M 544 1381 
L 544 3500 
L 1119 3500 
L 1119 1403 
Q 1119 906 1312 657 
Q 1506 409 1894 409 
Q 2359 409 2629 706 
Q 2900 1003 2900 1516 
L 2900 3500 
L 3475 3500 
L 3475 0 
L 2900 0 
L 2900 538 
Q 2691 219 2414 64 
Q 2138 -91 1772 -91 
Q 1169 -91 856 284 
Q 544 659 544 1381 
z
M 1991 3584 
L 1991 3584 
z
" transform="scale(0.015625)"/>
        <path id="DejaVuSans-73" d="M 2834 3397 
L 2834 2853 
Q 2591 2978 2328 3040 
Q 2066 3103 1784 3103 
Q 1356 3103 1142 2972 
Q 928 2841 928 2578 
Q 928 2378 1081 2264 
Q 1234 2150 1697 2047 
L 1894 2003 
Q 2506 1872 2764 1633 
Q 3022 1394 3022 966 
Q 3022 478 2636 193 
Q 2250 -91 1575 -91 
Q 1294 -91 989 -36 
Q 684 19 347 128 
L 347 722 
Q 666 556 975 473 
Q 1284 391 1588 391 
Q 1994 391 2212 530 
Q 2431 669 2431 922 
Q 2431 1156 2273 1281 
Q 2116 1406 1581 1522 
L 1381 1569 
Q 847 1681 609 1914 
Q 372 2147 372 2553 
Q 372 3047 722 3315 
Q 1072 3584 1716 3584 
Q 2034 3584 2315 3537 
Q 2597 3491 2834 3397 
z
" transform="scale(0.015625)"/>
       </defs>
       <use xlink:href="#DejaVuSans-4a"/>
       <use xlink:href="#DejaVuSans-6f" x="29.492188"/>
       <use xlink:href="#DejaVuSans-68" x="90.673828"/>
       <use xlink:href="#DejaVuSans-6e" x="154.052734"/>
       <use xlink:href="#DejaVuSans-20" x="217.431641"/>
       <use xlink:href="#DejaVuSans-43" x="249.21875"/>
       <use xlink:href="#DejaVuSans-75" x="319.042969"/>
       <use xlink:href="#DejaVuSans-73" x="382.421875"/>
       <use xlink:href="#DejaVuSans-61" x="434.521484"/>
       <use xlink:href="#DejaVuSans-63" x="495.800781"/>
       <use xlink:href="#DejaVuSans-6b" x="550.78125"/>
      </g>
     </g>
    </g>
    <g id="xtick_4">
     <g id="line2d_4">
      <g>
       <use xlink:href="#m9a3708d6a6" x="327.927" y="242.66" style="stroke: #000000; stroke-width: 0.8"/>
      </g>
     </g>
     <g id="text_4">
      <!-- Woody Harrelson -->
      <g transform="translate(330.686375 334.71) rotate(-90) scale(0.1 -0.1)">
       <defs>
        <path id="DejaVuSans-57" d="M 213 4666 
L 850 4666 
L 1831 722 
L 2809 4666 
L 3519 4666 
L 4500 722 
L 5478 4666 
L 6119 4666 
L 4947 0 
L 4153 0 
L 3169 4050 
L 2175 0 
L 1381 0 
L 213 4666 
z
" transform="scale(0.015625)"/>
        <path id="DejaVuSans-64" d="M 2906 2969 
L 2906 4863 
L 3481 4863 
L 3481 0 
L 2906 0 
L 2906 525 
Q 2725 213 2448 61 
Q 2172 -91 1784 -91 
Q 1150 -91 751 415 
Q 353 922 353 1747 
Q 353 2572 751 3078 
Q 1150 3584 1784 3584 
Q 2172 3584 2448 3432 
Q 2725 3281 2906 2969 
z
M 947 1747 
Q 947 1113 1208 752 
Q 1469 391 1925 391 
Q 2381 391 2643 752 
Q 2906 1113 2906 1747 
Q 2906 2381 2643 2742 
Q 2381 3103 1925 3103 
Q 1469 3103 1208 2742 
Q 947 2381 947 1747 
z
" transform="scale(0.015625)"/>
        <path id="DejaVuSans-79" d="M 2059 -325 
Q 1816 -950 1584 -1140 
Q 1353 -1331 966 -1331 
L 506 -1331 
L 506 -850 
L 844 -850 
Q 1081 -850 1212 -737 
Q 1344 -625 1503 -206 
L 1606 56 
L 191 3500 
L 800 3500 
L 1894 763 
L 2988 3500 
L 3597 3500 
L 2059 -325 
z
" transform="scale(0.015625)"/>
        <path id="DejaVuSans-48" d="M 628 4666 
L 1259 4666 
L 1259 2753 
L 3553 2753 
L 3553 4666 
L 4184 4666 
L 4184 0 
L 3553 0 
L 3553 2222 
L 1259 2222 
L 1259 0 
L 628 0 
L 628 4666 
z
" transform="scale(0.015625)"/>
        <path id="DejaVuSans-72" d="M 2631 2963 
Q 2534 3019 2420 3045 
Q 2306 3072 2169 3072 
Q 1681 3072 1420 2755 
Q 1159 2438 1159 1844 
L 1159 0 
L 581 0 
L 581 3500 
L 1159 3500 
L 1159 2956 
Q 1341 3275 1631 3429 
Q 1922 3584 2338 3584 
Q 2397 3584 2469 3576 
Q 2541 3569 2628 3553 
L 2631 2963 
z
" transform="scale(0.015625)"/>
       </defs>
       <use xlink:href="#DejaVuSans-57"/>
       <use xlink:href="#DejaVuSans-6f" x="93.001953"/>
       <use xlink:href="#DejaVuSans-6f" x="154.183594"/>
       <use xlink:href="#DejaVuSans-64" x="215.365234"/>
       <use xlink:href="#DejaVuSans-79" x="278.841797"/>
       <use xlink:href="#DejaVuSans-20" x="338.021484"/>
       <use xlink:href="#DejaVuSans-48" x="369.808594"/>
       <use xlink:href="#DejaVuSans-61" x="445.003906"/>
       <use xlink:href="#DejaVuSans-72" x="506.283203"/>
       <use xlink:href="#DejaVuSans-72" x="545.646484"/>
       <use xlink:href="#DejaVuSans-65" x="584.509766"/>
       <use xlink:href="#DejaVuSans-6c" x="646.033203"/>
       <use xlink:href="#DejaVuSans-73" x="673.816406"/>
       <use xlink:href="#DejaVuSans-6f" x="725.916016"/>
       <use xlink:href="#DejaVuSans-6e" x="787.097656"/>
      </g>
     </g>
    </g>
    <g id="xtick_5">
     <g id="line2d_5">
      <g>
       <use xlink:href="#m9a3708d6a6" x="409.309" y="242.66" style="stroke: #000000; stroke-width: 0.8"/>
      </g>
     </g>
     <g id="text_5">
      <!-- John Travolta -->
      <g transform="translate(412.068375 314.317812) rotate(-90) scale(0.1 -0.1)">
       <defs>
        <path id="DejaVuSans-54" d="M -19 4666 
L 3928 4666 
L 3928 4134 
L 2272 4134 
L 2272 0 
L 1638 0 
L 1638 4134 
L -19 4134 
L -19 4666 
z
" transform="scale(0.015625)"/>
        <path id="DejaVuSans-76" d="M 191 3500 
L 800 3500 
L 1894 563 
L 2988 3500 
L 3597 3500 
L 2284 0 
L 1503 0 
L 191 3500 
z
" transform="scale(0.015625)"/>
       </defs>
       <use xlink:href="#DejaVuSans-4a"/>
       <use xlink:href="#DejaVuSans-6f" x="29.492188"/>
       <use xlink:href="#DejaVuSans-68" x="90.673828"/>
       <use xlink:href="#DejaVuSans-6e" x="154.052734"/>
       <use xlink:href="#DejaVuSans-20" x="217.431641"/>
       <use xlink:href="#DejaVuSans-54" x="249.21875"/>
       <use xlink:href="#DejaVuSans-72" x="295.552734"/>
       <use xlink:href="#DejaVuSans-61" x="336.666016"/>
       <use xlink:href="#DejaVuSans-76" x="397.945312"/>
       <use xlink:href="#DejaVuSans-6f" x="457.125"/>
       <use xlink:href="#DejaVuSans-6c" x="518.306641"/>
       <use xlink:href="#DejaVuSans-74" x="546.089844"/>
       <use xlink:href="#DejaVuSans-61" x="585.298828"/>
      </g>
     </g>
    </g>
   </g>
   <g id="matplotlib.axis_2">
    <g id="ytick_1">
     <g id="line2d_6">
      <defs>
       <path id="m2fd09cbc70" d="M 0 0 
L -3.5 0 
" style="stroke: #000000; stroke-width: 0.8"/>
      </defs>
      <g>
       <use xlink:href="#m2fd09cbc70" x="43.09" y="242.66" style="stroke: #000000; stroke-width: 0.8"/>
      </g>
     </g>
     <g id="text_6">
      <!-- 0 -->
      <g transform="translate(29.7275 246.459219) scale(0.1 -0.1)">
       <defs>
        <path id="DejaVuSans-30" d="M 2034 4250 
Q 1547 4250 1301 3770 
Q 1056 3291 1056 2328 
Q 1056 1369 1301 889 
Q 1547 409 2034 409 
Q 2525 409 2770 889 
Q 3016 1369 3016 2328 
Q 3016 3291 2770 3770 
Q 2525 4250 2034 4250 
z
M 2034 4750 
Q 2819 4750 3233 4129 
Q 3647 3509 3647 2328 
Q 3647 1150 3233 529 
Q 2819 -91 2034 -91 
Q 1250 -91 836 529 
Q 422 1150 422 2328 
Q 422 3509 836 4129 
Q 1250 4750 2034 4750 
z
" transform="scale(0.015625)"/>
       </defs>
       <use xlink:href="#DejaVuSans-30"/>
      </g>
     </g>
    </g>
    <g id="ytick_2">
     <g id="line2d_7">
      <g>
       <use xlink:href="#m2fd09cbc70" x="43.09" y="209.461796" style="stroke: #000000; stroke-width: 0.8"/>
      </g>
     </g>
     <g id="text_7">
      <!-- 500 -->
      <g transform="translate(17.0025 213.261015) scale(0.1 -0.1)">
       <defs>
        <path id="DejaVuSans-35" d="M 691 4666 
L 3169 4666 
L 3169 4134 
L 1269 4134 
L 1269 2991 
Q 1406 3038 1543 3061 
Q 1681 3084 1819 3084 
Q 2600 3084 3056 2656 
Q 3513 2228 3513 1497 
Q 3513 744 3044 326 
Q 2575 -91 1722 -91 
Q 1428 -91 1123 -41 
Q 819 9 494 109 
L 494 744 
Q 775 591 1075 516 
Q 1375 441 1709 441 
Q 2250 441 2565 725 
Q 2881 1009 2881 1497 
Q 2881 1984 2565 2268 
Q 2250 2553 1709 2553 
Q 1456 2553 1204 2497 
Q 953 2441 691 2322 
L 691 4666 
z
" transform="scale(0.015625)"/>
       </defs>
       <use xlink:href="#DejaVuSans-35"/>
       <use xlink:href="#DejaVuSans-30" x="63.623047"/>
       <use xlink:href="#DejaVuSans-30" x="127.246094"/>
      </g>
     </g>
    </g>
    <g id="ytick_3">
     <g id="line2d_8">
      <g>
       <use xlink:href="#m2fd09cbc70" x="43.09" y="176.263592" style="stroke: #000000; stroke-width: 0.8"/>
      </g>
     </g>
     <g id="text_8">
      <!-- 1000 -->
      <g transform="translate(10.64 180.062811) scale(0.1 -0.1)">
       <defs>
        <path id="DejaVuSans-31" d="M 794 531 
L 1825 531 
L 1825 4091 
L 703 3866 
L 703 4441 
L 1819 4666 
L 2450 4666 
L 2450 531 
L 3481 531 
L 3481 0 
L 794 0 
L 794 531 
z
" transform="scale(0.015625)"/>
       </defs>
       <use xlink:href="#DejaVuSans-31"/>
       <use xlink:href="#DejaVuSans-30" x="63.623047"/>
       <use xlink:href="#DejaVuSans-30" x="127.246094"/>
       <use xlink:href="#DejaVuSans-30" x="190.869141"/>
      </g>
     </g>
    </g>
    <g id="ytick_4">
     <g id="line2d_9">
      <g>
       <use xlink:href="#m2fd09cbc70" x="43.09" y="143.065389" style="stroke: #000000; stroke-width: 0.8"/>
      </g>
     </g>
     <g id="text_9">
      <!-- 1500 -->
      <g transform="translate(10.64 146.864607) scale(0.1 -0.1)">
       <use xlink:href="#DejaVuSans-31"/>
       <use xlink:href="#DejaVuSans-35" x="63.623047"/>
       <use xlink:href="#DejaVuSans-30" x="127.246094"/>
       <use xlink:href="#DejaVuSans-30" x="190.869141"/>
      </g>
     </g>
    </g>
    <g id="ytick_5">
     <g id="line2d_10">
      <g>
       <use xlink:href="#m2fd09cbc70" x="43.09" y="109.867185" style="stroke: #000000; stroke-width: 0.8"/>
      </g>
     </g>
     <g id="text_10">
      <!-- 2000 -->
      <g transform="translate(10.64 113.666404) scale(0.1 -0.1)">
       <defs>
        <path id="DejaVuSans-32" d="M 1228 531 
L 3431 531 
L 3431 0 
L 469 0 
L 469 531 
Q 828 903 1448 1529 
Q 2069 2156 2228 2338 
Q 2531 2678 2651 2914 
Q 2772 3150 2772 3378 
Q 2772 3750 2511 3984 
Q 2250 4219 1831 4219 
Q 1534 4219 1204 4116 
Q 875 4013 500 3803 
L 500 4441 
Q 881 4594 1212 4672 
Q 1544 4750 1819 4750 
Q 2544 4750 2975 4387 
Q 3406 4025 3406 3419 
Q 3406 3131 3298 2873 
Q 3191 2616 2906 2266 
Q 2828 2175 2409 1742 
Q 1991 1309 1228 531 
z
" transform="scale(0.015625)"/>
       </defs>
       <use xlink:href="#DejaVuSans-32"/>
       <use xlink:href="#DejaVuSans-30" x="63.623047"/>
       <use xlink:href="#DejaVuSans-30" x="127.246094"/>
       <use xlink:href="#DejaVuSans-30" x="190.869141"/>
      </g>
     </g>
    </g>
    <g id="ytick_6">
     <g id="line2d_11">
      <g>
       <use xlink:href="#m2fd09cbc70" x="43.09" y="76.668981" style="stroke: #000000; stroke-width: 0.8"/>
      </g>
     </g>
     <g id="text_11">
      <!-- 2500 -->
      <g transform="translate(10.64 80.4682) scale(0.1 -0.1)">
       <use xlink:href="#DejaVuSans-32"/>
       <use xlink:href="#DejaVuSans-35" x="63.623047"/>
       <use xlink:href="#DejaVuSans-30" x="127.246094"/>
       <use xlink:href="#DejaVuSans-30" x="190.869141"/>
      </g>
     </g>
    </g>
    <g id="ytick_7">
     <g id="line2d_12">
      <g>
       <use xlink:href="#m2fd09cbc70" x="43.09" y="43.470777" style="stroke: #000000; stroke-width: 0.8"/>
      </g>
     </g>
     <g id="text_12">
      <!-- 3000 -->
      <g transform="translate(10.64 47.269996) scale(0.1 -0.1)">
       <defs>
        <path id="DejaVuSans-33" d="M 2597 2516 
Q 3050 2419 3304 2112 
Q 3559 1806 3559 1356 
Q 3559 666 3084 287 
Q 2609 -91 1734 -91 
Q 1441 -91 1130 -33 
Q 819 25 488 141 
L 488 750 
Q 750 597 1062 519 
Q 1375 441 1716 441 
Q 2309 441 2620 675 
Q 2931 909 2931 1356 
Q 2931 1769 2642 2001 
Q 2353 2234 1838 2234 
L 1294 2234 
L 1294 2753 
L 1863 2753 
Q 2328 2753 2575 2939 
Q 2822 3125 2822 3475 
Q 2822 3834 2567 4026 
Q 2313 4219 1838 4219 
Q 1578 4219 1281 4162 
Q 984 4106 628 3988 
L 628 4550 
Q 988 4650 1302 4700 
Q 1616 4750 1894 4750 
Q 2613 4750 3031 4423 
Q 3450 4097 3450 3541 
Q 3450 3153 3228 2886 
Q 3006 2619 2597 2516 
z
" transform="scale(0.015625)"/>
       </defs>
       <use xlink:href="#DejaVuSans-33"/>
       <use xlink:href="#DejaVuSans-30" x="63.623047"/>
       <use xlink:href="#DejaVuSans-30" x="127.246094"/>
       <use xlink:href="#DejaVuSans-30" x="190.869141"/>
      </g>
     </g>
    </g>
   </g>
   <g id="patch_200">
    <path d="M 43.09 242.66 
L 43.09 10.8 
" style="fill: none; stroke: #000000; stroke-width: 0.8; stroke-linejoin: miter; stroke-linecap: square"/>
   </g>
   <g id="patch_201">
    <path d="M 450 242.66 
L 450 10.8 
" style="fill: none; stroke: #000000; stroke-width: 0.8; stroke-linejoin: miter; stroke-linecap: square"/>
   </g>
   <g id="patch_202">
    <path d="M 43.09 242.66 
L 450 242.66 
" style="fill: none; stroke: #000000; stroke-width: 0.8; stroke-linejoin: miter; stroke-linecap: square"/>
   </g>
   <g id="patch_203">
    <path d="M 43.09 10.8 
L 450 10.8 
" style="fill: none; stroke: #000000; stroke-width: 0.8; stroke-linejoin: miter; stroke-linecap: square"/>
   </g>
  </g>
 </g>
 <defs>
  <clipPath id="p6f50aeac18">
   <rect x="43.09" y="10.8" width="406.91" height="231.86"/>
  </clipPath>
 </defs>
</svg>
