<?xml version="1.0" encoding="utf-8" standalone="no"?>
<!DOCTYPE svg PUBLIC "-//W3C//DTD SVG 1.1//EN"
  "http://www.w3.org/Graphics/SVG/1.1/DTD/svg11.dtd">
<svg xmlns:xlink="http://www.w3.org/1999/xlink" width="460.8pt" height="345.6pt" viewBox="0 0 460.8 345.6" xmlns="http://www.w3.org/2000/svg" version="1.1">
 <metadata>
  <rdf:RDF xmlns:dc="http://purl.org/dc/elements/1.1/" xmlns:cc="http://creativecommons.org/ns#" xmlns:rdf="http://www.w3.org/1999/02/22-rdf-syntax-ns#">
   <cc:Work>
    <dc:type rdf:resource="http://purl.org/dc/dcmitype/StillImage"/>
    <dc:date>2022-12-20T12:31:05.142611</dc:date>
    <dc:format>image/svg+xml</dc:format>
    <dc:creator>
     <cc:Agent>
      <dc:title>Matplotlib v3.6.0, https://matplotlib.org/</dc:title>
     </cc:Agent>
    </dc:creator>
   </cc:Work>
  </rdf:RDF>
 </metadata>
 <defs>
  <style type="text/css">*{stroke-linejoin: round; stroke-linecap: butt}</style>
 </defs>
 <g id="figure_1">
  <g id="patch_1">
   <path d="M 0 345.6 
L 460.8 345.6 
L 460.8 0 
L 0 0 
z
" style="fill: #ffffff"/>
  </g>
  <g id="axes_1">
   <g id="patch_2">
    <path d="M 43.09 208.73 
L 450 208.73 
L 450 10.8 
L 43.09 10.8 
z
" style="fill: #ffffff"/>
   </g>
   <g id="patch_3">
    <path d="M 63.4355 208.73 
L 104.1265 208.73 
L 104.1265 21.23919 
L 63.4355 21.23919 
z
" clip-path="url(#pd66e566ff3)" style="fill: #1f77b4"/>
   </g>
   <g id="patch_4">
    <path d="M 144.8175 208.73 
L 185.5085 208.73 
L 185.5085 65.336842 
L 144.8175 65.336842 
z
" clip-path="url(#pd66e566ff3)" style="fill: #1f77b4"/>
   </g>
   <g id="patch_5">
    <path d="M 226.1995 208.73 
L 266.8905 208.73 
L 266.8905 52.218382 
L 226.1995 52.218382 
z
" clip-path="url(#pd66e566ff3)" style="fill: #1f77b4"/>
   </g>
   <g id="patch_6">
    <path d="M 307.5815 208.73 
L 348.2725 208.73 
L 348.2725 81.042747 
L 307.5815 81.042747 
z
" clip-path="url(#pd66e566ff3)" style="fill: #1f77b4"/>
   </g>
   <g id="patch_7">
    <path d="M 388.9635 208.73 
L 429.6545 208.73 
L 429.6545 131.907991 
L 388.9635 131.907991 
z
" clip-path="url(#pd66e566ff3)" style="fill: #1f77b4"/>
   </g>
   <g id="patch_8">
    <path d="M 63.4355 208.73 
L 104.1265 208.73 
L 104.1265 208.22974 
L 63.4355 208.22974 
z
" clip-path="url(#pd66e566ff3)" style="fill: #1f77b4"/>
   </g>
   <g id="patch_9">
    <path d="M 144.8175 208.73 
L 185.5085 208.73 
L 185.5085 208.563247 
L 144.8175 208.563247 
z
" clip-path="url(#pd66e566ff3)" style="fill: #1f77b4"/>
   </g>
   <g id="patch_10">
    <path d="M 226.1995 208.73 
L 266.8905 208.73 
L 266.8905 208.73 
L 226.1995 208.73 
z
" clip-path="url(#pd66e566ff3)" style="fill: #1f77b4"/>
   </g>
   <g id="patch_11">
    <path d="M 63.4355 208.73 
L 104.1265 208.73 
L 104.1265 208.674416 
L 63.4355 208.674416 
z
" clip-path="url(#pd66e566ff3)" style="fill: #1f77b4"/>
   </g>
   <g id="patch_12">
    <path d="M 144.8175 208.73 
L 185.5085 208.73 
L 185.5085 208.674416 
L 144.8175 208.674416 
z
" clip-path="url(#pd66e566ff3)" style="fill: #1f77b4"/>
   </g>
   <g id="patch_13">
    <path d="M 226.1995 208.73 
L 266.8905 208.73 
L 266.8905 208.674416 
L 226.1995 208.674416 
z
" clip-path="url(#pd66e566ff3)" style="fill: #1f77b4"/>
   </g>
   <g id="patch_14">
    <path d="M 307.5815 208.73 
L 348.2725 208.73 
L 348.2725 208.563247 
L 307.5815 208.563247 
z
" clip-path="url(#pd66e566ff3)" style="fill: #1f77b4"/>
   </g>
   <g id="patch_15">
    <path d="M 388.9635 208.73 
L 429.6545 208.73 
L 429.6545 208.73 
L 388.9635 208.73 
z
" clip-path="url(#pd66e566ff3)" style="fill: #1f77b4"/>
   </g>
   <g id="patch_16">
    <path d="M 63.4355 208.73 
L 104.1265 208.73 
L 104.1265 177.380347 
L 63.4355 177.380347 
z
" clip-path="url(#pd66e566ff3)" style="fill: #1f77b4"/>
   </g>
   <g id="patch_17">
    <path d="M 144.8175 208.73 
L 185.5085 208.73 
L 185.5085 199.892066 
L 144.8175 199.892066 
z
" clip-path="url(#pd66e566ff3)" style="fill: #1f77b4"/>
   </g>
   <g id="patch_18">
    <path d="M 226.1995 208.73 
L 266.8905 208.73 
L 266.8905 201.476224 
L 226.1995 201.476224 
z
" clip-path="url(#pd66e566ff3)" style="fill: #1f77b4"/>
   </g>
   <g id="patch_19">
    <path d="M 307.5815 208.73 
L 348.2725 208.73 
L 348.2725 178.214115 
L 307.5815 178.214115 
z
" clip-path="url(#pd66e566ff3)" style="fill: #1f77b4"/>
   </g>
   <g id="patch_20">
    <path d="M 388.9635 208.73 
L 429.6545 208.73 
L 429.6545 204.811293 
L 388.9635 204.811293 
z
" clip-path="url(#pd66e566ff3)" style="fill: #1f77b4"/>
   </g>
   <g id="patch_21">
    <path d="M 63.4355 208.73 
L 104.1265 208.73 
L 104.1265 208.563247 
L 63.4355 208.563247 
z
" clip-path="url(#pd66e566ff3)" style="fill: #1f77b4"/>
   </g>
   <g id="patch_22">
    <path d="M 144.8175 208.73 
L 185.5085 208.73 
L 185.5085 208.73 
L 144.8175 208.73 
z
" clip-path="url(#pd66e566ff3)" style="fill: #1f77b4"/>
   </g>
   <g id="patch_23">
    <path d="M 226.1995 208.73 
L 266.8905 208.73 
L 266.8905 208.73 
L 226.1995 208.73 
z
" clip-path="url(#pd66e566ff3)" style="fill: #1f77b4"/>
   </g>
   <g id="patch_24">
    <path d="M 307.5815 208.73 
L 348.2725 208.73 
L 348.2725 208.73 
L 307.5815 208.73 
z
" clip-path="url(#pd66e566ff3)" style="fill: #1f77b4"/>
   </g>
   <g id="patch_25">
    <path d="M 63.4355 208.73 
L 104.1265 208.73 
L 104.1265 204.227656 
L 63.4355 204.227656 
z
" clip-path="url(#pd66e566ff3)" style="fill: #1f77b4"/>
   </g>
   <g id="patch_26">
    <path d="M 144.8175 208.73 
L 185.5085 208.73 
L 185.5085 208.22974 
L 144.8175 208.22974 
z
" clip-path="url(#pd66e566ff3)" style="fill: #1f77b4"/>
   </g>
   <g id="patch_27">
    <path d="M 226.1995 208.73 
L 266.8905 208.73 
L 266.8905 208.563247 
L 226.1995 208.563247 
z
" clip-path="url(#pd66e566ff3)" style="fill: #1f77b4"/>
   </g>
   <g id="patch_28">
    <path d="M 307.5815 208.73 
L 348.2725 208.73 
L 348.2725 208.563247 
L 307.5815 208.563247 
z
" clip-path="url(#pd66e566ff3)" style="fill: #1f77b4"/>
   </g>
   <g id="patch_29">
    <path d="M 388.9635 208.73 
L 429.6545 208.73 
L 429.6545 207.562726 
L 388.9635 207.562726 
z
" clip-path="url(#pd66e566ff3)" style="fill: #1f77b4"/>
   </g>
   <g id="patch_30">
    <path d="M 63.4355 208.73 
L 104.1265 208.73 
L 104.1265 208.396493 
L 63.4355 208.396493 
z
" clip-path="url(#pd66e566ff3)" style="fill: #1f77b4"/>
   </g>
   <g id="patch_31">
    <path d="M 144.8175 208.73 
L 185.5085 208.73 
L 185.5085 208.396493 
L 144.8175 208.396493 
z
" clip-path="url(#pd66e566ff3)" style="fill: #1f77b4"/>
   </g>
   <g id="patch_32">
    <path d="M 226.1995 208.73 
L 266.8905 208.73 
L 266.8905 208.396493 
L 226.1995 208.396493 
z
" clip-path="url(#pd66e566ff3)" style="fill: #1f77b4"/>
   </g>
   <g id="patch_33">
    <path d="M 307.5815 208.73 
L 348.2725 208.73 
L 348.2725 208.396493 
L 307.5815 208.396493 
z
" clip-path="url(#pd66e566ff3)" style="fill: #1f77b4"/>
   </g>
   <g id="patch_34">
    <path d="M 388.9635 208.73 
L 429.6545 208.73 
L 429.6545 208.396493 
L 388.9635 208.396493 
z
" clip-path="url(#pd66e566ff3)" style="fill: #1f77b4"/>
   </g>
   <g id="patch_35">
    <path d="M 63.4355 208.73 
L 104.1265 208.73 
L 104.1265 208.22974 
L 63.4355 208.22974 
z
" clip-path="url(#pd66e566ff3)" style="fill: #1f77b4"/>
   </g>
   <g id="patch_36">
    <path d="M 144.8175 208.73 
L 185.5085 208.73 
L 185.5085 208.313116 
L 144.8175 208.313116 
z
" clip-path="url(#pd66e566ff3)" style="fill: #1f77b4"/>
   </g>
   <g id="patch_37">
    <path d="M 226.1995 208.73 
L 266.8905 208.73 
L 266.8905 208.563247 
L 226.1995 208.563247 
z
" clip-path="url(#pd66e566ff3)" style="fill: #1f77b4"/>
   </g>
   <g id="patch_38">
    <path d="M 307.5815 208.73 
L 348.2725 208.73 
L 348.2725 208.646623 
L 307.5815 208.646623 
z
" clip-path="url(#pd66e566ff3)" style="fill: #1f77b4"/>
   </g>
   <g id="patch_39">
    <path d="M 388.9635 208.73 
L 429.6545 208.73 
L 429.6545 208.646623 
L 388.9635 208.646623 
z
" clip-path="url(#pd66e566ff3)" style="fill: #1f77b4"/>
   </g>
   <g id="patch_40">
    <path d="M 63.4355 208.73 
L 104.1265 208.73 
L 104.1265 208.22974 
L 63.4355 208.22974 
z
" clip-path="url(#pd66e566ff3)" style="fill: #1f77b4"/>
   </g>
   <g id="patch_41">
    <path d="M 144.8175 208.73 
L 185.5085 208.73 
L 185.5085 208.73 
L 144.8175 208.73 
z
" clip-path="url(#pd66e566ff3)" style="fill: #1f77b4"/>
   </g>
   <g id="patch_42">
    <path d="M 226.1995 208.73 
L 266.8905 208.73 
L 266.8905 208.73 
L 226.1995 208.73 
z
" clip-path="url(#pd66e566ff3)" style="fill: #1f77b4"/>
   </g>
   <g id="patch_43">
    <path d="M 63.4355 208.73 
L 104.1265 208.73 
L 104.1265 208.22974 
L 63.4355 208.22974 
z
" clip-path="url(#pd66e566ff3)" style="fill: #1f77b4"/>
   </g>
   <g id="patch_44">
    <path d="M 144.8175 208.73 
L 185.5085 208.73 
L 185.5085 208.563247 
L 144.8175 208.563247 
z
" clip-path="url(#pd66e566ff3)" style="fill: #1f77b4"/>
   </g>
   <g id="patch_45">
    <path d="M 63.4355 208.73 
L 104.1265 208.73 
L 104.1265 24.864442 
L 63.4355 24.864442 
z
" clip-path="url(#pd66e566ff3)" style="fill: #1f77b4"/>
   </g>
   <g id="patch_46">
    <path d="M 144.8175 208.73 
L 185.5085 208.73 
L 185.5085 76.615802 
L 144.8175 76.615802 
z
" clip-path="url(#pd66e566ff3)" style="fill: #1f77b4"/>
   </g>
   <g id="patch_47">
    <path d="M 226.1995 208.73 
L 266.8905 208.73 
L 266.8905 93.900867 
L 226.1995 93.900867 
z
" clip-path="url(#pd66e566ff3)" style="fill: #1f77b4"/>
   </g>
   <g id="patch_48">
    <path d="M 307.5815 208.73 
L 348.2725 208.73 
L 348.2725 77.074684 
L 307.5815 77.074684 
z
" clip-path="url(#pd66e566ff3)" style="fill: #1f77b4"/>
   </g>
   <g id="patch_49">
    <path d="M 388.9635 208.73 
L 429.6545 208.73 
L 429.6545 111.898821 
L 388.9635 111.898821 
z
" clip-path="url(#pd66e566ff3)" style="fill: #1f77b4"/>
   </g>
   <g id="patch_50">
    <path d="M 63.4355 208.73 
L 104.1265 208.73 
L 104.1265 208.73 
L 63.4355 208.73 
z
" clip-path="url(#pd66e566ff3)" style="fill: #1f77b4"/>
   </g>
   <g id="patch_51">
    <path d="M 144.8175 208.73 
L 185.5085 208.73 
L 185.5085 208.73 
L 144.8175 208.73 
z
" clip-path="url(#pd66e566ff3)" style="fill: #1f77b4"/>
   </g>
   <g id="patch_52">
    <path d="M 226.1995 208.73 
L 266.8905 208.73 
L 266.8905 208.73 
L 226.1995 208.73 
z
" clip-path="url(#pd66e566ff3)" style="fill: #1f77b4"/>
   </g>
   <g id="patch_53">
    <path d="M 307.5815 208.73 
L 348.2725 208.73 
L 348.2725 208.73 
L 307.5815 208.73 
z
" clip-path="url(#pd66e566ff3)" style="fill: #1f77b4"/>
   </g>
   <g id="patch_54">
    <path d="M 388.9635 208.73 
L 429.6545 208.73 
L 429.6545 208.73 
L 388.9635 208.73 
z
" clip-path="url(#pd66e566ff3)" style="fill: #1f77b4"/>
   </g>
   <g id="patch_55">
    <path d="M 63.4355 208.73 
L 104.1265 208.73 
L 104.1265 208.563247 
L 63.4355 208.563247 
z
" clip-path="url(#pd66e566ff3)" style="fill: #1f77b4"/>
   </g>
   <g id="patch_56">
    <path d="M 144.8175 208.73 
L 185.5085 208.73 
L 185.5085 208.73 
L 144.8175 208.73 
z
" clip-path="url(#pd66e566ff3)" style="fill: #1f77b4"/>
   </g>
   <g id="patch_57">
    <path d="M 226.1995 208.73 
L 266.8905 208.73 
L 266.8905 208.73 
L 226.1995 208.73 
z
" clip-path="url(#pd66e566ff3)" style="fill: #1f77b4"/>
   </g>
   <g id="patch_58">
    <path d="M 307.5815 208.73 
L 348.2725 208.73 
L 348.2725 208.73 
L 307.5815 208.73 
z
" clip-path="url(#pd66e566ff3)" style="fill: #1f77b4"/>
   </g>
   <g id="patch_59">
    <path d="M 388.9635 208.73 
L 429.6545 208.73 
L 429.6545 208.73 
L 388.9635 208.73 
z
" clip-path="url(#pd66e566ff3)" style="fill: #1f77b4"/>
   </g>
   <g id="patch_60">
    <path d="M 63.4355 208.73 
L 104.1265 208.73 
L 104.1265 207.812856 
L 63.4355 207.812856 
z
" clip-path="url(#pd66e566ff3)" style="fill: #1f77b4"/>
   </g>
   <g id="patch_61">
    <path d="M 144.8175 208.73 
L 185.5085 208.73 
L 185.5085 208.22974 
L 144.8175 208.22974 
z
" clip-path="url(#pd66e566ff3)" style="fill: #1f77b4"/>
   </g>
   <g id="patch_62">
    <path d="M 226.1995 208.73 
L 266.8905 208.73 
L 266.8905 208.646623 
L 226.1995 208.646623 
z
" clip-path="url(#pd66e566ff3)" style="fill: #1f77b4"/>
   </g>
   <g id="patch_63">
    <path d="M 307.5815 208.73 
L 348.2725 208.73 
L 348.2725 208.73 
L 307.5815 208.73 
z
" clip-path="url(#pd66e566ff3)" style="fill: #1f77b4"/>
   </g>
   <g id="patch_64">
    <path d="M 388.9635 208.73 
L 429.6545 208.73 
L 429.6545 208.73 
L 388.9635 208.73 
z
" clip-path="url(#pd66e566ff3)" style="fill: #1f77b4"/>
   </g>
   <g id="patch_65">
    <path d="M 63.4355 208.73 
L 104.1265 208.73 
L 104.1265 190.303741 
L 63.4355 190.303741 
z
" clip-path="url(#pd66e566ff3)" style="fill: #1f77b4"/>
   </g>
   <g id="patch_66">
    <path d="M 144.8175 208.73 
L 185.5085 208.73 
L 185.5085 207.062465 
L 144.8175 207.062465 
z
" clip-path="url(#pd66e566ff3)" style="fill: #1f77b4"/>
   </g>
   <g id="patch_67">
    <path d="M 226.1995 208.73 
L 266.8905 208.73 
L 266.8905 198.669207 
L 226.1995 198.669207 
z
" clip-path="url(#pd66e566ff3)" style="fill: #1f77b4"/>
   </g>
   <g id="patch_68">
    <path d="M 307.5815 208.73 
L 348.2725 208.73 
L 348.2725 196.056736 
L 307.5815 196.056736 
z
" clip-path="url(#pd66e566ff3)" style="fill: #1f77b4"/>
   </g>
   <g id="patch_69">
    <path d="M 388.9635 208.73 
L 429.6545 208.73 
L 429.6545 198.474661 
L 388.9635 198.474661 
z
" clip-path="url(#pd66e566ff3)" style="fill: #1f77b4"/>
   </g>
   <g id="patch_70">
    <path d="M 63.4355 208.73 
L 104.1265 208.73 
L 104.1265 153.236183 
L 63.4355 153.236183 
z
" clip-path="url(#pd66e566ff3)" style="fill: #1f77b4"/>
   </g>
   <g id="patch_71">
    <path d="M 144.8175 208.73 
L 185.5085 208.73 
L 185.5085 161.19959 
L 144.8175 161.19959 
z
" clip-path="url(#pd66e566ff3)" style="fill: #1f77b4"/>
   </g>
   <g id="patch_72">
    <path d="M 226.1995 208.73 
L 266.8905 208.73 
L 266.8905 93.301689 
L 226.1995 93.301689 
z
" clip-path="url(#pd66e566ff3)" style="fill: #1f77b4"/>
   </g>
   <g id="patch_73">
    <path d="M 307.5815 208.73 
L 348.2725 208.73 
L 348.2725 139.124326 
L 307.5815 139.124326 
z
" clip-path="url(#pd66e566ff3)" style="fill: #1f77b4"/>
   </g>
   <g id="patch_74">
    <path d="M 388.9635 208.73 
L 429.6545 208.73 
L 429.6545 92.541708 
L 388.9635 92.541708 
z
" clip-path="url(#pd66e566ff3)" style="fill: #1f77b4"/>
   </g>
   <g id="patch_75">
    <path d="M 63.4355 208.73 
L 104.1265 208.73 
L 104.1265 208.73 
L 63.4355 208.73 
z
" clip-path="url(#pd66e566ff3)" style="fill: #1f77b4"/>
   </g>
   <g id="patch_76">
    <path d="M 144.8175 208.73 
L 185.5085 208.73 
L 185.5085 208.73 
L 144.8175 208.73 
z
" clip-path="url(#pd66e566ff3)" style="fill: #1f77b4"/>
   </g>
   <g id="patch_77">
    <path d="M 63.4355 208.73 
L 104.1265 208.73 
L 104.1265 206.645582 
L 63.4355 206.645582 
z
" clip-path="url(#pd66e566ff3)" style="fill: #1f77b4"/>
   </g>
   <g id="patch_78">
    <path d="M 144.8175 208.73 
L 185.5085 208.73 
L 185.5085 207.062465 
L 144.8175 207.062465 
z
" clip-path="url(#pd66e566ff3)" style="fill: #1f77b4"/>
   </g>
   <g id="patch_79">
    <path d="M 226.1995 208.73 
L 266.8905 208.73 
L 266.8905 207.729479 
L 226.1995 207.729479 
z
" clip-path="url(#pd66e566ff3)" style="fill: #1f77b4"/>
   </g>
   <g id="patch_80">
    <path d="M 307.5815 208.73 
L 348.2725 208.73 
L 348.2725 208.563247 
L 307.5815 208.563247 
z
" clip-path="url(#pd66e566ff3)" style="fill: #1f77b4"/>
   </g>
   <g id="patch_81">
    <path d="M 388.9635 208.73 
L 429.6545 208.73 
L 429.6545 208.396493 
L 388.9635 208.396493 
z
" clip-path="url(#pd66e566ff3)" style="fill: #1f77b4"/>
   </g>
   <g id="patch_82">
    <path d="M 63.4355 208.73 
L 104.1265 208.73 
L 104.1265 208.22974 
L 63.4355 208.22974 
z
" clip-path="url(#pd66e566ff3)" style="fill: #1f77b4"/>
   </g>
   <g id="patch_83">
    <path d="M 144.8175 208.73 
L 185.5085 208.73 
L 185.5085 208.22974 
L 144.8175 208.22974 
z
" clip-path="url(#pd66e566ff3)" style="fill: #1f77b4"/>
   </g>
   <g id="patch_84">
    <path d="M 226.1995 208.73 
L 266.8905 208.73 
L 266.8905 208.563247 
L 226.1995 208.563247 
z
" clip-path="url(#pd66e566ff3)" style="fill: #1f77b4"/>
   </g>
   <g id="patch_85">
    <path d="M 307.5815 208.73 
L 348.2725 208.73 
L 348.2725 208.73 
L 307.5815 208.73 
z
" clip-path="url(#pd66e566ff3)" style="fill: #1f77b4"/>
   </g>
   <g id="patch_86">
    <path d="M 388.9635 208.73 
L 429.6545 208.73 
L 429.6545 208.73 
L 388.9635 208.73 
z
" clip-path="url(#pd66e566ff3)" style="fill: #1f77b4"/>
   </g>
   <g id="patch_87">
    <path d="M 63.4355 208.73 
L 104.1265 208.73 
L 104.1265 205.228177 
L 63.4355 205.228177 
z
" clip-path="url(#pd66e566ff3)" style="fill: #1f77b4"/>
   </g>
   <g id="patch_88">
    <path d="M 144.8175 208.73 
L 185.5085 208.73 
L 185.5085 208.646623 
L 144.8175 208.646623 
z
" clip-path="url(#pd66e566ff3)" style="fill: #1f77b4"/>
   </g>
   <g id="patch_89">
    <path d="M 226.1995 208.73 
L 266.8905 208.73 
L 266.8905 208.646623 
L 226.1995 208.646623 
z
" clip-path="url(#pd66e566ff3)" style="fill: #1f77b4"/>
   </g>
   <g id="patch_90">
    <path d="M 307.5815 208.73 
L 348.2725 208.73 
L 348.2725 208.646623 
L 307.5815 208.646623 
z
" clip-path="url(#pd66e566ff3)" style="fill: #1f77b4"/>
   </g>
   <g id="patch_91">
    <path d="M 388.9635 208.73 
L 429.6545 208.73 
L 429.6545 208.646623 
L 388.9635 208.646623 
z
" clip-path="url(#pd66e566ff3)" style="fill: #1f77b4"/>
   </g>
   <g id="patch_92">
    <path d="M 63.4355 208.73 
L 104.1265 208.73 
L 104.1265 208.73 
L 63.4355 208.73 
z
" clip-path="url(#pd66e566ff3)" style="fill: #1f77b4"/>
   </g>
   <g id="patch_93">
    <path d="M 63.4355 208.73 
L 104.1265 208.73 
L 104.1265 207.896233 
L 63.4355 207.896233 
z
" clip-path="url(#pd66e566ff3)" style="fill: #1f77b4"/>
   </g>
   <g id="patch_94">
    <path d="M 144.8175 208.73 
L 185.5085 208.73 
L 185.5085 207.896233 
L 144.8175 207.896233 
z
" clip-path="url(#pd66e566ff3)" style="fill: #1f77b4"/>
   </g>
   <g id="patch_95">
    <path d="M 226.1995 208.73 
L 266.8905 208.73 
L 266.8905 208.563247 
L 226.1995 208.563247 
z
" clip-path="url(#pd66e566ff3)" style="fill: #1f77b4"/>
   </g>
   <g id="patch_96">
    <path d="M 63.4355 208.73 
L 104.1265 208.73 
L 104.1265 205.228177 
L 63.4355 205.228177 
z
" clip-path="url(#pd66e566ff3)" style="fill: #1f77b4"/>
   </g>
   <g id="patch_97">
    <path d="M 144.8175 208.73 
L 185.5085 208.73 
L 185.5085 208.563247 
L 144.8175 208.563247 
z
" clip-path="url(#pd66e566ff3)" style="fill: #1f77b4"/>
   </g>
   <g id="patch_98">
    <path d="M 226.1995 208.73 
L 266.8905 208.73 
L 266.8905 208.563247 
L 226.1995 208.563247 
z
" clip-path="url(#pd66e566ff3)" style="fill: #1f77b4"/>
   </g>
   <g id="patch_99">
    <path d="M 307.5815 208.73 
L 348.2725 208.73 
L 348.2725 208.73 
L 307.5815 208.73 
z
" clip-path="url(#pd66e566ff3)" style="fill: #1f77b4"/>
   </g>
   <g id="patch_100">
    <path d="M 388.9635 208.73 
L 429.6545 208.73 
L 429.6545 208.73 
L 388.9635 208.73 
z
" clip-path="url(#pd66e566ff3)" style="fill: #1f77b4"/>
   </g>
   <g id="patch_101">
    <path d="M 63.4355 208.73 
L 104.1265 208.73 
L 104.1265 208.73 
L 63.4355 208.73 
z
" clip-path="url(#pd66e566ff3)" style="fill: #1f77b4"/>
   </g>
   <g id="patch_102">
    <path d="M 63.4355 208.73 
L 104.1265 208.73 
L 104.1265 20.225238 
L 63.4355 20.225238 
z
" clip-path="url(#pd66e566ff3)" style="fill: #1f77b4"/>
   </g>
   <g id="patch_103">
    <path d="M 144.8175 208.73 
L 185.5085 208.73 
L 185.5085 61.70273 
L 144.8175 61.70273 
z
" clip-path="url(#pd66e566ff3)" style="fill: #1f77b4"/>
   </g>
   <g id="patch_104">
    <path d="M 226.1995 208.73 
L 266.8905 208.73 
L 266.8905 89.75413 
L 226.1995 89.75413 
z
" clip-path="url(#pd66e566ff3)" style="fill: #1f77b4"/>
   </g>
   <g id="patch_105">
    <path d="M 307.5815 208.73 
L 348.2725 208.73 
L 348.2725 111.372546 
L 307.5815 111.372546 
z
" clip-path="url(#pd66e566ff3)" style="fill: #1f77b4"/>
   </g>
   <g id="patch_106">
    <path d="M 388.9635 208.73 
L 429.6545 208.73 
L 429.6545 126.793288 
L 388.9635 126.793288 
z
" clip-path="url(#pd66e566ff3)" style="fill: #1f77b4"/>
   </g>
   <g id="patch_107">
    <path d="M 63.4355 208.73 
L 104.1265 208.73 
L 104.1265 207.896233 
L 63.4355 207.896233 
z
" clip-path="url(#pd66e566ff3)" style="fill: #1f77b4"/>
   </g>
   <g id="patch_108">
    <path d="M 144.8175 208.73 
L 185.5085 208.73 
L 185.5085 207.896233 
L 144.8175 207.896233 
z
" clip-path="url(#pd66e566ff3)" style="fill: #1f77b4"/>
   </g>
   <g id="patch_109">
    <path d="M 226.1995 208.73 
L 266.8905 208.73 
L 266.8905 207.896233 
L 226.1995 207.896233 
z
" clip-path="url(#pd66e566ff3)" style="fill: #1f77b4"/>
   </g>
   <g id="patch_110">
    <path d="M 307.5815 208.73 
L 348.2725 208.73 
L 348.2725 208.646623 
L 307.5815 208.646623 
z
" clip-path="url(#pd66e566ff3)" style="fill: #1f77b4"/>
   </g>
   <g id="patch_111">
    <path d="M 388.9635 208.73 
L 429.6545 208.73 
L 429.6545 208.646623 
L 388.9635 208.646623 
z
" clip-path="url(#pd66e566ff3)" style="fill: #1f77b4"/>
   </g>
   <g id="patch_112">
    <path d="M 63.4355 208.73 
L 104.1265 208.73 
L 104.1265 110.270866 
L 63.4355 110.270866 
z
" clip-path="url(#pd66e566ff3)" style="fill: #1f77b4"/>
   </g>
   <g id="patch_113">
    <path d="M 144.8175 208.73 
L 185.5085 208.73 
L 185.5085 110.462806 
L 144.8175 110.462806 
z
" clip-path="url(#pd66e566ff3)" style="fill: #1f77b4"/>
   </g>
   <g id="patch_114">
    <path d="M 226.1995 208.73 
L 266.8905 208.73 
L 266.8905 144.036942 
L 226.1995 144.036942 
z
" clip-path="url(#pd66e566ff3)" style="fill: #1f77b4"/>
   </g>
   <g id="patch_115">
    <path d="M 307.5815 208.73 
L 348.2725 208.73 
L 348.2725 141.128028 
L 307.5815 141.128028 
z
" clip-path="url(#pd66e566ff3)" style="fill: #1f77b4"/>
   </g>
   <g id="patch_116">
    <path d="M 388.9635 208.73 
L 429.6545 208.73 
L 429.6545 109.56531 
L 388.9635 109.56531 
z
" clip-path="url(#pd66e566ff3)" style="fill: #1f77b4"/>
   </g>
   <g id="patch_117">
    <path d="M 63.4355 208.73 
L 104.1265 208.73 
L 104.1265 207.729479 
L 63.4355 207.729479 
z
" clip-path="url(#pd66e566ff3)" style="fill: #1f77b4"/>
   </g>
   <g id="patch_118">
    <path d="M 144.8175 208.73 
L 185.5085 208.73 
L 185.5085 207.896233 
L 144.8175 207.896233 
z
" clip-path="url(#pd66e566ff3)" style="fill: #1f77b4"/>
   </g>
   <g id="patch_119">
    <path d="M 226.1995 208.73 
L 266.8905 208.73 
L 266.8905 208.22974 
L 226.1995 208.22974 
z
" clip-path="url(#pd66e566ff3)" style="fill: #1f77b4"/>
   </g>
   <g id="patch_120">
    <path d="M 307.5815 208.73 
L 348.2725 208.73 
L 348.2725 208.396493 
L 307.5815 208.396493 
z
" clip-path="url(#pd66e566ff3)" style="fill: #1f77b4"/>
   </g>
   <g id="patch_121">
    <path d="M 388.9635 208.73 
L 429.6545 208.73 
L 429.6545 208.646623 
L 388.9635 208.646623 
z
" clip-path="url(#pd66e566ff3)" style="fill: #1f77b4"/>
   </g>
   <g id="patch_122">
    <path d="M 63.4355 208.73 
L 104.1265 208.73 
L 104.1265 208.22974 
L 63.4355 208.22974 
z
" clip-path="url(#pd66e566ff3)" style="fill: #1f77b4"/>
   </g>
   <g id="patch_123">
    <path d="M 144.8175 208.73 
L 185.5085 208.73 
L 185.5085 208.646623 
L 144.8175 208.646623 
z
" clip-path="url(#pd66e566ff3)" style="fill: #1f77b4"/>
   </g>
   <g id="patch_124">
    <path d="M 226.1995 208.73 
L 266.8905 208.73 
L 266.8905 208.646623 
L 226.1995 208.646623 
z
" clip-path="url(#pd66e566ff3)" style="fill: #1f77b4"/>
   </g>
   <g id="patch_125">
    <path d="M 307.5815 208.73 
L 348.2725 208.73 
L 348.2725 208.563247 
L 307.5815 208.563247 
z
" clip-path="url(#pd66e566ff3)" style="fill: #1f77b4"/>
   </g>
   <g id="patch_126">
    <path d="M 388.9635 208.73 
L 429.6545 208.73 
L 429.6545 208.73 
L 388.9635 208.73 
z
" clip-path="url(#pd66e566ff3)" style="fill: #1f77b4"/>
   </g>
   <g id="patch_127">
    <path d="M 63.4355 208.73 
L 104.1265 208.73 
L 104.1265 208.22974 
L 63.4355 208.22974 
z
" clip-path="url(#pd66e566ff3)" style="fill: #1f77b4"/>
   </g>
   <g id="patch_128">
    <path d="M 144.8175 208.73 
L 185.5085 208.73 
L 185.5085 208.563247 
L 144.8175 208.563247 
z
" clip-path="url(#pd66e566ff3)" style="fill: #1f77b4"/>
   </g>
   <g id="patch_129">
    <path d="M 226.1995 208.73 
L 266.8905 208.73 
L 266.8905 208.73 
L 226.1995 208.73 
z
" clip-path="url(#pd66e566ff3)" style="fill: #1f77b4"/>
   </g>
   <g id="patch_130">
    <path d="M 307.5815 208.73 
L 348.2725 208.73 
L 348.2725 208.73 
L 307.5815 208.73 
z
" clip-path="url(#pd66e566ff3)" style="fill: #1f77b4"/>
   </g>
   <g id="patch_131">
    <path d="M 388.9635 208.73 
L 429.6545 208.73 
L 429.6545 208.73 
L 388.9635 208.73 
z
" clip-path="url(#pd66e566ff3)" style="fill: #1f77b4"/>
   </g>
   <g id="matplotlib.axis_1">
    <g id="xtick_1">
     <g id="line2d_1">
      <defs>
       <path id="m2967fc21a4" d="M 0 0 
L 0 3.5 
" style="stroke: #000000; stroke-width: 0.8"/>
      </defs>
      <g>
       <use xlink:href="#m2967fc21a4" x="83.781" y="208.73" style="stroke: #000000; stroke-width: 0.8"/>
      </g>
     </g>
     <g id="text_1">
      <!-- Wesley Snipes -->
      <g transform="translate(86.540375 287.595625) rotate(-90) scale(0.1 -0.1)">
       <defs>
        <path id="DejaVuSans-57" d="M 213 4666 
L 850 4666 
L 1831 722 
L 2809 4666 
L 3519 4666 
L 4500 722 
L 5478 4666 
L 6119 4666 
L 4947 0 
L 4153 0 
L 3169 4050 
L 2175 0 
L 1381 0 
L 213 4666 
z
" transform="scale(0.015625)"/>
        <path id="DejaVuSans-65" d="M 3597 1894 
L 3597 1613 
L 953 1613 
Q 991 1019 1311 708 
Q 1631 397 2203 397 
Q 2534 397 2845 478 
Q 3156 559 3463 722 
L 3463 178 
Q 3153 47 2828 -22 
Q 2503 -91 2169 -91 
Q 1331 -91 842 396 
Q 353 884 353 1716 
Q 353 2575 817 3079 
Q 1281 3584 2069 3584 
Q 2775 3584 3186 3129 
Q 3597 2675 3597 1894 
z
M 3022 2063 
Q 3016 2534 2758 2815 
Q 2500 3097 2075 3097 
Q 1594 3097 1305 2825 
Q 1016 2553 972 2059 
L 3022 2063 
z
" transform="scale(0.015625)"/>
        <path id="DejaVuSans-73" d="M 2834 3397 
L 2834 2853 
Q 2591 2978 2328 3040 
Q 2066 3103 1784 3103 
Q 1356 3103 1142 2972 
Q 928 2841 928 2578 
Q 928 2378 1081 2264 
Q 1234 2150 1697 2047 
L 1894 2003 
Q 2506 1872 2764 1633 
Q 3022 1394 3022 966 
Q 3022 478 2636 193 
Q 2250 -91 1575 -91 
Q 1294 -91 989 -36 
Q 684 19 347 128 
L 347 722 
Q 666 556 975 473 
Q 1284 391 1588 391 
Q 1994 391 2212 530 
Q 2431 669 2431 922 
Q 2431 1156 2273 1281 
Q 2116 1406 1581 1522 
L 1381 1569 
Q 847 1681 609 1914 
Q 372 2147 372 2553 
Q 372 3047 722 3315 
Q 1072 3584 1716 3584 
Q 2034 3584 2315 3537 
Q 2597 3491 2834 3397 
z
" transform="scale(0.015625)"/>
        <path id="DejaVuSans-6c" d="M 603 4863 
L 1178 4863 
L 1178 0 
L 603 0 
L 603 4863 
z
" transform="scale(0.015625)"/>
        <path id="DejaVuSans-79" d="M 2059 -325 
Q 1816 -950 1584 -1140 
Q 1353 -1331 966 -1331 
L 506 -1331 
L 506 -850 
L 844 -850 
Q 1081 -850 1212 -737 
Q 1344 -625 1503 -206 
L 1606 56 
L 191 3500 
L 800 3500 
L 1894 763 
L 2988 3500 
L 3597 3500 
L 2059 -325 
z
" transform="scale(0.015625)"/>
        <path id="DejaVuSans-20" transform="scale(0.015625)"/>
        <path id="DejaVuSans-53" d="M 3425 4513 
L 3425 3897 
Q 3066 4069 2747 4153 
Q 2428 4238 2131 4238 
Q 1616 4238 1336 4038 
Q 1056 3838 1056 3469 
Q 1056 3159 1242 3001 
Q 1428 2844 1947 2747 
L 2328 2669 
Q 3034 2534 3370 2195 
Q 3706 1856 3706 1288 
Q 3706 609 3251 259 
Q 2797 -91 1919 -91 
Q 1588 -91 1214 -16 
Q 841 59 441 206 
L 441 856 
Q 825 641 1194 531 
Q 1563 422 1919 422 
Q 2459 422 2753 634 
Q 3047 847 3047 1241 
Q 3047 1584 2836 1778 
Q 2625 1972 2144 2069 
L 1759 2144 
Q 1053 2284 737 2584 
Q 422 2884 422 3419 
Q 422 4038 858 4394 
Q 1294 4750 2059 4750 
Q 2388 4750 2728 4690 
Q 3069 4631 3425 4513 
z
" transform="scale(0.015625)"/>
        <path id="DejaVuSans-6e" d="M 3513 2113 
L 3513 0 
L 2938 0 
L 2938 2094 
Q 2938 2591 2744 2837 
Q 2550 3084 2163 3084 
Q 1697 3084 1428 2787 
Q 1159 2491 1159 1978 
L 1159 0 
L 581 0 
L 581 3500 
L 1159 3500 
L 1159 2956 
Q 1366 3272 1645 3428 
Q 1925 3584 2291 3584 
Q 2894 3584 3203 3211 
Q 3513 2838 3513 2113 
z
" transform="scale(0.015625)"/>
        <path id="DejaVuSans-69" d="M 603 3500 
L 1178 3500 
L 1178 0 
L 603 0 
L 603 3500 
z
M 603 4863 
L 1178 4863 
L 1178 4134 
L 603 4134 
L 603 4863 
z
" transform="scale(0.015625)"/>
        <path id="DejaVuSans-70" d="M 1159 525 
L 1159 -1331 
L 581 -1331 
L 581 3500 
L 1159 3500 
L 1159 2969 
Q 1341 3281 1617 3432 
Q 1894 3584 2278 3584 
Q 2916 3584 3314 3078 
Q 3713 2572 3713 1747 
Q 3713 922 3314 415 
Q 2916 -91 2278 -91 
Q 1894 -91 1617 61 
Q 1341 213 1159 525 
z
M 3116 1747 
Q 3116 2381 2855 2742 
Q 2594 3103 2138 3103 
Q 1681 3103 1420 2742 
Q 1159 2381 1159 1747 
Q 1159 1113 1420 752 
Q 1681 391 2138 391 
Q 2594 391 2855 752 
Q 3116 1113 3116 1747 
z
" transform="scale(0.015625)"/>
       </defs>
       <use xlink:href="#DejaVuSans-57"/>
       <use xlink:href="#DejaVuSans-65" x="93.001953"/>
       <use xlink:href="#DejaVuSans-73" x="154.525391"/>
       <use xlink:href="#DejaVuSans-6c" x="206.625"/>
       <use xlink:href="#DejaVuSans-65" x="234.408203"/>
       <use xlink:href="#DejaVuSans-79" x="295.931641"/>
       <use xlink:href="#DejaVuSans-20" x="355.111328"/>
       <use xlink:href="#DejaVuSans-53" x="386.898438"/>
       <use xlink:href="#DejaVuSans-6e" x="450.375"/>
       <use xlink:href="#DejaVuSans-69" x="513.753906"/>
       <use xlink:href="#DejaVuSans-70" x="541.537109"/>
       <use xlink:href="#DejaVuSans-65" x="605.013672"/>
       <use xlink:href="#DejaVuSans-73" x="666.537109"/>
      </g>
     </g>
    </g>
    <g id="xtick_2">
     <g id="line2d_2">
      <g>
       <use xlink:href="#m2967fc21a4" x="165.163" y="208.73" style="stroke: #000000; stroke-width: 0.8"/>
      </g>
     </g>
     <g id="text_2">
      <!-- Sylvester Stallone -->
      <g transform="translate(167.922375 305.981562) rotate(-90) scale(0.1 -0.1)">
       <defs>
        <path id="DejaVuSans-76" d="M 191 3500 
L 800 3500 
L 1894 563 
L 2988 3500 
L 3597 3500 
L 2284 0 
L 1503 0 
L 191 3500 
z
" transform="scale(0.015625)"/>
        <path id="DejaVuSans-74" d="M 1172 4494 
L 1172 3500 
L 2356 3500 
L 2356 3053 
L 1172 3053 
L 1172 1153 
Q 1172 725 1289 603 
Q 1406 481 1766 481 
L 2356 481 
L 2356 0 
L 1766 0 
Q 1100 0 847 248 
Q 594 497 594 1153 
L 594 3053 
L 172 3053 
L 172 3500 
L 594 3500 
L 594 4494 
L 1172 4494 
z
" transform="scale(0.015625)"/>
        <path id="DejaVuSans-72" d="M 2631 2963 
Q 2534 3019 2420 3045 
Q 2306 3072 2169 3072 
Q 1681 3072 1420 2755 
Q 1159 2438 1159 1844 
L 1159 0 
L 581 0 
L 581 3500 
L 1159 3500 
L 1159 2956 
Q 1341 3275 1631 3429 
Q 1922 3584 2338 3584 
Q 2397 3584 2469 3576 
Q 2541 3569 2628 3553 
L 2631 2963 
z
" transform="scale(0.015625)"/>
        <path id="DejaVuSans-61" d="M 2194 1759 
Q 1497 1759 1228 1600 
Q 959 1441 959 1056 
Q 959 750 1161 570 
Q 1363 391 1709 391 
Q 2188 391 2477 730 
Q 2766 1069 2766 1631 
L 2766 1759 
L 2194 1759 
z
M 3341 1997 
L 3341 0 
L 2766 0 
L 2766 531 
Q 2569 213 2275 61 
Q 1981 -91 1556 -91 
Q 1019 -91 701 211 
Q 384 513 384 1019 
Q 384 1609 779 1909 
Q 1175 2209 1959 2209 
L 2766 2209 
L 2766 2266 
Q 2766 2663 2505 2880 
Q 2244 3097 1772 3097 
Q 1472 3097 1187 3025 
Q 903 2953 641 2809 
L 641 3341 
Q 956 3463 1253 3523 
Q 1550 3584 1831 3584 
Q 2591 3584 2966 3190 
Q 3341 2797 3341 1997 
z
" transform="scale(0.015625)"/>
        <path id="DejaVuSans-6f" d="M 1959 3097 
Q 1497 3097 1228 2736 
Q 959 2375 959 1747 
Q 959 1119 1226 758 
Q 1494 397 1959 397 
Q 2419 397 2687 759 
Q 2956 1122 2956 1747 
Q 2956 2369 2687 2733 
Q 2419 3097 1959 3097 
z
M 1959 3584 
Q 2709 3584 3137 3096 
Q 3566 2609 3566 1747 
Q 3566 888 3137 398 
Q 2709 -91 1959 -91 
Q 1206 -91 779 398 
Q 353 888 353 1747 
Q 353 2609 779 3096 
Q 1206 3584 1959 3584 
z
" transform="scale(0.015625)"/>
       </defs>
       <use xlink:href="#DejaVuSans-53"/>
       <use xlink:href="#DejaVuSans-79" x="63.476562"/>
       <use xlink:href="#DejaVuSans-6c" x="122.65625"/>
       <use xlink:href="#DejaVuSans-76" x="150.439453"/>
       <use xlink:href="#DejaVuSans-65" x="209.619141"/>
       <use xlink:href="#DejaVuSans-73" x="271.142578"/>
       <use xlink:href="#DejaVuSans-74" x="323.242188"/>
       <use xlink:href="#DejaVuSans-65" x="362.451172"/>
       <use xlink:href="#DejaVuSans-72" x="423.974609"/>
       <use xlink:href="#DejaVuSans-20" x="465.087891"/>
       <use xlink:href="#DejaVuSans-53" x="496.875"/>
       <use xlink:href="#DejaVuSans-74" x="560.351562"/>
       <use xlink:href="#DejaVuSans-61" x="599.560547"/>
       <use xlink:href="#DejaVuSans-6c" x="660.839844"/>
       <use xlink:href="#DejaVuSans-6c" x="688.623047"/>
       <use xlink:href="#DejaVuSans-6f" x="716.40625"/>
       <use xlink:href="#DejaVuSans-6e" x="777.587891"/>
       <use xlink:href="#DejaVuSans-65" x="840.966797"/>
      </g>
     </g>
    </g>
    <g id="xtick_3">
     <g id="line2d_3">
      <g>
       <use xlink:href="#m2967fc21a4" x="246.545" y="208.73" style="stroke: #000000; stroke-width: 0.8"/>
      </g>
     </g>
     <g id="text_3">
      <!-- Steven Seagal -->
      <g transform="translate(249.304375 287.62375) rotate(-90) scale(0.1 -0.1)">
       <defs>
        <path id="DejaVuSans-67" d="M 2906 1791 
Q 2906 2416 2648 2759 
Q 2391 3103 1925 3103 
Q 1463 3103 1205 2759 
Q 947 2416 947 1791 
Q 947 1169 1205 825 
Q 1463 481 1925 481 
Q 2391 481 2648 825 
Q 2906 1169 2906 1791 
z
M 3481 434 
Q 3481 -459 3084 -895 
Q 2688 -1331 1869 -1331 
Q 1566 -1331 1297 -1286 
Q 1028 -1241 775 -1147 
L 775 -588 
Q 1028 -725 1275 -790 
Q 1522 -856 1778 -856 
Q 2344 -856 2625 -561 
Q 2906 -266 2906 331 
L 2906 616 
Q 2728 306 2450 153 
Q 2172 0 1784 0 
Q 1141 0 747 490 
Q 353 981 353 1791 
Q 353 2603 747 3093 
Q 1141 3584 1784 3584 
Q 2172 3584 2450 3431 
Q 2728 3278 2906 2969 
L 2906 3500 
L 3481 3500 
L 3481 434 
z
" transform="scale(0.015625)"/>
       </defs>
       <use xlink:href="#DejaVuSans-53"/>
       <use xlink:href="#DejaVuSans-74" x="63.476562"/>
       <use xlink:href="#DejaVuSans-65" x="102.685547"/>
       <use xlink:href="#DejaVuSans-76" x="164.208984"/>
       <use xlink:href="#DejaVuSans-65" x="223.388672"/>
       <use xlink:href="#DejaVuSans-6e" x="284.912109"/>
       <use xlink:href="#DejaVuSans-20" x="348.291016"/>
       <use xlink:href="#DejaVuSans-53" x="380.078125"/>
       <use xlink:href="#DejaVuSans-65" x="443.554688"/>
       <use xlink:href="#DejaVuSans-61" x="505.078125"/>
       <use xlink:href="#DejaVuSans-67" x="566.357422"/>
       <use xlink:href="#DejaVuSans-61" x="629.833984"/>
       <use xlink:href="#DejaVuSans-6c" x="691.113281"/>
      </g>
     </g>
    </g>
    <g id="xtick_4">
     <g id="line2d_4">
      <g>
       <use xlink:href="#m2967fc21a4" x="327.927" y="208.73" style="stroke: #000000; stroke-width: 0.8"/>
      </g>
     </g>
     <g id="text_4">
      <!-- Gary Busey -->
      <g transform="translate(330.686375 273.294062) rotate(-90) scale(0.1 -0.1)">
       <defs>
        <path id="DejaVuSans-47" d="M 3809 666 
L 3809 1919 
L 2778 1919 
L 2778 2438 
L 4434 2438 
L 4434 434 
Q 4069 175 3628 42 
Q 3188 -91 2688 -91 
Q 1594 -91 976 548 
Q 359 1188 359 2328 
Q 359 3472 976 4111 
Q 1594 4750 2688 4750 
Q 3144 4750 3555 4637 
Q 3966 4525 4313 4306 
L 4313 3634 
Q 3963 3931 3569 4081 
Q 3175 4231 2741 4231 
Q 1884 4231 1454 3753 
Q 1025 3275 1025 2328 
Q 1025 1384 1454 906 
Q 1884 428 2741 428 
Q 3075 428 3337 486 
Q 3600 544 3809 666 
z
" transform="scale(0.015625)"/>
        <path id="DejaVuSans-42" d="M 1259 2228 
L 1259 519 
L 2272 519 
Q 2781 519 3026 730 
Q 3272 941 3272 1375 
Q 3272 1813 3026 2020 
Q 2781 2228 2272 2228 
L 1259 2228 
z
M 1259 4147 
L 1259 2741 
L 2194 2741 
Q 2656 2741 2882 2914 
Q 3109 3088 3109 3444 
Q 3109 3797 2882 3972 
Q 2656 4147 2194 4147 
L 1259 4147 
z
M 628 4666 
L 2241 4666 
Q 2963 4666 3353 4366 
Q 3744 4066 3744 3513 
Q 3744 3084 3544 2831 
Q 3344 2578 2956 2516 
Q 3422 2416 3680 2098 
Q 3938 1781 3938 1306 
Q 3938 681 3513 340 
Q 3088 0 2303 0 
L 628 0 
L 628 4666 
z
" transform="scale(0.015625)"/>
        <path id="DejaVuSans-75" d="M 544 1381 
L 544 3500 
L 1119 3500 
L 1119 1403 
Q 1119 906 1312 657 
Q 1506 409 1894 409 
Q 2359 409 2629 706 
Q 2900 1003 2900 1516 
L 2900 3500 
L 3475 3500 
L 3475 0 
L 2900 0 
L 2900 538 
Q 2691 219 2414 64 
Q 2138 -91 1772 -91 
Q 1169 -91 856 284 
Q 544 659 544 1381 
z
M 1991 3584 
L 1991 3584 
z
" transform="scale(0.015625)"/>
       </defs>
       <use xlink:href="#DejaVuSans-47"/>
       <use xlink:href="#DejaVuSans-61" x="77.490234"/>
       <use xlink:href="#DejaVuSans-72" x="138.769531"/>
       <use xlink:href="#DejaVuSans-79" x="179.882812"/>
       <use xlink:href="#DejaVuSans-20" x="239.0625"/>
       <use xlink:href="#DejaVuSans-42" x="270.849609"/>
       <use xlink:href="#DejaVuSans-75" x="339.453125"/>
       <use xlink:href="#DejaVuSans-73" x="402.832031"/>
       <use xlink:href="#DejaVuSans-65" x="454.931641"/>
       <use xlink:href="#DejaVuSans-79" x="516.455078"/>
      </g>
     </g>
    </g>
    <g id="xtick_5">
     <g id="line2d_5">
      <g>
       <use xlink:href="#m2967fc21a4" x="409.309" y="208.73" style="stroke: #000000; stroke-width: 0.8"/>
      </g>
     </g>
     <g id="text_5">
      <!-- Arnold Schwarzenegger -->
      <g transform="translate(412.068375 334.722187) rotate(-90) scale(0.1 -0.1)">
       <defs>
        <path id="DejaVuSans-41" d="M 2188 4044 
L 1331 1722 
L 3047 1722 
L 2188 4044 
z
M 1831 4666 
L 2547 4666 
L 4325 0 
L 3669 0 
L 3244 1197 
L 1141 1197 
L 716 0 
L 50 0 
L 1831 4666 
z
" transform="scale(0.015625)"/>
        <path id="DejaVuSans-64" d="M 2906 2969 
L 2906 4863 
L 3481 4863 
L 3481 0 
L 2906 0 
L 2906 525 
Q 2725 213 2448 61 
Q 2172 -91 1784 -91 
Q 1150 -91 751 415 
Q 353 922 353 1747 
Q 353 2572 751 3078 
Q 1150 3584 1784 3584 
Q 2172 3584 2448 3432 
Q 2725 3281 2906 2969 
z
M 947 1747 
Q 947 1113 1208 752 
Q 1469 391 1925 391 
Q 2381 391 2643 752 
Q 2906 1113 2906 1747 
Q 2906 2381 2643 2742 
Q 2381 3103 1925 3103 
Q 1469 3103 1208 2742 
Q 947 2381 947 1747 
z
" transform="scale(0.015625)"/>
        <path id="DejaVuSans-63" d="M 3122 3366 
L 3122 2828 
Q 2878 2963 2633 3030 
Q 2388 3097 2138 3097 
Q 1578 3097 1268 2742 
Q 959 2388 959 1747 
Q 959 1106 1268 751 
Q 1578 397 2138 397 
Q 2388 397 2633 464 
Q 2878 531 3122 666 
L 3122 134 
Q 2881 22 2623 -34 
Q 2366 -91 2075 -91 
Q 1284 -91 818 406 
Q 353 903 353 1747 
Q 353 2603 823 3093 
Q 1294 3584 2113 3584 
Q 2378 3584 2631 3529 
Q 2884 3475 3122 3366 
z
" transform="scale(0.015625)"/>
        <path id="DejaVuSans-68" d="M 3513 2113 
L 3513 0 
L 2938 0 
L 2938 2094 
Q 2938 2591 2744 2837 
Q 2550 3084 2163 3084 
Q 1697 3084 1428 2787 
Q 1159 2491 1159 1978 
L 1159 0 
L 581 0 
L 581 4863 
L 1159 4863 
L 1159 2956 
Q 1366 3272 1645 3428 
Q 1925 3584 2291 3584 
Q 2894 3584 3203 3211 
Q 3513 2838 3513 2113 
z
" transform="scale(0.015625)"/>
        <path id="DejaVuSans-77" d="M 269 3500 
L 844 3500 
L 1563 769 
L 2278 3500 
L 2956 3500 
L 3675 769 
L 4391 3500 
L 4966 3500 
L 4050 0 
L 3372 0 
L 2619 2869 
L 1863 0 
L 1184 0 
L 269 3500 
z
" transform="scale(0.015625)"/>
        <path id="DejaVuSans-7a" d="M 353 3500 
L 3084 3500 
L 3084 2975 
L 922 459 
L 3084 459 
L 3084 0 
L 275 0 
L 275 525 
L 2438 3041 
L 353 3041 
L 353 3500 
z
" transform="scale(0.015625)"/>
       </defs>
       <use xlink:href="#DejaVuSans-41"/>
       <use xlink:href="#DejaVuSans-72" x="68.408203"/>
       <use xlink:href="#DejaVuSans-6e" x="107.771484"/>
       <use xlink:href="#DejaVuSans-6f" x="171.150391"/>
       <use xlink:href="#DejaVuSans-6c" x="232.332031"/>
       <use xlink:href="#DejaVuSans-64" x="260.115234"/>
       <use xlink:href="#DejaVuSans-20" x="323.591797"/>
       <use xlink:href="#DejaVuSans-53" x="355.378906"/>
       <use xlink:href="#DejaVuSans-63" x="418.855469"/>
       <use xlink:href="#DejaVuSans-68" x="473.835938"/>
       <use xlink:href="#DejaVuSans-77" x="537.214844"/>
       <use xlink:href="#DejaVuSans-61" x="619.001953"/>
       <use xlink:href="#DejaVuSans-72" x="680.28125"/>
       <use xlink:href="#DejaVuSans-7a" x="721.394531"/>
       <use xlink:href="#DejaVuSans-65" x="773.884766"/>
       <use xlink:href="#DejaVuSans-6e" x="835.408203"/>
       <use xlink:href="#DejaVuSans-65" x="898.787109"/>
       <use xlink:href="#DejaVuSans-67" x="960.310547"/>
       <use xlink:href="#DejaVuSans-67" x="1023.787109"/>
       <use xlink:href="#DejaVuSans-65" x="1087.263672"/>
       <use xlink:href="#DejaVuSans-72" x="1148.787109"/>
      </g>
     </g>
    </g>
   </g>
   <g id="matplotlib.axis_2">
    <g id="ytick_1">
     <g id="line2d_6">
      <defs>
       <path id="m855082eeb8" d="M 0 0 
L -3.5 0 
" style="stroke: #000000; stroke-width: 0.8"/>
      </defs>
      <g>
       <use xlink:href="#m855082eeb8" x="43.09" y="208.73" style="stroke: #000000; stroke-width: 0.8"/>
      </g>
     </g>
     <g id="text_6">
      <!-- 0 -->
      <g transform="translate(29.7275 212.529219) scale(0.1 -0.1)">
       <defs>
        <path id="DejaVuSans-30" d="M 2034 4250 
Q 1547 4250 1301 3770 
Q 1056 3291 1056 2328 
Q 1056 1369 1301 889 
Q 1547 409 2034 409 
Q 2525 409 2770 889 
Q 3016 1369 3016 2328 
Q 3016 3291 2770 3770 
Q 2525 4250 2034 4250 
z
M 2034 4750 
Q 2819 4750 3233 4129 
Q 3647 3509 3647 2328 
Q 3647 1150 3233 529 
Q 2819 -91 2034 -91 
Q 1250 -91 836 529 
Q 422 1150 422 2328 
Q 422 3509 836 4129 
Q 1250 4750 2034 4750 
z
" transform="scale(0.015625)"/>
       </defs>
       <use xlink:href="#DejaVuSans-30"/>
      </g>
     </g>
    </g>
    <g id="ytick_2">
     <g id="line2d_7">
      <g>
       <use xlink:href="#m855082eeb8" x="43.09" y="175.379306" style="stroke: #000000; stroke-width: 0.8"/>
      </g>
     </g>
     <g id="text_7">
      <!-- 200 -->
      <g transform="translate(17.0025 179.178524) scale(0.1 -0.1)">
       <defs>
        <path id="DejaVuSans-32" d="M 1228 531 
L 3431 531 
L 3431 0 
L 469 0 
L 469 531 
Q 828 903 1448 1529 
Q 2069 2156 2228 2338 
Q 2531 2678 2651 2914 
Q 2772 3150 2772 3378 
Q 2772 3750 2511 3984 
Q 2250 4219 1831 4219 
Q 1534 4219 1204 4116 
Q 875 4013 500 3803 
L 500 4441 
Q 881 4594 1212 4672 
Q 1544 4750 1819 4750 
Q 2544 4750 2975 4387 
Q 3406 4025 3406 3419 
Q 3406 3131 3298 2873 
Q 3191 2616 2906 2266 
Q 2828 2175 2409 1742 
Q 1991 1309 1228 531 
z
" transform="scale(0.015625)"/>
       </defs>
       <use xlink:href="#DejaVuSans-32"/>
       <use xlink:href="#DejaVuSans-30" x="63.623047"/>
       <use xlink:href="#DejaVuSans-30" x="127.246094"/>
      </g>
     </g>
    </g>
    <g id="ytick_3">
     <g id="line2d_8">
      <g>
       <use xlink:href="#m855082eeb8" x="43.09" y="142.028611" style="stroke: #000000; stroke-width: 0.8"/>
      </g>
     </g>
     <g id="text_8">
      <!-- 400 -->
      <g transform="translate(17.0025 145.82783) scale(0.1 -0.1)">
       <defs>
        <path id="DejaVuSans-34" d="M 2419 4116 
L 825 1625 
L 2419 1625 
L 2419 4116 
z
M 2253 4666 
L 3047 4666 
L 3047 1625 
L 3713 1625 
L 3713 1100 
L 3047 1100 
L 3047 0 
L 2419 0 
L 2419 1100 
L 313 1100 
L 313 1709 
L 2253 4666 
z
" transform="scale(0.015625)"/>
       </defs>
       <use xlink:href="#DejaVuSans-34"/>
       <use xlink:href="#DejaVuSans-30" x="63.623047"/>
       <use xlink:href="#DejaVuSans-30" x="127.246094"/>
      </g>
     </g>
    </g>
    <g id="ytick_4">
     <g id="line2d_9">
      <g>
       <use xlink:href="#m855082eeb8" x="43.09" y="108.677917" style="stroke: #000000; stroke-width: 0.8"/>
      </g>
     </g>
     <g id="text_9">
      <!-- 600 -->
      <g transform="translate(17.0025 112.477136) scale(0.1 -0.1)">
       <defs>
        <path id="DejaVuSans-36" d="M 2113 2584 
Q 1688 2584 1439 2293 
Q 1191 2003 1191 1497 
Q 1191 994 1439 701 
Q 1688 409 2113 409 
Q 2538 409 2786 701 
Q 3034 994 3034 1497 
Q 3034 2003 2786 2293 
Q 2538 2584 2113 2584 
z
M 3366 4563 
L 3366 3988 
Q 3128 4100 2886 4159 
Q 2644 4219 2406 4219 
Q 1781 4219 1451 3797 
Q 1122 3375 1075 2522 
Q 1259 2794 1537 2939 
Q 1816 3084 2150 3084 
Q 2853 3084 3261 2657 
Q 3669 2231 3669 1497 
Q 3669 778 3244 343 
Q 2819 -91 2113 -91 
Q 1303 -91 875 529 
Q 447 1150 447 2328 
Q 447 3434 972 4092 
Q 1497 4750 2381 4750 
Q 2619 4750 2861 4703 
Q 3103 4656 3366 4563 
z
" transform="scale(0.015625)"/>
       </defs>
       <use xlink:href="#DejaVuSans-36"/>
       <use xlink:href="#DejaVuSans-30" x="63.623047"/>
       <use xlink:href="#DejaVuSans-30" x="127.246094"/>
      </g>
     </g>
    </g>
    <g id="ytick_5">
     <g id="line2d_10">
      <g>
       <use xlink:href="#m855082eeb8" x="43.09" y="75.327222" style="stroke: #000000; stroke-width: 0.8"/>
      </g>
     </g>
     <g id="text_10">
      <!-- 800 -->
      <g transform="translate(17.0025 79.126441) scale(0.1 -0.1)">
       <defs>
        <path id="DejaVuSans-38" d="M 2034 2216 
Q 1584 2216 1326 1975 
Q 1069 1734 1069 1313 
Q 1069 891 1326 650 
Q 1584 409 2034 409 
Q 2484 409 2743 651 
Q 3003 894 3003 1313 
Q 3003 1734 2745 1975 
Q 2488 2216 2034 2216 
z
M 1403 2484 
Q 997 2584 770 2862 
Q 544 3141 544 3541 
Q 544 4100 942 4425 
Q 1341 4750 2034 4750 
Q 2731 4750 3128 4425 
Q 3525 4100 3525 3541 
Q 3525 3141 3298 2862 
Q 3072 2584 2669 2484 
Q 3125 2378 3379 2068 
Q 3634 1759 3634 1313 
Q 3634 634 3220 271 
Q 2806 -91 2034 -91 
Q 1263 -91 848 271 
Q 434 634 434 1313 
Q 434 1759 690 2068 
Q 947 2378 1403 2484 
z
M 1172 3481 
Q 1172 3119 1398 2916 
Q 1625 2713 2034 2713 
Q 2441 2713 2670 2916 
Q 2900 3119 2900 3481 
Q 2900 3844 2670 4047 
Q 2441 4250 2034 4250 
Q 1625 4250 1398 4047 
Q 1172 3844 1172 3481 
z
" transform="scale(0.015625)"/>
       </defs>
       <use xlink:href="#DejaVuSans-38"/>
       <use xlink:href="#DejaVuSans-30" x="63.623047"/>
       <use xlink:href="#DejaVuSans-30" x="127.246094"/>
      </g>
     </g>
    </g>
    <g id="ytick_6">
     <g id="line2d_11">
      <g>
       <use xlink:href="#m855082eeb8" x="43.09" y="41.976528" style="stroke: #000000; stroke-width: 0.8"/>
      </g>
     </g>
     <g id="text_11">
      <!-- 1000 -->
      <g transform="translate(10.64 45.775747) scale(0.1 -0.1)">
       <defs>
        <path id="DejaVuSans-31" d="M 794 531 
L 1825 531 
L 1825 4091 
L 703 3866 
L 703 4441 
L 1819 4666 
L 2450 4666 
L 2450 531 
L 3481 531 
L 3481 0 
L 794 0 
L 794 531 
z
" transform="scale(0.015625)"/>
       </defs>
       <use xlink:href="#DejaVuSans-31"/>
       <use xlink:href="#DejaVuSans-30" x="63.623047"/>
       <use xlink:href="#DejaVuSans-30" x="127.246094"/>
       <use xlink:href="#DejaVuSans-30" x="190.869141"/>
      </g>
     </g>
    </g>
   </g>
   <g id="patch_132">
    <path d="M 43.09 208.73 
L 43.09 10.8 
" style="fill: none; stroke: #000000; stroke-width: 0.8; stroke-linejoin: miter; stroke-linecap: square"/>
   </g>
   <g id="patch_133">
    <path d="M 450 208.73 
L 450 10.8 
" style="fill: none; stroke: #000000; stroke-width: 0.8; stroke-linejoin: miter; stroke-linecap: square"/>
   </g>
   <g id="patch_134">
    <path d="M 43.09 208.73 
L 450 208.73 
" style="fill: none; stroke: #000000; stroke-width: 0.8; stroke-linejoin: miter; stroke-linecap: square"/>
   </g>
   <g id="patch_135">
    <path d="M 43.09 10.8 
L 450 10.8 
" style="fill: none; stroke: #000000; stroke-width: 0.8; stroke-linejoin: miter; stroke-linecap: square"/>
   </g>
  </g>
 </g>
 <defs>
  <clipPath id="pd66e566ff3">
   <rect x="43.09" y="10.8" width="406.91" height="197.93"/>
  </clipPath>
 </defs>
</svg>
