<?xml version="1.0" encoding="utf-8" standalone="no"?>
<!DOCTYPE svg PUBLIC "-//W3C//DTD SVG 1.1//EN"
  "http://www.w3.org/Graphics/SVG/1.1/DTD/svg11.dtd">
<svg xmlns:xlink="http://www.w3.org/1999/xlink" width="460.8pt" height="345.6pt" viewBox="0 0 460.8 345.6" xmlns="http://www.w3.org/2000/svg" version="1.1">
 <metadata>
  <rdf:RDF xmlns:dc="http://purl.org/dc/elements/1.1/" xmlns:cc="http://creativecommons.org/ns#" xmlns:rdf="http://www.w3.org/1999/02/22-rdf-syntax-ns#">
   <cc:Work>
    <dc:type rdf:resource="http://purl.org/dc/dcmitype/StillImage"/>
    <dc:date>2022-12-20T12:31:09.206732</dc:date>
    <dc:format>image/svg+xml</dc:format>
    <dc:creator>
     <cc:Agent>
      <dc:title>Matplotlib v3.6.0, https://matplotlib.org/</dc:title>
     </cc:Agent>
    </dc:creator>
   </cc:Work>
  </rdf:RDF>
 </metadata>
 <defs>
  <style type="text/css">*{stroke-linejoin: round; stroke-linecap: butt}</style>
 </defs>
 <g id="figure_1">
  <g id="patch_1">
   <path d="M 0 345.6 
L 460.8 345.6 
L 460.8 0 
L 0 0 
z
" style="fill: #ffffff"/>
  </g>
  <g id="axes_1">
   <g id="patch_2">
    <path d="M 43.09 250.85 
L 450 250.85 
L 450 10.8 
L 43.09 10.8 
z
" style="fill: #ffffff"/>
   </g>
   <g id="patch_3">
    <path d="M 63.4355 250.85 
L 104.1265 250.85 
L 104.1265 173.559599 
L 63.4355 173.559599 
z
" clip-path="url(#p049ff47663)" style="fill: #1f77b4"/>
   </g>
   <g id="patch_4">
    <path d="M 144.8175 250.85 
L 185.5085 250.85 
L 185.5085 191.738225 
L 144.8175 191.738225 
z
" clip-path="url(#p049ff47663)" style="fill: #1f77b4"/>
   </g>
   <g id="patch_5">
    <path d="M 226.1995 250.85 
L 266.8905 250.85 
L 266.8905 186.330327 
L 226.1995 186.330327 
z
" clip-path="url(#p049ff47663)" style="fill: #1f77b4"/>
   </g>
   <g id="patch_6">
    <path d="M 307.5815 250.85 
L 348.2725 250.85 
L 348.2725 198.212759 
L 307.5815 198.212759 
z
" clip-path="url(#p049ff47663)" style="fill: #1f77b4"/>
   </g>
   <g id="patch_7">
    <path d="M 388.9635 250.85 
L 429.6545 250.85 
L 429.6545 219.181227 
L 388.9635 219.181227 
z
" clip-path="url(#p049ff47663)" style="fill: #1f77b4"/>
   </g>
   <g id="patch_8">
    <path d="M 63.4355 250.85 
L 104.1265 250.85 
L 104.1265 250.643775 
L 63.4355 250.643775 
z
" clip-path="url(#p049ff47663)" style="fill: #1f77b4"/>
   </g>
   <g id="patch_9">
    <path d="M 144.8175 250.85 
L 185.5085 250.85 
L 185.5085 250.781258 
L 144.8175 250.781258 
z
" clip-path="url(#p049ff47663)" style="fill: #1f77b4"/>
   </g>
   <g id="patch_10">
    <path d="M 226.1995 250.85 
L 266.8905 250.85 
L 266.8905 250.85 
L 226.1995 250.85 
z
" clip-path="url(#p049ff47663)" style="fill: #1f77b4"/>
   </g>
   <g id="patch_11">
    <path d="M 63.4355 250.85 
L 104.1265 250.85 
L 104.1265 250.827086 
L 63.4355 250.827086 
z
" clip-path="url(#p049ff47663)" style="fill: #1f77b4"/>
   </g>
   <g id="patch_12">
    <path d="M 144.8175 250.85 
L 185.5085 250.85 
L 185.5085 250.827086 
L 144.8175 250.827086 
z
" clip-path="url(#p049ff47663)" style="fill: #1f77b4"/>
   </g>
   <g id="patch_13">
    <path d="M 226.1995 250.85 
L 266.8905 250.85 
L 266.8905 250.827086 
L 226.1995 250.827086 
z
" clip-path="url(#p049ff47663)" style="fill: #1f77b4"/>
   </g>
   <g id="patch_14">
    <path d="M 307.5815 250.85 
L 348.2725 250.85 
L 348.2725 250.781258 
L 307.5815 250.781258 
z
" clip-path="url(#p049ff47663)" style="fill: #1f77b4"/>
   </g>
   <g id="patch_15">
    <path d="M 388.9635 250.85 
L 429.6545 250.85 
L 429.6545 250.85 
L 388.9635 250.85 
z
" clip-path="url(#p049ff47663)" style="fill: #1f77b4"/>
   </g>
   <g id="patch_16">
    <path d="M 63.4355 250.85 
L 104.1265 250.85 
L 104.1265 237.926555 
L 63.4355 237.926555 
z
" clip-path="url(#p049ff47663)" style="fill: #1f77b4"/>
   </g>
   <g id="patch_17">
    <path d="M 144.8175 250.85 
L 185.5085 250.85 
L 185.5085 247.206688 
L 144.8175 247.206688 
z
" clip-path="url(#p049ff47663)" style="fill: #1f77b4"/>
   </g>
   <g id="patch_18">
    <path d="M 226.1995 250.85 
L 266.8905 250.85 
L 266.8905 247.859735 
L 226.1995 247.859735 
z
" clip-path="url(#p049ff47663)" style="fill: #1f77b4"/>
   </g>
   <g id="patch_19">
    <path d="M 307.5815 250.85 
L 348.2725 250.85 
L 348.2725 238.270263 
L 307.5815 238.270263 
z
" clip-path="url(#p049ff47663)" style="fill: #1f77b4"/>
   </g>
   <g id="patch_20">
    <path d="M 388.9635 250.85 
L 429.6545 250.85 
L 429.6545 249.234569 
L 388.9635 249.234569 
z
" clip-path="url(#p049ff47663)" style="fill: #1f77b4"/>
   </g>
   <g id="patch_21">
    <path d="M 63.4355 250.85 
L 104.1265 250.85 
L 104.1265 250.781258 
L 63.4355 250.781258 
z
" clip-path="url(#p049ff47663)" style="fill: #1f77b4"/>
   </g>
   <g id="patch_22">
    <path d="M 144.8175 250.85 
L 185.5085 250.85 
L 185.5085 250.85 
L 144.8175 250.85 
z
" clip-path="url(#p049ff47663)" style="fill: #1f77b4"/>
   </g>
   <g id="patch_23">
    <path d="M 226.1995 250.85 
L 266.8905 250.85 
L 266.8905 250.85 
L 226.1995 250.85 
z
" clip-path="url(#p049ff47663)" style="fill: #1f77b4"/>
   </g>
   <g id="patch_24">
    <path d="M 307.5815 250.85 
L 348.2725 250.85 
L 348.2725 250.85 
L 307.5815 250.85 
z
" clip-path="url(#p049ff47663)" style="fill: #1f77b4"/>
   </g>
   <g id="patch_25">
    <path d="M 63.4355 250.85 
L 104.1265 250.85 
L 104.1265 248.993973 
L 63.4355 248.993973 
z
" clip-path="url(#p049ff47663)" style="fill: #1f77b4"/>
   </g>
   <g id="patch_26">
    <path d="M 144.8175 250.85 
L 185.5085 250.85 
L 185.5085 250.643775 
L 144.8175 250.643775 
z
" clip-path="url(#p049ff47663)" style="fill: #1f77b4"/>
   </g>
   <g id="patch_27">
    <path d="M 226.1995 250.85 
L 266.8905 250.85 
L 266.8905 250.781258 
L 226.1995 250.781258 
z
" clip-path="url(#p049ff47663)" style="fill: #1f77b4"/>
   </g>
   <g id="patch_28">
    <path d="M 307.5815 250.85 
L 348.2725 250.85 
L 348.2725 250.781258 
L 307.5815 250.781258 
z
" clip-path="url(#p049ff47663)" style="fill: #1f77b4"/>
   </g>
   <g id="patch_29">
    <path d="M 388.9635 250.85 
L 429.6545 250.85 
L 429.6545 250.368808 
L 388.9635 250.368808 
z
" clip-path="url(#p049ff47663)" style="fill: #1f77b4"/>
   </g>
   <g id="patch_30">
    <path d="M 63.4355 250.85 
L 104.1265 250.85 
L 104.1265 250.712517 
L 63.4355 250.712517 
z
" clip-path="url(#p049ff47663)" style="fill: #1f77b4"/>
   </g>
   <g id="patch_31">
    <path d="M 144.8175 250.85 
L 185.5085 250.85 
L 185.5085 250.712517 
L 144.8175 250.712517 
z
" clip-path="url(#p049ff47663)" style="fill: #1f77b4"/>
   </g>
   <g id="patch_32">
    <path d="M 226.1995 250.85 
L 266.8905 250.85 
L 266.8905 250.712517 
L 226.1995 250.712517 
z
" clip-path="url(#p049ff47663)" style="fill: #1f77b4"/>
   </g>
   <g id="patch_33">
    <path d="M 307.5815 250.85 
L 348.2725 250.85 
L 348.2725 250.712517 
L 307.5815 250.712517 
z
" clip-path="url(#p049ff47663)" style="fill: #1f77b4"/>
   </g>
   <g id="patch_34">
    <path d="M 388.9635 250.85 
L 429.6545 250.85 
L 429.6545 250.712517 
L 388.9635 250.712517 
z
" clip-path="url(#p049ff47663)" style="fill: #1f77b4"/>
   </g>
   <g id="patch_35">
    <path d="M 63.4355 250.85 
L 104.1265 250.85 
L 104.1265 250.643775 
L 63.4355 250.643775 
z
" clip-path="url(#p049ff47663)" style="fill: #1f77b4"/>
   </g>
   <g id="patch_36">
    <path d="M 144.8175 250.85 
L 185.5085 250.85 
L 185.5085 250.678146 
L 144.8175 250.678146 
z
" clip-path="url(#p049ff47663)" style="fill: #1f77b4"/>
   </g>
   <g id="patch_37">
    <path d="M 226.1995 250.85 
L 266.8905 250.85 
L 266.8905 250.781258 
L 226.1995 250.781258 
z
" clip-path="url(#p049ff47663)" style="fill: #1f77b4"/>
   </g>
   <g id="patch_38">
    <path d="M 307.5815 250.85 
L 348.2725 250.85 
L 348.2725 250.815629 
L 307.5815 250.815629 
z
" clip-path="url(#p049ff47663)" style="fill: #1f77b4"/>
   </g>
   <g id="patch_39">
    <path d="M 388.9635 250.85 
L 429.6545 250.85 
L 429.6545 250.815629 
L 388.9635 250.815629 
z
" clip-path="url(#p049ff47663)" style="fill: #1f77b4"/>
   </g>
   <g id="patch_40">
    <path d="M 63.4355 250.85 
L 104.1265 250.85 
L 104.1265 250.643775 
L 63.4355 250.643775 
z
" clip-path="url(#p049ff47663)" style="fill: #1f77b4"/>
   </g>
   <g id="patch_41">
    <path d="M 144.8175 250.85 
L 185.5085 250.85 
L 185.5085 250.85 
L 144.8175 250.85 
z
" clip-path="url(#p049ff47663)" style="fill: #1f77b4"/>
   </g>
   <g id="patch_42">
    <path d="M 226.1995 250.85 
L 266.8905 250.85 
L 266.8905 250.85 
L 226.1995 250.85 
z
" clip-path="url(#p049ff47663)" style="fill: #1f77b4"/>
   </g>
   <g id="patch_43">
    <path d="M 63.4355 250.85 
L 104.1265 250.85 
L 104.1265 250.643775 
L 63.4355 250.643775 
z
" clip-path="url(#p049ff47663)" style="fill: #1f77b4"/>
   </g>
   <g id="patch_44">
    <path d="M 144.8175 250.85 
L 185.5085 250.85 
L 185.5085 250.781258 
L 144.8175 250.781258 
z
" clip-path="url(#p049ff47663)" style="fill: #1f77b4"/>
   </g>
   <g id="patch_45">
    <path d="M 63.4355 250.85 
L 104.1265 250.85 
L 104.1265 175.054057 
L 63.4355 175.054057 
z
" clip-path="url(#p049ff47663)" style="fill: #1f77b4"/>
   </g>
   <g id="patch_46">
    <path d="M 144.8175 250.85 
L 185.5085 250.85 
L 185.5085 196.387814 
L 144.8175 196.387814 
z
" clip-path="url(#p049ff47663)" style="fill: #1f77b4"/>
   </g>
   <g id="patch_47">
    <path d="M 226.1995 250.85 
L 266.8905 250.85 
L 266.8905 203.513335 
L 226.1995 203.513335 
z
" clip-path="url(#p049ff47663)" style="fill: #1f77b4"/>
   </g>
   <g id="patch_48">
    <path d="M 307.5815 250.85 
L 348.2725 250.85 
L 348.2725 196.576982 
L 307.5815 196.576982 
z
" clip-path="url(#p049ff47663)" style="fill: #1f77b4"/>
   </g>
   <g id="patch_49">
    <path d="M 388.9635 250.85 
L 429.6545 250.85 
L 429.6545 210.932733 
L 388.9635 210.932733 
z
" clip-path="url(#p049ff47663)" style="fill: #1f77b4"/>
   </g>
   <g id="patch_50">
    <path d="M 63.4355 250.85 
L 104.1265 250.85 
L 104.1265 250.85 
L 63.4355 250.85 
z
" clip-path="url(#p049ff47663)" style="fill: #1f77b4"/>
   </g>
   <g id="patch_51">
    <path d="M 144.8175 250.85 
L 185.5085 250.85 
L 185.5085 250.85 
L 144.8175 250.85 
z
" clip-path="url(#p049ff47663)" style="fill: #1f77b4"/>
   </g>
   <g id="patch_52">
    <path d="M 226.1995 250.85 
L 266.8905 250.85 
L 266.8905 250.85 
L 226.1995 250.85 
z
" clip-path="url(#p049ff47663)" style="fill: #1f77b4"/>
   </g>
   <g id="patch_53">
    <path d="M 307.5815 250.85 
L 348.2725 250.85 
L 348.2725 250.85 
L 307.5815 250.85 
z
" clip-path="url(#p049ff47663)" style="fill: #1f77b4"/>
   </g>
   <g id="patch_54">
    <path d="M 388.9635 250.85 
L 429.6545 250.85 
L 429.6545 250.85 
L 388.9635 250.85 
z
" clip-path="url(#p049ff47663)" style="fill: #1f77b4"/>
   </g>
   <g id="patch_55">
    <path d="M 63.4355 250.85 
L 104.1265 250.85 
L 104.1265 250.781258 
L 63.4355 250.781258 
z
" clip-path="url(#p049ff47663)" style="fill: #1f77b4"/>
   </g>
   <g id="patch_56">
    <path d="M 144.8175 250.85 
L 185.5085 250.85 
L 185.5085 250.85 
L 144.8175 250.85 
z
" clip-path="url(#p049ff47663)" style="fill: #1f77b4"/>
   </g>
   <g id="patch_57">
    <path d="M 226.1995 250.85 
L 266.8905 250.85 
L 266.8905 250.85 
L 226.1995 250.85 
z
" clip-path="url(#p049ff47663)" style="fill: #1f77b4"/>
   </g>
   <g id="patch_58">
    <path d="M 307.5815 250.85 
L 348.2725 250.85 
L 348.2725 250.85 
L 307.5815 250.85 
z
" clip-path="url(#p049ff47663)" style="fill: #1f77b4"/>
   </g>
   <g id="patch_59">
    <path d="M 388.9635 250.85 
L 429.6545 250.85 
L 429.6545 250.85 
L 388.9635 250.85 
z
" clip-path="url(#p049ff47663)" style="fill: #1f77b4"/>
   </g>
   <g id="patch_60">
    <path d="M 63.4355 250.85 
L 104.1265 250.85 
L 104.1265 250.47192 
L 63.4355 250.47192 
z
" clip-path="url(#p049ff47663)" style="fill: #1f77b4"/>
   </g>
   <g id="patch_61">
    <path d="M 144.8175 250.85 
L 185.5085 250.85 
L 185.5085 250.643775 
L 144.8175 250.643775 
z
" clip-path="url(#p049ff47663)" style="fill: #1f77b4"/>
   </g>
   <g id="patch_62">
    <path d="M 226.1995 250.85 
L 266.8905 250.85 
L 266.8905 250.815629 
L 226.1995 250.815629 
z
" clip-path="url(#p049ff47663)" style="fill: #1f77b4"/>
   </g>
   <g id="patch_63">
    <path d="M 307.5815 250.85 
L 348.2725 250.85 
L 348.2725 250.85 
L 307.5815 250.85 
z
" clip-path="url(#p049ff47663)" style="fill: #1f77b4"/>
   </g>
   <g id="patch_64">
    <path d="M 388.9635 250.85 
L 429.6545 250.85 
L 429.6545 250.85 
L 388.9635 250.85 
z
" clip-path="url(#p049ff47663)" style="fill: #1f77b4"/>
   </g>
   <g id="patch_65">
    <path d="M 63.4355 250.85 
L 104.1265 250.85 
L 104.1265 243.254039 
L 63.4355 243.254039 
z
" clip-path="url(#p049ff47663)" style="fill: #1f77b4"/>
   </g>
   <g id="patch_66">
    <path d="M 144.8175 250.85 
L 185.5085 250.85 
L 185.5085 250.162583 
L 144.8175 250.162583 
z
" clip-path="url(#p049ff47663)" style="fill: #1f77b4"/>
   </g>
   <g id="patch_67">
    <path d="M 226.1995 250.85 
L 266.8905 250.85 
L 266.8905 246.702582 
L 226.1995 246.702582 
z
" clip-path="url(#p049ff47663)" style="fill: #1f77b4"/>
   </g>
   <g id="patch_68">
    <path d="M 307.5815 250.85 
L 348.2725 250.85 
L 348.2725 245.625628 
L 307.5815 245.625628 
z
" clip-path="url(#p049ff47663)" style="fill: #1f77b4"/>
   </g>
   <g id="patch_69">
    <path d="M 388.9635 250.85 
L 429.6545 250.85 
L 429.6545 246.622384 
L 388.9635 246.622384 
z
" clip-path="url(#p049ff47663)" style="fill: #1f77b4"/>
   </g>
   <g id="patch_70">
    <path d="M 63.4355 250.85 
L 104.1265 250.85 
L 104.1265 227.973469 
L 63.4355 227.973469 
z
" clip-path="url(#p049ff47663)" style="fill: #1f77b4"/>
   </g>
   <g id="patch_71">
    <path d="M 144.8175 250.85 
L 185.5085 250.85 
L 185.5085 231.256269 
L 144.8175 231.256269 
z
" clip-path="url(#p049ff47663)" style="fill: #1f77b4"/>
   </g>
   <g id="patch_72">
    <path d="M 226.1995 250.85 
L 266.8905 250.85 
L 266.8905 203.266332 
L 226.1995 203.266332 
z
" clip-path="url(#p049ff47663)" style="fill: #1f77b4"/>
   </g>
   <g id="patch_73">
    <path d="M 307.5815 250.85 
L 348.2725 250.85 
L 348.2725 222.156058 
L 307.5815 222.156058 
z
" clip-path="url(#p049ff47663)" style="fill: #1f77b4"/>
   </g>
   <g id="patch_74">
    <path d="M 388.9635 250.85 
L 429.6545 250.85 
L 429.6545 202.953041 
L 388.9635 202.953041 
z
" clip-path="url(#p049ff47663)" style="fill: #1f77b4"/>
   </g>
   <g id="patch_75">
    <path d="M 63.4355 250.85 
L 104.1265 250.85 
L 104.1265 250.85 
L 63.4355 250.85 
z
" clip-path="url(#p049ff47663)" style="fill: #1f77b4"/>
   </g>
   <g id="patch_76">
    <path d="M 144.8175 250.85 
L 185.5085 250.85 
L 185.5085 250.85 
L 144.8175 250.85 
z
" clip-path="url(#p049ff47663)" style="fill: #1f77b4"/>
   </g>
   <g id="patch_77">
    <path d="M 63.4355 250.85 
L 104.1265 250.85 
L 104.1265 249.990728 
L 63.4355 249.990728 
z
" clip-path="url(#p049ff47663)" style="fill: #1f77b4"/>
   </g>
   <g id="patch_78">
    <path d="M 144.8175 250.85 
L 185.5085 250.85 
L 185.5085 250.162583 
L 144.8175 250.162583 
z
" clip-path="url(#p049ff47663)" style="fill: #1f77b4"/>
   </g>
   <g id="patch_79">
    <path d="M 226.1995 250.85 
L 266.8905 250.85 
L 266.8905 250.43755 
L 226.1995 250.43755 
z
" clip-path="url(#p049ff47663)" style="fill: #1f77b4"/>
   </g>
   <g id="patch_80">
    <path d="M 307.5815 250.85 
L 348.2725 250.85 
L 348.2725 250.781258 
L 307.5815 250.781258 
z
" clip-path="url(#p049ff47663)" style="fill: #1f77b4"/>
   </g>
   <g id="patch_81">
    <path d="M 388.9635 250.85 
L 429.6545 250.85 
L 429.6545 250.712517 
L 388.9635 250.712517 
z
" clip-path="url(#p049ff47663)" style="fill: #1f77b4"/>
   </g>
   <g id="patch_82">
    <path d="M 63.4355 250.85 
L 104.1265 250.85 
L 104.1265 250.643775 
L 63.4355 250.643775 
z
" clip-path="url(#p049ff47663)" style="fill: #1f77b4"/>
   </g>
   <g id="patch_83">
    <path d="M 144.8175 250.85 
L 185.5085 250.85 
L 185.5085 250.643775 
L 144.8175 250.643775 
z
" clip-path="url(#p049ff47663)" style="fill: #1f77b4"/>
   </g>
   <g id="patch_84">
    <path d="M 226.1995 250.85 
L 266.8905 250.85 
L 266.8905 250.781258 
L 226.1995 250.781258 
z
" clip-path="url(#p049ff47663)" style="fill: #1f77b4"/>
   </g>
   <g id="patch_85">
    <path d="M 307.5815 250.85 
L 348.2725 250.85 
L 348.2725 250.85 
L 307.5815 250.85 
z
" clip-path="url(#p049ff47663)" style="fill: #1f77b4"/>
   </g>
   <g id="patch_86">
    <path d="M 388.9635 250.85 
L 429.6545 250.85 
L 429.6545 250.85 
L 388.9635 250.85 
z
" clip-path="url(#p049ff47663)" style="fill: #1f77b4"/>
   </g>
   <g id="patch_87">
    <path d="M 63.4355 250.85 
L 104.1265 250.85 
L 104.1265 249.406424 
L 63.4355 249.406424 
z
" clip-path="url(#p049ff47663)" style="fill: #1f77b4"/>
   </g>
   <g id="patch_88">
    <path d="M 144.8175 250.85 
L 185.5085 250.85 
L 185.5085 250.815629 
L 144.8175 250.815629 
z
" clip-path="url(#p049ff47663)" style="fill: #1f77b4"/>
   </g>
   <g id="patch_89">
    <path d="M 226.1995 250.85 
L 266.8905 250.85 
L 266.8905 250.815629 
L 226.1995 250.815629 
z
" clip-path="url(#p049ff47663)" style="fill: #1f77b4"/>
   </g>
   <g id="patch_90">
    <path d="M 307.5815 250.85 
L 348.2725 250.85 
L 348.2725 250.815629 
L 307.5815 250.815629 
z
" clip-path="url(#p049ff47663)" style="fill: #1f77b4"/>
   </g>
   <g id="patch_91">
    <path d="M 388.9635 250.85 
L 429.6545 250.85 
L 429.6545 250.815629 
L 388.9635 250.815629 
z
" clip-path="url(#p049ff47663)" style="fill: #1f77b4"/>
   </g>
   <g id="patch_92">
    <path d="M 63.4355 250.85 
L 104.1265 250.85 
L 104.1265 250.85 
L 63.4355 250.85 
z
" clip-path="url(#p049ff47663)" style="fill: #1f77b4"/>
   </g>
   <g id="patch_93">
    <path d="M 63.4355 250.85 
L 104.1265 250.85 
L 104.1265 250.506291 
L 63.4355 250.506291 
z
" clip-path="url(#p049ff47663)" style="fill: #1f77b4"/>
   </g>
   <g id="patch_94">
    <path d="M 144.8175 250.85 
L 185.5085 250.85 
L 185.5085 250.506291 
L 144.8175 250.506291 
z
" clip-path="url(#p049ff47663)" style="fill: #1f77b4"/>
   </g>
   <g id="patch_95">
    <path d="M 226.1995 250.85 
L 266.8905 250.85 
L 266.8905 250.781258 
L 226.1995 250.781258 
z
" clip-path="url(#p049ff47663)" style="fill: #1f77b4"/>
   </g>
   <g id="patch_96">
    <path d="M 63.4355 250.85 
L 104.1265 250.85 
L 104.1265 249.406424 
L 63.4355 249.406424 
z
" clip-path="url(#p049ff47663)" style="fill: #1f77b4"/>
   </g>
   <g id="patch_97">
    <path d="M 144.8175 250.85 
L 185.5085 250.85 
L 185.5085 250.781258 
L 144.8175 250.781258 
z
" clip-path="url(#p049ff47663)" style="fill: #1f77b4"/>
   </g>
   <g id="patch_98">
    <path d="M 226.1995 250.85 
L 266.8905 250.85 
L 266.8905 250.781258 
L 226.1995 250.781258 
z
" clip-path="url(#p049ff47663)" style="fill: #1f77b4"/>
   </g>
   <g id="patch_99">
    <path d="M 307.5815 250.85 
L 348.2725 250.85 
L 348.2725 250.85 
L 307.5815 250.85 
z
" clip-path="url(#p049ff47663)" style="fill: #1f77b4"/>
   </g>
   <g id="patch_100">
    <path d="M 388.9635 250.85 
L 429.6545 250.85 
L 429.6545 250.85 
L 388.9635 250.85 
z
" clip-path="url(#p049ff47663)" style="fill: #1f77b4"/>
   </g>
   <g id="patch_101">
    <path d="M 63.4355 250.85 
L 104.1265 250.85 
L 104.1265 250.85 
L 63.4355 250.85 
z
" clip-path="url(#p049ff47663)" style="fill: #1f77b4"/>
   </g>
   <g id="patch_102">
    <path d="M 63.4355 250.85 
L 104.1265 250.85 
L 104.1265 173.141612 
L 63.4355 173.141612 
z
" clip-path="url(#p049ff47663)" style="fill: #1f77b4"/>
   </g>
   <g id="patch_103">
    <path d="M 144.8175 250.85 
L 185.5085 250.85 
L 185.5085 190.240114 
L 144.8175 190.240114 
z
" clip-path="url(#p049ff47663)" style="fill: #1f77b4"/>
   </g>
   <g id="patch_104">
    <path d="M 226.1995 250.85 
L 266.8905 250.85 
L 266.8905 201.803902 
L 226.1995 201.803902 
z
" clip-path="url(#p049ff47663)" style="fill: #1f77b4"/>
   </g>
   <g id="patch_105">
    <path d="M 307.5815 250.85 
L 348.2725 250.85 
L 348.2725 210.715784 
L 307.5815 210.715784 
z
" clip-path="url(#p049ff47663)" style="fill: #1f77b4"/>
   </g>
   <g id="patch_106">
    <path d="M 388.9635 250.85 
L 429.6545 250.85 
L 429.6545 217.072764 
L 388.9635 217.072764 
z
" clip-path="url(#p049ff47663)" style="fill: #1f77b4"/>
   </g>
   <g id="patch_107">
    <path d="M 63.4355 250.85 
L 104.1265 250.85 
L 104.1265 250.506291 
L 63.4355 250.506291 
z
" clip-path="url(#p049ff47663)" style="fill: #1f77b4"/>
   </g>
   <g id="patch_108">
    <path d="M 144.8175 250.85 
L 185.5085 250.85 
L 185.5085 250.506291 
L 144.8175 250.506291 
z
" clip-path="url(#p049ff47663)" style="fill: #1f77b4"/>
   </g>
   <g id="patch_109">
    <path d="M 226.1995 250.85 
L 266.8905 250.85 
L 266.8905 250.506291 
L 226.1995 250.506291 
z
" clip-path="url(#p049ff47663)" style="fill: #1f77b4"/>
   </g>
   <g id="patch_110">
    <path d="M 307.5815 250.85 
L 348.2725 250.85 
L 348.2725 250.815629 
L 307.5815 250.815629 
z
" clip-path="url(#p049ff47663)" style="fill: #1f77b4"/>
   </g>
   <g id="patch_111">
    <path d="M 388.9635 250.85 
L 429.6545 250.85 
L 429.6545 250.815629 
L 388.9635 250.815629 
z
" clip-path="url(#p049ff47663)" style="fill: #1f77b4"/>
   </g>
   <g id="patch_112">
    <path d="M 63.4355 250.85 
L 104.1265 250.85 
L 104.1265 210.261632 
L 63.4355 210.261632 
z
" clip-path="url(#p049ff47663)" style="fill: #1f77b4"/>
   </g>
   <g id="patch_113">
    <path d="M 144.8175 250.85 
L 185.5085 250.85 
L 185.5085 210.340757 
L 144.8175 210.340757 
z
" clip-path="url(#p049ff47663)" style="fill: #1f77b4"/>
   </g>
   <g id="patch_114">
    <path d="M 226.1995 250.85 
L 266.8905 250.85 
L 266.8905 224.181213 
L 226.1995 224.181213 
z
" clip-path="url(#p049ff47663)" style="fill: #1f77b4"/>
   </g>
   <g id="patch_115">
    <path d="M 307.5815 250.85 
L 348.2725 250.85 
L 348.2725 222.982055 
L 307.5815 222.982055 
z
" clip-path="url(#p049ff47663)" style="fill: #1f77b4"/>
   </g>
   <g id="patch_116">
    <path d="M 388.9635 250.85 
L 429.6545 250.85 
L 429.6545 209.970777 
L 388.9635 209.970777 
z
" clip-path="url(#p049ff47663)" style="fill: #1f77b4"/>
   </g>
   <g id="patch_117">
    <path d="M 63.4355 250.85 
L 104.1265 250.85 
L 104.1265 250.43755 
L 63.4355 250.43755 
z
" clip-path="url(#p049ff47663)" style="fill: #1f77b4"/>
   </g>
   <g id="patch_118">
    <path d="M 144.8175 250.85 
L 185.5085 250.85 
L 185.5085 250.506291 
L 144.8175 250.506291 
z
" clip-path="url(#p049ff47663)" style="fill: #1f77b4"/>
   </g>
   <g id="patch_119">
    <path d="M 226.1995 250.85 
L 266.8905 250.85 
L 266.8905 250.643775 
L 226.1995 250.643775 
z
" clip-path="url(#p049ff47663)" style="fill: #1f77b4"/>
   </g>
   <g id="patch_120">
    <path d="M 307.5815 250.85 
L 348.2725 250.85 
L 348.2725 250.712517 
L 307.5815 250.712517 
z
" clip-path="url(#p049ff47663)" style="fill: #1f77b4"/>
   </g>
   <g id="patch_121">
    <path d="M 388.9635 250.85 
L 429.6545 250.85 
L 429.6545 250.815629 
L 388.9635 250.815629 
z
" clip-path="url(#p049ff47663)" style="fill: #1f77b4"/>
   </g>
   <g id="patch_122">
    <path d="M 63.4355 250.85 
L 104.1265 250.85 
L 104.1265 250.643775 
L 63.4355 250.643775 
z
" clip-path="url(#p049ff47663)" style="fill: #1f77b4"/>
   </g>
   <g id="patch_123">
    <path d="M 144.8175 250.85 
L 185.5085 250.85 
L 185.5085 250.815629 
L 144.8175 250.815629 
z
" clip-path="url(#p049ff47663)" style="fill: #1f77b4"/>
   </g>
   <g id="patch_124">
    <path d="M 226.1995 250.85 
L 266.8905 250.85 
L 266.8905 250.815629 
L 226.1995 250.815629 
z
" clip-path="url(#p049ff47663)" style="fill: #1f77b4"/>
   </g>
   <g id="patch_125">
    <path d="M 307.5815 250.85 
L 348.2725 250.85 
L 348.2725 250.781258 
L 307.5815 250.781258 
z
" clip-path="url(#p049ff47663)" style="fill: #1f77b4"/>
   </g>
   <g id="patch_126">
    <path d="M 388.9635 250.85 
L 429.6545 250.85 
L 429.6545 250.85 
L 388.9635 250.85 
z
" clip-path="url(#p049ff47663)" style="fill: #1f77b4"/>
   </g>
   <g id="patch_127">
    <path d="M 63.4355 250.85 
L 104.1265 250.85 
L 104.1265 250.643775 
L 63.4355 250.643775 
z
" clip-path="url(#p049ff47663)" style="fill: #1f77b4"/>
   </g>
   <g id="patch_128">
    <path d="M 144.8175 250.85 
L 185.5085 250.85 
L 185.5085 250.781258 
L 144.8175 250.781258 
z
" clip-path="url(#p049ff47663)" style="fill: #1f77b4"/>
   </g>
   <g id="patch_129">
    <path d="M 226.1995 250.85 
L 266.8905 250.85 
L 266.8905 250.85 
L 226.1995 250.85 
z
" clip-path="url(#p049ff47663)" style="fill: #1f77b4"/>
   </g>
   <g id="patch_130">
    <path d="M 307.5815 250.85 
L 348.2725 250.85 
L 348.2725 250.85 
L 307.5815 250.85 
z
" clip-path="url(#p049ff47663)" style="fill: #1f77b4"/>
   </g>
   <g id="patch_131">
    <path d="M 388.9635 250.85 
L 429.6545 250.85 
L 429.6545 250.85 
L 388.9635 250.85 
z
" clip-path="url(#p049ff47663)" style="fill: #1f77b4"/>
   </g>
   <g id="patch_132">
    <path d="M 63.4355 250.85 
L 104.1265 250.85 
L 104.1265 249.036364 
L 63.4355 249.036364 
z
" clip-path="url(#p049ff47663)" style="fill: #1f77b4"/>
   </g>
   <g id="patch_133">
    <path d="M 144.8175 250.85 
L 185.5085 250.85 
L 185.5085 250.43755 
L 144.8175 250.43755 
z
" clip-path="url(#p049ff47663)" style="fill: #1f77b4"/>
   </g>
   <g id="patch_134">
    <path d="M 226.1995 250.85 
L 266.8905 250.85 
L 266.8905 249.871576 
L 226.1995 249.871576 
z
" clip-path="url(#p049ff47663)" style="fill: #1f77b4"/>
   </g>
   <g id="patch_135">
    <path d="M 307.5815 250.85 
L 348.2725 250.85 
L 348.2725 249.871576 
L 307.5815 249.871576 
z
" clip-path="url(#p049ff47663)" style="fill: #1f77b4"/>
   </g>
   <g id="patch_136">
    <path d="M 388.9635 250.85 
L 429.6545 250.85 
L 429.6545 249.871576 
L 388.9635 249.871576 
z
" clip-path="url(#p049ff47663)" style="fill: #1f77b4"/>
   </g>
   <g id="patch_137">
    <path d="M 63.4355 250.85 
L 104.1265 250.85 
L 104.1265 236.826305 
L 63.4355 236.826305 
z
" clip-path="url(#p049ff47663)" style="fill: #1f77b4"/>
   </g>
   <g id="patch_138">
    <path d="M 144.8175 250.85 
L 185.5085 250.85 
L 185.5085 239.460641 
L 144.8175 239.460641 
z
" clip-path="url(#p049ff47663)" style="fill: #1f77b4"/>
   </g>
   <g id="patch_139">
    <path d="M 226.1995 250.85 
L 266.8905 250.85 
L 266.8905 248.913775 
L 226.1995 248.913775 
z
" clip-path="url(#p049ff47663)" style="fill: #1f77b4"/>
   </g>
   <g id="patch_140">
    <path d="M 307.5815 250.85 
L 348.2725 250.85 
L 348.2725 250.592219 
L 307.5815 250.592219 
z
" clip-path="url(#p049ff47663)" style="fill: #1f77b4"/>
   </g>
   <g id="patch_141">
    <path d="M 388.9635 250.85 
L 429.6545 250.85 
L 429.6545 250.592219 
L 388.9635 250.592219 
z
" clip-path="url(#p049ff47663)" style="fill: #1f77b4"/>
   </g>
   <g id="patch_142">
    <path d="M 63.4355 250.85 
L 104.1265 250.85 
L 104.1265 249.320496 
L 63.4355 249.320496 
z
" clip-path="url(#p049ff47663)" style="fill: #1f77b4"/>
   </g>
   <g id="patch_143">
    <path d="M 144.8175 250.85 
L 185.5085 250.85 
L 185.5085 249.853245 
L 144.8175 249.853245 
z
" clip-path="url(#p049ff47663)" style="fill: #1f77b4"/>
   </g>
   <g id="patch_144">
    <path d="M 226.1995 250.85 
L 266.8905 250.85 
L 266.8905 250.643775 
L 226.1995 250.643775 
z
" clip-path="url(#p049ff47663)" style="fill: #1f77b4"/>
   </g>
   <g id="patch_145">
    <path d="M 307.5815 250.85 
L 348.2725 250.85 
L 348.2725 250.698768 
L 307.5815 250.698768 
z
" clip-path="url(#p049ff47663)" style="fill: #1f77b4"/>
   </g>
   <g id="patch_146">
    <path d="M 388.9635 250.85 
L 429.6545 250.85 
L 429.6545 250.506291 
L 388.9635 250.506291 
z
" clip-path="url(#p049ff47663)" style="fill: #1f77b4"/>
   </g>
   <g id="patch_147">
    <path d="M 63.4355 250.85 
L 104.1265 250.85 
L 104.1265 250.704879 
L 63.4355 250.704879 
z
" clip-path="url(#p049ff47663)" style="fill: #1f77b4"/>
   </g>
   <g id="patch_148">
    <path d="M 144.8175 250.85 
L 185.5085 250.85 
L 185.5085 250.815629 
L 144.8175 250.815629 
z
" clip-path="url(#p049ff47663)" style="fill: #1f77b4"/>
   </g>
   <g id="patch_149">
    <path d="M 226.1995 250.85 
L 266.8905 250.85 
L 266.8905 250.815629 
L 226.1995 250.815629 
z
" clip-path="url(#p049ff47663)" style="fill: #1f77b4"/>
   </g>
   <g id="patch_150">
    <path d="M 307.5815 250.85 
L 348.2725 250.85 
L 348.2725 250.842362 
L 307.5815 250.842362 
z
" clip-path="url(#p049ff47663)" style="fill: #1f77b4"/>
   </g>
   <g id="patch_151">
    <path d="M 388.9635 250.85 
L 429.6545 250.85 
L 429.6545 250.842362 
L 388.9635 250.842362 
z
" clip-path="url(#p049ff47663)" style="fill: #1f77b4"/>
   </g>
   <g id="patch_152">
    <path d="M 63.4355 250.85 
L 104.1265 250.85 
L 104.1265 250.552119 
L 63.4355 250.552119 
z
" clip-path="url(#p049ff47663)" style="fill: #1f77b4"/>
   </g>
   <g id="patch_153">
    <path d="M 144.8175 250.85 
L 185.5085 250.85 
L 185.5085 250.689603 
L 144.8175 250.689603 
z
" clip-path="url(#p049ff47663)" style="fill: #1f77b4"/>
   </g>
   <g id="patch_154">
    <path d="M 226.1995 250.85 
L 266.8905 250.85 
L 266.8905 250.643775 
L 226.1995 250.643775 
z
" clip-path="url(#p049ff47663)" style="fill: #1f77b4"/>
   </g>
   <g id="patch_155">
    <path d="M 307.5815 250.85 
L 348.2725 250.85 
L 348.2725 250.575033 
L 307.5815 250.575033 
z
" clip-path="url(#p049ff47663)" style="fill: #1f77b4"/>
   </g>
   <g id="patch_156">
    <path d="M 388.9635 250.85 
L 429.6545 250.85 
L 429.6545 250.781258 
L 388.9635 250.781258 
z
" clip-path="url(#p049ff47663)" style="fill: #1f77b4"/>
   </g>
   <g id="patch_157">
    <path d="M 63.4355 250.85 
L 104.1265 250.85 
L 104.1265 250.85 
L 63.4355 250.85 
z
" clip-path="url(#p049ff47663)" style="fill: #1f77b4"/>
   </g>
   <g id="patch_158">
    <path d="M 144.8175 250.85 
L 185.5085 250.85 
L 185.5085 250.85 
L 144.8175 250.85 
z
" clip-path="url(#p049ff47663)" style="fill: #1f77b4"/>
   </g>
   <g id="patch_159">
    <path d="M 226.1995 250.85 
L 266.8905 250.85 
L 266.8905 250.85 
L 226.1995 250.85 
z
" clip-path="url(#p049ff47663)" style="fill: #1f77b4"/>
   </g>
   <g id="patch_160">
    <path d="M 307.5815 250.85 
L 348.2725 250.85 
L 348.2725 250.85 
L 307.5815 250.85 
z
" clip-path="url(#p049ff47663)" style="fill: #1f77b4"/>
   </g>
   <g id="patch_161">
    <path d="M 63.4355 250.85 
L 104.1265 250.85 
L 104.1265 250.85 
L 63.4355 250.85 
z
" clip-path="url(#p049ff47663)" style="fill: #1f77b4"/>
   </g>
   <g id="patch_162">
    <path d="M 144.8175 250.85 
L 185.5085 250.85 
L 185.5085 250.85 
L 144.8175 250.85 
z
" clip-path="url(#p049ff47663)" style="fill: #1f77b4"/>
   </g>
   <g id="patch_163">
    <path d="M 226.1995 250.85 
L 266.8905 250.85 
L 266.8905 250.85 
L 226.1995 250.85 
z
" clip-path="url(#p049ff47663)" style="fill: #1f77b4"/>
   </g>
   <g id="patch_164">
    <path d="M 63.4355 250.85 
L 104.1265 250.85 
L 104.1265 250.85 
L 63.4355 250.85 
z
" clip-path="url(#p049ff47663)" style="fill: #1f77b4"/>
   </g>
   <g id="patch_165">
    <path d="M 144.8175 250.85 
L 185.5085 250.85 
L 185.5085 250.85 
L 144.8175 250.85 
z
" clip-path="url(#p049ff47663)" style="fill: #1f77b4"/>
   </g>
   <g id="patch_166">
    <path d="M 226.1995 250.85 
L 266.8905 250.85 
L 266.8905 250.85 
L 226.1995 250.85 
z
" clip-path="url(#p049ff47663)" style="fill: #1f77b4"/>
   </g>
   <g id="patch_167">
    <path d="M 307.5815 250.85 
L 348.2725 250.85 
L 348.2725 250.85 
L 307.5815 250.85 
z
" clip-path="url(#p049ff47663)" style="fill: #1f77b4"/>
   </g>
   <g id="patch_168">
    <path d="M 63.4355 250.85 
L 104.1265 250.85 
L 104.1265 250.85 
L 63.4355 250.85 
z
" clip-path="url(#p049ff47663)" style="fill: #1f77b4"/>
   </g>
   <g id="patch_169">
    <path d="M 144.8175 250.85 
L 185.5085 250.85 
L 185.5085 250.85 
L 144.8175 250.85 
z
" clip-path="url(#p049ff47663)" style="fill: #1f77b4"/>
   </g>
   <g id="patch_170">
    <path d="M 63.4355 250.85 
L 104.1265 250.85 
L 104.1265 22.230952 
L 63.4355 22.230952 
z
" clip-path="url(#p049ff47663)" style="fill: #1f77b4"/>
   </g>
   <g id="patch_171">
    <path d="M 144.8175 250.85 
L 185.5085 250.85 
L 185.5085 105.201112 
L 144.8175 105.201112 
z
" clip-path="url(#p049ff47663)" style="fill: #1f77b4"/>
   </g>
   <g id="patch_172">
    <path d="M 226.1995 250.85 
L 266.8905 250.85 
L 266.8905 142.525736 
L 226.1995 142.525736 
z
" clip-path="url(#p049ff47663)" style="fill: #1f77b4"/>
   </g>
   <g id="patch_173">
    <path d="M 307.5815 250.85 
L 348.2725 250.85 
L 348.2725 133.686327 
L 307.5815 133.686327 
z
" clip-path="url(#p049ff47663)" style="fill: #1f77b4"/>
   </g>
   <g id="patch_174">
    <path d="M 388.9635 250.85 
L 429.6545 250.85 
L 429.6545 156.92678 
L 388.9635 156.92678 
z
" clip-path="url(#p049ff47663)" style="fill: #1f77b4"/>
   </g>
   <g id="patch_175">
    <path d="M 63.4355 250.85 
L 104.1265 250.85 
L 104.1265 250.489106 
L 63.4355 250.489106 
z
" clip-path="url(#p049ff47663)" style="fill: #1f77b4"/>
   </g>
   <g id="patch_176">
    <path d="M 144.8175 250.85 
L 185.5085 250.85 
L 185.5085 250.781258 
L 144.8175 250.781258 
z
" clip-path="url(#p049ff47663)" style="fill: #1f77b4"/>
   </g>
   <g id="patch_177">
    <path d="M 226.1995 250.85 
L 266.8905 250.85 
L 266.8905 250.781258 
L 226.1995 250.781258 
z
" clip-path="url(#p049ff47663)" style="fill: #1f77b4"/>
   </g>
   <g id="patch_178">
    <path d="M 307.5815 250.85 
L 348.2725 250.85 
L 348.2725 250.781258 
L 307.5815 250.781258 
z
" clip-path="url(#p049ff47663)" style="fill: #1f77b4"/>
   </g>
   <g id="patch_179">
    <path d="M 388.9635 250.85 
L 429.6545 250.85 
L 429.6545 250.746887 
L 388.9635 250.746887 
z
" clip-path="url(#p049ff47663)" style="fill: #1f77b4"/>
   </g>
   <g id="patch_180">
    <path d="M 63.4355 250.85 
L 104.1265 250.85 
L 104.1265 44.305826 
L 63.4355 44.305826 
z
" clip-path="url(#p049ff47663)" style="fill: #1f77b4"/>
   </g>
   <g id="patch_181">
    <path d="M 144.8175 250.85 
L 185.5085 250.85 
L 185.5085 144.455871 
L 144.8175 144.455871 
z
" clip-path="url(#p049ff47663)" style="fill: #1f77b4"/>
   </g>
   <g id="patch_182">
    <path d="M 226.1995 250.85 
L 266.8905 250.85 
L 266.8905 175.286739 
L 226.1995 175.286739 
z
" clip-path="url(#p049ff47663)" style="fill: #1f77b4"/>
   </g>
   <g id="patch_183">
    <path d="M 307.5815 250.85 
L 348.2725 250.85 
L 348.2725 164.173368 
L 307.5815 164.173368 
z
" clip-path="url(#p049ff47663)" style="fill: #1f77b4"/>
   </g>
   <g id="patch_184">
    <path d="M 388.9635 250.85 
L 429.6545 250.85 
L 429.6545 191.973337 
L 388.9635 191.973337 
z
" clip-path="url(#p049ff47663)" style="fill: #1f77b4"/>
   </g>
   <g id="patch_185">
    <path d="M 63.4355 250.85 
L 104.1265 250.85 
L 104.1265 246.920264 
L 63.4355 246.920264 
z
" clip-path="url(#p049ff47663)" style="fill: #1f77b4"/>
   </g>
   <g id="patch_186">
    <path d="M 144.8175 250.85 
L 185.5085 250.85 
L 185.5085 247.584768 
L 144.8175 247.584768 
z
" clip-path="url(#p049ff47663)" style="fill: #1f77b4"/>
   </g>
   <g id="patch_187">
    <path d="M 226.1995 250.85 
L 266.8905 250.85 
L 266.8905 250.391722 
L 226.1995 250.391722 
z
" clip-path="url(#p049ff47663)" style="fill: #1f77b4"/>
   </g>
   <g id="patch_188">
    <path d="M 307.5815 250.85 
L 348.2725 250.85 
L 348.2725 250.391722 
L 307.5815 250.391722 
z
" clip-path="url(#p049ff47663)" style="fill: #1f77b4"/>
   </g>
   <g id="patch_189">
    <path d="M 388.9635 250.85 
L 429.6545 250.85 
L 429.6545 250.533788 
L 388.9635 250.533788 
z
" clip-path="url(#p049ff47663)" style="fill: #1f77b4"/>
   </g>
   <g id="patch_190">
    <path d="M 63.4355 250.85 
L 104.1265 250.85 
L 104.1265 218.432546 
L 63.4355 218.432546 
z
" clip-path="url(#p049ff47663)" style="fill: #1f77b4"/>
   </g>
   <g id="patch_191">
    <path d="M 144.8175 250.85 
L 185.5085 250.85 
L 185.5085 239.988807 
L 144.8175 239.988807 
z
" clip-path="url(#p049ff47663)" style="fill: #1f77b4"/>
   </g>
   <g id="patch_192">
    <path d="M 226.1995 250.85 
L 266.8905 250.85 
L 266.8905 245.419403 
L 226.1995 245.419403 
z
" clip-path="url(#p049ff47663)" style="fill: #1f77b4"/>
   </g>
   <g id="patch_193">
    <path d="M 307.5815 250.85 
L 348.2725 250.85 
L 348.2725 245.419403 
L 307.5815 245.419403 
z
" clip-path="url(#p049ff47663)" style="fill: #1f77b4"/>
   </g>
   <g id="patch_194">
    <path d="M 388.9635 250.85 
L 429.6545 250.85 
L 429.6545 243.707734 
L 388.9635 243.707734 
z
" clip-path="url(#p049ff47663)" style="fill: #1f77b4"/>
   </g>
   <g id="patch_195">
    <path d="M 63.4355 250.85 
L 104.1265 250.85 
L 104.1265 250.678146 
L 63.4355 250.678146 
z
" clip-path="url(#p049ff47663)" style="fill: #1f77b4"/>
   </g>
   <g id="patch_196">
    <path d="M 144.8175 250.85 
L 185.5085 250.85 
L 185.5085 250.678146 
L 144.8175 250.678146 
z
" clip-path="url(#p049ff47663)" style="fill: #1f77b4"/>
   </g>
   <g id="patch_197">
    <path d="M 226.1995 250.85 
L 266.8905 250.85 
L 266.8905 250.678146 
L 226.1995 250.678146 
z
" clip-path="url(#p049ff47663)" style="fill: #1f77b4"/>
   </g>
   <g id="patch_198">
    <path d="M 307.5815 250.85 
L 348.2725 250.85 
L 348.2725 250.678146 
L 307.5815 250.678146 
z
" clip-path="url(#p049ff47663)" style="fill: #1f77b4"/>
   </g>
   <g id="patch_199">
    <path d="M 388.9635 250.85 
L 429.6545 250.85 
L 429.6545 250.678146 
L 388.9635 250.678146 
z
" clip-path="url(#p049ff47663)" style="fill: #1f77b4"/>
   </g>
   <g id="patch_200">
    <path d="M 63.4355 250.85 
L 104.1265 250.85 
L 104.1265 250.712517 
L 63.4355 250.712517 
z
" clip-path="url(#p049ff47663)" style="fill: #1f77b4"/>
   </g>
   <g id="patch_201">
    <path d="M 144.8175 250.85 
L 185.5085 250.85 
L 185.5085 250.712517 
L 144.8175 250.712517 
z
" clip-path="url(#p049ff47663)" style="fill: #1f77b4"/>
   </g>
   <g id="patch_202">
    <path d="M 226.1995 250.85 
L 266.8905 250.85 
L 266.8905 250.712517 
L 226.1995 250.712517 
z
" clip-path="url(#p049ff47663)" style="fill: #1f77b4"/>
   </g>
   <g id="patch_203">
    <path d="M 307.5815 250.85 
L 348.2725 250.85 
L 348.2725 250.832815 
L 307.5815 250.832815 
z
" clip-path="url(#p049ff47663)" style="fill: #1f77b4"/>
   </g>
   <g id="patch_204">
    <path d="M 388.9635 250.85 
L 429.6545 250.85 
L 429.6545 250.832815 
L 388.9635 250.832815 
z
" clip-path="url(#p049ff47663)" style="fill: #1f77b4"/>
   </g>
   <g id="patch_205">
    <path d="M 63.4355 250.85 
L 104.1265 250.85 
L 104.1265 212.59366 
L 63.4355 212.59366 
z
" clip-path="url(#p049ff47663)" style="fill: #1f77b4"/>
   </g>
   <g id="patch_206">
    <path d="M 144.8175 250.85 
L 185.5085 250.85 
L 185.5085 211.193776 
L 144.8175 211.193776 
z
" clip-path="url(#p049ff47663)" style="fill: #1f77b4"/>
   </g>
   <g id="patch_207">
    <path d="M 226.1995 250.85 
L 266.8905 250.85 
L 266.8905 236.534535 
L 226.1995 236.534535 
z
" clip-path="url(#p049ff47663)" style="fill: #1f77b4"/>
   </g>
   <g id="patch_208">
    <path d="M 307.5815 250.85 
L 348.2725 250.85 
L 348.2725 236.534535 
L 307.5815 236.534535 
z
" clip-path="url(#p049ff47663)" style="fill: #1f77b4"/>
   </g>
   <g id="patch_209">
    <path d="M 388.9635 250.85 
L 429.6545 250.85 
L 429.6545 212.118203 
L 388.9635 212.118203 
z
" clip-path="url(#p049ff47663)" style="fill: #1f77b4"/>
   </g>
   <g id="patch_210">
    <path d="M 63.4355 250.85 
L 104.1265 250.85 
L 104.1265 250.746887 
L 63.4355 250.746887 
z
" clip-path="url(#p049ff47663)" style="fill: #1f77b4"/>
   </g>
   <g id="patch_211">
    <path d="M 144.8175 250.85 
L 185.5085 250.85 
L 185.5085 250.746887 
L 144.8175 250.746887 
z
" clip-path="url(#p049ff47663)" style="fill: #1f77b4"/>
   </g>
   <g id="patch_212">
    <path d="M 226.1995 250.85 
L 266.8905 250.85 
L 266.8905 250.85 
L 226.1995 250.85 
z
" clip-path="url(#p049ff47663)" style="fill: #1f77b4"/>
   </g>
   <g id="patch_213">
    <path d="M 307.5815 250.85 
L 348.2725 250.85 
L 348.2725 250.85 
L 307.5815 250.85 
z
" clip-path="url(#p049ff47663)" style="fill: #1f77b4"/>
   </g>
   <g id="patch_214">
    <path d="M 388.9635 250.85 
L 429.6545 250.85 
L 429.6545 250.85 
L 388.9635 250.85 
z
" clip-path="url(#p049ff47663)" style="fill: #1f77b4"/>
   </g>
   <g id="patch_215">
    <path d="M 63.4355 250.85 
L 104.1265 250.85 
L 104.1265 228.088521 
L 63.4355 228.088521 
z
" clip-path="url(#p049ff47663)" style="fill: #1f77b4"/>
   </g>
   <g id="patch_216">
    <path d="M 144.8175 250.85 
L 185.5085 250.85 
L 185.5085 233.893414 
L 144.8175 233.893414 
z
" clip-path="url(#p049ff47663)" style="fill: #1f77b4"/>
   </g>
   <g id="patch_217">
    <path d="M 226.1995 250.85 
L 266.8905 250.85 
L 266.8905 238.250301 
L 226.1995 238.250301 
z
" clip-path="url(#p049ff47663)" style="fill: #1f77b4"/>
   </g>
   <g id="patch_218">
    <path d="M 307.5815 250.85 
L 348.2725 250.85 
L 348.2725 231.755844 
L 307.5815 231.755844 
z
" clip-path="url(#p049ff47663)" style="fill: #1f77b4"/>
   </g>
   <g id="patch_219">
    <path d="M 388.9635 250.85 
L 429.6545 250.85 
L 429.6545 246.064216 
L 388.9635 246.064216 
z
" clip-path="url(#p049ff47663)" style="fill: #1f77b4"/>
   </g>
   <g id="patch_220">
    <path d="M 63.4355 250.85 
L 104.1265 250.85 
L 104.1265 250.334437 
L 63.4355 250.334437 
z
" clip-path="url(#p049ff47663)" style="fill: #1f77b4"/>
   </g>
   <g id="patch_221">
    <path d="M 144.8175 250.85 
L 185.5085 250.85 
L 185.5085 250.368808 
L 144.8175 250.368808 
z
" clip-path="url(#p049ff47663)" style="fill: #1f77b4"/>
   </g>
   <g id="patch_222">
    <path d="M 226.1995 250.85 
L 266.8905 250.85 
L 266.8905 250.162583 
L 226.1995 250.162583 
z
" clip-path="url(#p049ff47663)" style="fill: #1f77b4"/>
   </g>
   <g id="patch_223">
    <path d="M 307.5815 250.85 
L 348.2725 250.85 
L 348.2725 250.678146 
L 307.5815 250.678146 
z
" clip-path="url(#p049ff47663)" style="fill: #1f77b4"/>
   </g>
   <g id="patch_224">
    <path d="M 388.9635 250.85 
L 429.6545 250.85 
L 429.6545 250.678146 
L 388.9635 250.678146 
z
" clip-path="url(#p049ff47663)" style="fill: #1f77b4"/>
   </g>
   <g id="patch_225">
    <path d="M 63.4355 250.85 
L 104.1265 250.85 
L 104.1265 250.368808 
L 63.4355 250.368808 
z
" clip-path="url(#p049ff47663)" style="fill: #1f77b4"/>
   </g>
   <g id="patch_226">
    <path d="M 144.8175 250.85 
L 185.5085 250.85 
L 185.5085 250.368808 
L 144.8175 250.368808 
z
" clip-path="url(#p049ff47663)" style="fill: #1f77b4"/>
   </g>
   <g id="patch_227">
    <path d="M 226.1995 250.85 
L 266.8905 250.85 
L 266.8905 250.368808 
L 226.1995 250.368808 
z
" clip-path="url(#p049ff47663)" style="fill: #1f77b4"/>
   </g>
   <g id="patch_228">
    <path d="M 307.5815 250.85 
L 348.2725 250.85 
L 348.2725 250.827086 
L 307.5815 250.827086 
z
" clip-path="url(#p049ff47663)" style="fill: #1f77b4"/>
   </g>
   <g id="patch_229">
    <path d="M 388.9635 250.85 
L 429.6545 250.85 
L 429.6545 250.827086 
L 388.9635 250.827086 
z
" clip-path="url(#p049ff47663)" style="fill: #1f77b4"/>
   </g>
   <g id="patch_230">
    <path d="M 63.4355 250.85 
L 104.1265 250.85 
L 104.1265 250.43755 
L 63.4355 250.43755 
z
" clip-path="url(#p049ff47663)" style="fill: #1f77b4"/>
   </g>
   <g id="patch_231">
    <path d="M 144.8175 250.85 
L 185.5085 250.85 
L 185.5085 250.781258 
L 144.8175 250.781258 
z
" clip-path="url(#p049ff47663)" style="fill: #1f77b4"/>
   </g>
   <g id="patch_232">
    <path d="M 226.1995 250.85 
L 266.8905 250.85 
L 266.8905 250.781258 
L 226.1995 250.781258 
z
" clip-path="url(#p049ff47663)" style="fill: #1f77b4"/>
   </g>
   <g id="patch_233">
    <path d="M 307.5815 250.85 
L 348.2725 250.85 
L 348.2725 250.85 
L 307.5815 250.85 
z
" clip-path="url(#p049ff47663)" style="fill: #1f77b4"/>
   </g>
   <g id="patch_234">
    <path d="M 388.9635 250.85 
L 429.6545 250.85 
L 429.6545 250.85 
L 388.9635 250.85 
z
" clip-path="url(#p049ff47663)" style="fill: #1f77b4"/>
   </g>
   <g id="patch_235">
    <path d="M 63.4355 250.85 
L 104.1265 250.85 
L 104.1265 244.584682 
L 63.4355 244.584682 
z
" clip-path="url(#p049ff47663)" style="fill: #1f77b4"/>
   </g>
   <g id="patch_236">
    <path d="M 144.8175 250.85 
L 185.5085 250.85 
L 185.5085 248.365477 
L 144.8175 248.365477 
z
" clip-path="url(#p049ff47663)" style="fill: #1f77b4"/>
   </g>
   <g id="patch_237">
    <path d="M 226.1995 250.85 
L 266.8905 250.85 
L 266.8905 248.365477 
L 226.1995 248.365477 
z
" clip-path="url(#p049ff47663)" style="fill: #1f77b4"/>
   </g>
   <g id="patch_238">
    <path d="M 307.5815 250.85 
L 348.2725 250.85 
L 348.2725 247.162497 
L 307.5815 247.162497 
z
" clip-path="url(#p049ff47663)" style="fill: #1f77b4"/>
   </g>
   <g id="patch_239">
    <path d="M 388.9635 250.85 
L 429.6545 250.85 
L 429.6545 248.46859 
L 388.9635 248.46859 
z
" clip-path="url(#p049ff47663)" style="fill: #1f77b4"/>
   </g>
   <g id="patch_240">
    <path d="M 63.4355 250.85 
L 104.1265 250.85 
L 104.1265 250.85 
L 63.4355 250.85 
z
" clip-path="url(#p049ff47663)" style="fill: #1f77b4"/>
   </g>
   <g id="patch_241">
    <path d="M 63.4355 250.85 
L 104.1265 250.85 
L 104.1265 147.19331 
L 63.4355 147.19331 
z
" clip-path="url(#p049ff47663)" style="fill: #1f77b4"/>
   </g>
   <g id="patch_242">
    <path d="M 144.8175 250.85 
L 185.5085 250.85 
L 185.5085 166.093447 
L 144.8175 166.093447 
z
" clip-path="url(#p049ff47663)" style="fill: #1f77b4"/>
   </g>
   <g id="patch_243">
    <path d="M 226.1995 250.85 
L 266.8905 250.85 
L 266.8905 163.761622 
L 226.1995 163.761622 
z
" clip-path="url(#p049ff47663)" style="fill: #1f77b4"/>
   </g>
   <g id="patch_244">
    <path d="M 307.5815 250.85 
L 348.2725 250.85 
L 348.2725 176.188211 
L 307.5815 176.188211 
z
" clip-path="url(#p049ff47663)" style="fill: #1f77b4"/>
   </g>
   <g id="patch_245">
    <path d="M 388.9635 250.85 
L 429.6545 250.85 
L 429.6545 217.308326 
L 388.9635 217.308326 
z
" clip-path="url(#p049ff47663)" style="fill: #1f77b4"/>
   </g>
   <g id="patch_246">
    <path d="M 63.4355 250.85 
L 104.1265 250.85 
L 104.1265 191.345384 
L 63.4355 191.345384 
z
" clip-path="url(#p049ff47663)" style="fill: #1f77b4"/>
   </g>
   <g id="patch_247">
    <path d="M 144.8175 250.85 
L 185.5085 250.85 
L 185.5085 166.543193 
L 144.8175 166.543193 
z
" clip-path="url(#p049ff47663)" style="fill: #1f77b4"/>
   </g>
   <g id="patch_248">
    <path d="M 226.1995 250.85 
L 266.8905 250.85 
L 266.8905 207.060034 
L 226.1995 207.060034 
z
" clip-path="url(#p049ff47663)" style="fill: #1f77b4"/>
   </g>
   <g id="patch_249">
    <path d="M 307.5815 250.85 
L 348.2725 250.85 
L 348.2725 209.157522 
L 307.5815 209.157522 
z
" clip-path="url(#p049ff47663)" style="fill: #1f77b4"/>
   </g>
   <g id="patch_250">
    <path d="M 388.9635 250.85 
L 429.6545 250.85 
L 429.6545 222.692867 
L 388.9635 222.692867 
z
" clip-path="url(#p049ff47663)" style="fill: #1f77b4"/>
   </g>
   <g id="patch_251">
    <path d="M 63.4355 250.85 
L 104.1265 250.85 
L 104.1265 250.827086 
L 63.4355 250.827086 
z
" clip-path="url(#p049ff47663)" style="fill: #1f77b4"/>
   </g>
   <g id="patch_252">
    <path d="M 144.8175 250.85 
L 185.5085 250.85 
L 185.5085 250.827086 
L 144.8175 250.827086 
z
" clip-path="url(#p049ff47663)" style="fill: #1f77b4"/>
   </g>
   <g id="patch_253">
    <path d="M 226.1995 250.85 
L 266.8905 250.85 
L 266.8905 250.827086 
L 226.1995 250.827086 
z
" clip-path="url(#p049ff47663)" style="fill: #1f77b4"/>
   </g>
   <g id="patch_254">
    <path d="M 307.5815 250.85 
L 348.2725 250.85 
L 348.2725 250.85 
L 307.5815 250.85 
z
" clip-path="url(#p049ff47663)" style="fill: #1f77b4"/>
   </g>
   <g id="patch_255">
    <path d="M 388.9635 250.85 
L 429.6545 250.85 
L 429.6545 250.85 
L 388.9635 250.85 
z
" clip-path="url(#p049ff47663)" style="fill: #1f77b4"/>
   </g>
   <g id="patch_256">
    <path d="M 63.4355 250.85 
L 104.1265 250.85 
L 104.1265 248.925232 
L 63.4355 248.925232 
z
" clip-path="url(#p049ff47663)" style="fill: #1f77b4"/>
   </g>
   <g id="patch_257">
    <path d="M 144.8175 250.85 
L 185.5085 250.85 
L 185.5085 248.764834 
L 144.8175 248.764834 
z
" clip-path="url(#p049ff47663)" style="fill: #1f77b4"/>
   </g>
   <g id="patch_258">
    <path d="M 226.1995 250.85 
L 266.8905 250.85 
L 266.8905 250.678146 
L 226.1995 250.678146 
z
" clip-path="url(#p049ff47663)" style="fill: #1f77b4"/>
   </g>
   <g id="patch_259">
    <path d="M 307.5815 250.85 
L 348.2725 250.85 
L 348.2725 250.798444 
L 307.5815 250.798444 
z
" clip-path="url(#p049ff47663)" style="fill: #1f77b4"/>
   </g>
   <g id="patch_260">
    <path d="M 388.9635 250.85 
L 429.6545 250.85 
L 429.6545 250.798444 
L 388.9635 250.798444 
z
" clip-path="url(#p049ff47663)" style="fill: #1f77b4"/>
   </g>
   <g id="patch_261">
    <path d="M 63.4355 250.85 
L 104.1265 250.85 
L 104.1265 250.43755 
L 63.4355 250.43755 
z
" clip-path="url(#p049ff47663)" style="fill: #1f77b4"/>
   </g>
   <g id="patch_262">
    <path d="M 144.8175 250.85 
L 185.5085 250.85 
L 185.5085 250.575033 
L 144.8175 250.575033 
z
" clip-path="url(#p049ff47663)" style="fill: #1f77b4"/>
   </g>
   <g id="patch_263">
    <path d="M 226.1995 250.85 
L 266.8905 250.85 
L 266.8905 250.712517 
L 226.1995 250.712517 
z
" clip-path="url(#p049ff47663)" style="fill: #1f77b4"/>
   </g>
   <g id="patch_264">
    <path d="M 307.5815 250.85 
L 348.2725 250.85 
L 348.2725 250.712517 
L 307.5815 250.712517 
z
" clip-path="url(#p049ff47663)" style="fill: #1f77b4"/>
   </g>
   <g id="patch_265">
    <path d="M 388.9635 250.85 
L 429.6545 250.85 
L 429.6545 250.529205 
L 388.9635 250.529205 
z
" clip-path="url(#p049ff47663)" style="fill: #1f77b4"/>
   </g>
   <g id="patch_266">
    <path d="M 63.4355 250.85 
L 104.1265 250.85 
L 104.1265 250.609404 
L 63.4355 250.609404 
z
" clip-path="url(#p049ff47663)" style="fill: #1f77b4"/>
   </g>
   <g id="patch_267">
    <path d="M 144.8175 250.85 
L 185.5085 250.85 
L 185.5085 250.609404 
L 144.8175 250.609404 
z
" clip-path="url(#p049ff47663)" style="fill: #1f77b4"/>
   </g>
   <g id="patch_268">
    <path d="M 226.1995 250.85 
L 266.8905 250.85 
L 266.8905 250.832815 
L 226.1995 250.832815 
z
" clip-path="url(#p049ff47663)" style="fill: #1f77b4"/>
   </g>
   <g id="patch_269">
    <path d="M 307.5815 250.85 
L 348.2725 250.85 
L 348.2725 250.832815 
L 307.5815 250.832815 
z
" clip-path="url(#p049ff47663)" style="fill: #1f77b4"/>
   </g>
   <g id="patch_270">
    <path d="M 388.9635 250.85 
L 429.6545 250.85 
L 429.6545 250.832815 
L 388.9635 250.832815 
z
" clip-path="url(#p049ff47663)" style="fill: #1f77b4"/>
   </g>
   <g id="patch_271">
    <path d="M 63.4355 250.85 
L 104.1265 250.85 
L 104.1265 250.091931 
L 63.4355 250.091931 
z
" clip-path="url(#p049ff47663)" style="fill: #1f77b4"/>
   </g>
   <g id="patch_272">
    <path d="M 144.8175 250.85 
L 185.5085 250.85 
L 185.5085 250.796534 
L 144.8175 250.796534 
z
" clip-path="url(#p049ff47663)" style="fill: #1f77b4"/>
   </g>
   <g id="patch_273">
    <path d="M 226.1995 250.85 
L 266.8905 250.85 
L 266.8905 250.796534 
L 226.1995 250.796534 
z
" clip-path="url(#p049ff47663)" style="fill: #1f77b4"/>
   </g>
   <g id="patch_274">
    <path d="M 307.5815 250.85 
L 348.2725 250.85 
L 348.2725 250.796534 
L 307.5815 250.796534 
z
" clip-path="url(#p049ff47663)" style="fill: #1f77b4"/>
   </g>
   <g id="patch_275">
    <path d="M 388.9635 250.85 
L 429.6545 250.85 
L 429.6545 250.796534 
L 388.9635 250.796534 
z
" clip-path="url(#p049ff47663)" style="fill: #1f77b4"/>
   </g>
   <g id="patch_276">
    <path d="M 63.4355 250.85 
L 104.1265 250.85 
L 104.1265 213.259294 
L 63.4355 213.259294 
z
" clip-path="url(#p049ff47663)" style="fill: #1f77b4"/>
   </g>
   <g id="patch_277">
    <path d="M 144.8175 250.85 
L 185.5085 250.85 
L 185.5085 239.435168 
L 144.8175 239.435168 
z
" clip-path="url(#p049ff47663)" style="fill: #1f77b4"/>
   </g>
   <g id="patch_278">
    <path d="M 226.1995 250.85 
L 266.8905 250.85 
L 266.8905 238.298551 
L 226.1995 238.298551 
z
" clip-path="url(#p049ff47663)" style="fill: #1f77b4"/>
   </g>
   <g id="patch_279">
    <path d="M 307.5815 250.85 
L 348.2725 250.85 
L 348.2725 238.510859 
L 307.5815 238.510859 
z
" clip-path="url(#p049ff47663)" style="fill: #1f77b4"/>
   </g>
   <g id="patch_280">
    <path d="M 388.9635 250.85 
L 429.6545 250.85 
L 429.6545 212.725189 
L 388.9635 212.725189 
z
" clip-path="url(#p049ff47663)" style="fill: #1f77b4"/>
   </g>
   <g id="patch_281">
    <path d="M 63.4355 250.85 
L 104.1265 250.85 
L 104.1265 243.331946 
L 63.4355 243.331946 
z
" clip-path="url(#p049ff47663)" style="fill: #1f77b4"/>
   </g>
   <g id="patch_282">
    <path d="M 144.8175 250.85 
L 185.5085 250.85 
L 185.5085 249.801689 
L 144.8175 249.801689 
z
" clip-path="url(#p049ff47663)" style="fill: #1f77b4"/>
   </g>
   <g id="patch_283">
    <path d="M 226.1995 250.85 
L 266.8905 250.85 
L 266.8905 249.801689 
L 226.1995 249.801689 
z
" clip-path="url(#p049ff47663)" style="fill: #1f77b4"/>
   </g>
   <g id="patch_284">
    <path d="M 307.5815 250.85 
L 348.2725 250.85 
L 348.2725 249.801689 
L 307.5815 249.801689 
z
" clip-path="url(#p049ff47663)" style="fill: #1f77b4"/>
   </g>
   <g id="patch_285">
    <path d="M 388.9635 250.85 
L 429.6545 250.85 
L 429.6545 249.801689 
L 388.9635 249.801689 
z
" clip-path="url(#p049ff47663)" style="fill: #1f77b4"/>
   </g>
   <g id="patch_286">
    <path d="M 63.4355 250.85 
L 104.1265 250.85 
L 104.1265 250.781258 
L 63.4355 250.781258 
z
" clip-path="url(#p049ff47663)" style="fill: #1f77b4"/>
   </g>
   <g id="patch_287">
    <path d="M 144.8175 250.85 
L 185.5085 250.85 
L 185.5085 250.827086 
L 144.8175 250.827086 
z
" clip-path="url(#p049ff47663)" style="fill: #1f77b4"/>
   </g>
   <g id="patch_288">
    <path d="M 226.1995 250.85 
L 266.8905 250.85 
L 266.8905 250.827086 
L 226.1995 250.827086 
z
" clip-path="url(#p049ff47663)" style="fill: #1f77b4"/>
   </g>
   <g id="patch_289">
    <path d="M 307.5815 250.85 
L 348.2725 250.85 
L 348.2725 250.827086 
L 307.5815 250.827086 
z
" clip-path="url(#p049ff47663)" style="fill: #1f77b4"/>
   </g>
   <g id="patch_290">
    <path d="M 388.9635 250.85 
L 429.6545 250.85 
L 429.6545 250.815629 
L 388.9635 250.815629 
z
" clip-path="url(#p049ff47663)" style="fill: #1f77b4"/>
   </g>
   <g id="patch_291">
    <path d="M 63.4355 250.85 
L 104.1265 250.85 
L 104.1265 249.571404 
L 63.4355 249.571404 
z
" clip-path="url(#p049ff47663)" style="fill: #1f77b4"/>
   </g>
   <g id="patch_292">
    <path d="M 144.8175 250.85 
L 185.5085 250.85 
L 185.5085 249.406424 
L 144.8175 249.406424 
z
" clip-path="url(#p049ff47663)" style="fill: #1f77b4"/>
   </g>
   <g id="patch_293">
    <path d="M 226.1995 250.85 
L 266.8905 250.85 
L 266.8905 250.231324 
L 226.1995 250.231324 
z
" clip-path="url(#p049ff47663)" style="fill: #1f77b4"/>
   </g>
   <g id="patch_294">
    <path d="M 307.5815 250.85 
L 348.2725 250.85 
L 348.2725 250.808755 
L 307.5815 250.808755 
z
" clip-path="url(#p049ff47663)" style="fill: #1f77b4"/>
   </g>
   <g id="patch_295">
    <path d="M 388.9635 250.85 
L 429.6545 250.85 
L 429.6545 250.808755 
L 388.9635 250.808755 
z
" clip-path="url(#p049ff47663)" style="fill: #1f77b4"/>
   </g>
   <g id="patch_296">
    <path d="M 63.4355 250.85 
L 104.1265 250.85 
L 104.1265 250.080093 
L 63.4355 250.080093 
z
" clip-path="url(#p049ff47663)" style="fill: #1f77b4"/>
   </g>
   <g id="patch_297">
    <path d="M 144.8175 250.85 
L 185.5085 250.85 
L 185.5085 250.781258 
L 144.8175 250.781258 
z
" clip-path="url(#p049ff47663)" style="fill: #1f77b4"/>
   </g>
   <g id="patch_298">
    <path d="M 226.1995 250.85 
L 266.8905 250.85 
L 266.8905 250.781258 
L 226.1995 250.781258 
z
" clip-path="url(#p049ff47663)" style="fill: #1f77b4"/>
   </g>
   <g id="patch_299">
    <path d="M 307.5815 250.85 
L 348.2725 250.85 
L 348.2725 250.781258 
L 307.5815 250.781258 
z
" clip-path="url(#p049ff47663)" style="fill: #1f77b4"/>
   </g>
   <g id="patch_300">
    <path d="M 388.9635 250.85 
L 429.6545 250.85 
L 429.6545 250.781258 
L 388.9635 250.781258 
z
" clip-path="url(#p049ff47663)" style="fill: #1f77b4"/>
   </g>
   <g id="patch_301">
    <path d="M 63.4355 250.85 
L 104.1265 250.85 
L 104.1265 250.43755 
L 63.4355 250.43755 
z
" clip-path="url(#p049ff47663)" style="fill: #1f77b4"/>
   </g>
   <g id="patch_302">
    <path d="M 144.8175 250.85 
L 185.5085 250.85 
L 185.5085 250.781258 
L 144.8175 250.781258 
z
" clip-path="url(#p049ff47663)" style="fill: #1f77b4"/>
   </g>
   <g id="patch_303">
    <path d="M 226.1995 250.85 
L 266.8905 250.85 
L 266.8905 250.781258 
L 226.1995 250.781258 
z
" clip-path="url(#p049ff47663)" style="fill: #1f77b4"/>
   </g>
   <g id="patch_304">
    <path d="M 307.5815 250.85 
L 348.2725 250.85 
L 348.2725 250.781258 
L 307.5815 250.781258 
z
" clip-path="url(#p049ff47663)" style="fill: #1f77b4"/>
   </g>
   <g id="patch_305">
    <path d="M 388.9635 250.85 
L 429.6545 250.85 
L 429.6545 250.836252 
L 388.9635 250.836252 
z
" clip-path="url(#p049ff47663)" style="fill: #1f77b4"/>
   </g>
   <g id="patch_306">
    <path d="M 63.4355 250.85 
L 104.1265 250.85 
L 104.1265 250.781258 
L 63.4355 250.781258 
z
" clip-path="url(#p049ff47663)" style="fill: #1f77b4"/>
   </g>
   <g id="patch_307">
    <path d="M 144.8175 250.85 
L 185.5085 250.85 
L 185.5085 250.85 
L 144.8175 250.85 
z
" clip-path="url(#p049ff47663)" style="fill: #1f77b4"/>
   </g>
   <g id="patch_308">
    <path d="M 226.1995 250.85 
L 266.8905 250.85 
L 266.8905 250.85 
L 226.1995 250.85 
z
" clip-path="url(#p049ff47663)" style="fill: #1f77b4"/>
   </g>
   <g id="patch_309">
    <path d="M 307.5815 250.85 
L 348.2725 250.85 
L 348.2725 250.85 
L 307.5815 250.85 
z
" clip-path="url(#p049ff47663)" style="fill: #1f77b4"/>
   </g>
   <g id="patch_310">
    <path d="M 388.9635 250.85 
L 429.6545 250.85 
L 429.6545 250.85 
L 388.9635 250.85 
z
" clip-path="url(#p049ff47663)" style="fill: #1f77b4"/>
   </g>
   <g id="patch_311">
    <path d="M 63.4355 250.85 
L 104.1265 250.85 
L 104.1265 250.85 
L 63.4355 250.85 
z
" clip-path="url(#p049ff47663)" style="fill: #1f77b4"/>
   </g>
   <g id="patch_312">
    <path d="M 144.8175 250.85 
L 185.5085 250.85 
L 185.5085 250.85 
L 144.8175 250.85 
z
" clip-path="url(#p049ff47663)" style="fill: #1f77b4"/>
   </g>
   <g id="patch_313">
    <path d="M 63.4355 250.85 
L 104.1265 250.85 
L 104.1265 145.909726 
L 63.4355 145.909726 
z
" clip-path="url(#p049ff47663)" style="fill: #1f77b4"/>
   </g>
   <g id="patch_314">
    <path d="M 144.8175 250.85 
L 185.5085 250.85 
L 185.5085 146.682237 
L 144.8175 146.682237 
z
" clip-path="url(#p049ff47663)" style="fill: #1f77b4"/>
   </g>
   <g id="patch_315">
    <path d="M 226.1995 250.85 
L 266.8905 250.85 
L 266.8905 128.345579 
L 226.1995 128.345579 
z
" clip-path="url(#p049ff47663)" style="fill: #1f77b4"/>
   </g>
   <g id="patch_316">
    <path d="M 307.5815 250.85 
L 348.2725 250.85 
L 348.2725 196.077418 
L 307.5815 196.077418 
z
" clip-path="url(#p049ff47663)" style="fill: #1f77b4"/>
   </g>
   <g id="patch_317">
    <path d="M 388.9635 250.85 
L 429.6545 250.85 
L 429.6545 138.078097 
L 388.9635 138.078097 
z
" clip-path="url(#p049ff47663)" style="fill: #1f77b4"/>
   </g>
   <g id="patch_318">
    <path d="M 63.4355 250.85 
L 104.1265 250.85 
L 104.1265 162.168034 
L 63.4355 162.168034 
z
" clip-path="url(#p049ff47663)" style="fill: #1f77b4"/>
   </g>
   <g id="patch_319">
    <path d="M 144.8175 250.85 
L 185.5085 250.85 
L 185.5085 98.325889 
L 144.8175 98.325889 
z
" clip-path="url(#p049ff47663)" style="fill: #1f77b4"/>
   </g>
   <g id="patch_320">
    <path d="M 226.1995 250.85 
L 266.8905 250.85 
L 266.8905 174.714924 
L 226.1995 174.714924 
z
" clip-path="url(#p049ff47663)" style="fill: #1f77b4"/>
   </g>
   <g id="patch_321">
    <path d="M 307.5815 250.85 
L 348.2725 250.85 
L 348.2725 190.358446 
L 307.5815 190.358446 
z
" clip-path="url(#p049ff47663)" style="fill: #1f77b4"/>
   </g>
   <g id="patch_322">
    <path d="M 388.9635 250.85 
L 429.6545 250.85 
L 429.6545 193.925097 
L 388.9635 193.925097 
z
" clip-path="url(#p049ff47663)" style="fill: #1f77b4"/>
   </g>
   <g id="matplotlib.axis_1">
    <g id="xtick_1">
     <g id="line2d_1">
      <defs>
       <path id="mdb0fccf9d8" d="M 0 0 
L 0 3.5 
" style="stroke: #000000; stroke-width: 0.8"/>
      </defs>
      <g>
       <use xlink:href="#mdb0fccf9d8" x="83.781" y="250.85" style="stroke: #000000; stroke-width: 0.8"/>
      </g>
     </g>
     <g id="text_1">
      <!-- Paul Rudd -->
      <g transform="translate(86.540375 307.384375) rotate(-90) scale(0.1 -0.1)">
       <defs>
        <path id="DejaVuSans-50" d="M 1259 4147 
L 1259 2394 
L 2053 2394 
Q 2494 2394 2734 2622 
Q 2975 2850 2975 3272 
Q 2975 3691 2734 3919 
Q 2494 4147 2053 4147 
L 1259 4147 
z
M 628 4666 
L 2053 4666 
Q 2838 4666 3239 4311 
Q 3641 3956 3641 3272 
Q 3641 2581 3239 2228 
Q 2838 1875 2053 1875 
L 1259 1875 
L 1259 0 
L 628 0 
L 628 4666 
z
" transform="scale(0.015625)"/>
        <path id="DejaVuSans-61" d="M 2194 1759 
Q 1497 1759 1228 1600 
Q 959 1441 959 1056 
Q 959 750 1161 570 
Q 1363 391 1709 391 
Q 2188 391 2477 730 
Q 2766 1069 2766 1631 
L 2766 1759 
L 2194 1759 
z
M 3341 1997 
L 3341 0 
L 2766 0 
L 2766 531 
Q 2569 213 2275 61 
Q 1981 -91 1556 -91 
Q 1019 -91 701 211 
Q 384 513 384 1019 
Q 384 1609 779 1909 
Q 1175 2209 1959 2209 
L 2766 2209 
L 2766 2266 
Q 2766 2663 2505 2880 
Q 2244 3097 1772 3097 
Q 1472 3097 1187 3025 
Q 903 2953 641 2809 
L 641 3341 
Q 956 3463 1253 3523 
Q 1550 3584 1831 3584 
Q 2591 3584 2966 3190 
Q 3341 2797 3341 1997 
z
" transform="scale(0.015625)"/>
        <path id="DejaVuSans-75" d="M 544 1381 
L 544 3500 
L 1119 3500 
L 1119 1403 
Q 1119 906 1312 657 
Q 1506 409 1894 409 
Q 2359 409 2629 706 
Q 2900 1003 2900 1516 
L 2900 3500 
L 3475 3500 
L 3475 0 
L 2900 0 
L 2900 538 
Q 2691 219 2414 64 
Q 2138 -91 1772 -91 
Q 1169 -91 856 284 
Q 544 659 544 1381 
z
M 1991 3584 
L 1991 3584 
z
" transform="scale(0.015625)"/>
        <path id="DejaVuSans-6c" d="M 603 4863 
L 1178 4863 
L 1178 0 
L 603 0 
L 603 4863 
z
" transform="scale(0.015625)"/>
        <path id="DejaVuSans-20" transform="scale(0.015625)"/>
        <path id="DejaVuSans-52" d="M 2841 2188 
Q 3044 2119 3236 1894 
Q 3428 1669 3622 1275 
L 4263 0 
L 3584 0 
L 2988 1197 
Q 2756 1666 2539 1819 
Q 2322 1972 1947 1972 
L 1259 1972 
L 1259 0 
L 628 0 
L 628 4666 
L 2053 4666 
Q 2853 4666 3247 4331 
Q 3641 3997 3641 3322 
Q 3641 2881 3436 2590 
Q 3231 2300 2841 2188 
z
M 1259 4147 
L 1259 2491 
L 2053 2491 
Q 2509 2491 2742 2702 
Q 2975 2913 2975 3322 
Q 2975 3731 2742 3939 
Q 2509 4147 2053 4147 
L 1259 4147 
z
" transform="scale(0.015625)"/>
        <path id="DejaVuSans-64" d="M 2906 2969 
L 2906 4863 
L 3481 4863 
L 3481 0 
L 2906 0 
L 2906 525 
Q 2725 213 2448 61 
Q 2172 -91 1784 -91 
Q 1150 -91 751 415 
Q 353 922 353 1747 
Q 353 2572 751 3078 
Q 1150 3584 1784 3584 
Q 2172 3584 2448 3432 
Q 2725 3281 2906 2969 
z
M 947 1747 
Q 947 1113 1208 752 
Q 1469 391 1925 391 
Q 2381 391 2643 752 
Q 2906 1113 2906 1747 
Q 2906 2381 2643 2742 
Q 2381 3103 1925 3103 
Q 1469 3103 1208 2742 
Q 947 2381 947 1747 
z
" transform="scale(0.015625)"/>
       </defs>
       <use xlink:href="#DejaVuSans-50"/>
       <use xlink:href="#DejaVuSans-61" x="55.802734"/>
       <use xlink:href="#DejaVuSans-75" x="117.082031"/>
       <use xlink:href="#DejaVuSans-6c" x="180.460938"/>
       <use xlink:href="#DejaVuSans-20" x="208.244141"/>
       <use xlink:href="#DejaVuSans-52" x="240.03125"/>
       <use xlink:href="#DejaVuSans-75" x="305.013672"/>
       <use xlink:href="#DejaVuSans-64" x="368.392578"/>
       <use xlink:href="#DejaVuSans-64" x="431.869141"/>
      </g>
     </g>
    </g>
    <g id="xtick_2">
     <g id="line2d_2">
      <g>
       <use xlink:href="#mdb0fccf9d8" x="165.163" y="250.85" style="stroke: #000000; stroke-width: 0.8"/>
      </g>
     </g>
     <g id="text_2">
      <!-- Jessica Alba -->
      <g transform="translate(167.922375 317.05) rotate(-90) scale(0.1 -0.1)">
       <defs>
        <path id="DejaVuSans-4a" d="M 628 4666 
L 1259 4666 
L 1259 325 
Q 1259 -519 939 -900 
Q 619 -1281 -91 -1281 
L -331 -1281 
L -331 -750 
L -134 -750 
Q 284 -750 456 -515 
Q 628 -281 628 325 
L 628 4666 
z
" transform="scale(0.015625)"/>
        <path id="DejaVuSans-65" d="M 3597 1894 
L 3597 1613 
L 953 1613 
Q 991 1019 1311 708 
Q 1631 397 2203 397 
Q 2534 397 2845 478 
Q 3156 559 3463 722 
L 3463 178 
Q 3153 47 2828 -22 
Q 2503 -91 2169 -91 
Q 1331 -91 842 396 
Q 353 884 353 1716 
Q 353 2575 817 3079 
Q 1281 3584 2069 3584 
Q 2775 3584 3186 3129 
Q 3597 2675 3597 1894 
z
M 3022 2063 
Q 3016 2534 2758 2815 
Q 2500 3097 2075 3097 
Q 1594 3097 1305 2825 
Q 1016 2553 972 2059 
L 3022 2063 
z
" transform="scale(0.015625)"/>
        <path id="DejaVuSans-73" d="M 2834 3397 
L 2834 2853 
Q 2591 2978 2328 3040 
Q 2066 3103 1784 3103 
Q 1356 3103 1142 2972 
Q 928 2841 928 2578 
Q 928 2378 1081 2264 
Q 1234 2150 1697 2047 
L 1894 2003 
Q 2506 1872 2764 1633 
Q 3022 1394 3022 966 
Q 3022 478 2636 193 
Q 2250 -91 1575 -91 
Q 1294 -91 989 -36 
Q 684 19 347 128 
L 347 722 
Q 666 556 975 473 
Q 1284 391 1588 391 
Q 1994 391 2212 530 
Q 2431 669 2431 922 
Q 2431 1156 2273 1281 
Q 2116 1406 1581 1522 
L 1381 1569 
Q 847 1681 609 1914 
Q 372 2147 372 2553 
Q 372 3047 722 3315 
Q 1072 3584 1716 3584 
Q 2034 3584 2315 3537 
Q 2597 3491 2834 3397 
z
" transform="scale(0.015625)"/>
        <path id="DejaVuSans-69" d="M 603 3500 
L 1178 3500 
L 1178 0 
L 603 0 
L 603 3500 
z
M 603 4863 
L 1178 4863 
L 1178 4134 
L 603 4134 
L 603 4863 
z
" transform="scale(0.015625)"/>
        <path id="DejaVuSans-63" d="M 3122 3366 
L 3122 2828 
Q 2878 2963 2633 3030 
Q 2388 3097 2138 3097 
Q 1578 3097 1268 2742 
Q 959 2388 959 1747 
Q 959 1106 1268 751 
Q 1578 397 2138 397 
Q 2388 397 2633 464 
Q 2878 531 3122 666 
L 3122 134 
Q 2881 22 2623 -34 
Q 2366 -91 2075 -91 
Q 1284 -91 818 406 
Q 353 903 353 1747 
Q 353 2603 823 3093 
Q 1294 3584 2113 3584 
Q 2378 3584 2631 3529 
Q 2884 3475 3122 3366 
z
" transform="scale(0.015625)"/>
        <path id="DejaVuSans-41" d="M 2188 4044 
L 1331 1722 
L 3047 1722 
L 2188 4044 
z
M 1831 4666 
L 2547 4666 
L 4325 0 
L 3669 0 
L 3244 1197 
L 1141 1197 
L 716 0 
L 50 0 
L 1831 4666 
z
" transform="scale(0.015625)"/>
        <path id="DejaVuSans-62" d="M 3116 1747 
Q 3116 2381 2855 2742 
Q 2594 3103 2138 3103 
Q 1681 3103 1420 2742 
Q 1159 2381 1159 1747 
Q 1159 1113 1420 752 
Q 1681 391 2138 391 
Q 2594 391 2855 752 
Q 3116 1113 3116 1747 
z
M 1159 2969 
Q 1341 3281 1617 3432 
Q 1894 3584 2278 3584 
Q 2916 3584 3314 3078 
Q 3713 2572 3713 1747 
Q 3713 922 3314 415 
Q 2916 -91 2278 -91 
Q 1894 -91 1617 61 
Q 1341 213 1159 525 
L 1159 0 
L 581 0 
L 581 4863 
L 1159 4863 
L 1159 2969 
z
" transform="scale(0.015625)"/>
       </defs>
       <use xlink:href="#DejaVuSans-4a"/>
       <use xlink:href="#DejaVuSans-65" x="29.492188"/>
       <use xlink:href="#DejaVuSans-73" x="91.015625"/>
       <use xlink:href="#DejaVuSans-73" x="143.115234"/>
       <use xlink:href="#DejaVuSans-69" x="195.214844"/>
       <use xlink:href="#DejaVuSans-63" x="222.998047"/>
       <use xlink:href="#DejaVuSans-61" x="277.978516"/>
       <use xlink:href="#DejaVuSans-20" x="339.257812"/>
       <use xlink:href="#DejaVuSans-41" x="371.044922"/>
       <use xlink:href="#DejaVuSans-6c" x="439.453125"/>
       <use xlink:href="#DejaVuSans-62" x="467.236328"/>
       <use xlink:href="#DejaVuSans-61" x="530.712891"/>
      </g>
     </g>
    </g>
    <g id="xtick_3">
     <g id="line2d_3">
      <g>
       <use xlink:href="#mdb0fccf9d8" x="246.545" y="250.85" style="stroke: #000000; stroke-width: 0.8"/>
      </g>
     </g>
     <g id="text_3">
      <!-- Jonah Hill -->
      <g transform="translate(249.304375 304.754687) rotate(-90) scale(0.1 -0.1)">
       <defs>
        <path id="DejaVuSans-6f" d="M 1959 3097 
Q 1497 3097 1228 2736 
Q 959 2375 959 1747 
Q 959 1119 1226 758 
Q 1494 397 1959 397 
Q 2419 397 2687 759 
Q 2956 1122 2956 1747 
Q 2956 2369 2687 2733 
Q 2419 3097 1959 3097 
z
M 1959 3584 
Q 2709 3584 3137 3096 
Q 3566 2609 3566 1747 
Q 3566 888 3137 398 
Q 2709 -91 1959 -91 
Q 1206 -91 779 398 
Q 353 888 353 1747 
Q 353 2609 779 3096 
Q 1206 3584 1959 3584 
z
" transform="scale(0.015625)"/>
        <path id="DejaVuSans-6e" d="M 3513 2113 
L 3513 0 
L 2938 0 
L 2938 2094 
Q 2938 2591 2744 2837 
Q 2550 3084 2163 3084 
Q 1697 3084 1428 2787 
Q 1159 2491 1159 1978 
L 1159 0 
L 581 0 
L 581 3500 
L 1159 3500 
L 1159 2956 
Q 1366 3272 1645 3428 
Q 1925 3584 2291 3584 
Q 2894 3584 3203 3211 
Q 3513 2838 3513 2113 
z
" transform="scale(0.015625)"/>
        <path id="DejaVuSans-68" d="M 3513 2113 
L 3513 0 
L 2938 0 
L 2938 2094 
Q 2938 2591 2744 2837 
Q 2550 3084 2163 3084 
Q 1697 3084 1428 2787 
Q 1159 2491 1159 1978 
L 1159 0 
L 581 0 
L 581 4863 
L 1159 4863 
L 1159 2956 
Q 1366 3272 1645 3428 
Q 1925 3584 2291 3584 
Q 2894 3584 3203 3211 
Q 3513 2838 3513 2113 
z
" transform="scale(0.015625)"/>
        <path id="DejaVuSans-48" d="M 628 4666 
L 1259 4666 
L 1259 2753 
L 3553 2753 
L 3553 4666 
L 4184 4666 
L 4184 0 
L 3553 0 
L 3553 2222 
L 1259 2222 
L 1259 0 
L 628 0 
L 628 4666 
z
" transform="scale(0.015625)"/>
       </defs>
       <use xlink:href="#DejaVuSans-4a"/>
       <use xlink:href="#DejaVuSans-6f" x="29.492188"/>
       <use xlink:href="#DejaVuSans-6e" x="90.673828"/>
       <use xlink:href="#DejaVuSans-61" x="154.052734"/>
       <use xlink:href="#DejaVuSans-68" x="215.332031"/>
       <use xlink:href="#DejaVuSans-20" x="278.710938"/>
       <use xlink:href="#DejaVuSans-48" x="310.498047"/>
       <use xlink:href="#DejaVuSans-69" x="385.693359"/>
       <use xlink:href="#DejaVuSans-6c" x="413.476562"/>
       <use xlink:href="#DejaVuSans-6c" x="441.259766"/>
      </g>
     </g>
    </g>
    <g id="xtick_4">
     <g id="line2d_4">
      <g>
       <use xlink:href="#mdb0fccf9d8" x="327.927" y="250.85" style="stroke: #000000; stroke-width: 0.8"/>
      </g>
     </g>
     <g id="text_4">
      <!-- Katherine Heigl -->
      <g transform="translate(330.686375 334.907812) rotate(-90) scale(0.1 -0.1)">
       <defs>
        <path id="DejaVuSans-4b" d="M 628 4666 
L 1259 4666 
L 1259 2694 
L 3353 4666 
L 4166 4666 
L 1850 2491 
L 4331 0 
L 3500 0 
L 1259 2247 
L 1259 0 
L 628 0 
L 628 4666 
z
" transform="scale(0.015625)"/>
        <path id="DejaVuSans-74" d="M 1172 4494 
L 1172 3500 
L 2356 3500 
L 2356 3053 
L 1172 3053 
L 1172 1153 
Q 1172 725 1289 603 
Q 1406 481 1766 481 
L 2356 481 
L 2356 0 
L 1766 0 
Q 1100 0 847 248 
Q 594 497 594 1153 
L 594 3053 
L 172 3053 
L 172 3500 
L 594 3500 
L 594 4494 
L 1172 4494 
z
" transform="scale(0.015625)"/>
        <path id="DejaVuSans-72" d="M 2631 2963 
Q 2534 3019 2420 3045 
Q 2306 3072 2169 3072 
Q 1681 3072 1420 2755 
Q 1159 2438 1159 1844 
L 1159 0 
L 581 0 
L 581 3500 
L 1159 3500 
L 1159 2956 
Q 1341 3275 1631 3429 
Q 1922 3584 2338 3584 
Q 2397 3584 2469 3576 
Q 2541 3569 2628 3553 
L 2631 2963 
z
" transform="scale(0.015625)"/>
        <path id="DejaVuSans-67" d="M 2906 1791 
Q 2906 2416 2648 2759 
Q 2391 3103 1925 3103 
Q 1463 3103 1205 2759 
Q 947 2416 947 1791 
Q 947 1169 1205 825 
Q 1463 481 1925 481 
Q 2391 481 2648 825 
Q 2906 1169 2906 1791 
z
M 3481 434 
Q 3481 -459 3084 -895 
Q 2688 -1331 1869 -1331 
Q 1566 -1331 1297 -1286 
Q 1028 -1241 775 -1147 
L 775 -588 
Q 1028 -725 1275 -790 
Q 1522 -856 1778 -856 
Q 2344 -856 2625 -561 
Q 2906 -266 2906 331 
L 2906 616 
Q 2728 306 2450 153 
Q 2172 0 1784 0 
Q 1141 0 747 490 
Q 353 981 353 1791 
Q 353 2603 747 3093 
Q 1141 3584 1784 3584 
Q 2172 3584 2450 3431 
Q 2728 3278 2906 2969 
L 2906 3500 
L 3481 3500 
L 3481 434 
z
" transform="scale(0.015625)"/>
       </defs>
       <use xlink:href="#DejaVuSans-4b"/>
       <use xlink:href="#DejaVuSans-61" x="63.826172"/>
       <use xlink:href="#DejaVuSans-74" x="125.105469"/>
       <use xlink:href="#DejaVuSans-68" x="164.314453"/>
       <use xlink:href="#DejaVuSans-65" x="227.693359"/>
       <use xlink:href="#DejaVuSans-72" x="289.216797"/>
       <use xlink:href="#DejaVuSans-69" x="330.330078"/>
       <use xlink:href="#DejaVuSans-6e" x="358.113281"/>
       <use xlink:href="#DejaVuSans-65" x="421.492188"/>
       <use xlink:href="#DejaVuSans-20" x="483.015625"/>
       <use xlink:href="#DejaVuSans-48" x="514.802734"/>
       <use xlink:href="#DejaVuSans-65" x="589.998047"/>
       <use xlink:href="#DejaVuSans-69" x="651.521484"/>
       <use xlink:href="#DejaVuSans-67" x="679.304688"/>
       <use xlink:href="#DejaVuSans-6c" x="742.78125"/>
      </g>
     </g>
    </g>
    <g id="xtick_5">
     <g id="line2d_5">
      <g>
       <use xlink:href="#mdb0fccf9d8" x="409.309" y="250.85" style="stroke: #000000; stroke-width: 0.8"/>
      </g>
     </g>
     <g id="text_5">
      <!-- Steve Carell -->
      <g transform="translate(412.068375 318.228125) rotate(-90) scale(0.1 -0.1)">
       <defs>
        <path id="DejaVuSans-53" d="M 3425 4513 
L 3425 3897 
Q 3066 4069 2747 4153 
Q 2428 4238 2131 4238 
Q 1616 4238 1336 4038 
Q 1056 3838 1056 3469 
Q 1056 3159 1242 3001 
Q 1428 2844 1947 2747 
L 2328 2669 
Q 3034 2534 3370 2195 
Q 3706 1856 3706 1288 
Q 3706 609 3251 259 
Q 2797 -91 1919 -91 
Q 1588 -91 1214 -16 
Q 841 59 441 206 
L 441 856 
Q 825 641 1194 531 
Q 1563 422 1919 422 
Q 2459 422 2753 634 
Q 3047 847 3047 1241 
Q 3047 1584 2836 1778 
Q 2625 1972 2144 2069 
L 1759 2144 
Q 1053 2284 737 2584 
Q 422 2884 422 3419 
Q 422 4038 858 4394 
Q 1294 4750 2059 4750 
Q 2388 4750 2728 4690 
Q 3069 4631 3425 4513 
z
" transform="scale(0.015625)"/>
        <path id="DejaVuSans-76" d="M 191 3500 
L 800 3500 
L 1894 563 
L 2988 3500 
L 3597 3500 
L 2284 0 
L 1503 0 
L 191 3500 
z
" transform="scale(0.015625)"/>
        <path id="DejaVuSans-43" d="M 4122 4306 
L 4122 3641 
Q 3803 3938 3442 4084 
Q 3081 4231 2675 4231 
Q 1875 4231 1450 3742 
Q 1025 3253 1025 2328 
Q 1025 1406 1450 917 
Q 1875 428 2675 428 
Q 3081 428 3442 575 
Q 3803 722 4122 1019 
L 4122 359 
Q 3791 134 3420 21 
Q 3050 -91 2638 -91 
Q 1578 -91 968 557 
Q 359 1206 359 2328 
Q 359 3453 968 4101 
Q 1578 4750 2638 4750 
Q 3056 4750 3426 4639 
Q 3797 4528 4122 4306 
z
" transform="scale(0.015625)"/>
       </defs>
       <use xlink:href="#DejaVuSans-53"/>
       <use xlink:href="#DejaVuSans-74" x="63.476562"/>
       <use xlink:href="#DejaVuSans-65" x="102.685547"/>
       <use xlink:href="#DejaVuSans-76" x="164.208984"/>
       <use xlink:href="#DejaVuSans-65" x="223.388672"/>
       <use xlink:href="#DejaVuSans-20" x="284.912109"/>
       <use xlink:href="#DejaVuSans-43" x="316.699219"/>
       <use xlink:href="#DejaVuSans-61" x="386.523438"/>
       <use xlink:href="#DejaVuSans-72" x="447.802734"/>
       <use xlink:href="#DejaVuSans-65" x="486.666016"/>
       <use xlink:href="#DejaVuSans-6c" x="548.189453"/>
       <use xlink:href="#DejaVuSans-6c" x="575.972656"/>
      </g>
     </g>
    </g>
   </g>
   <g id="matplotlib.axis_2">
    <g id="ytick_1">
     <g id="line2d_6">
      <defs>
       <path id="md568acf06f" d="M 0 0 
L -3.5 0 
" style="stroke: #000000; stroke-width: 0.8"/>
      </defs>
      <g>
       <use xlink:href="#md568acf06f" x="43.09" y="250.85" style="stroke: #000000; stroke-width: 0.8"/>
      </g>
     </g>
     <g id="text_6">
      <!-- 0 -->
      <g transform="translate(29.7275 254.649219) scale(0.1 -0.1)">
       <defs>
        <path id="DejaVuSans-30" d="M 2034 4250 
Q 1547 4250 1301 3770 
Q 1056 3291 1056 2328 
Q 1056 1369 1301 889 
Q 1547 409 2034 409 
Q 2525 409 2770 889 
Q 3016 1369 3016 2328 
Q 3016 3291 2770 3770 
Q 2525 4250 2034 4250 
z
M 2034 4750 
Q 2819 4750 3233 4129 
Q 3647 3509 3647 2328 
Q 3647 1150 3233 529 
Q 2819 -91 2034 -91 
Q 1250 -91 836 529 
Q 422 1150 422 2328 
Q 422 3509 836 4129 
Q 1250 4750 2034 4750 
z
" transform="scale(0.015625)"/>
       </defs>
       <use xlink:href="#DejaVuSans-30"/>
      </g>
     </g>
    </g>
    <g id="ytick_2">
     <g id="line2d_7">
      <g>
       <use xlink:href="#md568acf06f" x="43.09" y="216.479135" style="stroke: #000000; stroke-width: 0.8"/>
      </g>
     </g>
     <g id="text_7">
      <!-- 500 -->
      <g transform="translate(17.0025 220.278354) scale(0.1 -0.1)">
       <defs>
        <path id="DejaVuSans-35" d="M 691 4666 
L 3169 4666 
L 3169 4134 
L 1269 4134 
L 1269 2991 
Q 1406 3038 1543 3061 
Q 1681 3084 1819 3084 
Q 2600 3084 3056 2656 
Q 3513 2228 3513 1497 
Q 3513 744 3044 326 
Q 2575 -91 1722 -91 
Q 1428 -91 1123 -41 
Q 819 9 494 109 
L 494 744 
Q 775 591 1075 516 
Q 1375 441 1709 441 
Q 2250 441 2565 725 
Q 2881 1009 2881 1497 
Q 2881 1984 2565 2268 
Q 2250 2553 1709 2553 
Q 1456 2553 1204 2497 
Q 953 2441 691 2322 
L 691 4666 
z
" transform="scale(0.015625)"/>
       </defs>
       <use xlink:href="#DejaVuSans-35"/>
       <use xlink:href="#DejaVuSans-30" x="63.623047"/>
       <use xlink:href="#DejaVuSans-30" x="127.246094"/>
      </g>
     </g>
    </g>
    <g id="ytick_3">
     <g id="line2d_8">
      <g>
       <use xlink:href="#md568acf06f" x="43.09" y="182.10827" style="stroke: #000000; stroke-width: 0.8"/>
      </g>
     </g>
     <g id="text_8">
      <!-- 1000 -->
      <g transform="translate(10.64 185.907488) scale(0.1 -0.1)">
       <defs>
        <path id="DejaVuSans-31" d="M 794 531 
L 1825 531 
L 1825 4091 
L 703 3866 
L 703 4441 
L 1819 4666 
L 2450 4666 
L 2450 531 
L 3481 531 
L 3481 0 
L 794 0 
L 794 531 
z
" transform="scale(0.015625)"/>
       </defs>
       <use xlink:href="#DejaVuSans-31"/>
       <use xlink:href="#DejaVuSans-30" x="63.623047"/>
       <use xlink:href="#DejaVuSans-30" x="127.246094"/>
       <use xlink:href="#DejaVuSans-30" x="190.869141"/>
      </g>
     </g>
    </g>
    <g id="ytick_4">
     <g id="line2d_9">
      <g>
       <use xlink:href="#md568acf06f" x="43.09" y="147.737404" style="stroke: #000000; stroke-width: 0.8"/>
      </g>
     </g>
     <g id="text_9">
      <!-- 1500 -->
      <g transform="translate(10.64 151.536623) scale(0.1 -0.1)">
       <use xlink:href="#DejaVuSans-31"/>
       <use xlink:href="#DejaVuSans-35" x="63.623047"/>
       <use xlink:href="#DejaVuSans-30" x="127.246094"/>
       <use xlink:href="#DejaVuSans-30" x="190.869141"/>
      </g>
     </g>
    </g>
    <g id="ytick_5">
     <g id="line2d_10">
      <g>
       <use xlink:href="#md568acf06f" x="43.09" y="113.366539" style="stroke: #000000; stroke-width: 0.8"/>
      </g>
     </g>
     <g id="text_10">
      <!-- 2000 -->
      <g transform="translate(10.64 117.165758) scale(0.1 -0.1)">
       <defs>
        <path id="DejaVuSans-32" d="M 1228 531 
L 3431 531 
L 3431 0 
L 469 0 
L 469 531 
Q 828 903 1448 1529 
Q 2069 2156 2228 2338 
Q 2531 2678 2651 2914 
Q 2772 3150 2772 3378 
Q 2772 3750 2511 3984 
Q 2250 4219 1831 4219 
Q 1534 4219 1204 4116 
Q 875 4013 500 3803 
L 500 4441 
Q 881 4594 1212 4672 
Q 1544 4750 1819 4750 
Q 2544 4750 2975 4387 
Q 3406 4025 3406 3419 
Q 3406 3131 3298 2873 
Q 3191 2616 2906 2266 
Q 2828 2175 2409 1742 
Q 1991 1309 1228 531 
z
" transform="scale(0.015625)"/>
       </defs>
       <use xlink:href="#DejaVuSans-32"/>
       <use xlink:href="#DejaVuSans-30" x="63.623047"/>
       <use xlink:href="#DejaVuSans-30" x="127.246094"/>
       <use xlink:href="#DejaVuSans-30" x="190.869141"/>
      </g>
     </g>
    </g>
    <g id="ytick_6">
     <g id="line2d_11">
      <g>
       <use xlink:href="#md568acf06f" x="43.09" y="78.995674" style="stroke: #000000; stroke-width: 0.8"/>
      </g>
     </g>
     <g id="text_11">
      <!-- 2500 -->
      <g transform="translate(10.64 82.794893) scale(0.1 -0.1)">
       <use xlink:href="#DejaVuSans-32"/>
       <use xlink:href="#DejaVuSans-35" x="63.623047"/>
       <use xlink:href="#DejaVuSans-30" x="127.246094"/>
       <use xlink:href="#DejaVuSans-30" x="190.869141"/>
      </g>
     </g>
    </g>
    <g id="ytick_7">
     <g id="line2d_12">
      <g>
       <use xlink:href="#md568acf06f" x="43.09" y="44.624809" style="stroke: #000000; stroke-width: 0.8"/>
      </g>
     </g>
     <g id="text_12">
      <!-- 3000 -->
      <g transform="translate(10.64 48.424027) scale(0.1 -0.1)">
       <defs>
        <path id="DejaVuSans-33" d="M 2597 2516 
Q 3050 2419 3304 2112 
Q 3559 1806 3559 1356 
Q 3559 666 3084 287 
Q 2609 -91 1734 -91 
Q 1441 -91 1130 -33 
Q 819 25 488 141 
L 488 750 
Q 750 597 1062 519 
Q 1375 441 1716 441 
Q 2309 441 2620 675 
Q 2931 909 2931 1356 
Q 2931 1769 2642 2001 
Q 2353 2234 1838 2234 
L 1294 2234 
L 1294 2753 
L 1863 2753 
Q 2328 2753 2575 2939 
Q 2822 3125 2822 3475 
Q 2822 3834 2567 4026 
Q 2313 4219 1838 4219 
Q 1578 4219 1281 4162 
Q 984 4106 628 3988 
L 628 4550 
Q 988 4650 1302 4700 
Q 1616 4750 1894 4750 
Q 2613 4750 3031 4423 
Q 3450 4097 3450 3541 
Q 3450 3153 3228 2886 
Q 3006 2619 2597 2516 
z
" transform="scale(0.015625)"/>
       </defs>
       <use xlink:href="#DejaVuSans-33"/>
       <use xlink:href="#DejaVuSans-30" x="63.623047"/>
       <use xlink:href="#DejaVuSans-30" x="127.246094"/>
       <use xlink:href="#DejaVuSans-30" x="190.869141"/>
      </g>
     </g>
    </g>
   </g>
   <g id="patch_323">
    <path d="M 43.09 250.85 
L 43.09 10.8 
" style="fill: none; stroke: #000000; stroke-width: 0.8; stroke-linejoin: miter; stroke-linecap: square"/>
   </g>
   <g id="patch_324">
    <path d="M 450 250.85 
L 450 10.8 
" style="fill: none; stroke: #000000; stroke-width: 0.8; stroke-linejoin: miter; stroke-linecap: square"/>
   </g>
   <g id="patch_325">
    <path d="M 43.09 250.85 
L 450 250.85 
" style="fill: none; stroke: #000000; stroke-width: 0.8; stroke-linejoin: miter; stroke-linecap: square"/>
   </g>
   <g id="patch_326">
    <path d="M 43.09 10.8 
L 450 10.8 
" style="fill: none; stroke: #000000; stroke-width: 0.8; stroke-linejoin: miter; stroke-linecap: square"/>
   </g>
  </g>
 </g>
 <defs>
  <clipPath id="p049ff47663">
   <rect x="43.09" y="10.8" width="406.91" height="240.05"/>
  </clipPath>
 </defs>
</svg>
