<?xml version="1.0" encoding="utf-8" standalone="no"?>
<!DOCTYPE svg PUBLIC "-//W3C//DTD SVG 1.1//EN"
  "http://www.w3.org/Graphics/SVG/1.1/DTD/svg11.dtd">
<svg xmlns:xlink="http://www.w3.org/1999/xlink" width="460.8pt" height="345.6pt" viewBox="0 0 460.8 345.6" xmlns="http://www.w3.org/2000/svg" version="1.1">
 <metadata>
  <rdf:RDF xmlns:dc="http://purl.org/dc/elements/1.1/" xmlns:cc="http://creativecommons.org/ns#" xmlns:rdf="http://www.w3.org/1999/02/22-rdf-syntax-ns#">
   <cc:Work>
    <dc:type rdf:resource="http://purl.org/dc/dcmitype/StillImage"/>
    <dc:date>2022-12-20T12:31:06.533936</dc:date>
    <dc:format>image/svg+xml</dc:format>
    <dc:creator>
     <cc:Agent>
      <dc:title>Matplotlib v3.6.0, https://matplotlib.org/</dc:title>
     </cc:Agent>
    </dc:creator>
   </cc:Work>
  </rdf:RDF>
 </metadata>
 <defs>
  <style type="text/css">*{stroke-linejoin: round; stroke-linecap: butt}</style>
 </defs>
 <g id="figure_1">
  <g id="patch_1">
   <path d="M 0 345.6 
L 460.8 345.6 
L 460.8 0 
L 0 0 
z
" style="fill: #ffffff"/>
  </g>
  <g id="axes_1">
   <g id="patch_2">
    <path d="M 43.09 247.97 
L 450 247.97 
L 450 10.8 
L 43.09 10.8 
z
" style="fill: #ffffff"/>
   </g>
   <g id="patch_3">
    <path d="M 63.4355 247.97 
L 104.1265 247.97 
L 104.1265 171.606891 
L 63.4355 171.606891 
z
" clip-path="url(#p31fae570a1)" style="fill: #1f77b4"/>
   </g>
   <g id="patch_4">
    <path d="M 144.8175 247.97 
L 185.5085 247.97 
L 185.5085 189.567418 
L 144.8175 189.567418 
z
" clip-path="url(#p31fae570a1)" style="fill: #1f77b4"/>
   </g>
   <g id="patch_5">
    <path d="M 226.1995 247.97 
L 266.8905 247.97 
L 266.8905 184.224402 
L 226.1995 184.224402 
z
" clip-path="url(#p31fae570a1)" style="fill: #1f77b4"/>
   </g>
   <g id="patch_6">
    <path d="M 307.5815 247.97 
L 348.2725 247.97 
L 348.2725 195.964274 
L 307.5815 195.964274 
z
" clip-path="url(#p31fae570a1)" style="fill: #1f77b4"/>
   </g>
   <g id="patch_7">
    <path d="M 388.9635 247.97 
L 429.6545 247.97 
L 429.6545 216.681173 
L 388.9635 216.681173 
z
" clip-path="url(#p31fae570a1)" style="fill: #1f77b4"/>
   </g>
   <g id="patch_8">
    <path d="M 63.4355 247.97 
L 104.1265 247.97 
L 104.1265 247.766249 
L 63.4355 247.766249 
z
" clip-path="url(#p31fae570a1)" style="fill: #1f77b4"/>
   </g>
   <g id="patch_9">
    <path d="M 144.8175 247.97 
L 185.5085 247.97 
L 185.5085 247.902083 
L 144.8175 247.902083 
z
" clip-path="url(#p31fae570a1)" style="fill: #1f77b4"/>
   </g>
   <g id="patch_10">
    <path d="M 226.1995 247.97 
L 266.8905 247.97 
L 266.8905 247.97 
L 226.1995 247.97 
z
" clip-path="url(#p31fae570a1)" style="fill: #1f77b4"/>
   </g>
   <g id="patch_11">
    <path d="M 63.4355 247.97 
L 104.1265 247.97 
L 104.1265 247.947361 
L 63.4355 247.947361 
z
" clip-path="url(#p31fae570a1)" style="fill: #1f77b4"/>
   </g>
   <g id="patch_12">
    <path d="M 144.8175 247.97 
L 185.5085 247.97 
L 185.5085 247.947361 
L 144.8175 247.947361 
z
" clip-path="url(#p31fae570a1)" style="fill: #1f77b4"/>
   </g>
   <g id="patch_13">
    <path d="M 226.1995 247.97 
L 266.8905 247.97 
L 266.8905 247.947361 
L 226.1995 247.947361 
z
" clip-path="url(#p31fae570a1)" style="fill: #1f77b4"/>
   </g>
   <g id="patch_14">
    <path d="M 307.5815 247.97 
L 348.2725 247.97 
L 348.2725 247.902083 
L 307.5815 247.902083 
z
" clip-path="url(#p31fae570a1)" style="fill: #1f77b4"/>
   </g>
   <g id="patch_15">
    <path d="M 388.9635 247.97 
L 429.6545 247.97 
L 429.6545 247.97 
L 388.9635 247.97 
z
" clip-path="url(#p31fae570a1)" style="fill: #1f77b4"/>
   </g>
   <g id="patch_16">
    <path d="M 63.4355 247.97 
L 104.1265 247.97 
L 104.1265 235.201604 
L 63.4355 235.201604 
z
" clip-path="url(#p31fae570a1)" style="fill: #1f77b4"/>
   </g>
   <g id="patch_17">
    <path d="M 144.8175 247.97 
L 185.5085 247.97 
L 185.5085 244.370399 
L 144.8175 244.370399 
z
" clip-path="url(#p31fae570a1)" style="fill: #1f77b4"/>
   </g>
   <g id="patch_18">
    <path d="M 226.1995 247.97 
L 266.8905 247.97 
L 266.8905 245.01561 
L 226.1995 245.01561 
z
" clip-path="url(#p31fae570a1)" style="fill: #1f77b4"/>
   </g>
   <g id="patch_19">
    <path d="M 307.5815 247.97 
L 348.2725 247.97 
L 348.2725 235.541189 
L 307.5815 235.541189 
z
" clip-path="url(#p31fae570a1)" style="fill: #1f77b4"/>
   </g>
   <g id="patch_20">
    <path d="M 388.9635 247.97 
L 429.6545 247.97 
L 429.6545 246.37395 
L 388.9635 246.37395 
z
" clip-path="url(#p31fae570a1)" style="fill: #1f77b4"/>
   </g>
   <g id="patch_21">
    <path d="M 63.4355 247.97 
L 104.1265 247.97 
L 104.1265 247.902083 
L 63.4355 247.902083 
z
" clip-path="url(#p31fae570a1)" style="fill: #1f77b4"/>
   </g>
   <g id="patch_22">
    <path d="M 144.8175 247.97 
L 185.5085 247.97 
L 185.5085 247.97 
L 144.8175 247.97 
z
" clip-path="url(#p31fae570a1)" style="fill: #1f77b4"/>
   </g>
   <g id="patch_23">
    <path d="M 226.1995 247.97 
L 266.8905 247.97 
L 266.8905 247.97 
L 226.1995 247.97 
z
" clip-path="url(#p31fae570a1)" style="fill: #1f77b4"/>
   </g>
   <g id="patch_24">
    <path d="M 307.5815 247.97 
L 348.2725 247.97 
L 348.2725 247.97 
L 307.5815 247.97 
z
" clip-path="url(#p31fae570a1)" style="fill: #1f77b4"/>
   </g>
   <g id="patch_25">
    <path d="M 63.4355 247.97 
L 104.1265 247.97 
L 104.1265 246.136241 
L 63.4355 246.136241 
z
" clip-path="url(#p31fae570a1)" style="fill: #1f77b4"/>
   </g>
   <g id="patch_26">
    <path d="M 144.8175 247.97 
L 185.5085 247.97 
L 185.5085 247.766249 
L 144.8175 247.766249 
z
" clip-path="url(#p31fae570a1)" style="fill: #1f77b4"/>
   </g>
   <g id="patch_27">
    <path d="M 226.1995 247.97 
L 266.8905 247.97 
L 266.8905 247.902083 
L 226.1995 247.902083 
z
" clip-path="url(#p31fae570a1)" style="fill: #1f77b4"/>
   </g>
   <g id="patch_28">
    <path d="M 307.5815 247.97 
L 348.2725 247.97 
L 348.2725 247.902083 
L 307.5815 247.902083 
z
" clip-path="url(#p31fae570a1)" style="fill: #1f77b4"/>
   </g>
   <g id="patch_29">
    <path d="M 388.9635 247.97 
L 429.6545 247.97 
L 429.6545 247.494581 
L 388.9635 247.494581 
z
" clip-path="url(#p31fae570a1)" style="fill: #1f77b4"/>
   </g>
   <g id="patch_30">
    <path d="M 63.4355 247.97 
L 104.1265 247.97 
L 104.1265 247.834166 
L 63.4355 247.834166 
z
" clip-path="url(#p31fae570a1)" style="fill: #1f77b4"/>
   </g>
   <g id="patch_31">
    <path d="M 144.8175 247.97 
L 185.5085 247.97 
L 185.5085 247.834166 
L 144.8175 247.834166 
z
" clip-path="url(#p31fae570a1)" style="fill: #1f77b4"/>
   </g>
   <g id="patch_32">
    <path d="M 226.1995 247.97 
L 266.8905 247.97 
L 266.8905 247.834166 
L 226.1995 247.834166 
z
" clip-path="url(#p31fae570a1)" style="fill: #1f77b4"/>
   </g>
   <g id="patch_33">
    <path d="M 307.5815 247.97 
L 348.2725 247.97 
L 348.2725 247.834166 
L 307.5815 247.834166 
z
" clip-path="url(#p31fae570a1)" style="fill: #1f77b4"/>
   </g>
   <g id="patch_34">
    <path d="M 388.9635 247.97 
L 429.6545 247.97 
L 429.6545 247.834166 
L 388.9635 247.834166 
z
" clip-path="url(#p31fae570a1)" style="fill: #1f77b4"/>
   </g>
   <g id="patch_35">
    <path d="M 63.4355 247.97 
L 104.1265 247.97 
L 104.1265 247.766249 
L 63.4355 247.766249 
z
" clip-path="url(#p31fae570a1)" style="fill: #1f77b4"/>
   </g>
   <g id="patch_36">
    <path d="M 144.8175 247.97 
L 185.5085 247.97 
L 185.5085 247.800207 
L 144.8175 247.800207 
z
" clip-path="url(#p31fae570a1)" style="fill: #1f77b4"/>
   </g>
   <g id="patch_37">
    <path d="M 226.1995 247.97 
L 266.8905 247.97 
L 266.8905 247.902083 
L 226.1995 247.902083 
z
" clip-path="url(#p31fae570a1)" style="fill: #1f77b4"/>
   </g>
   <g id="patch_38">
    <path d="M 307.5815 247.97 
L 348.2725 247.97 
L 348.2725 247.936041 
L 307.5815 247.936041 
z
" clip-path="url(#p31fae570a1)" style="fill: #1f77b4"/>
   </g>
   <g id="patch_39">
    <path d="M 388.9635 247.97 
L 429.6545 247.97 
L 429.6545 247.936041 
L 388.9635 247.936041 
z
" clip-path="url(#p31fae570a1)" style="fill: #1f77b4"/>
   </g>
   <g id="patch_40">
    <path d="M 63.4355 247.97 
L 104.1265 247.97 
L 104.1265 247.766249 
L 63.4355 247.766249 
z
" clip-path="url(#p31fae570a1)" style="fill: #1f77b4"/>
   </g>
   <g id="patch_41">
    <path d="M 144.8175 247.97 
L 185.5085 247.97 
L 185.5085 247.97 
L 144.8175 247.97 
z
" clip-path="url(#p31fae570a1)" style="fill: #1f77b4"/>
   </g>
   <g id="patch_42">
    <path d="M 226.1995 247.97 
L 266.8905 247.97 
L 266.8905 247.97 
L 226.1995 247.97 
z
" clip-path="url(#p31fae570a1)" style="fill: #1f77b4"/>
   </g>
   <g id="patch_43">
    <path d="M 63.4355 247.97 
L 104.1265 247.97 
L 104.1265 247.766249 
L 63.4355 247.766249 
z
" clip-path="url(#p31fae570a1)" style="fill: #1f77b4"/>
   </g>
   <g id="patch_44">
    <path d="M 144.8175 247.97 
L 185.5085 247.97 
L 185.5085 247.902083 
L 144.8175 247.902083 
z
" clip-path="url(#p31fae570a1)" style="fill: #1f77b4"/>
   </g>
   <g id="patch_45">
    <path d="M 63.4355 247.97 
L 104.1265 247.97 
L 104.1265 173.083419 
L 63.4355 173.083419 
z
" clip-path="url(#p31fae570a1)" style="fill: #1f77b4"/>
   </g>
   <g id="patch_46">
    <path d="M 144.8175 247.97 
L 185.5085 247.97 
L 185.5085 194.161224 
L 144.8175 194.161224 
z
" clip-path="url(#p31fae570a1)" style="fill: #1f77b4"/>
   </g>
   <g id="patch_47">
    <path d="M 226.1995 247.97 
L 266.8905 247.97 
L 266.8905 201.201256 
L 226.1995 201.201256 
z
" clip-path="url(#p31fae570a1)" style="fill: #1f77b4"/>
   </g>
   <g id="patch_48">
    <path d="M 307.5815 247.97 
L 348.2725 247.97 
L 348.2725 194.348122 
L 307.5815 194.348122 
z
" clip-path="url(#p31fae570a1)" style="fill: #1f77b4"/>
   </g>
   <g id="patch_49">
    <path d="M 388.9635 247.97 
L 429.6545 247.97 
L 429.6545 208.531641 
L 388.9635 208.531641 
z
" clip-path="url(#p31fae570a1)" style="fill: #1f77b4"/>
   </g>
   <g id="patch_50">
    <path d="M 63.4355 247.97 
L 104.1265 247.97 
L 104.1265 247.97 
L 63.4355 247.97 
z
" clip-path="url(#p31fae570a1)" style="fill: #1f77b4"/>
   </g>
   <g id="patch_51">
    <path d="M 144.8175 247.97 
L 185.5085 247.97 
L 185.5085 247.97 
L 144.8175 247.97 
z
" clip-path="url(#p31fae570a1)" style="fill: #1f77b4"/>
   </g>
   <g id="patch_52">
    <path d="M 226.1995 247.97 
L 266.8905 247.97 
L 266.8905 247.97 
L 226.1995 247.97 
z
" clip-path="url(#p31fae570a1)" style="fill: #1f77b4"/>
   </g>
   <g id="patch_53">
    <path d="M 307.5815 247.97 
L 348.2725 247.97 
L 348.2725 247.97 
L 307.5815 247.97 
z
" clip-path="url(#p31fae570a1)" style="fill: #1f77b4"/>
   </g>
   <g id="patch_54">
    <path d="M 388.9635 247.97 
L 429.6545 247.97 
L 429.6545 247.97 
L 388.9635 247.97 
z
" clip-path="url(#p31fae570a1)" style="fill: #1f77b4"/>
   </g>
   <g id="patch_55">
    <path d="M 63.4355 247.97 
L 104.1265 247.97 
L 104.1265 247.902083 
L 63.4355 247.902083 
z
" clip-path="url(#p31fae570a1)" style="fill: #1f77b4"/>
   </g>
   <g id="patch_56">
    <path d="M 144.8175 247.97 
L 185.5085 247.97 
L 185.5085 247.97 
L 144.8175 247.97 
z
" clip-path="url(#p31fae570a1)" style="fill: #1f77b4"/>
   </g>
   <g id="patch_57">
    <path d="M 226.1995 247.97 
L 266.8905 247.97 
L 266.8905 247.97 
L 226.1995 247.97 
z
" clip-path="url(#p31fae570a1)" style="fill: #1f77b4"/>
   </g>
   <g id="patch_58">
    <path d="M 307.5815 247.97 
L 348.2725 247.97 
L 348.2725 247.97 
L 307.5815 247.97 
z
" clip-path="url(#p31fae570a1)" style="fill: #1f77b4"/>
   </g>
   <g id="patch_59">
    <path d="M 388.9635 247.97 
L 429.6545 247.97 
L 429.6545 247.97 
L 388.9635 247.97 
z
" clip-path="url(#p31fae570a1)" style="fill: #1f77b4"/>
   </g>
   <g id="patch_60">
    <path d="M 63.4355 247.97 
L 104.1265 247.97 
L 104.1265 247.596456 
L 63.4355 247.596456 
z
" clip-path="url(#p31fae570a1)" style="fill: #1f77b4"/>
   </g>
   <g id="patch_61">
    <path d="M 144.8175 247.97 
L 185.5085 247.97 
L 185.5085 247.766249 
L 144.8175 247.766249 
z
" clip-path="url(#p31fae570a1)" style="fill: #1f77b4"/>
   </g>
   <g id="patch_62">
    <path d="M 226.1995 247.97 
L 266.8905 247.97 
L 266.8905 247.936041 
L 226.1995 247.936041 
z
" clip-path="url(#p31fae570a1)" style="fill: #1f77b4"/>
   </g>
   <g id="patch_63">
    <path d="M 307.5815 247.97 
L 348.2725 247.97 
L 348.2725 247.97 
L 307.5815 247.97 
z
" clip-path="url(#p31fae570a1)" style="fill: #1f77b4"/>
   </g>
   <g id="patch_64">
    <path d="M 388.9635 247.97 
L 429.6545 247.97 
L 429.6545 247.97 
L 388.9635 247.97 
z
" clip-path="url(#p31fae570a1)" style="fill: #1f77b4"/>
   </g>
   <g id="patch_65">
    <path d="M 63.4355 247.97 
L 104.1265 247.97 
L 104.1265 240.465171 
L 63.4355 240.465171 
z
" clip-path="url(#p31fae570a1)" style="fill: #1f77b4"/>
   </g>
   <g id="patch_66">
    <path d="M 144.8175 247.97 
L 185.5085 247.97 
L 185.5085 247.29083 
L 144.8175 247.29083 
z
" clip-path="url(#p31fae570a1)" style="fill: #1f77b4"/>
   </g>
   <g id="patch_67">
    <path d="M 226.1995 247.97 
L 266.8905 247.97 
L 266.8905 243.872341 
L 226.1995 243.872341 
z
" clip-path="url(#p31fae570a1)" style="fill: #1f77b4"/>
   </g>
   <g id="patch_68">
    <path d="M 307.5815 247.97 
L 348.2725 247.97 
L 348.2725 242.808308 
L 307.5815 242.808308 
z
" clip-path="url(#p31fae570a1)" style="fill: #1f77b4"/>
   </g>
   <g id="patch_69">
    <path d="M 388.9635 247.97 
L 429.6545 247.97 
L 429.6545 243.793104 
L 388.9635 243.793104 
z
" clip-path="url(#p31fae570a1)" style="fill: #1f77b4"/>
   </g>
   <g id="patch_70">
    <path d="M 63.4355 247.97 
L 104.1265 247.97 
L 104.1265 225.36793 
L 63.4355 225.36793 
z
" clip-path="url(#p31fae570a1)" style="fill: #1f77b4"/>
   </g>
   <g id="patch_71">
    <path d="M 144.8175 247.97 
L 185.5085 247.97 
L 185.5085 228.611345 
L 144.8175 228.611345 
z
" clip-path="url(#p31fae570a1)" style="fill: #1f77b4"/>
   </g>
   <g id="patch_72">
    <path d="M 226.1995 247.97 
L 266.8905 247.97 
L 266.8905 200.957217 
L 226.1995 200.957217 
z
" clip-path="url(#p31fae570a1)" style="fill: #1f77b4"/>
   </g>
   <g id="patch_73">
    <path d="M 307.5815 247.97 
L 348.2725 247.97 
L 348.2725 219.620314 
L 307.5815 219.620314 
z
" clip-path="url(#p31fae570a1)" style="fill: #1f77b4"/>
   </g>
   <g id="patch_74">
    <path d="M 388.9635 247.97 
L 429.6545 247.97 
L 429.6545 200.647685 
L 388.9635 200.647685 
z
" clip-path="url(#p31fae570a1)" style="fill: #1f77b4"/>
   </g>
   <g id="patch_75">
    <path d="M 63.4355 247.97 
L 104.1265 247.97 
L 104.1265 247.97 
L 63.4355 247.97 
z
" clip-path="url(#p31fae570a1)" style="fill: #1f77b4"/>
   </g>
   <g id="patch_76">
    <path d="M 144.8175 247.97 
L 185.5085 247.97 
L 185.5085 247.97 
L 144.8175 247.97 
z
" clip-path="url(#p31fae570a1)" style="fill: #1f77b4"/>
   </g>
   <g id="patch_77">
    <path d="M 63.4355 247.97 
L 104.1265 247.97 
L 104.1265 247.121037 
L 63.4355 247.121037 
z
" clip-path="url(#p31fae570a1)" style="fill: #1f77b4"/>
   </g>
   <g id="patch_78">
    <path d="M 144.8175 247.97 
L 185.5085 247.97 
L 185.5085 247.29083 
L 144.8175 247.29083 
z
" clip-path="url(#p31fae570a1)" style="fill: #1f77b4"/>
   </g>
   <g id="patch_79">
    <path d="M 226.1995 247.97 
L 266.8905 247.97 
L 266.8905 247.562498 
L 226.1995 247.562498 
z
" clip-path="url(#p31fae570a1)" style="fill: #1f77b4"/>
   </g>
   <g id="patch_80">
    <path d="M 307.5815 247.97 
L 348.2725 247.97 
L 348.2725 247.902083 
L 307.5815 247.902083 
z
" clip-path="url(#p31fae570a1)" style="fill: #1f77b4"/>
   </g>
   <g id="patch_81">
    <path d="M 388.9635 247.97 
L 429.6545 247.97 
L 429.6545 247.834166 
L 388.9635 247.834166 
z
" clip-path="url(#p31fae570a1)" style="fill: #1f77b4"/>
   </g>
   <g id="patch_82">
    <path d="M 63.4355 247.97 
L 104.1265 247.97 
L 104.1265 247.766249 
L 63.4355 247.766249 
z
" clip-path="url(#p31fae570a1)" style="fill: #1f77b4"/>
   </g>
   <g id="patch_83">
    <path d="M 144.8175 247.97 
L 185.5085 247.97 
L 185.5085 247.766249 
L 144.8175 247.766249 
z
" clip-path="url(#p31fae570a1)" style="fill: #1f77b4"/>
   </g>
   <g id="patch_84">
    <path d="M 226.1995 247.97 
L 266.8905 247.97 
L 266.8905 247.902083 
L 226.1995 247.902083 
z
" clip-path="url(#p31fae570a1)" style="fill: #1f77b4"/>
   </g>
   <g id="patch_85">
    <path d="M 307.5815 247.97 
L 348.2725 247.97 
L 348.2725 247.97 
L 307.5815 247.97 
z
" clip-path="url(#p31fae570a1)" style="fill: #1f77b4"/>
   </g>
   <g id="patch_86">
    <path d="M 388.9635 247.97 
L 429.6545 247.97 
L 429.6545 247.97 
L 388.9635 247.97 
z
" clip-path="url(#p31fae570a1)" style="fill: #1f77b4"/>
   </g>
   <g id="patch_87">
    <path d="M 63.4355 247.97 
L 104.1265 247.97 
L 104.1265 246.543743 
L 63.4355 246.543743 
z
" clip-path="url(#p31fae570a1)" style="fill: #1f77b4"/>
   </g>
   <g id="patch_88">
    <path d="M 144.8175 247.97 
L 185.5085 247.97 
L 185.5085 247.936041 
L 144.8175 247.936041 
z
" clip-path="url(#p31fae570a1)" style="fill: #1f77b4"/>
   </g>
   <g id="patch_89">
    <path d="M 226.1995 247.97 
L 266.8905 247.97 
L 266.8905 247.936041 
L 226.1995 247.936041 
z
" clip-path="url(#p31fae570a1)" style="fill: #1f77b4"/>
   </g>
   <g id="patch_90">
    <path d="M 307.5815 247.97 
L 348.2725 247.97 
L 348.2725 247.936041 
L 307.5815 247.936041 
z
" clip-path="url(#p31fae570a1)" style="fill: #1f77b4"/>
   </g>
   <g id="patch_91">
    <path d="M 388.9635 247.97 
L 429.6545 247.97 
L 429.6545 247.936041 
L 388.9635 247.936041 
z
" clip-path="url(#p31fae570a1)" style="fill: #1f77b4"/>
   </g>
   <g id="patch_92">
    <path d="M 63.4355 247.97 
L 104.1265 247.97 
L 104.1265 247.97 
L 63.4355 247.97 
z
" clip-path="url(#p31fae570a1)" style="fill: #1f77b4"/>
   </g>
   <g id="patch_93">
    <path d="M 63.4355 247.97 
L 104.1265 247.97 
L 104.1265 247.630415 
L 63.4355 247.630415 
z
" clip-path="url(#p31fae570a1)" style="fill: #1f77b4"/>
   </g>
   <g id="patch_94">
    <path d="M 144.8175 247.97 
L 185.5085 247.97 
L 185.5085 247.630415 
L 144.8175 247.630415 
z
" clip-path="url(#p31fae570a1)" style="fill: #1f77b4"/>
   </g>
   <g id="patch_95">
    <path d="M 226.1995 247.97 
L 266.8905 247.97 
L 266.8905 247.902083 
L 226.1995 247.902083 
z
" clip-path="url(#p31fae570a1)" style="fill: #1f77b4"/>
   </g>
   <g id="patch_96">
    <path d="M 63.4355 247.97 
L 104.1265 247.97 
L 104.1265 246.543743 
L 63.4355 246.543743 
z
" clip-path="url(#p31fae570a1)" style="fill: #1f77b4"/>
   </g>
   <g id="patch_97">
    <path d="M 144.8175 247.97 
L 185.5085 247.97 
L 185.5085 247.902083 
L 144.8175 247.902083 
z
" clip-path="url(#p31fae570a1)" style="fill: #1f77b4"/>
   </g>
   <g id="patch_98">
    <path d="M 226.1995 247.97 
L 266.8905 247.97 
L 266.8905 247.902083 
L 226.1995 247.902083 
z
" clip-path="url(#p31fae570a1)" style="fill: #1f77b4"/>
   </g>
   <g id="patch_99">
    <path d="M 307.5815 247.97 
L 348.2725 247.97 
L 348.2725 247.97 
L 307.5815 247.97 
z
" clip-path="url(#p31fae570a1)" style="fill: #1f77b4"/>
   </g>
   <g id="patch_100">
    <path d="M 388.9635 247.97 
L 429.6545 247.97 
L 429.6545 247.97 
L 388.9635 247.97 
z
" clip-path="url(#p31fae570a1)" style="fill: #1f77b4"/>
   </g>
   <g id="patch_101">
    <path d="M 63.4355 247.97 
L 104.1265 247.97 
L 104.1265 247.97 
L 63.4355 247.97 
z
" clip-path="url(#p31fae570a1)" style="fill: #1f77b4"/>
   </g>
   <g id="patch_102">
    <path d="M 63.4355 247.97 
L 104.1265 247.97 
L 104.1265 171.193918 
L 63.4355 171.193918 
z
" clip-path="url(#p31fae570a1)" style="fill: #1f77b4"/>
   </g>
   <g id="patch_103">
    <path d="M 144.8175 247.97 
L 185.5085 247.97 
L 185.5085 188.087281 
L 144.8175 188.087281 
z
" clip-path="url(#p31fae570a1)" style="fill: #1f77b4"/>
   </g>
   <g id="patch_104">
    <path d="M 226.1995 247.97 
L 266.8905 247.97 
L 266.8905 199.512332 
L 226.1995 199.512332 
z
" clip-path="url(#p31fae570a1)" style="fill: #1f77b4"/>
   </g>
   <g id="patch_105">
    <path d="M 307.5815 247.97 
L 348.2725 247.97 
L 348.2725 208.317294 
L 307.5815 208.317294 
z
" clip-path="url(#p31fae570a1)" style="fill: #1f77b4"/>
   </g>
   <g id="patch_106">
    <path d="M 388.9635 247.97 
L 429.6545 247.97 
L 429.6545 214.598006 
L 388.9635 214.598006 
z
" clip-path="url(#p31fae570a1)" style="fill: #1f77b4"/>
   </g>
   <g id="patch_107">
    <path d="M 63.4355 247.97 
L 104.1265 247.97 
L 104.1265 247.630415 
L 63.4355 247.630415 
z
" clip-path="url(#p31fae570a1)" style="fill: #1f77b4"/>
   </g>
   <g id="patch_108">
    <path d="M 144.8175 247.97 
L 185.5085 247.97 
L 185.5085 247.630415 
L 144.8175 247.630415 
z
" clip-path="url(#p31fae570a1)" style="fill: #1f77b4"/>
   </g>
   <g id="patch_109">
    <path d="M 226.1995 247.97 
L 266.8905 247.97 
L 266.8905 247.630415 
L 226.1995 247.630415 
z
" clip-path="url(#p31fae570a1)" style="fill: #1f77b4"/>
   </g>
   <g id="patch_110">
    <path d="M 307.5815 247.97 
L 348.2725 247.97 
L 348.2725 247.936041 
L 307.5815 247.936041 
z
" clip-path="url(#p31fae570a1)" style="fill: #1f77b4"/>
   </g>
   <g id="patch_111">
    <path d="M 388.9635 247.97 
L 429.6545 247.97 
L 429.6545 247.936041 
L 388.9635 247.936041 
z
" clip-path="url(#p31fae570a1)" style="fill: #1f77b4"/>
   </g>
   <g id="patch_112">
    <path d="M 63.4355 247.97 
L 104.1265 247.97 
L 104.1265 207.868591 
L 63.4355 207.868591 
z
" clip-path="url(#p31fae570a1)" style="fill: #1f77b4"/>
   </g>
   <g id="patch_113">
    <path d="M 144.8175 247.97 
L 185.5085 247.97 
L 185.5085 207.946766 
L 144.8175 207.946766 
z
" clip-path="url(#p31fae570a1)" style="fill: #1f77b4"/>
   </g>
   <g id="patch_114">
    <path d="M 226.1995 247.97 
L 266.8905 247.97 
L 266.8905 221.621172 
L 226.1995 221.621172 
z
" clip-path="url(#p31fae570a1)" style="fill: #1f77b4"/>
   </g>
   <g id="patch_115">
    <path d="M 307.5815 247.97 
L 348.2725 247.97 
L 348.2725 220.436401 
L 307.5815 220.436401 
z
" clip-path="url(#p31fae570a1)" style="fill: #1f77b4"/>
   </g>
   <g id="patch_116">
    <path d="M 388.9635 247.97 
L 429.6545 247.97 
L 429.6545 207.581225 
L 388.9635 207.581225 
z
" clip-path="url(#p31fae570a1)" style="fill: #1f77b4"/>
   </g>
   <g id="patch_117">
    <path d="M 63.4355 247.97 
L 104.1265 247.97 
L 104.1265 247.562498 
L 63.4355 247.562498 
z
" clip-path="url(#p31fae570a1)" style="fill: #1f77b4"/>
   </g>
   <g id="patch_118">
    <path d="M 144.8175 247.97 
L 185.5085 247.97 
L 185.5085 247.630415 
L 144.8175 247.630415 
z
" clip-path="url(#p31fae570a1)" style="fill: #1f77b4"/>
   </g>
   <g id="patch_119">
    <path d="M 226.1995 247.97 
L 266.8905 247.97 
L 266.8905 247.766249 
L 226.1995 247.766249 
z
" clip-path="url(#p31fae570a1)" style="fill: #1f77b4"/>
   </g>
   <g id="patch_120">
    <path d="M 307.5815 247.97 
L 348.2725 247.97 
L 348.2725 247.834166 
L 307.5815 247.834166 
z
" clip-path="url(#p31fae570a1)" style="fill: #1f77b4"/>
   </g>
   <g id="patch_121">
    <path d="M 388.9635 247.97 
L 429.6545 247.97 
L 429.6545 247.936041 
L 388.9635 247.936041 
z
" clip-path="url(#p31fae570a1)" style="fill: #1f77b4"/>
   </g>
   <g id="patch_122">
    <path d="M 63.4355 247.97 
L 104.1265 247.97 
L 104.1265 247.766249 
L 63.4355 247.766249 
z
" clip-path="url(#p31fae570a1)" style="fill: #1f77b4"/>
   </g>
   <g id="patch_123">
    <path d="M 144.8175 247.97 
L 185.5085 247.97 
L 185.5085 247.936041 
L 144.8175 247.936041 
z
" clip-path="url(#p31fae570a1)" style="fill: #1f77b4"/>
   </g>
   <g id="patch_124">
    <path d="M 226.1995 247.97 
L 266.8905 247.97 
L 266.8905 247.936041 
L 226.1995 247.936041 
z
" clip-path="url(#p31fae570a1)" style="fill: #1f77b4"/>
   </g>
   <g id="patch_125">
    <path d="M 307.5815 247.97 
L 348.2725 247.97 
L 348.2725 247.902083 
L 307.5815 247.902083 
z
" clip-path="url(#p31fae570a1)" style="fill: #1f77b4"/>
   </g>
   <g id="patch_126">
    <path d="M 388.9635 247.97 
L 429.6545 247.97 
L 429.6545 247.97 
L 388.9635 247.97 
z
" clip-path="url(#p31fae570a1)" style="fill: #1f77b4"/>
   </g>
   <g id="patch_127">
    <path d="M 63.4355 247.97 
L 104.1265 247.97 
L 104.1265 247.766249 
L 63.4355 247.766249 
z
" clip-path="url(#p31fae570a1)" style="fill: #1f77b4"/>
   </g>
   <g id="patch_128">
    <path d="M 144.8175 247.97 
L 185.5085 247.97 
L 185.5085 247.902083 
L 144.8175 247.902083 
z
" clip-path="url(#p31fae570a1)" style="fill: #1f77b4"/>
   </g>
   <g id="patch_129">
    <path d="M 226.1995 247.97 
L 266.8905 247.97 
L 266.8905 247.97 
L 226.1995 247.97 
z
" clip-path="url(#p31fae570a1)" style="fill: #1f77b4"/>
   </g>
   <g id="patch_130">
    <path d="M 307.5815 247.97 
L 348.2725 247.97 
L 348.2725 247.97 
L 307.5815 247.97 
z
" clip-path="url(#p31fae570a1)" style="fill: #1f77b4"/>
   </g>
   <g id="patch_131">
    <path d="M 388.9635 247.97 
L 429.6545 247.97 
L 429.6545 247.97 
L 388.9635 247.97 
z
" clip-path="url(#p31fae570a1)" style="fill: #1f77b4"/>
   </g>
   <g id="patch_132">
    <path d="M 63.4355 247.97 
L 104.1265 247.97 
L 104.1265 246.178123 
L 63.4355 246.178123 
z
" clip-path="url(#p31fae570a1)" style="fill: #1f77b4"/>
   </g>
   <g id="patch_133">
    <path d="M 144.8175 247.97 
L 185.5085 247.97 
L 185.5085 247.562498 
L 144.8175 247.562498 
z
" clip-path="url(#p31fae570a1)" style="fill: #1f77b4"/>
   </g>
   <g id="patch_134">
    <path d="M 226.1995 247.97 
L 266.8905 247.97 
L 266.8905 247.003315 
L 226.1995 247.003315 
z
" clip-path="url(#p31fae570a1)" style="fill: #1f77b4"/>
   </g>
   <g id="patch_135">
    <path d="M 307.5815 247.97 
L 348.2725 247.97 
L 348.2725 247.003315 
L 307.5815 247.003315 
z
" clip-path="url(#p31fae570a1)" style="fill: #1f77b4"/>
   </g>
   <g id="patch_136">
    <path d="M 388.9635 247.97 
L 429.6545 247.97 
L 429.6545 247.003315 
L 388.9635 247.003315 
z
" clip-path="url(#p31fae570a1)" style="fill: #1f77b4"/>
   </g>
   <g id="patch_137">
    <path d="M 63.4355 247.97 
L 104.1265 247.97 
L 104.1265 234.114554 
L 63.4355 234.114554 
z
" clip-path="url(#p31fae570a1)" style="fill: #1f77b4"/>
   </g>
   <g id="patch_138">
    <path d="M 144.8175 247.97 
L 185.5085 247.97 
L 185.5085 236.717285 
L 144.8175 236.717285 
z
" clip-path="url(#p31fae570a1)" style="fill: #1f77b4"/>
   </g>
   <g id="patch_139">
    <path d="M 226.1995 247.97 
L 266.8905 247.97 
L 266.8905 246.057004 
L 226.1995 246.057004 
z
" clip-path="url(#p31fae570a1)" style="fill: #1f77b4"/>
   </g>
   <g id="patch_140">
    <path d="M 307.5815 247.97 
L 348.2725 247.97 
L 348.2725 247.715311 
L 307.5815 247.715311 
z
" clip-path="url(#p31fae570a1)" style="fill: #1f77b4"/>
   </g>
   <g id="patch_141">
    <path d="M 388.9635 247.97 
L 429.6545 247.97 
L 429.6545 247.715311 
L 388.9635 247.715311 
z
" clip-path="url(#p31fae570a1)" style="fill: #1f77b4"/>
   </g>
   <g id="patch_142">
    <path d="M 63.4355 247.97 
L 104.1265 247.97 
L 104.1265 246.458847 
L 63.4355 246.458847 
z
" clip-path="url(#p31fae570a1)" style="fill: #1f77b4"/>
   </g>
   <g id="patch_143">
    <path d="M 144.8175 247.97 
L 185.5085 247.97 
L 185.5085 246.985203 
L 144.8175 246.985203 
z
" clip-path="url(#p31fae570a1)" style="fill: #1f77b4"/>
   </g>
   <g id="patch_144">
    <path d="M 226.1995 247.97 
L 266.8905 247.97 
L 266.8905 247.766249 
L 226.1995 247.766249 
z
" clip-path="url(#p31fae570a1)" style="fill: #1f77b4"/>
   </g>
   <g id="patch_145">
    <path d="M 307.5815 247.97 
L 348.2725 247.97 
L 348.2725 247.820583 
L 307.5815 247.820583 
z
" clip-path="url(#p31fae570a1)" style="fill: #1f77b4"/>
   </g>
   <g id="patch_146">
    <path d="M 388.9635 247.97 
L 429.6545 247.97 
L 429.6545 247.630415 
L 388.9635 247.630415 
z
" clip-path="url(#p31fae570a1)" style="fill: #1f77b4"/>
   </g>
   <g id="patch_147">
    <path d="M 63.4355 247.97 
L 104.1265 247.97 
L 104.1265 247.82662 
L 63.4355 247.82662 
z
" clip-path="url(#p31fae570a1)" style="fill: #1f77b4"/>
   </g>
   <g id="patch_148">
    <path d="M 144.8175 247.97 
L 185.5085 247.97 
L 185.5085 247.936041 
L 144.8175 247.936041 
z
" clip-path="url(#p31fae570a1)" style="fill: #1f77b4"/>
   </g>
   <g id="patch_149">
    <path d="M 226.1995 247.97 
L 266.8905 247.97 
L 266.8905 247.936041 
L 226.1995 247.936041 
z
" clip-path="url(#p31fae570a1)" style="fill: #1f77b4"/>
   </g>
   <g id="patch_150">
    <path d="M 307.5815 247.97 
L 348.2725 247.97 
L 348.2725 247.962454 
L 307.5815 247.962454 
z
" clip-path="url(#p31fae570a1)" style="fill: #1f77b4"/>
   </g>
   <g id="patch_151">
    <path d="M 388.9635 247.97 
L 429.6545 247.97 
L 429.6545 247.962454 
L 388.9635 247.962454 
z
" clip-path="url(#p31fae570a1)" style="fill: #1f77b4"/>
   </g>
   <g id="patch_152">
    <path d="M 63.4355 247.97 
L 104.1265 247.97 
L 104.1265 247.675693 
L 63.4355 247.675693 
z
" clip-path="url(#p31fae570a1)" style="fill: #1f77b4"/>
   </g>
   <g id="patch_153">
    <path d="M 144.8175 247.97 
L 185.5085 247.97 
L 185.5085 247.811527 
L 144.8175 247.811527 
z
" clip-path="url(#p31fae570a1)" style="fill: #1f77b4"/>
   </g>
   <g id="patch_154">
    <path d="M 226.1995 247.97 
L 266.8905 247.97 
L 266.8905 247.766249 
L 226.1995 247.766249 
z
" clip-path="url(#p31fae570a1)" style="fill: #1f77b4"/>
   </g>
   <g id="patch_155">
    <path d="M 307.5815 247.97 
L 348.2725 247.97 
L 348.2725 247.698332 
L 307.5815 247.698332 
z
" clip-path="url(#p31fae570a1)" style="fill: #1f77b4"/>
   </g>
   <g id="patch_156">
    <path d="M 388.9635 247.97 
L 429.6545 247.97 
L 429.6545 247.902083 
L 388.9635 247.902083 
z
" clip-path="url(#p31fae570a1)" style="fill: #1f77b4"/>
   </g>
   <g id="patch_157">
    <path d="M 63.4355 247.97 
L 104.1265 247.97 
L 104.1265 247.97 
L 63.4355 247.97 
z
" clip-path="url(#p31fae570a1)" style="fill: #1f77b4"/>
   </g>
   <g id="patch_158">
    <path d="M 144.8175 247.97 
L 185.5085 247.97 
L 185.5085 247.97 
L 144.8175 247.97 
z
" clip-path="url(#p31fae570a1)" style="fill: #1f77b4"/>
   </g>
   <g id="patch_159">
    <path d="M 226.1995 247.97 
L 266.8905 247.97 
L 266.8905 247.97 
L 226.1995 247.97 
z
" clip-path="url(#p31fae570a1)" style="fill: #1f77b4"/>
   </g>
   <g id="patch_160">
    <path d="M 307.5815 247.97 
L 348.2725 247.97 
L 348.2725 247.97 
L 307.5815 247.97 
z
" clip-path="url(#p31fae570a1)" style="fill: #1f77b4"/>
   </g>
   <g id="patch_161">
    <path d="M 63.4355 247.97 
L 104.1265 247.97 
L 104.1265 247.97 
L 63.4355 247.97 
z
" clip-path="url(#p31fae570a1)" style="fill: #1f77b4"/>
   </g>
   <g id="patch_162">
    <path d="M 144.8175 247.97 
L 185.5085 247.97 
L 185.5085 247.97 
L 144.8175 247.97 
z
" clip-path="url(#p31fae570a1)" style="fill: #1f77b4"/>
   </g>
   <g id="patch_163">
    <path d="M 226.1995 247.97 
L 266.8905 247.97 
L 266.8905 247.97 
L 226.1995 247.97 
z
" clip-path="url(#p31fae570a1)" style="fill: #1f77b4"/>
   </g>
   <g id="patch_164">
    <path d="M 63.4355 247.97 
L 104.1265 247.97 
L 104.1265 247.97 
L 63.4355 247.97 
z
" clip-path="url(#p31fae570a1)" style="fill: #1f77b4"/>
   </g>
   <g id="patch_165">
    <path d="M 144.8175 247.97 
L 185.5085 247.97 
L 185.5085 247.97 
L 144.8175 247.97 
z
" clip-path="url(#p31fae570a1)" style="fill: #1f77b4"/>
   </g>
   <g id="patch_166">
    <path d="M 226.1995 247.97 
L 266.8905 247.97 
L 266.8905 247.97 
L 226.1995 247.97 
z
" clip-path="url(#p31fae570a1)" style="fill: #1f77b4"/>
   </g>
   <g id="patch_167">
    <path d="M 307.5815 247.97 
L 348.2725 247.97 
L 348.2725 247.97 
L 307.5815 247.97 
z
" clip-path="url(#p31fae570a1)" style="fill: #1f77b4"/>
   </g>
   <g id="patch_168">
    <path d="M 63.4355 247.97 
L 104.1265 247.97 
L 104.1265 247.97 
L 63.4355 247.97 
z
" clip-path="url(#p31fae570a1)" style="fill: #1f77b4"/>
   </g>
   <g id="patch_169">
    <path d="M 144.8175 247.97 
L 185.5085 247.97 
L 185.5085 247.97 
L 144.8175 247.97 
z
" clip-path="url(#p31fae570a1)" style="fill: #1f77b4"/>
   </g>
   <g id="patch_170">
    <path d="M 63.4355 247.97 
L 104.1265 247.97 
L 104.1265 22.09381 
L 63.4355 22.09381 
z
" clip-path="url(#p31fae570a1)" style="fill: #1f77b4"/>
   </g>
   <g id="patch_171">
    <path d="M 144.8175 247.97 
L 185.5085 247.97 
L 185.5085 104.068535 
L 144.8175 104.068535 
z
" clip-path="url(#p31fae570a1)" style="fill: #1f77b4"/>
   </g>
   <g id="patch_172">
    <path d="M 226.1995 247.97 
L 266.8905 247.97 
L 266.8905 140.945357 
L 226.1995 140.945357 
z
" clip-path="url(#p31fae570a1)" style="fill: #1f77b4"/>
   </g>
   <g id="patch_173">
    <path d="M 307.5815 247.97 
L 348.2725 247.97 
L 348.2725 132.211998 
L 307.5815 132.211998 
z
" clip-path="url(#p31fae570a1)" style="fill: #1f77b4"/>
   </g>
   <g id="patch_174">
    <path d="M 388.9635 247.97 
L 429.6545 247.97 
L 429.6545 155.173624 
L 388.9635 155.173624 
z
" clip-path="url(#p31fae570a1)" style="fill: #1f77b4"/>
   </g>
   <g id="patch_175">
    <path d="M 63.4355 247.97 
L 104.1265 247.97 
L 104.1265 247.613436 
L 63.4355 247.613436 
z
" clip-path="url(#p31fae570a1)" style="fill: #1f77b4"/>
   </g>
   <g id="patch_176">
    <path d="M 144.8175 247.97 
L 185.5085 247.97 
L 185.5085 247.902083 
L 144.8175 247.902083 
z
" clip-path="url(#p31fae570a1)" style="fill: #1f77b4"/>
   </g>
   <g id="patch_177">
    <path d="M 226.1995 247.97 
L 266.8905 247.97 
L 266.8905 247.902083 
L 226.1995 247.902083 
z
" clip-path="url(#p31fae570a1)" style="fill: #1f77b4"/>
   </g>
   <g id="patch_178">
    <path d="M 307.5815 247.97 
L 348.2725 247.97 
L 348.2725 247.902083 
L 307.5815 247.902083 
z
" clip-path="url(#p31fae570a1)" style="fill: #1f77b4"/>
   </g>
   <g id="patch_179">
    <path d="M 388.9635 247.97 
L 429.6545 247.97 
L 429.6545 247.868124 
L 388.9635 247.868124 
z
" clip-path="url(#p31fae570a1)" style="fill: #1f77b4"/>
   </g>
   <g id="patch_180">
    <path d="M 63.4355 247.97 
L 104.1265 247.97 
L 104.1265 43.90384 
L 63.4355 43.90384 
z
" clip-path="url(#p31fae570a1)" style="fill: #1f77b4"/>
   </g>
   <g id="patch_181">
    <path d="M 144.8175 247.97 
L 185.5085 247.97 
L 185.5085 142.852334 
L 144.8175 142.852334 
z
" clip-path="url(#p31fae570a1)" style="fill: #1f77b4"/>
   </g>
   <g id="patch_182">
    <path d="M 226.1995 247.97 
L 266.8905 247.97 
L 266.8905 173.313309 
L 226.1995 173.313309 
z
" clip-path="url(#p31fae570a1)" style="fill: #1f77b4"/>
   </g>
   <g id="patch_183">
    <path d="M 307.5815 247.97 
L 348.2725 247.97 
L 348.2725 162.333271 
L 307.5815 162.333271 
z
" clip-path="url(#p31fae570a1)" style="fill: #1f77b4"/>
   </g>
   <g id="patch_184">
    <path d="M 388.9635 247.97 
L 429.6545 247.97 
L 429.6545 189.799709 
L 388.9635 189.799709 
z
" clip-path="url(#p31fae570a1)" style="fill: #1f77b4"/>
   </g>
   <g id="patch_185">
    <path d="M 63.4355 247.97 
L 104.1265 247.97 
L 104.1265 244.087411 
L 63.4355 244.087411 
z
" clip-path="url(#p31fae570a1)" style="fill: #1f77b4"/>
   </g>
   <g id="patch_186">
    <path d="M 144.8175 247.97 
L 185.5085 247.97 
L 185.5085 244.743942 
L 144.8175 244.743942 
z
" clip-path="url(#p31fae570a1)" style="fill: #1f77b4"/>
   </g>
   <g id="patch_187">
    <path d="M 226.1995 247.97 
L 266.8905 247.97 
L 266.8905 247.51722 
L 226.1995 247.51722 
z
" clip-path="url(#p31fae570a1)" style="fill: #1f77b4"/>
   </g>
   <g id="patch_188">
    <path d="M 307.5815 247.97 
L 348.2725 247.97 
L 348.2725 247.51722 
L 307.5815 247.51722 
z
" clip-path="url(#p31fae570a1)" style="fill: #1f77b4"/>
   </g>
   <g id="patch_189">
    <path d="M 388.9635 247.97 
L 429.6545 247.97 
L 429.6545 247.657582 
L 388.9635 247.657582 
z
" clip-path="url(#p31fae570a1)" style="fill: #1f77b4"/>
   </g>
   <g id="patch_190">
    <path d="M 63.4355 247.97 
L 104.1265 247.97 
L 104.1265 215.941474 
L 63.4355 215.941474 
z
" clip-path="url(#p31fae570a1)" style="fill: #1f77b4"/>
   </g>
   <g id="patch_191">
    <path d="M 144.8175 247.97 
L 185.5085 247.97 
L 185.5085 237.239114 
L 144.8175 237.239114 
z
" clip-path="url(#p31fae570a1)" style="fill: #1f77b4"/>
   </g>
   <g id="patch_192">
    <path d="M 226.1995 247.97 
L 266.8905 247.97 
L 266.8905 242.604557 
L 226.1995 242.604557 
z
" clip-path="url(#p31fae570a1)" style="fill: #1f77b4"/>
   </g>
   <g id="patch_193">
    <path d="M 307.5815 247.97 
L 348.2725 247.97 
L 348.2725 242.604557 
L 307.5815 242.604557 
z
" clip-path="url(#p31fae570a1)" style="fill: #1f77b4"/>
   </g>
   <g id="patch_194">
    <path d="M 388.9635 247.97 
L 429.6545 247.97 
L 429.6545 240.913424 
L 388.9635 240.913424 
z
" clip-path="url(#p31fae570a1)" style="fill: #1f77b4"/>
   </g>
   <g id="patch_195">
    <path d="M 63.4355 247.97 
L 104.1265 247.97 
L 104.1265 247.800207 
L 63.4355 247.800207 
z
" clip-path="url(#p31fae570a1)" style="fill: #1f77b4"/>
   </g>
   <g id="patch_196">
    <path d="M 144.8175 247.97 
L 185.5085 247.97 
L 185.5085 247.800207 
L 144.8175 247.800207 
z
" clip-path="url(#p31fae570a1)" style="fill: #1f77b4"/>
   </g>
   <g id="patch_197">
    <path d="M 226.1995 247.97 
L 266.8905 247.97 
L 266.8905 247.800207 
L 226.1995 247.800207 
z
" clip-path="url(#p31fae570a1)" style="fill: #1f77b4"/>
   </g>
   <g id="patch_198">
    <path d="M 307.5815 247.97 
L 348.2725 247.97 
L 348.2725 247.800207 
L 307.5815 247.800207 
z
" clip-path="url(#p31fae570a1)" style="fill: #1f77b4"/>
   </g>
   <g id="patch_199">
    <path d="M 388.9635 247.97 
L 429.6545 247.97 
L 429.6545 247.800207 
L 388.9635 247.800207 
z
" clip-path="url(#p31fae570a1)" style="fill: #1f77b4"/>
   </g>
   <g id="patch_200">
    <path d="M 63.4355 247.97 
L 104.1265 247.97 
L 104.1265 247.834166 
L 63.4355 247.834166 
z
" clip-path="url(#p31fae570a1)" style="fill: #1f77b4"/>
   </g>
   <g id="patch_201">
    <path d="M 144.8175 247.97 
L 185.5085 247.97 
L 185.5085 247.834166 
L 144.8175 247.834166 
z
" clip-path="url(#p31fae570a1)" style="fill: #1f77b4"/>
   </g>
   <g id="patch_202">
    <path d="M 226.1995 247.97 
L 266.8905 247.97 
L 266.8905 247.834166 
L 226.1995 247.834166 
z
" clip-path="url(#p31fae570a1)" style="fill: #1f77b4"/>
   </g>
   <g id="patch_203">
    <path d="M 307.5815 247.97 
L 348.2725 247.97 
L 348.2725 247.953021 
L 307.5815 247.953021 
z
" clip-path="url(#p31fae570a1)" style="fill: #1f77b4"/>
   </g>
   <g id="patch_204">
    <path d="M 388.9635 247.97 
L 429.6545 247.97 
L 429.6545 247.953021 
L 388.9635 247.953021 
z
" clip-path="url(#p31fae570a1)" style="fill: #1f77b4"/>
   </g>
   <g id="patch_205">
    <path d="M 63.4355 247.97 
L 104.1265 247.97 
L 104.1265 210.17264 
L 63.4355 210.17264 
z
" clip-path="url(#p31fae570a1)" style="fill: #1f77b4"/>
   </g>
   <g id="patch_206">
    <path d="M 144.8175 247.97 
L 185.5085 247.97 
L 185.5085 208.789552 
L 144.8175 208.789552 
z
" clip-path="url(#p31fae570a1)" style="fill: #1f77b4"/>
   </g>
   <g id="patch_207">
    <path d="M 226.1995 247.97 
L 266.8905 247.97 
L 266.8905 233.826284 
L 226.1995 233.826284 
z
" clip-path="url(#p31fae570a1)" style="fill: #1f77b4"/>
   </g>
   <g id="patch_208">
    <path d="M 307.5815 247.97 
L 348.2725 247.97 
L 348.2725 233.826284 
L 307.5815 233.826284 
z
" clip-path="url(#p31fae570a1)" style="fill: #1f77b4"/>
   </g>
   <g id="patch_209">
    <path d="M 388.9635 247.97 
L 429.6545 247.97 
L 429.6545 209.702888 
L 388.9635 209.702888 
z
" clip-path="url(#p31fae570a1)" style="fill: #1f77b4"/>
   </g>
   <g id="matplotlib.axis_1">
    <g id="xtick_1">
     <g id="line2d_1">
      <defs>
       <path id="m7d43c4fb4a" d="M 0 0 
L 0 3.5 
" style="stroke: #000000; stroke-width: 0.8"/>
      </defs>
      <g>
       <use xlink:href="#m7d43c4fb4a" x="83.781" y="247.97" style="stroke: #000000; stroke-width: 0.8"/>
      </g>
     </g>
     <g id="text_1">
      <!-- Matt Damon -->
      <g transform="translate(86.540375 316.77) rotate(-90) scale(0.1 -0.1)">
       <defs>
        <path id="DejaVuSans-4d" d="M 628 4666 
L 1569 4666 
L 2759 1491 
L 3956 4666 
L 4897 4666 
L 4897 0 
L 4281 0 
L 4281 4097 
L 3078 897 
L 2444 897 
L 1241 4097 
L 1241 0 
L 628 0 
L 628 4666 
z
" transform="scale(0.015625)"/>
        <path id="DejaVuSans-61" d="M 2194 1759 
Q 1497 1759 1228 1600 
Q 959 1441 959 1056 
Q 959 750 1161 570 
Q 1363 391 1709 391 
Q 2188 391 2477 730 
Q 2766 1069 2766 1631 
L 2766 1759 
L 2194 1759 
z
M 3341 1997 
L 3341 0 
L 2766 0 
L 2766 531 
Q 2569 213 2275 61 
Q 1981 -91 1556 -91 
Q 1019 -91 701 211 
Q 384 513 384 1019 
Q 384 1609 779 1909 
Q 1175 2209 1959 2209 
L 2766 2209 
L 2766 2266 
Q 2766 2663 2505 2880 
Q 2244 3097 1772 3097 
Q 1472 3097 1187 3025 
Q 903 2953 641 2809 
L 641 3341 
Q 956 3463 1253 3523 
Q 1550 3584 1831 3584 
Q 2591 3584 2966 3190 
Q 3341 2797 3341 1997 
z
" transform="scale(0.015625)"/>
        <path id="DejaVuSans-74" d="M 1172 4494 
L 1172 3500 
L 2356 3500 
L 2356 3053 
L 1172 3053 
L 1172 1153 
Q 1172 725 1289 603 
Q 1406 481 1766 481 
L 2356 481 
L 2356 0 
L 1766 0 
Q 1100 0 847 248 
Q 594 497 594 1153 
L 594 3053 
L 172 3053 
L 172 3500 
L 594 3500 
L 594 4494 
L 1172 4494 
z
" transform="scale(0.015625)"/>
        <path id="DejaVuSans-20" transform="scale(0.015625)"/>
        <path id="DejaVuSans-44" d="M 1259 4147 
L 1259 519 
L 2022 519 
Q 2988 519 3436 956 
Q 3884 1394 3884 2338 
Q 3884 3275 3436 3711 
Q 2988 4147 2022 4147 
L 1259 4147 
z
M 628 4666 
L 1925 4666 
Q 3281 4666 3915 4102 
Q 4550 3538 4550 2338 
Q 4550 1131 3912 565 
Q 3275 0 1925 0 
L 628 0 
L 628 4666 
z
" transform="scale(0.015625)"/>
        <path id="DejaVuSans-6d" d="M 3328 2828 
Q 3544 3216 3844 3400 
Q 4144 3584 4550 3584 
Q 5097 3584 5394 3201 
Q 5691 2819 5691 2113 
L 5691 0 
L 5113 0 
L 5113 2094 
Q 5113 2597 4934 2840 
Q 4756 3084 4391 3084 
Q 3944 3084 3684 2787 
Q 3425 2491 3425 1978 
L 3425 0 
L 2847 0 
L 2847 2094 
Q 2847 2600 2669 2842 
Q 2491 3084 2119 3084 
Q 1678 3084 1418 2786 
Q 1159 2488 1159 1978 
L 1159 0 
L 581 0 
L 581 3500 
L 1159 3500 
L 1159 2956 
Q 1356 3278 1631 3431 
Q 1906 3584 2284 3584 
Q 2666 3584 2933 3390 
Q 3200 3197 3328 2828 
z
" transform="scale(0.015625)"/>
        <path id="DejaVuSans-6f" d="M 1959 3097 
Q 1497 3097 1228 2736 
Q 959 2375 959 1747 
Q 959 1119 1226 758 
Q 1494 397 1959 397 
Q 2419 397 2687 759 
Q 2956 1122 2956 1747 
Q 2956 2369 2687 2733 
Q 2419 3097 1959 3097 
z
M 1959 3584 
Q 2709 3584 3137 3096 
Q 3566 2609 3566 1747 
Q 3566 888 3137 398 
Q 2709 -91 1959 -91 
Q 1206 -91 779 398 
Q 353 888 353 1747 
Q 353 2609 779 3096 
Q 1206 3584 1959 3584 
z
" transform="scale(0.015625)"/>
        <path id="DejaVuSans-6e" d="M 3513 2113 
L 3513 0 
L 2938 0 
L 2938 2094 
Q 2938 2591 2744 2837 
Q 2550 3084 2163 3084 
Q 1697 3084 1428 2787 
Q 1159 2491 1159 1978 
L 1159 0 
L 581 0 
L 581 3500 
L 1159 3500 
L 1159 2956 
Q 1366 3272 1645 3428 
Q 1925 3584 2291 3584 
Q 2894 3584 3203 3211 
Q 3513 2838 3513 2113 
z
" transform="scale(0.015625)"/>
       </defs>
       <use xlink:href="#DejaVuSans-4d"/>
       <use xlink:href="#DejaVuSans-61" x="86.279297"/>
       <use xlink:href="#DejaVuSans-74" x="147.558594"/>
       <use xlink:href="#DejaVuSans-74" x="186.767578"/>
       <use xlink:href="#DejaVuSans-20" x="225.976562"/>
       <use xlink:href="#DejaVuSans-44" x="257.763672"/>
       <use xlink:href="#DejaVuSans-61" x="334.765625"/>
       <use xlink:href="#DejaVuSans-6d" x="396.044922"/>
       <use xlink:href="#DejaVuSans-6f" x="493.457031"/>
       <use xlink:href="#DejaVuSans-6e" x="554.638672"/>
      </g>
     </g>
    </g>
    <g id="xtick_2">
     <g id="line2d_2">
      <g>
       <use xlink:href="#m7d43c4fb4a" x="165.163" y="247.97" style="stroke: #000000; stroke-width: 0.8"/>
      </g>
     </g>
     <g id="text_2">
      <!-- Dennis Quaid -->
      <g transform="translate(167.922375 322.127813) rotate(-90) scale(0.1 -0.1)">
       <defs>
        <path id="DejaVuSans-65" d="M 3597 1894 
L 3597 1613 
L 953 1613 
Q 991 1019 1311 708 
Q 1631 397 2203 397 
Q 2534 397 2845 478 
Q 3156 559 3463 722 
L 3463 178 
Q 3153 47 2828 -22 
Q 2503 -91 2169 -91 
Q 1331 -91 842 396 
Q 353 884 353 1716 
Q 353 2575 817 3079 
Q 1281 3584 2069 3584 
Q 2775 3584 3186 3129 
Q 3597 2675 3597 1894 
z
M 3022 2063 
Q 3016 2534 2758 2815 
Q 2500 3097 2075 3097 
Q 1594 3097 1305 2825 
Q 1016 2553 972 2059 
L 3022 2063 
z
" transform="scale(0.015625)"/>
        <path id="DejaVuSans-69" d="M 603 3500 
L 1178 3500 
L 1178 0 
L 603 0 
L 603 3500 
z
M 603 4863 
L 1178 4863 
L 1178 4134 
L 603 4134 
L 603 4863 
z
" transform="scale(0.015625)"/>
        <path id="DejaVuSans-73" d="M 2834 3397 
L 2834 2853 
Q 2591 2978 2328 3040 
Q 2066 3103 1784 3103 
Q 1356 3103 1142 2972 
Q 928 2841 928 2578 
Q 928 2378 1081 2264 
Q 1234 2150 1697 2047 
L 1894 2003 
Q 2506 1872 2764 1633 
Q 3022 1394 3022 966 
Q 3022 478 2636 193 
Q 2250 -91 1575 -91 
Q 1294 -91 989 -36 
Q 684 19 347 128 
L 347 722 
Q 666 556 975 473 
Q 1284 391 1588 391 
Q 1994 391 2212 530 
Q 2431 669 2431 922 
Q 2431 1156 2273 1281 
Q 2116 1406 1581 1522 
L 1381 1569 
Q 847 1681 609 1914 
Q 372 2147 372 2553 
Q 372 3047 722 3315 
Q 1072 3584 1716 3584 
Q 2034 3584 2315 3537 
Q 2597 3491 2834 3397 
z
" transform="scale(0.015625)"/>
        <path id="DejaVuSans-51" d="M 2522 4238 
Q 1834 4238 1429 3725 
Q 1025 3213 1025 2328 
Q 1025 1447 1429 934 
Q 1834 422 2522 422 
Q 3209 422 3611 934 
Q 4013 1447 4013 2328 
Q 4013 3213 3611 3725 
Q 3209 4238 2522 4238 
z
M 3406 84 
L 4238 -825 
L 3475 -825 
L 2784 -78 
Q 2681 -84 2626 -87 
Q 2572 -91 2522 -91 
Q 1538 -91 948 567 
Q 359 1225 359 2328 
Q 359 3434 948 4092 
Q 1538 4750 2522 4750 
Q 3503 4750 4090 4092 
Q 4678 3434 4678 2328 
Q 4678 1516 4351 937 
Q 4025 359 3406 84 
z
" transform="scale(0.015625)"/>
        <path id="DejaVuSans-75" d="M 544 1381 
L 544 3500 
L 1119 3500 
L 1119 1403 
Q 1119 906 1312 657 
Q 1506 409 1894 409 
Q 2359 409 2629 706 
Q 2900 1003 2900 1516 
L 2900 3500 
L 3475 3500 
L 3475 0 
L 2900 0 
L 2900 538 
Q 2691 219 2414 64 
Q 2138 -91 1772 -91 
Q 1169 -91 856 284 
Q 544 659 544 1381 
z
M 1991 3584 
L 1991 3584 
z
" transform="scale(0.015625)"/>
        <path id="DejaVuSans-64" d="M 2906 2969 
L 2906 4863 
L 3481 4863 
L 3481 0 
L 2906 0 
L 2906 525 
Q 2725 213 2448 61 
Q 2172 -91 1784 -91 
Q 1150 -91 751 415 
Q 353 922 353 1747 
Q 353 2572 751 3078 
Q 1150 3584 1784 3584 
Q 2172 3584 2448 3432 
Q 2725 3281 2906 2969 
z
M 947 1747 
Q 947 1113 1208 752 
Q 1469 391 1925 391 
Q 2381 391 2643 752 
Q 2906 1113 2906 1747 
Q 2906 2381 2643 2742 
Q 2381 3103 1925 3103 
Q 1469 3103 1208 2742 
Q 947 2381 947 1747 
z
" transform="scale(0.015625)"/>
       </defs>
       <use xlink:href="#DejaVuSans-44"/>
       <use xlink:href="#DejaVuSans-65" x="77.001953"/>
       <use xlink:href="#DejaVuSans-6e" x="138.525391"/>
       <use xlink:href="#DejaVuSans-6e" x="201.904297"/>
       <use xlink:href="#DejaVuSans-69" x="265.283203"/>
       <use xlink:href="#DejaVuSans-73" x="293.066406"/>
       <use xlink:href="#DejaVuSans-20" x="345.166016"/>
       <use xlink:href="#DejaVuSans-51" x="376.953125"/>
       <use xlink:href="#DejaVuSans-75" x="455.664062"/>
       <use xlink:href="#DejaVuSans-61" x="519.042969"/>
       <use xlink:href="#DejaVuSans-69" x="580.322266"/>
       <use xlink:href="#DejaVuSans-64" x="608.105469"/>
      </g>
     </g>
    </g>
    <g id="xtick_3">
     <g id="line2d_3">
      <g>
       <use xlink:href="#m7d43c4fb4a" x="246.545" y="247.97" style="stroke: #000000; stroke-width: 0.8"/>
      </g>
     </g>
     <g id="text_3">
      <!-- William H. Macy -->
      <g transform="translate(249.304375 334.666875) rotate(-90) scale(0.1 -0.1)">
       <defs>
        <path id="DejaVuSans-57" d="M 213 4666 
L 850 4666 
L 1831 722 
L 2809 4666 
L 3519 4666 
L 4500 722 
L 5478 4666 
L 6119 4666 
L 4947 0 
L 4153 0 
L 3169 4050 
L 2175 0 
L 1381 0 
L 213 4666 
z
" transform="scale(0.015625)"/>
        <path id="DejaVuSans-6c" d="M 603 4863 
L 1178 4863 
L 1178 0 
L 603 0 
L 603 4863 
z
" transform="scale(0.015625)"/>
        <path id="DejaVuSans-48" d="M 628 4666 
L 1259 4666 
L 1259 2753 
L 3553 2753 
L 3553 4666 
L 4184 4666 
L 4184 0 
L 3553 0 
L 3553 2222 
L 1259 2222 
L 1259 0 
L 628 0 
L 628 4666 
z
" transform="scale(0.015625)"/>
        <path id="DejaVuSans-2e" d="M 684 794 
L 1344 794 
L 1344 0 
L 684 0 
L 684 794 
z
" transform="scale(0.015625)"/>
        <path id="DejaVuSans-63" d="M 3122 3366 
L 3122 2828 
Q 2878 2963 2633 3030 
Q 2388 3097 2138 3097 
Q 1578 3097 1268 2742 
Q 959 2388 959 1747 
Q 959 1106 1268 751 
Q 1578 397 2138 397 
Q 2388 397 2633 464 
Q 2878 531 3122 666 
L 3122 134 
Q 2881 22 2623 -34 
Q 2366 -91 2075 -91 
Q 1284 -91 818 406 
Q 353 903 353 1747 
Q 353 2603 823 3093 
Q 1294 3584 2113 3584 
Q 2378 3584 2631 3529 
Q 2884 3475 3122 3366 
z
" transform="scale(0.015625)"/>
        <path id="DejaVuSans-79" d="M 2059 -325 
Q 1816 -950 1584 -1140 
Q 1353 -1331 966 -1331 
L 506 -1331 
L 506 -850 
L 844 -850 
Q 1081 -850 1212 -737 
Q 1344 -625 1503 -206 
L 1606 56 
L 191 3500 
L 800 3500 
L 1894 763 
L 2988 3500 
L 3597 3500 
L 2059 -325 
z
" transform="scale(0.015625)"/>
       </defs>
       <use xlink:href="#DejaVuSans-57"/>
       <use xlink:href="#DejaVuSans-69" x="96.626953"/>
       <use xlink:href="#DejaVuSans-6c" x="124.410156"/>
       <use xlink:href="#DejaVuSans-6c" x="152.193359"/>
       <use xlink:href="#DejaVuSans-69" x="179.976562"/>
       <use xlink:href="#DejaVuSans-61" x="207.759766"/>
       <use xlink:href="#DejaVuSans-6d" x="269.039062"/>
       <use xlink:href="#DejaVuSans-20" x="366.451172"/>
       <use xlink:href="#DejaVuSans-48" x="398.238281"/>
       <use xlink:href="#DejaVuSans-2e" x="471.683594"/>
       <use xlink:href="#DejaVuSans-20" x="503.470703"/>
       <use xlink:href="#DejaVuSans-4d" x="535.257812"/>
       <use xlink:href="#DejaVuSans-61" x="621.537109"/>
       <use xlink:href="#DejaVuSans-63" x="682.816406"/>
       <use xlink:href="#DejaVuSans-79" x="737.796875"/>
      </g>
     </g>
    </g>
    <g id="xtick_4">
     <g id="line2d_4">
      <g>
       <use xlink:href="#m7d43c4fb4a" x="327.927" y="247.97" style="stroke: #000000; stroke-width: 0.8"/>
      </g>
     </g>
     <g id="text_4">
      <!-- Julianne Moore -->
      <g transform="translate(330.686375 328.852812) rotate(-90) scale(0.1 -0.1)">
       <defs>
        <path id="DejaVuSans-4a" d="M 628 4666 
L 1259 4666 
L 1259 325 
Q 1259 -519 939 -900 
Q 619 -1281 -91 -1281 
L -331 -1281 
L -331 -750 
L -134 -750 
Q 284 -750 456 -515 
Q 628 -281 628 325 
L 628 4666 
z
" transform="scale(0.015625)"/>
        <path id="DejaVuSans-72" d="M 2631 2963 
Q 2534 3019 2420 3045 
Q 2306 3072 2169 3072 
Q 1681 3072 1420 2755 
Q 1159 2438 1159 1844 
L 1159 0 
L 581 0 
L 581 3500 
L 1159 3500 
L 1159 2956 
Q 1341 3275 1631 3429 
Q 1922 3584 2338 3584 
Q 2397 3584 2469 3576 
Q 2541 3569 2628 3553 
L 2631 2963 
z
" transform="scale(0.015625)"/>
       </defs>
       <use xlink:href="#DejaVuSans-4a"/>
       <use xlink:href="#DejaVuSans-75" x="29.492188"/>
       <use xlink:href="#DejaVuSans-6c" x="92.871094"/>
       <use xlink:href="#DejaVuSans-69" x="120.654297"/>
       <use xlink:href="#DejaVuSans-61" x="148.4375"/>
       <use xlink:href="#DejaVuSans-6e" x="209.716797"/>
       <use xlink:href="#DejaVuSans-6e" x="273.095703"/>
       <use xlink:href="#DejaVuSans-65" x="336.474609"/>
       <use xlink:href="#DejaVuSans-20" x="397.998047"/>
       <use xlink:href="#DejaVuSans-4d" x="429.785156"/>
       <use xlink:href="#DejaVuSans-6f" x="516.064453"/>
       <use xlink:href="#DejaVuSans-6f" x="577.246094"/>
       <use xlink:href="#DejaVuSans-72" x="638.427734"/>
       <use xlink:href="#DejaVuSans-65" x="677.291016"/>
      </g>
     </g>
    </g>
    <g id="xtick_5">
     <g id="line2d_5">
      <g>
       <use xlink:href="#m7d43c4fb4a" x="409.309" y="247.97" style="stroke: #000000; stroke-width: 0.8"/>
      </g>
     </g>
     <g id="text_5">
      <!-- Famke Janssen -->
      <g transform="translate(412.068375 328.762187) rotate(-90) scale(0.1 -0.1)">
       <defs>
        <path id="DejaVuSans-46" d="M 628 4666 
L 3309 4666 
L 3309 4134 
L 1259 4134 
L 1259 2759 
L 3109 2759 
L 3109 2228 
L 1259 2228 
L 1259 0 
L 628 0 
L 628 4666 
z
" transform="scale(0.015625)"/>
        <path id="DejaVuSans-6b" d="M 581 4863 
L 1159 4863 
L 1159 1991 
L 2875 3500 
L 3609 3500 
L 1753 1863 
L 3688 0 
L 2938 0 
L 1159 1709 
L 1159 0 
L 581 0 
L 581 4863 
z
" transform="scale(0.015625)"/>
       </defs>
       <use xlink:href="#DejaVuSans-46"/>
       <use xlink:href="#DejaVuSans-61" x="48.394531"/>
       <use xlink:href="#DejaVuSans-6d" x="109.673828"/>
       <use xlink:href="#DejaVuSans-6b" x="207.085938"/>
       <use xlink:href="#DejaVuSans-65" x="261.371094"/>
       <use xlink:href="#DejaVuSans-20" x="322.894531"/>
       <use xlink:href="#DejaVuSans-4a" x="354.681641"/>
       <use xlink:href="#DejaVuSans-61" x="384.173828"/>
       <use xlink:href="#DejaVuSans-6e" x="445.453125"/>
       <use xlink:href="#DejaVuSans-73" x="508.832031"/>
       <use xlink:href="#DejaVuSans-73" x="560.931641"/>
       <use xlink:href="#DejaVuSans-65" x="613.03125"/>
       <use xlink:href="#DejaVuSans-6e" x="674.554688"/>
      </g>
     </g>
    </g>
   </g>
   <g id="matplotlib.axis_2">
    <g id="ytick_1">
     <g id="line2d_6">
      <defs>
       <path id="m569ed6cd64" d="M 0 0 
L -3.5 0 
" style="stroke: #000000; stroke-width: 0.8"/>
      </defs>
      <g>
       <use xlink:href="#m569ed6cd64" x="43.09" y="247.97" style="stroke: #000000; stroke-width: 0.8"/>
      </g>
     </g>
     <g id="text_6">
      <!-- 0 -->
      <g transform="translate(29.7275 251.769219) scale(0.1 -0.1)">
       <defs>
        <path id="DejaVuSans-30" d="M 2034 4250 
Q 1547 4250 1301 3770 
Q 1056 3291 1056 2328 
Q 1056 1369 1301 889 
Q 1547 409 2034 409 
Q 2525 409 2770 889 
Q 3016 1369 3016 2328 
Q 3016 3291 2770 3770 
Q 2525 4250 2034 4250 
z
M 2034 4750 
Q 2819 4750 3233 4129 
Q 3647 3509 3647 2328 
Q 3647 1150 3233 529 
Q 2819 -91 2034 -91 
Q 1250 -91 836 529 
Q 422 1150 422 2328 
Q 422 3509 836 4129 
Q 1250 4750 2034 4750 
z
" transform="scale(0.015625)"/>
       </defs>
       <use xlink:href="#DejaVuSans-30"/>
      </g>
     </g>
    </g>
    <g id="ytick_2">
     <g id="line2d_7">
      <g>
       <use xlink:href="#m569ed6cd64" x="43.09" y="214.011499" style="stroke: #000000; stroke-width: 0.8"/>
      </g>
     </g>
     <g id="text_7">
      <!-- 500 -->
      <g transform="translate(17.0025 217.810718) scale(0.1 -0.1)">
       <defs>
        <path id="DejaVuSans-35" d="M 691 4666 
L 3169 4666 
L 3169 4134 
L 1269 4134 
L 1269 2991 
Q 1406 3038 1543 3061 
Q 1681 3084 1819 3084 
Q 2600 3084 3056 2656 
Q 3513 2228 3513 1497 
Q 3513 744 3044 326 
Q 2575 -91 1722 -91 
Q 1428 -91 1123 -41 
Q 819 9 494 109 
L 494 744 
Q 775 591 1075 516 
Q 1375 441 1709 441 
Q 2250 441 2565 725 
Q 2881 1009 2881 1497 
Q 2881 1984 2565 2268 
Q 2250 2553 1709 2553 
Q 1456 2553 1204 2497 
Q 953 2441 691 2322 
L 691 4666 
z
" transform="scale(0.015625)"/>
       </defs>
       <use xlink:href="#DejaVuSans-35"/>
       <use xlink:href="#DejaVuSans-30" x="63.623047"/>
       <use xlink:href="#DejaVuSans-30" x="127.246094"/>
      </g>
     </g>
    </g>
    <g id="ytick_3">
     <g id="line2d_8">
      <g>
       <use xlink:href="#m569ed6cd64" x="43.09" y="180.052998" style="stroke: #000000; stroke-width: 0.8"/>
      </g>
     </g>
     <g id="text_8">
      <!-- 1000 -->
      <g transform="translate(10.64 183.852217) scale(0.1 -0.1)">
       <defs>
        <path id="DejaVuSans-31" d="M 794 531 
L 1825 531 
L 1825 4091 
L 703 3866 
L 703 4441 
L 1819 4666 
L 2450 4666 
L 2450 531 
L 3481 531 
L 3481 0 
L 794 0 
L 794 531 
z
" transform="scale(0.015625)"/>
       </defs>
       <use xlink:href="#DejaVuSans-31"/>
       <use xlink:href="#DejaVuSans-30" x="63.623047"/>
       <use xlink:href="#DejaVuSans-30" x="127.246094"/>
       <use xlink:href="#DejaVuSans-30" x="190.869141"/>
      </g>
     </g>
    </g>
    <g id="ytick_4">
     <g id="line2d_9">
      <g>
       <use xlink:href="#m569ed6cd64" x="43.09" y="146.094498" style="stroke: #000000; stroke-width: 0.8"/>
      </g>
     </g>
     <g id="text_9">
      <!-- 1500 -->
      <g transform="translate(10.64 149.893716) scale(0.1 -0.1)">
       <use xlink:href="#DejaVuSans-31"/>
       <use xlink:href="#DejaVuSans-35" x="63.623047"/>
       <use xlink:href="#DejaVuSans-30" x="127.246094"/>
       <use xlink:href="#DejaVuSans-30" x="190.869141"/>
      </g>
     </g>
    </g>
    <g id="ytick_5">
     <g id="line2d_10">
      <g>
       <use xlink:href="#m569ed6cd64" x="43.09" y="112.135997" style="stroke: #000000; stroke-width: 0.8"/>
      </g>
     </g>
     <g id="text_10">
      <!-- 2000 -->
      <g transform="translate(10.64 115.935216) scale(0.1 -0.1)">
       <defs>
        <path id="DejaVuSans-32" d="M 1228 531 
L 3431 531 
L 3431 0 
L 469 0 
L 469 531 
Q 828 903 1448 1529 
Q 2069 2156 2228 2338 
Q 2531 2678 2651 2914 
Q 2772 3150 2772 3378 
Q 2772 3750 2511 3984 
Q 2250 4219 1831 4219 
Q 1534 4219 1204 4116 
Q 875 4013 500 3803 
L 500 4441 
Q 881 4594 1212 4672 
Q 1544 4750 1819 4750 
Q 2544 4750 2975 4387 
Q 3406 4025 3406 3419 
Q 3406 3131 3298 2873 
Q 3191 2616 2906 2266 
Q 2828 2175 2409 1742 
Q 1991 1309 1228 531 
z
" transform="scale(0.015625)"/>
       </defs>
       <use xlink:href="#DejaVuSans-32"/>
       <use xlink:href="#DejaVuSans-30" x="63.623047"/>
       <use xlink:href="#DejaVuSans-30" x="127.246094"/>
       <use xlink:href="#DejaVuSans-30" x="190.869141"/>
      </g>
     </g>
    </g>
    <g id="ytick_6">
     <g id="line2d_11">
      <g>
       <use xlink:href="#m569ed6cd64" x="43.09" y="78.177496" style="stroke: #000000; stroke-width: 0.8"/>
      </g>
     </g>
     <g id="text_11">
      <!-- 2500 -->
      <g transform="translate(10.64 81.976715) scale(0.1 -0.1)">
       <use xlink:href="#DejaVuSans-32"/>
       <use xlink:href="#DejaVuSans-35" x="63.623047"/>
       <use xlink:href="#DejaVuSans-30" x="127.246094"/>
       <use xlink:href="#DejaVuSans-30" x="190.869141"/>
      </g>
     </g>
    </g>
    <g id="ytick_7">
     <g id="line2d_12">
      <g>
       <use xlink:href="#m569ed6cd64" x="43.09" y="44.218995" style="stroke: #000000; stroke-width: 0.8"/>
      </g>
     </g>
     <g id="text_12">
      <!-- 3000 -->
      <g transform="translate(10.64 48.018214) scale(0.1 -0.1)">
       <defs>
        <path id="DejaVuSans-33" d="M 2597 2516 
Q 3050 2419 3304 2112 
Q 3559 1806 3559 1356 
Q 3559 666 3084 287 
Q 2609 -91 1734 -91 
Q 1441 -91 1130 -33 
Q 819 25 488 141 
L 488 750 
Q 750 597 1062 519 
Q 1375 441 1716 441 
Q 2309 441 2620 675 
Q 2931 909 2931 1356 
Q 2931 1769 2642 2001 
Q 2353 2234 1838 2234 
L 1294 2234 
L 1294 2753 
L 1863 2753 
Q 2328 2753 2575 2939 
Q 2822 3125 2822 3475 
Q 2822 3834 2567 4026 
Q 2313 4219 1838 4219 
Q 1578 4219 1281 4162 
Q 984 4106 628 3988 
L 628 4550 
Q 988 4650 1302 4700 
Q 1616 4750 1894 4750 
Q 2613 4750 3031 4423 
Q 3450 4097 3450 3541 
Q 3450 3153 3228 2886 
Q 3006 2619 2597 2516 
z
" transform="scale(0.015625)"/>
       </defs>
       <use xlink:href="#DejaVuSans-33"/>
       <use xlink:href="#DejaVuSans-30" x="63.623047"/>
       <use xlink:href="#DejaVuSans-30" x="127.246094"/>
       <use xlink:href="#DejaVuSans-30" x="190.869141"/>
      </g>
     </g>
    </g>
   </g>
   <g id="patch_210">
    <path d="M 43.09 247.97 
L 43.09 10.8 
" style="fill: none; stroke: #000000; stroke-width: 0.8; stroke-linejoin: miter; stroke-linecap: square"/>
   </g>
   <g id="patch_211">
    <path d="M 450 247.97 
L 450 10.8 
" style="fill: none; stroke: #000000; stroke-width: 0.8; stroke-linejoin: miter; stroke-linecap: square"/>
   </g>
   <g id="patch_212">
    <path d="M 43.09 247.97 
L 450 247.97 
" style="fill: none; stroke: #000000; stroke-width: 0.8; stroke-linejoin: miter; stroke-linecap: square"/>
   </g>
   <g id="patch_213">
    <path d="M 43.09 10.8 
L 450 10.8 
" style="fill: none; stroke: #000000; stroke-width: 0.8; stroke-linejoin: miter; stroke-linecap: square"/>
   </g>
  </g>
 </g>
 <defs>
  <clipPath id="p31fae570a1">
   <rect x="43.09" y="10.8" width="406.91" height="237.17"/>
  </clipPath>
 </defs>
</svg>
