<?xml version="1.0" encoding="utf-8" standalone="no"?>
<!DOCTYPE svg PUBLIC "-//W3C//DTD SVG 1.1//EN"
  "http://www.w3.org/Graphics/SVG/1.1/DTD/svg11.dtd">
<svg xmlns:xlink="http://www.w3.org/1999/xlink" width="460.8pt" height="345.6pt" viewBox="0 0 460.8 345.6" xmlns="http://www.w3.org/2000/svg" version="1.1">
 <metadata>
  <rdf:RDF xmlns:dc="http://purl.org/dc/elements/1.1/" xmlns:cc="http://creativecommons.org/ns#" xmlns:rdf="http://www.w3.org/1999/02/22-rdf-syntax-ns#">
   <cc:Work>
    <dc:type rdf:resource="http://purl.org/dc/dcmitype/StillImage"/>
    <dc:date>2022-12-20T12:31:05.663564</dc:date>
    <dc:format>image/svg+xml</dc:format>
    <dc:creator>
     <cc:Agent>
      <dc:title>Matplotlib v3.6.0, https://matplotlib.org/</dc:title>
     </cc:Agent>
    </dc:creator>
   </cc:Work>
  </rdf:RDF>
 </metadata>
 <defs>
  <style type="text/css">*{stroke-linejoin: round; stroke-linecap: butt}</style>
 </defs>
 <g id="figure_1">
  <g id="patch_1">
   <path d="M 0 345.6 
L 460.8 345.6 
L 460.8 0 
L 0 0 
z
" style="fill: #ffffff"/>
  </g>
  <g id="axes_1">
   <g id="patch_2">
    <path d="M 43.09 246.8 
L 450 246.8 
L 450 10.8 
L 43.09 10.8 
z
" style="fill: #ffffff"/>
   </g>
   <g id="patch_3">
    <path d="M 76.999167 246.8 
L 144.8175 246.8 
L 144.8175 23.247071 
L 76.999167 23.247071 
z
" clip-path="url(#pc06fc12d5b)" style="fill: #1f77b4"/>
   </g>
   <g id="patch_4">
    <path d="M 212.635833 246.8 
L 280.454167 246.8 
L 280.454167 75.826498 
L 212.635833 75.826498 
z
" clip-path="url(#pc06fc12d5b)" style="fill: #1f77b4"/>
   </g>
   <g id="patch_5">
    <path d="M 348.2725 246.8 
L 416.090833 246.8 
L 416.090833 60.184824 
L 348.2725 60.184824 
z
" clip-path="url(#pc06fc12d5b)" style="fill: #1f77b4"/>
   </g>
   <g id="patch_6">
    <path d="M 483.909167 246.8 
L 551.7275 246.8 
L 551.7275 94.553288 
L 483.909167 94.553288 
z
" clip-path="url(#pc06fc12d5b)" style="fill: #1f77b4"/>
   </g>
   <g id="patch_7">
    <path d="M 619.545833 246.8 
L 687.364167 246.8 
L 687.364167 155.20199 
L 619.545833 155.20199 
z
" clip-path="url(#pc06fc12d5b)" style="fill: #1f77b4"/>
   </g>
   <g id="patch_8">
    <path d="M 76.999167 246.8 
L 144.8175 246.8 
L 144.8175 246.203519 
L 76.999167 246.203519 
z
" clip-path="url(#pc06fc12d5b)" style="fill: #1f77b4"/>
   </g>
   <g id="patch_9">
    <path d="M 212.635833 246.8 
L 280.454167 246.8 
L 280.454167 246.601173 
L 212.635833 246.601173 
z
" clip-path="url(#pc06fc12d5b)" style="fill: #1f77b4"/>
   </g>
   <g id="patch_10">
    <path d="M 348.2725 246.8 
L 416.090833 246.8 
L 416.090833 246.8 
L 348.2725 246.8 
z
" clip-path="url(#pc06fc12d5b)" style="fill: #1f77b4"/>
   </g>
   <g id="patch_11">
    <path d="M 76.999167 246.8 
L 144.8175 246.8 
L 144.8175 246.733724 
L 76.999167 246.733724 
z
" clip-path="url(#pc06fc12d5b)" style="fill: #1f77b4"/>
   </g>
   <g id="patch_12">
    <path d="M 212.635833 246.8 
L 280.454167 246.8 
L 280.454167 246.733724 
L 212.635833 246.733724 
z
" clip-path="url(#pc06fc12d5b)" style="fill: #1f77b4"/>
   </g>
   <g id="patch_13">
    <path d="M 348.2725 246.8 
L 416.090833 246.8 
L 416.090833 246.733724 
L 348.2725 246.733724 
z
" clip-path="url(#pc06fc12d5b)" style="fill: #1f77b4"/>
   </g>
   <g id="patch_14">
    <path d="M 483.909167 246.8 
L 551.7275 246.8 
L 551.7275 246.601173 
L 483.909167 246.601173 
z
" clip-path="url(#pc06fc12d5b)" style="fill: #1f77b4"/>
   </g>
   <g id="patch_15">
    <path d="M 619.545833 246.8 
L 687.364167 246.8 
L 687.364167 246.8 
L 619.545833 246.8 
z
" clip-path="url(#pc06fc12d5b)" style="fill: #1f77b4"/>
   </g>
   <g id="patch_16">
    <path d="M 76.999167 246.8 
L 144.8175 246.8 
L 144.8175 209.420532 
L 76.999167 209.420532 
z
" clip-path="url(#pc06fc12d5b)" style="fill: #1f77b4"/>
   </g>
   <g id="patch_17">
    <path d="M 212.635833 246.8 
L 280.454167 246.8 
L 280.454167 236.262171 
L 212.635833 236.262171 
z
" clip-path="url(#pc06fc12d5b)" style="fill: #1f77b4"/>
   </g>
   <g id="patch_18">
    <path d="M 348.2725 246.8 
L 416.090833 246.8 
L 416.090833 238.151027 
L 348.2725 238.151027 
z
" clip-path="url(#pc06fc12d5b)" style="fill: #1f77b4"/>
   </g>
   <g id="patch_19">
    <path d="M 483.909167 246.8 
L 551.7275 246.8 
L 551.7275 210.414667 
L 483.909167 210.414667 
z
" clip-path="url(#pc06fc12d5b)" style="fill: #1f77b4"/>
   </g>
   <g id="patch_20">
    <path d="M 619.545833 246.8 
L 687.364167 246.8 
L 687.364167 242.127567 
L 619.545833 242.127567 
z
" clip-path="url(#pc06fc12d5b)" style="fill: #1f77b4"/>
   </g>
   <g id="patch_21">
    <path d="M 76.999167 246.8 
L 144.8175 246.8 
L 144.8175 246.601173 
L 76.999167 246.601173 
z
" clip-path="url(#pc06fc12d5b)" style="fill: #1f77b4"/>
   </g>
   <g id="patch_22">
    <path d="M 212.635833 246.8 
L 280.454167 246.8 
L 280.454167 246.8 
L 212.635833 246.8 
z
" clip-path="url(#pc06fc12d5b)" style="fill: #1f77b4"/>
   </g>
   <g id="patch_23">
    <path d="M 348.2725 246.8 
L 416.090833 246.8 
L 416.090833 246.8 
L 348.2725 246.8 
z
" clip-path="url(#pc06fc12d5b)" style="fill: #1f77b4"/>
   </g>
   <g id="patch_24">
    <path d="M 483.909167 246.8 
L 551.7275 246.8 
L 551.7275 246.8 
L 483.909167 246.8 
z
" clip-path="url(#pc06fc12d5b)" style="fill: #1f77b4"/>
   </g>
   <g id="patch_25">
    <path d="M 76.999167 246.8 
L 144.8175 246.8 
L 144.8175 241.431672 
L 76.999167 241.431672 
z
" clip-path="url(#pc06fc12d5b)" style="fill: #1f77b4"/>
   </g>
   <g id="patch_26">
    <path d="M 212.635833 246.8 
L 280.454167 246.8 
L 280.454167 246.203519 
L 212.635833 246.203519 
z
" clip-path="url(#pc06fc12d5b)" style="fill: #1f77b4"/>
   </g>
   <g id="patch_27">
    <path d="M 348.2725 246.8 
L 416.090833 246.8 
L 416.090833 246.601173 
L 348.2725 246.601173 
z
" clip-path="url(#pc06fc12d5b)" style="fill: #1f77b4"/>
   </g>
   <g id="patch_28">
    <path d="M 483.909167 246.8 
L 551.7275 246.8 
L 551.7275 246.601173 
L 483.909167 246.601173 
z
" clip-path="url(#pc06fc12d5b)" style="fill: #1f77b4"/>
   </g>
   <g id="patch_29">
    <path d="M 619.545833 246.8 
L 687.364167 246.8 
L 687.364167 245.408211 
L 619.545833 245.408211 
z
" clip-path="url(#pc06fc12d5b)" style="fill: #1f77b4"/>
   </g>
   <g id="patch_30">
    <path d="M 76.999167 246.8 
L 144.8175 246.8 
L 144.8175 246.402346 
L 76.999167 246.402346 
z
" clip-path="url(#pc06fc12d5b)" style="fill: #1f77b4"/>
   </g>
   <g id="patch_31">
    <path d="M 212.635833 246.8 
L 280.454167 246.8 
L 280.454167 246.402346 
L 212.635833 246.402346 
z
" clip-path="url(#pc06fc12d5b)" style="fill: #1f77b4"/>
   </g>
   <g id="patch_32">
    <path d="M 348.2725 246.8 
L 416.090833 246.8 
L 416.090833 246.402346 
L 348.2725 246.402346 
z
" clip-path="url(#pc06fc12d5b)" style="fill: #1f77b4"/>
   </g>
   <g id="patch_33">
    <path d="M 483.909167 246.8 
L 551.7275 246.8 
L 551.7275 246.402346 
L 483.909167 246.402346 
z
" clip-path="url(#pc06fc12d5b)" style="fill: #1f77b4"/>
   </g>
   <g id="patch_34">
    <path d="M 619.545833 246.8 
L 687.364167 246.8 
L 687.364167 246.402346 
L 619.545833 246.402346 
z
" clip-path="url(#pc06fc12d5b)" style="fill: #1f77b4"/>
   </g>
   <g id="patch_35">
    <path d="M 76.999167 246.8 
L 144.8175 246.8 
L 144.8175 246.203519 
L 76.999167 246.203519 
z
" clip-path="url(#pc06fc12d5b)" style="fill: #1f77b4"/>
   </g>
   <g id="patch_36">
    <path d="M 212.635833 246.8 
L 280.454167 246.8 
L 280.454167 246.302933 
L 212.635833 246.302933 
z
" clip-path="url(#pc06fc12d5b)" style="fill: #1f77b4"/>
   </g>
   <g id="patch_37">
    <path d="M 348.2725 246.8 
L 416.090833 246.8 
L 416.090833 246.601173 
L 348.2725 246.601173 
z
" clip-path="url(#pc06fc12d5b)" style="fill: #1f77b4"/>
   </g>
   <g id="patch_38">
    <path d="M 483.909167 246.8 
L 551.7275 246.8 
L 551.7275 246.700587 
L 483.909167 246.700587 
z
" clip-path="url(#pc06fc12d5b)" style="fill: #1f77b4"/>
   </g>
   <g id="patch_39">
    <path d="M 619.545833 246.8 
L 687.364167 246.8 
L 687.364167 246.700587 
L 619.545833 246.700587 
z
" clip-path="url(#pc06fc12d5b)" style="fill: #1f77b4"/>
   </g>
   <g id="patch_40">
    <path d="M 76.999167 246.8 
L 144.8175 246.8 
L 144.8175 246.203519 
L 76.999167 246.203519 
z
" clip-path="url(#pc06fc12d5b)" style="fill: #1f77b4"/>
   </g>
   <g id="patch_41">
    <path d="M 212.635833 246.8 
L 280.454167 246.8 
L 280.454167 246.8 
L 212.635833 246.8 
z
" clip-path="url(#pc06fc12d5b)" style="fill: #1f77b4"/>
   </g>
   <g id="patch_42">
    <path d="M 348.2725 246.8 
L 416.090833 246.8 
L 416.090833 246.8 
L 348.2725 246.8 
z
" clip-path="url(#pc06fc12d5b)" style="fill: #1f77b4"/>
   </g>
   <g id="patch_43">
    <path d="M 76.999167 246.8 
L 144.8175 246.8 
L 144.8175 246.203519 
L 76.999167 246.203519 
z
" clip-path="url(#pc06fc12d5b)" style="fill: #1f77b4"/>
   </g>
   <g id="patch_44">
    <path d="M 212.635833 246.8 
L 280.454167 246.8 
L 280.454167 246.601173 
L 212.635833 246.601173 
z
" clip-path="url(#pc06fc12d5b)" style="fill: #1f77b4"/>
   </g>
   <g id="patch_45">
    <path d="M 76.999167 246.8 
L 144.8175 246.8 
L 144.8175 27.569606 
L 76.999167 27.569606 
z
" clip-path="url(#pc06fc12d5b)" style="fill: #1f77b4"/>
   </g>
   <g id="patch_46">
    <path d="M 212.635833 246.8 
L 280.454167 246.8 
L 280.454167 89.274861 
L 212.635833 89.274861 
z
" clip-path="url(#pc06fc12d5b)" style="fill: #1f77b4"/>
   </g>
   <g id="patch_47">
    <path d="M 348.2725 246.8 
L 416.090833 246.8 
L 416.090833 109.884549 
L 348.2725 109.884549 
z
" clip-path="url(#pc06fc12d5b)" style="fill: #1f77b4"/>
   </g>
   <g id="patch_48">
    <path d="M 483.909167 246.8 
L 551.7275 246.8 
L 551.7275 89.822005 
L 483.909167 89.822005 
z
" clip-path="url(#pc06fc12d5b)" style="fill: #1f77b4"/>
   </g>
   <g id="patch_49">
    <path d="M 619.545833 246.8 
L 687.364167 246.8 
L 687.364167 131.344241 
L 619.545833 131.344241 
z
" clip-path="url(#pc06fc12d5b)" style="fill: #1f77b4"/>
   </g>
   <g id="patch_50">
    <path d="M 76.999167 246.8 
L 144.8175 246.8 
L 144.8175 246.8 
L 76.999167 246.8 
z
" clip-path="url(#pc06fc12d5b)" style="fill: #1f77b4"/>
   </g>
   <g id="patch_51">
    <path d="M 212.635833 246.8 
L 280.454167 246.8 
L 280.454167 246.8 
L 212.635833 246.8 
z
" clip-path="url(#pc06fc12d5b)" style="fill: #1f77b4"/>
   </g>
   <g id="patch_52">
    <path d="M 348.2725 246.8 
L 416.090833 246.8 
L 416.090833 246.8 
L 348.2725 246.8 
z
" clip-path="url(#pc06fc12d5b)" style="fill: #1f77b4"/>
   </g>
   <g id="patch_53">
    <path d="M 483.909167 246.8 
L 551.7275 246.8 
L 551.7275 246.8 
L 483.909167 246.8 
z
" clip-path="url(#pc06fc12d5b)" style="fill: #1f77b4"/>
   </g>
   <g id="patch_54">
    <path d="M 619.545833 246.8 
L 687.364167 246.8 
L 687.364167 246.8 
L 619.545833 246.8 
z
" clip-path="url(#pc06fc12d5b)" style="fill: #1f77b4"/>
   </g>
   <g id="patch_55">
    <path d="M 76.999167 246.8 
L 144.8175 246.8 
L 144.8175 246.601173 
L 76.999167 246.601173 
z
" clip-path="url(#pc06fc12d5b)" style="fill: #1f77b4"/>
   </g>
   <g id="patch_56">
    <path d="M 212.635833 246.8 
L 280.454167 246.8 
L 280.454167 246.8 
L 212.635833 246.8 
z
" clip-path="url(#pc06fc12d5b)" style="fill: #1f77b4"/>
   </g>
   <g id="patch_57">
    <path d="M 348.2725 246.8 
L 416.090833 246.8 
L 416.090833 246.8 
L 348.2725 246.8 
z
" clip-path="url(#pc06fc12d5b)" style="fill: #1f77b4"/>
   </g>
   <g id="patch_58">
    <path d="M 483.909167 246.8 
L 551.7275 246.8 
L 551.7275 246.8 
L 483.909167 246.8 
z
" clip-path="url(#pc06fc12d5b)" style="fill: #1f77b4"/>
   </g>
   <g id="patch_59">
    <path d="M 619.545833 246.8 
L 687.364167 246.8 
L 687.364167 246.8 
L 619.545833 246.8 
z
" clip-path="url(#pc06fc12d5b)" style="fill: #1f77b4"/>
   </g>
   <g id="patch_60">
    <path d="M 76.999167 246.8 
L 144.8175 246.8 
L 144.8175 245.706452 
L 76.999167 245.706452 
z
" clip-path="url(#pc06fc12d5b)" style="fill: #1f77b4"/>
   </g>
   <g id="patch_61">
    <path d="M 212.635833 246.8 
L 280.454167 246.8 
L 280.454167 246.203519 
L 212.635833 246.203519 
z
" clip-path="url(#pc06fc12d5b)" style="fill: #1f77b4"/>
   </g>
   <g id="patch_62">
    <path d="M 348.2725 246.8 
L 416.090833 246.8 
L 416.090833 246.700587 
L 348.2725 246.700587 
z
" clip-path="url(#pc06fc12d5b)" style="fill: #1f77b4"/>
   </g>
   <g id="patch_63">
    <path d="M 483.909167 246.8 
L 551.7275 246.8 
L 551.7275 246.8 
L 483.909167 246.8 
z
" clip-path="url(#pc06fc12d5b)" style="fill: #1f77b4"/>
   </g>
   <g id="patch_64">
    <path d="M 619.545833 246.8 
L 687.364167 246.8 
L 687.364167 246.8 
L 619.545833 246.8 
z
" clip-path="url(#pc06fc12d5b)" style="fill: #1f77b4"/>
   </g>
   <g id="patch_65">
    <path d="M 76.999167 246.8 
L 144.8175 246.8 
L 144.8175 224.829621 
L 76.999167 224.829621 
z
" clip-path="url(#pc06fc12d5b)" style="fill: #1f77b4"/>
   </g>
   <g id="patch_66">
    <path d="M 212.635833 246.8 
L 280.454167 246.8 
L 280.454167 244.81173 
L 212.635833 244.81173 
z
" clip-path="url(#pc06fc12d5b)" style="fill: #1f77b4"/>
   </g>
   <g id="patch_67">
    <path d="M 348.2725 246.8 
L 416.090833 246.8 
L 416.090833 234.804107 
L 348.2725 234.804107 
z
" clip-path="url(#pc06fc12d5b)" style="fill: #1f77b4"/>
   </g>
   <g id="patch_68">
    <path d="M 483.909167 246.8 
L 551.7275 246.8 
L 551.7275 231.689151 
L 483.909167 231.689151 
z
" clip-path="url(#pc06fc12d5b)" style="fill: #1f77b4"/>
   </g>
   <g id="patch_69">
    <path d="M 619.545833 246.8 
L 687.364167 246.8 
L 687.364167 234.572142 
L 619.545833 234.572142 
z
" clip-path="url(#pc06fc12d5b)" style="fill: #1f77b4"/>
   </g>
   <g id="patch_70">
    <path d="M 76.999167 246.8 
L 144.8175 246.8 
L 144.8175 180.632462 
L 76.999167 180.632462 
z
" clip-path="url(#pc06fc12d5b)" style="fill: #1f77b4"/>
   </g>
   <g id="patch_71">
    <path d="M 212.635833 246.8 
L 280.454167 246.8 
L 280.454167 190.127556 
L 212.635833 190.127556 
z
" clip-path="url(#pc06fc12d5b)" style="fill: #1f77b4"/>
   </g>
   <g id="patch_72">
    <path d="M 348.2725 246.8 
L 416.090833 246.8 
L 416.090833 109.170123 
L 348.2725 109.170123 
z
" clip-path="url(#pc06fc12d5b)" style="fill: #1f77b4"/>
   </g>
   <g id="patch_73">
    <path d="M 483.909167 246.8 
L 551.7275 246.8 
L 551.7275 163.806321 
L 483.909167 163.806321 
z
" clip-path="url(#pc06fc12d5b)" style="fill: #1f77b4"/>
   </g>
   <g id="patch_74">
    <path d="M 619.545833 246.8 
L 687.364167 246.8 
L 687.364167 108.263967 
L 619.545833 108.263967 
z
" clip-path="url(#pc06fc12d5b)" style="fill: #1f77b4"/>
   </g>
   <g id="patch_75">
    <path d="M 76.999167 246.8 
L 144.8175 246.8 
L 144.8175 246.8 
L 76.999167 246.8 
z
" clip-path="url(#pc06fc12d5b)" style="fill: #1f77b4"/>
   </g>
   <g id="patch_76">
    <path d="M 212.635833 246.8 
L 280.454167 246.8 
L 280.454167 246.8 
L 212.635833 246.8 
z
" clip-path="url(#pc06fc12d5b)" style="fill: #1f77b4"/>
   </g>
   <g id="patch_77">
    <path d="M 76.999167 246.8 
L 144.8175 246.8 
L 144.8175 244.314663 
L 76.999167 244.314663 
z
" clip-path="url(#pc06fc12d5b)" style="fill: #1f77b4"/>
   </g>
   <g id="patch_78">
    <path d="M 212.635833 246.8 
L 280.454167 246.8 
L 280.454167 244.81173 
L 212.635833 244.81173 
z
" clip-path="url(#pc06fc12d5b)" style="fill: #1f77b4"/>
   </g>
   <g id="patch_79">
    <path d="M 348.2725 246.8 
L 416.090833 246.8 
L 416.090833 245.607038 
L 348.2725 245.607038 
z
" clip-path="url(#pc06fc12d5b)" style="fill: #1f77b4"/>
   </g>
   <g id="patch_80">
    <path d="M 483.909167 246.8 
L 551.7275 246.8 
L 551.7275 246.601173 
L 483.909167 246.601173 
z
" clip-path="url(#pc06fc12d5b)" style="fill: #1f77b4"/>
   </g>
   <g id="patch_81">
    <path d="M 619.545833 246.8 
L 687.364167 246.8 
L 687.364167 246.402346 
L 619.545833 246.402346 
z
" clip-path="url(#pc06fc12d5b)" style="fill: #1f77b4"/>
   </g>
   <g id="patch_82">
    <path d="M 76.999167 246.8 
L 144.8175 246.8 
L 144.8175 246.203519 
L 76.999167 246.203519 
z
" clip-path="url(#pc06fc12d5b)" style="fill: #1f77b4"/>
   </g>
   <g id="patch_83">
    <path d="M 212.635833 246.8 
L 280.454167 246.8 
L 280.454167 246.203519 
L 212.635833 246.203519 
z
" clip-path="url(#pc06fc12d5b)" style="fill: #1f77b4"/>
   </g>
   <g id="patch_84">
    <path d="M 348.2725 246.8 
L 416.090833 246.8 
L 416.090833 246.601173 
L 348.2725 246.601173 
z
" clip-path="url(#pc06fc12d5b)" style="fill: #1f77b4"/>
   </g>
   <g id="patch_85">
    <path d="M 483.909167 246.8 
L 551.7275 246.8 
L 551.7275 246.8 
L 483.909167 246.8 
z
" clip-path="url(#pc06fc12d5b)" style="fill: #1f77b4"/>
   </g>
   <g id="patch_86">
    <path d="M 619.545833 246.8 
L 687.364167 246.8 
L 687.364167 246.8 
L 619.545833 246.8 
z
" clip-path="url(#pc06fc12d5b)" style="fill: #1f77b4"/>
   </g>
   <g id="patch_87">
    <path d="M 76.999167 246.8 
L 144.8175 246.8 
L 144.8175 242.624634 
L 76.999167 242.624634 
z
" clip-path="url(#pc06fc12d5b)" style="fill: #1f77b4"/>
   </g>
   <g id="patch_88">
    <path d="M 212.635833 246.8 
L 280.454167 246.8 
L 280.454167 246.700587 
L 212.635833 246.700587 
z
" clip-path="url(#pc06fc12d5b)" style="fill: #1f77b4"/>
   </g>
   <g id="patch_89">
    <path d="M 348.2725 246.8 
L 416.090833 246.8 
L 416.090833 246.700587 
L 348.2725 246.700587 
z
" clip-path="url(#pc06fc12d5b)" style="fill: #1f77b4"/>
   </g>
   <g id="patch_90">
    <path d="M 483.909167 246.8 
L 551.7275 246.8 
L 551.7275 246.700587 
L 483.909167 246.700587 
z
" clip-path="url(#pc06fc12d5b)" style="fill: #1f77b4"/>
   </g>
   <g id="patch_91">
    <path d="M 619.545833 246.8 
L 687.364167 246.8 
L 687.364167 246.700587 
L 619.545833 246.700587 
z
" clip-path="url(#pc06fc12d5b)" style="fill: #1f77b4"/>
   </g>
   <g id="patch_92">
    <path d="M 76.999167 246.8 
L 144.8175 246.8 
L 144.8175 246.8 
L 76.999167 246.8 
z
" clip-path="url(#pc06fc12d5b)" style="fill: #1f77b4"/>
   </g>
   <g id="patch_93">
    <path d="M 76.999167 246.8 
L 144.8175 246.8 
L 144.8175 245.805865 
L 76.999167 245.805865 
z
" clip-path="url(#pc06fc12d5b)" style="fill: #1f77b4"/>
   </g>
   <g id="patch_94">
    <path d="M 212.635833 246.8 
L 280.454167 246.8 
L 280.454167 245.805865 
L 212.635833 245.805865 
z
" clip-path="url(#pc06fc12d5b)" style="fill: #1f77b4"/>
   </g>
   <g id="patch_95">
    <path d="M 348.2725 246.8 
L 416.090833 246.8 
L 416.090833 246.601173 
L 348.2725 246.601173 
z
" clip-path="url(#pc06fc12d5b)" style="fill: #1f77b4"/>
   </g>
   <g id="patch_96">
    <path d="M 76.999167 246.8 
L 144.8175 246.8 
L 144.8175 242.624634 
L 76.999167 242.624634 
z
" clip-path="url(#pc06fc12d5b)" style="fill: #1f77b4"/>
   </g>
   <g id="patch_97">
    <path d="M 212.635833 246.8 
L 280.454167 246.8 
L 280.454167 246.601173 
L 212.635833 246.601173 
z
" clip-path="url(#pc06fc12d5b)" style="fill: #1f77b4"/>
   </g>
   <g id="patch_98">
    <path d="M 348.2725 246.8 
L 416.090833 246.8 
L 416.090833 246.601173 
L 348.2725 246.601173 
z
" clip-path="url(#pc06fc12d5b)" style="fill: #1f77b4"/>
   </g>
   <g id="patch_99">
    <path d="M 483.909167 246.8 
L 551.7275 246.8 
L 551.7275 246.8 
L 483.909167 246.8 
z
" clip-path="url(#pc06fc12d5b)" style="fill: #1f77b4"/>
   </g>
   <g id="patch_100">
    <path d="M 619.545833 246.8 
L 687.364167 246.8 
L 687.364167 246.8 
L 619.545833 246.8 
z
" clip-path="url(#pc06fc12d5b)" style="fill: #1f77b4"/>
   </g>
   <g id="patch_101">
    <path d="M 76.999167 246.8 
L 144.8175 246.8 
L 144.8175 246.8 
L 76.999167 246.8 
z
" clip-path="url(#pc06fc12d5b)" style="fill: #1f77b4"/>
   </g>
   <g id="patch_102">
    <path d="M 76.999167 246.8 
L 144.8175 246.8 
L 144.8175 22.038095 
L 76.999167 22.038095 
z
" clip-path="url(#pc06fc12d5b)" style="fill: #1f77b4"/>
   </g>
   <g id="patch_103">
    <path d="M 212.635833 246.8 
L 280.454167 246.8 
L 280.454167 71.493398 
L 212.635833 71.493398 
z
" clip-path="url(#pc06fc12d5b)" style="fill: #1f77b4"/>
   </g>
   <g id="patch_104">
    <path d="M 348.2725 246.8 
L 416.090833 246.8 
L 416.090833 104.940225 
L 348.2725 104.940225 
z
" clip-path="url(#pc06fc12d5b)" style="fill: #1f77b4"/>
   </g>
   <g id="patch_105">
    <path d="M 483.909167 246.8 
L 551.7275 246.8 
L 551.7275 130.716743 
L 483.909167 130.716743 
z
" clip-path="url(#pc06fc12d5b)" style="fill: #1f77b4"/>
   </g>
   <g id="patch_106">
    <path d="M 619.545833 246.8 
L 687.364167 246.8 
L 687.364167 149.103521 
L 619.545833 149.103521 
z
" clip-path="url(#pc06fc12d5b)" style="fill: #1f77b4"/>
   </g>
   <g id="patch_107">
    <path d="M 76.999167 246.8 
L 144.8175 246.8 
L 144.8175 245.805865 
L 76.999167 245.805865 
z
" clip-path="url(#pc06fc12d5b)" style="fill: #1f77b4"/>
   </g>
   <g id="patch_108">
    <path d="M 212.635833 246.8 
L 280.454167 246.8 
L 280.454167 245.805865 
L 212.635833 245.805865 
z
" clip-path="url(#pc06fc12d5b)" style="fill: #1f77b4"/>
   </g>
   <g id="patch_109">
    <path d="M 348.2725 246.8 
L 416.090833 246.8 
L 416.090833 245.805865 
L 348.2725 245.805865 
z
" clip-path="url(#pc06fc12d5b)" style="fill: #1f77b4"/>
   </g>
   <g id="patch_110">
    <path d="M 483.909167 246.8 
L 551.7275 246.8 
L 551.7275 246.700587 
L 483.909167 246.700587 
z
" clip-path="url(#pc06fc12d5b)" style="fill: #1f77b4"/>
   </g>
   <g id="patch_111">
    <path d="M 619.545833 246.8 
L 687.364167 246.8 
L 687.364167 246.700587 
L 619.545833 246.700587 
z
" clip-path="url(#pc06fc12d5b)" style="fill: #1f77b4"/>
   </g>
   <g id="patch_112">
    <path d="M 76.999167 246.8 
L 144.8175 246.8 
L 144.8175 129.403164 
L 76.999167 129.403164 
z
" clip-path="url(#pc06fc12d5b)" style="fill: #1f77b4"/>
   </g>
   <g id="patch_113">
    <path d="M 212.635833 246.8 
L 280.454167 246.8 
L 280.454167 129.632023 
L 212.635833 129.632023 
z
" clip-path="url(#pc06fc12d5b)" style="fill: #1f77b4"/>
   </g>
   <g id="patch_114">
    <path d="M 348.2725 246.8 
L 416.090833 246.8 
L 416.090833 169.663832 
L 348.2725 169.663832 
z
" clip-path="url(#pc06fc12d5b)" style="fill: #1f77b4"/>
   </g>
   <g id="patch_115">
    <path d="M 483.909167 246.8 
L 551.7275 246.8 
L 551.7275 166.195415 
L 483.909167 166.195415 
z
" clip-path="url(#pc06fc12d5b)" style="fill: #1f77b4"/>
   </g>
   <g id="patch_116">
    <path d="M 619.545833 246.8 
L 687.364167 246.8 
L 687.364167 128.561902 
L 619.545833 128.561902 
z
" clip-path="url(#pc06fc12d5b)" style="fill: #1f77b4"/>
   </g>
   <g id="patch_117">
    <path d="M 76.999167 246.8 
L 144.8175 246.8 
L 144.8175 245.607038 
L 76.999167 245.607038 
z
" clip-path="url(#pc06fc12d5b)" style="fill: #1f77b4"/>
   </g>
   <g id="patch_118">
    <path d="M 212.635833 246.8 
L 280.454167 246.8 
L 280.454167 245.805865 
L 212.635833 245.805865 
z
" clip-path="url(#pc06fc12d5b)" style="fill: #1f77b4"/>
   </g>
   <g id="patch_119">
    <path d="M 348.2725 246.8 
L 416.090833 246.8 
L 416.090833 246.203519 
L 348.2725 246.203519 
z
" clip-path="url(#pc06fc12d5b)" style="fill: #1f77b4"/>
   </g>
   <g id="patch_120">
    <path d="M 483.909167 246.8 
L 551.7275 246.8 
L 551.7275 246.402346 
L 483.909167 246.402346 
z
" clip-path="url(#pc06fc12d5b)" style="fill: #1f77b4"/>
   </g>
   <g id="patch_121">
    <path d="M 619.545833 246.8 
L 687.364167 246.8 
L 687.364167 246.700587 
L 619.545833 246.700587 
z
" clip-path="url(#pc06fc12d5b)" style="fill: #1f77b4"/>
   </g>
   <g id="patch_122">
    <path d="M 76.999167 246.8 
L 144.8175 246.8 
L 144.8175 246.203519 
L 76.999167 246.203519 
z
" clip-path="url(#pc06fc12d5b)" style="fill: #1f77b4"/>
   </g>
   <g id="patch_123">
    <path d="M 212.635833 246.8 
L 280.454167 246.8 
L 280.454167 246.700587 
L 212.635833 246.700587 
z
" clip-path="url(#pc06fc12d5b)" style="fill: #1f77b4"/>
   </g>
   <g id="patch_124">
    <path d="M 348.2725 246.8 
L 416.090833 246.8 
L 416.090833 246.700587 
L 348.2725 246.700587 
z
" clip-path="url(#pc06fc12d5b)" style="fill: #1f77b4"/>
   </g>
   <g id="patch_125">
    <path d="M 483.909167 246.8 
L 551.7275 246.8 
L 551.7275 246.601173 
L 483.909167 246.601173 
z
" clip-path="url(#pc06fc12d5b)" style="fill: #1f77b4"/>
   </g>
   <g id="patch_126">
    <path d="M 619.545833 246.8 
L 687.364167 246.8 
L 687.364167 246.8 
L 619.545833 246.8 
z
" clip-path="url(#pc06fc12d5b)" style="fill: #1f77b4"/>
   </g>
   <g id="patch_127">
    <path d="M 76.999167 246.8 
L 144.8175 246.8 
L 144.8175 246.203519 
L 76.999167 246.203519 
z
" clip-path="url(#pc06fc12d5b)" style="fill: #1f77b4"/>
   </g>
   <g id="patch_128">
    <path d="M 212.635833 246.8 
L 280.454167 246.8 
L 280.454167 246.601173 
L 212.635833 246.601173 
z
" clip-path="url(#pc06fc12d5b)" style="fill: #1f77b4"/>
   </g>
   <g id="patch_129">
    <path d="M 348.2725 246.8 
L 416.090833 246.8 
L 416.090833 246.8 
L 348.2725 246.8 
z
" clip-path="url(#pc06fc12d5b)" style="fill: #1f77b4"/>
   </g>
   <g id="patch_130">
    <path d="M 483.909167 246.8 
L 551.7275 246.8 
L 551.7275 246.8 
L 483.909167 246.8 
z
" clip-path="url(#pc06fc12d5b)" style="fill: #1f77b4"/>
   </g>
   <g id="patch_131">
    <path d="M 619.545833 246.8 
L 687.364167 246.8 
L 687.364167 246.8 
L 619.545833 246.8 
z
" clip-path="url(#pc06fc12d5b)" style="fill: #1f77b4"/>
   </g>
   <g id="patch_132">
    <path d="M 76.999167 246.8 
L 144.8175 246.8 
L 144.8175 241.554282 
L 76.999167 241.554282 
z
" clip-path="url(#pc06fc12d5b)" style="fill: #1f77b4"/>
   </g>
   <g id="patch_133">
    <path d="M 212.635833 246.8 
L 280.454167 246.8 
L 280.454167 245.607038 
L 212.635833 245.607038 
z
" clip-path="url(#pc06fc12d5b)" style="fill: #1f77b4"/>
   </g>
   <g id="patch_134">
    <path d="M 348.2725 246.8 
L 416.090833 246.8 
L 416.090833 243.97003 
L 348.2725 243.97003 
z
" clip-path="url(#pc06fc12d5b)" style="fill: #1f77b4"/>
   </g>
   <g id="patch_135">
    <path d="M 483.909167 246.8 
L 551.7275 246.8 
L 551.7275 243.97003 
L 483.909167 243.97003 
z
" clip-path="url(#pc06fc12d5b)" style="fill: #1f77b4"/>
   </g>
   <g id="patch_136">
    <path d="M 619.545833 246.8 
L 687.364167 246.8 
L 687.364167 243.97003 
L 619.545833 243.97003 
z
" clip-path="url(#pc06fc12d5b)" style="fill: #1f77b4"/>
   </g>
   <g id="patch_137">
    <path d="M 76.999167 246.8 
L 144.8175 246.8 
L 144.8175 206.238196 
L 76.999167 206.238196 
z
" clip-path="url(#pc06fc12d5b)" style="fill: #1f77b4"/>
   </g>
   <g id="patch_138">
    <path d="M 212.635833 246.8 
L 280.454167 246.8 
L 280.454167 213.857687 
L 212.635833 213.857687 
z
" clip-path="url(#pc06fc12d5b)" style="fill: #1f77b4"/>
   </g>
   <g id="patch_139">
    <path d="M 348.2725 246.8 
L 416.090833 246.8 
L 416.090833 241.199707 
L 348.2725 241.199707 
z
" clip-path="url(#pc06fc12d5b)" style="fill: #1f77b4"/>
   </g>
   <g id="patch_140">
    <path d="M 483.909167 246.8 
L 551.7275 246.8 
L 551.7275 246.054399 
L 483.909167 246.054399 
z
" clip-path="url(#pc06fc12d5b)" style="fill: #1f77b4"/>
   </g>
   <g id="patch_141">
    <path d="M 619.545833 246.8 
L 687.364167 246.8 
L 687.364167 246.054399 
L 619.545833 246.054399 
z
" clip-path="url(#pc06fc12d5b)" style="fill: #1f77b4"/>
   </g>
   <g id="patch_142">
    <path d="M 76.999167 246.8 
L 144.8175 246.8 
L 144.8175 242.3761 
L 76.999167 242.3761 
z
" clip-path="url(#pc06fc12d5b)" style="fill: #1f77b4"/>
   </g>
   <g id="patch_143">
    <path d="M 212.635833 246.8 
L 280.454167 246.8 
L 280.454167 243.917009 
L 212.635833 243.917009 
z
" clip-path="url(#pc06fc12d5b)" style="fill: #1f77b4"/>
   </g>
   <g id="patch_144">
    <path d="M 348.2725 246.8 
L 416.090833 246.8 
L 416.090833 246.203519 
L 348.2725 246.203519 
z
" clip-path="url(#pc06fc12d5b)" style="fill: #1f77b4"/>
   </g>
   <g id="patch_145">
    <path d="M 483.909167 246.8 
L 551.7275 246.8 
L 551.7275 246.362581 
L 483.909167 246.362581 
z
" clip-path="url(#pc06fc12d5b)" style="fill: #1f77b4"/>
   </g>
   <g id="patch_146">
    <path d="M 619.545833 246.8 
L 687.364167 246.8 
L 687.364167 245.805865 
L 619.545833 245.805865 
z
" clip-path="url(#pc06fc12d5b)" style="fill: #1f77b4"/>
   </g>
   <g id="patch_147">
    <path d="M 76.999167 246.8 
L 144.8175 246.8 
L 144.8175 246.380254 
L 76.999167 246.380254 
z
" clip-path="url(#pc06fc12d5b)" style="fill: #1f77b4"/>
   </g>
   <g id="patch_148">
    <path d="M 212.635833 246.8 
L 280.454167 246.8 
L 280.454167 246.700587 
L 212.635833 246.700587 
z
" clip-path="url(#pc06fc12d5b)" style="fill: #1f77b4"/>
   </g>
   <g id="patch_149">
    <path d="M 348.2725 246.8 
L 416.090833 246.8 
L 416.090833 246.700587 
L 348.2725 246.700587 
z
" clip-path="url(#pc06fc12d5b)" style="fill: #1f77b4"/>
   </g>
   <g id="patch_150">
    <path d="M 483.909167 246.8 
L 551.7275 246.8 
L 551.7275 246.777908 
L 483.909167 246.777908 
z
" clip-path="url(#pc06fc12d5b)" style="fill: #1f77b4"/>
   </g>
   <g id="patch_151">
    <path d="M 619.545833 246.8 
L 687.364167 246.8 
L 687.364167 246.777908 
L 619.545833 246.777908 
z
" clip-path="url(#pc06fc12d5b)" style="fill: #1f77b4"/>
   </g>
   <g id="patch_152">
    <path d="M 76.999167 246.8 
L 144.8175 246.8 
L 144.8175 245.938417 
L 76.999167 245.938417 
z
" clip-path="url(#pc06fc12d5b)" style="fill: #1f77b4"/>
   </g>
   <g id="patch_153">
    <path d="M 212.635833 246.8 
L 280.454167 246.8 
L 280.454167 246.33607 
L 212.635833 246.33607 
z
" clip-path="url(#pc06fc12d5b)" style="fill: #1f77b4"/>
   </g>
   <g id="patch_154">
    <path d="M 348.2725 246.8 
L 416.090833 246.8 
L 416.090833 246.203519 
L 348.2725 246.203519 
z
" clip-path="url(#pc06fc12d5b)" style="fill: #1f77b4"/>
   </g>
   <g id="patch_155">
    <path d="M 483.909167 246.8 
L 551.7275 246.8 
L 551.7275 246.004692 
L 483.909167 246.004692 
z
" clip-path="url(#pc06fc12d5b)" style="fill: #1f77b4"/>
   </g>
   <g id="patch_156">
    <path d="M 619.545833 246.8 
L 687.364167 246.8 
L 687.364167 246.601173 
L 619.545833 246.601173 
z
" clip-path="url(#pc06fc12d5b)" style="fill: #1f77b4"/>
   </g>
   <g id="patch_157">
    <path d="M 76.999167 246.8 
L 144.8175 246.8 
L 144.8175 246.8 
L 76.999167 246.8 
z
" clip-path="url(#pc06fc12d5b)" style="fill: #1f77b4"/>
   </g>
   <g id="patch_158">
    <path d="M 212.635833 246.8 
L 280.454167 246.8 
L 280.454167 246.8 
L 212.635833 246.8 
z
" clip-path="url(#pc06fc12d5b)" style="fill: #1f77b4"/>
   </g>
   <g id="patch_159">
    <path d="M 348.2725 246.8 
L 416.090833 246.8 
L 416.090833 246.8 
L 348.2725 246.8 
z
" clip-path="url(#pc06fc12d5b)" style="fill: #1f77b4"/>
   </g>
   <g id="patch_160">
    <path d="M 483.909167 246.8 
L 551.7275 246.8 
L 551.7275 246.8 
L 483.909167 246.8 
z
" clip-path="url(#pc06fc12d5b)" style="fill: #1f77b4"/>
   </g>
   <g id="patch_161">
    <path d="M 76.999167 246.8 
L 144.8175 246.8 
L 144.8175 246.8 
L 76.999167 246.8 
z
" clip-path="url(#pc06fc12d5b)" style="fill: #1f77b4"/>
   </g>
   <g id="patch_162">
    <path d="M 212.635833 246.8 
L 280.454167 246.8 
L 280.454167 246.8 
L 212.635833 246.8 
z
" clip-path="url(#pc06fc12d5b)" style="fill: #1f77b4"/>
   </g>
   <g id="patch_163">
    <path d="M 348.2725 246.8 
L 416.090833 246.8 
L 416.090833 246.8 
L 348.2725 246.8 
z
" clip-path="url(#pc06fc12d5b)" style="fill: #1f77b4"/>
   </g>
   <g id="matplotlib.axis_1">
    <g id="xtick_1">
     <g id="line2d_1">
      <defs>
       <path id="m49760041ca" d="M 0 0 
L 0 3.5 
" style="stroke: #000000; stroke-width: 0.8"/>
      </defs>
      <g>
       <use xlink:href="#m49760041ca" x="110.908333" y="246.8" style="stroke: #000000; stroke-width: 0.8"/>
      </g>
     </g>
     <g id="text_1">
      <!-- Mel Gibson -->
      <g transform="translate(113.667708 309.078125) rotate(-90) scale(0.1 -0.1)">
       <defs>
        <path id="DejaVuSans-4d" d="M 628 4666 
L 1569 4666 
L 2759 1491 
L 3956 4666 
L 4897 4666 
L 4897 0 
L 4281 0 
L 4281 4097 
L 3078 897 
L 2444 897 
L 1241 4097 
L 1241 0 
L 628 0 
L 628 4666 
z
" transform="scale(0.015625)"/>
        <path id="DejaVuSans-65" d="M 3597 1894 
L 3597 1613 
L 953 1613 
Q 991 1019 1311 708 
Q 1631 397 2203 397 
Q 2534 397 2845 478 
Q 3156 559 3463 722 
L 3463 178 
Q 3153 47 2828 -22 
Q 2503 -91 2169 -91 
Q 1331 -91 842 396 
Q 353 884 353 1716 
Q 353 2575 817 3079 
Q 1281 3584 2069 3584 
Q 2775 3584 3186 3129 
Q 3597 2675 3597 1894 
z
M 3022 2063 
Q 3016 2534 2758 2815 
Q 2500 3097 2075 3097 
Q 1594 3097 1305 2825 
Q 1016 2553 972 2059 
L 3022 2063 
z
" transform="scale(0.015625)"/>
        <path id="DejaVuSans-6c" d="M 603 4863 
L 1178 4863 
L 1178 0 
L 603 0 
L 603 4863 
z
" transform="scale(0.015625)"/>
        <path id="DejaVuSans-20" transform="scale(0.015625)"/>
        <path id="DejaVuSans-47" d="M 3809 666 
L 3809 1919 
L 2778 1919 
L 2778 2438 
L 4434 2438 
L 4434 434 
Q 4069 175 3628 42 
Q 3188 -91 2688 -91 
Q 1594 -91 976 548 
Q 359 1188 359 2328 
Q 359 3472 976 4111 
Q 1594 4750 2688 4750 
Q 3144 4750 3555 4637 
Q 3966 4525 4313 4306 
L 4313 3634 
Q 3963 3931 3569 4081 
Q 3175 4231 2741 4231 
Q 1884 4231 1454 3753 
Q 1025 3275 1025 2328 
Q 1025 1384 1454 906 
Q 1884 428 2741 428 
Q 3075 428 3337 486 
Q 3600 544 3809 666 
z
" transform="scale(0.015625)"/>
        <path id="DejaVuSans-69" d="M 603 3500 
L 1178 3500 
L 1178 0 
L 603 0 
L 603 3500 
z
M 603 4863 
L 1178 4863 
L 1178 4134 
L 603 4134 
L 603 4863 
z
" transform="scale(0.015625)"/>
        <path id="DejaVuSans-62" d="M 3116 1747 
Q 3116 2381 2855 2742 
Q 2594 3103 2138 3103 
Q 1681 3103 1420 2742 
Q 1159 2381 1159 1747 
Q 1159 1113 1420 752 
Q 1681 391 2138 391 
Q 2594 391 2855 752 
Q 3116 1113 3116 1747 
z
M 1159 2969 
Q 1341 3281 1617 3432 
Q 1894 3584 2278 3584 
Q 2916 3584 3314 3078 
Q 3713 2572 3713 1747 
Q 3713 922 3314 415 
Q 2916 -91 2278 -91 
Q 1894 -91 1617 61 
Q 1341 213 1159 525 
L 1159 0 
L 581 0 
L 581 4863 
L 1159 4863 
L 1159 2969 
z
" transform="scale(0.015625)"/>
        <path id="DejaVuSans-73" d="M 2834 3397 
L 2834 2853 
Q 2591 2978 2328 3040 
Q 2066 3103 1784 3103 
Q 1356 3103 1142 2972 
Q 928 2841 928 2578 
Q 928 2378 1081 2264 
Q 1234 2150 1697 2047 
L 1894 2003 
Q 2506 1872 2764 1633 
Q 3022 1394 3022 966 
Q 3022 478 2636 193 
Q 2250 -91 1575 -91 
Q 1294 -91 989 -36 
Q 684 19 347 128 
L 347 722 
Q 666 556 975 473 
Q 1284 391 1588 391 
Q 1994 391 2212 530 
Q 2431 669 2431 922 
Q 2431 1156 2273 1281 
Q 2116 1406 1581 1522 
L 1381 1569 
Q 847 1681 609 1914 
Q 372 2147 372 2553 
Q 372 3047 722 3315 
Q 1072 3584 1716 3584 
Q 2034 3584 2315 3537 
Q 2597 3491 2834 3397 
z
" transform="scale(0.015625)"/>
        <path id="DejaVuSans-6f" d="M 1959 3097 
Q 1497 3097 1228 2736 
Q 959 2375 959 1747 
Q 959 1119 1226 758 
Q 1494 397 1959 397 
Q 2419 397 2687 759 
Q 2956 1122 2956 1747 
Q 2956 2369 2687 2733 
Q 2419 3097 1959 3097 
z
M 1959 3584 
Q 2709 3584 3137 3096 
Q 3566 2609 3566 1747 
Q 3566 888 3137 398 
Q 2709 -91 1959 -91 
Q 1206 -91 779 398 
Q 353 888 353 1747 
Q 353 2609 779 3096 
Q 1206 3584 1959 3584 
z
" transform="scale(0.015625)"/>
        <path id="DejaVuSans-6e" d="M 3513 2113 
L 3513 0 
L 2938 0 
L 2938 2094 
Q 2938 2591 2744 2837 
Q 2550 3084 2163 3084 
Q 1697 3084 1428 2787 
Q 1159 2491 1159 1978 
L 1159 0 
L 581 0 
L 581 3500 
L 1159 3500 
L 1159 2956 
Q 1366 3272 1645 3428 
Q 1925 3584 2291 3584 
Q 2894 3584 3203 3211 
Q 3513 2838 3513 2113 
z
" transform="scale(0.015625)"/>
       </defs>
       <use xlink:href="#DejaVuSans-4d"/>
       <use xlink:href="#DejaVuSans-65" x="86.279297"/>
       <use xlink:href="#DejaVuSans-6c" x="147.802734"/>
       <use xlink:href="#DejaVuSans-20" x="175.585938"/>
       <use xlink:href="#DejaVuSans-47" x="207.373047"/>
       <use xlink:href="#DejaVuSans-69" x="284.863281"/>
       <use xlink:href="#DejaVuSans-62" x="312.646484"/>
       <use xlink:href="#DejaVuSans-73" x="376.123047"/>
       <use xlink:href="#DejaVuSans-6f" x="428.222656"/>
       <use xlink:href="#DejaVuSans-6e" x="489.404297"/>
      </g>
     </g>
    </g>
    <g id="xtick_2">
     <g id="line2d_2">
      <g>
       <use xlink:href="#m49760041ca" x="246.545" y="246.8" style="stroke: #000000; stroke-width: 0.8"/>
      </g>
     </g>
     <g id="text_2">
      <!-- Jamie Lee Curtis -->
      <g transform="translate(249.304375 334.948437) rotate(-90) scale(0.1 -0.1)">
       <defs>
        <path id="DejaVuSans-4a" d="M 628 4666 
L 1259 4666 
L 1259 325 
Q 1259 -519 939 -900 
Q 619 -1281 -91 -1281 
L -331 -1281 
L -331 -750 
L -134 -750 
Q 284 -750 456 -515 
Q 628 -281 628 325 
L 628 4666 
z
" transform="scale(0.015625)"/>
        <path id="DejaVuSans-61" d="M 2194 1759 
Q 1497 1759 1228 1600 
Q 959 1441 959 1056 
Q 959 750 1161 570 
Q 1363 391 1709 391 
Q 2188 391 2477 730 
Q 2766 1069 2766 1631 
L 2766 1759 
L 2194 1759 
z
M 3341 1997 
L 3341 0 
L 2766 0 
L 2766 531 
Q 2569 213 2275 61 
Q 1981 -91 1556 -91 
Q 1019 -91 701 211 
Q 384 513 384 1019 
Q 384 1609 779 1909 
Q 1175 2209 1959 2209 
L 2766 2209 
L 2766 2266 
Q 2766 2663 2505 2880 
Q 2244 3097 1772 3097 
Q 1472 3097 1187 3025 
Q 903 2953 641 2809 
L 641 3341 
Q 956 3463 1253 3523 
Q 1550 3584 1831 3584 
Q 2591 3584 2966 3190 
Q 3341 2797 3341 1997 
z
" transform="scale(0.015625)"/>
        <path id="DejaVuSans-6d" d="M 3328 2828 
Q 3544 3216 3844 3400 
Q 4144 3584 4550 3584 
Q 5097 3584 5394 3201 
Q 5691 2819 5691 2113 
L 5691 0 
L 5113 0 
L 5113 2094 
Q 5113 2597 4934 2840 
Q 4756 3084 4391 3084 
Q 3944 3084 3684 2787 
Q 3425 2491 3425 1978 
L 3425 0 
L 2847 0 
L 2847 2094 
Q 2847 2600 2669 2842 
Q 2491 3084 2119 3084 
Q 1678 3084 1418 2786 
Q 1159 2488 1159 1978 
L 1159 0 
L 581 0 
L 581 3500 
L 1159 3500 
L 1159 2956 
Q 1356 3278 1631 3431 
Q 1906 3584 2284 3584 
Q 2666 3584 2933 3390 
Q 3200 3197 3328 2828 
z
" transform="scale(0.015625)"/>
        <path id="DejaVuSans-4c" d="M 628 4666 
L 1259 4666 
L 1259 531 
L 3531 531 
L 3531 0 
L 628 0 
L 628 4666 
z
" transform="scale(0.015625)"/>
        <path id="DejaVuSans-43" d="M 4122 4306 
L 4122 3641 
Q 3803 3938 3442 4084 
Q 3081 4231 2675 4231 
Q 1875 4231 1450 3742 
Q 1025 3253 1025 2328 
Q 1025 1406 1450 917 
Q 1875 428 2675 428 
Q 3081 428 3442 575 
Q 3803 722 4122 1019 
L 4122 359 
Q 3791 134 3420 21 
Q 3050 -91 2638 -91 
Q 1578 -91 968 557 
Q 359 1206 359 2328 
Q 359 3453 968 4101 
Q 1578 4750 2638 4750 
Q 3056 4750 3426 4639 
Q 3797 4528 4122 4306 
z
" transform="scale(0.015625)"/>
        <path id="DejaVuSans-75" d="M 544 1381 
L 544 3500 
L 1119 3500 
L 1119 1403 
Q 1119 906 1312 657 
Q 1506 409 1894 409 
Q 2359 409 2629 706 
Q 2900 1003 2900 1516 
L 2900 3500 
L 3475 3500 
L 3475 0 
L 2900 0 
L 2900 538 
Q 2691 219 2414 64 
Q 2138 -91 1772 -91 
Q 1169 -91 856 284 
Q 544 659 544 1381 
z
M 1991 3584 
L 1991 3584 
z
" transform="scale(0.015625)"/>
        <path id="DejaVuSans-72" d="M 2631 2963 
Q 2534 3019 2420 3045 
Q 2306 3072 2169 3072 
Q 1681 3072 1420 2755 
Q 1159 2438 1159 1844 
L 1159 0 
L 581 0 
L 581 3500 
L 1159 3500 
L 1159 2956 
Q 1341 3275 1631 3429 
Q 1922 3584 2338 3584 
Q 2397 3584 2469 3576 
Q 2541 3569 2628 3553 
L 2631 2963 
z
" transform="scale(0.015625)"/>
        <path id="DejaVuSans-74" d="M 1172 4494 
L 1172 3500 
L 2356 3500 
L 2356 3053 
L 1172 3053 
L 1172 1153 
Q 1172 725 1289 603 
Q 1406 481 1766 481 
L 2356 481 
L 2356 0 
L 1766 0 
Q 1100 0 847 248 
Q 594 497 594 1153 
L 594 3053 
L 172 3053 
L 172 3500 
L 594 3500 
L 594 4494 
L 1172 4494 
z
" transform="scale(0.015625)"/>
       </defs>
       <use xlink:href="#DejaVuSans-4a"/>
       <use xlink:href="#DejaVuSans-61" x="29.492188"/>
       <use xlink:href="#DejaVuSans-6d" x="90.771484"/>
       <use xlink:href="#DejaVuSans-69" x="188.183594"/>
       <use xlink:href="#DejaVuSans-65" x="215.966797"/>
       <use xlink:href="#DejaVuSans-20" x="277.490234"/>
       <use xlink:href="#DejaVuSans-4c" x="309.277344"/>
       <use xlink:href="#DejaVuSans-65" x="363.240234"/>
       <use xlink:href="#DejaVuSans-65" x="424.763672"/>
       <use xlink:href="#DejaVuSans-20" x="486.287109"/>
       <use xlink:href="#DejaVuSans-43" x="518.074219"/>
       <use xlink:href="#DejaVuSans-75" x="587.898438"/>
       <use xlink:href="#DejaVuSans-72" x="651.277344"/>
       <use xlink:href="#DejaVuSans-74" x="692.390625"/>
       <use xlink:href="#DejaVuSans-69" x="731.599609"/>
       <use xlink:href="#DejaVuSans-73" x="759.382812"/>
      </g>
     </g>
    </g>
    <g id="xtick_3">
     <g id="line2d_3">
      <g>
       <use xlink:href="#m49760041ca" x="382.181667" y="246.8" style="stroke: #000000; stroke-width: 0.8"/>
      </g>
     </g>
     <g id="text_3">
      <!-- Sean Connery -->
      <g transform="translate(384.941042 323.904687) rotate(-90) scale(0.1 -0.1)">
       <defs>
        <path id="DejaVuSans-53" d="M 3425 4513 
L 3425 3897 
Q 3066 4069 2747 4153 
Q 2428 4238 2131 4238 
Q 1616 4238 1336 4038 
Q 1056 3838 1056 3469 
Q 1056 3159 1242 3001 
Q 1428 2844 1947 2747 
L 2328 2669 
Q 3034 2534 3370 2195 
Q 3706 1856 3706 1288 
Q 3706 609 3251 259 
Q 2797 -91 1919 -91 
Q 1588 -91 1214 -16 
Q 841 59 441 206 
L 441 856 
Q 825 641 1194 531 
Q 1563 422 1919 422 
Q 2459 422 2753 634 
Q 3047 847 3047 1241 
Q 3047 1584 2836 1778 
Q 2625 1972 2144 2069 
L 1759 2144 
Q 1053 2284 737 2584 
Q 422 2884 422 3419 
Q 422 4038 858 4394 
Q 1294 4750 2059 4750 
Q 2388 4750 2728 4690 
Q 3069 4631 3425 4513 
z
" transform="scale(0.015625)"/>
        <path id="DejaVuSans-79" d="M 2059 -325 
Q 1816 -950 1584 -1140 
Q 1353 -1331 966 -1331 
L 506 -1331 
L 506 -850 
L 844 -850 
Q 1081 -850 1212 -737 
Q 1344 -625 1503 -206 
L 1606 56 
L 191 3500 
L 800 3500 
L 1894 763 
L 2988 3500 
L 3597 3500 
L 2059 -325 
z
" transform="scale(0.015625)"/>
       </defs>
       <use xlink:href="#DejaVuSans-53"/>
       <use xlink:href="#DejaVuSans-65" x="63.476562"/>
       <use xlink:href="#DejaVuSans-61" x="125"/>
       <use xlink:href="#DejaVuSans-6e" x="186.279297"/>
       <use xlink:href="#DejaVuSans-20" x="249.658203"/>
       <use xlink:href="#DejaVuSans-43" x="281.445312"/>
       <use xlink:href="#DejaVuSans-6f" x="351.269531"/>
       <use xlink:href="#DejaVuSans-6e" x="412.451172"/>
       <use xlink:href="#DejaVuSans-6e" x="475.830078"/>
       <use xlink:href="#DejaVuSans-65" x="539.208984"/>
       <use xlink:href="#DejaVuSans-72" x="600.732422"/>
       <use xlink:href="#DejaVuSans-79" x="641.845703"/>
      </g>
     </g>
    </g>
   </g>
   <g id="matplotlib.axis_2">
    <g id="ytick_1">
     <g id="line2d_4">
      <defs>
       <path id="m06f0028523" d="M 0 0 
L -3.5 0 
" style="stroke: #000000; stroke-width: 0.8"/>
      </defs>
      <g>
       <use xlink:href="#m06f0028523" x="43.09" y="246.8" style="stroke: #000000; stroke-width: 0.8"/>
      </g>
     </g>
     <g id="text_4">
      <!-- 0 -->
      <g transform="translate(29.7275 250.599219) scale(0.1 -0.1)">
       <defs>
        <path id="DejaVuSans-30" d="M 2034 4250 
Q 1547 4250 1301 3770 
Q 1056 3291 1056 2328 
Q 1056 1369 1301 889 
Q 1547 409 2034 409 
Q 2525 409 2770 889 
Q 3016 1369 3016 2328 
Q 3016 3291 2770 3770 
Q 2525 4250 2034 4250 
z
M 2034 4750 
Q 2819 4750 3233 4129 
Q 3647 3509 3647 2328 
Q 3647 1150 3233 529 
Q 2819 -91 2034 -91 
Q 1250 -91 836 529 
Q 422 1150 422 2328 
Q 422 3509 836 4129 
Q 1250 4750 2034 4750 
z
" transform="scale(0.015625)"/>
       </defs>
       <use xlink:href="#DejaVuSans-30"/>
      </g>
     </g>
    </g>
    <g id="ytick_2">
     <g id="line2d_5">
      <g>
       <use xlink:href="#m06f0028523" x="43.09" y="207.034609" style="stroke: #000000; stroke-width: 0.8"/>
      </g>
     </g>
     <g id="text_5">
      <!-- 200 -->
      <g transform="translate(17.0025 210.833828) scale(0.1 -0.1)">
       <defs>
        <path id="DejaVuSans-32" d="M 1228 531 
L 3431 531 
L 3431 0 
L 469 0 
L 469 531 
Q 828 903 1448 1529 
Q 2069 2156 2228 2338 
Q 2531 2678 2651 2914 
Q 2772 3150 2772 3378 
Q 2772 3750 2511 3984 
Q 2250 4219 1831 4219 
Q 1534 4219 1204 4116 
Q 875 4013 500 3803 
L 500 4441 
Q 881 4594 1212 4672 
Q 1544 4750 1819 4750 
Q 2544 4750 2975 4387 
Q 3406 4025 3406 3419 
Q 3406 3131 3298 2873 
Q 3191 2616 2906 2266 
Q 2828 2175 2409 1742 
Q 1991 1309 1228 531 
z
" transform="scale(0.015625)"/>
       </defs>
       <use xlink:href="#DejaVuSans-32"/>
       <use xlink:href="#DejaVuSans-30" x="63.623047"/>
       <use xlink:href="#DejaVuSans-30" x="127.246094"/>
      </g>
     </g>
    </g>
    <g id="ytick_3">
     <g id="line2d_6">
      <g>
       <use xlink:href="#m06f0028523" x="43.09" y="167.269218" style="stroke: #000000; stroke-width: 0.8"/>
      </g>
     </g>
     <g id="text_6">
      <!-- 400 -->
      <g transform="translate(17.0025 171.068436) scale(0.1 -0.1)">
       <defs>
        <path id="DejaVuSans-34" d="M 2419 4116 
L 825 1625 
L 2419 1625 
L 2419 4116 
z
M 2253 4666 
L 3047 4666 
L 3047 1625 
L 3713 1625 
L 3713 1100 
L 3047 1100 
L 3047 0 
L 2419 0 
L 2419 1100 
L 313 1100 
L 313 1709 
L 2253 4666 
z
" transform="scale(0.015625)"/>
       </defs>
       <use xlink:href="#DejaVuSans-34"/>
       <use xlink:href="#DejaVuSans-30" x="63.623047"/>
       <use xlink:href="#DejaVuSans-30" x="127.246094"/>
      </g>
     </g>
    </g>
    <g id="ytick_4">
     <g id="line2d_7">
      <g>
       <use xlink:href="#m06f0028523" x="43.09" y="127.503826" style="stroke: #000000; stroke-width: 0.8"/>
      </g>
     </g>
     <g id="text_7">
      <!-- 600 -->
      <g transform="translate(17.0025 131.303045) scale(0.1 -0.1)">
       <defs>
        <path id="DejaVuSans-36" d="M 2113 2584 
Q 1688 2584 1439 2293 
Q 1191 2003 1191 1497 
Q 1191 994 1439 701 
Q 1688 409 2113 409 
Q 2538 409 2786 701 
Q 3034 994 3034 1497 
Q 3034 2003 2786 2293 
Q 2538 2584 2113 2584 
z
M 3366 4563 
L 3366 3988 
Q 3128 4100 2886 4159 
Q 2644 4219 2406 4219 
Q 1781 4219 1451 3797 
Q 1122 3375 1075 2522 
Q 1259 2794 1537 2939 
Q 1816 3084 2150 3084 
Q 2853 3084 3261 2657 
Q 3669 2231 3669 1497 
Q 3669 778 3244 343 
Q 2819 -91 2113 -91 
Q 1303 -91 875 529 
Q 447 1150 447 2328 
Q 447 3434 972 4092 
Q 1497 4750 2381 4750 
Q 2619 4750 2861 4703 
Q 3103 4656 3366 4563 
z
" transform="scale(0.015625)"/>
       </defs>
       <use xlink:href="#DejaVuSans-36"/>
       <use xlink:href="#DejaVuSans-30" x="63.623047"/>
       <use xlink:href="#DejaVuSans-30" x="127.246094"/>
      </g>
     </g>
    </g>
    <g id="ytick_5">
     <g id="line2d_8">
      <g>
       <use xlink:href="#m06f0028523" x="43.09" y="87.738435" style="stroke: #000000; stroke-width: 0.8"/>
      </g>
     </g>
     <g id="text_8">
      <!-- 800 -->
      <g transform="translate(17.0025 91.537654) scale(0.1 -0.1)">
       <defs>
        <path id="DejaVuSans-38" d="M 2034 2216 
Q 1584 2216 1326 1975 
Q 1069 1734 1069 1313 
Q 1069 891 1326 650 
Q 1584 409 2034 409 
Q 2484 409 2743 651 
Q 3003 894 3003 1313 
Q 3003 1734 2745 1975 
Q 2488 2216 2034 2216 
z
M 1403 2484 
Q 997 2584 770 2862 
Q 544 3141 544 3541 
Q 544 4100 942 4425 
Q 1341 4750 2034 4750 
Q 2731 4750 3128 4425 
Q 3525 4100 3525 3541 
Q 3525 3141 3298 2862 
Q 3072 2584 2669 2484 
Q 3125 2378 3379 2068 
Q 3634 1759 3634 1313 
Q 3634 634 3220 271 
Q 2806 -91 2034 -91 
Q 1263 -91 848 271 
Q 434 634 434 1313 
Q 434 1759 690 2068 
Q 947 2378 1403 2484 
z
M 1172 3481 
Q 1172 3119 1398 2916 
Q 1625 2713 2034 2713 
Q 2441 2713 2670 2916 
Q 2900 3119 2900 3481 
Q 2900 3844 2670 4047 
Q 2441 4250 2034 4250 
Q 1625 4250 1398 4047 
Q 1172 3844 1172 3481 
z
" transform="scale(0.015625)"/>
       </defs>
       <use xlink:href="#DejaVuSans-38"/>
       <use xlink:href="#DejaVuSans-30" x="63.623047"/>
       <use xlink:href="#DejaVuSans-30" x="127.246094"/>
      </g>
     </g>
    </g>
    <g id="ytick_6">
     <g id="line2d_9">
      <g>
       <use xlink:href="#m06f0028523" x="43.09" y="47.973044" style="stroke: #000000; stroke-width: 0.8"/>
      </g>
     </g>
     <g id="text_9">
      <!-- 1000 -->
      <g transform="translate(10.64 51.772263) scale(0.1 -0.1)">
       <defs>
        <path id="DejaVuSans-31" d="M 794 531 
L 1825 531 
L 1825 4091 
L 703 3866 
L 703 4441 
L 1819 4666 
L 2450 4666 
L 2450 531 
L 3481 531 
L 3481 0 
L 794 0 
L 794 531 
z
" transform="scale(0.015625)"/>
       </defs>
       <use xlink:href="#DejaVuSans-31"/>
       <use xlink:href="#DejaVuSans-30" x="63.623047"/>
       <use xlink:href="#DejaVuSans-30" x="127.246094"/>
       <use xlink:href="#DejaVuSans-30" x="190.869141"/>
      </g>
     </g>
    </g>
   </g>
   <g id="patch_164">
    <path d="M 43.09 246.8 
L 43.09 10.8 
" style="fill: none; stroke: #000000; stroke-width: 0.8; stroke-linejoin: miter; stroke-linecap: square"/>
   </g>
   <g id="patch_165">
    <path d="M 450 246.8 
L 450 10.8 
" style="fill: none; stroke: #000000; stroke-width: 0.8; stroke-linejoin: miter; stroke-linecap: square"/>
   </g>
   <g id="patch_166">
    <path d="M 43.09 246.8 
L 450 246.8 
" style="fill: none; stroke: #000000; stroke-width: 0.8; stroke-linejoin: miter; stroke-linecap: square"/>
   </g>
   <g id="patch_167">
    <path d="M 43.09 10.8 
L 450 10.8 
" style="fill: none; stroke: #000000; stroke-width: 0.8; stroke-linejoin: miter; stroke-linecap: square"/>
   </g>
  </g>
 </g>
 <defs>
  <clipPath id="pc06fc12d5b">
   <rect x="43.09" y="10.8" width="406.91" height="236"/>
  </clipPath>
 </defs>
</svg>
