<?xml version="1.0" encoding="utf-8" standalone="no"?>
<!DOCTYPE svg PUBLIC "-//W3C//DTD SVG 1.1//EN"
  "http://www.w3.org/Graphics/SVG/1.1/DTD/svg11.dtd">
<svg xmlns:xlink="http://www.w3.org/1999/xlink" width="460.8pt" height="345.6pt" viewBox="0 0 460.8 345.6" xmlns="http://www.w3.org/2000/svg" version="1.1">
 <metadata>
  <rdf:RDF xmlns:dc="http://purl.org/dc/elements/1.1/" xmlns:cc="http://creativecommons.org/ns#" xmlns:rdf="http://www.w3.org/1999/02/22-rdf-syntax-ns#">
   <cc:Work>
    <dc:type rdf:resource="http://purl.org/dc/dcmitype/StillImage"/>
    <dc:date>2022-12-20T12:31:04.754754</dc:date>
    <dc:format>image/svg+xml</dc:format>
    <dc:creator>
     <cc:Agent>
      <dc:title>Matplotlib v3.6.0, https://matplotlib.org/</dc:title>
     </cc:Agent>
    </dc:creator>
   </cc:Work>
  </rdf:RDF>
 </metadata>
 <defs>
  <style type="text/css">*{stroke-linejoin: round; stroke-linecap: butt}</style>
 </defs>
 <g id="figure_1">
  <g id="patch_1">
   <path d="M 0 345.6 
L 460.8 345.6 
L 460.8 0 
L 0 0 
z
" style="fill: #ffffff"/>
  </g>
  <g id="axes_1">
   <g id="patch_2">
    <path d="M 43.09 260.93 
L 450 260.93 
L 450 10.8 
L 43.09 10.8 
z
" style="fill: #ffffff"/>
   </g>
   <g id="patch_3">
    <path d="M 144.8175 260.93 
L 348.2725 260.93 
L 348.2725 22.710952 
L 144.8175 22.710952 
z
" clip-path="url(#pe5b1872296)" style="fill: #1f77b4"/>
   </g>
   <g id="patch_4">
    <path d="M 551.7275 260.93 
L 755.1825 260.93 
L 755.1825 78.739836 
L 551.7275 78.739836 
z
" clip-path="url(#pe5b1872296)" style="fill: #1f77b4"/>
   </g>
   <g id="patch_5">
    <path d="M 958.6375 260.93 
L 1162.0925 260.93 
L 1162.0925 62.071994 
L 958.6375 62.071994 
z
" clip-path="url(#pe5b1872296)" style="fill: #1f77b4"/>
   </g>
   <g id="patch_6">
    <path d="M 1365.5475 260.93 
L 1569.0025 260.93 
L 1569.0025 98.695191 
L 1365.5475 98.695191 
z
" clip-path="url(#pe5b1872296)" style="fill: #1f77b4"/>
   </g>
   <g id="patch_7">
    <path d="M 1772.4575 260.93 
L 1975.9125 260.93 
L 1975.9125 163.322732 
L 1772.4575 163.322732 
z
" clip-path="url(#pe5b1872296)" style="fill: #1f77b4"/>
   </g>
   <g id="patch_8">
    <path d="M 144.8175 260.93 
L 348.2725 260.93 
L 348.2725 260.294387 
L 144.8175 260.294387 
z
" clip-path="url(#pe5b1872296)" style="fill: #1f77b4"/>
   </g>
   <g id="patch_9">
    <path d="M 551.7275 260.93 
L 755.1825 260.93 
L 755.1825 260.718129 
L 551.7275 260.718129 
z
" clip-path="url(#pe5b1872296)" style="fill: #1f77b4"/>
   </g>
   <g id="patch_10">
    <path d="M 958.6375 260.93 
L 1162.0925 260.93 
L 1162.0925 260.93 
L 958.6375 260.93 
z
" clip-path="url(#pe5b1872296)" style="fill: #1f77b4"/>
   </g>
   <g id="patch_11">
    <path d="M 144.8175 260.93 
L 348.2725 260.93 
L 348.2725 260.859376 
L 144.8175 260.859376 
z
" clip-path="url(#pe5b1872296)" style="fill: #1f77b4"/>
   </g>
   <g id="patch_12">
    <path d="M 551.7275 260.93 
L 755.1825 260.93 
L 755.1825 260.859376 
L 551.7275 260.859376 
z
" clip-path="url(#pe5b1872296)" style="fill: #1f77b4"/>
   </g>
   <g id="patch_13">
    <path d="M 958.6375 260.93 
L 1162.0925 260.93 
L 1162.0925 260.859376 
L 958.6375 260.859376 
z
" clip-path="url(#pe5b1872296)" style="fill: #1f77b4"/>
   </g>
   <g id="patch_14">
    <path d="M 1365.5475 260.93 
L 1569.0025 260.93 
L 1569.0025 260.718129 
L 1365.5475 260.718129 
z
" clip-path="url(#pe5b1872296)" style="fill: #1f77b4"/>
   </g>
   <g id="patch_15">
    <path d="M 1772.4575 260.93 
L 1975.9125 260.93 
L 1975.9125 260.93 
L 1772.4575 260.93 
z
" clip-path="url(#pe5b1872296)" style="fill: #1f77b4"/>
   </g>
   <g id="patch_16">
    <path d="M 144.8175 260.93 
L 348.2725 260.93 
L 348.2725 221.098264 
L 144.8175 221.098264 
z
" clip-path="url(#pe5b1872296)" style="fill: #1f77b4"/>
   </g>
   <g id="patch_17">
    <path d="M 551.7275 260.93 
L 755.1825 260.93 
L 755.1825 249.70084 
L 551.7275 249.70084 
z
" clip-path="url(#pe5b1872296)" style="fill: #1f77b4"/>
   </g>
   <g id="patch_18">
    <path d="M 958.6375 260.93 
L 1162.0925 260.93 
L 1162.0925 251.713614 
L 958.6375 251.713614 
z
" clip-path="url(#pe5b1872296)" style="fill: #1f77b4"/>
   </g>
   <g id="patch_19">
    <path d="M 1365.5475 260.93 
L 1569.0025 260.93 
L 1569.0025 222.157619 
L 1365.5475 222.157619 
z
" clip-path="url(#pe5b1872296)" style="fill: #1f77b4"/>
   </g>
   <g id="patch_20">
    <path d="M 1772.4575 260.93 
L 1975.9125 260.93 
L 1975.9125 255.951033 
L 1772.4575 255.951033 
z
" clip-path="url(#pe5b1872296)" style="fill: #1f77b4"/>
   </g>
   <g id="patch_21">
    <path d="M 144.8175 260.93 
L 348.2725 260.93 
L 348.2725 260.718129 
L 144.8175 260.718129 
z
" clip-path="url(#pe5b1872296)" style="fill: #1f77b4"/>
   </g>
   <g id="patch_22">
    <path d="M 551.7275 260.93 
L 755.1825 260.93 
L 755.1825 260.93 
L 551.7275 260.93 
z
" clip-path="url(#pe5b1872296)" style="fill: #1f77b4"/>
   </g>
   <g id="patch_23">
    <path d="M 958.6375 260.93 
L 1162.0925 260.93 
L 1162.0925 260.93 
L 958.6375 260.93 
z
" clip-path="url(#pe5b1872296)" style="fill: #1f77b4"/>
   </g>
   <g id="patch_24">
    <path d="M 1365.5475 260.93 
L 1569.0025 260.93 
L 1569.0025 260.93 
L 1365.5475 260.93 
z
" clip-path="url(#pe5b1872296)" style="fill: #1f77b4"/>
   </g>
   <g id="patch_25">
    <path d="M 144.8175 260.93 
L 348.2725 260.93 
L 348.2725 255.209485 
L 144.8175 255.209485 
z
" clip-path="url(#pe5b1872296)" style="fill: #1f77b4"/>
   </g>
   <g id="patch_26">
    <path d="M 551.7275 260.93 
L 755.1825 260.93 
L 755.1825 260.294387 
L 551.7275 260.294387 
z
" clip-path="url(#pe5b1872296)" style="fill: #1f77b4"/>
   </g>
   <g id="patch_27">
    <path d="M 958.6375 260.93 
L 1162.0925 260.93 
L 1162.0925 260.718129 
L 958.6375 260.718129 
z
" clip-path="url(#pe5b1872296)" style="fill: #1f77b4"/>
   </g>
   <g id="patch_28">
    <path d="M 1365.5475 260.93 
L 1569.0025 260.93 
L 1569.0025 260.718129 
L 1365.5475 260.718129 
z
" clip-path="url(#pe5b1872296)" style="fill: #1f77b4"/>
   </g>
   <g id="patch_29">
    <path d="M 1772.4575 260.93 
L 1975.9125 260.93 
L 1975.9125 259.446903 
L 1772.4575 259.446903 
z
" clip-path="url(#pe5b1872296)" style="fill: #1f77b4"/>
   </g>
   <g id="patch_30">
    <path d="M 144.8175 260.93 
L 348.2725 260.93 
L 348.2725 260.506258 
L 144.8175 260.506258 
z
" clip-path="url(#pe5b1872296)" style="fill: #1f77b4"/>
   </g>
   <g id="patch_31">
    <path d="M 551.7275 260.93 
L 755.1825 260.93 
L 755.1825 260.506258 
L 551.7275 260.506258 
z
" clip-path="url(#pe5b1872296)" style="fill: #1f77b4"/>
   </g>
   <g id="patch_32">
    <path d="M 958.6375 260.93 
L 1162.0925 260.93 
L 1162.0925 260.506258 
L 958.6375 260.506258 
z
" clip-path="url(#pe5b1872296)" style="fill: #1f77b4"/>
   </g>
   <g id="patch_33">
    <path d="M 1365.5475 260.93 
L 1569.0025 260.93 
L 1569.0025 260.506258 
L 1365.5475 260.506258 
z
" clip-path="url(#pe5b1872296)" style="fill: #1f77b4"/>
   </g>
   <g id="patch_34">
    <path d="M 1772.4575 260.93 
L 1975.9125 260.93 
L 1975.9125 260.506258 
L 1772.4575 260.506258 
z
" clip-path="url(#pe5b1872296)" style="fill: #1f77b4"/>
   </g>
   <g id="patch_35">
    <path d="M 144.8175 260.93 
L 348.2725 260.93 
L 348.2725 260.294387 
L 144.8175 260.294387 
z
" clip-path="url(#pe5b1872296)" style="fill: #1f77b4"/>
   </g>
   <g id="patch_36">
    <path d="M 551.7275 260.93 
L 755.1825 260.93 
L 755.1825 260.400323 
L 551.7275 260.400323 
z
" clip-path="url(#pe5b1872296)" style="fill: #1f77b4"/>
   </g>
   <g id="patch_37">
    <path d="M 958.6375 260.93 
L 1162.0925 260.93 
L 1162.0925 260.718129 
L 958.6375 260.718129 
z
" clip-path="url(#pe5b1872296)" style="fill: #1f77b4"/>
   </g>
   <g id="patch_38">
    <path d="M 1365.5475 260.93 
L 1569.0025 260.93 
L 1569.0025 260.824065 
L 1365.5475 260.824065 
z
" clip-path="url(#pe5b1872296)" style="fill: #1f77b4"/>
   </g>
   <g id="patch_39">
    <path d="M 1772.4575 260.93 
L 1975.9125 260.93 
L 1975.9125 260.824065 
L 1772.4575 260.824065 
z
" clip-path="url(#pe5b1872296)" style="fill: #1f77b4"/>
   </g>
   <g id="patch_40">
    <path d="M 144.8175 260.93 
L 348.2725 260.93 
L 348.2725 260.294387 
L 144.8175 260.294387 
z
" clip-path="url(#pe5b1872296)" style="fill: #1f77b4"/>
   </g>
   <g id="patch_41">
    <path d="M 551.7275 260.93 
L 755.1825 260.93 
L 755.1825 260.93 
L 551.7275 260.93 
z
" clip-path="url(#pe5b1872296)" style="fill: #1f77b4"/>
   </g>
   <g id="patch_42">
    <path d="M 958.6375 260.93 
L 1162.0925 260.93 
L 1162.0925 260.93 
L 958.6375 260.93 
z
" clip-path="url(#pe5b1872296)" style="fill: #1f77b4"/>
   </g>
   <g id="patch_43">
    <path d="M 144.8175 260.93 
L 348.2725 260.93 
L 348.2725 260.294387 
L 144.8175 260.294387 
z
" clip-path="url(#pe5b1872296)" style="fill: #1f77b4"/>
   </g>
   <g id="patch_44">
    <path d="M 551.7275 260.93 
L 755.1825 260.93 
L 755.1825 260.718129 
L 551.7275 260.718129 
z
" clip-path="url(#pe5b1872296)" style="fill: #1f77b4"/>
   </g>
   <g id="patch_45">
    <path d="M 144.8175 260.93 
L 348.2725 260.93 
L 348.2725 27.317066 
L 144.8175 27.317066 
z
" clip-path="url(#pe5b1872296)" style="fill: #1f77b4"/>
   </g>
   <g id="patch_46">
    <path d="M 551.7275 260.93 
L 755.1825 260.93 
L 755.1825 93.070474 
L 551.7275 93.070474 
z
" clip-path="url(#pe5b1872296)" style="fill: #1f77b4"/>
   </g>
   <g id="patch_47">
    <path d="M 958.6375 260.93 
L 1162.0925 260.93 
L 1162.0925 115.032254 
L 958.6375 115.032254 
z
" clip-path="url(#pe5b1872296)" style="fill: #1f77b4"/>
   </g>
   <g id="patch_48">
    <path d="M 1365.5475 260.93 
L 1569.0025 260.93 
L 1569.0025 93.653513 
L 1365.5475 93.653513 
z
" clip-path="url(#pe5b1872296)" style="fill: #1f77b4"/>
   </g>
   <g id="patch_49">
    <path d="M 1772.4575 260.93 
L 1975.9125 260.93 
L 1975.9125 137.899803 
L 1772.4575 137.899803 
z
" clip-path="url(#pe5b1872296)" style="fill: #1f77b4"/>
   </g>
   <g id="patch_50">
    <path d="M 144.8175 260.93 
L 348.2725 260.93 
L 348.2725 260.93 
L 144.8175 260.93 
z
" clip-path="url(#pe5b1872296)" style="fill: #1f77b4"/>
   </g>
   <g id="patch_51">
    <path d="M 551.7275 260.93 
L 755.1825 260.93 
L 755.1825 260.93 
L 551.7275 260.93 
z
" clip-path="url(#pe5b1872296)" style="fill: #1f77b4"/>
   </g>
   <g id="patch_52">
    <path d="M 958.6375 260.93 
L 1162.0925 260.93 
L 1162.0925 260.93 
L 958.6375 260.93 
z
" clip-path="url(#pe5b1872296)" style="fill: #1f77b4"/>
   </g>
   <g id="patch_53">
    <path d="M 1365.5475 260.93 
L 1569.0025 260.93 
L 1569.0025 260.93 
L 1365.5475 260.93 
z
" clip-path="url(#pe5b1872296)" style="fill: #1f77b4"/>
   </g>
   <g id="patch_54">
    <path d="M 1772.4575 260.93 
L 1975.9125 260.93 
L 1975.9125 260.93 
L 1772.4575 260.93 
z
" clip-path="url(#pe5b1872296)" style="fill: #1f77b4"/>
   </g>
   <g id="patch_55">
    <path d="M 144.8175 260.93 
L 348.2725 260.93 
L 348.2725 260.718129 
L 144.8175 260.718129 
z
" clip-path="url(#pe5b1872296)" style="fill: #1f77b4"/>
   </g>
   <g id="patch_56">
    <path d="M 551.7275 260.93 
L 755.1825 260.93 
L 755.1825 260.93 
L 551.7275 260.93 
z
" clip-path="url(#pe5b1872296)" style="fill: #1f77b4"/>
   </g>
   <g id="patch_57">
    <path d="M 958.6375 260.93 
L 1162.0925 260.93 
L 1162.0925 260.93 
L 958.6375 260.93 
z
" clip-path="url(#pe5b1872296)" style="fill: #1f77b4"/>
   </g>
   <g id="patch_58">
    <path d="M 1365.5475 260.93 
L 1569.0025 260.93 
L 1569.0025 260.93 
L 1365.5475 260.93 
z
" clip-path="url(#pe5b1872296)" style="fill: #1f77b4"/>
   </g>
   <g id="patch_59">
    <path d="M 1772.4575 260.93 
L 1975.9125 260.93 
L 1975.9125 260.93 
L 1772.4575 260.93 
z
" clip-path="url(#pe5b1872296)" style="fill: #1f77b4"/>
   </g>
   <g id="patch_60">
    <path d="M 144.8175 260.93 
L 348.2725 260.93 
L 348.2725 259.76471 
L 144.8175 259.76471 
z
" clip-path="url(#pe5b1872296)" style="fill: #1f77b4"/>
   </g>
   <g id="patch_61">
    <path d="M 551.7275 260.93 
L 755.1825 260.93 
L 755.1825 260.294387 
L 551.7275 260.294387 
z
" clip-path="url(#pe5b1872296)" style="fill: #1f77b4"/>
   </g>
   <g id="patch_62">
    <path d="M 958.6375 260.93 
L 1162.0925 260.93 
L 1162.0925 260.824065 
L 958.6375 260.824065 
z
" clip-path="url(#pe5b1872296)" style="fill: #1f77b4"/>
   </g>
   <g id="patch_63">
    <path d="M 1365.5475 260.93 
L 1569.0025 260.93 
L 1569.0025 260.93 
L 1365.5475 260.93 
z
" clip-path="url(#pe5b1872296)" style="fill: #1f77b4"/>
   </g>
   <g id="patch_64">
    <path d="M 1772.4575 260.93 
L 1975.9125 260.93 
L 1975.9125 260.93 
L 1772.4575 260.93 
z
" clip-path="url(#pe5b1872296)" style="fill: #1f77b4"/>
   </g>
   <g id="patch_65">
    <path d="M 144.8175 260.93 
L 348.2725 260.93 
L 348.2725 237.518262 
L 144.8175 237.518262 
z
" clip-path="url(#pe5b1872296)" style="fill: #1f77b4"/>
   </g>
   <g id="patch_66">
    <path d="M 551.7275 260.93 
L 755.1825 260.93 
L 755.1825 258.811291 
L 551.7275 258.811291 
z
" clip-path="url(#pe5b1872296)" style="fill: #1f77b4"/>
   </g>
   <g id="patch_67">
    <path d="M 958.6375 260.93 
L 1162.0925 260.93 
L 1162.0925 248.14712 
L 958.6375 248.14712 
z
" clip-path="url(#pe5b1872296)" style="fill: #1f77b4"/>
   </g>
   <g id="patch_68">
    <path d="M 1365.5475 260.93 
L 1569.0025 260.93 
L 1569.0025 244.827809 
L 1365.5475 244.827809 
z
" clip-path="url(#pe5b1872296)" style="fill: #1f77b4"/>
   </g>
   <g id="patch_69">
    <path d="M 1772.4575 260.93 
L 1975.9125 260.93 
L 1975.9125 247.899937 
L 1772.4575 247.899937 
z
" clip-path="url(#pe5b1872296)" style="fill: #1f77b4"/>
   </g>
   <g id="patch_70">
    <path d="M 144.8175 260.93 
L 348.2725 260.93 
L 348.2725 190.421561 
L 144.8175 190.421561 
z
" clip-path="url(#pe5b1872296)" style="fill: #1f77b4"/>
   </g>
   <g id="patch_71">
    <path d="M 551.7275 260.93 
L 755.1825 260.93 
L 755.1825 200.539578 
L 551.7275 200.539578 
z
" clip-path="url(#pe5b1872296)" style="fill: #1f77b4"/>
   </g>
   <g id="patch_72">
    <path d="M 958.6375 260.93 
L 1162.0925 260.93 
L 1162.0925 114.270959 
L 958.6375 114.270959 
z
" clip-path="url(#pe5b1872296)" style="fill: #1f77b4"/>
   </g>
   <g id="patch_73">
    <path d="M 1365.5475 260.93 
L 1569.0025 260.93 
L 1569.0025 172.491547 
L 1365.5475 172.491547 
z
" clip-path="url(#pe5b1872296)" style="fill: #1f77b4"/>
   </g>
   <g id="patch_74">
    <path d="M 1772.4575 260.93 
L 1975.9125 260.93 
L 1975.9125 113.305355 
L 1772.4575 113.305355 
z
" clip-path="url(#pe5b1872296)" style="fill: #1f77b4"/>
   </g>
   <g id="patch_75">
    <path d="M 144.8175 260.93 
L 348.2725 260.93 
L 348.2725 260.93 
L 144.8175 260.93 
z
" clip-path="url(#pe5b1872296)" style="fill: #1f77b4"/>
   </g>
   <g id="patch_76">
    <path d="M 551.7275 260.93 
L 755.1825 260.93 
L 755.1825 260.93 
L 551.7275 260.93 
z
" clip-path="url(#pe5b1872296)" style="fill: #1f77b4"/>
   </g>
   <g id="patch_77">
    <path d="M 144.8175 260.93 
L 348.2725 260.93 
L 348.2725 258.281613 
L 144.8175 258.281613 
z
" clip-path="url(#pe5b1872296)" style="fill: #1f77b4"/>
   </g>
   <g id="patch_78">
    <path d="M 551.7275 260.93 
L 755.1825 260.93 
L 755.1825 258.811291 
L 551.7275 258.811291 
z
" clip-path="url(#pe5b1872296)" style="fill: #1f77b4"/>
   </g>
   <g id="patch_79">
    <path d="M 958.6375 260.93 
L 1162.0925 260.93 
L 1162.0925 259.658774 
L 958.6375 259.658774 
z
" clip-path="url(#pe5b1872296)" style="fill: #1f77b4"/>
   </g>
   <g id="patch_80">
    <path d="M 1365.5475 260.93 
L 1569.0025 260.93 
L 1569.0025 260.718129 
L 1365.5475 260.718129 
z
" clip-path="url(#pe5b1872296)" style="fill: #1f77b4"/>
   </g>
   <g id="patch_81">
    <path d="M 1772.4575 260.93 
L 1975.9125 260.93 
L 1975.9125 260.506258 
L 1772.4575 260.506258 
z
" clip-path="url(#pe5b1872296)" style="fill: #1f77b4"/>
   </g>
   <g id="patch_82">
    <path d="M 144.8175 260.93 
L 348.2725 260.93 
L 348.2725 260.294387 
L 144.8175 260.294387 
z
" clip-path="url(#pe5b1872296)" style="fill: #1f77b4"/>
   </g>
   <g id="patch_83">
    <path d="M 551.7275 260.93 
L 755.1825 260.93 
L 755.1825 260.294387 
L 551.7275 260.294387 
z
" clip-path="url(#pe5b1872296)" style="fill: #1f77b4"/>
   </g>
   <g id="patch_84">
    <path d="M 958.6375 260.93 
L 1162.0925 260.93 
L 1162.0925 260.718129 
L 958.6375 260.718129 
z
" clip-path="url(#pe5b1872296)" style="fill: #1f77b4"/>
   </g>
   <g id="patch_85">
    <path d="M 1365.5475 260.93 
L 1569.0025 260.93 
L 1569.0025 260.93 
L 1365.5475 260.93 
z
" clip-path="url(#pe5b1872296)" style="fill: #1f77b4"/>
   </g>
   <g id="patch_86">
    <path d="M 1772.4575 260.93 
L 1975.9125 260.93 
L 1975.9125 260.93 
L 1772.4575 260.93 
z
" clip-path="url(#pe5b1872296)" style="fill: #1f77b4"/>
   </g>
   <g id="patch_87">
    <path d="M 144.8175 260.93 
L 348.2725 260.93 
L 348.2725 256.48071 
L 144.8175 256.48071 
z
" clip-path="url(#pe5b1872296)" style="fill: #1f77b4"/>
   </g>
   <g id="patch_88">
    <path d="M 551.7275 260.93 
L 755.1825 260.93 
L 755.1825 260.824065 
L 551.7275 260.824065 
z
" clip-path="url(#pe5b1872296)" style="fill: #1f77b4"/>
   </g>
   <g id="patch_89">
    <path d="M 958.6375 260.93 
L 1162.0925 260.93 
L 1162.0925 260.824065 
L 958.6375 260.824065 
z
" clip-path="url(#pe5b1872296)" style="fill: #1f77b4"/>
   </g>
   <g id="patch_90">
    <path d="M 1365.5475 260.93 
L 1569.0025 260.93 
L 1569.0025 260.824065 
L 1365.5475 260.824065 
z
" clip-path="url(#pe5b1872296)" style="fill: #1f77b4"/>
   </g>
   <g id="patch_91">
    <path d="M 1772.4575 260.93 
L 1975.9125 260.93 
L 1975.9125 260.824065 
L 1772.4575 260.824065 
z
" clip-path="url(#pe5b1872296)" style="fill: #1f77b4"/>
   </g>
   <g id="patch_92">
    <path d="M 144.8175 260.93 
L 348.2725 260.93 
L 348.2725 260.93 
L 144.8175 260.93 
z
" clip-path="url(#pe5b1872296)" style="fill: #1f77b4"/>
   </g>
   <g id="patch_93">
    <path d="M 144.8175 260.93 
L 348.2725 260.93 
L 348.2725 259.870645 
L 144.8175 259.870645 
z
" clip-path="url(#pe5b1872296)" style="fill: #1f77b4"/>
   </g>
   <g id="patch_94">
    <path d="M 551.7275 260.93 
L 755.1825 260.93 
L 755.1825 259.870645 
L 551.7275 259.870645 
z
" clip-path="url(#pe5b1872296)" style="fill: #1f77b4"/>
   </g>
   <g id="patch_95">
    <path d="M 958.6375 260.93 
L 1162.0925 260.93 
L 1162.0925 260.718129 
L 958.6375 260.718129 
z
" clip-path="url(#pe5b1872296)" style="fill: #1f77b4"/>
   </g>
   <g id="patch_96">
    <path d="M 144.8175 260.93 
L 348.2725 260.93 
L 348.2725 256.48071 
L 144.8175 256.48071 
z
" clip-path="url(#pe5b1872296)" style="fill: #1f77b4"/>
   </g>
   <g id="patch_97">
    <path d="M 551.7275 260.93 
L 755.1825 260.93 
L 755.1825 260.718129 
L 551.7275 260.718129 
z
" clip-path="url(#pe5b1872296)" style="fill: #1f77b4"/>
   </g>
   <g id="patch_98">
    <path d="M 958.6375 260.93 
L 1162.0925 260.93 
L 1162.0925 260.718129 
L 958.6375 260.718129 
z
" clip-path="url(#pe5b1872296)" style="fill: #1f77b4"/>
   </g>
   <g id="patch_99">
    <path d="M 1365.5475 260.93 
L 1569.0025 260.93 
L 1569.0025 260.93 
L 1365.5475 260.93 
z
" clip-path="url(#pe5b1872296)" style="fill: #1f77b4"/>
   </g>
   <g id="patch_100">
    <path d="M 1772.4575 260.93 
L 1975.9125 260.93 
L 1975.9125 260.93 
L 1772.4575 260.93 
z
" clip-path="url(#pe5b1872296)" style="fill: #1f77b4"/>
   </g>
   <g id="patch_101">
    <path d="M 144.8175 260.93 
L 348.2725 260.93 
L 348.2725 260.93 
L 144.8175 260.93 
z
" clip-path="url(#pe5b1872296)" style="fill: #1f77b4"/>
   </g>
   <g id="matplotlib.axis_1">
    <g id="xtick_1">
     <g id="line2d_1">
      <defs>
       <path id="m451a7d1f17" d="M 0 0 
L 0 3.5 
" style="stroke: #000000; stroke-width: 0.8"/>
      </defs>
      <g>
       <use xlink:href="#m451a7d1f17" x="246.545" y="260.93" style="stroke: #000000; stroke-width: 0.8"/>
      </g>
     </g>
     <g id="text_1">
      <!-- Willem Dafoe -->
      <g transform="translate(249.304375 334.619062) rotate(-90) scale(0.1 -0.1)">
       <defs>
        <path id="DejaVuSans-57" d="M 213 4666 
L 850 4666 
L 1831 722 
L 2809 4666 
L 3519 4666 
L 4500 722 
L 5478 4666 
L 6119 4666 
L 4947 0 
L 4153 0 
L 3169 4050 
L 2175 0 
L 1381 0 
L 213 4666 
z
" transform="scale(0.015625)"/>
        <path id="DejaVuSans-69" d="M 603 3500 
L 1178 3500 
L 1178 0 
L 603 0 
L 603 3500 
z
M 603 4863 
L 1178 4863 
L 1178 4134 
L 603 4134 
L 603 4863 
z
" transform="scale(0.015625)"/>
        <path id="DejaVuSans-6c" d="M 603 4863 
L 1178 4863 
L 1178 0 
L 603 0 
L 603 4863 
z
" transform="scale(0.015625)"/>
        <path id="DejaVuSans-65" d="M 3597 1894 
L 3597 1613 
L 953 1613 
Q 991 1019 1311 708 
Q 1631 397 2203 397 
Q 2534 397 2845 478 
Q 3156 559 3463 722 
L 3463 178 
Q 3153 47 2828 -22 
Q 2503 -91 2169 -91 
Q 1331 -91 842 396 
Q 353 884 353 1716 
Q 353 2575 817 3079 
Q 1281 3584 2069 3584 
Q 2775 3584 3186 3129 
Q 3597 2675 3597 1894 
z
M 3022 2063 
Q 3016 2534 2758 2815 
Q 2500 3097 2075 3097 
Q 1594 3097 1305 2825 
Q 1016 2553 972 2059 
L 3022 2063 
z
" transform="scale(0.015625)"/>
        <path id="DejaVuSans-6d" d="M 3328 2828 
Q 3544 3216 3844 3400 
Q 4144 3584 4550 3584 
Q 5097 3584 5394 3201 
Q 5691 2819 5691 2113 
L 5691 0 
L 5113 0 
L 5113 2094 
Q 5113 2597 4934 2840 
Q 4756 3084 4391 3084 
Q 3944 3084 3684 2787 
Q 3425 2491 3425 1978 
L 3425 0 
L 2847 0 
L 2847 2094 
Q 2847 2600 2669 2842 
Q 2491 3084 2119 3084 
Q 1678 3084 1418 2786 
Q 1159 2488 1159 1978 
L 1159 0 
L 581 0 
L 581 3500 
L 1159 3500 
L 1159 2956 
Q 1356 3278 1631 3431 
Q 1906 3584 2284 3584 
Q 2666 3584 2933 3390 
Q 3200 3197 3328 2828 
z
" transform="scale(0.015625)"/>
        <path id="DejaVuSans-20" transform="scale(0.015625)"/>
        <path id="DejaVuSans-44" d="M 1259 4147 
L 1259 519 
L 2022 519 
Q 2988 519 3436 956 
Q 3884 1394 3884 2338 
Q 3884 3275 3436 3711 
Q 2988 4147 2022 4147 
L 1259 4147 
z
M 628 4666 
L 1925 4666 
Q 3281 4666 3915 4102 
Q 4550 3538 4550 2338 
Q 4550 1131 3912 565 
Q 3275 0 1925 0 
L 628 0 
L 628 4666 
z
" transform="scale(0.015625)"/>
        <path id="DejaVuSans-61" d="M 2194 1759 
Q 1497 1759 1228 1600 
Q 959 1441 959 1056 
Q 959 750 1161 570 
Q 1363 391 1709 391 
Q 2188 391 2477 730 
Q 2766 1069 2766 1631 
L 2766 1759 
L 2194 1759 
z
M 3341 1997 
L 3341 0 
L 2766 0 
L 2766 531 
Q 2569 213 2275 61 
Q 1981 -91 1556 -91 
Q 1019 -91 701 211 
Q 384 513 384 1019 
Q 384 1609 779 1909 
Q 1175 2209 1959 2209 
L 2766 2209 
L 2766 2266 
Q 2766 2663 2505 2880 
Q 2244 3097 1772 3097 
Q 1472 3097 1187 3025 
Q 903 2953 641 2809 
L 641 3341 
Q 956 3463 1253 3523 
Q 1550 3584 1831 3584 
Q 2591 3584 2966 3190 
Q 3341 2797 3341 1997 
z
" transform="scale(0.015625)"/>
        <path id="DejaVuSans-66" d="M 2375 4863 
L 2375 4384 
L 1825 4384 
Q 1516 4384 1395 4259 
Q 1275 4134 1275 3809 
L 1275 3500 
L 2222 3500 
L 2222 3053 
L 1275 3053 
L 1275 0 
L 697 0 
L 697 3053 
L 147 3053 
L 147 3500 
L 697 3500 
L 697 3744 
Q 697 4328 969 4595 
Q 1241 4863 1831 4863 
L 2375 4863 
z
" transform="scale(0.015625)"/>
        <path id="DejaVuSans-6f" d="M 1959 3097 
Q 1497 3097 1228 2736 
Q 959 2375 959 1747 
Q 959 1119 1226 758 
Q 1494 397 1959 397 
Q 2419 397 2687 759 
Q 2956 1122 2956 1747 
Q 2956 2369 2687 2733 
Q 2419 3097 1959 3097 
z
M 1959 3584 
Q 2709 3584 3137 3096 
Q 3566 2609 3566 1747 
Q 3566 888 3137 398 
Q 2709 -91 1959 -91 
Q 1206 -91 779 398 
Q 353 888 353 1747 
Q 353 2609 779 3096 
Q 1206 3584 1959 3584 
z
" transform="scale(0.015625)"/>
       </defs>
       <use xlink:href="#DejaVuSans-57"/>
       <use xlink:href="#DejaVuSans-69" x="96.626953"/>
       <use xlink:href="#DejaVuSans-6c" x="124.410156"/>
       <use xlink:href="#DejaVuSans-6c" x="152.193359"/>
       <use xlink:href="#DejaVuSans-65" x="179.976562"/>
       <use xlink:href="#DejaVuSans-6d" x="241.5"/>
       <use xlink:href="#DejaVuSans-20" x="338.912109"/>
       <use xlink:href="#DejaVuSans-44" x="370.699219"/>
       <use xlink:href="#DejaVuSans-61" x="447.701172"/>
       <use xlink:href="#DejaVuSans-66" x="508.980469"/>
       <use xlink:href="#DejaVuSans-6f" x="544.185547"/>
       <use xlink:href="#DejaVuSans-65" x="605.367188"/>
      </g>
     </g>
    </g>
   </g>
   <g id="matplotlib.axis_2">
    <g id="ytick_1">
     <g id="line2d_2">
      <defs>
       <path id="mc5f99c126a" d="M 0 0 
L -3.5 0 
" style="stroke: #000000; stroke-width: 0.8"/>
      </defs>
      <g>
       <use xlink:href="#mc5f99c126a" x="43.09" y="260.93" style="stroke: #000000; stroke-width: 0.8"/>
      </g>
     </g>
     <g id="text_2">
      <!-- 0 -->
      <g transform="translate(29.7275 264.729219) scale(0.1 -0.1)">
       <defs>
        <path id="DejaVuSans-30" d="M 2034 4250 
Q 1547 4250 1301 3770 
Q 1056 3291 1056 2328 
Q 1056 1369 1301 889 
Q 1547 409 2034 409 
Q 2525 409 2770 889 
Q 3016 1369 3016 2328 
Q 3016 3291 2770 3770 
Q 2525 4250 2034 4250 
z
M 2034 4750 
Q 2819 4750 3233 4129 
Q 3647 3509 3647 2328 
Q 3647 1150 3233 529 
Q 2819 -91 2034 -91 
Q 1250 -91 836 529 
Q 422 1150 422 2328 
Q 422 3509 836 4129 
Q 1250 4750 2034 4750 
z
" transform="scale(0.015625)"/>
       </defs>
       <use xlink:href="#DejaVuSans-30"/>
      </g>
     </g>
    </g>
    <g id="ytick_2">
     <g id="line2d_3">
      <g>
       <use xlink:href="#mc5f99c126a" x="43.09" y="218.555813" style="stroke: #000000; stroke-width: 0.8"/>
      </g>
     </g>
     <g id="text_3">
      <!-- 200 -->
      <g transform="translate(17.0025 222.355032) scale(0.1 -0.1)">
       <defs>
        <path id="DejaVuSans-32" d="M 1228 531 
L 3431 531 
L 3431 0 
L 469 0 
L 469 531 
Q 828 903 1448 1529 
Q 2069 2156 2228 2338 
Q 2531 2678 2651 2914 
Q 2772 3150 2772 3378 
Q 2772 3750 2511 3984 
Q 2250 4219 1831 4219 
Q 1534 4219 1204 4116 
Q 875 4013 500 3803 
L 500 4441 
Q 881 4594 1212 4672 
Q 1544 4750 1819 4750 
Q 2544 4750 2975 4387 
Q 3406 4025 3406 3419 
Q 3406 3131 3298 2873 
Q 3191 2616 2906 2266 
Q 2828 2175 2409 1742 
Q 1991 1309 1228 531 
z
" transform="scale(0.015625)"/>
       </defs>
       <use xlink:href="#DejaVuSans-32"/>
       <use xlink:href="#DejaVuSans-30" x="63.623047"/>
       <use xlink:href="#DejaVuSans-30" x="127.246094"/>
      </g>
     </g>
    </g>
    <g id="ytick_3">
     <g id="line2d_4">
      <g>
       <use xlink:href="#mc5f99c126a" x="43.09" y="176.181626" style="stroke: #000000; stroke-width: 0.8"/>
      </g>
     </g>
     <g id="text_4">
      <!-- 400 -->
      <g transform="translate(17.0025 179.980845) scale(0.1 -0.1)">
       <defs>
        <path id="DejaVuSans-34" d="M 2419 4116 
L 825 1625 
L 2419 1625 
L 2419 4116 
z
M 2253 4666 
L 3047 4666 
L 3047 1625 
L 3713 1625 
L 3713 1100 
L 3047 1100 
L 3047 0 
L 2419 0 
L 2419 1100 
L 313 1100 
L 313 1709 
L 2253 4666 
z
" transform="scale(0.015625)"/>
       </defs>
       <use xlink:href="#DejaVuSans-34"/>
       <use xlink:href="#DejaVuSans-30" x="63.623047"/>
       <use xlink:href="#DejaVuSans-30" x="127.246094"/>
      </g>
     </g>
    </g>
    <g id="ytick_4">
     <g id="line2d_5">
      <g>
       <use xlink:href="#mc5f99c126a" x="43.09" y="133.807439" style="stroke: #000000; stroke-width: 0.8"/>
      </g>
     </g>
     <g id="text_5">
      <!-- 600 -->
      <g transform="translate(17.0025 137.606658) scale(0.1 -0.1)">
       <defs>
        <path id="DejaVuSans-36" d="M 2113 2584 
Q 1688 2584 1439 2293 
Q 1191 2003 1191 1497 
Q 1191 994 1439 701 
Q 1688 409 2113 409 
Q 2538 409 2786 701 
Q 3034 994 3034 1497 
Q 3034 2003 2786 2293 
Q 2538 2584 2113 2584 
z
M 3366 4563 
L 3366 3988 
Q 3128 4100 2886 4159 
Q 2644 4219 2406 4219 
Q 1781 4219 1451 3797 
Q 1122 3375 1075 2522 
Q 1259 2794 1537 2939 
Q 1816 3084 2150 3084 
Q 2853 3084 3261 2657 
Q 3669 2231 3669 1497 
Q 3669 778 3244 343 
Q 2819 -91 2113 -91 
Q 1303 -91 875 529 
Q 447 1150 447 2328 
Q 447 3434 972 4092 
Q 1497 4750 2381 4750 
Q 2619 4750 2861 4703 
Q 3103 4656 3366 4563 
z
" transform="scale(0.015625)"/>
       </defs>
       <use xlink:href="#DejaVuSans-36"/>
       <use xlink:href="#DejaVuSans-30" x="63.623047"/>
       <use xlink:href="#DejaVuSans-30" x="127.246094"/>
      </g>
     </g>
    </g>
    <g id="ytick_5">
     <g id="line2d_6">
      <g>
       <use xlink:href="#mc5f99c126a" x="43.09" y="91.433252" style="stroke: #000000; stroke-width: 0.8"/>
      </g>
     </g>
     <g id="text_6">
      <!-- 800 -->
      <g transform="translate(17.0025 95.232471) scale(0.1 -0.1)">
       <defs>
        <path id="DejaVuSans-38" d="M 2034 2216 
Q 1584 2216 1326 1975 
Q 1069 1734 1069 1313 
Q 1069 891 1326 650 
Q 1584 409 2034 409 
Q 2484 409 2743 651 
Q 3003 894 3003 1313 
Q 3003 1734 2745 1975 
Q 2488 2216 2034 2216 
z
M 1403 2484 
Q 997 2584 770 2862 
Q 544 3141 544 3541 
Q 544 4100 942 4425 
Q 1341 4750 2034 4750 
Q 2731 4750 3128 4425 
Q 3525 4100 3525 3541 
Q 3525 3141 3298 2862 
Q 3072 2584 2669 2484 
Q 3125 2378 3379 2068 
Q 3634 1759 3634 1313 
Q 3634 634 3220 271 
Q 2806 -91 2034 -91 
Q 1263 -91 848 271 
Q 434 634 434 1313 
Q 434 1759 690 2068 
Q 947 2378 1403 2484 
z
M 1172 3481 
Q 1172 3119 1398 2916 
Q 1625 2713 2034 2713 
Q 2441 2713 2670 2916 
Q 2900 3119 2900 3481 
Q 2900 3844 2670 4047 
Q 2441 4250 2034 4250 
Q 1625 4250 1398 4047 
Q 1172 3844 1172 3481 
z
" transform="scale(0.015625)"/>
       </defs>
       <use xlink:href="#DejaVuSans-38"/>
       <use xlink:href="#DejaVuSans-30" x="63.623047"/>
       <use xlink:href="#DejaVuSans-30" x="127.246094"/>
      </g>
     </g>
    </g>
    <g id="ytick_6">
     <g id="line2d_7">
      <g>
       <use xlink:href="#mc5f99c126a" x="43.09" y="49.059065" style="stroke: #000000; stroke-width: 0.8"/>
      </g>
     </g>
     <g id="text_7">
      <!-- 1000 -->
      <g transform="translate(10.64 52.858283) scale(0.1 -0.1)">
       <defs>
        <path id="DejaVuSans-31" d="M 794 531 
L 1825 531 
L 1825 4091 
L 703 3866 
L 703 4441 
L 1819 4666 
L 2450 4666 
L 2450 531 
L 3481 531 
L 3481 0 
L 794 0 
L 794 531 
z
" transform="scale(0.015625)"/>
       </defs>
       <use xlink:href="#DejaVuSans-31"/>
       <use xlink:href="#DejaVuSans-30" x="63.623047"/>
       <use xlink:href="#DejaVuSans-30" x="127.246094"/>
       <use xlink:href="#DejaVuSans-30" x="190.869141"/>
      </g>
     </g>
    </g>
   </g>
   <g id="patch_102">
    <path d="M 43.09 260.93 
L 43.09 10.8 
" style="fill: none; stroke: #000000; stroke-width: 0.8; stroke-linejoin: miter; stroke-linecap: square"/>
   </g>
   <g id="patch_103">
    <path d="M 450 260.93 
L 450 10.8 
" style="fill: none; stroke: #000000; stroke-width: 0.8; stroke-linejoin: miter; stroke-linecap: square"/>
   </g>
   <g id="patch_104">
    <path d="M 43.09 260.93 
L 450 260.93 
" style="fill: none; stroke: #000000; stroke-width: 0.8; stroke-linejoin: miter; stroke-linecap: square"/>
   </g>
   <g id="patch_105">
    <path d="M 43.09 10.8 
L 450 10.8 
" style="fill: none; stroke: #000000; stroke-width: 0.8; stroke-linejoin: miter; stroke-linecap: square"/>
   </g>
  </g>
 </g>
 <defs>
  <clipPath id="pe5b1872296">
   <rect x="43.09" y="10.8" width="406.91" height="250.13"/>
  </clipPath>
 </defs>
</svg>
