<?xml version="1.0" encoding="utf-8" standalone="no"?>
<!DOCTYPE svg PUBLIC "-//W3C//DTD SVG 1.1//EN"
  "http://www.w3.org/Graphics/SVG/1.1/DTD/svg11.dtd">
<svg xmlns:xlink="http://www.w3.org/1999/xlink" width="460.8pt" height="345.6pt" viewBox="0 0 460.8 345.6" xmlns="http://www.w3.org/2000/svg" version="1.1">
 <metadata>
  <rdf:RDF xmlns:dc="http://purl.org/dc/elements/1.1/" xmlns:cc="http://creativecommons.org/ns#" xmlns:rdf="http://www.w3.org/1999/02/22-rdf-syntax-ns#">
   <cc:Work>
    <dc:type rdf:resource="http://purl.org/dc/dcmitype/StillImage"/>
    <dc:date>2022-12-20T12:31:07.790197</dc:date>
    <dc:format>image/svg+xml</dc:format>
    <dc:creator>
     <cc:Agent>
      <dc:title>Matplotlib v3.6.0, https://matplotlib.org/</dc:title>
     </cc:Agent>
    </dc:creator>
   </cc:Work>
  </rdf:RDF>
 </metadata>
 <defs>
  <style type="text/css">*{stroke-linejoin: round; stroke-linecap: butt}</style>
 </defs>
 <g id="figure_1">
  <g id="patch_1">
   <path d="M 0 345.6 
L 460.8 345.6 
L 460.8 0 
L 0 0 
z
" style="fill: #ffffff"/>
  </g>
  <g id="axes_1">
   <g id="patch_2">
    <path d="M 43.09 221.51 
L 450 221.51 
L 450 10.8 
L 43.09 10.8 
z
" style="fill: #ffffff"/>
   </g>
   <g id="patch_3">
    <path d="M 63.4355 221.51 
L 104.1265 221.51 
L 104.1265 153.666382 
L 63.4355 153.666382 
z
" clip-path="url(#p58379bad8c)" style="fill: #1f77b4"/>
   </g>
   <g id="patch_4">
    <path d="M 144.8175 221.51 
L 185.5085 221.51 
L 185.5085 169.623134 
L 144.8175 169.623134 
z
" clip-path="url(#p58379bad8c)" style="fill: #1f77b4"/>
   </g>
   <g id="patch_5">
    <path d="M 226.1995 221.51 
L 266.8905 221.51 
L 266.8905 164.876214 
L 226.1995 164.876214 
z
" clip-path="url(#p58379bad8c)" style="fill: #1f77b4"/>
   </g>
   <g id="patch_6">
    <path d="M 307.5815 221.51 
L 348.2725 221.51 
L 348.2725 175.306321 
L 307.5815 175.306321 
z
" clip-path="url(#p58379bad8c)" style="fill: #1f77b4"/>
   </g>
   <g id="patch_7">
    <path d="M 388.9635 221.51 
L 429.6545 221.51 
L 429.6545 193.711928 
L 388.9635 193.711928 
z
" clip-path="url(#p58379bad8c)" style="fill: #1f77b4"/>
   </g>
   <g id="patch_8">
    <path d="M 63.4355 221.51 
L 104.1265 221.51 
L 104.1265 221.328981 
L 63.4355 221.328981 
z
" clip-path="url(#p58379bad8c)" style="fill: #1f77b4"/>
   </g>
   <g id="patch_9">
    <path d="M 144.8175 221.51 
L 185.5085 221.51 
L 185.5085 221.44966 
L 144.8175 221.44966 
z
" clip-path="url(#p58379bad8c)" style="fill: #1f77b4"/>
   </g>
   <g id="patch_10">
    <path d="M 226.1995 221.51 
L 266.8905 221.51 
L 266.8905 221.51 
L 226.1995 221.51 
z
" clip-path="url(#p58379bad8c)" style="fill: #1f77b4"/>
   </g>
   <g id="patch_11">
    <path d="M 63.4355 221.51 
L 104.1265 221.51 
L 104.1265 221.489887 
L 63.4355 221.489887 
z
" clip-path="url(#p58379bad8c)" style="fill: #1f77b4"/>
   </g>
   <g id="patch_12">
    <path d="M 144.8175 221.51 
L 185.5085 221.51 
L 185.5085 221.489887 
L 144.8175 221.489887 
z
" clip-path="url(#p58379bad8c)" style="fill: #1f77b4"/>
   </g>
   <g id="patch_13">
    <path d="M 226.1995 221.51 
L 266.8905 221.51 
L 266.8905 221.489887 
L 226.1995 221.489887 
z
" clip-path="url(#p58379bad8c)" style="fill: #1f77b4"/>
   </g>
   <g id="patch_14">
    <path d="M 307.5815 221.51 
L 348.2725 221.51 
L 348.2725 221.44966 
L 307.5815 221.44966 
z
" clip-path="url(#p58379bad8c)" style="fill: #1f77b4"/>
   </g>
   <g id="patch_15">
    <path d="M 388.9635 221.51 
L 429.6545 221.51 
L 429.6545 221.51 
L 388.9635 221.51 
z
" clip-path="url(#p58379bad8c)" style="fill: #1f77b4"/>
   </g>
   <g id="patch_16">
    <path d="M 63.4355 221.51 
L 104.1265 221.51 
L 104.1265 210.166117 
L 63.4355 210.166117 
z
" clip-path="url(#p58379bad8c)" style="fill: #1f77b4"/>
   </g>
   <g id="patch_17">
    <path d="M 144.8175 221.51 
L 185.5085 221.51 
L 185.5085 218.31199 
L 144.8175 218.31199 
z
" clip-path="url(#p58379bad8c)" style="fill: #1f77b4"/>
   </g>
   <g id="patch_18">
    <path d="M 226.1995 221.51 
L 266.8905 221.51 
L 266.8905 218.885219 
L 226.1995 218.885219 
z
" clip-path="url(#p58379bad8c)" style="fill: #1f77b4"/>
   </g>
   <g id="patch_19">
    <path d="M 307.5815 221.51 
L 348.2725 221.51 
L 348.2725 210.467816 
L 307.5815 210.467816 
z
" clip-path="url(#p58379bad8c)" style="fill: #1f77b4"/>
   </g>
   <g id="patch_20">
    <path d="M 388.9635 221.51 
L 429.6545 221.51 
L 429.6545 220.092015 
L 388.9635 220.092015 
z
" clip-path="url(#p58379bad8c)" style="fill: #1f77b4"/>
   </g>
   <g id="patch_21">
    <path d="M 63.4355 221.51 
L 104.1265 221.51 
L 104.1265 221.44966 
L 63.4355 221.44966 
z
" clip-path="url(#p58379bad8c)" style="fill: #1f77b4"/>
   </g>
   <g id="patch_22">
    <path d="M 144.8175 221.51 
L 185.5085 221.51 
L 185.5085 221.51 
L 144.8175 221.51 
z
" clip-path="url(#p58379bad8c)" style="fill: #1f77b4"/>
   </g>
   <g id="patch_23">
    <path d="M 226.1995 221.51 
L 266.8905 221.51 
L 266.8905 221.51 
L 226.1995 221.51 
z
" clip-path="url(#p58379bad8c)" style="fill: #1f77b4"/>
   </g>
   <g id="patch_24">
    <path d="M 307.5815 221.51 
L 348.2725 221.51 
L 348.2725 221.51 
L 307.5815 221.51 
z
" clip-path="url(#p58379bad8c)" style="fill: #1f77b4"/>
   </g>
   <g id="patch_25">
    <path d="M 63.4355 221.51 
L 104.1265 221.51 
L 104.1265 219.880825 
L 63.4355 219.880825 
z
" clip-path="url(#p58379bad8c)" style="fill: #1f77b4"/>
   </g>
   <g id="patch_26">
    <path d="M 144.8175 221.51 
L 185.5085 221.51 
L 185.5085 221.328981 
L 144.8175 221.328981 
z
" clip-path="url(#p58379bad8c)" style="fill: #1f77b4"/>
   </g>
   <g id="patch_27">
    <path d="M 226.1995 221.51 
L 266.8905 221.51 
L 266.8905 221.44966 
L 226.1995 221.44966 
z
" clip-path="url(#p58379bad8c)" style="fill: #1f77b4"/>
   </g>
   <g id="patch_28">
    <path d="M 307.5815 221.51 
L 348.2725 221.51 
L 348.2725 221.44966 
L 307.5815 221.44966 
z
" clip-path="url(#p58379bad8c)" style="fill: #1f77b4"/>
   </g>
   <g id="patch_29">
    <path d="M 388.9635 221.51 
L 429.6545 221.51 
L 429.6545 221.087621 
L 388.9635 221.087621 
z
" clip-path="url(#p58379bad8c)" style="fill: #1f77b4"/>
   </g>
   <g id="patch_30">
    <path d="M 63.4355 221.51 
L 104.1265 221.51 
L 104.1265 221.38932 
L 63.4355 221.38932 
z
" clip-path="url(#p58379bad8c)" style="fill: #1f77b4"/>
   </g>
   <g id="patch_31">
    <path d="M 144.8175 221.51 
L 185.5085 221.51 
L 185.5085 221.38932 
L 144.8175 221.38932 
z
" clip-path="url(#p58379bad8c)" style="fill: #1f77b4"/>
   </g>
   <g id="patch_32">
    <path d="M 226.1995 221.51 
L 266.8905 221.51 
L 266.8905 221.38932 
L 226.1995 221.38932 
z
" clip-path="url(#p58379bad8c)" style="fill: #1f77b4"/>
   </g>
   <g id="patch_33">
    <path d="M 307.5815 221.51 
L 348.2725 221.51 
L 348.2725 221.38932 
L 307.5815 221.38932 
z
" clip-path="url(#p58379bad8c)" style="fill: #1f77b4"/>
   </g>
   <g id="patch_34">
    <path d="M 388.9635 221.51 
L 429.6545 221.51 
L 429.6545 221.38932 
L 388.9635 221.38932 
z
" clip-path="url(#p58379bad8c)" style="fill: #1f77b4"/>
   </g>
   <g id="patch_35">
    <path d="M 63.4355 221.51 
L 104.1265 221.51 
L 104.1265 221.328981 
L 63.4355 221.328981 
z
" clip-path="url(#p58379bad8c)" style="fill: #1f77b4"/>
   </g>
   <g id="patch_36">
    <path d="M 144.8175 221.51 
L 185.5085 221.51 
L 185.5085 221.35915 
L 144.8175 221.35915 
z
" clip-path="url(#p58379bad8c)" style="fill: #1f77b4"/>
   </g>
   <g id="patch_37">
    <path d="M 226.1995 221.51 
L 266.8905 221.51 
L 266.8905 221.44966 
L 226.1995 221.44966 
z
" clip-path="url(#p58379bad8c)" style="fill: #1f77b4"/>
   </g>
   <g id="patch_38">
    <path d="M 307.5815 221.51 
L 348.2725 221.51 
L 348.2725 221.47983 
L 307.5815 221.47983 
z
" clip-path="url(#p58379bad8c)" style="fill: #1f77b4"/>
   </g>
   <g id="patch_39">
    <path d="M 388.9635 221.51 
L 429.6545 221.51 
L 429.6545 221.47983 
L 388.9635 221.47983 
z
" clip-path="url(#p58379bad8c)" style="fill: #1f77b4"/>
   </g>
   <g id="patch_40">
    <path d="M 63.4355 221.51 
L 104.1265 221.51 
L 104.1265 221.328981 
L 63.4355 221.328981 
z
" clip-path="url(#p58379bad8c)" style="fill: #1f77b4"/>
   </g>
   <g id="patch_41">
    <path d="M 144.8175 221.51 
L 185.5085 221.51 
L 185.5085 221.51 
L 144.8175 221.51 
z
" clip-path="url(#p58379bad8c)" style="fill: #1f77b4"/>
   </g>
   <g id="patch_42">
    <path d="M 226.1995 221.51 
L 266.8905 221.51 
L 266.8905 221.51 
L 226.1995 221.51 
z
" clip-path="url(#p58379bad8c)" style="fill: #1f77b4"/>
   </g>
   <g id="patch_43">
    <path d="M 63.4355 221.51 
L 104.1265 221.51 
L 104.1265 221.328981 
L 63.4355 221.328981 
z
" clip-path="url(#p58379bad8c)" style="fill: #1f77b4"/>
   </g>
   <g id="patch_44">
    <path d="M 144.8175 221.51 
L 185.5085 221.51 
L 185.5085 221.44966 
L 144.8175 221.44966 
z
" clip-path="url(#p58379bad8c)" style="fill: #1f77b4"/>
   </g>
   <g id="patch_45">
    <path d="M 63.4355 221.51 
L 104.1265 221.51 
L 104.1265 154.978181 
L 63.4355 154.978181 
z
" clip-path="url(#p58379bad8c)" style="fill: #1f77b4"/>
   </g>
   <g id="patch_46">
    <path d="M 144.8175 221.51 
L 185.5085 221.51 
L 185.5085 173.704429 
L 144.8175 173.704429 
z
" clip-path="url(#p58379bad8c)" style="fill: #1f77b4"/>
   </g>
   <g id="patch_47">
    <path d="M 226.1995 221.51 
L 266.8905 221.51 
L 266.8905 179.959037 
L 226.1995 179.959037 
z
" clip-path="url(#p58379bad8c)" style="fill: #1f77b4"/>
   </g>
   <g id="patch_48">
    <path d="M 307.5815 221.51 
L 348.2725 221.51 
L 348.2725 173.870476 
L 307.5815 173.870476 
z
" clip-path="url(#p58379bad8c)" style="fill: #1f77b4"/>
   </g>
   <g id="patch_49">
    <path d="M 388.9635 221.51 
L 429.6545 221.51 
L 429.6545 186.471603 
L 388.9635 186.471603 
z
" clip-path="url(#p58379bad8c)" style="fill: #1f77b4"/>
   </g>
   <g id="patch_50">
    <path d="M 63.4355 221.51 
L 104.1265 221.51 
L 104.1265 221.51 
L 63.4355 221.51 
z
" clip-path="url(#p58379bad8c)" style="fill: #1f77b4"/>
   </g>
   <g id="patch_51">
    <path d="M 144.8175 221.51 
L 185.5085 221.51 
L 185.5085 221.51 
L 144.8175 221.51 
z
" clip-path="url(#p58379bad8c)" style="fill: #1f77b4"/>
   </g>
   <g id="patch_52">
    <path d="M 226.1995 221.51 
L 266.8905 221.51 
L 266.8905 221.51 
L 226.1995 221.51 
z
" clip-path="url(#p58379bad8c)" style="fill: #1f77b4"/>
   </g>
   <g id="patch_53">
    <path d="M 307.5815 221.51 
L 348.2725 221.51 
L 348.2725 221.51 
L 307.5815 221.51 
z
" clip-path="url(#p58379bad8c)" style="fill: #1f77b4"/>
   </g>
   <g id="patch_54">
    <path d="M 388.9635 221.51 
L 429.6545 221.51 
L 429.6545 221.51 
L 388.9635 221.51 
z
" clip-path="url(#p58379bad8c)" style="fill: #1f77b4"/>
   </g>
   <g id="patch_55">
    <path d="M 63.4355 221.51 
L 104.1265 221.51 
L 104.1265 221.44966 
L 63.4355 221.44966 
z
" clip-path="url(#p58379bad8c)" style="fill: #1f77b4"/>
   </g>
   <g id="patch_56">
    <path d="M 144.8175 221.51 
L 185.5085 221.51 
L 185.5085 221.51 
L 144.8175 221.51 
z
" clip-path="url(#p58379bad8c)" style="fill: #1f77b4"/>
   </g>
   <g id="patch_57">
    <path d="M 226.1995 221.51 
L 266.8905 221.51 
L 266.8905 221.51 
L 226.1995 221.51 
z
" clip-path="url(#p58379bad8c)" style="fill: #1f77b4"/>
   </g>
   <g id="patch_58">
    <path d="M 307.5815 221.51 
L 348.2725 221.51 
L 348.2725 221.51 
L 307.5815 221.51 
z
" clip-path="url(#p58379bad8c)" style="fill: #1f77b4"/>
   </g>
   <g id="patch_59">
    <path d="M 388.9635 221.51 
L 429.6545 221.51 
L 429.6545 221.51 
L 388.9635 221.51 
z
" clip-path="url(#p58379bad8c)" style="fill: #1f77b4"/>
   </g>
   <g id="patch_60">
    <path d="M 63.4355 221.51 
L 104.1265 221.51 
L 104.1265 221.178131 
L 63.4355 221.178131 
z
" clip-path="url(#p58379bad8c)" style="fill: #1f77b4"/>
   </g>
   <g id="patch_61">
    <path d="M 144.8175 221.51 
L 185.5085 221.51 
L 185.5085 221.328981 
L 144.8175 221.328981 
z
" clip-path="url(#p58379bad8c)" style="fill: #1f77b4"/>
   </g>
   <g id="patch_62">
    <path d="M 226.1995 221.51 
L 266.8905 221.51 
L 266.8905 221.47983 
L 226.1995 221.47983 
z
" clip-path="url(#p58379bad8c)" style="fill: #1f77b4"/>
   </g>
   <g id="patch_63">
    <path d="M 307.5815 221.51 
L 348.2725 221.51 
L 348.2725 221.51 
L 307.5815 221.51 
z
" clip-path="url(#p58379bad8c)" style="fill: #1f77b4"/>
   </g>
   <g id="patch_64">
    <path d="M 388.9635 221.51 
L 429.6545 221.51 
L 429.6545 221.51 
L 388.9635 221.51 
z
" clip-path="url(#p58379bad8c)" style="fill: #1f77b4"/>
   </g>
   <g id="patch_65">
    <path d="M 63.4355 221.51 
L 104.1265 221.51 
L 104.1265 214.842452 
L 63.4355 214.842452 
z
" clip-path="url(#p58379bad8c)" style="fill: #1f77b4"/>
   </g>
   <g id="patch_66">
    <path d="M 144.8175 221.51 
L 185.5085 221.51 
L 185.5085 220.906602 
L 144.8175 220.906602 
z
" clip-path="url(#p58379bad8c)" style="fill: #1f77b4"/>
   </g>
   <g id="patch_67">
    <path d="M 226.1995 221.51 
L 266.8905 221.51 
L 266.8905 217.869498 
L 226.1995 217.869498 
z
" clip-path="url(#p58379bad8c)" style="fill: #1f77b4"/>
   </g>
   <g id="patch_68">
    <path d="M 307.5815 221.51 
L 348.2725 221.51 
L 348.2725 216.924175 
L 307.5815 216.924175 
z
" clip-path="url(#p58379bad8c)" style="fill: #1f77b4"/>
   </g>
   <g id="patch_69">
    <path d="M 388.9635 221.51 
L 429.6545 221.51 
L 429.6545 217.799102 
L 388.9635 217.799102 
z
" clip-path="url(#p58379bad8c)" style="fill: #1f77b4"/>
   </g>
   <g id="patch_70">
    <path d="M 63.4355 221.51 
L 104.1265 221.51 
L 104.1265 201.429542 
L 63.4355 201.429542 
z
" clip-path="url(#p58379bad8c)" style="fill: #1f77b4"/>
   </g>
   <g id="patch_71">
    <path d="M 144.8175 221.51 
L 185.5085 221.51 
L 185.5085 204.311104 
L 144.8175 204.311104 
z
" clip-path="url(#p58379bad8c)" style="fill: #1f77b4"/>
   </g>
   <g id="patch_72">
    <path d="M 226.1995 221.51 
L 266.8905 221.51 
L 266.8905 179.742224 
L 226.1995 179.742224 
z
" clip-path="url(#p58379bad8c)" style="fill: #1f77b4"/>
   </g>
   <g id="patch_73">
    <path d="M 307.5815 221.51 
L 348.2725 221.51 
L 348.2725 196.323162 
L 307.5815 196.323162 
z
" clip-path="url(#p58379bad8c)" style="fill: #1f77b4"/>
   </g>
   <g id="patch_74">
    <path d="M 388.9635 221.51 
L 429.6545 221.51 
L 429.6545 179.467224 
L 388.9635 179.467224 
z
" clip-path="url(#p58379bad8c)" style="fill: #1f77b4"/>
   </g>
   <g id="patch_75">
    <path d="M 63.4355 221.51 
L 104.1265 221.51 
L 104.1265 221.51 
L 63.4355 221.51 
z
" clip-path="url(#p58379bad8c)" style="fill: #1f77b4"/>
   </g>
   <g id="patch_76">
    <path d="M 144.8175 221.51 
L 185.5085 221.51 
L 185.5085 221.51 
L 144.8175 221.51 
z
" clip-path="url(#p58379bad8c)" style="fill: #1f77b4"/>
   </g>
   <g id="patch_77">
    <path d="M 63.4355 221.51 
L 104.1265 221.51 
L 104.1265 220.755752 
L 63.4355 220.755752 
z
" clip-path="url(#p58379bad8c)" style="fill: #1f77b4"/>
   </g>
   <g id="patch_78">
    <path d="M 144.8175 221.51 
L 185.5085 221.51 
L 185.5085 220.906602 
L 144.8175 220.906602 
z
" clip-path="url(#p58379bad8c)" style="fill: #1f77b4"/>
   </g>
   <g id="patch_79">
    <path d="M 226.1995 221.51 
L 266.8905 221.51 
L 266.8905 221.147961 
L 226.1995 221.147961 
z
" clip-path="url(#p58379bad8c)" style="fill: #1f77b4"/>
   </g>
   <g id="patch_80">
    <path d="M 307.5815 221.51 
L 348.2725 221.51 
L 348.2725 221.44966 
L 307.5815 221.44966 
z
" clip-path="url(#p58379bad8c)" style="fill: #1f77b4"/>
   </g>
   <g id="patch_81">
    <path d="M 388.9635 221.51 
L 429.6545 221.51 
L 429.6545 221.38932 
L 388.9635 221.38932 
z
" clip-path="url(#p58379bad8c)" style="fill: #1f77b4"/>
   </g>
   <g id="patch_82">
    <path d="M 63.4355 221.51 
L 104.1265 221.51 
L 104.1265 221.328981 
L 63.4355 221.328981 
z
" clip-path="url(#p58379bad8c)" style="fill: #1f77b4"/>
   </g>
   <g id="patch_83">
    <path d="M 144.8175 221.51 
L 185.5085 221.51 
L 185.5085 221.328981 
L 144.8175 221.328981 
z
" clip-path="url(#p58379bad8c)" style="fill: #1f77b4"/>
   </g>
   <g id="patch_84">
    <path d="M 226.1995 221.51 
L 266.8905 221.51 
L 266.8905 221.44966 
L 226.1995 221.44966 
z
" clip-path="url(#p58379bad8c)" style="fill: #1f77b4"/>
   </g>
   <g id="patch_85">
    <path d="M 307.5815 221.51 
L 348.2725 221.51 
L 348.2725 221.51 
L 307.5815 221.51 
z
" clip-path="url(#p58379bad8c)" style="fill: #1f77b4"/>
   </g>
   <g id="patch_86">
    <path d="M 388.9635 221.51 
L 429.6545 221.51 
L 429.6545 221.51 
L 388.9635 221.51 
z
" clip-path="url(#p58379bad8c)" style="fill: #1f77b4"/>
   </g>
   <g id="patch_87">
    <path d="M 63.4355 221.51 
L 104.1265 221.51 
L 104.1265 220.242864 
L 63.4355 220.242864 
z
" clip-path="url(#p58379bad8c)" style="fill: #1f77b4"/>
   </g>
   <g id="patch_88">
    <path d="M 144.8175 221.51 
L 185.5085 221.51 
L 185.5085 221.47983 
L 144.8175 221.47983 
z
" clip-path="url(#p58379bad8c)" style="fill: #1f77b4"/>
   </g>
   <g id="patch_89">
    <path d="M 226.1995 221.51 
L 266.8905 221.51 
L 266.8905 221.47983 
L 226.1995 221.47983 
z
" clip-path="url(#p58379bad8c)" style="fill: #1f77b4"/>
   </g>
   <g id="patch_90">
    <path d="M 307.5815 221.51 
L 348.2725 221.51 
L 348.2725 221.47983 
L 307.5815 221.47983 
z
" clip-path="url(#p58379bad8c)" style="fill: #1f77b4"/>
   </g>
   <g id="patch_91">
    <path d="M 388.9635 221.51 
L 429.6545 221.51 
L 429.6545 221.47983 
L 388.9635 221.47983 
z
" clip-path="url(#p58379bad8c)" style="fill: #1f77b4"/>
   </g>
   <g id="patch_92">
    <path d="M 63.4355 221.51 
L 104.1265 221.51 
L 104.1265 221.51 
L 63.4355 221.51 
z
" clip-path="url(#p58379bad8c)" style="fill: #1f77b4"/>
   </g>
   <g id="patch_93">
    <path d="M 63.4355 221.51 
L 104.1265 221.51 
L 104.1265 221.208301 
L 63.4355 221.208301 
z
" clip-path="url(#p58379bad8c)" style="fill: #1f77b4"/>
   </g>
   <g id="patch_94">
    <path d="M 144.8175 221.51 
L 185.5085 221.51 
L 185.5085 221.208301 
L 144.8175 221.208301 
z
" clip-path="url(#p58379bad8c)" style="fill: #1f77b4"/>
   </g>
   <g id="patch_95">
    <path d="M 226.1995 221.51 
L 266.8905 221.51 
L 266.8905 221.44966 
L 226.1995 221.44966 
z
" clip-path="url(#p58379bad8c)" style="fill: #1f77b4"/>
   </g>
   <g id="patch_96">
    <path d="M 63.4355 221.51 
L 104.1265 221.51 
L 104.1265 220.242864 
L 63.4355 220.242864 
z
" clip-path="url(#p58379bad8c)" style="fill: #1f77b4"/>
   </g>
   <g id="patch_97">
    <path d="M 144.8175 221.51 
L 185.5085 221.51 
L 185.5085 221.44966 
L 144.8175 221.44966 
z
" clip-path="url(#p58379bad8c)" style="fill: #1f77b4"/>
   </g>
   <g id="patch_98">
    <path d="M 226.1995 221.51 
L 266.8905 221.51 
L 266.8905 221.44966 
L 226.1995 221.44966 
z
" clip-path="url(#p58379bad8c)" style="fill: #1f77b4"/>
   </g>
   <g id="patch_99">
    <path d="M 307.5815 221.51 
L 348.2725 221.51 
L 348.2725 221.51 
L 307.5815 221.51 
z
" clip-path="url(#p58379bad8c)" style="fill: #1f77b4"/>
   </g>
   <g id="patch_100">
    <path d="M 388.9635 221.51 
L 429.6545 221.51 
L 429.6545 221.51 
L 388.9635 221.51 
z
" clip-path="url(#p58379bad8c)" style="fill: #1f77b4"/>
   </g>
   <g id="patch_101">
    <path d="M 63.4355 221.51 
L 104.1265 221.51 
L 104.1265 221.51 
L 63.4355 221.51 
z
" clip-path="url(#p58379bad8c)" style="fill: #1f77b4"/>
   </g>
   <g id="patch_102">
    <path d="M 63.4355 221.51 
L 104.1265 221.51 
L 104.1265 153.299484 
L 63.4355 153.299484 
z
" clip-path="url(#p58379bad8c)" style="fill: #1f77b4"/>
   </g>
   <g id="patch_103">
    <path d="M 144.8175 221.51 
L 185.5085 221.51 
L 185.5085 168.308129 
L 144.8175 168.308129 
z
" clip-path="url(#p58379bad8c)" style="fill: #1f77b4"/>
   </g>
   <g id="patch_104">
    <path d="M 226.1995 221.51 
L 266.8905 221.51 
L 266.8905 178.458538 
L 226.1995 178.458538 
z
" clip-path="url(#p58379bad8c)" style="fill: #1f77b4"/>
   </g>
   <g id="patch_105">
    <path d="M 307.5815 221.51 
L 348.2725 221.51 
L 348.2725 186.28117 
L 307.5815 186.28117 
z
" clip-path="url(#p58379bad8c)" style="fill: #1f77b4"/>
   </g>
   <g id="patch_106">
    <path d="M 388.9635 221.51 
L 429.6545 221.51 
L 429.6545 191.861171 
L 388.9635 191.861171 
z
" clip-path="url(#p58379bad8c)" style="fill: #1f77b4"/>
   </g>
   <g id="patch_107">
    <path d="M 63.4355 221.51 
L 104.1265 221.51 
L 104.1265 221.208301 
L 63.4355 221.208301 
z
" clip-path="url(#p58379bad8c)" style="fill: #1f77b4"/>
   </g>
   <g id="patch_108">
    <path d="M 144.8175 221.51 
L 185.5085 221.51 
L 185.5085 221.208301 
L 144.8175 221.208301 
z
" clip-path="url(#p58379bad8c)" style="fill: #1f77b4"/>
   </g>
   <g id="patch_109">
    <path d="M 226.1995 221.51 
L 266.8905 221.51 
L 266.8905 221.208301 
L 226.1995 221.208301 
z
" clip-path="url(#p58379bad8c)" style="fill: #1f77b4"/>
   </g>
   <g id="patch_110">
    <path d="M 307.5815 221.51 
L 348.2725 221.51 
L 348.2725 221.47983 
L 307.5815 221.47983 
z
" clip-path="url(#p58379bad8c)" style="fill: #1f77b4"/>
   </g>
   <g id="patch_111">
    <path d="M 388.9635 221.51 
L 429.6545 221.51 
L 429.6545 221.47983 
L 388.9635 221.47983 
z
" clip-path="url(#p58379bad8c)" style="fill: #1f77b4"/>
   </g>
   <g id="patch_112">
    <path d="M 63.4355 221.51 
L 104.1265 221.51 
L 104.1265 185.882527 
L 63.4355 185.882527 
z
" clip-path="url(#p58379bad8c)" style="fill: #1f77b4"/>
   </g>
   <g id="patch_113">
    <path d="M 144.8175 221.51 
L 185.5085 221.51 
L 185.5085 185.95198 
L 144.8175 185.95198 
z
" clip-path="url(#p58379bad8c)" style="fill: #1f77b4"/>
   </g>
   <g id="patch_114">
    <path d="M 226.1995 221.51 
L 266.8905 221.51 
L 266.8905 198.100793 
L 226.1995 198.100793 
z
" clip-path="url(#p58379bad8c)" style="fill: #1f77b4"/>
   </g>
   <g id="patch_115">
    <path d="M 307.5815 221.51 
L 348.2725 221.51 
L 348.2725 197.048202 
L 307.5815 197.048202 
z
" clip-path="url(#p58379bad8c)" style="fill: #1f77b4"/>
   </g>
   <g id="patch_116">
    <path d="M 388.9635 221.51 
L 429.6545 221.51 
L 429.6545 185.627221 
L 388.9635 185.627221 
z
" clip-path="url(#p58379bad8c)" style="fill: #1f77b4"/>
   </g>
   <g id="patch_117">
    <path d="M 63.4355 221.51 
L 104.1265 221.51 
L 104.1265 221.147961 
L 63.4355 221.147961 
z
" clip-path="url(#p58379bad8c)" style="fill: #1f77b4"/>
   </g>
   <g id="patch_118">
    <path d="M 144.8175 221.51 
L 185.5085 221.51 
L 185.5085 221.208301 
L 144.8175 221.208301 
z
" clip-path="url(#p58379bad8c)" style="fill: #1f77b4"/>
   </g>
   <g id="patch_119">
    <path d="M 226.1995 221.51 
L 266.8905 221.51 
L 266.8905 221.328981 
L 226.1995 221.328981 
z
" clip-path="url(#p58379bad8c)" style="fill: #1f77b4"/>
   </g>
   <g id="patch_120">
    <path d="M 307.5815 221.51 
L 348.2725 221.51 
L 348.2725 221.38932 
L 307.5815 221.38932 
z
" clip-path="url(#p58379bad8c)" style="fill: #1f77b4"/>
   </g>
   <g id="patch_121">
    <path d="M 388.9635 221.51 
L 429.6545 221.51 
L 429.6545 221.47983 
L 388.9635 221.47983 
z
" clip-path="url(#p58379bad8c)" style="fill: #1f77b4"/>
   </g>
   <g id="patch_122">
    <path d="M 63.4355 221.51 
L 104.1265 221.51 
L 104.1265 221.328981 
L 63.4355 221.328981 
z
" clip-path="url(#p58379bad8c)" style="fill: #1f77b4"/>
   </g>
   <g id="patch_123">
    <path d="M 144.8175 221.51 
L 185.5085 221.51 
L 185.5085 221.47983 
L 144.8175 221.47983 
z
" clip-path="url(#p58379bad8c)" style="fill: #1f77b4"/>
   </g>
   <g id="patch_124">
    <path d="M 226.1995 221.51 
L 266.8905 221.51 
L 266.8905 221.47983 
L 226.1995 221.47983 
z
" clip-path="url(#p58379bad8c)" style="fill: #1f77b4"/>
   </g>
   <g id="patch_125">
    <path d="M 307.5815 221.51 
L 348.2725 221.51 
L 348.2725 221.44966 
L 307.5815 221.44966 
z
" clip-path="url(#p58379bad8c)" style="fill: #1f77b4"/>
   </g>
   <g id="patch_126">
    <path d="M 388.9635 221.51 
L 429.6545 221.51 
L 429.6545 221.51 
L 388.9635 221.51 
z
" clip-path="url(#p58379bad8c)" style="fill: #1f77b4"/>
   </g>
   <g id="patch_127">
    <path d="M 63.4355 221.51 
L 104.1265 221.51 
L 104.1265 221.328981 
L 63.4355 221.328981 
z
" clip-path="url(#p58379bad8c)" style="fill: #1f77b4"/>
   </g>
   <g id="patch_128">
    <path d="M 144.8175 221.51 
L 185.5085 221.51 
L 185.5085 221.44966 
L 144.8175 221.44966 
z
" clip-path="url(#p58379bad8c)" style="fill: #1f77b4"/>
   </g>
   <g id="patch_129">
    <path d="M 226.1995 221.51 
L 266.8905 221.51 
L 266.8905 221.51 
L 226.1995 221.51 
z
" clip-path="url(#p58379bad8c)" style="fill: #1f77b4"/>
   </g>
   <g id="patch_130">
    <path d="M 307.5815 221.51 
L 348.2725 221.51 
L 348.2725 221.51 
L 307.5815 221.51 
z
" clip-path="url(#p58379bad8c)" style="fill: #1f77b4"/>
   </g>
   <g id="patch_131">
    <path d="M 388.9635 221.51 
L 429.6545 221.51 
L 429.6545 221.51 
L 388.9635 221.51 
z
" clip-path="url(#p58379bad8c)" style="fill: #1f77b4"/>
   </g>
   <g id="patch_132">
    <path d="M 63.4355 221.51 
L 104.1265 221.51 
L 104.1265 219.918035 
L 63.4355 219.918035 
z
" clip-path="url(#p58379bad8c)" style="fill: #1f77b4"/>
   </g>
   <g id="patch_133">
    <path d="M 144.8175 221.51 
L 185.5085 221.51 
L 185.5085 221.147961 
L 144.8175 221.147961 
z
" clip-path="url(#p58379bad8c)" style="fill: #1f77b4"/>
   </g>
   <g id="patch_134">
    <path d="M 226.1995 221.51 
L 266.8905 221.51 
L 266.8905 220.651163 
L 226.1995 220.651163 
z
" clip-path="url(#p58379bad8c)" style="fill: #1f77b4"/>
   </g>
   <g id="patch_135">
    <path d="M 307.5815 221.51 
L 348.2725 221.51 
L 348.2725 220.651163 
L 307.5815 220.651163 
z
" clip-path="url(#p58379bad8c)" style="fill: #1f77b4"/>
   </g>
   <g id="patch_136">
    <path d="M 388.9635 221.51 
L 429.6545 221.51 
L 429.6545 220.651163 
L 388.9635 220.651163 
z
" clip-path="url(#p58379bad8c)" style="fill: #1f77b4"/>
   </g>
   <g id="patch_137">
    <path d="M 63.4355 221.51 
L 104.1265 221.51 
L 104.1265 209.200345 
L 63.4355 209.200345 
z
" clip-path="url(#p58379bad8c)" style="fill: #1f77b4"/>
   </g>
   <g id="patch_138">
    <path d="M 144.8175 221.51 
L 185.5085 221.51 
L 185.5085 211.5127 
L 144.8175 211.5127 
z
" clip-path="url(#p58379bad8c)" style="fill: #1f77b4"/>
   </g>
   <g id="patch_139">
    <path d="M 226.1995 221.51 
L 266.8905 221.51 
L 266.8905 219.810429 
L 226.1995 219.810429 
z
" clip-path="url(#p58379bad8c)" style="fill: #1f77b4"/>
   </g>
   <g id="patch_140">
    <path d="M 307.5815 221.51 
L 348.2725 221.51 
L 348.2725 221.283726 
L 307.5815 221.283726 
z
" clip-path="url(#p58379bad8c)" style="fill: #1f77b4"/>
   </g>
   <g id="patch_141">
    <path d="M 388.9635 221.51 
L 429.6545 221.51 
L 429.6545 221.283726 
L 388.9635 221.283726 
z
" clip-path="url(#p58379bad8c)" style="fill: #1f77b4"/>
   </g>
   <g id="patch_142">
    <path d="M 63.4355 221.51 
L 104.1265 221.51 
L 104.1265 220.167439 
L 63.4355 220.167439 
z
" clip-path="url(#p58379bad8c)" style="fill: #1f77b4"/>
   </g>
   <g id="patch_143">
    <path d="M 144.8175 221.51 
L 185.5085 221.51 
L 185.5085 220.635073 
L 144.8175 220.635073 
z
" clip-path="url(#p58379bad8c)" style="fill: #1f77b4"/>
   </g>
   <g id="patch_144">
    <path d="M 226.1995 221.51 
L 266.8905 221.51 
L 266.8905 221.328981 
L 226.1995 221.328981 
z
" clip-path="url(#p58379bad8c)" style="fill: #1f77b4"/>
   </g>
   <g id="patch_145">
    <path d="M 307.5815 221.51 
L 348.2725 221.51 
L 348.2725 221.377252 
L 307.5815 221.377252 
z
" clip-path="url(#p58379bad8c)" style="fill: #1f77b4"/>
   </g>
   <g id="patch_146">
    <path d="M 388.9635 221.51 
L 429.6545 221.51 
L 429.6545 221.208301 
L 388.9635 221.208301 
z
" clip-path="url(#p58379bad8c)" style="fill: #1f77b4"/>
   </g>
   <g id="patch_147">
    <path d="M 63.4355 221.51 
L 104.1265 221.51 
L 104.1265 221.382616 
L 63.4355 221.382616 
z
" clip-path="url(#p58379bad8c)" style="fill: #1f77b4"/>
   </g>
   <g id="patch_148">
    <path d="M 144.8175 221.51 
L 185.5085 221.51 
L 185.5085 221.47983 
L 144.8175 221.47983 
z
" clip-path="url(#p58379bad8c)" style="fill: #1f77b4"/>
   </g>
   <g id="patch_149">
    <path d="M 226.1995 221.51 
L 266.8905 221.51 
L 266.8905 221.47983 
L 226.1995 221.47983 
z
" clip-path="url(#p58379bad8c)" style="fill: #1f77b4"/>
   </g>
   <g id="patch_150">
    <path d="M 307.5815 221.51 
L 348.2725 221.51 
L 348.2725 221.503296 
L 307.5815 221.503296 
z
" clip-path="url(#p58379bad8c)" style="fill: #1f77b4"/>
   </g>
   <g id="patch_151">
    <path d="M 388.9635 221.51 
L 429.6545 221.51 
L 429.6545 221.503296 
L 388.9635 221.503296 
z
" clip-path="url(#p58379bad8c)" style="fill: #1f77b4"/>
   </g>
   <g id="patch_152">
    <path d="M 63.4355 221.51 
L 104.1265 221.51 
L 104.1265 221.248528 
L 63.4355 221.248528 
z
" clip-path="url(#p58379bad8c)" style="fill: #1f77b4"/>
   </g>
   <g id="patch_153">
    <path d="M 144.8175 221.51 
L 185.5085 221.51 
L 185.5085 221.369207 
L 144.8175 221.369207 
z
" clip-path="url(#p58379bad8c)" style="fill: #1f77b4"/>
   </g>
   <g id="patch_154">
    <path d="M 226.1995 221.51 
L 266.8905 221.51 
L 266.8905 221.328981 
L 226.1995 221.328981 
z
" clip-path="url(#p58379bad8c)" style="fill: #1f77b4"/>
   </g>
   <g id="patch_155">
    <path d="M 307.5815 221.51 
L 348.2725 221.51 
L 348.2725 221.268641 
L 307.5815 221.268641 
z
" clip-path="url(#p58379bad8c)" style="fill: #1f77b4"/>
   </g>
   <g id="patch_156">
    <path d="M 388.9635 221.51 
L 429.6545 221.51 
L 429.6545 221.44966 
L 388.9635 221.44966 
z
" clip-path="url(#p58379bad8c)" style="fill: #1f77b4"/>
   </g>
   <g id="patch_157">
    <path d="M 63.4355 221.51 
L 104.1265 221.51 
L 104.1265 221.51 
L 63.4355 221.51 
z
" clip-path="url(#p58379bad8c)" style="fill: #1f77b4"/>
   </g>
   <g id="patch_158">
    <path d="M 144.8175 221.51 
L 185.5085 221.51 
L 185.5085 221.51 
L 144.8175 221.51 
z
" clip-path="url(#p58379bad8c)" style="fill: #1f77b4"/>
   </g>
   <g id="patch_159">
    <path d="M 226.1995 221.51 
L 266.8905 221.51 
L 266.8905 221.51 
L 226.1995 221.51 
z
" clip-path="url(#p58379bad8c)" style="fill: #1f77b4"/>
   </g>
   <g id="patch_160">
    <path d="M 307.5815 221.51 
L 348.2725 221.51 
L 348.2725 221.51 
L 307.5815 221.51 
z
" clip-path="url(#p58379bad8c)" style="fill: #1f77b4"/>
   </g>
   <g id="patch_161">
    <path d="M 63.4355 221.51 
L 104.1265 221.51 
L 104.1265 221.51 
L 63.4355 221.51 
z
" clip-path="url(#p58379bad8c)" style="fill: #1f77b4"/>
   </g>
   <g id="patch_162">
    <path d="M 144.8175 221.51 
L 185.5085 221.51 
L 185.5085 221.51 
L 144.8175 221.51 
z
" clip-path="url(#p58379bad8c)" style="fill: #1f77b4"/>
   </g>
   <g id="patch_163">
    <path d="M 226.1995 221.51 
L 266.8905 221.51 
L 266.8905 221.51 
L 226.1995 221.51 
z
" clip-path="url(#p58379bad8c)" style="fill: #1f77b4"/>
   </g>
   <g id="patch_164">
    <path d="M 63.4355 221.51 
L 104.1265 221.51 
L 104.1265 221.51 
L 63.4355 221.51 
z
" clip-path="url(#p58379bad8c)" style="fill: #1f77b4"/>
   </g>
   <g id="patch_165">
    <path d="M 144.8175 221.51 
L 185.5085 221.51 
L 185.5085 221.51 
L 144.8175 221.51 
z
" clip-path="url(#p58379bad8c)" style="fill: #1f77b4"/>
   </g>
   <g id="patch_166">
    <path d="M 226.1995 221.51 
L 266.8905 221.51 
L 266.8905 221.51 
L 226.1995 221.51 
z
" clip-path="url(#p58379bad8c)" style="fill: #1f77b4"/>
   </g>
   <g id="patch_167">
    <path d="M 307.5815 221.51 
L 348.2725 221.51 
L 348.2725 221.51 
L 307.5815 221.51 
z
" clip-path="url(#p58379bad8c)" style="fill: #1f77b4"/>
   </g>
   <g id="patch_168">
    <path d="M 63.4355 221.51 
L 104.1265 221.51 
L 104.1265 221.51 
L 63.4355 221.51 
z
" clip-path="url(#p58379bad8c)" style="fill: #1f77b4"/>
   </g>
   <g id="patch_169">
    <path d="M 144.8175 221.51 
L 185.5085 221.51 
L 185.5085 221.51 
L 144.8175 221.51 
z
" clip-path="url(#p58379bad8c)" style="fill: #1f77b4"/>
   </g>
   <g id="patch_170">
    <path d="M 63.4355 221.51 
L 104.1265 221.51 
L 104.1265 20.83381 
L 63.4355 20.83381 
z
" clip-path="url(#p58379bad8c)" style="fill: #1f77b4"/>
   </g>
   <g id="patch_171">
    <path d="M 144.8175 221.51 
L 185.5085 221.51 
L 185.5085 93.66298 
L 144.8175 93.66298 
z
" clip-path="url(#p58379bad8c)" style="fill: #1f77b4"/>
   </g>
   <g id="patch_172">
    <path d="M 226.1995 221.51 
L 266.8905 221.51 
L 266.8905 126.425619 
L 226.1995 126.425619 
z
" clip-path="url(#p58379bad8c)" style="fill: #1f77b4"/>
   </g>
   <g id="patch_173">
    <path d="M 307.5815 221.51 
L 348.2725 221.51 
L 348.2725 118.666602 
L 307.5815 118.666602 
z
" clip-path="url(#p58379bad8c)" style="fill: #1f77b4"/>
   </g>
   <g id="patch_174">
    <path d="M 388.9635 221.51 
L 429.6545 221.51 
L 429.6545 139.066502 
L 388.9635 139.066502 
z
" clip-path="url(#p58379bad8c)" style="fill: #1f77b4"/>
   </g>
   <g id="patch_175">
    <path d="M 63.4355 221.51 
L 104.1265 221.51 
L 104.1265 221.193216 
L 63.4355 221.193216 
z
" clip-path="url(#p58379bad8c)" style="fill: #1f77b4"/>
   </g>
   <g id="patch_176">
    <path d="M 144.8175 221.51 
L 185.5085 221.51 
L 185.5085 221.44966 
L 144.8175 221.44966 
z
" clip-path="url(#p58379bad8c)" style="fill: #1f77b4"/>
   </g>
   <g id="patch_177">
    <path d="M 226.1995 221.51 
L 266.8905 221.51 
L 266.8905 221.44966 
L 226.1995 221.44966 
z
" clip-path="url(#p58379bad8c)" style="fill: #1f77b4"/>
   </g>
   <g id="patch_178">
    <path d="M 307.5815 221.51 
L 348.2725 221.51 
L 348.2725 221.44966 
L 307.5815 221.44966 
z
" clip-path="url(#p58379bad8c)" style="fill: #1f77b4"/>
   </g>
   <g id="patch_179">
    <path d="M 388.9635 221.51 
L 429.6545 221.51 
L 429.6545 221.41949 
L 388.9635 221.41949 
z
" clip-path="url(#p58379bad8c)" style="fill: #1f77b4"/>
   </g>
   <g id="patch_180">
    <path d="M 63.4355 221.51 
L 104.1265 221.51 
L 104.1265 40.210592 
L 63.4355 40.210592 
z
" clip-path="url(#p58379bad8c)" style="fill: #1f77b4"/>
   </g>
   <g id="patch_181">
    <path d="M 144.8175 221.51 
L 185.5085 221.51 
L 185.5085 128.119844 
L 144.8175 128.119844 
z
" clip-path="url(#p58379bad8c)" style="fill: #1f77b4"/>
   </g>
   <g id="patch_182">
    <path d="M 226.1995 221.51 
L 266.8905 221.51 
L 266.8905 155.182423 
L 226.1995 155.182423 
z
" clip-path="url(#p58379bad8c)" style="fill: #1f77b4"/>
   </g>
   <g id="patch_183">
    <path d="M 307.5815 221.51 
L 348.2725 221.51 
L 348.2725 145.427379 
L 307.5815 145.427379 
z
" clip-path="url(#p58379bad8c)" style="fill: #1f77b4"/>
   </g>
   <g id="patch_184">
    <path d="M 388.9635 221.51 
L 429.6545 221.51 
L 429.6545 169.829509 
L 388.9635 169.829509 
z
" clip-path="url(#p58379bad8c)" style="fill: #1f77b4"/>
   </g>
   <g id="patch_185">
    <path d="M 63.4355 221.51 
L 104.1265 221.51 
L 104.1265 218.060575 
L 63.4355 218.060575 
z
" clip-path="url(#p58379bad8c)" style="fill: #1f77b4"/>
   </g>
   <g id="patch_186">
    <path d="M 144.8175 221.51 
L 185.5085 221.51 
L 185.5085 218.643859 
L 144.8175 218.643859 
z
" clip-path="url(#p58379bad8c)" style="fill: #1f77b4"/>
   </g>
   <g id="patch_187">
    <path d="M 226.1995 221.51 
L 266.8905 221.51 
L 266.8905 221.107735 
L 226.1995 221.107735 
z
" clip-path="url(#p58379bad8c)" style="fill: #1f77b4"/>
   </g>
   <g id="patch_188">
    <path d="M 307.5815 221.51 
L 348.2725 221.51 
L 348.2725 221.107735 
L 307.5815 221.107735 
z
" clip-path="url(#p58379bad8c)" style="fill: #1f77b4"/>
   </g>
   <g id="patch_189">
    <path d="M 388.9635 221.51 
L 429.6545 221.51 
L 429.6545 221.232437 
L 388.9635 221.232437 
z
" clip-path="url(#p58379bad8c)" style="fill: #1f77b4"/>
   </g>
   <g id="patch_190">
    <path d="M 63.4355 221.51 
L 104.1265 221.51 
L 104.1265 193.054754 
L 63.4355 193.054754 
z
" clip-path="url(#p58379bad8c)" style="fill: #1f77b4"/>
   </g>
   <g id="patch_191">
    <path d="M 144.8175 221.51 
L 185.5085 221.51 
L 185.5085 211.976311 
L 144.8175 211.976311 
z
" clip-path="url(#p58379bad8c)" style="fill: #1f77b4"/>
   </g>
   <g id="patch_192">
    <path d="M 226.1995 221.51 
L 266.8905 221.51 
L 266.8905 216.743155 
L 226.1995 216.743155 
z
" clip-path="url(#p58379bad8c)" style="fill: #1f77b4"/>
   </g>
   <g id="patch_193">
    <path d="M 307.5815 221.51 
L 348.2725 221.51 
L 348.2725 216.743155 
L 307.5815 216.743155 
z
" clip-path="url(#p58379bad8c)" style="fill: #1f77b4"/>
   </g>
   <g id="patch_194">
    <path d="M 388.9635 221.51 
L 429.6545 221.51 
L 429.6545 215.240694 
L 388.9635 215.240694 
z
" clip-path="url(#p58379bad8c)" style="fill: #1f77b4"/>
   </g>
   <g id="patch_195">
    <path d="M 63.4355 221.51 
L 104.1265 221.51 
L 104.1265 221.35915 
L 63.4355 221.35915 
z
" clip-path="url(#p58379bad8c)" style="fill: #1f77b4"/>
   </g>
   <g id="patch_196">
    <path d="M 144.8175 221.51 
L 185.5085 221.51 
L 185.5085 221.35915 
L 144.8175 221.35915 
z
" clip-path="url(#p58379bad8c)" style="fill: #1f77b4"/>
   </g>
   <g id="patch_197">
    <path d="M 226.1995 221.51 
L 266.8905 221.51 
L 266.8905 221.35915 
L 226.1995 221.35915 
z
" clip-path="url(#p58379bad8c)" style="fill: #1f77b4"/>
   </g>
   <g id="patch_198">
    <path d="M 307.5815 221.51 
L 348.2725 221.51 
L 348.2725 221.35915 
L 307.5815 221.35915 
z
" clip-path="url(#p58379bad8c)" style="fill: #1f77b4"/>
   </g>
   <g id="patch_199">
    <path d="M 388.9635 221.51 
L 429.6545 221.51 
L 429.6545 221.35915 
L 388.9635 221.35915 
z
" clip-path="url(#p58379bad8c)" style="fill: #1f77b4"/>
   </g>
   <g id="patch_200">
    <path d="M 63.4355 221.51 
L 104.1265 221.51 
L 104.1265 221.38932 
L 63.4355 221.38932 
z
" clip-path="url(#p58379bad8c)" style="fill: #1f77b4"/>
   </g>
   <g id="patch_201">
    <path d="M 144.8175 221.51 
L 185.5085 221.51 
L 185.5085 221.38932 
L 144.8175 221.38932 
z
" clip-path="url(#p58379bad8c)" style="fill: #1f77b4"/>
   </g>
   <g id="patch_202">
    <path d="M 226.1995 221.51 
L 266.8905 221.51 
L 266.8905 221.38932 
L 226.1995 221.38932 
z
" clip-path="url(#p58379bad8c)" style="fill: #1f77b4"/>
   </g>
   <g id="patch_203">
    <path d="M 307.5815 221.51 
L 348.2725 221.51 
L 348.2725 221.494915 
L 307.5815 221.494915 
z
" clip-path="url(#p58379bad8c)" style="fill: #1f77b4"/>
   </g>
   <g id="patch_204">
    <path d="M 388.9635 221.51 
L 429.6545 221.51 
L 429.6545 221.494915 
L 388.9635 221.494915 
z
" clip-path="url(#p58379bad8c)" style="fill: #1f77b4"/>
   </g>
   <g id="patch_205">
    <path d="M 63.4355 221.51 
L 104.1265 221.51 
L 104.1265 187.929523 
L 63.4355 187.929523 
z
" clip-path="url(#p58379bad8c)" style="fill: #1f77b4"/>
   </g>
   <g id="patch_206">
    <path d="M 144.8175 221.51 
L 185.5085 221.51 
L 185.5085 186.70074 
L 144.8175 186.70074 
z
" clip-path="url(#p58379bad8c)" style="fill: #1f77b4"/>
   </g>
   <g id="patch_207">
    <path d="M 226.1995 221.51 
L 266.8905 221.51 
L 266.8905 208.944236 
L 226.1995 208.944236 
z
" clip-path="url(#p58379bad8c)" style="fill: #1f77b4"/>
   </g>
   <g id="patch_208">
    <path d="M 307.5815 221.51 
L 348.2725 221.51 
L 348.2725 208.944236 
L 307.5815 208.944236 
z
" clip-path="url(#p58379bad8c)" style="fill: #1f77b4"/>
   </g>
   <g id="patch_209">
    <path d="M 388.9635 221.51 
L 429.6545 221.51 
L 429.6545 187.512179 
L 388.9635 187.512179 
z
" clip-path="url(#p58379bad8c)" style="fill: #1f77b4"/>
   </g>
   <g id="patch_210">
    <path d="M 63.4355 221.51 
L 104.1265 221.51 
L 104.1265 221.41949 
L 63.4355 221.41949 
z
" clip-path="url(#p58379bad8c)" style="fill: #1f77b4"/>
   </g>
   <g id="patch_211">
    <path d="M 144.8175 221.51 
L 185.5085 221.51 
L 185.5085 221.41949 
L 144.8175 221.41949 
z
" clip-path="url(#p58379bad8c)" style="fill: #1f77b4"/>
   </g>
   <g id="patch_212">
    <path d="M 226.1995 221.51 
L 266.8905 221.51 
L 266.8905 221.51 
L 226.1995 221.51 
z
" clip-path="url(#p58379bad8c)" style="fill: #1f77b4"/>
   </g>
   <g id="patch_213">
    <path d="M 307.5815 221.51 
L 348.2725 221.51 
L 348.2725 221.51 
L 307.5815 221.51 
z
" clip-path="url(#p58379bad8c)" style="fill: #1f77b4"/>
   </g>
   <g id="patch_214">
    <path d="M 388.9635 221.51 
L 429.6545 221.51 
L 429.6545 221.51 
L 388.9635 221.51 
z
" clip-path="url(#p58379bad8c)" style="fill: #1f77b4"/>
   </g>
   <g id="patch_215">
    <path d="M 63.4355 221.51 
L 104.1265 221.51 
L 104.1265 201.530533 
L 63.4355 201.530533 
z
" clip-path="url(#p58379bad8c)" style="fill: #1f77b4"/>
   </g>
   <g id="patch_216">
    <path d="M 144.8175 221.51 
L 185.5085 221.51 
L 185.5085 206.625925 
L 144.8175 206.625925 
z
" clip-path="url(#p58379bad8c)" style="fill: #1f77b4"/>
   </g>
   <g id="patch_217">
    <path d="M 226.1995 221.51 
L 266.8905 221.51 
L 266.8905 210.450293 
L 226.1995 210.450293 
z
" clip-path="url(#p58379bad8c)" style="fill: #1f77b4"/>
   </g>
   <g id="patch_218">
    <path d="M 307.5815 221.51 
L 348.2725 221.51 
L 348.2725 204.749618 
L 307.5815 204.749618 
z
" clip-path="url(#p58379bad8c)" style="fill: #1f77b4"/>
   </g>
   <g id="patch_219">
    <path d="M 388.9635 221.51 
L 429.6545 221.51 
L 429.6545 217.309157 
L 388.9635 217.309157 
z
" clip-path="url(#p58379bad8c)" style="fill: #1f77b4"/>
   </g>
   <g id="patch_220">
    <path d="M 63.4355 221.51 
L 104.1265 221.51 
L 104.1265 221.057451 
L 63.4355 221.057451 
z
" clip-path="url(#p58379bad8c)" style="fill: #1f77b4"/>
   </g>
   <g id="patch_221">
    <path d="M 144.8175 221.51 
L 185.5085 221.51 
L 185.5085 221.087621 
L 144.8175 221.087621 
z
" clip-path="url(#p58379bad8c)" style="fill: #1f77b4"/>
   </g>
   <g id="patch_222">
    <path d="M 226.1995 221.51 
L 266.8905 221.51 
L 266.8905 220.906602 
L 226.1995 220.906602 
z
" clip-path="url(#p58379bad8c)" style="fill: #1f77b4"/>
   </g>
   <g id="patch_223">
    <path d="M 307.5815 221.51 
L 348.2725 221.51 
L 348.2725 221.35915 
L 307.5815 221.35915 
z
" clip-path="url(#p58379bad8c)" style="fill: #1f77b4"/>
   </g>
   <g id="patch_224">
    <path d="M 388.9635 221.51 
L 429.6545 221.51 
L 429.6545 221.35915 
L 388.9635 221.35915 
z
" clip-path="url(#p58379bad8c)" style="fill: #1f77b4"/>
   </g>
   <g id="patch_225">
    <path d="M 63.4355 221.51 
L 104.1265 221.51 
L 104.1265 221.087621 
L 63.4355 221.087621 
z
" clip-path="url(#p58379bad8c)" style="fill: #1f77b4"/>
   </g>
   <g id="patch_226">
    <path d="M 144.8175 221.51 
L 185.5085 221.51 
L 185.5085 221.087621 
L 144.8175 221.087621 
z
" clip-path="url(#p58379bad8c)" style="fill: #1f77b4"/>
   </g>
   <g id="patch_227">
    <path d="M 226.1995 221.51 
L 266.8905 221.51 
L 266.8905 221.087621 
L 226.1995 221.087621 
z
" clip-path="url(#p58379bad8c)" style="fill: #1f77b4"/>
   </g>
   <g id="patch_228">
    <path d="M 307.5815 221.51 
L 348.2725 221.51 
L 348.2725 221.489887 
L 307.5815 221.489887 
z
" clip-path="url(#p58379bad8c)" style="fill: #1f77b4"/>
   </g>
   <g id="patch_229">
    <path d="M 388.9635 221.51 
L 429.6545 221.51 
L 429.6545 221.489887 
L 388.9635 221.489887 
z
" clip-path="url(#p58379bad8c)" style="fill: #1f77b4"/>
   </g>
   <g id="patch_230">
    <path d="M 63.4355 221.51 
L 104.1265 221.51 
L 104.1265 221.147961 
L 63.4355 221.147961 
z
" clip-path="url(#p58379bad8c)" style="fill: #1f77b4"/>
   </g>
   <g id="patch_231">
    <path d="M 144.8175 221.51 
L 185.5085 221.51 
L 185.5085 221.44966 
L 144.8175 221.44966 
z
" clip-path="url(#p58379bad8c)" style="fill: #1f77b4"/>
   </g>
   <g id="patch_232">
    <path d="M 226.1995 221.51 
L 266.8905 221.51 
L 266.8905 221.44966 
L 226.1995 221.44966 
z
" clip-path="url(#p58379bad8c)" style="fill: #1f77b4"/>
   </g>
   <g id="patch_233">
    <path d="M 307.5815 221.51 
L 348.2725 221.51 
L 348.2725 221.51 
L 307.5815 221.51 
z
" clip-path="url(#p58379bad8c)" style="fill: #1f77b4"/>
   </g>
   <g id="patch_234">
    <path d="M 388.9635 221.51 
L 429.6545 221.51 
L 429.6545 221.51 
L 388.9635 221.51 
z
" clip-path="url(#p58379bad8c)" style="fill: #1f77b4"/>
   </g>
   <g id="patch_235">
    <path d="M 63.4355 221.51 
L 104.1265 221.51 
L 104.1265 216.010458 
L 63.4355 216.010458 
z
" clip-path="url(#p58379bad8c)" style="fill: #1f77b4"/>
   </g>
   <g id="patch_236">
    <path d="M 144.8175 221.51 
L 185.5085 221.51 
L 185.5085 219.329147 
L 144.8175 219.329147 
z
" clip-path="url(#p58379bad8c)" style="fill: #1f77b4"/>
   </g>
   <g id="patch_237">
    <path d="M 226.1995 221.51 
L 266.8905 221.51 
L 266.8905 219.329147 
L 226.1995 219.329147 
z
" clip-path="url(#p58379bad8c)" style="fill: #1f77b4"/>
   </g>
   <g id="patch_238">
    <path d="M 307.5815 221.51 
L 348.2725 221.51 
L 348.2725 218.2732 
L 307.5815 218.2732 
z
" clip-path="url(#p58379bad8c)" style="fill: #1f77b4"/>
   </g>
   <g id="patch_239">
    <path d="M 388.9635 221.51 
L 429.6545 221.51 
L 429.6545 219.419657 
L 388.9635 219.419657 
z
" clip-path="url(#p58379bad8c)" style="fill: #1f77b4"/>
   </g>
   <g id="patch_240">
    <path d="M 63.4355 221.51 
L 104.1265 221.51 
L 104.1265 221.51 
L 63.4355 221.51 
z
" clip-path="url(#p58379bad8c)" style="fill: #1f77b4"/>
   </g>
   <g id="patch_241">
    <path d="M 63.4355 221.51 
L 104.1265 221.51 
L 104.1265 130.522701 
L 63.4355 130.522701 
z
" clip-path="url(#p58379bad8c)" style="fill: #1f77b4"/>
   </g>
   <g id="patch_242">
    <path d="M 144.8175 221.51 
L 185.5085 221.51 
L 185.5085 147.112777 
L 144.8175 147.112777 
z
" clip-path="url(#p58379bad8c)" style="fill: #1f77b4"/>
   </g>
   <g id="patch_243">
    <path d="M 226.1995 221.51 
L 266.8905 221.51 
L 266.8905 145.065959 
L 226.1995 145.065959 
z
" clip-path="url(#p58379bad8c)" style="fill: #1f77b4"/>
   </g>
   <g id="patch_244">
    <path d="M 307.5815 221.51 
L 348.2725 221.51 
L 348.2725 155.973714 
L 307.5815 155.973714 
z
" clip-path="url(#p58379bad8c)" style="fill: #1f77b4"/>
   </g>
   <g id="patch_245">
    <path d="M 388.9635 221.51 
L 429.6545 221.51 
L 429.6545 192.067942 
L 388.9635 192.067942 
z
" clip-path="url(#p58379bad8c)" style="fill: #1f77b4"/>
   </g>
   <g id="patch_246">
    <path d="M 63.4355 221.51 
L 104.1265 221.51 
L 104.1265 169.278308 
L 63.4355 169.278308 
z
" clip-path="url(#p58379bad8c)" style="fill: #1f77b4"/>
   </g>
   <g id="patch_247">
    <path d="M 144.8175 221.51 
L 185.5085 221.51 
L 185.5085 147.507554 
L 144.8175 147.507554 
z
" clip-path="url(#p58379bad8c)" style="fill: #1f77b4"/>
   </g>
   <g id="patch_248">
    <path d="M 226.1995 221.51 
L 266.8905 221.51 
L 266.8905 183.072242 
L 226.1995 183.072242 
z
" clip-path="url(#p58379bad8c)" style="fill: #1f77b4"/>
   </g>
   <g id="patch_249">
    <path d="M 307.5815 221.51 
L 348.2725 221.51 
L 348.2725 184.913366 
L 307.5815 184.913366 
z
" clip-path="url(#p58379bad8c)" style="fill: #1f77b4"/>
   </g>
   <g id="patch_250">
    <path d="M 388.9635 221.51 
L 429.6545 221.51 
L 429.6545 196.794359 
L 388.9635 196.794359 
z
" clip-path="url(#p58379bad8c)" style="fill: #1f77b4"/>
   </g>
   <g id="patch_251">
    <path d="M 63.4355 221.51 
L 104.1265 221.51 
L 104.1265 221.489887 
L 63.4355 221.489887 
z
" clip-path="url(#p58379bad8c)" style="fill: #1f77b4"/>
   </g>
   <g id="patch_252">
    <path d="M 144.8175 221.51 
L 185.5085 221.51 
L 185.5085 221.489887 
L 144.8175 221.489887 
z
" clip-path="url(#p58379bad8c)" style="fill: #1f77b4"/>
   </g>
   <g id="patch_253">
    <path d="M 226.1995 221.51 
L 266.8905 221.51 
L 266.8905 221.489887 
L 226.1995 221.489887 
z
" clip-path="url(#p58379bad8c)" style="fill: #1f77b4"/>
   </g>
   <g id="patch_254">
    <path d="M 307.5815 221.51 
L 348.2725 221.51 
L 348.2725 221.51 
L 307.5815 221.51 
z
" clip-path="url(#p58379bad8c)" style="fill: #1f77b4"/>
   </g>
   <g id="patch_255">
    <path d="M 388.9635 221.51 
L 429.6545 221.51 
L 429.6545 221.51 
L 388.9635 221.51 
z
" clip-path="url(#p58379bad8c)" style="fill: #1f77b4"/>
   </g>
   <g id="patch_256">
    <path d="M 63.4355 221.51 
L 104.1265 221.51 
L 104.1265 219.820485 
L 63.4355 219.820485 
z
" clip-path="url(#p58379bad8c)" style="fill: #1f77b4"/>
   </g>
   <g id="patch_257">
    <path d="M 144.8175 221.51 
L 185.5085 221.51 
L 185.5085 219.679693 
L 144.8175 219.679693 
z
" clip-path="url(#p58379bad8c)" style="fill: #1f77b4"/>
   </g>
   <g id="patch_258">
    <path d="M 226.1995 221.51 
L 266.8905 221.51 
L 266.8905 221.35915 
L 226.1995 221.35915 
z
" clip-path="url(#p58379bad8c)" style="fill: #1f77b4"/>
   </g>
   <g id="patch_259">
    <path d="M 307.5815 221.51 
L 348.2725 221.51 
L 348.2725 221.464745 
L 307.5815 221.464745 
z
" clip-path="url(#p58379bad8c)" style="fill: #1f77b4"/>
   </g>
   <g id="patch_260">
    <path d="M 388.9635 221.51 
L 429.6545 221.51 
L 429.6545 221.464745 
L 388.9635 221.464745 
z
" clip-path="url(#p58379bad8c)" style="fill: #1f77b4"/>
   </g>
   <g id="patch_261">
    <path d="M 63.4355 221.51 
L 104.1265 221.51 
L 104.1265 221.147961 
L 63.4355 221.147961 
z
" clip-path="url(#p58379bad8c)" style="fill: #1f77b4"/>
   </g>
   <g id="patch_262">
    <path d="M 144.8175 221.51 
L 185.5085 221.51 
L 185.5085 221.268641 
L 144.8175 221.268641 
z
" clip-path="url(#p58379bad8c)" style="fill: #1f77b4"/>
   </g>
   <g id="patch_263">
    <path d="M 226.1995 221.51 
L 266.8905 221.51 
L 266.8905 221.38932 
L 226.1995 221.38932 
z
" clip-path="url(#p58379bad8c)" style="fill: #1f77b4"/>
   </g>
   <g id="patch_264">
    <path d="M 307.5815 221.51 
L 348.2725 221.51 
L 348.2725 221.38932 
L 307.5815 221.38932 
z
" clip-path="url(#p58379bad8c)" style="fill: #1f77b4"/>
   </g>
   <g id="patch_265">
    <path d="M 388.9635 221.51 
L 429.6545 221.51 
L 429.6545 221.228414 
L 388.9635 221.228414 
z
" clip-path="url(#p58379bad8c)" style="fill: #1f77b4"/>
   </g>
   <g id="matplotlib.axis_1">
    <g id="xtick_1">
     <g id="line2d_1">
      <defs>
       <path id="m200202812c" d="M 0 0 
L 0 3.5 
" style="stroke: #000000; stroke-width: 0.8"/>
      </defs>
      <g>
       <use xlink:href="#m200202812c" x="83.781" y="221.51" style="stroke: #000000; stroke-width: 0.8"/>
      </g>
     </g>
     <g id="text_1">
      <!-- Morgan Freeman -->
      <g transform="translate(86.540375 312.61) rotate(-90) scale(0.1 -0.1)">
       <defs>
        <path id="DejaVuSans-4d" d="M 628 4666 
L 1569 4666 
L 2759 1491 
L 3956 4666 
L 4897 4666 
L 4897 0 
L 4281 0 
L 4281 4097 
L 3078 897 
L 2444 897 
L 1241 4097 
L 1241 0 
L 628 0 
L 628 4666 
z
" transform="scale(0.015625)"/>
        <path id="DejaVuSans-6f" d="M 1959 3097 
Q 1497 3097 1228 2736 
Q 959 2375 959 1747 
Q 959 1119 1226 758 
Q 1494 397 1959 397 
Q 2419 397 2687 759 
Q 2956 1122 2956 1747 
Q 2956 2369 2687 2733 
Q 2419 3097 1959 3097 
z
M 1959 3584 
Q 2709 3584 3137 3096 
Q 3566 2609 3566 1747 
Q 3566 888 3137 398 
Q 2709 -91 1959 -91 
Q 1206 -91 779 398 
Q 353 888 353 1747 
Q 353 2609 779 3096 
Q 1206 3584 1959 3584 
z
" transform="scale(0.015625)"/>
        <path id="DejaVuSans-72" d="M 2631 2963 
Q 2534 3019 2420 3045 
Q 2306 3072 2169 3072 
Q 1681 3072 1420 2755 
Q 1159 2438 1159 1844 
L 1159 0 
L 581 0 
L 581 3500 
L 1159 3500 
L 1159 2956 
Q 1341 3275 1631 3429 
Q 1922 3584 2338 3584 
Q 2397 3584 2469 3576 
Q 2541 3569 2628 3553 
L 2631 2963 
z
" transform="scale(0.015625)"/>
        <path id="DejaVuSans-67" d="M 2906 1791 
Q 2906 2416 2648 2759 
Q 2391 3103 1925 3103 
Q 1463 3103 1205 2759 
Q 947 2416 947 1791 
Q 947 1169 1205 825 
Q 1463 481 1925 481 
Q 2391 481 2648 825 
Q 2906 1169 2906 1791 
z
M 3481 434 
Q 3481 -459 3084 -895 
Q 2688 -1331 1869 -1331 
Q 1566 -1331 1297 -1286 
Q 1028 -1241 775 -1147 
L 775 -588 
Q 1028 -725 1275 -790 
Q 1522 -856 1778 -856 
Q 2344 -856 2625 -561 
Q 2906 -266 2906 331 
L 2906 616 
Q 2728 306 2450 153 
Q 2172 0 1784 0 
Q 1141 0 747 490 
Q 353 981 353 1791 
Q 353 2603 747 3093 
Q 1141 3584 1784 3584 
Q 2172 3584 2450 3431 
Q 2728 3278 2906 2969 
L 2906 3500 
L 3481 3500 
L 3481 434 
z
" transform="scale(0.015625)"/>
        <path id="DejaVuSans-61" d="M 2194 1759 
Q 1497 1759 1228 1600 
Q 959 1441 959 1056 
Q 959 750 1161 570 
Q 1363 391 1709 391 
Q 2188 391 2477 730 
Q 2766 1069 2766 1631 
L 2766 1759 
L 2194 1759 
z
M 3341 1997 
L 3341 0 
L 2766 0 
L 2766 531 
Q 2569 213 2275 61 
Q 1981 -91 1556 -91 
Q 1019 -91 701 211 
Q 384 513 384 1019 
Q 384 1609 779 1909 
Q 1175 2209 1959 2209 
L 2766 2209 
L 2766 2266 
Q 2766 2663 2505 2880 
Q 2244 3097 1772 3097 
Q 1472 3097 1187 3025 
Q 903 2953 641 2809 
L 641 3341 
Q 956 3463 1253 3523 
Q 1550 3584 1831 3584 
Q 2591 3584 2966 3190 
Q 3341 2797 3341 1997 
z
" transform="scale(0.015625)"/>
        <path id="DejaVuSans-6e" d="M 3513 2113 
L 3513 0 
L 2938 0 
L 2938 2094 
Q 2938 2591 2744 2837 
Q 2550 3084 2163 3084 
Q 1697 3084 1428 2787 
Q 1159 2491 1159 1978 
L 1159 0 
L 581 0 
L 581 3500 
L 1159 3500 
L 1159 2956 
Q 1366 3272 1645 3428 
Q 1925 3584 2291 3584 
Q 2894 3584 3203 3211 
Q 3513 2838 3513 2113 
z
" transform="scale(0.015625)"/>
        <path id="DejaVuSans-20" transform="scale(0.015625)"/>
        <path id="DejaVuSans-46" d="M 628 4666 
L 3309 4666 
L 3309 4134 
L 1259 4134 
L 1259 2759 
L 3109 2759 
L 3109 2228 
L 1259 2228 
L 1259 0 
L 628 0 
L 628 4666 
z
" transform="scale(0.015625)"/>
        <path id="DejaVuSans-65" d="M 3597 1894 
L 3597 1613 
L 953 1613 
Q 991 1019 1311 708 
Q 1631 397 2203 397 
Q 2534 397 2845 478 
Q 3156 559 3463 722 
L 3463 178 
Q 3153 47 2828 -22 
Q 2503 -91 2169 -91 
Q 1331 -91 842 396 
Q 353 884 353 1716 
Q 353 2575 817 3079 
Q 1281 3584 2069 3584 
Q 2775 3584 3186 3129 
Q 3597 2675 3597 1894 
z
M 3022 2063 
Q 3016 2534 2758 2815 
Q 2500 3097 2075 3097 
Q 1594 3097 1305 2825 
Q 1016 2553 972 2059 
L 3022 2063 
z
" transform="scale(0.015625)"/>
        <path id="DejaVuSans-6d" d="M 3328 2828 
Q 3544 3216 3844 3400 
Q 4144 3584 4550 3584 
Q 5097 3584 5394 3201 
Q 5691 2819 5691 2113 
L 5691 0 
L 5113 0 
L 5113 2094 
Q 5113 2597 4934 2840 
Q 4756 3084 4391 3084 
Q 3944 3084 3684 2787 
Q 3425 2491 3425 1978 
L 3425 0 
L 2847 0 
L 2847 2094 
Q 2847 2600 2669 2842 
Q 2491 3084 2119 3084 
Q 1678 3084 1418 2786 
Q 1159 2488 1159 1978 
L 1159 0 
L 581 0 
L 581 3500 
L 1159 3500 
L 1159 2956 
Q 1356 3278 1631 3431 
Q 1906 3584 2284 3584 
Q 2666 3584 2933 3390 
Q 3200 3197 3328 2828 
z
" transform="scale(0.015625)"/>
       </defs>
       <use xlink:href="#DejaVuSans-4d"/>
       <use xlink:href="#DejaVuSans-6f" x="86.279297"/>
       <use xlink:href="#DejaVuSans-72" x="147.460938"/>
       <use xlink:href="#DejaVuSans-67" x="186.824219"/>
       <use xlink:href="#DejaVuSans-61" x="250.300781"/>
       <use xlink:href="#DejaVuSans-6e" x="311.580078"/>
       <use xlink:href="#DejaVuSans-20" x="374.958984"/>
       <use xlink:href="#DejaVuSans-46" x="406.746094"/>
       <use xlink:href="#DejaVuSans-72" x="457.015625"/>
       <use xlink:href="#DejaVuSans-65" x="495.878906"/>
       <use xlink:href="#DejaVuSans-65" x="557.402344"/>
       <use xlink:href="#DejaVuSans-6d" x="618.925781"/>
       <use xlink:href="#DejaVuSans-61" x="716.337891"/>
       <use xlink:href="#DejaVuSans-6e" x="777.617188"/>
      </g>
     </g>
    </g>
    <g id="xtick_2">
     <g id="line2d_2">
      <g>
       <use xlink:href="#m200202812c" x="165.163" y="221.51" style="stroke: #000000; stroke-width: 0.8"/>
      </g>
     </g>
     <g id="text_2">
      <!-- Sarah Michelle Gellar -->
      <g transform="translate(167.922375 334.720937) rotate(-90) scale(0.1 -0.1)">
       <defs>
        <path id="DejaVuSans-53" d="M 3425 4513 
L 3425 3897 
Q 3066 4069 2747 4153 
Q 2428 4238 2131 4238 
Q 1616 4238 1336 4038 
Q 1056 3838 1056 3469 
Q 1056 3159 1242 3001 
Q 1428 2844 1947 2747 
L 2328 2669 
Q 3034 2534 3370 2195 
Q 3706 1856 3706 1288 
Q 3706 609 3251 259 
Q 2797 -91 1919 -91 
Q 1588 -91 1214 -16 
Q 841 59 441 206 
L 441 856 
Q 825 641 1194 531 
Q 1563 422 1919 422 
Q 2459 422 2753 634 
Q 3047 847 3047 1241 
Q 3047 1584 2836 1778 
Q 2625 1972 2144 2069 
L 1759 2144 
Q 1053 2284 737 2584 
Q 422 2884 422 3419 
Q 422 4038 858 4394 
Q 1294 4750 2059 4750 
Q 2388 4750 2728 4690 
Q 3069 4631 3425 4513 
z
" transform="scale(0.015625)"/>
        <path id="DejaVuSans-68" d="M 3513 2113 
L 3513 0 
L 2938 0 
L 2938 2094 
Q 2938 2591 2744 2837 
Q 2550 3084 2163 3084 
Q 1697 3084 1428 2787 
Q 1159 2491 1159 1978 
L 1159 0 
L 581 0 
L 581 4863 
L 1159 4863 
L 1159 2956 
Q 1366 3272 1645 3428 
Q 1925 3584 2291 3584 
Q 2894 3584 3203 3211 
Q 3513 2838 3513 2113 
z
" transform="scale(0.015625)"/>
        <path id="DejaVuSans-69" d="M 603 3500 
L 1178 3500 
L 1178 0 
L 603 0 
L 603 3500 
z
M 603 4863 
L 1178 4863 
L 1178 4134 
L 603 4134 
L 603 4863 
z
" transform="scale(0.015625)"/>
        <path id="DejaVuSans-63" d="M 3122 3366 
L 3122 2828 
Q 2878 2963 2633 3030 
Q 2388 3097 2138 3097 
Q 1578 3097 1268 2742 
Q 959 2388 959 1747 
Q 959 1106 1268 751 
Q 1578 397 2138 397 
Q 2388 397 2633 464 
Q 2878 531 3122 666 
L 3122 134 
Q 2881 22 2623 -34 
Q 2366 -91 2075 -91 
Q 1284 -91 818 406 
Q 353 903 353 1747 
Q 353 2603 823 3093 
Q 1294 3584 2113 3584 
Q 2378 3584 2631 3529 
Q 2884 3475 3122 3366 
z
" transform="scale(0.015625)"/>
        <path id="DejaVuSans-6c" d="M 603 4863 
L 1178 4863 
L 1178 0 
L 603 0 
L 603 4863 
z
" transform="scale(0.015625)"/>
        <path id="DejaVuSans-47" d="M 3809 666 
L 3809 1919 
L 2778 1919 
L 2778 2438 
L 4434 2438 
L 4434 434 
Q 4069 175 3628 42 
Q 3188 -91 2688 -91 
Q 1594 -91 976 548 
Q 359 1188 359 2328 
Q 359 3472 976 4111 
Q 1594 4750 2688 4750 
Q 3144 4750 3555 4637 
Q 3966 4525 4313 4306 
L 4313 3634 
Q 3963 3931 3569 4081 
Q 3175 4231 2741 4231 
Q 1884 4231 1454 3753 
Q 1025 3275 1025 2328 
Q 1025 1384 1454 906 
Q 1884 428 2741 428 
Q 3075 428 3337 486 
Q 3600 544 3809 666 
z
" transform="scale(0.015625)"/>
       </defs>
       <use xlink:href="#DejaVuSans-53"/>
       <use xlink:href="#DejaVuSans-61" x="63.476562"/>
       <use xlink:href="#DejaVuSans-72" x="124.755859"/>
       <use xlink:href="#DejaVuSans-61" x="165.869141"/>
       <use xlink:href="#DejaVuSans-68" x="227.148438"/>
       <use xlink:href="#DejaVuSans-20" x="290.527344"/>
       <use xlink:href="#DejaVuSans-4d" x="322.314453"/>
       <use xlink:href="#DejaVuSans-69" x="408.59375"/>
       <use xlink:href="#DejaVuSans-63" x="436.376953"/>
       <use xlink:href="#DejaVuSans-68" x="491.357422"/>
       <use xlink:href="#DejaVuSans-65" x="554.736328"/>
       <use xlink:href="#DejaVuSans-6c" x="616.259766"/>
       <use xlink:href="#DejaVuSans-6c" x="644.042969"/>
       <use xlink:href="#DejaVuSans-65" x="671.826172"/>
       <use xlink:href="#DejaVuSans-20" x="733.349609"/>
       <use xlink:href="#DejaVuSans-47" x="765.136719"/>
       <use xlink:href="#DejaVuSans-65" x="842.626953"/>
       <use xlink:href="#DejaVuSans-6c" x="904.150391"/>
       <use xlink:href="#DejaVuSans-6c" x="931.933594"/>
       <use xlink:href="#DejaVuSans-61" x="959.716797"/>
       <use xlink:href="#DejaVuSans-72" x="1020.996094"/>
      </g>
     </g>
    </g>
    <g id="xtick_3">
     <g id="line2d_3">
      <g>
       <use xlink:href="#m200202812c" x="246.545" y="221.51" style="stroke: #000000; stroke-width: 0.8"/>
      </g>
     </g>
     <g id="text_3">
      <!-- Jason Lee -->
      <g transform="translate(249.304375 276.135) rotate(-90) scale(0.1 -0.1)">
       <defs>
        <path id="DejaVuSans-4a" d="M 628 4666 
L 1259 4666 
L 1259 325 
Q 1259 -519 939 -900 
Q 619 -1281 -91 -1281 
L -331 -1281 
L -331 -750 
L -134 -750 
Q 284 -750 456 -515 
Q 628 -281 628 325 
L 628 4666 
z
" transform="scale(0.015625)"/>
        <path id="DejaVuSans-73" d="M 2834 3397 
L 2834 2853 
Q 2591 2978 2328 3040 
Q 2066 3103 1784 3103 
Q 1356 3103 1142 2972 
Q 928 2841 928 2578 
Q 928 2378 1081 2264 
Q 1234 2150 1697 2047 
L 1894 2003 
Q 2506 1872 2764 1633 
Q 3022 1394 3022 966 
Q 3022 478 2636 193 
Q 2250 -91 1575 -91 
Q 1294 -91 989 -36 
Q 684 19 347 128 
L 347 722 
Q 666 556 975 473 
Q 1284 391 1588 391 
Q 1994 391 2212 530 
Q 2431 669 2431 922 
Q 2431 1156 2273 1281 
Q 2116 1406 1581 1522 
L 1381 1569 
Q 847 1681 609 1914 
Q 372 2147 372 2553 
Q 372 3047 722 3315 
Q 1072 3584 1716 3584 
Q 2034 3584 2315 3537 
Q 2597 3491 2834 3397 
z
" transform="scale(0.015625)"/>
        <path id="DejaVuSans-4c" d="M 628 4666 
L 1259 4666 
L 1259 531 
L 3531 531 
L 3531 0 
L 628 0 
L 628 4666 
z
" transform="scale(0.015625)"/>
       </defs>
       <use xlink:href="#DejaVuSans-4a"/>
       <use xlink:href="#DejaVuSans-61" x="29.492188"/>
       <use xlink:href="#DejaVuSans-73" x="90.771484"/>
       <use xlink:href="#DejaVuSans-6f" x="142.871094"/>
       <use xlink:href="#DejaVuSans-6e" x="204.052734"/>
       <use xlink:href="#DejaVuSans-20" x="267.431641"/>
       <use xlink:href="#DejaVuSans-4c" x="299.21875"/>
       <use xlink:href="#DejaVuSans-65" x="353.181641"/>
       <use xlink:href="#DejaVuSans-65" x="414.705078"/>
      </g>
     </g>
    </g>
    <g id="xtick_4">
     <g id="line2d_4">
      <g>
       <use xlink:href="#m200202812c" x="327.927" y="221.51" style="stroke: #000000; stroke-width: 0.8"/>
      </g>
     </g>
     <g id="text_4">
      <!-- Tom Sizemore -->
      <g transform="translate(330.686375 298.381875) rotate(-90) scale(0.1 -0.1)">
       <defs>
        <path id="DejaVuSans-54" d="M -19 4666 
L 3928 4666 
L 3928 4134 
L 2272 4134 
L 2272 0 
L 1638 0 
L 1638 4134 
L -19 4134 
L -19 4666 
z
" transform="scale(0.015625)"/>
        <path id="DejaVuSans-7a" d="M 353 3500 
L 3084 3500 
L 3084 2975 
L 922 459 
L 3084 459 
L 3084 0 
L 275 0 
L 275 525 
L 2438 3041 
L 353 3041 
L 353 3500 
z
" transform="scale(0.015625)"/>
       </defs>
       <use xlink:href="#DejaVuSans-54"/>
       <use xlink:href="#DejaVuSans-6f" x="44.083984"/>
       <use xlink:href="#DejaVuSans-6d" x="105.265625"/>
       <use xlink:href="#DejaVuSans-20" x="202.677734"/>
       <use xlink:href="#DejaVuSans-53" x="234.464844"/>
       <use xlink:href="#DejaVuSans-69" x="297.941406"/>
       <use xlink:href="#DejaVuSans-7a" x="325.724609"/>
       <use xlink:href="#DejaVuSans-65" x="378.214844"/>
       <use xlink:href="#DejaVuSans-6d" x="439.738281"/>
       <use xlink:href="#DejaVuSans-6f" x="537.150391"/>
       <use xlink:href="#DejaVuSans-72" x="598.332031"/>
       <use xlink:href="#DejaVuSans-65" x="637.195312"/>
      </g>
     </g>
    </g>
    <g id="xtick_5">
     <g id="line2d_5">
      <g>
       <use xlink:href="#m200202812c" x="409.309" y="221.51" style="stroke: #000000; stroke-width: 0.8"/>
      </g>
     </g>
     <g id="text_5">
      <!-- William Hurt -->
      <g transform="translate(412.068375 290.220937) rotate(-90) scale(0.1 -0.1)">
       <defs>
        <path id="DejaVuSans-57" d="M 213 4666 
L 850 4666 
L 1831 722 
L 2809 4666 
L 3519 4666 
L 4500 722 
L 5478 4666 
L 6119 4666 
L 4947 0 
L 4153 0 
L 3169 4050 
L 2175 0 
L 1381 0 
L 213 4666 
z
" transform="scale(0.015625)"/>
        <path id="DejaVuSans-48" d="M 628 4666 
L 1259 4666 
L 1259 2753 
L 3553 2753 
L 3553 4666 
L 4184 4666 
L 4184 0 
L 3553 0 
L 3553 2222 
L 1259 2222 
L 1259 0 
L 628 0 
L 628 4666 
z
" transform="scale(0.015625)"/>
        <path id="DejaVuSans-75" d="M 544 1381 
L 544 3500 
L 1119 3500 
L 1119 1403 
Q 1119 906 1312 657 
Q 1506 409 1894 409 
Q 2359 409 2629 706 
Q 2900 1003 2900 1516 
L 2900 3500 
L 3475 3500 
L 3475 0 
L 2900 0 
L 2900 538 
Q 2691 219 2414 64 
Q 2138 -91 1772 -91 
Q 1169 -91 856 284 
Q 544 659 544 1381 
z
M 1991 3584 
L 1991 3584 
z
" transform="scale(0.015625)"/>
        <path id="DejaVuSans-74" d="M 1172 4494 
L 1172 3500 
L 2356 3500 
L 2356 3053 
L 1172 3053 
L 1172 1153 
Q 1172 725 1289 603 
Q 1406 481 1766 481 
L 2356 481 
L 2356 0 
L 1766 0 
Q 1100 0 847 248 
Q 594 497 594 1153 
L 594 3053 
L 172 3053 
L 172 3500 
L 594 3500 
L 594 4494 
L 1172 4494 
z
" transform="scale(0.015625)"/>
       </defs>
       <use xlink:href="#DejaVuSans-57"/>
       <use xlink:href="#DejaVuSans-69" x="96.626953"/>
       <use xlink:href="#DejaVuSans-6c" x="124.410156"/>
       <use xlink:href="#DejaVuSans-6c" x="152.193359"/>
       <use xlink:href="#DejaVuSans-69" x="179.976562"/>
       <use xlink:href="#DejaVuSans-61" x="207.759766"/>
       <use xlink:href="#DejaVuSans-6d" x="269.039062"/>
       <use xlink:href="#DejaVuSans-20" x="366.451172"/>
       <use xlink:href="#DejaVuSans-48" x="398.238281"/>
       <use xlink:href="#DejaVuSans-75" x="473.433594"/>
       <use xlink:href="#DejaVuSans-72" x="536.8125"/>
       <use xlink:href="#DejaVuSans-74" x="577.925781"/>
      </g>
     </g>
    </g>
   </g>
   <g id="matplotlib.axis_2">
    <g id="ytick_1">
     <g id="line2d_6">
      <defs>
       <path id="mee6d07d570" d="M 0 0 
L -3.5 0 
" style="stroke: #000000; stroke-width: 0.8"/>
      </defs>
      <g>
       <use xlink:href="#mee6d07d570" x="43.09" y="221.51" style="stroke: #000000; stroke-width: 0.8"/>
      </g>
     </g>
     <g id="text_6">
      <!-- 0 -->
      <g transform="translate(29.7275 225.309219) scale(0.1 -0.1)">
       <defs>
        <path id="DejaVuSans-30" d="M 2034 4250 
Q 1547 4250 1301 3770 
Q 1056 3291 1056 2328 
Q 1056 1369 1301 889 
Q 1547 409 2034 409 
Q 2525 409 2770 889 
Q 3016 1369 3016 2328 
Q 3016 3291 2770 3770 
Q 2525 4250 2034 4250 
z
M 2034 4750 
Q 2819 4750 3233 4129 
Q 3647 3509 3647 2328 
Q 3647 1150 3233 529 
Q 2819 -91 2034 -91 
Q 1250 -91 836 529 
Q 422 1150 422 2328 
Q 422 3509 836 4129 
Q 1250 4750 2034 4750 
z
" transform="scale(0.015625)"/>
       </defs>
       <use xlink:href="#DejaVuSans-30"/>
      </g>
     </g>
    </g>
    <g id="ytick_2">
     <g id="line2d_7">
      <g>
       <use xlink:href="#mee6d07d570" x="43.09" y="191.340098" style="stroke: #000000; stroke-width: 0.8"/>
      </g>
     </g>
     <g id="text_7">
      <!-- 500 -->
      <g transform="translate(17.0025 195.139317) scale(0.1 -0.1)">
       <defs>
        <path id="DejaVuSans-35" d="M 691 4666 
L 3169 4666 
L 3169 4134 
L 1269 4134 
L 1269 2991 
Q 1406 3038 1543 3061 
Q 1681 3084 1819 3084 
Q 2600 3084 3056 2656 
Q 3513 2228 3513 1497 
Q 3513 744 3044 326 
Q 2575 -91 1722 -91 
Q 1428 -91 1123 -41 
Q 819 9 494 109 
L 494 744 
Q 775 591 1075 516 
Q 1375 441 1709 441 
Q 2250 441 2565 725 
Q 2881 1009 2881 1497 
Q 2881 1984 2565 2268 
Q 2250 2553 1709 2553 
Q 1456 2553 1204 2497 
Q 953 2441 691 2322 
L 691 4666 
z
" transform="scale(0.015625)"/>
       </defs>
       <use xlink:href="#DejaVuSans-35"/>
       <use xlink:href="#DejaVuSans-30" x="63.623047"/>
       <use xlink:href="#DejaVuSans-30" x="127.246094"/>
      </g>
     </g>
    </g>
    <g id="ytick_3">
     <g id="line2d_8">
      <g>
       <use xlink:href="#mee6d07d570" x="43.09" y="161.170196" style="stroke: #000000; stroke-width: 0.8"/>
      </g>
     </g>
     <g id="text_8">
      <!-- 1000 -->
      <g transform="translate(10.64 164.969414) scale(0.1 -0.1)">
       <defs>
        <path id="DejaVuSans-31" d="M 794 531 
L 1825 531 
L 1825 4091 
L 703 3866 
L 703 4441 
L 1819 4666 
L 2450 4666 
L 2450 531 
L 3481 531 
L 3481 0 
L 794 0 
L 794 531 
z
" transform="scale(0.015625)"/>
       </defs>
       <use xlink:href="#DejaVuSans-31"/>
       <use xlink:href="#DejaVuSans-30" x="63.623047"/>
       <use xlink:href="#DejaVuSans-30" x="127.246094"/>
       <use xlink:href="#DejaVuSans-30" x="190.869141"/>
      </g>
     </g>
    </g>
    <g id="ytick_4">
     <g id="line2d_9">
      <g>
       <use xlink:href="#mee6d07d570" x="43.09" y="131.000294" style="stroke: #000000; stroke-width: 0.8"/>
      </g>
     </g>
     <g id="text_9">
      <!-- 1500 -->
      <g transform="translate(10.64 134.799512) scale(0.1 -0.1)">
       <use xlink:href="#DejaVuSans-31"/>
       <use xlink:href="#DejaVuSans-35" x="63.623047"/>
       <use xlink:href="#DejaVuSans-30" x="127.246094"/>
       <use xlink:href="#DejaVuSans-30" x="190.869141"/>
      </g>
     </g>
    </g>
    <g id="ytick_5">
     <g id="line2d_10">
      <g>
       <use xlink:href="#mee6d07d570" x="43.09" y="100.830391" style="stroke: #000000; stroke-width: 0.8"/>
      </g>
     </g>
     <g id="text_10">
      <!-- 2000 -->
      <g transform="translate(10.64 104.62961) scale(0.1 -0.1)">
       <defs>
        <path id="DejaVuSans-32" d="M 1228 531 
L 3431 531 
L 3431 0 
L 469 0 
L 469 531 
Q 828 903 1448 1529 
Q 2069 2156 2228 2338 
Q 2531 2678 2651 2914 
Q 2772 3150 2772 3378 
Q 2772 3750 2511 3984 
Q 2250 4219 1831 4219 
Q 1534 4219 1204 4116 
Q 875 4013 500 3803 
L 500 4441 
Q 881 4594 1212 4672 
Q 1544 4750 1819 4750 
Q 2544 4750 2975 4387 
Q 3406 4025 3406 3419 
Q 3406 3131 3298 2873 
Q 3191 2616 2906 2266 
Q 2828 2175 2409 1742 
Q 1991 1309 1228 531 
z
" transform="scale(0.015625)"/>
       </defs>
       <use xlink:href="#DejaVuSans-32"/>
       <use xlink:href="#DejaVuSans-30" x="63.623047"/>
       <use xlink:href="#DejaVuSans-30" x="127.246094"/>
       <use xlink:href="#DejaVuSans-30" x="190.869141"/>
      </g>
     </g>
    </g>
    <g id="ytick_6">
     <g id="line2d_11">
      <g>
       <use xlink:href="#mee6d07d570" x="43.09" y="70.660489" style="stroke: #000000; stroke-width: 0.8"/>
      </g>
     </g>
     <g id="text_11">
      <!-- 2500 -->
      <g transform="translate(10.64 74.459708) scale(0.1 -0.1)">
       <use xlink:href="#DejaVuSans-32"/>
       <use xlink:href="#DejaVuSans-35" x="63.623047"/>
       <use xlink:href="#DejaVuSans-30" x="127.246094"/>
       <use xlink:href="#DejaVuSans-30" x="190.869141"/>
      </g>
     </g>
    </g>
    <g id="ytick_7">
     <g id="line2d_12">
      <g>
       <use xlink:href="#mee6d07d570" x="43.09" y="40.490587" style="stroke: #000000; stroke-width: 0.8"/>
      </g>
     </g>
     <g id="text_12">
      <!-- 3000 -->
      <g transform="translate(10.64 44.289806) scale(0.1 -0.1)">
       <defs>
        <path id="DejaVuSans-33" d="M 2597 2516 
Q 3050 2419 3304 2112 
Q 3559 1806 3559 1356 
Q 3559 666 3084 287 
Q 2609 -91 1734 -91 
Q 1441 -91 1130 -33 
Q 819 25 488 141 
L 488 750 
Q 750 597 1062 519 
Q 1375 441 1716 441 
Q 2309 441 2620 675 
Q 2931 909 2931 1356 
Q 2931 1769 2642 2001 
Q 2353 2234 1838 2234 
L 1294 2234 
L 1294 2753 
L 1863 2753 
Q 2328 2753 2575 2939 
Q 2822 3125 2822 3475 
Q 2822 3834 2567 4026 
Q 2313 4219 1838 4219 
Q 1578 4219 1281 4162 
Q 984 4106 628 3988 
L 628 4550 
Q 988 4650 1302 4700 
Q 1616 4750 1894 4750 
Q 2613 4750 3031 4423 
Q 3450 4097 3450 3541 
Q 3450 3153 3228 2886 
Q 3006 2619 2597 2516 
z
" transform="scale(0.015625)"/>
       </defs>
       <use xlink:href="#DejaVuSans-33"/>
       <use xlink:href="#DejaVuSans-30" x="63.623047"/>
       <use xlink:href="#DejaVuSans-30" x="127.246094"/>
       <use xlink:href="#DejaVuSans-30" x="190.869141"/>
      </g>
     </g>
    </g>
   </g>
   <g id="patch_266">
    <path d="M 43.09 221.51 
L 43.09 10.8 
" style="fill: none; stroke: #000000; stroke-width: 0.8; stroke-linejoin: miter; stroke-linecap: square"/>
   </g>
   <g id="patch_267">
    <path d="M 450 221.51 
L 450 10.8 
" style="fill: none; stroke: #000000; stroke-width: 0.8; stroke-linejoin: miter; stroke-linecap: square"/>
   </g>
   <g id="patch_268">
    <path d="M 43.09 221.51 
L 450 221.51 
" style="fill: none; stroke: #000000; stroke-width: 0.8; stroke-linejoin: miter; stroke-linecap: square"/>
   </g>
   <g id="patch_269">
    <path d="M 43.09 10.8 
L 450 10.8 
" style="fill: none; stroke: #000000; stroke-width: 0.8; stroke-linejoin: miter; stroke-linecap: square"/>
   </g>
  </g>
 </g>
 <defs>
  <clipPath id="p58379bad8c">
   <rect x="43.09" y="10.8" width="406.91" height="210.71"/>
  </clipPath>
 </defs>
</svg>
