<?xml version="1.0" encoding="utf-8" standalone="no"?>
<!DOCTYPE svg PUBLIC "-//W3C//DTD SVG 1.1//EN"
  "http://www.w3.org/Graphics/SVG/1.1/DTD/svg11.dtd">
<svg xmlns:xlink="http://www.w3.org/1999/xlink" width="460.8pt" height="345.6pt" viewBox="0 0 460.8 345.6" xmlns="http://www.w3.org/2000/svg" version="1.1">
 <metadata>
  <rdf:RDF xmlns:dc="http://purl.org/dc/elements/1.1/" xmlns:cc="http://creativecommons.org/ns#" xmlns:rdf="http://www.w3.org/1999/02/22-rdf-syntax-ns#">
   <cc:Work>
    <dc:type rdf:resource="http://purl.org/dc/dcmitype/StillImage"/>
    <dc:date>2022-12-20T12:31:05.358929</dc:date>
    <dc:format>image/svg+xml</dc:format>
    <dc:creator>
     <cc:Agent>
      <dc:title>Matplotlib v3.6.0, https://matplotlib.org/</dc:title>
     </cc:Agent>
    </dc:creator>
   </cc:Work>
  </rdf:RDF>
 </metadata>
 <defs>
  <style type="text/css">*{stroke-linejoin: round; stroke-linecap: butt}</style>
 </defs>
 <g id="figure_1">
  <g id="patch_1">
   <path d="M 0 345.6 
L 460.8 345.6 
L 460.8 0 
L 0 0 
z
" style="fill: #ffffff"/>
  </g>
  <g id="axes_1">
   <g id="patch_2">
    <path d="M 43.09 240.59 
L 450 240.59 
L 450 10.8 
L 43.09 10.8 
z
" style="fill: #ffffff"/>
   </g>
   <g id="patch_3">
    <path d="M 63.4355 240.59 
L 104.1265 240.59 
L 104.1265 22.919544 
L 63.4355 22.919544 
z
" clip-path="url(#p822cc500f1)" style="fill: #1f77b4"/>
   </g>
   <g id="patch_4">
    <path d="M 144.8175 240.59 
L 185.5085 240.59 
L 185.5085 74.115419 
L 144.8175 74.115419 
z
" clip-path="url(#p822cc500f1)" style="fill: #1f77b4"/>
   </g>
   <g id="patch_5">
    <path d="M 226.1995 240.59 
L 266.8905 240.59 
L 266.8905 58.885333 
L 226.1995 58.885333 
z
" clip-path="url(#p822cc500f1)" style="fill: #1f77b4"/>
   </g>
   <g id="patch_6">
    <path d="M 307.5815 240.59 
L 348.2725 240.59 
L 348.2725 92.349441 
L 307.5815 92.349441 
z
" clip-path="url(#p822cc500f1)" style="fill: #1f77b4"/>
   </g>
   <g id="patch_7">
    <path d="M 388.9635 240.59 
L 429.6545 240.59 
L 429.6545 151.40226 
L 388.9635 151.40226 
z
" clip-path="url(#p822cc500f1)" style="fill: #1f77b4"/>
   </g>
   <g id="patch_8">
    <path d="M 63.4355 240.59 
L 104.1265 240.59 
L 104.1265 240.009215 
L 63.4355 240.009215 
z
" clip-path="url(#p822cc500f1)" style="fill: #1f77b4"/>
   </g>
   <g id="patch_9">
    <path d="M 144.8175 240.59 
L 185.5085 240.59 
L 185.5085 240.396405 
L 144.8175 240.396405 
z
" clip-path="url(#p822cc500f1)" style="fill: #1f77b4"/>
   </g>
   <g id="patch_10">
    <path d="M 226.1995 240.59 
L 266.8905 240.59 
L 266.8905 240.59 
L 226.1995 240.59 
z
" clip-path="url(#p822cc500f1)" style="fill: #1f77b4"/>
   </g>
   <g id="patch_11">
    <path d="M 63.4355 240.59 
L 104.1265 240.59 
L 104.1265 240.525468 
L 63.4355 240.525468 
z
" clip-path="url(#p822cc500f1)" style="fill: #1f77b4"/>
   </g>
   <g id="patch_12">
    <path d="M 144.8175 240.59 
L 185.5085 240.59 
L 185.5085 240.525468 
L 144.8175 240.525468 
z
" clip-path="url(#p822cc500f1)" style="fill: #1f77b4"/>
   </g>
   <g id="patch_13">
    <path d="M 226.1995 240.59 
L 266.8905 240.59 
L 266.8905 240.525468 
L 226.1995 240.525468 
z
" clip-path="url(#p822cc500f1)" style="fill: #1f77b4"/>
   </g>
   <g id="patch_14">
    <path d="M 307.5815 240.59 
L 348.2725 240.59 
L 348.2725 240.396405 
L 307.5815 240.396405 
z
" clip-path="url(#p822cc500f1)" style="fill: #1f77b4"/>
   </g>
   <g id="patch_15">
    <path d="M 388.9635 240.59 
L 429.6545 240.59 
L 429.6545 240.59 
L 388.9635 240.59 
z
" clip-path="url(#p822cc500f1)" style="fill: #1f77b4"/>
   </g>
   <g id="patch_16">
    <path d="M 63.4355 240.59 
L 104.1265 240.59 
L 104.1265 204.194119 
L 63.4355 204.194119 
z
" clip-path="url(#p822cc500f1)" style="fill: #1f77b4"/>
   </g>
   <g id="patch_17">
    <path d="M 144.8175 240.59 
L 185.5085 240.59 
L 185.5085 230.329459 
L 144.8175 230.329459 
z
" clip-path="url(#p822cc500f1)" style="fill: #1f77b4"/>
   </g>
   <g id="patch_18">
    <path d="M 226.1995 240.59 
L 266.8905 240.59 
L 266.8905 232.168613 
L 226.1995 232.168613 
z
" clip-path="url(#p822cc500f1)" style="fill: #1f77b4"/>
   </g>
   <g id="patch_19">
    <path d="M 307.5815 240.59 
L 348.2725 240.59 
L 348.2725 205.162095 
L 307.5815 205.162095 
z
" clip-path="url(#p822cc500f1)" style="fill: #1f77b4"/>
   </g>
   <g id="patch_20">
    <path d="M 388.9635 240.59 
L 429.6545 240.59 
L 429.6545 236.040515 
L 388.9635 236.040515 
z
" clip-path="url(#p822cc500f1)" style="fill: #1f77b4"/>
   </g>
   <g id="patch_21">
    <path d="M 63.4355 240.59 
L 104.1265 240.59 
L 104.1265 240.396405 
L 63.4355 240.396405 
z
" clip-path="url(#p822cc500f1)" style="fill: #1f77b4"/>
   </g>
   <g id="patch_22">
    <path d="M 144.8175 240.59 
L 185.5085 240.59 
L 185.5085 240.59 
L 144.8175 240.59 
z
" clip-path="url(#p822cc500f1)" style="fill: #1f77b4"/>
   </g>
   <g id="patch_23">
    <path d="M 226.1995 240.59 
L 266.8905 240.59 
L 266.8905 240.59 
L 226.1995 240.59 
z
" clip-path="url(#p822cc500f1)" style="fill: #1f77b4"/>
   </g>
   <g id="patch_24">
    <path d="M 307.5815 240.59 
L 348.2725 240.59 
L 348.2725 240.59 
L 307.5815 240.59 
z
" clip-path="url(#p822cc500f1)" style="fill: #1f77b4"/>
   </g>
   <g id="patch_25">
    <path d="M 63.4355 240.59 
L 104.1265 240.59 
L 104.1265 235.362932 
L 63.4355 235.362932 
z
" clip-path="url(#p822cc500f1)" style="fill: #1f77b4"/>
   </g>
   <g id="patch_26">
    <path d="M 144.8175 240.59 
L 185.5085 240.59 
L 185.5085 240.009215 
L 144.8175 240.009215 
z
" clip-path="url(#p822cc500f1)" style="fill: #1f77b4"/>
   </g>
   <g id="patch_27">
    <path d="M 226.1995 240.59 
L 266.8905 240.59 
L 266.8905 240.396405 
L 226.1995 240.396405 
z
" clip-path="url(#p822cc500f1)" style="fill: #1f77b4"/>
   </g>
   <g id="patch_28">
    <path d="M 307.5815 240.59 
L 348.2725 240.59 
L 348.2725 240.396405 
L 307.5815 240.396405 
z
" clip-path="url(#p822cc500f1)" style="fill: #1f77b4"/>
   </g>
   <g id="patch_29">
    <path d="M 388.9635 240.59 
L 429.6545 240.59 
L 429.6545 239.234834 
L 388.9635 239.234834 
z
" clip-path="url(#p822cc500f1)" style="fill: #1f77b4"/>
   </g>
   <g id="patch_30">
    <path d="M 63.4355 240.59 
L 104.1265 240.59 
L 104.1265 240.20281 
L 63.4355 240.20281 
z
" clip-path="url(#p822cc500f1)" style="fill: #1f77b4"/>
   </g>
   <g id="patch_31">
    <path d="M 144.8175 240.59 
L 185.5085 240.59 
L 185.5085 240.20281 
L 144.8175 240.20281 
z
" clip-path="url(#p822cc500f1)" style="fill: #1f77b4"/>
   </g>
   <g id="patch_32">
    <path d="M 226.1995 240.59 
L 266.8905 240.59 
L 266.8905 240.20281 
L 226.1995 240.20281 
z
" clip-path="url(#p822cc500f1)" style="fill: #1f77b4"/>
   </g>
   <g id="patch_33">
    <path d="M 307.5815 240.59 
L 348.2725 240.59 
L 348.2725 240.20281 
L 307.5815 240.20281 
z
" clip-path="url(#p822cc500f1)" style="fill: #1f77b4"/>
   </g>
   <g id="patch_34">
    <path d="M 388.9635 240.59 
L 429.6545 240.59 
L 429.6545 240.20281 
L 388.9635 240.20281 
z
" clip-path="url(#p822cc500f1)" style="fill: #1f77b4"/>
   </g>
   <g id="patch_35">
    <path d="M 63.4355 240.59 
L 104.1265 240.59 
L 104.1265 240.009215 
L 63.4355 240.009215 
z
" clip-path="url(#p822cc500f1)" style="fill: #1f77b4"/>
   </g>
   <g id="patch_36">
    <path d="M 144.8175 240.59 
L 185.5085 240.59 
L 185.5085 240.106012 
L 144.8175 240.106012 
z
" clip-path="url(#p822cc500f1)" style="fill: #1f77b4"/>
   </g>
   <g id="patch_37">
    <path d="M 226.1995 240.59 
L 266.8905 240.59 
L 266.8905 240.396405 
L 226.1995 240.396405 
z
" clip-path="url(#p822cc500f1)" style="fill: #1f77b4"/>
   </g>
   <g id="patch_38">
    <path d="M 307.5815 240.59 
L 348.2725 240.59 
L 348.2725 240.493202 
L 307.5815 240.493202 
z
" clip-path="url(#p822cc500f1)" style="fill: #1f77b4"/>
   </g>
   <g id="patch_39">
    <path d="M 388.9635 240.59 
L 429.6545 240.59 
L 429.6545 240.493202 
L 388.9635 240.493202 
z
" clip-path="url(#p822cc500f1)" style="fill: #1f77b4"/>
   </g>
   <g id="patch_40">
    <path d="M 63.4355 240.59 
L 104.1265 240.59 
L 104.1265 240.009215 
L 63.4355 240.009215 
z
" clip-path="url(#p822cc500f1)" style="fill: #1f77b4"/>
   </g>
   <g id="patch_41">
    <path d="M 144.8175 240.59 
L 185.5085 240.59 
L 185.5085 240.59 
L 144.8175 240.59 
z
" clip-path="url(#p822cc500f1)" style="fill: #1f77b4"/>
   </g>
   <g id="patch_42">
    <path d="M 226.1995 240.59 
L 266.8905 240.59 
L 266.8905 240.59 
L 226.1995 240.59 
z
" clip-path="url(#p822cc500f1)" style="fill: #1f77b4"/>
   </g>
   <g id="patch_43">
    <path d="M 63.4355 240.59 
L 104.1265 240.59 
L 104.1265 240.009215 
L 63.4355 240.009215 
z
" clip-path="url(#p822cc500f1)" style="fill: #1f77b4"/>
   </g>
   <g id="patch_44">
    <path d="M 144.8175 240.59 
L 185.5085 240.59 
L 185.5085 240.396405 
L 144.8175 240.396405 
z
" clip-path="url(#p822cc500f1)" style="fill: #1f77b4"/>
   </g>
   <g id="patch_45">
    <path d="M 63.4355 240.59 
L 104.1265 240.59 
L 104.1265 27.128338 
L 63.4355 27.128338 
z
" clip-path="url(#p822cc500f1)" style="fill: #1f77b4"/>
   </g>
   <g id="patch_46">
    <path d="M 144.8175 240.59 
L 185.5085 240.59 
L 185.5085 87.209908 
L 144.8175 87.209908 
z
" clip-path="url(#p822cc500f1)" style="fill: #1f77b4"/>
   </g>
   <g id="patch_47">
    <path d="M 226.1995 240.59 
L 266.8905 240.59 
L 266.8905 107.277282 
L 226.1995 107.277282 
z
" clip-path="url(#p822cc500f1)" style="fill: #1f77b4"/>
   </g>
   <g id="patch_48">
    <path d="M 307.5815 240.59 
L 348.2725 240.59 
L 348.2725 87.742655 
L 307.5815 87.742655 
z
" clip-path="url(#p822cc500f1)" style="fill: #1f77b4"/>
   </g>
   <g id="patch_49">
    <path d="M 388.9635 240.59 
L 429.6545 240.59 
L 429.6545 128.172293 
L 388.9635 128.172293 
z
" clip-path="url(#p822cc500f1)" style="fill: #1f77b4"/>
   </g>
   <g id="patch_50">
    <path d="M 63.4355 240.59 
L 104.1265 240.59 
L 104.1265 240.59 
L 63.4355 240.59 
z
" clip-path="url(#p822cc500f1)" style="fill: #1f77b4"/>
   </g>
   <g id="patch_51">
    <path d="M 144.8175 240.59 
L 185.5085 240.59 
L 185.5085 240.59 
L 144.8175 240.59 
z
" clip-path="url(#p822cc500f1)" style="fill: #1f77b4"/>
   </g>
   <g id="patch_52">
    <path d="M 226.1995 240.59 
L 266.8905 240.59 
L 266.8905 240.59 
L 226.1995 240.59 
z
" clip-path="url(#p822cc500f1)" style="fill: #1f77b4"/>
   </g>
   <g id="patch_53">
    <path d="M 307.5815 240.59 
L 348.2725 240.59 
L 348.2725 240.59 
L 307.5815 240.59 
z
" clip-path="url(#p822cc500f1)" style="fill: #1f77b4"/>
   </g>
   <g id="patch_54">
    <path d="M 388.9635 240.59 
L 429.6545 240.59 
L 429.6545 240.59 
L 388.9635 240.59 
z
" clip-path="url(#p822cc500f1)" style="fill: #1f77b4"/>
   </g>
   <g id="patch_55">
    <path d="M 63.4355 240.59 
L 104.1265 240.59 
L 104.1265 240.396405 
L 63.4355 240.396405 
z
" clip-path="url(#p822cc500f1)" style="fill: #1f77b4"/>
   </g>
   <g id="patch_56">
    <path d="M 144.8175 240.59 
L 185.5085 240.59 
L 185.5085 240.59 
L 144.8175 240.59 
z
" clip-path="url(#p822cc500f1)" style="fill: #1f77b4"/>
   </g>
   <g id="patch_57">
    <path d="M 226.1995 240.59 
L 266.8905 240.59 
L 266.8905 240.59 
L 226.1995 240.59 
z
" clip-path="url(#p822cc500f1)" style="fill: #1f77b4"/>
   </g>
   <g id="patch_58">
    <path d="M 307.5815 240.59 
L 348.2725 240.59 
L 348.2725 240.59 
L 307.5815 240.59 
z
" clip-path="url(#p822cc500f1)" style="fill: #1f77b4"/>
   </g>
   <g id="patch_59">
    <path d="M 388.9635 240.59 
L 429.6545 240.59 
L 429.6545 240.59 
L 388.9635 240.59 
z
" clip-path="url(#p822cc500f1)" style="fill: #1f77b4"/>
   </g>
   <g id="patch_60">
    <path d="M 63.4355 240.59 
L 104.1265 240.59 
L 104.1265 239.525227 
L 63.4355 239.525227 
z
" clip-path="url(#p822cc500f1)" style="fill: #1f77b4"/>
   </g>
   <g id="patch_61">
    <path d="M 144.8175 240.59 
L 185.5085 240.59 
L 185.5085 240.009215 
L 144.8175 240.009215 
z
" clip-path="url(#p822cc500f1)" style="fill: #1f77b4"/>
   </g>
   <g id="patch_62">
    <path d="M 226.1995 240.59 
L 266.8905 240.59 
L 266.8905 240.493202 
L 226.1995 240.493202 
z
" clip-path="url(#p822cc500f1)" style="fill: #1f77b4"/>
   </g>
   <g id="patch_63">
    <path d="M 307.5815 240.59 
L 348.2725 240.59 
L 348.2725 240.59 
L 307.5815 240.59 
z
" clip-path="url(#p822cc500f1)" style="fill: #1f77b4"/>
   </g>
   <g id="patch_64">
    <path d="M 388.9635 240.59 
L 429.6545 240.59 
L 429.6545 240.59 
L 388.9635 240.59 
z
" clip-path="url(#p822cc500f1)" style="fill: #1f77b4"/>
   </g>
   <g id="patch_65">
    <path d="M 63.4355 240.59 
L 104.1265 240.59 
L 104.1265 219.19774 
L 63.4355 219.19774 
z
" clip-path="url(#p822cc500f1)" style="fill: #1f77b4"/>
   </g>
   <g id="patch_66">
    <path d="M 144.8175 240.59 
L 185.5085 240.59 
L 185.5085 238.654049 
L 144.8175 238.654049 
z
" clip-path="url(#p822cc500f1)" style="fill: #1f77b4"/>
   </g>
   <g id="patch_67">
    <path d="M 226.1995 240.59 
L 266.8905 240.59 
L 266.8905 228.909762 
L 226.1995 228.909762 
z
" clip-path="url(#p822cc500f1)" style="fill: #1f77b4"/>
   </g>
   <g id="patch_68">
    <path d="M 307.5815 240.59 
L 348.2725 240.59 
L 348.2725 225.876772 
L 307.5815 225.876772 
z
" clip-path="url(#p822cc500f1)" style="fill: #1f77b4"/>
   </g>
   <g id="patch_69">
    <path d="M 388.9635 240.59 
L 429.6545 240.59 
L 429.6545 228.683901 
L 388.9635 228.683901 
z
" clip-path="url(#p822cc500f1)" style="fill: #1f77b4"/>
   </g>
   <g id="patch_70">
    <path d="M 63.4355 240.59 
L 104.1265 240.59 
L 104.1265 176.163565 
L 63.4355 176.163565 
z
" clip-path="url(#p822cc500f1)" style="fill: #1f77b4"/>
   </g>
   <g id="patch_71">
    <path d="M 144.8175 240.59 
L 185.5085 240.59 
L 185.5085 185.40881 
L 144.8175 185.40881 
z
" clip-path="url(#p822cc500f1)" style="fill: #1f77b4"/>
   </g>
   <g id="patch_72">
    <path d="M 226.1995 240.59 
L 266.8905 240.59 
L 266.8905 106.581655 
L 226.1995 106.581655 
z
" clip-path="url(#p822cc500f1)" style="fill: #1f77b4"/>
   </g>
   <g id="patch_73">
    <path d="M 307.5815 240.59 
L 348.2725 240.59 
L 348.2725 159.78018 
L 307.5815 159.78018 
z
" clip-path="url(#p822cc500f1)" style="fill: #1f77b4"/>
   </g>
   <g id="patch_74">
    <path d="M 388.9635 240.59 
L 429.6545 240.59 
L 429.6545 105.699344 
L 388.9635 105.699344 
z
" clip-path="url(#p822cc500f1)" style="fill: #1f77b4"/>
   </g>
   <g id="patch_75">
    <path d="M 63.4355 240.59 
L 104.1265 240.59 
L 104.1265 240.59 
L 63.4355 240.59 
z
" clip-path="url(#p822cc500f1)" style="fill: #1f77b4"/>
   </g>
   <g id="patch_76">
    <path d="M 144.8175 240.59 
L 185.5085 240.59 
L 185.5085 240.59 
L 144.8175 240.59 
z
" clip-path="url(#p822cc500f1)" style="fill: #1f77b4"/>
   </g>
   <g id="patch_77">
    <path d="M 63.4355 240.59 
L 104.1265 240.59 
L 104.1265 238.170061 
L 63.4355 238.170061 
z
" clip-path="url(#p822cc500f1)" style="fill: #1f77b4"/>
   </g>
   <g id="patch_78">
    <path d="M 144.8175 240.59 
L 185.5085 240.59 
L 185.5085 238.654049 
L 144.8175 238.654049 
z
" clip-path="url(#p822cc500f1)" style="fill: #1f77b4"/>
   </g>
   <g id="patch_79">
    <path d="M 226.1995 240.59 
L 266.8905 240.59 
L 266.8905 239.428429 
L 226.1995 239.428429 
z
" clip-path="url(#p822cc500f1)" style="fill: #1f77b4"/>
   </g>
   <g id="patch_80">
    <path d="M 307.5815 240.59 
L 348.2725 240.59 
L 348.2725 240.396405 
L 307.5815 240.396405 
z
" clip-path="url(#p822cc500f1)" style="fill: #1f77b4"/>
   </g>
   <g id="patch_81">
    <path d="M 388.9635 240.59 
L 429.6545 240.59 
L 429.6545 240.20281 
L 388.9635 240.20281 
z
" clip-path="url(#p822cc500f1)" style="fill: #1f77b4"/>
   </g>
   <g id="patch_82">
    <path d="M 63.4355 240.59 
L 104.1265 240.59 
L 104.1265 240.009215 
L 63.4355 240.009215 
z
" clip-path="url(#p822cc500f1)" style="fill: #1f77b4"/>
   </g>
   <g id="patch_83">
    <path d="M 144.8175 240.59 
L 185.5085 240.59 
L 185.5085 240.009215 
L 144.8175 240.009215 
z
" clip-path="url(#p822cc500f1)" style="fill: #1f77b4"/>
   </g>
   <g id="patch_84">
    <path d="M 226.1995 240.59 
L 266.8905 240.59 
L 266.8905 240.396405 
L 226.1995 240.396405 
z
" clip-path="url(#p822cc500f1)" style="fill: #1f77b4"/>
   </g>
   <g id="patch_85">
    <path d="M 307.5815 240.59 
L 348.2725 240.59 
L 348.2725 240.59 
L 307.5815 240.59 
z
" clip-path="url(#p822cc500f1)" style="fill: #1f77b4"/>
   </g>
   <g id="patch_86">
    <path d="M 388.9635 240.59 
L 429.6545 240.59 
L 429.6545 240.59 
L 388.9635 240.59 
z
" clip-path="url(#p822cc500f1)" style="fill: #1f77b4"/>
   </g>
   <g id="patch_87">
    <path d="M 63.4355 240.59 
L 104.1265 240.59 
L 104.1265 236.524503 
L 63.4355 236.524503 
z
" clip-path="url(#p822cc500f1)" style="fill: #1f77b4"/>
   </g>
   <g id="patch_88">
    <path d="M 144.8175 240.59 
L 185.5085 240.59 
L 185.5085 240.493202 
L 144.8175 240.493202 
z
" clip-path="url(#p822cc500f1)" style="fill: #1f77b4"/>
   </g>
   <g id="patch_89">
    <path d="M 226.1995 240.59 
L 266.8905 240.59 
L 266.8905 240.493202 
L 226.1995 240.493202 
z
" clip-path="url(#p822cc500f1)" style="fill: #1f77b4"/>
   </g>
   <g id="patch_90">
    <path d="M 307.5815 240.59 
L 348.2725 240.59 
L 348.2725 240.493202 
L 307.5815 240.493202 
z
" clip-path="url(#p822cc500f1)" style="fill: #1f77b4"/>
   </g>
   <g id="patch_91">
    <path d="M 388.9635 240.59 
L 429.6545 240.59 
L 429.6545 240.493202 
L 388.9635 240.493202 
z
" clip-path="url(#p822cc500f1)" style="fill: #1f77b4"/>
   </g>
   <g id="patch_92">
    <path d="M 63.4355 240.59 
L 104.1265 240.59 
L 104.1265 240.59 
L 63.4355 240.59 
z
" clip-path="url(#p822cc500f1)" style="fill: #1f77b4"/>
   </g>
   <g id="patch_93">
    <path d="M 63.4355 240.59 
L 104.1265 240.59 
L 104.1265 239.622024 
L 63.4355 239.622024 
z
" clip-path="url(#p822cc500f1)" style="fill: #1f77b4"/>
   </g>
   <g id="patch_94">
    <path d="M 144.8175 240.59 
L 185.5085 240.59 
L 185.5085 239.622024 
L 144.8175 239.622024 
z
" clip-path="url(#p822cc500f1)" style="fill: #1f77b4"/>
   </g>
   <g id="patch_95">
    <path d="M 226.1995 240.59 
L 266.8905 240.59 
L 266.8905 240.396405 
L 226.1995 240.396405 
z
" clip-path="url(#p822cc500f1)" style="fill: #1f77b4"/>
   </g>
   <g id="patch_96">
    <path d="M 63.4355 240.59 
L 104.1265 240.59 
L 104.1265 236.524503 
L 63.4355 236.524503 
z
" clip-path="url(#p822cc500f1)" style="fill: #1f77b4"/>
   </g>
   <g id="patch_97">
    <path d="M 144.8175 240.59 
L 185.5085 240.59 
L 185.5085 240.396405 
L 144.8175 240.396405 
z
" clip-path="url(#p822cc500f1)" style="fill: #1f77b4"/>
   </g>
   <g id="patch_98">
    <path d="M 226.1995 240.59 
L 266.8905 240.59 
L 266.8905 240.396405 
L 226.1995 240.396405 
z
" clip-path="url(#p822cc500f1)" style="fill: #1f77b4"/>
   </g>
   <g id="patch_99">
    <path d="M 307.5815 240.59 
L 348.2725 240.59 
L 348.2725 240.59 
L 307.5815 240.59 
z
" clip-path="url(#p822cc500f1)" style="fill: #1f77b4"/>
   </g>
   <g id="patch_100">
    <path d="M 388.9635 240.59 
L 429.6545 240.59 
L 429.6545 240.59 
L 388.9635 240.59 
z
" clip-path="url(#p822cc500f1)" style="fill: #1f77b4"/>
   </g>
   <g id="patch_101">
    <path d="M 63.4355 240.59 
L 104.1265 240.59 
L 104.1265 240.59 
L 63.4355 240.59 
z
" clip-path="url(#p822cc500f1)" style="fill: #1f77b4"/>
   </g>
   <g id="patch_102">
    <path d="M 63.4355 240.59 
L 104.1265 240.59 
L 104.1265 21.742381 
L 63.4355 21.742381 
z
" clip-path="url(#p822cc500f1)" style="fill: #1f77b4"/>
   </g>
   <g id="patch_103">
    <path d="M 144.8175 240.59 
L 185.5085 240.59 
L 185.5085 69.896339 
L 144.8175 69.896339 
z
" clip-path="url(#p822cc500f1)" style="fill: #1f77b4"/>
   </g>
   <g id="patch_104">
    <path d="M 226.1995 240.59 
L 266.8905 240.59 
L 266.8905 102.463061 
L 226.1995 102.463061 
z
" clip-path="url(#p822cc500f1)" style="fill: #1f77b4"/>
   </g>
   <g id="patch_105">
    <path d="M 307.5815 240.59 
L 348.2725 240.59 
L 348.2725 127.561307 
L 307.5815 127.561307 
z
" clip-path="url(#p822cc500f1)" style="fill: #1f77b4"/>
   </g>
   <g id="patch_106">
    <path d="M 388.9635 240.59 
L 429.6545 240.59 
L 429.6545 145.464263 
L 388.9635 145.464263 
z
" clip-path="url(#p822cc500f1)" style="fill: #1f77b4"/>
   </g>
   <g id="patch_107">
    <path d="M 63.4355 240.59 
L 104.1265 240.59 
L 104.1265 239.622024 
L 63.4355 239.622024 
z
" clip-path="url(#p822cc500f1)" style="fill: #1f77b4"/>
   </g>
   <g id="patch_108">
    <path d="M 144.8175 240.59 
L 185.5085 240.59 
L 185.5085 239.622024 
L 144.8175 239.622024 
z
" clip-path="url(#p822cc500f1)" style="fill: #1f77b4"/>
   </g>
   <g id="patch_109">
    <path d="M 226.1995 240.59 
L 266.8905 240.59 
L 266.8905 239.622024 
L 226.1995 239.622024 
z
" clip-path="url(#p822cc500f1)" style="fill: #1f77b4"/>
   </g>
   <g id="patch_110">
    <path d="M 307.5815 240.59 
L 348.2725 240.59 
L 348.2725 240.493202 
L 307.5815 240.493202 
z
" clip-path="url(#p822cc500f1)" style="fill: #1f77b4"/>
   </g>
   <g id="patch_111">
    <path d="M 388.9635 240.59 
L 429.6545 240.59 
L 429.6545 240.493202 
L 388.9635 240.493202 
z
" clip-path="url(#p822cc500f1)" style="fill: #1f77b4"/>
   </g>
   <g id="patch_112">
    <path d="M 63.4355 240.59 
L 104.1265 240.59 
L 104.1265 126.282293 
L 63.4355 126.282293 
z
" clip-path="url(#p822cc500f1)" style="fill: #1f77b4"/>
   </g>
   <g id="patch_113">
    <path d="M 144.8175 240.59 
L 185.5085 240.59 
L 185.5085 126.505129 
L 144.8175 126.505129 
z
" clip-path="url(#p822cc500f1)" style="fill: #1f77b4"/>
   </g>
   <g id="patch_114">
    <path d="M 226.1995 240.59 
L 266.8905 240.59 
L 266.8905 165.483559 
L 226.1995 165.483559 
z
" clip-path="url(#p822cc500f1)" style="fill: #1f77b4"/>
   </g>
   <g id="patch_115">
    <path d="M 307.5815 240.59 
L 348.2725 240.59 
L 348.2725 162.106409 
L 307.5815 162.106409 
z
" clip-path="url(#p822cc500f1)" style="fill: #1f77b4"/>
   </g>
   <g id="patch_116">
    <path d="M 388.9635 240.59 
L 429.6545 240.59 
L 429.6545 125.463167 
L 388.9635 125.463167 
z
" clip-path="url(#p822cc500f1)" style="fill: #1f77b4"/>
   </g>
   <g id="patch_117">
    <path d="M 63.4355 240.59 
L 104.1265 240.59 
L 104.1265 239.428429 
L 63.4355 239.428429 
z
" clip-path="url(#p822cc500f1)" style="fill: #1f77b4"/>
   </g>
   <g id="patch_118">
    <path d="M 144.8175 240.59 
L 185.5085 240.59 
L 185.5085 239.622024 
L 144.8175 239.622024 
z
" clip-path="url(#p822cc500f1)" style="fill: #1f77b4"/>
   </g>
   <g id="patch_119">
    <path d="M 226.1995 240.59 
L 266.8905 240.59 
L 266.8905 240.009215 
L 226.1995 240.009215 
z
" clip-path="url(#p822cc500f1)" style="fill: #1f77b4"/>
   </g>
   <g id="patch_120">
    <path d="M 307.5815 240.59 
L 348.2725 240.59 
L 348.2725 240.20281 
L 307.5815 240.20281 
z
" clip-path="url(#p822cc500f1)" style="fill: #1f77b4"/>
   </g>
   <g id="patch_121">
    <path d="M 388.9635 240.59 
L 429.6545 240.59 
L 429.6545 240.493202 
L 388.9635 240.493202 
z
" clip-path="url(#p822cc500f1)" style="fill: #1f77b4"/>
   </g>
   <g id="patch_122">
    <path d="M 63.4355 240.59 
L 104.1265 240.59 
L 104.1265 240.009215 
L 63.4355 240.009215 
z
" clip-path="url(#p822cc500f1)" style="fill: #1f77b4"/>
   </g>
   <g id="patch_123">
    <path d="M 144.8175 240.59 
L 185.5085 240.59 
L 185.5085 240.493202 
L 144.8175 240.493202 
z
" clip-path="url(#p822cc500f1)" style="fill: #1f77b4"/>
   </g>
   <g id="patch_124">
    <path d="M 226.1995 240.59 
L 266.8905 240.59 
L 266.8905 240.493202 
L 226.1995 240.493202 
z
" clip-path="url(#p822cc500f1)" style="fill: #1f77b4"/>
   </g>
   <g id="patch_125">
    <path d="M 307.5815 240.59 
L 348.2725 240.59 
L 348.2725 240.396405 
L 307.5815 240.396405 
z
" clip-path="url(#p822cc500f1)" style="fill: #1f77b4"/>
   </g>
   <g id="patch_126">
    <path d="M 388.9635 240.59 
L 429.6545 240.59 
L 429.6545 240.59 
L 388.9635 240.59 
z
" clip-path="url(#p822cc500f1)" style="fill: #1f77b4"/>
   </g>
   <g id="patch_127">
    <path d="M 63.4355 240.59 
L 104.1265 240.59 
L 104.1265 240.009215 
L 63.4355 240.009215 
z
" clip-path="url(#p822cc500f1)" style="fill: #1f77b4"/>
   </g>
   <g id="patch_128">
    <path d="M 144.8175 240.59 
L 185.5085 240.59 
L 185.5085 240.396405 
L 144.8175 240.396405 
z
" clip-path="url(#p822cc500f1)" style="fill: #1f77b4"/>
   </g>
   <g id="patch_129">
    <path d="M 226.1995 240.59 
L 266.8905 240.59 
L 266.8905 240.59 
L 226.1995 240.59 
z
" clip-path="url(#p822cc500f1)" style="fill: #1f77b4"/>
   </g>
   <g id="patch_130">
    <path d="M 307.5815 240.59 
L 348.2725 240.59 
L 348.2725 240.59 
L 307.5815 240.59 
z
" clip-path="url(#p822cc500f1)" style="fill: #1f77b4"/>
   </g>
   <g id="patch_131">
    <path d="M 388.9635 240.59 
L 429.6545 240.59 
L 429.6545 240.59 
L 388.9635 240.59 
z
" clip-path="url(#p822cc500f1)" style="fill: #1f77b4"/>
   </g>
   <g id="patch_132">
    <path d="M 63.4355 240.59 
L 104.1265 240.59 
L 104.1265 235.482316 
L 63.4355 235.482316 
z
" clip-path="url(#p822cc500f1)" style="fill: #1f77b4"/>
   </g>
   <g id="patch_133">
    <path d="M 144.8175 240.59 
L 185.5085 240.59 
L 185.5085 239.428429 
L 144.8175 239.428429 
z
" clip-path="url(#p822cc500f1)" style="fill: #1f77b4"/>
   </g>
   <g id="patch_134">
    <path d="M 226.1995 240.59 
L 266.8905 240.59 
L 266.8905 237.834496 
L 226.1995 237.834496 
z
" clip-path="url(#p822cc500f1)" style="fill: #1f77b4"/>
   </g>
   <g id="patch_135">
    <path d="M 307.5815 240.59 
L 348.2725 240.59 
L 348.2725 237.834496 
L 307.5815 237.834496 
z
" clip-path="url(#p822cc500f1)" style="fill: #1f77b4"/>
   </g>
   <g id="patch_136">
    <path d="M 388.9635 240.59 
L 429.6545 240.59 
L 429.6545 237.834496 
L 388.9635 237.834496 
z
" clip-path="url(#p822cc500f1)" style="fill: #1f77b4"/>
   </g>
   <g id="patch_137">
    <path d="M 63.4355 240.59 
L 104.1265 240.59 
L 104.1265 201.095522 
L 63.4355 201.095522 
z
" clip-path="url(#p822cc500f1)" style="fill: #1f77b4"/>
   </g>
   <g id="patch_138">
    <path d="M 144.8175 240.59 
L 185.5085 240.59 
L 185.5085 208.514517 
L 144.8175 208.514517 
z
" clip-path="url(#p822cc500f1)" style="fill: #1f77b4"/>
   </g>
   <g id="patch_139">
    <path d="M 226.1995 240.59 
L 266.8905 240.59 
L 266.8905 235.137071 
L 226.1995 235.137071 
z
" clip-path="url(#p822cc500f1)" style="fill: #1f77b4"/>
   </g>
   <g id="patch_140">
    <path d="M 307.5815 240.59 
L 348.2725 240.59 
L 348.2725 239.864018 
L 307.5815 239.864018 
z
" clip-path="url(#p822cc500f1)" style="fill: #1f77b4"/>
   </g>
   <g id="patch_141">
    <path d="M 388.9635 240.59 
L 429.6545 240.59 
L 429.6545 239.864018 
L 388.9635 239.864018 
z
" clip-path="url(#p822cc500f1)" style="fill: #1f77b4"/>
   </g>
   <g id="patch_142">
    <path d="M 63.4355 240.59 
L 104.1265 240.59 
L 104.1265 236.282509 
L 63.4355 236.282509 
z
" clip-path="url(#p822cc500f1)" style="fill: #1f77b4"/>
   </g>
   <g id="patch_143">
    <path d="M 144.8175 240.59 
L 185.5085 240.59 
L 185.5085 237.782871 
L 144.8175 237.782871 
z
" clip-path="url(#p822cc500f1)" style="fill: #1f77b4"/>
   </g>
   <g id="patch_144">
    <path d="M 226.1995 240.59 
L 266.8905 240.59 
L 266.8905 240.009215 
L 226.1995 240.009215 
z
" clip-path="url(#p822cc500f1)" style="fill: #1f77b4"/>
   </g>
   <g id="patch_145">
    <path d="M 307.5815 240.59 
L 348.2725 240.59 
L 348.2725 240.164091 
L 307.5815 240.164091 
z
" clip-path="url(#p822cc500f1)" style="fill: #1f77b4"/>
   </g>
   <g id="patch_146">
    <path d="M 388.9635 240.59 
L 429.6545 240.59 
L 429.6545 239.622024 
L 388.9635 239.622024 
z
" clip-path="url(#p822cc500f1)" style="fill: #1f77b4"/>
   </g>
   <g id="matplotlib.axis_1">
    <g id="xtick_1">
     <g id="line2d_1">
      <defs>
       <path id="m773f2aece7" d="M 0 0 
L 0 3.5 
" style="stroke: #000000; stroke-width: 0.8"/>
      </defs>
      <g>
       <use xlink:href="#m773f2aece7" x="83.781" y="240.59" style="stroke: #000000; stroke-width: 0.8"/>
      </g>
     </g>
     <g id="text_1">
      <!-- William Forsythe -->
      <g transform="translate(86.540375 330.569687) rotate(-90) scale(0.1 -0.1)">
       <defs>
        <path id="DejaVuSans-57" d="M 213 4666 
L 850 4666 
L 1831 722 
L 2809 4666 
L 3519 4666 
L 4500 722 
L 5478 4666 
L 6119 4666 
L 4947 0 
L 4153 0 
L 3169 4050 
L 2175 0 
L 1381 0 
L 213 4666 
z
" transform="scale(0.015625)"/>
        <path id="DejaVuSans-69" d="M 603 3500 
L 1178 3500 
L 1178 0 
L 603 0 
L 603 3500 
z
M 603 4863 
L 1178 4863 
L 1178 4134 
L 603 4134 
L 603 4863 
z
" transform="scale(0.015625)"/>
        <path id="DejaVuSans-6c" d="M 603 4863 
L 1178 4863 
L 1178 0 
L 603 0 
L 603 4863 
z
" transform="scale(0.015625)"/>
        <path id="DejaVuSans-61" d="M 2194 1759 
Q 1497 1759 1228 1600 
Q 959 1441 959 1056 
Q 959 750 1161 570 
Q 1363 391 1709 391 
Q 2188 391 2477 730 
Q 2766 1069 2766 1631 
L 2766 1759 
L 2194 1759 
z
M 3341 1997 
L 3341 0 
L 2766 0 
L 2766 531 
Q 2569 213 2275 61 
Q 1981 -91 1556 -91 
Q 1019 -91 701 211 
Q 384 513 384 1019 
Q 384 1609 779 1909 
Q 1175 2209 1959 2209 
L 2766 2209 
L 2766 2266 
Q 2766 2663 2505 2880 
Q 2244 3097 1772 3097 
Q 1472 3097 1187 3025 
Q 903 2953 641 2809 
L 641 3341 
Q 956 3463 1253 3523 
Q 1550 3584 1831 3584 
Q 2591 3584 2966 3190 
Q 3341 2797 3341 1997 
z
" transform="scale(0.015625)"/>
        <path id="DejaVuSans-6d" d="M 3328 2828 
Q 3544 3216 3844 3400 
Q 4144 3584 4550 3584 
Q 5097 3584 5394 3201 
Q 5691 2819 5691 2113 
L 5691 0 
L 5113 0 
L 5113 2094 
Q 5113 2597 4934 2840 
Q 4756 3084 4391 3084 
Q 3944 3084 3684 2787 
Q 3425 2491 3425 1978 
L 3425 0 
L 2847 0 
L 2847 2094 
Q 2847 2600 2669 2842 
Q 2491 3084 2119 3084 
Q 1678 3084 1418 2786 
Q 1159 2488 1159 1978 
L 1159 0 
L 581 0 
L 581 3500 
L 1159 3500 
L 1159 2956 
Q 1356 3278 1631 3431 
Q 1906 3584 2284 3584 
Q 2666 3584 2933 3390 
Q 3200 3197 3328 2828 
z
" transform="scale(0.015625)"/>
        <path id="DejaVuSans-20" transform="scale(0.015625)"/>
        <path id="DejaVuSans-46" d="M 628 4666 
L 3309 4666 
L 3309 4134 
L 1259 4134 
L 1259 2759 
L 3109 2759 
L 3109 2228 
L 1259 2228 
L 1259 0 
L 628 0 
L 628 4666 
z
" transform="scale(0.015625)"/>
        <path id="DejaVuSans-6f" d="M 1959 3097 
Q 1497 3097 1228 2736 
Q 959 2375 959 1747 
Q 959 1119 1226 758 
Q 1494 397 1959 397 
Q 2419 397 2687 759 
Q 2956 1122 2956 1747 
Q 2956 2369 2687 2733 
Q 2419 3097 1959 3097 
z
M 1959 3584 
Q 2709 3584 3137 3096 
Q 3566 2609 3566 1747 
Q 3566 888 3137 398 
Q 2709 -91 1959 -91 
Q 1206 -91 779 398 
Q 353 888 353 1747 
Q 353 2609 779 3096 
Q 1206 3584 1959 3584 
z
" transform="scale(0.015625)"/>
        <path id="DejaVuSans-72" d="M 2631 2963 
Q 2534 3019 2420 3045 
Q 2306 3072 2169 3072 
Q 1681 3072 1420 2755 
Q 1159 2438 1159 1844 
L 1159 0 
L 581 0 
L 581 3500 
L 1159 3500 
L 1159 2956 
Q 1341 3275 1631 3429 
Q 1922 3584 2338 3584 
Q 2397 3584 2469 3576 
Q 2541 3569 2628 3553 
L 2631 2963 
z
" transform="scale(0.015625)"/>
        <path id="DejaVuSans-73" d="M 2834 3397 
L 2834 2853 
Q 2591 2978 2328 3040 
Q 2066 3103 1784 3103 
Q 1356 3103 1142 2972 
Q 928 2841 928 2578 
Q 928 2378 1081 2264 
Q 1234 2150 1697 2047 
L 1894 2003 
Q 2506 1872 2764 1633 
Q 3022 1394 3022 966 
Q 3022 478 2636 193 
Q 2250 -91 1575 -91 
Q 1294 -91 989 -36 
Q 684 19 347 128 
L 347 722 
Q 666 556 975 473 
Q 1284 391 1588 391 
Q 1994 391 2212 530 
Q 2431 669 2431 922 
Q 2431 1156 2273 1281 
Q 2116 1406 1581 1522 
L 1381 1569 
Q 847 1681 609 1914 
Q 372 2147 372 2553 
Q 372 3047 722 3315 
Q 1072 3584 1716 3584 
Q 2034 3584 2315 3537 
Q 2597 3491 2834 3397 
z
" transform="scale(0.015625)"/>
        <path id="DejaVuSans-79" d="M 2059 -325 
Q 1816 -950 1584 -1140 
Q 1353 -1331 966 -1331 
L 506 -1331 
L 506 -850 
L 844 -850 
Q 1081 -850 1212 -737 
Q 1344 -625 1503 -206 
L 1606 56 
L 191 3500 
L 800 3500 
L 1894 763 
L 2988 3500 
L 3597 3500 
L 2059 -325 
z
" transform="scale(0.015625)"/>
        <path id="DejaVuSans-74" d="M 1172 4494 
L 1172 3500 
L 2356 3500 
L 2356 3053 
L 1172 3053 
L 1172 1153 
Q 1172 725 1289 603 
Q 1406 481 1766 481 
L 2356 481 
L 2356 0 
L 1766 0 
Q 1100 0 847 248 
Q 594 497 594 1153 
L 594 3053 
L 172 3053 
L 172 3500 
L 594 3500 
L 594 4494 
L 1172 4494 
z
" transform="scale(0.015625)"/>
        <path id="DejaVuSans-68" d="M 3513 2113 
L 3513 0 
L 2938 0 
L 2938 2094 
Q 2938 2591 2744 2837 
Q 2550 3084 2163 3084 
Q 1697 3084 1428 2787 
Q 1159 2491 1159 1978 
L 1159 0 
L 581 0 
L 581 4863 
L 1159 4863 
L 1159 2956 
Q 1366 3272 1645 3428 
Q 1925 3584 2291 3584 
Q 2894 3584 3203 3211 
Q 3513 2838 3513 2113 
z
" transform="scale(0.015625)"/>
        <path id="DejaVuSans-65" d="M 3597 1894 
L 3597 1613 
L 953 1613 
Q 991 1019 1311 708 
Q 1631 397 2203 397 
Q 2534 397 2845 478 
Q 3156 559 3463 722 
L 3463 178 
Q 3153 47 2828 -22 
Q 2503 -91 2169 -91 
Q 1331 -91 842 396 
Q 353 884 353 1716 
Q 353 2575 817 3079 
Q 1281 3584 2069 3584 
Q 2775 3584 3186 3129 
Q 3597 2675 3597 1894 
z
M 3022 2063 
Q 3016 2534 2758 2815 
Q 2500 3097 2075 3097 
Q 1594 3097 1305 2825 
Q 1016 2553 972 2059 
L 3022 2063 
z
" transform="scale(0.015625)"/>
       </defs>
       <use xlink:href="#DejaVuSans-57"/>
       <use xlink:href="#DejaVuSans-69" x="96.626953"/>
       <use xlink:href="#DejaVuSans-6c" x="124.410156"/>
       <use xlink:href="#DejaVuSans-6c" x="152.193359"/>
       <use xlink:href="#DejaVuSans-69" x="179.976562"/>
       <use xlink:href="#DejaVuSans-61" x="207.759766"/>
       <use xlink:href="#DejaVuSans-6d" x="269.039062"/>
       <use xlink:href="#DejaVuSans-20" x="366.451172"/>
       <use xlink:href="#DejaVuSans-46" x="398.238281"/>
       <use xlink:href="#DejaVuSans-6f" x="452.132812"/>
       <use xlink:href="#DejaVuSans-72" x="513.314453"/>
       <use xlink:href="#DejaVuSans-73" x="554.427734"/>
       <use xlink:href="#DejaVuSans-79" x="606.527344"/>
       <use xlink:href="#DejaVuSans-74" x="665.707031"/>
       <use xlink:href="#DejaVuSans-68" x="704.916016"/>
       <use xlink:href="#DejaVuSans-65" x="768.294922"/>
      </g>
     </g>
    </g>
    <g id="xtick_2">
     <g id="line2d_2">
      <g>
       <use xlink:href="#m773f2aece7" x="165.163" y="240.59" style="stroke: #000000; stroke-width: 0.8"/>
      </g>
     </g>
     <g id="text_2">
      <!-- Bruce Willis -->
      <g transform="translate(167.922375 305.713437) rotate(-90) scale(0.1 -0.1)">
       <defs>
        <path id="DejaVuSans-42" d="M 1259 2228 
L 1259 519 
L 2272 519 
Q 2781 519 3026 730 
Q 3272 941 3272 1375 
Q 3272 1813 3026 2020 
Q 2781 2228 2272 2228 
L 1259 2228 
z
M 1259 4147 
L 1259 2741 
L 2194 2741 
Q 2656 2741 2882 2914 
Q 3109 3088 3109 3444 
Q 3109 3797 2882 3972 
Q 2656 4147 2194 4147 
L 1259 4147 
z
M 628 4666 
L 2241 4666 
Q 2963 4666 3353 4366 
Q 3744 4066 3744 3513 
Q 3744 3084 3544 2831 
Q 3344 2578 2956 2516 
Q 3422 2416 3680 2098 
Q 3938 1781 3938 1306 
Q 3938 681 3513 340 
Q 3088 0 2303 0 
L 628 0 
L 628 4666 
z
" transform="scale(0.015625)"/>
        <path id="DejaVuSans-75" d="M 544 1381 
L 544 3500 
L 1119 3500 
L 1119 1403 
Q 1119 906 1312 657 
Q 1506 409 1894 409 
Q 2359 409 2629 706 
Q 2900 1003 2900 1516 
L 2900 3500 
L 3475 3500 
L 3475 0 
L 2900 0 
L 2900 538 
Q 2691 219 2414 64 
Q 2138 -91 1772 -91 
Q 1169 -91 856 284 
Q 544 659 544 1381 
z
M 1991 3584 
L 1991 3584 
z
" transform="scale(0.015625)"/>
        <path id="DejaVuSans-63" d="M 3122 3366 
L 3122 2828 
Q 2878 2963 2633 3030 
Q 2388 3097 2138 3097 
Q 1578 3097 1268 2742 
Q 959 2388 959 1747 
Q 959 1106 1268 751 
Q 1578 397 2138 397 
Q 2388 397 2633 464 
Q 2878 531 3122 666 
L 3122 134 
Q 2881 22 2623 -34 
Q 2366 -91 2075 -91 
Q 1284 -91 818 406 
Q 353 903 353 1747 
Q 353 2603 823 3093 
Q 1294 3584 2113 3584 
Q 2378 3584 2631 3529 
Q 2884 3475 3122 3366 
z
" transform="scale(0.015625)"/>
       </defs>
       <use xlink:href="#DejaVuSans-42"/>
       <use xlink:href="#DejaVuSans-72" x="68.603516"/>
       <use xlink:href="#DejaVuSans-75" x="109.716797"/>
       <use xlink:href="#DejaVuSans-63" x="173.095703"/>
       <use xlink:href="#DejaVuSans-65" x="228.076172"/>
       <use xlink:href="#DejaVuSans-20" x="289.599609"/>
       <use xlink:href="#DejaVuSans-57" x="321.386719"/>
       <use xlink:href="#DejaVuSans-69" x="418.013672"/>
       <use xlink:href="#DejaVuSans-6c" x="445.796875"/>
       <use xlink:href="#DejaVuSans-6c" x="473.580078"/>
       <use xlink:href="#DejaVuSans-69" x="501.363281"/>
       <use xlink:href="#DejaVuSans-73" x="529.146484"/>
      </g>
     </g>
    </g>
    <g id="xtick_3">
     <g id="line2d_3">
      <g>
       <use xlink:href="#m773f2aece7" x="246.545" y="240.59" style="stroke: #000000; stroke-width: 0.8"/>
      </g>
     </g>
     <g id="text_3">
      <!-- Kiefer Sutherland -->
      <g transform="translate(249.304375 334.841563) rotate(-90) scale(0.1 -0.1)">
       <defs>
        <path id="DejaVuSans-4b" d="M 628 4666 
L 1259 4666 
L 1259 2694 
L 3353 4666 
L 4166 4666 
L 1850 2491 
L 4331 0 
L 3500 0 
L 1259 2247 
L 1259 0 
L 628 0 
L 628 4666 
z
" transform="scale(0.015625)"/>
        <path id="DejaVuSans-66" d="M 2375 4863 
L 2375 4384 
L 1825 4384 
Q 1516 4384 1395 4259 
Q 1275 4134 1275 3809 
L 1275 3500 
L 2222 3500 
L 2222 3053 
L 1275 3053 
L 1275 0 
L 697 0 
L 697 3053 
L 147 3053 
L 147 3500 
L 697 3500 
L 697 3744 
Q 697 4328 969 4595 
Q 1241 4863 1831 4863 
L 2375 4863 
z
" transform="scale(0.015625)"/>
        <path id="DejaVuSans-53" d="M 3425 4513 
L 3425 3897 
Q 3066 4069 2747 4153 
Q 2428 4238 2131 4238 
Q 1616 4238 1336 4038 
Q 1056 3838 1056 3469 
Q 1056 3159 1242 3001 
Q 1428 2844 1947 2747 
L 2328 2669 
Q 3034 2534 3370 2195 
Q 3706 1856 3706 1288 
Q 3706 609 3251 259 
Q 2797 -91 1919 -91 
Q 1588 -91 1214 -16 
Q 841 59 441 206 
L 441 856 
Q 825 641 1194 531 
Q 1563 422 1919 422 
Q 2459 422 2753 634 
Q 3047 847 3047 1241 
Q 3047 1584 2836 1778 
Q 2625 1972 2144 2069 
L 1759 2144 
Q 1053 2284 737 2584 
Q 422 2884 422 3419 
Q 422 4038 858 4394 
Q 1294 4750 2059 4750 
Q 2388 4750 2728 4690 
Q 3069 4631 3425 4513 
z
" transform="scale(0.015625)"/>
        <path id="DejaVuSans-6e" d="M 3513 2113 
L 3513 0 
L 2938 0 
L 2938 2094 
Q 2938 2591 2744 2837 
Q 2550 3084 2163 3084 
Q 1697 3084 1428 2787 
Q 1159 2491 1159 1978 
L 1159 0 
L 581 0 
L 581 3500 
L 1159 3500 
L 1159 2956 
Q 1366 3272 1645 3428 
Q 1925 3584 2291 3584 
Q 2894 3584 3203 3211 
Q 3513 2838 3513 2113 
z
" transform="scale(0.015625)"/>
        <path id="DejaVuSans-64" d="M 2906 2969 
L 2906 4863 
L 3481 4863 
L 3481 0 
L 2906 0 
L 2906 525 
Q 2725 213 2448 61 
Q 2172 -91 1784 -91 
Q 1150 -91 751 415 
Q 353 922 353 1747 
Q 353 2572 751 3078 
Q 1150 3584 1784 3584 
Q 2172 3584 2448 3432 
Q 2725 3281 2906 2969 
z
M 947 1747 
Q 947 1113 1208 752 
Q 1469 391 1925 391 
Q 2381 391 2643 752 
Q 2906 1113 2906 1747 
Q 2906 2381 2643 2742 
Q 2381 3103 1925 3103 
Q 1469 3103 1208 2742 
Q 947 2381 947 1747 
z
" transform="scale(0.015625)"/>
       </defs>
       <use xlink:href="#DejaVuSans-4b"/>
       <use xlink:href="#DejaVuSans-69" x="65.576172"/>
       <use xlink:href="#DejaVuSans-65" x="93.359375"/>
       <use xlink:href="#DejaVuSans-66" x="154.882812"/>
       <use xlink:href="#DejaVuSans-65" x="190.087891"/>
       <use xlink:href="#DejaVuSans-72" x="251.611328"/>
       <use xlink:href="#DejaVuSans-20" x="292.724609"/>
       <use xlink:href="#DejaVuSans-53" x="324.511719"/>
       <use xlink:href="#DejaVuSans-75" x="387.988281"/>
       <use xlink:href="#DejaVuSans-74" x="451.367188"/>
       <use xlink:href="#DejaVuSans-68" x="490.576172"/>
       <use xlink:href="#DejaVuSans-65" x="553.955078"/>
       <use xlink:href="#DejaVuSans-72" x="615.478516"/>
       <use xlink:href="#DejaVuSans-6c" x="656.591797"/>
       <use xlink:href="#DejaVuSans-61" x="684.375"/>
       <use xlink:href="#DejaVuSans-6e" x="745.654297"/>
       <use xlink:href="#DejaVuSans-64" x="809.033203"/>
      </g>
     </g>
    </g>
    <g id="xtick_4">
     <g id="line2d_4">
      <g>
       <use xlink:href="#m773f2aece7" x="327.927" y="240.59" style="stroke: #000000; stroke-width: 0.8"/>
      </g>
     </g>
     <g id="text_4">
      <!-- Dan Aykroyd -->
      <g transform="translate(330.686375 311.080625) rotate(-90) scale(0.1 -0.1)">
       <defs>
        <path id="DejaVuSans-44" d="M 1259 4147 
L 1259 519 
L 2022 519 
Q 2988 519 3436 956 
Q 3884 1394 3884 2338 
Q 3884 3275 3436 3711 
Q 2988 4147 2022 4147 
L 1259 4147 
z
M 628 4666 
L 1925 4666 
Q 3281 4666 3915 4102 
Q 4550 3538 4550 2338 
Q 4550 1131 3912 565 
Q 3275 0 1925 0 
L 628 0 
L 628 4666 
z
" transform="scale(0.015625)"/>
        <path id="DejaVuSans-41" d="M 2188 4044 
L 1331 1722 
L 3047 1722 
L 2188 4044 
z
M 1831 4666 
L 2547 4666 
L 4325 0 
L 3669 0 
L 3244 1197 
L 1141 1197 
L 716 0 
L 50 0 
L 1831 4666 
z
" transform="scale(0.015625)"/>
        <path id="DejaVuSans-6b" d="M 581 4863 
L 1159 4863 
L 1159 1991 
L 2875 3500 
L 3609 3500 
L 1753 1863 
L 3688 0 
L 2938 0 
L 1159 1709 
L 1159 0 
L 581 0 
L 581 4863 
z
" transform="scale(0.015625)"/>
       </defs>
       <use xlink:href="#DejaVuSans-44"/>
       <use xlink:href="#DejaVuSans-61" x="77.001953"/>
       <use xlink:href="#DejaVuSans-6e" x="138.28125"/>
       <use xlink:href="#DejaVuSans-20" x="201.660156"/>
       <use xlink:href="#DejaVuSans-41" x="233.447266"/>
       <use xlink:href="#DejaVuSans-79" x="295.105469"/>
       <use xlink:href="#DejaVuSans-6b" x="354.285156"/>
       <use xlink:href="#DejaVuSans-72" x="412.195312"/>
       <use xlink:href="#DejaVuSans-6f" x="451.058594"/>
       <use xlink:href="#DejaVuSans-79" x="512.240234"/>
       <use xlink:href="#DejaVuSans-64" x="571.419922"/>
      </g>
     </g>
    </g>
    <g id="xtick_5">
     <g id="line2d_5">
      <g>
       <use xlink:href="#m773f2aece7" x="409.309" y="240.59" style="stroke: #000000; stroke-width: 0.8"/>
      </g>
     </g>
     <g id="text_5">
      <!-- Susan Sarandon -->
      <g transform="translate(412.068375 328.986875) rotate(-90) scale(0.1 -0.1)">
       <use xlink:href="#DejaVuSans-53"/>
       <use xlink:href="#DejaVuSans-75" x="63.476562"/>
       <use xlink:href="#DejaVuSans-73" x="126.855469"/>
       <use xlink:href="#DejaVuSans-61" x="178.955078"/>
       <use xlink:href="#DejaVuSans-6e" x="240.234375"/>
       <use xlink:href="#DejaVuSans-20" x="303.613281"/>
       <use xlink:href="#DejaVuSans-53" x="335.400391"/>
       <use xlink:href="#DejaVuSans-61" x="398.876953"/>
       <use xlink:href="#DejaVuSans-72" x="460.15625"/>
       <use xlink:href="#DejaVuSans-61" x="501.269531"/>
       <use xlink:href="#DejaVuSans-6e" x="562.548828"/>
       <use xlink:href="#DejaVuSans-64" x="625.927734"/>
       <use xlink:href="#DejaVuSans-6f" x="689.404297"/>
       <use xlink:href="#DejaVuSans-6e" x="750.585938"/>
      </g>
     </g>
    </g>
   </g>
   <g id="matplotlib.axis_2">
    <g id="ytick_1">
     <g id="line2d_6">
      <defs>
       <path id="mddb03bb991" d="M 0 0 
L -3.5 0 
" style="stroke: #000000; stroke-width: 0.8"/>
      </defs>
      <g>
       <use xlink:href="#mddb03bb991" x="43.09" y="240.59" style="stroke: #000000; stroke-width: 0.8"/>
      </g>
     </g>
     <g id="text_6">
      <!-- 0 -->
      <g transform="translate(29.7275 244.389219) scale(0.1 -0.1)">
       <defs>
        <path id="DejaVuSans-30" d="M 2034 4250 
Q 1547 4250 1301 3770 
Q 1056 3291 1056 2328 
Q 1056 1369 1301 889 
Q 1547 409 2034 409 
Q 2525 409 2770 889 
Q 3016 1369 3016 2328 
Q 3016 3291 2770 3770 
Q 2525 4250 2034 4250 
z
M 2034 4750 
Q 2819 4750 3233 4129 
Q 3647 3509 3647 2328 
Q 3647 1150 3233 529 
Q 2819 -91 2034 -91 
Q 1250 -91 836 529 
Q 422 1150 422 2328 
Q 422 3509 836 4129 
Q 1250 4750 2034 4750 
z
" transform="scale(0.015625)"/>
       </defs>
       <use xlink:href="#DejaVuSans-30"/>
      </g>
     </g>
    </g>
    <g id="ytick_2">
     <g id="line2d_7">
      <g>
       <use xlink:href="#mddb03bb991" x="43.09" y="201.870978" style="stroke: #000000; stroke-width: 0.8"/>
      </g>
     </g>
     <g id="text_7">
      <!-- 200 -->
      <g transform="translate(17.0025 205.670197) scale(0.1 -0.1)">
       <defs>
        <path id="DejaVuSans-32" d="M 1228 531 
L 3431 531 
L 3431 0 
L 469 0 
L 469 531 
Q 828 903 1448 1529 
Q 2069 2156 2228 2338 
Q 2531 2678 2651 2914 
Q 2772 3150 2772 3378 
Q 2772 3750 2511 3984 
Q 2250 4219 1831 4219 
Q 1534 4219 1204 4116 
Q 875 4013 500 3803 
L 500 4441 
Q 881 4594 1212 4672 
Q 1544 4750 1819 4750 
Q 2544 4750 2975 4387 
Q 3406 4025 3406 3419 
Q 3406 3131 3298 2873 
Q 3191 2616 2906 2266 
Q 2828 2175 2409 1742 
Q 1991 1309 1228 531 
z
" transform="scale(0.015625)"/>
       </defs>
       <use xlink:href="#DejaVuSans-32"/>
       <use xlink:href="#DejaVuSans-30" x="63.623047"/>
       <use xlink:href="#DejaVuSans-30" x="127.246094"/>
      </g>
     </g>
    </g>
    <g id="ytick_3">
     <g id="line2d_8">
      <g>
       <use xlink:href="#mddb03bb991" x="43.09" y="163.151956" style="stroke: #000000; stroke-width: 0.8"/>
      </g>
     </g>
     <g id="text_8">
      <!-- 400 -->
      <g transform="translate(17.0025 166.951174) scale(0.1 -0.1)">
       <defs>
        <path id="DejaVuSans-34" d="M 2419 4116 
L 825 1625 
L 2419 1625 
L 2419 4116 
z
M 2253 4666 
L 3047 4666 
L 3047 1625 
L 3713 1625 
L 3713 1100 
L 3047 1100 
L 3047 0 
L 2419 0 
L 2419 1100 
L 313 1100 
L 313 1709 
L 2253 4666 
z
" transform="scale(0.015625)"/>
       </defs>
       <use xlink:href="#DejaVuSans-34"/>
       <use xlink:href="#DejaVuSans-30" x="63.623047"/>
       <use xlink:href="#DejaVuSans-30" x="127.246094"/>
      </g>
     </g>
    </g>
    <g id="ytick_4">
     <g id="line2d_9">
      <g>
       <use xlink:href="#mddb03bb991" x="43.09" y="124.432933" style="stroke: #000000; stroke-width: 0.8"/>
      </g>
     </g>
     <g id="text_9">
      <!-- 600 -->
      <g transform="translate(17.0025 128.232152) scale(0.1 -0.1)">
       <defs>
        <path id="DejaVuSans-36" d="M 2113 2584 
Q 1688 2584 1439 2293 
Q 1191 2003 1191 1497 
Q 1191 994 1439 701 
Q 1688 409 2113 409 
Q 2538 409 2786 701 
Q 3034 994 3034 1497 
Q 3034 2003 2786 2293 
Q 2538 2584 2113 2584 
z
M 3366 4563 
L 3366 3988 
Q 3128 4100 2886 4159 
Q 2644 4219 2406 4219 
Q 1781 4219 1451 3797 
Q 1122 3375 1075 2522 
Q 1259 2794 1537 2939 
Q 1816 3084 2150 3084 
Q 2853 3084 3261 2657 
Q 3669 2231 3669 1497 
Q 3669 778 3244 343 
Q 2819 -91 2113 -91 
Q 1303 -91 875 529 
Q 447 1150 447 2328 
Q 447 3434 972 4092 
Q 1497 4750 2381 4750 
Q 2619 4750 2861 4703 
Q 3103 4656 3366 4563 
z
" transform="scale(0.015625)"/>
       </defs>
       <use xlink:href="#DejaVuSans-36"/>
       <use xlink:href="#DejaVuSans-30" x="63.623047"/>
       <use xlink:href="#DejaVuSans-30" x="127.246094"/>
      </g>
     </g>
    </g>
    <g id="ytick_5">
     <g id="line2d_10">
      <g>
       <use xlink:href="#mddb03bb991" x="43.09" y="85.713911" style="stroke: #000000; stroke-width: 0.8"/>
      </g>
     </g>
     <g id="text_10">
      <!-- 800 -->
      <g transform="translate(17.0025 89.51313) scale(0.1 -0.1)">
       <defs>
        <path id="DejaVuSans-38" d="M 2034 2216 
Q 1584 2216 1326 1975 
Q 1069 1734 1069 1313 
Q 1069 891 1326 650 
Q 1584 409 2034 409 
Q 2484 409 2743 651 
Q 3003 894 3003 1313 
Q 3003 1734 2745 1975 
Q 2488 2216 2034 2216 
z
M 1403 2484 
Q 997 2584 770 2862 
Q 544 3141 544 3541 
Q 544 4100 942 4425 
Q 1341 4750 2034 4750 
Q 2731 4750 3128 4425 
Q 3525 4100 3525 3541 
Q 3525 3141 3298 2862 
Q 3072 2584 2669 2484 
Q 3125 2378 3379 2068 
Q 3634 1759 3634 1313 
Q 3634 634 3220 271 
Q 2806 -91 2034 -91 
Q 1263 -91 848 271 
Q 434 634 434 1313 
Q 434 1759 690 2068 
Q 947 2378 1403 2484 
z
M 1172 3481 
Q 1172 3119 1398 2916 
Q 1625 2713 2034 2713 
Q 2441 2713 2670 2916 
Q 2900 3119 2900 3481 
Q 2900 3844 2670 4047 
Q 2441 4250 2034 4250 
Q 1625 4250 1398 4047 
Q 1172 3844 1172 3481 
z
" transform="scale(0.015625)"/>
       </defs>
       <use xlink:href="#DejaVuSans-38"/>
       <use xlink:href="#DejaVuSans-30" x="63.623047"/>
       <use xlink:href="#DejaVuSans-30" x="127.246094"/>
      </g>
     </g>
    </g>
    <g id="ytick_6">
     <g id="line2d_11">
      <g>
       <use xlink:href="#mddb03bb991" x="43.09" y="46.994889" style="stroke: #000000; stroke-width: 0.8"/>
      </g>
     </g>
     <g id="text_11">
      <!-- 1000 -->
      <g transform="translate(10.64 50.794108) scale(0.1 -0.1)">
       <defs>
        <path id="DejaVuSans-31" d="M 794 531 
L 1825 531 
L 1825 4091 
L 703 3866 
L 703 4441 
L 1819 4666 
L 2450 4666 
L 2450 531 
L 3481 531 
L 3481 0 
L 794 0 
L 794 531 
z
" transform="scale(0.015625)"/>
       </defs>
       <use xlink:href="#DejaVuSans-31"/>
       <use xlink:href="#DejaVuSans-30" x="63.623047"/>
       <use xlink:href="#DejaVuSans-30" x="127.246094"/>
       <use xlink:href="#DejaVuSans-30" x="190.869141"/>
      </g>
     </g>
    </g>
   </g>
   <g id="patch_147">
    <path d="M 43.09 240.59 
L 43.09 10.8 
" style="fill: none; stroke: #000000; stroke-width: 0.8; stroke-linejoin: miter; stroke-linecap: square"/>
   </g>
   <g id="patch_148">
    <path d="M 450 240.59 
L 450 10.8 
" style="fill: none; stroke: #000000; stroke-width: 0.8; stroke-linejoin: miter; stroke-linecap: square"/>
   </g>
   <g id="patch_149">
    <path d="M 43.09 240.59 
L 450 240.59 
" style="fill: none; stroke: #000000; stroke-width: 0.8; stroke-linejoin: miter; stroke-linecap: square"/>
   </g>
   <g id="patch_150">
    <path d="M 43.09 10.8 
L 450 10.8 
" style="fill: none; stroke: #000000; stroke-width: 0.8; stroke-linejoin: miter; stroke-linecap: square"/>
   </g>
  </g>
 </g>
 <defs>
  <clipPath id="p822cc500f1">
   <rect x="43.09" y="10.8" width="406.91" height="229.79"/>
  </clipPath>
 </defs>
</svg>
